<svg width="265" height="270" viewBox="0 0 265 270" fill="none" xmlns="http://www.w3.org/2000/svg">
<g clip-path="url(#clip0_221_12878)">
<path d="M256.618 152.415C248.243 174.849 231.129 199.132 207.04 206.323C170.65 217.19 166.303 246.525 101.125 243.8C90.9633 243.379 81.57 241.945 72.939 239.669C68.3021 238.446 63.8814 236.967 59.6883 235.26C21.6143 219.836 1.75236 185.892 0.102413 150.379C-2.07665 103.668 30.5183 81.3994 51.7002 68.3649C72.8822 55.3246 98.4108 4.80776 162.508 6.98113C172.283 7.31681 182.029 8.65384 191.479 11.2141C213.048 17.0515 234.97 29.9609 247.708 48.8329C248.664 50.2496 249.574 51.7004 250.451 53.1797C267.502 82.1049 268.037 121.829 256.618 152.415Z" fill="#75A9C8"/>
<path opacity="0.7" d="M256.618 152.415C248.243 174.849 231.129 199.132 207.04 206.323C170.65 217.19 166.303 246.525 101.125 243.8C90.9633 243.379 81.57 241.945 72.939 239.669C68.3021 238.446 63.8814 236.967 59.6883 235.26C21.6143 219.836 1.75236 185.892 0.102413 150.379C-2.07665 103.668 30.5183 81.3994 51.7002 68.3649C72.8822 55.3246 98.4108 4.80776 162.508 6.98113C172.283 7.31681 182.029 8.65384 191.479 11.2141C213.048 17.0515 234.97 29.9609 247.708 48.8329C248.664 50.2496 249.574 51.7004 250.451 53.1797C267.502 82.1049 268.037 121.829 256.618 152.415Z" fill="white"/>
<g opacity="0.3">
<path d="M261.255 56.7925H217.588V117.926H261.255V56.7925Z" stroke="black" stroke-width="0.568947" stroke-miterlimit="10"/>
<path d="M259.77 58.8691H219.073V115.844H259.77V58.8691Z" stroke="black" stroke-width="0.568947" stroke-miterlimit="10"/>
<path d="M249.074 73.8438H229.764V100.874H249.074V73.8438Z" stroke="black" stroke-width="0.568947" stroke-miterlimit="10"/>
</g>
<g opacity="0.3">
<path d="M211.642 57.1792H188.071V90.1781H211.642V57.1792Z" stroke="black" stroke-width="0.568947" stroke-miterlimit="10"/>
<path d="M210.84 58.2998H188.873V89.0514H210.84V58.2998Z" stroke="black" stroke-width="0.568947" stroke-miterlimit="10"/>
<path d="M205.065 66.3848H194.642V80.9783H205.065V66.3848Z" stroke="black" stroke-width="0.568947" stroke-miterlimit="10"/>
</g>
<path d="M218.111 241.632V197.55" stroke="#5E5E5E" stroke-width="2.27579" stroke-miterlimit="10"/>
<path d="M212.627 242.525V181.642" stroke="#5E5E5E" stroke-width="2.27579" stroke-miterlimit="10"/>
<path d="M225.064 242.821V221.44" stroke="#5E5E5E" stroke-width="2.27579" stroke-miterlimit="10"/>
<path d="M210.493 187.644C210.493 187.644 209.395 185.625 205.726 181.227C202.056 176.823 186.831 164.903 186.831 164.903C186.831 164.903 195.45 169.489 198.204 171.873C200.958 174.257 204.622 177.193 204.622 177.193C204.622 177.193 194.352 166.002 193.249 165.268C192.15 164.534 203.706 174.075 203.706 174.075C203.706 174.075 199.302 165.268 197.1 162.338C194.898 159.402 190.683 152.432 190.683 152.432C190.683 152.432 202.608 168.391 203.154 169.307C203.706 170.223 206.09 174.263 206.09 174.263L201.868 163.259L207.006 172.249C207.006 172.249 199.666 157.024 199.302 156.29C198.938 155.556 204.44 163.441 204.44 163.441L199.672 149.132L210.675 171.697L209.941 162.889L211.961 172.061L212.513 149.496L213.799 171.873C213.799 171.873 215.819 157.564 216.183 154.628C216.547 151.693 216.735 148.575 216.735 148.575C216.735 148.575 216.371 168.021 216.371 168.568C216.371 169.114 216.006 173.517 216.006 173.517C216.006 173.517 218.76 165.262 219.494 163.06C220.228 160.858 220.962 153.337 221.326 152.239C221.69 151.141 219.494 169.114 219.306 169.848C219.124 170.582 218.572 172.232 218.021 173.335C217.469 174.433 222.054 166.73 223.704 163.43C225.354 160.13 228.472 153.889 228.472 153.889C228.472 153.889 225.718 163.06 224.984 164.71C224.25 166.36 219.483 175.167 219.483 175.167C219.483 175.167 226.634 166.73 229.758 164.528C232.876 162.326 238.565 158.11 238.565 158.11C238.565 158.11 229.394 168.016 227.562 169.848C225.73 171.68 220.41 178.103 220.41 178.103C220.41 178.103 229.582 172.232 230.133 171.685C230.685 171.133 237.285 166.918 237.285 166.918C237.285 166.918 223.972 177.437 223.346 178.109C218.026 183.793 216.194 186.546 215.09 187.65C213.992 188.748 212.155 189.3 210.505 187.65L210.493 187.644Z" fill="#75A9C8"/>
<path d="M216.825 203.729C216.825 203.729 216.046 202.301 213.451 199.188C210.857 196.076 200.087 187.639 200.087 187.639C200.087 187.639 206.186 190.882 208.132 192.572C210.078 194.261 212.672 196.332 212.672 196.332C212.672 196.332 205.407 188.418 204.627 187.901C203.848 187.383 212.023 194.131 212.023 194.131C212.023 194.131 208.911 187.901 207.352 185.824C205.793 183.747 202.812 178.82 202.812 178.82C202.812 178.82 211.244 190.108 211.637 190.757C212.023 191.405 213.713 194.261 213.713 194.261L210.726 186.478L214.362 192.833C214.362 192.833 209.173 182.063 208.911 181.545C208.65 181.028 212.547 186.603 212.547 186.603L209.173 176.482L216.956 192.441L216.438 186.211L217.867 192.697L218.253 176.738L219.164 192.566C219.164 192.566 220.592 182.444 220.848 180.368C221.11 178.291 221.235 176.083 221.235 176.083C221.235 176.083 220.973 189.835 220.973 190.228C220.973 190.62 220.711 193.732 220.711 193.732L223.175 186.336C223.693 184.777 224.21 179.457 224.472 178.684C224.734 177.904 223.175 190.62 223.044 191.138C222.913 191.656 222.526 192.822 222.134 193.601C221.747 194.381 224.99 188.93 226.156 186.598C227.322 184.265 229.53 179.85 229.53 179.85C229.53 179.85 227.584 186.336 227.066 187.508C226.549 188.674 223.175 194.904 223.175 194.904C223.175 194.904 228.233 188.936 230.44 187.377C232.648 185.818 236.67 182.837 236.67 182.837C236.67 182.837 230.184 189.841 228.887 191.144C227.59 192.441 223.829 196.981 223.829 196.981C223.829 196.981 230.315 192.828 230.708 192.441C231.1 192.054 235.766 189.067 235.766 189.067C235.766 189.067 226.35 196.509 225.906 196.981C222.145 201.003 220.848 202.949 220.068 203.729C219.289 204.508 217.992 204.895 216.825 203.729Z" fill="#75A9C8"/>
<path d="M223.431 222.254C223.431 222.254 222.652 220.825 220.057 217.713C217.463 214.601 206.693 206.164 206.693 206.164C206.693 206.164 212.792 209.407 214.738 211.096C216.683 212.781 219.278 214.857 219.278 214.857C219.278 214.857 212.012 206.943 211.233 206.425C210.453 205.908 218.629 212.655 218.629 212.655C218.629 212.655 215.517 206.425 213.958 204.349C212.399 202.272 209.418 197.345 209.418 197.345C209.418 197.345 217.85 208.633 218.242 209.282C218.629 209.93 220.319 212.786 220.319 212.786L217.332 205.003L220.968 211.358C220.968 211.358 215.779 200.588 215.517 200.07C215.255 199.553 219.153 205.128 219.153 205.128L215.779 195.007L223.562 210.966L223.044 204.736L224.472 211.222L224.859 195.263L225.769 211.091C225.769 211.091 227.197 200.969 227.454 198.893C227.715 196.816 227.84 194.608 227.84 194.608C227.84 194.608 227.579 208.36 227.579 208.752C227.579 209.145 227.317 212.257 227.317 212.257C227.317 212.257 229.263 206.42 229.781 204.861C230.298 203.302 230.816 197.982 231.078 197.203C231.339 196.423 229.781 209.139 229.65 209.657C229.519 210.175 229.132 211.341 228.739 212.121C228.352 212.9 231.595 207.45 232.762 205.117L236.136 198.369C236.136 198.369 234.19 204.855 233.672 206.027C233.154 207.194 229.781 213.423 229.781 213.423C229.781 213.423 234.838 207.455 237.046 205.896C239.253 204.337 243.276 201.356 243.276 201.356C243.276 201.356 236.79 208.36 235.493 209.663C234.196 210.96 230.435 215.5 230.435 215.5C230.435 215.5 236.921 211.347 237.313 210.96C237.7 210.573 242.371 207.586 242.371 207.586C242.371 207.586 232.955 215.028 232.511 215.5C228.751 219.523 227.454 221.468 226.674 222.248C225.895 223.027 224.597 223.414 223.431 222.248V222.254Z" fill="#75A9C8"/>
<path d="M230.093 268.975C231.083 265.425 231.641 261.385 231.641 257.09C231.641 256.333 231.624 255.582 231.59 254.842C231.504 252.908 231.299 251.036 230.992 249.25C230.878 248.573 230.748 247.901 230.605 247.253C230.486 246.712 230.355 246.177 230.218 245.654C229.564 243.179 228.705 240.937 227.675 239.003H208.65C207.626 240.937 206.766 243.185 206.106 245.654C205.964 246.177 205.839 246.706 205.72 247.253C205.577 247.901 205.446 248.573 205.333 249.25C205.031 251.036 204.826 252.908 204.735 254.842C204.701 255.582 204.684 256.333 204.684 257.09C204.684 261.385 205.247 265.425 206.232 268.975H230.088H230.093Z" fill="white" stroke="#263238" stroke-width="0.568947" stroke-miterlimit="10"/>
<path d="M230.218 245.654H206.112C205.969 246.177 205.844 246.706 205.725 247.253H230.605C230.485 246.712 230.355 246.177 230.218 245.654ZM230.992 249.25H205.332C205.031 251.036 204.826 252.908 204.735 254.842H231.583C231.498 252.908 231.293 251.036 230.986 249.25H230.992Z" fill="#263238" stroke="#263238" stroke-width="0.568947" stroke-miterlimit="10"/>
<path d="M15.8001 5.96826H173.529V171.077H12.5571V9.21126C12.5571 7.41908 14.0136 5.96826 15.8001 5.96826Z" fill="#263238" stroke="#263238" stroke-width="0.568947" stroke-miterlimit="10"/>
<path d="M20.681 0.284668H177.46C179.19 0.284668 180.589 1.68428 180.589 3.41388V166.201H17.5518V3.41388C17.5518 1.68428 18.9514 0.284668 20.681 0.284668Z" fill="white" stroke="#263238" stroke-width="0.568947" stroke-miterlimit="10"/>
<path d="M20.681 0.284668H56.6328C58.3624 0.284668 59.762 1.68428 59.762 3.41388V166.201H17.5518V3.41388C17.5518 1.68428 18.9514 0.284668 20.681 0.284668Z" fill="#ABABAB"/>
<path d="M20.681 0.284668H177.46C179.19 0.284668 180.589 1.68428 180.589 3.41388V18.2919H17.5518V3.41388C17.5518 1.68428 18.9514 0.284668 20.681 0.284668Z" fill="#75A9C8" stroke="#263238" stroke-width="0.568947" stroke-miterlimit="10"/>
<path d="M20.681 0.284668H177.46C179.19 0.284668 180.589 1.68428 180.589 3.41388V11.9026H17.5518V3.41388C17.5518 1.68428 18.9514 0.284668 20.681 0.284668Z" fill="#263238" stroke="#263238" stroke-width="0.568947" stroke-miterlimit="10"/>
<path d="M158.674 6.44643C158.674 5.07527 157.564 3.96582 156.193 3.96582C154.822 3.96582 153.712 5.07527 153.712 6.44643C153.712 7.81759 154.822 8.92704 156.193 8.92704C157.564 8.92704 158.674 7.81759 158.674 6.44643Z" fill="white" stroke="#263238" stroke-width="0.568947" stroke-miterlimit="10"/>
<path d="M168.186 6.44643C168.186 5.07527 167.077 3.96582 165.706 3.96582C164.335 3.96582 163.225 5.07527 163.225 6.44643C163.225 7.81759 164.335 8.92704 165.706 8.92704C167.077 8.92704 168.186 7.81759 168.186 6.44643Z" fill="white" stroke="#263238" stroke-width="0.568947" stroke-miterlimit="10"/>
<path d="M177.704 6.44643C177.704 5.07527 176.595 3.96582 175.224 3.96582C173.853 3.96582 172.743 5.07527 172.743 6.44643C172.743 7.81759 173.853 8.92704 175.224 8.92704C176.595 8.92704 177.704 7.81759 177.704 6.44643Z" fill="white" stroke="#263238" stroke-width="0.568947" stroke-miterlimit="10"/>
<path d="M72.1538 17.9048V14.0303" stroke="#263238" stroke-width="0.568947" stroke-miterlimit="10"/>
<path d="M96.1636 17.9048V14.0303" stroke="#263238" stroke-width="0.568947" stroke-miterlimit="10"/>
<path d="M120.173 17.9048V14.0303" stroke="#263238" stroke-width="0.568947" stroke-miterlimit="10"/>
<path d="M144.188 17.9048V14.0303" stroke="#263238" stroke-width="0.568947" stroke-miterlimit="10"/>
<path d="M168.198 17.9048V14.0303" stroke="#263238" stroke-width="0.568947" stroke-miterlimit="10"/>
<path d="M171.293 33.2837H68.2791V135.524H171.293V33.2837Z" fill="white" stroke="#263238" stroke-width="0.568947" stroke-miterlimit="10"/>
<path d="M125.964 59.0229H139.835" stroke="#263238" stroke-width="0.568947" stroke-miterlimit="10"/>
<path d="M125.964 69.2183H139.835" stroke="#263238" stroke-width="0.568947" stroke-miterlimit="10"/>
<path d="M125.964 79.4082H139.835" stroke="#263238" stroke-width="0.568947" stroke-miterlimit="10"/>
<path d="M99.3496 101.848H106.114" stroke="#263238" stroke-width="0.568947" stroke-miterlimit="10"/>
<path d="M83.5503 101.848H97.8081" stroke="#263238" stroke-width="0.568947" stroke-miterlimit="10"/>
<path d="M76.8022 101.848H81.6212" stroke="#263238" stroke-width="0.568947" stroke-miterlimit="10"/>
<path d="M88.3635 104.982H106.115" stroke="#263238" stroke-width="0.568947" stroke-miterlimit="10"/>
<path d="M76.8025 104.982H86.8217" stroke="#263238" stroke-width="0.568947" stroke-miterlimit="10"/>
<path d="M98.7751 108.112H106.115" stroke="#263238" stroke-width="0.568947" stroke-miterlimit="10"/>
<path d="M85.092 108.112H96.8465" stroke="#263238" stroke-width="0.568947" stroke-miterlimit="10"/>
<path d="M76.8025 108.112H83.3568" stroke="#263238" stroke-width="0.568947" stroke-miterlimit="10"/>
<path d="M76.8025 111.241H106.115" stroke="#263238" stroke-width="0.568947" stroke-miterlimit="10"/>
<path d="M88.9436 114.37H106.114" stroke="#263238" stroke-width="0.568947" stroke-miterlimit="10"/>
<path d="M76.8025 114.37H86.8217" stroke="#263238" stroke-width="0.568947" stroke-miterlimit="10"/>
<path d="M101.085 117.505H106.114" stroke="#263238" stroke-width="0.568947" stroke-miterlimit="10"/>
<path d="M76.8025 117.505H99.5433" stroke="#263238" stroke-width="0.568947" stroke-miterlimit="10"/>
<path d="M101.859 120.634H106.115" stroke="#263238" stroke-width="0.568947" stroke-miterlimit="10"/>
<path d="M84.5115 120.634H100.698" stroke="#263238" stroke-width="0.568947" stroke-miterlimit="10"/>
<path d="M76.8025 120.634H83.3568" stroke="#263238" stroke-width="0.568947" stroke-miterlimit="10"/>
<path d="M102.627 123.764H106.114" stroke="#263238" stroke-width="0.568947" stroke-miterlimit="10"/>
<path d="M91.0662 123.764H100.511" stroke="#263238" stroke-width="0.568947" stroke-miterlimit="10"/>
<path d="M76.8025 123.764H89.7176" stroke="#263238" stroke-width="0.568947" stroke-miterlimit="10"/>
<path d="M160.488 56.2124H165.58" stroke="#263238" stroke-width="0.568947" stroke-miterlimit="10"/>
<path d="M148.586 56.2124H159.327" stroke="#263238" stroke-width="0.568947" stroke-miterlimit="10"/>
<path d="M143.505 56.2124H147.135" stroke="#263238" stroke-width="0.568947" stroke-miterlimit="10"/>
<path d="M152.215 59.8989H165.58" stroke="#263238" stroke-width="0.568947" stroke-miterlimit="10"/>
<path d="M143.505 59.8989H151.049" stroke="#263238" stroke-width="0.568947" stroke-miterlimit="10"/>
<path d="M160.05 63.5859H165.58" stroke="#263238" stroke-width="0.568947" stroke-miterlimit="10"/>
<path d="M149.746 63.5859H158.599" stroke="#263238" stroke-width="0.568947" stroke-miterlimit="10"/>
<path d="M143.505 63.5859H148.438" stroke="#263238" stroke-width="0.568947" stroke-miterlimit="10"/>
<path d="M143.505 67.2725H165.58" stroke="#263238" stroke-width="0.568947" stroke-miterlimit="10"/>
<path d="M152.648 70.9536H165.58" stroke="#263238" stroke-width="0.568947" stroke-miterlimit="10"/>
<path d="M143.505 70.9536H151.049" stroke="#263238" stroke-width="0.568947" stroke-miterlimit="10"/>
<path d="M161.791 74.6406H165.58" stroke="#263238" stroke-width="0.568947" stroke-miterlimit="10"/>
<path d="M143.505 74.6406H160.63" stroke="#263238" stroke-width="0.568947" stroke-miterlimit="10"/>
<path d="M162.372 78.3271H165.58" stroke="#263238" stroke-width="0.568947" stroke-miterlimit="10"/>
<path d="M149.309 78.3271H161.501" stroke="#263238" stroke-width="0.568947" stroke-miterlimit="10"/>
<path d="M143.505 78.3271H148.438" stroke="#263238" stroke-width="0.568947" stroke-miterlimit="10"/>
<path d="M162.952 82.0142H165.58" stroke="#263238" stroke-width="0.568947" stroke-miterlimit="10"/>
<path d="M154.247 82.0142H161.359" stroke="#263238" stroke-width="0.568947" stroke-miterlimit="10"/>
<path d="M143.505 82.0142H153.228" stroke="#263238" stroke-width="0.568947" stroke-miterlimit="10"/>
<path d="M91.7023 85.8432C88.9827 85.8432 86.2916 85.1491 83.9248 83.8348L86.047 80.0115C87.7652 80.9673 89.7224 81.468 91.7023 81.468C98.1485 81.468 103.388 76.2223 103.388 69.7818C103.388 67.6312 102.802 65.5318 101.687 63.7055L105.42 61.4297C106.95 63.9387 107.764 66.829 107.764 69.7818C107.764 78.6403 100.561 85.8432 91.7023 85.8432Z" fill="#75A9C8" stroke="#263238" stroke-width="0.568947" stroke-miterlimit="10"/>
<path d="M83.925 83.8407C78.8158 81.0073 75.6411 75.6251 75.6411 69.7877C75.6411 62.1752 81.0461 55.5583 88.4993 54.0449L89.3698 58.3291C83.9534 59.4272 80.0163 64.2461 80.0163 69.782C80.0163 74.032 82.3262 77.9521 86.0472 80.0117L83.925 83.835V83.8407Z" fill="#263238" stroke="#263238" stroke-width="0.568947" stroke-miterlimit="10"/>
<path d="M101.687 63.7054C99.5423 60.1893 95.81 58.0956 91.7022 58.0956C90.917 58.0956 90.1319 58.1752 89.3695 58.3289L88.499 54.0447C89.5459 53.8342 90.6269 53.7261 91.7022 53.7261C97.3461 53.7261 102.478 56.6049 105.42 61.4353L101.687 63.7111V63.7054Z" fill="#ABABAB" stroke="#263238" stroke-width="0.568947" stroke-miterlimit="10"/>
<path d="M123.131 56.4741H118.318V61.2874H123.131V56.4741Z" fill="#75A9C8" stroke="#263238" stroke-width="0.568947" stroke-miterlimit="10"/>
<path d="M123.131 66.8115H118.318V71.6248H123.131V66.8115Z" fill="#263238" stroke="#263238" stroke-width="0.568947" stroke-miterlimit="10"/>
<path d="M123.131 77.144H118.318V81.9573H123.131V77.144Z" fill="#ABABAB" stroke="#263238" stroke-width="0.568947" stroke-miterlimit="10"/>
<path d="M124.047 105.552H116.929V124.617H124.047V105.552Z" fill="#263238"/>
<path d="M133.44 97.0117H126.322V124.617H133.44V97.0117Z" fill="#75A9C8" stroke="#263238" stroke-width="0.568947" stroke-miterlimit="10"/>
<path d="M142.827 109.819H135.71V124.617H142.827V109.819Z" fill="#263238"/>
<path d="M152.221 100.994H145.103V124.617H152.221V100.994Z" fill="#75A9C8" stroke="#263238" stroke-width="0.568947" stroke-miterlimit="10"/>
<path d="M161.614 93.3135H154.497V124.617H161.614V93.3135Z" fill="#263238"/>
<path d="M141.474 40.646H105.073V44.1336H141.474V40.646Z" fill="#263238"/>
<path d="M55.1139 28.9312H22.1946V64.1717H55.1139V28.9312Z" fill="white" stroke="#263238" stroke-width="0.568947" stroke-miterlimit="10"/>
<path d="M38.6536 52.5365C37.106 52.5365 35.5812 52.1439 34.2385 51.3986L35.4447 49.2252C36.4233 49.7657 37.5327 50.0502 38.6592 50.0502C42.3176 50.0502 45.2989 47.0746 45.2989 43.4106C45.2989 42.1873 44.9632 40.9982 44.3316 39.957L46.4538 38.6655C47.3243 40.0936 47.7852 41.7322 47.7852 43.4106C47.7852 48.44 43.6944 52.5308 38.6649 52.5308L38.6536 52.5365Z" fill="#75A9C8"/>
<path d="M34.2389 51.3932C31.3373 49.783 29.5337 46.7278 29.5337 43.4108C29.5337 39.0868 32.606 35.3261 36.8333 34.4727L37.3283 36.9078C34.2503 37.5336 32.02 40.2645 32.02 43.4108C32.02 45.8232 33.3343 48.0477 35.4451 49.2198L34.2389 51.3932Z" fill="#263238"/>
<path d="M44.3263 39.9629C43.1087 37.9659 40.9866 36.7768 38.6539 36.7768C38.2044 36.7768 37.7606 36.8223 37.3282 36.9077L36.8333 34.4726C37.4306 34.3531 38.0394 34.2905 38.6539 34.2905C41.8627 34.2905 44.7758 35.9291 46.4428 38.6657L44.3206 39.9572L44.3263 39.9629Z" fill="#ABABAB"/>
<path d="M44.5996 55.7061H49.6917" stroke="#263238" stroke-width="0.568947" stroke-miterlimit="10"/>
<path d="M32.6973 55.7061H43.439" stroke="#263238" stroke-width="0.568947" stroke-miterlimit="10"/>
<path d="M27.6167 55.7061H31.2466" stroke="#263238" stroke-width="0.568947" stroke-miterlimit="10"/>
<path d="M36.3271 57.4414H49.6917" stroke="#263238" stroke-width="0.568947" stroke-miterlimit="10"/>
<path d="M27.6167 57.4414H35.1666" stroke="#263238" stroke-width="0.568947" stroke-miterlimit="10"/>
<path d="M44.1675 59.1821H49.692" stroke="#263238" stroke-width="0.568947" stroke-miterlimit="10"/>
<path d="M33.8579 59.1821H42.7107" stroke="#263238" stroke-width="0.568947" stroke-miterlimit="10"/>
<path d="M27.6167 59.1821H32.5552" stroke="#263238" stroke-width="0.568947" stroke-miterlimit="10"/>
<path d="M55.1139 76.6602H22.1946V111.901H55.1139V76.6602Z" fill="white" stroke="#263238" stroke-width="0.568947" stroke-miterlimit="10"/>
<path d="M45.2373 80.5405H51.3876" stroke="#263238" stroke-width="0.568947" stroke-miterlimit="10"/>
<path d="M30.8601 80.5405H37.403" stroke="#263238" stroke-width="0.568947" stroke-miterlimit="10"/>
<path d="M24.7268 80.5405H29.1077" stroke="#263238" stroke-width="0.568947" stroke-miterlimit="10"/>
<path d="M35.2412 84.2275H37.2951" stroke="#263238" stroke-width="0.568947" stroke-miterlimit="10"/>
<path d="M24.7268 84.2275H33.8413" stroke="#263238" stroke-width="0.568947" stroke-miterlimit="10"/>
<path d="M32.2654 87.9141H37.2949" stroke="#263238" stroke-width="0.568947" stroke-miterlimit="10"/>
<path d="M24.7268 87.9141H30.6837" stroke="#263238" stroke-width="0.568947" stroke-miterlimit="10"/>
<path d="M24.7268 91.6011H37.2949" stroke="#263238" stroke-width="0.568947" stroke-miterlimit="10"/>
<path d="M35.7703 95.2876H51.3879" stroke="#263238" stroke-width="0.568947" stroke-miterlimit="10"/>
<path d="M24.7268 95.2876H33.8413" stroke="#263238" stroke-width="0.568947" stroke-miterlimit="10"/>
<path d="M46.8135 98.9746H51.3878" stroke="#263238" stroke-width="0.568947" stroke-miterlimit="10"/>
<path d="M24.7268 98.9746H45.4137" stroke="#263238" stroke-width="0.568947" stroke-miterlimit="10"/>
<path d="M47.5129 102.655H51.3875" stroke="#263238" stroke-width="0.568947" stroke-miterlimit="10"/>
<path d="M31.7363 102.655H46.4664" stroke="#263238" stroke-width="0.568947" stroke-miterlimit="10"/>
<path d="M24.7268 102.655H30.6837" stroke="#263238" stroke-width="0.568947" stroke-miterlimit="10"/>
<path d="M48.2188 106.342H51.3878" stroke="#263238" stroke-width="0.568947" stroke-miterlimit="10"/>
<path d="M37.6987 106.342H46.2898" stroke="#263238" stroke-width="0.568947" stroke-miterlimit="10"/>
<path d="M24.7268 106.342H36.4699" stroke="#263238" stroke-width="0.568947" stroke-miterlimit="10"/>
<path d="M51.393 80.5688H38.4893V93.4726H51.393V80.5688Z" stroke="#263238" stroke-width="0.568947" stroke-miterlimit="10"/>
<path d="M38.4893 93.4669L43.4277 87.9766L45.8969 89.6265L49.4699 85.5073L51.1142 86.3323" stroke="#263238" stroke-width="0.568947" stroke-miterlimit="10"/>
<path d="M42.3298 86.059C43.3918 86.059 44.2528 85.198 44.2528 84.1359C44.2528 83.0739 43.3918 82.2129 42.3298 82.2129C41.2677 82.2129 40.4067 83.0739 40.4067 84.1359C40.4067 85.198 41.2677 86.059 42.3298 86.059Z" stroke="#263238" stroke-width="0.568947" stroke-miterlimit="10"/>
<path d="M55.1139 122.068H22.1946V157.308H55.1139V122.068Z" fill="white" stroke="#263238" stroke-width="0.568947" stroke-miterlimit="10"/>
<path d="M36.5835 142.243H49.5157" stroke="#263238" stroke-width="0.568947" stroke-miterlimit="10"/>
<path d="M27.4402 142.243H34.9844" stroke="#263238" stroke-width="0.568947" stroke-miterlimit="10"/>
<path d="M45.7261 145.929H49.5153" stroke="#263238" stroke-width="0.568947" stroke-miterlimit="10"/>
<path d="M27.4404 145.929H44.5657" stroke="#263238" stroke-width="0.568947" stroke-miterlimit="10"/>
<path d="M46.3066 149.616H49.5155" stroke="#263238" stroke-width="0.568947" stroke-miterlimit="10"/>
<path d="M33.2437 149.616H45.4362" stroke="#263238" stroke-width="0.568947" stroke-miterlimit="10"/>
<path d="M27.4404 149.616H32.3732" stroke="#263238" stroke-width="0.568947" stroke-miterlimit="10"/>
<path d="M46.8867 153.303H49.5153" stroke="#263238" stroke-width="0.568947" stroke-miterlimit="10"/>
<path d="M38.1765 153.303H45.2884" stroke="#263238" stroke-width="0.568947" stroke-miterlimit="10"/>
<path d="M27.4404 153.303H37.1637" stroke="#263238" stroke-width="0.568947" stroke-miterlimit="10"/>
<path d="M31.0931 131.518H27.6055V139.961H31.0931V131.518Z" fill="#263238"/>
<path d="M35.6957 127.74H32.208V139.961H35.6957V127.74Z" fill="#75A9C8" stroke="#263238" stroke-width="0.568947" stroke-miterlimit="10"/>
<path d="M40.2984 133.413H36.8108V139.967H40.2984V133.413Z" fill="#263238"/>
<path d="M44.8956 129.504H41.408V139.961H44.8956V129.504Z" fill="#75A9C8" stroke="#263238" stroke-width="0.568947" stroke-miterlimit="10"/>
<path d="M49.4981 126.102H46.0105V139.961H49.4981V126.102Z" fill="#263238"/>
<path d="M142.301 268.976V202.887C142.301 200.463 140.383 198.5 138.016 198.5H64.3548C61.988 198.5 60.0649 200.463 60.0649 202.887V268.976H142.301Z" fill="#D4D4D4" stroke="#263238" stroke-width="0.568947" stroke-miterlimit="10"/>
<path d="M150.505 268.976V202.887C150.505 200.463 148.588 198.5 146.215 198.5H72.5535C70.1867 198.5 68.2637 200.463 68.2637 202.887V268.976H150.499H150.505Z" fill="#D4D4D4" stroke="#263238" stroke-width="0.568947" stroke-miterlimit="10"/>
<path d="M191.679 268.976V236.944C191.679 235.078 190.2 233.57 188.379 233.57H146.766C144.946 233.57 143.466 235.084 143.466 236.944V268.976H191.673H191.679Z" fill="#D4D4D4" stroke="#263238" stroke-width="0.568947" stroke-miterlimit="10"/>
<path d="M191.679 268.976V237.052C191.679 235.129 190.251 233.57 188.481 233.57H171.652C169.888 233.57 168.454 235.129 168.454 237.052V268.976H191.673H191.679Z" fill="#D4D4D4" stroke="#263238" stroke-width="0.568947" stroke-miterlimit="10"/>
<path d="M183.617 268.976C176.221 264.253 158.618 252.795 154.993 248.568C150.379 243.185 149.418 241.456 145.765 241.649C142.112 241.843 104.818 247.031 104.818 247.031C104.818 247.031 102.32 250.109 101.74 253.95C101.262 257.147 105.171 266.068 106.496 268.976H183.617Z" fill="#263238" stroke="#263238" stroke-width="0.568947" stroke-miterlimit="10"/>
<path d="M119.616 169.745C120.191 169.774 131.149 170.9 135.575 172.823C139.996 174.747 149.418 177.244 152.496 178.593C155.574 179.941 157.304 181.477 157.685 185.511C158.072 189.551 161.724 204.542 162.299 207.04C162.874 209.538 163.835 220.114 162.686 223.38C161.531 226.646 147.882 227.033 147.882 227.033C147.882 227.033 147.688 232.222 148.456 235.106C149.225 237.991 151.148 242.605 144.804 243.76C138.46 244.915 105.78 251.833 103.47 250.297C101.166 248.761 102.121 236.841 102.121 233.957C102.121 231.072 99.2368 225.115 99.2368 225.115C99.2368 225.115 94.4292 226.27 91.1634 227.807C87.8977 229.343 83.6647 228.575 78.2825 226.845C72.9002 225.115 72.5133 220.114 70.9772 217.042C69.441 213.97 76.166 209.543 77.5144 207.239C78.8628 204.935 88.0854 183.787 88.4723 181.477C88.8592 179.173 94.048 178.593 100.966 176.476C100.966 176.476 115.964 169.558 119.616 169.745Z" fill="#75A9C8" stroke="#263238" stroke-width="0.568947" stroke-miterlimit="10"/>
<path d="M111.946 243.754C116.959 238.258 129.185 225.474 138.038 221.326" stroke="#263238" stroke-width="0.568947" stroke-miterlimit="10"/>
<path d="M109.665 246.309C109.665 246.309 110.154 245.74 111.031 244.772" stroke="#263238" stroke-width="0.568947" stroke-miterlimit="10"/>
<path d="M120.264 231.908C120.776 231.522 121.283 231.146 121.789 230.788" stroke="#263238" stroke-width="0.568947" stroke-miterlimit="10"/>
<path d="M110.632 240.488C110.632 240.488 114 237.052 117.955 233.752" stroke="#263238" stroke-width="0.568947" stroke-miterlimit="10"/>
<path d="M92.176 195.724C93.8999 202.147 96.2895 210.835 97.2226 213.133C98.7588 216.9 99.7316 223.312 99.7316 223.312" fill="white"/>
<path d="M92.176 195.724C93.8999 202.147 96.2895 210.835 97.2226 213.133C98.7588 216.9 99.7316 223.312 99.7316 223.312" stroke="#263238" stroke-width="0.568947" stroke-miterlimit="10"/>
<path d="M90.2529 188.447C90.2529 188.447 90.8048 190.58 91.6127 193.607Z" fill="white"/>
<path d="M90.2529 188.447C90.2529 188.447 90.8048 190.58 91.6127 193.607" stroke="#263238" stroke-width="0.568947" stroke-miterlimit="10"/>
<path d="M89.2061 203.251C88.2844 202.591 87.3628 202.215 86.4866 201.982" stroke="#263238" stroke-width="0.568947" stroke-miterlimit="10"/>
<path d="M84.9219 206.323C87.0213 206.773 89.5588 207.683 90.947 209.509C93.5983 212.997 94.5712 214.67 94.5712 214.67C94.5712 214.67 94.85 212.019 92.8985 207.973C92.2499 206.631 91.5558 205.584 90.8446 204.759" stroke="#263238" stroke-width="0.568947" stroke-miterlimit="10"/>
<path d="M81.4626 205.885C81.4626 205.885 82.0032 205.897 82.8395 205.988" stroke="#263238" stroke-width="0.568947" stroke-miterlimit="10"/>
<path d="M78.1174 209.367C78.1174 209.367 83.1355 206.994 88.0171 208.946" stroke="#263238" stroke-width="0.568947" stroke-miterlimit="10"/>
<path d="M151.193 193.857L146.875 224.433" stroke="#263238" stroke-width="0.568947" stroke-miterlimit="10"/>
<path d="M152.035 187.889L151.569 191.178" stroke="#263238" stroke-width="0.568947" stroke-miterlimit="10"/>
<path d="M158.277 206.909C159.949 205.987 161.099 205.743 161.099 205.743" stroke="#263238" stroke-width="0.568947" stroke-miterlimit="10"/>
<path d="M147.711 220.808C147.711 220.808 148.132 217.599 152.314 212.16C153.924 210.066 155.597 208.633 157.048 207.666" stroke="#263238" stroke-width="0.568947" stroke-miterlimit="10"/>
<path d="M148.269 221.087C148.269 221.087 152.872 215.091 158.169 214.533" stroke="#263238" stroke-width="0.568947" stroke-miterlimit="10"/>
<path d="M117.312 168.209C117.312 168.209 114.047 168.403 113.273 170.132C112.505 171.862 112.505 186.666 112.505 186.666C112.505 186.666 123.656 182.439 125.192 182.439C126.729 182.439 138.648 187.053 138.648 187.053C138.648 187.053 137.112 176.288 134.421 172.055C131.73 167.828 127.115 168.016 125.579 168.016C124.043 168.016 117.312 168.209 117.312 168.209Z" fill="white" stroke="#263238" stroke-width="0.568947" stroke-miterlimit="10"/>
<path d="M114.428 166.861L115.196 170.901C115.196 170.901 124.999 189.739 126.154 188.396C127.309 187.047 133.072 171.669 133.072 171.669L133.459 166.287C133.459 166.287 128.845 169.365 126.154 169.365C123.463 169.365 115.196 164.944 115.196 164.944L114.428 166.867V166.861Z" fill="white" stroke="#263238" stroke-width="0.568947" stroke-miterlimit="10"/>
<path d="M133.459 166.287C133.459 166.287 128.845 169.365 126.154 169.365C123.463 169.365 115.196 164.944 115.196 164.944L114.428 166.867L115.196 170.906C115.196 170.906 117.409 175.156 119.855 179.475C120.22 179.333 120.595 179.162 120.976 178.946C131.695 172.943 133.459 166.287 133.459 166.287Z" fill="#263238" stroke="#263238" stroke-width="0.568947" stroke-miterlimit="10"/>
<path d="M110.132 152.159C110.132 152.159 107.919 147.739 106.371 151.494C104.824 155.254 111.458 160.341 111.458 160.341L110.132 152.159Z" fill="white" stroke="#263238" stroke-width="0.568947" stroke-miterlimit="10"/>
<path d="M136.127 151.17C136.127 151.17 138.221 146.846 139.331 150.828C140.44 154.811 135.923 159.897 135.923 159.897L136.127 151.17Z" fill="white" stroke="#263238" stroke-width="0.568947" stroke-miterlimit="10"/>
<path d="M109.688 151.05C109.688 151.05 111.236 162.77 112.123 164.762C112.88 166.457 119.81 172.437 121.835 174.161C122.193 174.468 122.643 174.633 123.115 174.633C124.242 174.633 126.341 174.599 126.978 174.44C127.86 174.218 133.8 168.744 135.126 165.649C136.451 162.554 136.008 144.638 136.008 144.638C136.008 144.638 135.342 132.918 134.016 131.37C132.691 129.823 116.1 129.823 111.901 132.036C107.697 134.249 107.697 138.01 108.362 140.217C109.028 142.431 109.688 151.056 109.688 151.056V151.05Z" fill="white" stroke="#263238" stroke-width="0.568947" stroke-miterlimit="10"/>
<path d="M128.56 127.626C121.516 126.517 118.831 128.554 114.78 131.131C113.574 131.376 112.578 131.672 111.901 132.03C107.697 134.243 107.697 138.004 108.362 140.212C109.028 142.425 109.688 151.05 109.688 151.05L111.236 151.272C111.236 151.272 111.457 146.185 111.679 145.52C111.901 144.854 114.553 141.759 114.774 140.212C114.996 138.664 114.553 134.238 114.553 134.238C114.553 134.238 116.988 141.981 126.273 144.632C128.708 145.326 131.001 145.628 133.072 145.634C133.197 146.902 133.413 148.103 133.794 148.393L134.676 149.059C134.676 149.059 134.454 152.154 135.12 152.819C135.37 153.07 135.717 153.229 136.064 153.286C136.093 149.923 136.047 146.845 136.019 145.44C140.212 144.843 139.586 143.29 139.723 141.412C139.945 138.317 136.958 128.946 128.554 127.621L128.56 127.626Z" fill="#263238" stroke="#263238" stroke-width="0.568947" stroke-miterlimit="10"/>
<path d="M120.726 160.312C120.726 160.312 121.648 161.854 123.189 162.264C124.731 162.673 126.37 162.776 128.116 160.107" stroke="#263238" stroke-width="0.568947" stroke-miterlimit="10"/>
<path d="M118.262 164.107C118.262 164.107 120.214 166.469 124.424 166.264C128.634 166.059 130.176 164.312 130.176 164.312" stroke="#263238" stroke-width="0.568947" stroke-miterlimit="10"/>
<path d="M115.486 154.97C115.486 154.97 117.949 156.41 120.823 155.38" stroke="#263238" stroke-width="0.568947" stroke-miterlimit="10"/>
<path d="M127.502 155.38C127.502 155.38 130.171 156.717 133.766 155.277" stroke="#263238" stroke-width="0.568947" stroke-miterlimit="10"/>
<path d="M114.769 151.585C114.769 151.585 116.413 149.121 120.828 150.663" stroke="#263238" stroke-width="0.568947" stroke-miterlimit="10"/>
<path d="M127.604 151.169C127.604 151.169 130.58 149.115 133.459 151.579" stroke="#263238" stroke-width="0.568947" stroke-miterlimit="10"/>
<path d="M120.726 156.717C120.726 156.717 118.774 158.259 117.853 158.566" stroke="#263238" stroke-width="0.568947" stroke-miterlimit="10"/>
<path d="M127.297 156.41C127.297 156.41 129.453 158.668 130.893 159.18" stroke="#263238" stroke-width="0.568947" stroke-miterlimit="10"/>
<path d="M146.038 223.454C146.038 223.454 148.826 221.36 153.292 218.573C157.753 215.785 162.077 216.621 164.449 219.272C166.822 221.924 167.101 229.314 163.471 232.523C159.847 235.732 154.965 234.896 151.893 234.059C148.826 233.223 145.06 230.014 144.781 229.32C144.502 228.62 146.038 223.46 146.038 223.46V223.454Z" fill="#75A9C8" stroke="#263238" stroke-width="0.568947" stroke-miterlimit="10"/>
<path d="M147.853 221.924C147.853 221.924 149.247 220.251 151.199 220.109C153.15 219.967 156.638 221.782 157.474 226.248C158.311 230.714 156.359 234.338 153.987 235.453C151.614 236.568 147.848 235.874 147.011 234.617C146.175 233.36 145.339 230.993 145.339 230.993L147.848 221.929L147.853 221.924Z" fill="white" stroke="#263238" stroke-width="0.568947" stroke-miterlimit="10"/>
<path d="M145.202 217.179C145.202 217.179 137.533 210.903 136.697 210.624C135.86 210.346 130 212.16 130 212.16L131.536 217.878C131.536 217.878 130.836 218.436 128.606 216.484C126.376 214.533 124.982 211.882 124.146 212.718C123.309 213.554 122.888 215.227 124.845 217.321C126.797 219.415 129.448 222.202 130.842 224.154C132.236 226.105 136.281 227.084 136.281 227.084C136.281 227.084 137.26 228.899 141.021 230.708C144.781 232.517 150.641 233.638 150.641 233.638C150.641 233.638 154.687 229.178 153.151 225.269C151.614 221.366 147.854 221.924 147.854 221.924L146.039 221.503L145.202 217.179Z" fill="white" stroke="#263238" stroke-width="0.568947" stroke-miterlimit="10"/>
<path d="M134.837 209.39C134.837 209.39 130.268 205.691 129.09 205.856C127.912 206.027 125.273 207.307 124.243 208.035C123.207 208.758 124.135 210.163 125.381 210.118C126.627 210.072 128.294 209.634 128.294 209.634L129.028 209.23L132.339 214.413" fill="white"/>
<path d="M134.837 209.39C134.837 209.39 130.268 205.691 129.09 205.856C127.912 206.027 125.273 207.307 124.243 208.035C123.207 208.758 124.135 210.163 125.381 210.118C126.627 210.072 128.294 209.634 128.294 209.634L129.028 209.23L132.339 214.413" stroke="#263238" stroke-width="0.568947" stroke-miterlimit="10"/>
<path d="M129.022 209.23L130.803 208.417" stroke="#263238" stroke-width="0.568947" stroke-miterlimit="10"/>
<path d="M140.065 209.117C140.065 209.117 135.496 205.418 134.318 205.583C133.141 205.754 130.501 207.034 129.471 207.763C128.436 208.485 129.363 209.89 130.609 209.845C131.855 209.799 133.522 209.361 133.522 209.361L134.256 208.957L137.567 214.14" fill="white"/>
<path d="M140.065 209.117C140.065 209.117 135.496 205.418 134.318 205.583C133.141 205.754 130.501 207.034 129.471 207.763C128.436 208.485 129.363 209.89 130.609 209.845C131.855 209.799 133.522 209.361 133.522 209.361L134.256 208.957L137.567 214.14" stroke="#263238" stroke-width="0.568947" stroke-miterlimit="10"/>
<path d="M134.256 208.963L136.036 208.144" stroke="#263238" stroke-width="0.568947" stroke-miterlimit="10"/>
<path d="M144.224 212.855C144.224 212.855 141.994 207.416 140.878 206.995C139.763 206.573 136.833 206.437 135.576 206.573C134.318 206.716 134.461 208.388 135.576 208.946C136.691 209.504 138.364 209.925 138.364 209.925H139.2L139.621 216.064" fill="white"/>
<path d="M144.224 212.855C144.224 212.855 141.994 207.416 140.878 206.995C139.763 206.573 136.833 206.437 135.576 206.573C134.318 206.716 134.461 208.388 135.576 208.946C136.691 209.504 138.364 209.925 138.364 209.925H139.2L139.621 216.064" stroke="#263238" stroke-width="0.568947" stroke-miterlimit="10"/>
<path d="M139.206 209.925L141.158 210.067" stroke="#263238" stroke-width="0.568947" stroke-miterlimit="10"/>
<path d="M145.481 222.618C145.481 222.618 146.739 215.921 146.46 215.227C146.181 214.533 143.808 211.461 143.114 211.461C142.42 211.461 141.021 212.855 141.578 214.249C142.136 215.643 143.251 215.785 143.251 215.785V219.688L141.994 221.361" fill="white"/>
<path d="M145.481 222.618C145.481 222.618 146.739 215.921 146.46 215.227C146.181 214.533 143.808 211.461 143.114 211.461C142.42 211.461 141.021 212.855 141.578 214.249C142.136 215.643 143.251 215.785 143.251 215.785V219.688L141.994 221.361" stroke="#263238" stroke-width="0.568947" stroke-miterlimit="10"/>
<path d="M131.547 230.396H106.548L105.16 200.378H132.936L131.547 230.396Z" fill="#263238" stroke="#263238" stroke-width="0.568947" stroke-miterlimit="10"/>
<path d="M93.6667 217.23C93.6667 217.23 83.8637 210.118 82.9022 209.731C81.9407 209.344 76.5584 211.654 73.4804 213.958C70.4024 216.263 70.5959 218.573 71.7508 221.457C72.9058 224.342 77.5199 227.994 79.2495 229.337C80.9791 230.685 89.2459 229.912 89.2459 229.912L93.6667 217.224V217.23Z" fill="#75A9C8" stroke="#263238" stroke-width="0.568947" stroke-miterlimit="10"/>
<path d="M95.5898 218.192C95.5898 218.192 93.4733 215.114 92.5118 214.926C91.5502 214.732 88.6657 216.849 87.1295 218.772C85.5934 220.695 84.0515 225.884 84.0515 228.575C84.0515 231.266 88.6657 232.034 89.4338 232.034C90.2018 232.034 91.3568 229.73 92.6995 228.956C94.0479 228.188 95.5841 218.192 95.5841 218.192H95.5898Z" fill="white" stroke="#263238" stroke-width="0.568947" stroke-miterlimit="10"/>
<path d="M124.419 227.778C124.419 227.778 127.906 227.778 128.743 227.221C129.579 226.663 132.23 222.76 132.646 221.924C133.061 221.088 131.388 221.088 130.415 222.902C129.437 224.717 125.676 226.111 124.697 226.669C123.719 227.226 121.489 227.647 121.489 227.647L124.419 227.79V227.778Z" fill="white" stroke="#263238" stroke-width="0.568947" stroke-miterlimit="10"/>
<path d="M93.6669 217.23L107.703 218.766C107.703 218.766 110.007 212.229 110.969 212.035C111.93 211.842 116.157 209.919 116.925 209.344C117.694 208.77 119.042 207.996 118.274 210.112C117.506 212.229 113.273 214.34 113.273 214.34C113.273 214.34 117.119 216.837 118.274 217.031C119.429 217.224 127.502 215.495 127.502 215.495C127.502 215.495 133.459 213.19 134.039 213.572C134.614 213.959 133.078 215.495 133.078 215.495C133.078 215.495 134.233 214.727 134.614 215.688C135.001 216.65 133.653 218.573 133.653 218.573C133.653 218.573 134.227 218.96 133.846 220.496C133.459 222.032 128.27 226.265 127.115 227.033C125.96 227.801 119.81 227.994 115.771 227.994C111.731 227.994 106.929 227.226 106.929 227.226C106.929 227.226 90.7824 229.917 90.0086 229.917C89.2348 229.917 85.3944 222.038 93.6612 217.23H93.6669Z" fill="white" stroke="#263238" stroke-width="0.568947" stroke-miterlimit="10"/>
<path d="M133.078 215.5C133.078 215.5 125.579 221.27 124.618 221.27C123.656 221.27 117.887 222.806 117.887 222.806" fill="white"/>
<path d="M133.078 215.5C133.078 215.5 125.579 221.27 124.618 221.27C123.656 221.27 117.887 222.806 117.887 222.806" stroke="#263238" stroke-width="0.568947" stroke-miterlimit="10"/>
<path d="M133.653 218.578C133.653 218.578 127.696 223.767 127.115 224.154C126.541 224.541 120.965 225.502 120.965 225.502" fill="white"/>
<path d="M133.653 218.578C133.653 218.578 127.696 223.767 127.115 224.154C126.541 224.541 120.965 225.502 120.965 225.502" stroke="#263238" stroke-width="0.568947" stroke-miterlimit="10"/>
<path d="M186.741 268.976C181.569 260.493 165.775 236.079 155.761 237.035C143.649 238.19 105.006 253.956 105.006 253.956L175.111 268.981H186.741V268.976Z" fill="#263238" stroke="#263238" stroke-width="0.568947" stroke-miterlimit="10"/>
<path d="M100.767 268.976V236.944C100.767 235.078 99.2933 233.57 97.4669 233.57H72.7462C70.9256 233.57 69.4463 235.084 69.4463 236.944V268.976H100.761H100.767Z" fill="#D4D4D4" stroke="#263238" stroke-width="0.568947" stroke-miterlimit="10"/>
<path d="M108.846 268.976V237.052C108.846 235.129 107.418 233.57 105.648 233.57H88.8188C87.0551 233.57 85.6213 235.129 85.6213 237.052V268.976H108.84H108.846Z" fill="#D4D4D4" stroke="#263238" stroke-width="0.568947" stroke-miterlimit="10"/>
<path d="M23.4065 268.976H8.69922" stroke="#263238" stroke-width="0.568947" stroke-miterlimit="10"/>
<path d="M264.338 268.976H29.7786" stroke="#263238" stroke-width="0.568947" stroke-miterlimit="10"/>
</g>
<defs>
<clipPath id="clip0_221_12878">
<rect width="264.361" height="269.26" fill="white"/>
</clipPath>
</defs>
</svg>
