<svg width="268" height="286" viewBox="0 0 268 286" fill="none" xmlns="http://www.w3.org/2000/svg">
<g clip-path="url(#clip0_221_14477)">
<path d="M99.0778 2.2955C77.9501 5.78825 57.6947 13.4661 40.4859 26.7448C15.4517 46.0609 1.57005 74.9384 0.11834 106.348C-0.834931 127.08 4.10588 147.294 10.081 166.979C17.7632 192.301 22.7227 221.147 38.7663 242.79C63.7445 276.483 112.031 290.678 152.405 284.647C178.492 280.749 206.056 265.917 214.081 239.116C217.053 229.193 218.498 218.528 223.576 209.359C229.663 198.37 240.698 191.952 249.078 183.002C259.427 171.95 263.601 158.178 266.181 143.608C271.825 111.731 264.118 77.951 245.508 51.5058C226.093 23.9069 197.283 9.10637 164.573 3.27472C160.984 2.63231 157.377 2.09592 153.757 1.64061C135.794 -0.610961 117.115 -0.685806 99.0778 2.28927V2.2955Z" fill="#75A9C8"/>
<path opacity="0.7" d="M99.0778 2.2955C77.9501 5.78825 57.6947 13.4661 40.4859 26.7448C15.4517 46.0609 1.57005 74.9384 0.11834 106.348C-0.834931 127.08 4.10588 147.294 10.081 166.979C17.7632 192.301 22.7227 221.147 38.7663 242.79C63.7445 276.483 112.031 290.678 152.405 284.647C178.492 280.749 206.056 265.917 214.081 239.116C217.053 229.193 218.498 218.528 223.576 209.359C229.663 198.37 240.698 191.952 249.078 183.002C259.427 171.95 263.601 158.178 266.181 143.608C271.825 111.731 264.118 77.951 245.508 51.5058C226.093 23.9069 197.283 9.10637 164.573 3.27472C160.984 2.63231 157.377 2.09592 153.757 1.64061C135.794 -0.610961 117.115 -0.685806 99.0778 2.28927V2.2955Z" fill="white"/>
<path opacity="0.2" d="M103.645 225.737L155.782 216.001C155.782 216.001 167.582 253.274 169.963 258.095L168.704 261.02L169.489 265.917L117.688 277.717L113.533 274.436L103.645 225.737Z" fill="black"/>
<path d="M152.02 212.01L101.594 223.961L113.533 274.439L163.958 262.488L152.02 212.01Z" fill="#75A9C8"/>
<mask id="mask0_221_14477" style="mask-type:luminance" maskUnits="userSpaceOnUse" x="101" y="212" width="63" height="63">
<path d="M152.02 212.01L101.594 223.961L113.533 274.439L163.958 262.488L152.02 212.01Z" fill="white"/>
</mask>
<g mask="url(#mask0_221_14477)">
<path opacity="0.2" d="M155.24 225.625L163.607 260.995L115.52 272.39C109.726 257.877 105.296 239.602 105.296 239.602L155.24 225.625Z" fill="black"/>
</g>
<path d="M152.02 212.01L101.594 223.961L113.533 274.439L163.958 262.488L152.02 212.01Z" stroke="#263238" stroke-linecap="round" stroke-linejoin="round"/>
<path d="M165.533 259.268C152.934 262.255 135.084 265.062 124.318 266.646C118.685 267.47 114.984 267.956 114.984 267.956C110.212 259.199 101.601 223.96 101.601 223.96L152.025 212.01C152.118 212.44 152.212 212.87 152.305 213.295C158.324 240.569 165.533 259.268 165.533 259.268Z" fill="white"/>
<mask id="mask1_221_14477" style="mask-type:luminance" maskUnits="userSpaceOnUse" x="101" y="212" width="65" height="56">
<path d="M165.533 259.268C152.934 262.255 135.084 265.062 124.318 266.646C118.685 267.47 114.984 267.956 114.984 267.956C110.212 259.199 101.601 223.96 101.601 223.96L152.025 212.01C152.118 212.44 152.212 212.87 152.305 213.295C158.324 240.569 165.533 259.268 165.533 259.268Z" fill="white"/>
</mask>
<g mask="url(#mask1_221_14477)">
<path opacity="0.4" d="M165.533 259.268C152.935 262.255 135.084 265.062 124.318 266.646C116.231 261.264 114.28 255.987 114.38 250.954C114.492 244.972 140.492 250.817 145.925 244.898C149.801 240.675 149.688 222.75 152.305 213.294C158.324 240.569 165.533 259.268 165.533 259.268Z" fill="#75A9C8"/>
</g>
<path d="M165.533 259.268C152.934 262.255 135.084 265.062 124.318 266.646C118.685 267.47 114.984 267.956 114.984 267.956C110.212 259.199 101.601 223.96 101.601 223.96L152.025 212.01C152.118 212.44 152.212 212.87 152.305 213.295C158.324 240.569 165.533 259.268 165.533 259.268Z" stroke="#263238" stroke-linecap="round" stroke-linejoin="round"/>
<path d="M110.106 231.594C110.791 230.802 111.614 230.128 112.529 229.617C112.779 230.259 113.028 230.896 113.277 231.538C114.149 231.22 115.022 230.902 115.888 230.59C116.76 230.272 117.726 229.866 118.062 228.999C118.542 230.141 120.193 229.948 121.371 229.567C129.52 226.941 137.856 224.889 146.293 223.436" stroke="#263238" stroke-linecap="round" stroke-linejoin="round"/>
<path d="M111.371 238.58C110.829 238.299 111.277 237.326 111.888 237.37C112.498 237.413 112.891 238.081 112.941 238.692C113.47 238.636 113.938 238.205 114.044 237.675C114.33 237.875 114.617 238.074 114.91 238.28C114.611 237.85 114.76 237.183 115.209 236.921C115.657 236.659 116.318 236.858 116.542 237.326C116.48 236.621 116.754 235.592 117.445 235.76C117.67 235.817 117.838 236.004 118.031 236.141C118.854 236.733 120.212 236.166 120.374 235.168C121.053 235.941 122.268 235.835 123.283 235.661C126.305 235.143 129.333 234.632 132.355 234.114C132.436 233.54 132.729 232.804 133.296 232.879C133.626 232.923 133.844 233.247 134.137 233.415C134.548 233.652 135.065 233.565 135.526 233.465C139.607 232.58 143.626 231.376 147.52 229.854" stroke="#263238" stroke-linecap="round" stroke-linejoin="round"/>
<path d="M114.498 246.544C115.707 246.65 116.941 246.482 118.075 246.052C117.645 245.216 117.906 244.087 118.66 243.526C119.028 243.763 119.389 243.993 119.757 244.23C124.168 244.131 128.561 243.526 132.835 242.428C134.754 241.935 136.642 241.343 138.536 240.756C142.118 239.64 145.707 238.517 149.29 237.401" stroke="#263238" stroke-linecap="round" stroke-linejoin="round"/>
<path opacity="0.2" d="M197.825 25.4347L196.822 25.4971C195.807 25.5595 194.972 25.0106 194.723 24.0751C193.196 18.4929 187.601 15.3557 181.115 15.7611C175.265 16.1228 169.109 19.8152 165.539 24.9171C164.573 26.2955 163.096 27.2435 161.601 27.337L156.623 27.6489C155.128 27.7425 153.919 26.9628 153.377 25.678C151.364 20.9254 146.262 17.9316 140.411 18.2933C133.925 18.6987 127.221 22.5969 123.888 28.4784C123.333 29.4639 122.305 30.1312 121.29 30.1936L120.286 30.256C119.832 30.2872 119.402 30.6863 119.327 31.1604L118.934 33.6677C118.872 34.0543 119.071 34.3787 119.42 34.4535L120.635 34.8153C121.589 35.1022 122.187 35.9629 122.131 37.0419C121.701 45.0316 127.333 50.9006 135.358 50.4079C143.096 49.9276 150.448 43.6844 152.853 35.9754C153.24 34.728 154.343 33.6926 155.576 33.3807C157.028 33.019 158.897 32.7508 160.828 33.0128C162 33.1687 162.822 34.0855 162.816 35.3267C162.797 42.8985 168.318 48.3621 176.062 47.8819C184.081 47.3829 191.695 40.6906 193.8 32.5949C194.087 31.4972 194.972 30.5429 196.031 30.1375L197.383 29.6136C197.763 29.4951 198.068 29.1396 198.131 28.7529L198.523 26.2456C198.598 25.7778 198.286 25.416 197.832 25.4472L197.825 25.4347ZM135.676 48.2811C128.224 48.7426 123.146 42.8673 124.355 35.1833C125.564 27.4992 132.617 20.8692 140.068 20.4077C147.52 19.9461 152.598 25.8214 151.389 33.5055C150.181 41.1895 143.128 47.8195 135.676 48.2811ZM153.614 31.8901C153.645 31.4535 153.657 31.0231 153.651 30.599C153.651 30.2497 153.969 29.9129 154.318 29.888L163.24 29.3329C163.589 29.3142 163.807 29.6136 163.695 29.9753C163.557 30.4057 163.433 30.836 163.321 31.2726C159.483 30.1437 155.651 31.1416 153.62 31.8901H153.614ZM176.38 45.7551C168.928 46.2166 163.85 40.3413 165.059 32.6572C166.268 24.9732 173.321 18.3432 180.772 17.8817C188.224 17.4201 193.302 23.2954 192.093 30.9795C190.885 38.6635 183.832 45.2935 176.38 45.7551Z" fill="black"/>
<path d="M191.427 27.0063L134.255 34.5906C131.526 34.9524 129.078 36.4555 127.514 38.7258L119.146 50.9067C118.816 51.387 119.022 52.0544 119.57 52.2664C120.723 52.7092 122.031 52.3038 122.729 51.2872L130.467 40.0356C131.402 38.6821 132.86 37.7777 134.486 37.547L191.639 29.4388L191.427 27.0063Z" fill="#263238"/>
<path d="M114.299 31.8027L171.956 30.8484C174.71 30.8047 177.352 31.9274 179.234 33.942L189.308 44.757C189.707 45.1874 189.601 45.8735 189.09 46.1666C188.012 46.7778 186.66 46.5658 185.819 45.6614L176.505 35.6759C175.383 34.4721 173.807 33.7923 172.162 33.8048L114.442 34.2414L114.293 31.8027H114.299Z" fill="#263238"/>
<path d="M149.246 35.4764C149.956 35.6136 149.925 40.4473 148.318 42.1064C146.716 43.7654 145.059 39.755 145.483 38.3205C145.906 36.886 147.022 35.0523 149.246 35.4701V35.4764Z" fill="#75A9C8" stroke="#263238" stroke-linecap="round" stroke-linejoin="round"/>
<path d="M159.265 34.8528C158.579 35.0711 159.209 39.8736 161.003 41.3206C162.797 42.7676 163.944 38.5826 163.352 37.2166C162.76 35.8507 161.42 34.1605 159.265 34.8528Z" fill="#75A9C8" stroke="#263238" stroke-linecap="round" stroke-linejoin="round"/>
<path opacity="0.5" d="M123.545 24.1125C126.561 21.5304 132.947 17.1332 139.938 21.3121C146.928 25.4971 149.346 30.0315 147.906 36.1999C146.467 42.3684 142.068 50.5888 131.701 49.1543C121.333 47.7197 114.181 32.1271 123.545 24.1125Z" fill="#75A9C8"/>
<path opacity="0.5" d="M164.311 22.1164C167.327 19.5343 173.713 15.1371 180.704 19.316C187.695 23.501 190.112 28.0354 188.673 34.2038C187.234 40.3723 182.835 48.5927 172.467 47.1582C162.1 45.7236 154.947 30.131 164.311 22.1164Z" fill="#75A9C8"/>
<path d="M192.617 26.1146L191.614 26.177C190.598 26.2394 189.632 25.7092 189.171 24.7986C186.399 19.3849 180.037 16.3474 173.545 16.7528C167.695 17.1146 162.268 20.7071 159.769 25.6656C159.097 27.0065 157.807 27.9234 156.312 28.0169L151.333 28.3288C149.838 28.4223 148.442 27.6677 147.607 26.4203C144.517 21.8111 138.692 18.9108 132.841 19.2788C126.355 19.6842 120.417 23.4764 118.33 29.1957C117.981 30.15 117.09 30.7987 116.075 30.861L115.072 30.9234C114.617 30.9546 114.268 31.3413 114.299 31.8028L114.449 34.2415C114.474 34.6157 114.748 34.9276 115.115 35.0024L116.424 35.3517C117.452 35.6261 118.249 36.4619 118.43 37.5097C119.751 45.2686 126.754 50.9568 134.773 50.4579C142.511 49.9776 148.592 43.9027 149.333 36.4182C149.452 35.2083 150.343 34.1979 151.52 33.8985C152.916 33.543 154.748 33.281 156.766 33.5305C157.988 33.6802 159.022 34.5721 159.29 35.7758C160.935 43.1293 167.732 48.4183 175.477 47.9381C183.495 47.4391 189.738 40.9276 190.1 33.0689C190.15 32.0024 190.835 31.0793 191.819 30.6739L193.078 30.1625C193.433 30.044 193.67 29.7009 193.645 29.3267L193.495 26.888C193.464 26.4327 193.078 26.0835 192.617 26.1146ZM134.648 48.3996C127.196 48.8612 120.754 43.1667 120.293 35.7072C119.832 28.2477 125.52 21.7986 132.972 21.3371C140.424 20.8755 146.866 26.5699 147.327 34.0295C147.788 41.489 142.1 47.9381 134.648 48.3996ZM149.221 32.4577C149.153 32.0336 149.072 31.6157 148.972 31.2041C148.891 30.8673 149.14 30.5367 149.489 30.5118L158.411 29.9567C158.76 29.9379 159.053 30.2311 159.009 30.5804C158.959 30.9982 158.928 31.4161 158.916 31.8402C154.779 30.7488 151.115 31.728 149.215 32.4577H149.221ZM175.352 45.8736C167.9 46.3352 161.458 40.6407 160.997 33.1812C160.536 25.7217 166.224 19.2726 173.676 18.811C181.128 18.3495 187.57 24.0439 188.031 31.5034C188.492 38.963 182.804 45.4121 175.352 45.8736Z" fill="#757575" stroke="#263238" stroke-linecap="round" stroke-linejoin="round"/>
<path opacity="0.4" d="M124.654 43.6031C124.654 43.6031 119.663 37.0043 123.184 29.3327C126.355 22.4283 133.788 21.6424 137.29 23.1268L129.607 36.5178C130.629 31.5156 132.785 27.0063 132.785 27.0063C132.785 27.0063 126.012 33.8608 124.654 43.6031Z" fill="white"/>
<path opacity="0.4" d="M165.265 40.6905C165.265 40.6905 160.274 34.0917 163.794 26.4201C166.966 19.5157 174.399 18.7298 177.9 20.2142L170.218 33.6052C170.797 28.7902 173.395 24.0937 173.395 24.0937C173.395 24.0937 166.623 30.9482 165.265 40.6905Z" fill="white"/>
<path opacity="0.2" d="M35.4019 174.469L52.2929 63.992C53.377 56.9191 59.9813 52.0605 67.0468 53.1457L229.234 77.9941C236.299 79.0794 241.153 85.6907 240.069 92.7635L223.178 203.24C222.094 210.313 215.489 215.172 208.424 214.087L46.2368 189.238C39.1714 188.153 34.3178 181.542 35.4019 174.469Z" fill="black"/>
<path d="M48.4156 68.1562L49.6982 59.7653C49.7501 59.4262 50.0625 59.1964 50.4013 59.2483L53.9364 59.7898L52.4672 69.4015L48.932 68.86C48.5933 68.8081 48.3637 68.4953 48.4156 68.1562Z" fill="#75A9C8" stroke="#263238" stroke-linecap="round" stroke-linejoin="round"/>
<path d="M70.3827 50.4791L78.7649 51.7631C79.1036 51.815 79.3331 52.1278 79.2813 52.4669L78.7403 56.0058L69.1387 54.535L69.6796 50.9961C69.7315 50.657 70.0439 50.4273 70.3827 50.4791Z" fill="#75A9C8" stroke="#263238" stroke-linecap="round" stroke-linejoin="round"/>
<path d="M81.8006 52.2257L90.1828 53.5097C90.5216 53.5616 90.7511 53.8744 90.6992 54.2135L90.1583 57.7524L80.5567 56.2816L81.0976 52.7427C81.1495 52.4036 81.4619 52.1738 81.8006 52.2257Z" fill="#75A9C8" stroke="#263238" stroke-linecap="round" stroke-linejoin="round"/>
<path d="M33.5328 171.974L50.4237 61.4973C51.5078 54.4245 58.1122 49.5658 65.1776 50.6511L227.365 75.4995C234.43 76.5848 239.284 83.196 238.199 90.2688L221.308 200.746C220.224 207.819 213.62 212.677 206.555 211.592L44.3677 186.744C37.3022 185.658 32.4487 179.047 33.5328 171.974Z" fill="#75A9C8" stroke="#263238" stroke-linecap="round" stroke-linejoin="round"/>
<path d="M207.196 210.232L44.1683 185.253C38.1247 184.324 33.9689 178.667 34.8973 172.617L51.9191 61.2978C52.8474 55.2478 58.4985 51.0877 64.5421 52.017L227.57 76.9964C233.614 77.9257 237.77 83.5827 236.841 89.6327L219.819 200.952C218.891 207.002 213.24 211.162 207.196 210.232Z" fill="#757575" stroke="#263238" stroke-linecap="round" stroke-linejoin="round"/>
<path d="M46.1434 117.375C46.0873 117.724 45.7633 117.961 45.4206 117.905C45.0717 117.849 44.835 117.524 44.891 117.181C44.9471 116.832 45.2711 116.595 45.6138 116.651C45.9627 116.707 46.1994 117.032 46.1434 117.375Z" fill="#999999" stroke="#263238" stroke-linecap="round" stroke-linejoin="round"/>
<path d="M45.8443 123.182C45.7447 123.843 45.1216 124.298 44.4612 124.198C43.8007 124.098 43.3459 123.475 43.4456 122.814C43.5453 122.152 44.1683 121.697 44.8288 121.797C45.4892 121.897 45.944 122.52 45.8443 123.182Z" fill="#263238"/>
<path d="M47.9813 109.204C47.8816 109.866 47.2586 110.321 46.5981 110.221C45.9377 110.121 45.4829 109.498 45.5826 108.837C45.6822 108.175 46.3053 107.72 46.9657 107.82C47.6262 107.92 48.081 108.543 47.9813 109.204Z" fill="#263238"/>
<path d="M44.9098 127.105C44.835 127.591 44.3864 127.922 43.9004 127.847C43.4144 127.772 43.0842 127.323 43.159 126.837C43.2338 126.35 43.6824 126.02 44.1683 126.095C44.6543 126.169 44.9845 126.618 44.9098 127.105Z" fill="#263238"/>
<path d="M232.748 87.7116L215.346 201.55C214.885 204.538 212.1 206.59 209.115 206.134L72.536 185.209L69.5765 184.754L58.4425 183.045L53.0531 182.222L45.2649 181.03L43.564 180.768C40.5796 180.313 38.5297 177.519 38.9846 174.531L56.3927 60.6926C56.8475 57.7051 59.6388 55.6531 62.6232 56.1146L113.608 63.9234L121.321 65.1085L128.692 66.2374L138.162 67.6844L141.589 68.2083L228.175 81.4745C231.159 81.936 233.203 84.724 232.748 87.7116Z" fill="#263238"/>
<g opacity="0.1">
<path d="M104.723 184.155L46.8038 175.28C46.0188 175.161 45.4767 174.425 45.6013 173.639L51.3521 136.018C51.4705 135.232 52.2057 134.689 52.9907 134.814L110.91 143.689C111.695 143.808 112.237 144.544 112.112 145.329L106.361 182.951C106.243 183.737 105.508 184.28 104.723 184.155ZM52.9222 135.306C52.4113 135.225 51.9315 135.581 51.8568 136.092L46.106 173.714C46.025 174.226 46.3801 174.706 46.891 174.781L104.81 183.656C105.321 183.737 105.801 183.382 105.875 182.87L111.626 145.248C111.707 144.737 111.352 144.257 110.841 144.182L52.9222 135.306Z" fill="white"/>
</g>
<path opacity="0.4" d="M70.3862 158.084L83.3582 165.45C84.1868 163.928 84.7725 162.244 85.0467 160.429C85.6697 156.338 84.6168 152.377 82.3987 149.252L70.3862 158.084Z" fill="#75A9C8"/>
<path opacity="0.6" d="M70.5109 157.367L82.0997 148.847C80.5545 146.814 78.5046 145.161 76.0997 144.101L73.813 149.521L70.5046 157.367H70.5109Z" fill="#75A9C8"/>
<path d="M72.486 143.016L70.4797 156.145L75.6386 143.901C74.6417 143.502 73.5888 143.203 72.486 143.016Z" fill="#75A9C8"/>
<path opacity="0.1" d="M69.7009 157.928L71.9937 142.941C63.7383 141.812 56.0685 147.519 54.8037 155.795C54.3925 158.49 54.7102 161.128 55.6074 163.51L69.6947 157.935L69.7009 157.928Z" fill="white"/>
<path opacity="0.2" d="M67.6074 173.247C73.975 174.22 80.0186 171.114 83.1027 165.881L69.9002 158.384L55.7881 163.972C57.7694 168.75 62.1245 172.405 67.6074 173.247Z" fill="#75A9C8"/>
<path d="M93.973 149.085L92.2547 148.822C92.0404 148.789 91.8401 148.937 91.8073 149.151L91.5444 150.871C91.5116 151.086 91.6587 151.286 91.873 151.319L93.5913 151.582C93.8056 151.615 94.0059 151.468 94.0387 151.253L94.3017 149.533C94.3344 149.319 94.1873 149.118 93.973 149.085Z" fill="#75A9C8"/>
<path d="M103.315 151.448L95.8068 150.3C95.651 150.275 95.5389 150.126 95.5638 149.97C95.5887 149.814 95.7382 149.702 95.894 149.727L103.402 150.874C103.558 150.899 103.67 151.049 103.645 151.205C103.62 151.361 103.47 151.473 103.315 151.448Z" fill="#75A9C8"/>
<path d="M100.829 152.346L95.6136 151.548C95.4579 151.523 95.3457 151.373 95.3707 151.217C95.3956 151.061 95.5451 150.949 95.7009 150.974L100.916 151.773C101.072 151.797 101.184 151.947 101.159 152.103C101.134 152.259 100.984 152.371 100.829 152.346Z" fill="#75A9C8"/>
<path opacity="0.6" d="M93.1207 154.667L91.4024 154.404C91.1881 154.371 90.9878 154.519 90.955 154.733L90.6921 156.453C90.6593 156.668 90.8064 156.868 91.0207 156.901L92.739 157.164C92.9533 157.197 93.1536 157.05 93.1864 156.835L93.4494 155.115C93.4821 154.901 93.335 154.7 93.1207 154.667Z" fill="#75A9C8"/>
<path d="M102.455 157.036L94.9471 155.889C94.7914 155.864 94.6792 155.714 94.7042 155.558C94.7291 155.402 94.8786 155.29 95.0344 155.315L102.542 156.463C102.698 156.488 102.81 156.637 102.785 156.793C102.76 156.949 102.611 157.061 102.455 157.036Z" fill="#75A9C8"/>
<path d="M99.9751 157.928L94.7601 157.13C94.6044 157.105 94.4922 156.955 94.5171 156.799C94.5421 156.644 94.6916 156.531 94.8474 156.556L100.062 157.355C100.218 157.38 100.33 157.529 100.305 157.685C100.28 157.841 100.131 157.953 99.9751 157.928Z" fill="#75A9C8"/>
<path opacity="0.4" d="M92.2675 160.256L90.5491 159.993C90.3349 159.96 90.1345 160.107 90.1018 160.322L89.8388 162.042C89.806 162.256 89.9532 162.457 90.1675 162.489L91.8858 162.753C92.1001 162.786 92.3004 162.638 92.3332 162.424L92.5961 160.704C92.6289 160.489 92.4817 160.289 92.2675 160.256Z" fill="#75A9C8"/>
<path d="M101.601 162.625L94.0936 161.478C93.9379 161.453 93.8257 161.303 93.8506 161.147C93.8756 160.991 94.0251 160.879 94.1809 160.904L101.689 162.051C101.844 162.076 101.957 162.226 101.932 162.382C101.907 162.538 101.757 162.65 101.601 162.625Z" fill="#75A9C8"/>
<path d="M99.1216 163.517L93.9066 162.719C93.7509 162.694 93.6387 162.544 93.6636 162.388C93.6886 162.232 93.8381 162.12 93.9938 162.145L99.2088 162.943C99.3646 162.968 99.4767 163.118 99.4518 163.274C99.4269 163.43 99.2773 163.542 99.1216 163.517Z" fill="#75A9C8"/>
<path opacity="0.2" d="M91.4142 165.844L89.6959 165.58C89.4816 165.548 89.2813 165.695 89.2485 165.909L88.9856 167.63C88.9528 167.844 89.0999 168.045 89.3142 168.077L91.0325 168.341C91.2468 168.373 91.4471 168.226 91.4799 168.012L91.7428 166.291C91.7756 166.077 91.6285 165.876 91.4142 165.844Z" fill="#75A9C8"/>
<path d="M100.748 168.213L93.2401 167.066C93.0844 167.041 92.9722 166.891 92.9971 166.735C93.022 166.579 93.1716 166.467 93.3273 166.492L100.835 167.639C100.991 167.664 101.103 167.814 101.078 167.97C101.053 168.126 100.904 168.238 100.748 168.213Z" fill="#75A9C8"/>
<path d="M98.2681 169.105L93.0531 168.307C92.8973 168.282 92.7852 168.132 92.8101 167.976C92.835 167.82 92.9846 167.708 93.1403 167.733L98.3553 168.531C98.511 168.556 98.6232 168.706 98.5983 168.862C98.5733 169.018 98.4238 169.13 98.2681 169.105Z" fill="#75A9C8"/>
<path opacity="0.1" d="M90.5609 171.432L88.8426 171.169C88.6283 171.136 88.428 171.283 88.3952 171.498L88.1323 173.218C88.0995 173.432 88.2466 173.633 88.4609 173.666L90.1792 173.929C90.3935 173.962 90.5938 173.814 90.6266 173.6L90.8895 171.88C90.9223 171.665 90.7752 171.465 90.5609 171.432Z" fill="white"/>
<path d="M99.8941 173.796L92.3864 172.648C92.2306 172.623 92.1184 172.473 92.1434 172.318C92.1683 172.162 92.3178 172.049 92.4736 172.074L99.9814 173.222C100.137 173.247 100.249 173.397 100.224 173.552C100.199 173.708 100.05 173.821 99.8941 173.796Z" fill="#75A9C8"/>
<path d="M97.4143 174.694L92.1993 173.896C92.0436 173.871 91.9314 173.721 91.9564 173.565C91.9813 173.409 92.1308 173.297 92.2866 173.322L97.5015 174.12C97.6573 174.145 97.7694 174.295 97.7445 174.451C97.7196 174.607 97.5701 174.719 97.4143 174.694Z" fill="#75A9C8"/>
<g opacity="0.1">
<path d="M213.85 159.456L119.695 145.03C118.91 144.912 118.174 145.448 118.05 146.234L117.651 148.828L117.576 149.327L117.041 152.826L116.966 153.325L116.43 156.818L116.355 157.317L115.819 160.81L115.745 161.309L115.209 164.808L115.134 165.307L114.598 168.799L114.523 169.298L113.988 172.791L113.913 173.29L113.377 176.789L113.302 177.288L112.766 180.781L112.692 181.28L112.293 183.874C112.174 184.66 112.717 185.396 113.502 185.521L207.657 199.947C208.442 200.066 209.178 199.523 209.296 198.737L209.695 196.143L209.769 195.644L210.305 192.151L210.38 191.652L210.916 188.153L210.991 187.654L211.526 184.161L211.601 183.662L212.137 180.17L212.212 179.671L212.748 176.172L212.822 175.673L213.358 172.18L213.433 171.681L213.969 168.188L214.044 167.689L214.579 164.19L214.654 163.691L215.053 161.097C215.171 160.311 214.636 159.581 213.85 159.456ZM208.804 198.644C208.723 199.155 208.243 199.511 207.738 199.43L113.583 185.003C113.072 184.922 112.717 184.442 112.798 183.931L113.196 181.336L209.202 196.049L208.804 198.644ZM209.277 195.55L113.271 180.837L113.807 177.344L209.813 192.057L209.277 195.55ZM209.888 191.558L113.882 176.845L114.417 173.346L210.424 188.059L209.888 191.558ZM210.498 187.561L114.492 172.847L115.028 169.355L211.034 184.068L210.498 187.561ZM211.109 183.569L115.103 168.856L115.639 165.363L211.645 180.076L211.109 183.569ZM211.72 179.577L115.713 164.864L116.249 161.365L212.255 176.078L211.72 179.577ZM212.33 175.579L116.324 160.866L116.86 157.373L212.866 172.086L212.33 175.579ZM212.941 171.587L116.935 156.874L117.47 153.381L213.477 168.095L212.941 171.587ZM213.551 167.596L117.545 152.883L118.081 149.384L214.087 164.097L213.551 167.596ZM118.156 148.891L118.555 146.296C118.636 145.785 119.115 145.435 119.626 145.517L213.782 159.943C214.287 160.018 214.642 160.498 214.567 161.009L214.168 163.604L118.162 148.891H118.156Z" fill="white"/>
</g>
<g opacity="0.1">
<path d="M223.907 92.3023L63.458 67.7159C62.5608 67.5786 61.7259 68.1961 61.5888 69.0942L52.5982 127.897C52.4611 128.795 53.0779 129.631 53.9751 129.768L214.43 154.355C215.327 154.492 216.162 153.874 216.299 152.976L225.29 94.1734C225.427 93.2753 224.81 92.4395 223.913 92.3023H223.907ZM93.0405 100.76L104.199 102.469L103.227 108.812L92.0686 107.103L93.0405 100.76ZM91.5764 107.028L80.4175 105.319L81.3894 98.976L92.5483 100.685L91.5764 107.028ZM104.698 102.55L115.857 104.259L114.885 110.602L103.726 108.893L104.698 102.55ZM162.567 110.907L151.408 109.198L152.38 102.855L163.539 104.564L162.567 110.907ZM164.031 104.639L175.19 106.348L174.218 112.691L163.059 110.982L164.031 104.639ZM128.012 106.117L139.171 107.826L138.199 114.169L127.041 112.46L128.012 106.117ZM126.548 112.386L115.389 110.677L116.361 104.334L127.52 106.043L126.548 112.386ZM139.67 107.907L150.829 109.616L149.857 115.959L138.698 114.25L139.67 107.907ZM151.327 109.691L162.486 111.4L161.514 117.743L150.355 116.034L151.327 109.691ZM150.91 109.117L139.751 107.408L140.723 101.065L151.882 102.774L150.91 109.117ZM139.252 107.334L128.093 105.625L129.065 99.2816L140.224 100.991L139.252 107.334ZM127.595 105.55L116.436 103.841L117.408 97.4978L128.567 99.2067L127.595 105.55ZM115.938 103.766L104.779 102.057L105.751 95.714L116.91 97.4229L115.938 103.766ZM114.816 111.101L113.844 117.444L102.685 115.735L103.657 109.392L114.816 111.101ZM115.315 111.176L126.474 112.885L125.502 119.228L114.343 117.519L115.315 111.176ZM126.972 112.959L138.131 114.668L137.159 121.011L126 119.303L126.972 112.959ZM138.629 114.743L149.788 116.452L148.816 122.795L137.657 121.086L138.629 114.743ZM150.287 116.527L161.446 118.236L160.474 124.579L149.315 122.87L150.287 116.527ZM161.944 118.311L173.103 120.02L172.131 126.363L160.972 124.654L161.944 118.311ZM162.019 117.812L162.991 111.469L174.15 113.178L173.178 119.521L162.019 117.812ZM174.648 113.253L185.807 114.962L184.835 121.305L173.676 119.596L174.648 113.253ZM186.305 115.036L197.464 116.745L196.492 123.088L185.333 121.379L186.305 115.036ZM186.38 114.537L187.352 108.194L198.511 109.903L197.539 116.246L186.38 114.537ZM185.882 114.463L174.723 112.754L175.695 106.411L186.854 108.119L185.882 114.463ZM175.769 105.912L176.741 99.5685L187.9 101.277L186.928 107.621L175.769 105.912ZM175.271 105.837L164.112 104.128L165.084 97.7847L176.243 99.4936L175.271 105.837ZM163.614 104.053L152.455 102.344L153.427 96.0009L164.586 97.7098L163.614 104.053ZM151.956 102.269L140.798 100.56L141.77 94.2171L152.928 95.926L151.956 102.269ZM140.299 100.485L129.14 98.7764L130.112 92.4333L141.271 94.1423L140.299 100.485ZM128.642 98.7015L117.483 96.9926L118.455 90.6495L129.614 92.3585L128.642 98.7015ZM116.984 96.9177L105.826 95.2088L106.798 88.8657L117.956 90.5747L116.984 96.9177ZM105.327 95.1339L94.1683 93.425L95.1402 87.0819L106.299 88.7909L105.327 95.1339ZM105.252 95.6329L104.28 101.976L93.1215 100.267L94.0935 93.924L105.252 95.6329ZM92.6231 100.192L81.4642 98.4832L82.4362 92.1402L93.5951 93.8491L92.6231 100.192ZM80.9658 98.4084L69.8069 96.6994L70.7789 90.3564L81.9377 92.0653L80.9658 98.4084ZM80.891 98.9074L79.919 105.25L68.7602 103.541L69.7321 97.1984L80.891 98.9074ZM79.8443 105.749L78.8723 112.092L67.7134 110.384L68.6854 104.04L79.8443 105.749ZM80.3427 105.824L91.5016 107.533L90.5296 113.876L79.3708 112.167L80.3427 105.824ZM92 107.608L103.159 109.317L102.187 115.66L91.0281 113.951L92 107.608ZM102.112 116.159L101.14 122.502L89.9813 120.793L90.9533 114.45L102.112 116.159ZM102.611 116.234L113.77 117.943L112.798 124.286L101.639 122.577L102.611 116.234ZM114.268 118.018L125.427 119.727L124.455 126.07L113.296 124.361L114.268 118.018ZM125.925 119.801L137.084 121.51L136.112 127.854L124.953 126.145L125.925 119.801ZM137.583 121.585L148.741 123.294L147.77 129.637L136.611 127.928L137.583 121.585ZM149.24 123.369L160.399 125.078L159.427 131.421L148.268 129.712L149.24 123.369ZM160.897 125.153L172.056 126.862L171.084 133.205L159.925 131.496L160.897 125.153ZM172.555 126.937L183.713 128.646L182.741 134.989L171.583 133.28L172.555 126.937ZM172.629 126.438L173.601 120.095L184.76 121.804L183.788 128.147L172.629 126.438ZM185.259 121.885L196.417 123.594L195.446 129.937L184.287 128.228L185.259 121.885ZM196.916 123.668L208.075 125.377L207.103 131.72L195.944 130.012L196.916 123.668ZM196.991 123.169L197.963 116.826L209.122 118.535L208.15 124.878L196.991 123.169ZM198.037 116.327L199.009 109.984L210.168 111.693L209.196 118.036L198.037 116.327ZM199.084 109.485L200.056 103.142L211.215 104.851L210.243 111.194L199.084 109.485ZM198.586 109.411L187.427 107.702L188.399 101.359L199.558 103.067L198.586 109.411ZM188.474 100.86L189.446 94.5165L200.604 96.2254L199.632 102.569L188.474 100.86ZM187.975 100.785L176.816 99.0758L177.788 92.7327L188.947 94.4416L187.975 100.785ZM176.318 99.0009L165.159 97.292L166.131 90.9489L177.29 92.6578L176.318 99.0009ZM164.66 97.2171L153.502 95.5082L154.474 89.1651L165.632 90.874L164.66 97.2171ZM153.003 95.4333L141.844 93.7244L142.816 87.3813L153.975 89.0902L153.003 95.4333ZM141.346 93.6495L130.187 91.9406L131.159 85.5975L142.318 87.3064L141.346 93.6495ZM129.688 91.8657L118.53 90.1568L119.502 83.8137L130.66 85.5226L129.688 91.8657ZM118.031 90.0819L106.872 88.373L107.844 82.0299L119.003 83.7388L118.031 90.0819ZM106.374 88.2981L95.215 86.5892L96.187 80.2461L107.346 81.955L106.374 88.2981ZM94.7165 86.5143L83.5577 84.8054L84.5296 78.4623L95.6885 80.1712L94.7165 86.5143ZM94.6418 87.0133L93.6698 93.3564L82.5109 91.6474L83.4829 85.3043L94.6418 87.0133ZM82.0125 91.5663L70.8536 89.8574L71.8256 83.5143L82.9845 85.2233L82.0125 91.5663ZM70.3552 89.7825L59.1963 88.0736L60.1683 81.7305L71.3271 83.4395L70.3552 89.7825ZM70.2804 90.2815L69.3084 96.6246L58.1496 94.9156L59.1215 88.5726L70.2804 90.2815ZM69.2337 97.1236L68.2617 103.467L57.1028 101.758L58.0748 95.4146L69.2337 97.1236ZM68.187 103.966L67.215 110.309L56.0561 108.6L57.0281 102.257L68.187 103.966ZM67.1402 110.808L66.1683 117.151L55.0094 115.442L55.9813 109.099L67.1402 110.808ZM67.6387 110.882L78.7975 112.591L77.8256 118.935L66.6667 117.226L67.6387 110.882ZM79.296 112.666L90.4549 114.375L89.4829 120.718L78.324 119.009L79.296 112.666ZM89.4081 121.217L88.4362 127.56L77.2773 125.851L78.2493 119.508L89.4081 121.217ZM89.9066 121.292L101.065 123.001L100.093 129.344L88.9346 127.635L89.9066 121.292ZM101.564 123.076L112.723 124.785L111.751 131.128L100.592 129.419L101.564 123.076ZM113.221 124.86L124.38 126.569L123.408 132.912L112.249 131.203L113.221 124.86ZM124.879 126.644L136.037 128.352L135.065 134.696L123.907 132.987L124.879 126.644ZM136.536 128.427L147.695 130.136L146.723 136.479L135.564 134.77L136.536 128.427ZM148.193 130.211L159.352 131.92L158.38 138.263L147.221 136.554L148.193 130.211ZM159.851 131.995L171.009 133.704L170.037 140.047L158.879 138.338L159.851 131.995ZM171.508 133.779L182.667 135.488L181.695 141.831L170.536 140.122L171.508 133.779ZM183.165 135.563L194.324 137.271L193.352 143.615L182.193 141.906L183.165 135.563ZM183.24 135.064L184.212 128.72L195.371 130.429L194.399 136.772L183.24 135.064ZM195.869 130.504L207.028 132.213L206.056 138.556L194.897 136.847L195.869 130.504ZM207.527 132.288L218.685 133.997L217.713 140.34L206.555 138.631L207.527 132.288ZM207.601 131.789L208.573 125.446L219.732 127.155L218.76 133.498L207.601 131.789ZM208.648 124.947L209.62 118.604L220.779 120.313L219.807 126.656L208.648 124.947ZM209.695 118.105L210.667 111.762L221.826 113.471L220.854 119.814L209.695 118.105ZM210.741 111.263L211.713 104.92L222.872 106.629L221.9 112.972L210.741 111.263ZM211.788 104.421L212.76 98.0778L223.919 99.7868L222.947 106.13L211.788 104.421ZM211.29 104.346L200.131 102.637L201.103 96.294L212.262 98.003L211.29 104.346ZM201.171 95.7951L202.143 89.452L213.302 91.1609L212.33 97.504L201.171 95.7951ZM200.673 95.7202L189.514 94.0113L190.486 87.6682L201.645 89.3771L200.673 95.7202ZM189.016 93.9364L177.857 92.2275L178.829 85.8844L189.988 87.5933L189.016 93.9364ZM177.358 92.1526L166.199 90.4437L167.171 84.1006L178.33 85.8095L177.358 92.1526ZM165.701 90.3688L154.542 88.6599L155.514 82.3168L166.673 84.0258L165.701 90.3688ZM154.044 88.585L142.885 86.8761L143.857 80.533L155.016 82.242L154.044 88.585ZM142.386 86.8012L131.227 85.0923L132.199 78.7492L143.358 80.4582L142.386 86.8012ZM130.729 85.0174L119.57 83.3085L120.542 76.9654L131.701 78.6744L130.729 85.0174ZM119.072 83.2336L107.913 81.5247L108.885 75.1816L120.044 76.8906L119.072 83.2336ZM107.414 81.4498L96.2555 79.7409L97.2274 73.3978L108.386 75.1068L107.414 81.4498ZM95.757 79.6661L84.5982 77.9571L85.5701 71.614L96.729 73.323L95.757 79.6661ZM84.0997 77.8823L72.9408 76.1733L73.9128 69.8302L85.0717 71.5392L84.0997 77.8823ZM84.025 78.3812L83.053 84.7243L71.8941 83.0154L72.8661 76.6723L84.025 78.3812ZM71.3957 82.9343L60.2368 81.2253L61.2088 74.8822L72.3676 76.5912L71.3957 82.9343ZM54.9284 115.916L66.0873 117.625L65.1153 123.968L53.9564 122.259L54.9284 115.916ZM66.5857 117.7L77.7446 119.409L76.7726 125.752L65.6137 124.043L66.5857 117.7ZM76.6979 126.251L75.7259 132.594L64.567 130.885L65.539 124.542L76.6979 126.251ZM77.1963 126.325L88.3552 128.034L87.3832 134.377L76.2243 132.669L77.1963 126.325ZM88.8536 128.109L100.012 129.818L99.0405 136.161L87.8817 134.452L88.8536 128.109ZM100.511 129.893L111.67 131.602L110.698 137.945L99.539 136.236L100.511 129.893ZM112.168 131.677L123.327 133.386L122.355 139.729L111.196 138.02L112.168 131.677ZM123.826 133.461L134.984 135.17L134.012 141.513L122.854 139.804L123.826 133.461ZM135.483 135.244L146.642 136.953L145.67 143.296L134.511 141.587L135.483 135.244ZM147.14 137.028L158.299 138.737L157.327 145.08L146.168 143.371L147.14 137.028ZM158.798 138.812L169.956 140.521L168.984 146.864L157.826 145.155L158.798 138.812ZM170.455 140.596L181.614 142.305L180.642 148.648L169.483 146.939L170.455 140.596ZM182.112 142.38L193.271 144.089L192.299 150.432L181.14 148.723L182.112 142.38ZM193.77 144.163L204.928 145.872L203.956 152.215L192.798 150.506L193.77 144.163ZM193.844 143.664L194.816 137.321L205.975 139.03L205.003 145.373L193.844 143.664ZM206.474 139.111L217.632 140.82L216.66 147.163L205.502 145.454L206.474 139.111ZM224.779 94.0736L223.981 99.2878L212.822 97.5789L213.794 91.2358L223.832 92.7763C224.455 92.8699 224.879 93.4562 224.785 94.0736H224.779ZM63.3832 68.2148L73.4206 69.7491L72.4486 76.0922L61.2898 74.3833L62.0873 69.1691C62.1807 68.5454 62.7664 68.1213 63.3832 68.2148ZM53.0966 127.972L53.8941 122.758L65.053 124.467L64.081 130.81L54.0436 129.269C53.4206 129.176 52.9969 128.589 53.0904 127.972H53.0966ZM214.505 153.856L204.467 152.315L205.439 145.972L216.598 147.681L215.801 152.895C215.707 153.519 215.122 153.943 214.505 153.85V153.856Z" fill="white"/>
</g>
<path opacity="0.5" d="M218.611 134.502L215.801 152.889C215.707 153.488 215.153 153.893 214.555 153.8L54.0063 129.207C53.4082 129.113 53.0032 128.558 53.0967 127.966L53.4705 125.508C53.4705 125.508 61.0157 119.421 65.7384 120.144C71.321 120.999 72.3054 124.167 77.2711 124.928C82.2306 125.689 87.7135 114.138 92.2119 114.831C94.6418 115.205 95.2649 117.076 96.4611 118.797C97.3459 120.082 98.5608 121.273 101.072 121.704C101.128 121.716 101.196 121.729 101.252 121.735C107.358 122.67 115.62 90.2191 124.025 91.5102C127.738 92.0778 129.24 99.2441 130.355 107.146C131.77 117.138 132.567 128.321 136.461 128.92C143.427 129.987 145.794 115.841 152.268 116.839C156.337 117.463 157.819 125.016 161.246 130.991C163.271 134.533 165.981 137.521 170.324 138.182C174.268 138.787 176.904 137.87 178.953 136.429C182.972 133.617 184.766 128.814 189.788 129.587C192.76 130.043 193.851 132.338 194.953 134.502C195.919 136.392 196.904 138.182 199.196 138.538C201.894 138.949 204.187 135.088 206.623 131.658C208.623 128.839 210.71 126.307 213.196 126.687C215.732 127.074 217.227 130.124 217.981 132.301C218.411 133.554 218.598 134.515 218.598 134.515L218.611 134.502Z" fill="#75A9C8"/>
<path opacity="0.5" d="M222.474 109.236L215.801 152.889C215.707 153.488 215.153 153.893 214.555 153.799L54.0063 129.207C53.4082 129.113 53.0032 128.558 53.0967 127.966L53.4705 125.508C60.1372 126.531 63.6948 121.535 68.1683 122.221C72.6418 122.907 74.9596 126.032 79.1465 126.675C83.3396 127.317 89.7882 117.506 94.3739 118.211C95.1652 118.329 95.8506 118.541 96.4611 118.797C98.2244 119.533 99.4393 120.724 101.072 121.704C102.181 122.365 103.477 122.939 105.265 123.213C110.629 124.036 121.365 104.595 127.589 105.55C128.673 105.718 129.57 106.298 130.355 107.146C134.031 111.157 134.978 121.186 140.162 121.978C146.449 122.939 149.813 112.704 155.907 113.639C162 114.575 163.807 125.09 170.872 126.176C177.944 127.261 185.589 107.938 192.922 109.067C200.249 110.19 202.349 120.113 208.723 121.086C215.707 122.159 222.461 109.242 222.461 109.242L222.474 109.236Z" fill="#75A9C8"/>
<path d="M219.371 129.531L215.801 152.889C215.707 153.488 215.153 153.893 214.555 153.799L54.0063 129.207C53.4082 129.113 53.0032 128.558 53.0967 127.966L53.2836 126.762C53.5141 126.537 57.296 122.963 61.134 123.556C65.1029 124.161 65.1091 127.722 70.6481 128.571C76.1808 129.419 77.7945 125.034 85.6449 126.238C93.5016 127.442 93.4643 132.936 101.583 134.178C109.701 135.419 111.377 128.839 117.14 129.718C122.897 130.598 122.523 133.966 125.794 134.465C129.065 134.964 130.978 129.824 135.009 130.442C139.041 131.059 142.125 139.517 146.667 140.215C149.857 140.702 155.502 134.383 161.252 130.984C163.689 129.55 166.143 128.639 168.442 128.995C173.184 129.718 175.95 133.423 178.96 136.423C180.854 138.313 182.841 139.916 185.47 140.321C189.227 140.895 192.081 137.496 194.966 134.496C197.309 132.057 199.67 129.887 202.542 130.329C204.374 130.61 205.651 131.09 206.642 131.652C209.122 133.049 209.788 134.932 212.773 135.388C216.368 135.936 219.377 129.537 219.377 129.537L219.371 129.531Z" fill="#75A9C8"/>
<path d="M72.9719 65.8197L64.3551 64.4975C63.5139 64.3665 62.9407 63.5869 63.0716 62.7449C63.2024 61.9029 63.9812 61.3291 64.8224 61.46L73.4392 62.7823C74.2803 62.9133 74.8535 63.6929 74.7227 64.5349C74.5918 65.3769 73.813 65.9507 72.9719 65.8197Z" fill="#75A9C8"/>
<path d="M77.7322 64.0798C77.7758 64.0798 77.8256 64.0798 77.8692 64.0922L86.4861 65.4145C86.7291 65.4519 86.9409 65.5829 87.0842 65.7762C87.2275 65.9758 87.2898 66.2128 87.2524 66.4561C87.1839 66.8989 86.7976 67.2295 86.349 67.2295C86.3054 67.2295 86.2555 67.2295 86.2119 67.217L77.5951 65.8947C77.0967 65.8199 76.754 65.3521 76.8287 64.8532C76.8973 64.4103 77.2836 64.0798 77.7322 64.0798ZM77.7322 63.4561C76.9845 63.4561 76.3303 63.9987 76.2182 64.7596C76.0873 65.6016 76.6668 66.3812 77.5016 66.5122L86.1247 67.8345C86.2057 67.8469 86.2805 67.8532 86.3615 67.8532C87.1091 67.8532 87.7633 67.3106 87.8755 66.5496C88.0063 65.7076 87.4269 64.928 86.592 64.797L77.9752 63.4748C77.8942 63.4623 77.8194 63.4561 77.7384 63.4561H77.7322Z" fill="#75A9C8"/>
<path d="M90.8785 66.0939C90.9222 66.0939 90.972 66.0939 91.0156 66.1064L99.6324 67.4286C99.8754 67.4661 100.087 67.5971 100.231 67.7904C100.374 67.99 100.436 68.227 100.399 68.4702C100.33 68.9131 99.944 69.2436 99.4954 69.2436C99.4518 69.2436 99.4019 69.2436 99.3583 69.2312L90.7352 67.9089C90.4923 67.8715 90.2804 67.7405 90.1371 67.5472C89.9938 67.3476 89.9315 67.1106 89.9689 66.8673C90.0374 66.4245 90.4237 66.0939 90.8723 66.0939M90.8723 65.4702C90.1247 65.4702 89.4704 66.0128 89.3583 66.7738C89.2275 67.6158 89.8069 68.3954 90.6418 68.5264L99.2648 69.8486C99.3458 69.8611 99.4206 69.8673 99.5016 69.8673C100.249 69.8673 100.903 69.3247 101.016 68.5638C101.146 67.7218 100.567 66.9422 99.7321 66.8112L91.1153 65.4889C91.0343 65.4765 90.9595 65.4702 90.8785 65.4702H90.8723Z" fill="#75A9C8"/>
<path d="M225.128 87.7429L225.234 87.0693L224.735 86.9508C224.723 86.8385 224.698 86.7325 224.654 86.6265L225.041 86.2897L224.636 85.7408L224.199 86.009C224.112 85.9404 224.019 85.8843 223.919 85.8406L223.95 85.3292L223.277 85.2231L223.159 85.7221C223.047 85.7346 222.941 85.7595 222.835 85.8032L222.499 85.4165L221.95 85.8219L222.218 86.2585C222.15 86.3458 222.094 86.4394 222.05 86.5392L221.539 86.508L221.433 87.1816L221.932 87.3001C221.944 87.4124 221.969 87.5184 222.013 87.6244L221.626 87.9612L222.031 88.5101L222.467 88.2419C222.555 88.3105 222.648 88.3666 222.748 88.4103L222.717 88.9217L223.39 89.0278L223.508 88.5288C223.62 88.5163 223.726 88.4914 223.832 88.4477L224.168 88.8344L224.717 88.429L224.449 87.9924C224.517 87.9051 224.573 87.8115 224.617 87.7117L225.128 87.7429ZM223.209 87.9051C222.779 87.8365 222.48 87.4373 222.548 87.0007C222.617 86.5641 223.016 86.271 223.452 86.3396C223.888 86.4082 224.181 86.8074 224.112 87.244C224.044 87.6805 223.645 87.9737 223.209 87.9051Z" fill="#75A9C8"/>
<path opacity="0.2" d="M128.227 161.959L126.392 161.678L124.375 174.871L126.21 175.153L128.227 161.959Z" fill="#75A9C8"/>
<path d="M127.918 163.947L126.083 163.666L125.134 169.874L126.969 170.155L127.918 163.947Z" fill="#75A9C8"/>
<path opacity="0.2" d="M123.592 164.662L121.757 164.381L119.74 177.575L121.575 177.856L123.592 164.662Z" fill="#75A9C8"/>
<path d="M121.214 167.849L120.264 174.064L122.099 174.345L123.049 168.13L121.214 167.849Z" fill="#75A9C8"/>
<path opacity="0.2" d="M119.846 161.494L118.01 161.212L115.994 174.406L117.829 174.687L119.846 161.494Z" fill="#75A9C8"/>
<path d="M119.091 166.466L117.255 166.185L116.305 172.4L118.141 172.681L119.091 166.466Z" fill="#75A9C8"/>
<path opacity="0.2" d="M131.951 165.199L130.115 164.917L128.098 178.111L129.934 178.392L131.951 165.199Z" fill="#75A9C8"/>
<path d="M131.653 167.187L129.818 166.906L128.868 173.121L130.703 173.402L131.653 167.187Z" fill="#75A9C8"/>
<path opacity="0.2" d="M136.677 161.929L134.841 161.647L132.824 174.841L134.66 175.122L136.677 161.929Z" fill="#75A9C8"/>
<path d="M136.448 163.417L134.613 163.136L133.663 169.35L135.498 169.631L136.448 163.417Z" fill="#75A9C8"/>
<path opacity="0.2" d="M140.281 165.965L138.445 165.684L136.429 178.877L138.264 179.158L140.281 165.965Z" fill="#75A9C8"/>
<path d="M140.2 166.464L138.364 166.183L137.414 172.397L139.25 172.678L140.2 166.464Z" fill="#75A9C8"/>
<path opacity="0.2" d="M145.46 159.704L143.625 159.423L141.608 172.617L143.444 172.898L145.46 159.704Z" fill="#75A9C8"/>
<path d="M145.386 160.199L143.551 159.917L142.602 166.126L144.437 166.407L145.386 160.199Z" fill="#75A9C8"/>
<path opacity="0.2" d="M148.314 168.641L146.478 168.36L144.461 181.554L146.297 181.835L148.314 168.641Z" fill="#75A9C8"/>
<path d="M148.01 170.63L146.175 170.349L145.225 176.563L147.06 176.844L148.01 170.63Z" fill="#75A9C8"/>
<path opacity="0.2" d="M152.323 170.043L150.488 169.762L148.471 182.955L150.307 183.237L152.323 170.043Z" fill="#75A9C8"/>
<path d="M151.563 175.009L149.728 174.728L148.778 180.942L150.613 181.223L151.563 175.009Z" fill="#75A9C8"/>
<path opacity="0.2" d="M157.722 162.39L155.887 162.109L153.87 175.303L155.705 175.584L157.722 162.39Z" fill="#75A9C8"/>
<path d="M156.881 167.864L155.045 167.583L154.096 173.791L155.932 174.072L156.881 167.864Z" fill="#75A9C8"/>
<path opacity="0.2" d="M160.956 168.825L159.121 168.544L157.104 181.738L158.939 182.019L160.956 168.825Z" fill="#75A9C8"/>
<path d="M160.579 171.308L158.744 171.027L157.795 177.235L159.63 177.516L160.579 171.308Z" fill="#75A9C8"/>
<path opacity="0.2" d="M165.608 166.014L163.773 165.732L161.756 178.926L163.591 179.207L165.608 166.014Z" fill="#75A9C8"/>
<path d="M165.304 168.009L163.469 167.728L162.519 173.942L164.354 174.223L165.304 168.009Z" fill="#75A9C8"/>
<path opacity="0.2" d="M170.642 160.724L168.807 160.443L166.79 173.637L168.625 173.918L170.642 160.724Z" fill="#75A9C8"/>
<path d="M170.636 160.717L168.801 160.436L167.851 166.65L169.686 166.931L170.636 160.717Z" fill="#75A9C8"/>
<path opacity="0.2" d="M173.494 169.709L171.659 169.428L169.642 182.621L171.477 182.903L173.494 169.709Z" fill="#75A9C8"/>
<path d="M173.265 171.203L171.43 170.922L170.48 177.136L172.315 177.418L173.265 171.203Z" fill="#75A9C8"/>
<path opacity="0.2" d="M176.728 176.144L174.893 175.863L172.876 189.057L174.712 189.338L176.728 176.144Z" fill="#75A9C8"/>
<path d="M176.506 177.632L174.67 177.351L173.72 183.566L175.556 183.847L176.506 177.632Z" fill="#75A9C8"/>
<path opacity="0.2" d="M181.921 169.793L180.085 169.512L178.069 182.706L179.904 182.987L181.921 169.793Z" fill="#75A9C8"/>
<path d="M181.167 174.754L179.331 174.473L178.381 180.687L180.217 180.968L181.167 174.754Z" fill="#75A9C8"/>
<path opacity="0.2" d="M187.191 162.961L185.356 162.68L183.339 175.873L185.174 176.155L187.191 162.961Z" fill="#75A9C8"/>
<path d="M186.276 168.928L184.44 168.646L183.49 174.861L185.326 175.142L186.276 168.928Z" fill="#75A9C8"/>
<path opacity="0.2" d="M190.178 171.054L188.342 170.772L186.325 183.966L188.161 184.247L190.178 171.054Z" fill="#75A9C8"/>
<path d="M189.88 173.036L188.045 172.755L187.095 178.969L188.93 179.251L189.88 173.036Z" fill="#75A9C8"/>
<path opacity="0.2" d="M193.962 173.884L192.126 173.603L190.109 186.796L191.945 187.077L193.962 173.884Z" fill="#75A9C8"/>
<path d="M193.133 179.351L191.297 179.07L190.347 185.284L192.183 185.566L193.133 179.351Z" fill="#75A9C8"/>
<path opacity="0.2" d="M198.72 170.396L196.885 170.115L194.868 183.309L196.704 183.59L198.72 170.396Z" fill="#75A9C8"/>
<path d="M198.72 170.402L196.885 170.121L195.935 176.336L197.77 176.617L198.72 170.402Z" fill="#75A9C8"/>
<path opacity="0.2" d="M202.217 175.15L200.382 174.869L198.365 188.063L200.2 188.344L202.217 175.15Z" fill="#75A9C8"/>
<path d="M202.064 176.138L200.228 175.856L199.278 182.071L201.114 182.352L202.064 176.138Z" fill="#75A9C8"/>
<path opacity="0.2" d="M206.62 174.002L204.785 173.721L202.768 186.915L204.604 187.196L206.62 174.002Z" fill="#75A9C8"/>
<path d="M206.54 174.495L204.705 174.214L203.755 180.429L205.59 180.71L206.54 174.495Z" fill="#75A9C8"/>
<path opacity="0.2" d="M210.48 176.326L208.645 176.044L206.628 189.238L208.463 189.519L210.48 176.326Z" fill="#75A9C8"/>
<path d="M209.503 182.781L207.668 182.5L206.718 188.714L208.553 188.995L209.503 182.781Z" fill="#75A9C8"/>
<path d="M143.843 194.65L109.279 189.355L109.115 190.428L143.679 195.723L143.843 194.65Z" fill="#999999" stroke="#263238" stroke-linecap="round" stroke-linejoin="round"/>
<path opacity="0.2" d="M165.813 119.221C165.813 119.221 161.128 121.822 164.112 128.87C167.09 135.924 185.246 147.5 184.879 153.388C184.879 153.388 166.243 141.762 161.065 148.473C161.065 148.473 175.14 162.138 176.604 172.417C178.062 182.702 182.854 187.255 193.85 193.118C204.847 198.981 228.816 229.929 228.816 229.929L225.234 177.974L190.349 138.556L173.097 128.72L165.807 119.221H165.813Z" fill="black"/>
<path d="M260.486 211.854C260.486 211.854 229.769 232.05 229.763 232.05C229.744 232.056 229.732 232.062 229.713 232.062C229.657 232.062 229.607 232.025 229.583 231.969C229.445 231.607 215.857 195.301 212.604 192.469C210.181 190.361 209.121 187.611 208.729 186.27C208.729 186.27 208.723 186.27 208.723 186.257C208.716 186.245 208.716 186.226 208.71 186.207C208.592 185.808 208.536 185.546 208.523 185.478C208.405 185.191 206.174 180.189 200.505 176.459C198.368 175.049 195.882 174.039 193.252 172.966C189.389 171.401 185.414 169.785 182.604 166.798C182.131 166.292 181.688 165.75 181.29 165.157C176.822 158.608 169.925 151.38 167.626 149.895C165.24 148.348 161.115 148.61 161.078 148.617C161.003 148.623 160.941 148.573 160.928 148.504C160.748 147.45 161.103 146.321 161.938 145.33C163.084 143.964 164.86 143.147 166.692 143.147C170.243 143.147 175.134 145.037 177.601 147.369C180.012 149.646 185.776 151.448 186.43 151.648C187.358 151.099 189.52 152.278 190.349 152.777C189.396 149.378 189.782 148.068 189.931 147.737C187.888 145.087 177.246 137.24 171.595 133.305H171.589C170.031 132.213 168.86 131.427 168.349 131.128C165.713 129.575 163.533 124.716 163.956 121.323C164.093 120.219 164.517 119.427 165.209 118.966C165.807 118.567 166.486 118.492 166.984 118.51C167.408 118.523 167.707 118.598 167.738 118.604C167.763 118.616 167.788 118.629 167.807 118.648C167.857 118.716 173.146 124.997 174.978 125.982C175.875 126.463 180.648 128.876 185.184 131.122C185.875 131.465 186.561 131.808 187.227 132.132C187.24 131.165 187.283 127.373 187.539 126.213C187.713 125.44 188.947 124.336 190.349 123.693C191.003 123.394 192.237 122.964 193.109 123.438C193.452 123.631 194.262 124.13 195.383 124.829C195.931 125.165 196.567 125.565 197.265 125.989C197.501 125.646 198.243 124.635 198.71 124.361C199.178 124.086 201.763 123.606 202.685 123.93C203.489 124.224 206.068 125.864 208.797 127.598C209.184 127.841 209.576 128.091 209.975 128.34C210.118 128.072 210.455 127.51 210.773 127.386C211.987 126.893 213.956 126.793 214.978 127.161C215.9 127.498 219.065 129.837 222.131 132.101C223.813 133.348 225.427 134.54 226.486 135.257C226.523 135.269 226.554 135.288 226.573 135.319C226.878 135.525 227.134 135.687 227.327 135.8C229.582 137.091 235.128 166.205 235.184 166.498C235.545 168.451 236.866 170.465 238.262 172.598C239.626 174.681 241.171 177.045 242.1 179.765C243.875 184.96 247.919 192.563 253.844 201.856C254.38 202.698 254.935 203.553 255.501 204.42C257.103 206.877 258.81 209.409 260.486 211.854Z" fill="white"/>
<path opacity="0.4" d="M192.031 156.107C190.841 157.049 182.206 156.157 181.146 159.064C180.523 160.779 180.984 163.374 182.604 166.798C182.131 166.292 181.688 165.75 181.29 165.157C176.822 158.608 169.925 151.38 167.626 149.895C165.24 148.348 161.115 148.61 161.078 148.617C161.003 148.623 160.941 148.573 160.928 148.504C160.748 147.45 161.103 146.321 161.938 145.33C163.084 143.964 164.86 143.147 166.692 143.147C170.243 143.147 175.134 145.037 177.601 147.369C180.012 149.646 185.776 151.448 186.43 151.648C187.358 151.099 189.52 152.278 190.349 152.777C189.396 149.378 189.782 148.068 189.931 147.737C187.888 145.087 177.246 137.24 171.595 133.305H171.589C170.031 132.213 168.86 131.427 168.349 131.128C165.713 129.575 163.533 124.716 163.956 121.323C164.093 120.219 164.517 119.427 165.209 118.966C165.807 118.567 166.486 118.492 166.984 118.51C166.592 118.66 166.199 118.891 165.813 119.221C164.081 120.7 168.212 128.502 170.536 130.66C172.966 132.912 183.894 138.5 187.819 141.831C189.975 143.658 192.804 146.427 192.804 146.427C191.078 149.365 193.215 155.172 192.031 156.107Z" fill="#75A9C8"/>
<path d="M232.156 108.399C232.15 108.344 232.15 108.332 232.156 108.356C232.162 108.375 232.162 108.387 232.156 108.399Z" fill="#75A9C8"/>
<path opacity="0.4" d="M253.844 201.856C249.215 197.447 242.324 190.58 241.034 187.567C239.065 182.952 237.751 178.692 235.302 175.586C232.86 172.486 227.888 139.38 226.461 139.286C225.072 139.186 228.255 152.371 228.424 153.057C228.287 152.64 226.505 147.02 224.798 140.615C223.028 133.96 221.24 133.598 221.24 133.598C218.866 134.072 218.854 135.762 217.639 135.737C216.43 135.712 212.255 132.75 212.255 132.75C208.212 133.336 193.041 123.556 193.041 123.556C189.589 124.024 188.779 127.043 191.726 129.874C194.679 132.712 199.078 136.155 199.078 136.155C196.237 137.54 185.807 131.683 185.807 131.683L185.184 131.122C185.875 131.465 186.561 131.808 187.227 132.132C187.24 131.165 187.284 127.373 187.539 126.213C187.713 125.44 188.947 124.336 190.349 123.693C191.003 123.394 192.237 122.964 193.109 123.438C193.452 123.631 194.262 124.13 195.383 124.829C195.931 125.165 196.567 125.565 197.265 125.989C197.502 125.646 198.243 124.635 198.71 124.361C199.178 124.086 201.763 123.606 202.685 123.93C203.489 124.224 206.069 125.864 208.798 127.598C209.184 127.841 209.576 128.091 209.975 128.34C210.118 128.072 210.455 127.511 210.773 127.386C211.988 126.893 213.956 126.793 214.978 127.161C215.9 127.498 219.065 129.837 222.131 132.101C223.813 133.348 225.427 134.54 226.486 135.257C226.523 135.269 226.555 135.288 226.573 135.319C226.879 135.525 227.134 135.687 227.327 135.8C229.583 137.091 235.128 166.205 235.184 166.498C235.545 168.451 236.866 170.465 238.262 172.598C239.626 174.681 241.171 177.045 242.1 179.765C243.875 184.96 247.919 192.563 253.844 201.856Z" fill="#75A9C8"/>
<path d="M229.713 231.925C229.713 231.925 216.012 195.257 212.698 192.37C209.383 189.482 208.66 185.44 208.66 185.44C208.66 185.44 206.498 180.245 200.586 176.347C194.673 172.449 185.732 171.438 181.402 165.089C177.078 158.74 170.156 151.374 167.701 149.783C165.252 148.193 161.065 148.486 161.065 148.486C160.635 146.028 163.371 143.29 166.692 143.29C170.012 143.29 174.91 145.024 177.508 147.475C180.106 149.927 186.449 151.804 186.449 151.804C187.458 151.08 190.579 153.083 190.579 153.083C189.333 148.86 190.093 147.725 190.093 147.725C187.645 144.407 170.878 132.457 168.424 131.016C165.969 129.575 163.664 124.81 164.1 121.342C164.53 117.874 167.707 118.741 167.707 118.741C167.707 118.741 173.04 125.091 174.916 126.101C176.791 127.111 191.502 134.477 193.664 135.338C195.825 136.205 197.414 135.051 197.414 135.051" stroke="#263238" stroke-linecap="round" stroke-linejoin="round"/>
<path d="M187.365 132.351C187.365 132.351 187.383 127.548 187.67 126.245C187.956 124.947 191.452 122.689 193.041 123.556C194.629 124.423 206.312 132.114 209.358 132.45" stroke="#263238" stroke-linecap="round" stroke-linejoin="round"/>
<path d="M197.296 126.182C197.296 126.182 198.243 124.791 198.779 124.473C199.209 124.217 201.769 123.75 202.635 124.055C204.368 124.679 214.567 131.727 216.299 132.157" stroke="#263238" stroke-linecap="round" stroke-linejoin="round"/>
<path d="M210.025 128.54C210.025 128.54 210.467 127.654 210.822 127.511C212.056 127.012 213.969 126.943 214.935 127.292C216.523 127.872 225.246 134.764 227.265 135.918C229.283 137.072 234.33 162.625 235.053 166.523C235.776 170.421 240.1 174.32 241.975 179.808C243.85 185.297 248.318 193.667 255.389 204.494C256.629 206.397 257.931 208.343 259.234 210.251" stroke="#263238" stroke-linecap="round" stroke-linejoin="round"/>
<path d="M196.255 142.523C196.255 142.523 196.903 139.598 198.635 138.301C200.368 137.003 202.748 139.062 204.473 139.274" stroke="#263238" stroke-linecap="round" stroke-linejoin="round"/>
<path d="M208.044 137.877C208.044 137.877 209.016 134.515 210.748 133.754C212.48 132.993 215.147 135.27 216.299 135.376" stroke="#263238" stroke-linecap="round" stroke-linejoin="round"/>
<path d="M219.402 134.839C219.402 134.839 220.698 133.61 221.24 133.604C221.782 133.598 224.05 135.98 224.536 136.142C225.022 136.305 225.62 135.413 226.455 135.4" stroke="#263238" stroke-linecap="round" stroke-linejoin="round"/>
<path d="M215.458 131.789C215.458 131.789 217.022 131.646 218.156 132.456" stroke="#263238" stroke-linecap="round" stroke-linejoin="round"/>
<path d="M190.087 147.725C190.087 147.725 189.221 145.505 189.657 144.37" stroke="#263238" stroke-linecap="round" stroke-linejoin="round"/>
<path d="M191.763 131.428C191.763 131.428 192.791 132.638 192.847 133.598C192.903 134.559 195.364 135.738 195.364 135.738" stroke="#263238" stroke-linecap="round" stroke-linejoin="round"/>
<path d="M208.255 132.163C208.255 132.163 209.663 131.658 210.424 132.163" stroke="#263238" stroke-linecap="round" stroke-linejoin="round"/>
<path d="M190.087 150.644C190.087 150.644 189.801 148.405 191.763 146.889" stroke="#263238" stroke-linecap="round" stroke-linejoin="round"/>
<path d="M190.573 153.083C190.573 153.083 188.966 154.473 188.966 155.34" stroke="#263238" stroke-linecap="round" stroke-linejoin="round"/>
<path d="M183.177 150.644C185.084 151.355 186.667 154.324 187.819 154.829" stroke="#263238" stroke-linecap="round" stroke-linejoin="round"/>
<path d="M206.28 141.188C207.433 142.848 210.031 154.904 212.623 158.727" stroke="#263238" stroke-linecap="round" stroke-linejoin="round"/>
<path d="M215.944 137.783C216.162 137.927 217.676 142.617 217.676 142.617" stroke="#263238" stroke-linecap="round" stroke-linejoin="round"/>
<path d="M235.302 167.502C235.913 171.438 237.358 174.469 237.358 174.469" stroke="#263238" stroke-linecap="round" stroke-linejoin="round"/>
<path d="M208.853 186.226C208.654 185.434 207.819 180.239 206.797 178.505" stroke="#263238" stroke-linecap="round" stroke-linejoin="round"/>
</g>
<defs>
<clipPath id="clip0_221_14477">
<rect width="268" height="286" fill="white"/>
</clipPath>
</defs>
</svg>
