<svg width="336" height="214" viewBox="0 0 336 214" fill="none" xmlns="http://www.w3.org/2000/svg">
<g clip-path="url(#clip0_221_14063)">
<path d="M329.593 149.201C337.558 90.1992 297.621 35.3353 239.217 23.7624C230.879 22.1091 221.628 20.6995 211.441 19.7056C152.668 13.9717 108.23 68.9216 67.6153 84.6899C27.0049 100.458 8.3697 98.5468 4.5471 149.196C0.724497 199.846 47.0736 215.614 99.6343 205.58C152.195 195.545 148.373 169.265 208.579 190.767C268.785 212.269 296.021 217.048 317.523 184.078C323.706 174.597 327.791 162.552 329.597 149.201H329.593Z" fill="#75A9C8"/>
<path opacity="0.7" d="M329.593 149.201C337.558 90.1992 297.621 35.3353 239.217 23.7624C230.879 22.1091 221.628 20.6995 211.441 19.7056C152.668 13.9717 108.23 68.9216 67.6153 84.6899C27.0049 100.458 8.3697 98.5468 4.5471 149.196C0.724497 199.846 47.0736 215.614 99.6343 205.58C152.195 195.545 148.373 169.265 208.579 190.767C268.785 212.269 296.021 217.048 317.523 184.078C323.706 174.597 327.791 162.552 329.597 149.201H329.593Z" fill="white"/>
<path d="M311.265 146.779L316.473 196.673" stroke="#263238" stroke-width="0.477825" stroke-miterlimit="10"/>
<path d="M315.638 187.127L313.278 184.632" stroke="#263238" stroke-width="0.477825" stroke-miterlimit="10"/>
<path d="M313.994 185.382C313.994 185.382 314.061 184.279 313.053 183.38C312.446 182.84 309.259 181.498 308.953 182.621C308.624 183.844 311.887 186.243 313.99 185.382H313.994Z" fill="#75A9C8" stroke="#263238" stroke-width="0.477825" stroke-miterlimit="10"/>
<path d="M313.994 185.382L310.955 183.49" stroke="#263238" stroke-width="0.238913" stroke-miterlimit="10"/>
<path d="M316.23 192.803L313.865 190.309" stroke="#263238" stroke-width="0.477825" stroke-miterlimit="10"/>
<path d="M314.586 191.054C314.586 191.054 314.653 189.951 313.645 189.052C313.038 188.512 309.851 187.17 309.545 188.292C309.215 189.516 312.479 191.914 314.581 191.054H314.586Z" fill="#75A9C8" stroke="#263238" stroke-width="0.477825" stroke-miterlimit="10"/>
<path d="M314.586 191.054L311.547 189.162" stroke="#263238" stroke-width="0.238913" stroke-miterlimit="10"/>
<path d="M314.19 173.279L311.83 170.785" stroke="#263238" stroke-width="0.477825" stroke-miterlimit="10"/>
<path d="M312.546 171.535C312.546 171.535 312.613 170.432 311.605 169.533C310.998 168.993 307.811 167.651 307.505 168.773C307.176 169.997 310.439 172.395 312.542 171.535H312.546Z" fill="#75A9C8" stroke="#263238" stroke-width="0.477825" stroke-miterlimit="10"/>
<path d="M312.546 171.535L309.512 169.643" stroke="#263238" stroke-width="0.238913" stroke-miterlimit="10"/>
<path d="M314.783 178.956L312.422 176.461" stroke="#263238" stroke-width="0.477825" stroke-miterlimit="10"/>
<path d="M313.139 177.207C313.139 177.207 313.206 176.103 312.198 175.205C311.591 174.665 308.404 173.322 308.098 174.445C307.768 175.668 311.032 178.067 313.134 177.207H313.139Z" fill="#75A9C8" stroke="#263238" stroke-width="0.477825" stroke-miterlimit="10"/>
<path d="M313.139 177.207L310.105 175.314" stroke="#263238" stroke-width="0.238913" stroke-miterlimit="10"/>
<path d="M313.229 164.062L310.868 161.568" stroke="#263238" stroke-width="0.477825" stroke-miterlimit="10"/>
<path d="M311.585 162.313C311.585 162.313 311.652 161.209 310.644 160.311C310.037 159.771 306.85 158.428 306.544 159.551C306.214 160.775 309.478 163.173 311.58 162.313H311.585Z" fill="#75A9C8" stroke="#263238" stroke-width="0.477825" stroke-miterlimit="10"/>
<path d="M311.585 162.313L308.551 160.421" stroke="#263238" stroke-width="0.238913" stroke-miterlimit="10"/>
<path d="M312.265 154.801L309.904 152.307" stroke="#263238" stroke-width="0.955651" stroke-miterlimit="10"/>
<path d="M310.621 153.057C310.621 153.057 310.688 151.953 309.68 151.055C309.073 150.515 305.886 149.173 305.58 150.295C305.25 151.519 308.514 153.917 310.616 153.057H310.621Z" fill="#75A9C8" stroke="#263238" stroke-width="0.477825" stroke-miterlimit="10"/>
<path d="M310.621 153.057L307.582 151.165" stroke="#263238" stroke-width="0.238913" stroke-miterlimit="10"/>
<path d="M315.241 183.767L317.033 180.843" stroke="#263238" stroke-width="0.955651" stroke-miterlimit="10"/>
<path d="M316.488 181.722C316.488 181.722 316.197 180.656 316.995 179.567C317.478 178.912 320.321 176.939 320.846 177.976C321.42 179.103 318.72 182.123 316.488 181.717V181.722Z" fill="#75A9C8" stroke="#263238" stroke-width="0.477825" stroke-miterlimit="10"/>
<path d="M316.489 181.722L319.222 179.108" stroke="#263238" stroke-width="0.238913" stroke-miterlimit="10"/>
<path d="M313.679 168.835L315.475 165.911" stroke="#263238" stroke-width="0.477825" stroke-miterlimit="10"/>
<path d="M314.926 166.79C314.926 166.79 314.634 165.725 315.432 164.635C315.915 163.981 318.758 162.007 319.284 163.044C319.857 164.172 317.157 167.192 314.926 166.785V166.79Z" fill="#75A9C8" stroke="#263238" stroke-width="0.477825" stroke-miterlimit="10"/>
<path d="M314.926 166.79L317.664 164.177" stroke="#263238" stroke-width="0.238913" stroke-miterlimit="10"/>
<path d="M312.996 162.275L314.792 159.346" stroke="#263238" stroke-width="0.477825" stroke-miterlimit="10"/>
<path d="M314.243 160.225C314.243 160.225 313.951 159.159 314.749 158.07C315.232 157.415 318.075 155.442 318.6 156.479C319.174 157.606 316.474 160.626 314.243 160.22V160.225Z" fill="#75A9C8" stroke="#263238" stroke-width="0.477825" stroke-miterlimit="10"/>
<path d="M314.243 160.225L316.976 157.611" stroke="#263238" stroke-width="0.238913" stroke-miterlimit="10"/>
<path d="M311.992 152.651L313.788 149.727" stroke="#263238" stroke-width="0.477825" stroke-miterlimit="10"/>
<path d="M313.239 150.606C313.239 150.606 312.947 149.541 313.745 148.451C314.228 147.797 317.071 145.823 317.596 146.86C318.17 147.988 315.47 151.008 313.239 150.601V150.606Z" fill="#75A9C8" stroke="#263238" stroke-width="0.477825" stroke-miterlimit="10"/>
<path d="M313.239 150.606L315.972 147.993" stroke="#263238" stroke-width="0.238913" stroke-miterlimit="10"/>
<path d="M311.222 146.502C311.222 146.502 310.931 145.436 311.729 144.347C312.211 143.692 315.054 141.719 315.58 142.755C316.153 143.883 313.454 146.903 311.222 146.497V146.502Z" fill="#75A9C8" stroke="#263238" stroke-width="0.477825" stroke-miterlimit="10"/>
<path d="M311.222 146.501L313.955 143.888" stroke="#263238" stroke-width="0.238913" stroke-miterlimit="10"/>
<path d="M311.38 146.616C311.38 146.616 310.29 146.798 309.292 145.885C308.69 145.336 307.027 142.302 308.116 141.886C309.296 141.432 312.02 144.433 311.38 146.612V146.616Z" fill="#75A9C8" stroke="#263238" stroke-width="0.477825" stroke-miterlimit="10"/>
<path d="M311.38 146.617L309.072 143.621" stroke="#263238" stroke-width="0.238913" stroke-miterlimit="10"/>
<path d="M325.002 153.65L319.823 203.549" stroke="#263238" stroke-width="0.477825" stroke-miterlimit="10"/>
<path d="M320.969 194.031L319.173 191.106" stroke="#263238" stroke-width="0.477825" stroke-miterlimit="10"/>
<path d="M319.718 191.986C319.718 191.986 320.009 190.92 319.211 189.831C318.729 189.176 315.886 187.207 315.36 188.244C314.787 189.372 317.486 192.392 319.723 191.986H319.718Z" fill="#75A9C8" stroke="#263238" stroke-width="0.477825" stroke-miterlimit="10"/>
<path d="M319.718 191.985L317.137 189.51" stroke="#263238" stroke-width="0.238913" stroke-miterlimit="10"/>
<path d="M322.403 180.183L320.606 177.259" stroke="#263238" stroke-width="0.477825" stroke-miterlimit="10"/>
<path d="M321.155 178.138C321.155 178.138 321.447 177.072 320.649 175.983C320.166 175.328 317.323 173.36 316.798 174.397C316.224 175.524 318.924 178.544 321.16 178.138H321.155Z" fill="#75A9C8" stroke="#263238" stroke-width="0.477825" stroke-miterlimit="10"/>
<path d="M321.155 178.138L318.575 175.658" stroke="#263238" stroke-width="0.238913" stroke-miterlimit="10"/>
<path d="M321.816 185.86L320.02 182.936" stroke="#263238" stroke-width="0.477825" stroke-miterlimit="10"/>
<path d="M320.569 183.81C320.569 183.81 320.86 182.744 320.062 181.655C319.58 181 316.736 179.032 316.211 180.069C315.637 181.196 318.337 184.216 320.573 183.81H320.569Z" fill="#75A9C8" stroke="#263238" stroke-width="0.477825" stroke-miterlimit="10"/>
<path d="M320.569 183.81L317.989 181.334" stroke="#263238" stroke-width="0.238913" stroke-miterlimit="10"/>
<path d="M323.362 170.966L321.565 168.042" stroke="#263238" stroke-width="0.477825" stroke-miterlimit="10"/>
<path d="M322.111 168.916C322.111 168.916 322.402 167.851 321.604 166.761C321.122 166.107 318.278 164.138 317.753 165.175C317.179 166.303 319.879 169.322 322.115 168.916H322.111Z" fill="#75A9C8" stroke="#263238" stroke-width="0.477825" stroke-miterlimit="10"/>
<path d="M322.111 168.916L319.53 166.441" stroke="#263238" stroke-width="0.238913" stroke-miterlimit="10"/>
<path d="M324.324 161.706L322.528 158.781" stroke="#263238" stroke-width="0.477825" stroke-miterlimit="10"/>
<path d="M323.073 159.66C323.073 159.66 323.364 158.595 322.566 157.505C322.084 156.851 319.241 154.882 318.715 155.919C318.142 157.047 320.841 160.067 323.078 159.66H323.073Z" fill="#75A9C8" stroke="#263238" stroke-width="0.477825" stroke-miterlimit="10"/>
<path d="M323.073 159.661L320.492 157.181" stroke="#263238" stroke-width="0.238913" stroke-miterlimit="10"/>
<path d="M321.271 190.667L323.631 188.173" stroke="#263238" stroke-width="0.477825" stroke-miterlimit="10"/>
<path d="M322.915 188.918C322.915 188.918 322.848 187.814 323.851 186.916C324.458 186.376 327.645 185.033 327.946 186.156C328.276 187.379 325.012 189.778 322.91 188.923L322.915 188.918Z" fill="#75A9C8" stroke="#263238" stroke-width="0.477825" stroke-miterlimit="10"/>
<path d="M322.915 188.918L326.126 186.926" stroke="#263238" stroke-width="0.238913" stroke-miterlimit="10"/>
<path d="M322.818 175.73L325.179 173.236" stroke="#263238" stroke-width="0.477825" stroke-miterlimit="10"/>
<path d="M324.462 173.986C324.462 173.986 324.395 172.882 325.399 171.984C326.005 171.444 329.193 170.101 329.494 171.224C329.823 172.447 326.56 174.846 324.457 173.991L324.462 173.986Z" fill="#75A9C8" stroke="#263238" stroke-width="0.477825" stroke-miterlimit="10"/>
<path d="M324.462 173.986L327.678 171.989" stroke="#263238" stroke-width="0.238913" stroke-miterlimit="10"/>
<path d="M323.501 169.17L325.861 166.675" stroke="#263238" stroke-width="0.955651" stroke-miterlimit="10"/>
<path d="M325.145 167.421C325.145 167.421 325.078 166.317 326.081 165.418C326.688 164.879 329.875 163.536 330.176 164.659C330.506 165.882 327.243 168.281 325.14 167.425L325.145 167.421Z" fill="#75A9C8" stroke="#263238" stroke-width="0.477825" stroke-miterlimit="10"/>
<path d="M325.145 167.421L328.356 165.428" stroke="#263238" stroke-width="0.238913" stroke-miterlimit="10"/>
<path d="M324.5 159.546L326.861 157.052" stroke="#263238" stroke-width="0.477825" stroke-miterlimit="10"/>
<path d="M326.144 157.802C326.144 157.802 326.077 156.698 327.081 155.8C327.688 155.26 330.875 153.917 331.176 155.04C331.505 156.263 328.242 158.662 326.139 157.807L326.144 157.802Z" fill="#75A9C8" stroke="#263238" stroke-width="0.477825" stroke-miterlimit="10"/>
<path d="M326.144 157.802L329.355 155.805" stroke="#263238" stroke-width="0.238913" stroke-miterlimit="10"/>
<path d="M325.016 153.368C325.016 153.368 324.949 152.264 325.952 151.366C326.559 150.826 329.746 149.483 330.047 150.606C330.377 151.829 327.113 154.228 325.011 153.373L325.016 153.368Z" fill="#75A9C8" stroke="#263238" stroke-width="0.477825" stroke-miterlimit="10"/>
<path d="M325.016 153.368L328.227 151.375" stroke="#263238" stroke-width="0.238913" stroke-miterlimit="10"/>
<path d="M325.146 153.511C325.146 153.511 324.042 153.463 323.253 152.369C322.78 151.71 321.777 148.398 322.924 148.217C324.171 148.016 326.221 151.514 325.146 153.516V153.511Z" fill="#75A9C8" stroke="#263238" stroke-width="0.477825" stroke-miterlimit="10"/>
<path d="M325.146 153.511L323.502 150.109" stroke="#263238" stroke-width="0.238913" stroke-miterlimit="10"/>
<path d="M319.068 133.333V196.434" stroke="#263238" stroke-width="0.477825" stroke-miterlimit="10"/>
<path d="M319.12 186.944L317.027 184.221" stroke="#263238" stroke-width="0.477825" stroke-miterlimit="10"/>
<path d="M317.663 185.038C317.663 185.038 317.845 183.948 316.937 182.95C316.392 182.348 313.358 180.685 312.942 181.77C312.488 182.95 315.484 185.673 317.663 185.038Z" fill="#75A9C8" stroke="#263238" stroke-width="0.477825" stroke-miterlimit="10"/>
<path d="M317.663 185.038L314.844 182.84" stroke="#263238" stroke-width="0.238913" stroke-miterlimit="10"/>
<path d="M319.12 175.085L317.027 172.361" stroke="#263238" stroke-width="0.477825" stroke-miterlimit="10"/>
<path d="M317.663 173.179C317.663 173.179 317.845 172.089 316.937 171.09C316.392 170.488 313.358 168.826 312.942 169.91C312.488 171.09 315.484 173.814 317.663 173.179Z" fill="#75A9C8" stroke="#263238" stroke-width="0.477825" stroke-miterlimit="10"/>
<path d="M317.663 173.178L314.844 170.98" stroke="#263238" stroke-width="0.477825" stroke-miterlimit="10"/>
<path d="M319.12 161.161L317.027 158.438" stroke="#263238" stroke-width="0.477825" stroke-miterlimit="10"/>
<path d="M317.663 159.255C317.663 159.255 317.845 158.165 316.937 157.167C316.392 156.565 313.358 154.902 312.942 155.986C312.488 157.167 315.484 159.89 317.663 159.255Z" fill="#75A9C8" stroke="#263238" stroke-width="0.477825" stroke-miterlimit="10"/>
<path d="M317.663 159.255L314.844 157.062" stroke="#263238" stroke-width="0.238913" stroke-miterlimit="10"/>
<path d="M319.12 151.896L317.027 149.172" stroke="#263238" stroke-width="0.477825" stroke-miterlimit="10"/>
<path d="M317.663 149.99C317.663 149.99 317.845 148.9 316.937 147.901C316.392 147.299 313.358 145.637 312.942 146.721C312.488 147.901 315.484 150.625 317.663 149.99Z" fill="#75A9C8" stroke="#263238" stroke-width="0.477825" stroke-miterlimit="10"/>
<path d="M317.663 149.99L314.844 147.792" stroke="#263238" stroke-width="0.238913" stroke-miterlimit="10"/>
<path d="M319.12 142.588L317.027 139.86" stroke="#263238" stroke-width="0.477825" stroke-miterlimit="10"/>
<path d="M317.663 140.681C317.663 140.681 317.845 139.592 316.937 138.593C316.392 137.991 313.358 136.328 312.942 137.413C312.488 138.593 315.484 141.317 317.663 140.681Z" fill="#75A9C8" stroke="#263238" stroke-width="0.477825" stroke-miterlimit="10"/>
<path d="M317.663 140.681L314.844 138.483" stroke="#263238" stroke-width="0.477825" stroke-miterlimit="10"/>
<path d="M319.073 190.567L321.161 187.838" stroke="#263238" stroke-width="0.477825" stroke-miterlimit="10"/>
<path d="M320.525 188.66C320.525 188.66 320.344 187.571 321.251 186.572C321.796 185.97 324.83 184.307 325.246 185.392C325.7 186.572 322.704 189.295 320.525 188.66Z" fill="#75A9C8" stroke="#263238" stroke-width="0.477825" stroke-miterlimit="10"/>
<path d="M320.526 188.66L323.517 186.343" stroke="#263238" stroke-width="0.238913" stroke-miterlimit="10"/>
<path d="M319.073 171.707L321.161 168.979" stroke="#263238" stroke-width="0.477825" stroke-miterlimit="10"/>
<path d="M320.525 169.8C320.525 169.8 320.344 168.711 321.251 167.712C321.796 167.11 324.83 165.447 325.246 166.532C325.7 167.712 322.704 170.436 320.525 169.8Z" fill="#75A9C8" stroke="#263238" stroke-width="0.477825" stroke-miterlimit="10"/>
<path d="M320.526 169.8L323.517 167.483" stroke="#263238" stroke-width="0.238913" stroke-miterlimit="10"/>
<path d="M319.073 162.398L321.161 159.67" stroke="#263238" stroke-width="0.477825" stroke-miterlimit="10"/>
<path d="M320.525 160.487C320.525 160.487 320.344 159.398 321.251 158.399C321.796 157.797 324.83 156.134 325.246 157.219C325.7 158.399 322.704 161.123 320.525 160.487Z" fill="#75A9C8" stroke="#263238" stroke-width="0.477825" stroke-miterlimit="10"/>
<path d="M320.526 160.487L323.517 158.174" stroke="#263238" stroke-width="0.238913" stroke-miterlimit="10"/>
<path d="M319.073 150.095L321.161 147.366" stroke="#263238" stroke-width="0.477825" stroke-miterlimit="10"/>
<path d="M320.525 148.183C320.525 148.183 320.344 147.094 321.251 146.095C321.796 145.493 324.83 143.83 325.246 144.915C325.7 146.095 322.704 148.819 320.525 148.183Z" fill="#75A9C8" stroke="#263238" stroke-width="0.477825" stroke-miterlimit="10"/>
<path d="M320.526 148.183L323.517 145.871" stroke="#263238" stroke-width="0.238913" stroke-miterlimit="10"/>
<path d="M319.073 140.418L321.161 137.695" stroke="#263238" stroke-width="0.477825" stroke-miterlimit="10"/>
<path d="M320.525 138.512C320.525 138.512 320.343 137.423 321.251 136.424C321.796 135.822 324.83 134.159 325.246 135.244C325.7 136.424 322.704 139.148 320.525 138.512Z" fill="#75A9C8" stroke="#263238" stroke-width="0.477825" stroke-miterlimit="10"/>
<path d="M320.526 138.512L323.517 136.199" stroke="#263238" stroke-width="0.238913" stroke-miterlimit="10"/>
<path d="M318.948 134.221C318.948 134.221 318.767 133.132 319.674 132.133C320.219 131.531 323.253 129.868 323.669 130.953C324.123 132.133 321.127 134.857 318.948 134.221Z" fill="#75A9C8" stroke="#263238" stroke-width="0.477825" stroke-miterlimit="10"/>
<path d="M318.948 134.221L321.934 131.909" stroke="#263238" stroke-width="0.238913" stroke-miterlimit="10"/>
<path d="M319.091 134.35C319.091 134.35 317.988 134.417 317.089 133.409C316.549 132.802 315.212 129.61 316.334 129.309C317.558 128.98 319.952 132.248 319.091 134.35Z" fill="#75A9C8" stroke="#263238" stroke-width="0.477825" stroke-miterlimit="10"/>
<path d="M319.092 134.35L317.104 131.134" stroke="#263238" stroke-width="0.238913" stroke-miterlimit="10"/>
<path d="M321.662 212.8H314.982L314.146 195.923H322.499L321.662 212.8Z" fill="#263238" stroke="#263238" stroke-width="0.477825" stroke-miterlimit="10"/>
<path d="M61.5269 13.5464H17.2803V43.4869H61.5269V13.5464Z" stroke="#B2B2B2" stroke-width="0.477825" stroke-linecap="round" stroke-linejoin="round"/>
<path d="M108.397 13.5464H64.1501V43.4869H108.397V13.5464Z" stroke="#B2B2B2" stroke-width="0.477825" stroke-linecap="round" stroke-linejoin="round"/>
<path d="M172.933 13.5464H128.686V43.4869H172.933V13.5464Z" stroke="#B2B2B2" stroke-width="0.477825" stroke-linecap="round" stroke-linejoin="round"/>
<path d="M219.808 13.5464H175.561V43.4869H219.808V13.5464Z" stroke="#B2B2B2" stroke-width="0.477825" stroke-linecap="round" stroke-linejoin="round"/>
<path d="M284.342 13.5464H240.096V43.4869H284.342V13.5464Z" stroke="#B2B2B2" stroke-width="0.477825" stroke-linecap="round" stroke-linejoin="round"/>
<path d="M331.212 13.5464H286.966V43.4869H331.212V13.5464Z" stroke="#B2B2B2" stroke-width="0.477825" stroke-linecap="round" stroke-linejoin="round"/>
<path d="M224.624 169.748H190.288V206.488H224.624V169.748Z" fill="white" stroke="#B2B2B2" stroke-width="0.477825" stroke-linecap="round" stroke-linejoin="round"/>
<path d="M196.108 169.748H192.988V183.112H196.108V169.748Z" fill="#B2B2B2" stroke="#B2B2B2" stroke-width="0.477825" stroke-miterlimit="10"/>
<path d="M258.933 169.748H224.597V206.488H258.933V169.748Z" fill="white" stroke="#B2B2B2" stroke-width="0.477825" stroke-linecap="round" stroke-linejoin="round"/>
<path d="M230.417 169.748H227.297V183.112H230.417V169.748Z" fill="#B2B2B2" stroke="#B2B2B2" stroke-width="0.477825" stroke-miterlimit="10"/>
<path d="M224.624 132.764H190.288V169.504H224.624V132.764Z" fill="white" stroke="#B2B2B2" stroke-width="0.477825" stroke-linecap="round" stroke-linejoin="round"/>
<path d="M196.108 132.764H192.988V146.128H196.108V132.764Z" fill="#B2B2B2" stroke="#B2B2B2" stroke-width="0.477825" stroke-miterlimit="10"/>
<path d="M258.933 132.764H224.597V169.504H258.933V132.764Z" fill="white" stroke="#B2B2B2" stroke-width="0.477825" stroke-linecap="round" stroke-linejoin="round"/>
<path d="M230.417 132.764H227.297V146.128H230.417V132.764Z" fill="#B2B2B2" stroke="#B2B2B2" stroke-width="0.477825" stroke-miterlimit="10"/>
<path d="M262.487 211.041H188.974V212.795H262.487V211.041Z" fill="white" stroke="#B2B2B2" stroke-width="0.477825" stroke-linecap="round" stroke-linejoin="round"/>
<path d="M262.487 204.676H188.974V206.43H262.487V204.676Z" fill="white" stroke="#B2B2B2" stroke-width="0.477825" stroke-linecap="round" stroke-linejoin="round"/>
<path d="M195.994 206.482H190.289V210.936H195.994V206.482Z" fill="white" stroke="#B2B2B2" stroke-width="0.477825" stroke-linecap="round" stroke-linejoin="round"/>
<path d="M227.64 206.482H221.934V210.936H227.64V206.482Z" fill="white" stroke="#B2B2B2" stroke-width="0.477825" stroke-linecap="round" stroke-linejoin="round"/>
<path d="M259.286 206.482H253.58V210.936H259.286V206.482Z" fill="white" stroke="#B2B2B2" stroke-width="0.477825" stroke-linecap="round" stroke-linejoin="round"/>
<path d="M149.606 169.748H115.27V206.488H149.606V169.748Z" fill="white" stroke="#B2B2B2" stroke-width="0.477825" stroke-linecap="round" stroke-linejoin="round"/>
<path d="M121.09 169.748H117.97V183.112H121.09V169.748Z" fill="#B2B2B2" stroke="#B2B2B2" stroke-width="0.477825" stroke-miterlimit="10"/>
<path d="M183.914 169.748H149.577V206.488H183.914V169.748Z" fill="white" stroke="#B2B2B2" stroke-width="0.477825" stroke-linecap="round" stroke-linejoin="round"/>
<path d="M155.397 169.748H152.277V183.112H155.397V169.748Z" fill="#B2B2B2" stroke="#B2B2B2" stroke-width="0.477825" stroke-miterlimit="10"/>
<path d="M149.606 132.764H115.27V169.504H149.606V132.764Z" fill="white" stroke="#B2B2B2" stroke-width="0.477825" stroke-linecap="round" stroke-linejoin="round"/>
<path d="M121.09 132.764H117.97V146.128H121.09V132.764Z" fill="#B2B2B2" stroke="#B2B2B2" stroke-width="0.477825" stroke-miterlimit="10"/>
<path d="M183.914 132.764H149.577V169.504H183.914V132.764Z" fill="white" stroke="#B2B2B2" stroke-width="0.477825" stroke-linecap="round" stroke-linejoin="round"/>
<path d="M155.397 132.764H152.277V146.128H155.397V132.764Z" fill="#B2B2B2" stroke="#B2B2B2" stroke-width="0.477825" stroke-miterlimit="10"/>
<path d="M187.469 211.041H113.955V212.795H187.469V211.041Z" fill="white" stroke="#B2B2B2" stroke-width="0.477825" stroke-linecap="round" stroke-linejoin="round"/>
<path d="M187.469 204.676H113.955V206.43H187.469V204.676Z" fill="white" stroke="#B2B2B2" stroke-width="0.477825" stroke-linecap="round" stroke-linejoin="round"/>
<path d="M120.974 206.482H115.269V210.936H120.974V206.482Z" fill="white" stroke="#B2B2B2" stroke-width="0.477825" stroke-linecap="round" stroke-linejoin="round"/>
<path d="M152.621 206.482H146.916V210.936H152.621V206.482Z" fill="white" stroke="#B2B2B2" stroke-width="0.477825" stroke-linecap="round" stroke-linejoin="round"/>
<path d="M184.267 206.482H178.562V210.936H184.267V206.482Z" fill="white" stroke="#B2B2B2" stroke-width="0.477825" stroke-linecap="round" stroke-linejoin="round"/>
<path d="M74.5892 169.747H40.2527V206.487H74.5892V169.747Z" fill="white" stroke="#B2B2B2" stroke-width="0.477825" stroke-linecap="round" stroke-linejoin="round"/>
<path d="M46.0728 169.747H42.9526V183.112H46.0728V169.747Z" fill="#B2B2B2" stroke="#B2B2B2" stroke-width="0.477825" stroke-miterlimit="10"/>
<path d="M108.897 169.747H74.5608V206.487H108.897V169.747Z" fill="white" stroke="#B2B2B2" stroke-width="0.477825" stroke-linecap="round" stroke-linejoin="round"/>
<path d="M80.3809 169.747H77.2607V183.112H80.3809V169.747Z" fill="#B2B2B2" stroke="#B2B2B2" stroke-width="0.477825" stroke-miterlimit="10"/>
<path d="M74.5892 132.764H40.2527V169.504H74.5892V132.764Z" fill="white" stroke="#B2B2B2" stroke-width="0.477825" stroke-linecap="round" stroke-linejoin="round"/>
<path d="M46.0728 132.764H42.9526V146.128H46.0728V132.764Z" fill="#B2B2B2" stroke="#B2B2B2" stroke-width="0.477825" stroke-miterlimit="10"/>
<path d="M108.897 132.764H74.5608V169.504H108.897V132.764Z" fill="white" stroke="#B2B2B2" stroke-width="0.477825" stroke-linecap="round" stroke-linejoin="round"/>
<path d="M80.3809 132.764H77.2607V146.128H80.3809V132.764Z" fill="#B2B2B2" stroke="#B2B2B2" stroke-width="0.477825" stroke-miterlimit="10"/>
<path d="M74.5892 96.4487H40.2527V133.189H74.5892V96.4487Z" fill="white" stroke="#B2B2B2" stroke-width="0.477825" stroke-linecap="round" stroke-linejoin="round"/>
<path d="M46.0728 96.4487H42.9526V109.814H46.0728V96.4487Z" fill="#B2B2B2" stroke="#B2B2B2" stroke-width="0.477825" stroke-miterlimit="10"/>
<path d="M108.897 96.4487H74.5608V133.189H108.897V96.4487Z" fill="white" stroke="#B2B2B2" stroke-width="0.477825" stroke-linecap="round" stroke-linejoin="round"/>
<path d="M80.3809 96.4487H77.2607V109.814H80.3809V96.4487Z" fill="#B2B2B2" stroke="#B2B2B2" stroke-width="0.477825" stroke-miterlimit="10"/>
<path d="M112.452 211.041H38.939V212.795H112.452V211.041Z" fill="white" stroke="#B2B2B2" stroke-width="0.477825" stroke-linecap="round" stroke-linejoin="round"/>
<path d="M112.452 204.676H38.939V206.43H112.452V204.676Z" fill="white" stroke="#B2B2B2" stroke-width="0.477825" stroke-linecap="round" stroke-linejoin="round"/>
<path d="M45.9577 206.482H40.2524V210.936H45.9577V206.482Z" fill="white" stroke="#B2B2B2" stroke-width="0.477825" stroke-linecap="round" stroke-linejoin="round"/>
<path d="M77.6047 206.482H71.8994V210.936H77.6047V206.482Z" fill="white" stroke="#B2B2B2" stroke-width="0.477825" stroke-linecap="round" stroke-linejoin="round"/>
<path d="M109.251 206.482H103.545V210.936H109.251V206.482Z" fill="white" stroke="#B2B2B2" stroke-width="0.477825" stroke-linecap="round" stroke-linejoin="round"/>
<path d="M309.434 0.23877H178.949V102.336H309.434V0.23877Z" fill="#E8E8E8" stroke="#263238" stroke-width="0.477825" stroke-linecap="round" stroke-linejoin="round"/>
<path d="M309.434 0.23877H178.949V4.85934H309.434V0.23877Z" fill="#263238" stroke="#263238" stroke-width="0.477825" stroke-linecap="round" stroke-linejoin="round"/>
<path d="M298.883 2.34614C298.883 1.69152 298.353 1.16113 297.698 1.16113C297.044 1.16113 296.513 1.69152 296.513 2.34614C296.513 3.00076 297.044 3.53115 297.698 3.53115C298.353 3.53115 298.883 3.00076 298.883 2.34614Z" fill="white" stroke="#263238" stroke-width="0.477825" stroke-linecap="round" stroke-linejoin="round"/>
<path d="M303.003 2.34614C303.003 1.69152 302.472 1.16113 301.818 1.16113C301.163 1.16113 300.633 1.69152 300.633 2.34614C300.633 3.00076 301.163 3.53115 301.818 3.53115C302.472 3.53115 303.003 3.00076 303.003 2.34614Z" fill="white" stroke="#263238" stroke-width="0.477825" stroke-linecap="round" stroke-linejoin="round"/>
<path d="M307.116 2.34614C307.116 1.69152 306.586 1.16113 305.931 1.16113C305.276 1.16113 304.746 1.69152 304.746 2.34614C304.746 3.00076 305.276 3.53115 305.931 3.53115C306.586 3.53115 307.116 3.00076 307.116 2.34614Z" fill="white" stroke="#263238" stroke-width="0.477825" stroke-linecap="round" stroke-linejoin="round"/>
<path d="M187.212 17.6599H186.519V10.7075H187.504L189.114 15.7295V10.7075H189.797V17.6599H188.994L187.217 12.0407V17.6599H187.212Z" fill="#263238"/>
<path d="M193.06 13.7851V14.4779H191.364V16.9483H193.447V17.6555H190.59V10.7031H193.447V11.4055H191.364V13.7803H193.06V13.7851Z" fill="#263238"/>
<path d="M196.013 17.6599H194.953L193.997 10.7075H194.752L195.564 16.623L196.338 10.7171H197.103L197.867 16.6326L198.651 10.7075H199.325L198.384 17.6599H197.361L196.697 12.9437L196.013 17.6599Z" fill="#263238"/>
<path d="M203.965 13.7851V14.4779H202.269V16.9483H204.352V17.6555H201.495V10.7031H204.352V11.4055H202.269V13.7803H203.965V13.7851Z" fill="#263238"/>
<path d="M205.756 17.6599H205.063V10.7075H206.047L207.658 15.7295V10.7075H208.341V17.6599H207.538L205.761 12.0407V17.6599H205.756Z" fill="#263238"/>
<path d="M210.133 17.66V11.4148H208.853V10.7124H212.178V11.4148H210.898V17.66H210.133Z" fill="#263238"/>
<path d="M214.256 10.7077C215.35 10.7077 215.804 11.262 215.804 12.2941V12.8579C215.804 13.6224 215.537 14.1003 214.939 14.2866C215.575 14.473 215.814 14.9938 215.814 15.7344V16.8143C215.814 17.1201 215.823 17.4116 215.952 17.6505H215.169C215.078 17.4498 215.04 17.273 215.04 16.8047V15.7105C215.04 14.9269 214.672 14.6784 214.027 14.6784H213.482V17.6457H212.708V10.6934H214.256V10.7077ZM214.055 13.9856C214.672 13.9856 215.04 13.7849 215.04 13.0347V12.3705C215.04 11.7446 214.81 11.4197 214.237 11.4197H213.482V13.9904H214.055V13.9856Z" fill="#263238"/>
<path d="M217.396 10.7075V17.6599H216.622V10.7075H217.396Z" fill="#263238"/>
<path d="M220.661 13.7851V14.4779H218.964V16.9483H221.048V17.6555H218.19V10.7031H221.048V11.4055H218.964V13.7803H220.661V13.7851Z" fill="#263238"/>
<path d="M224.774 12.3754V12.5618H224.038V12.3324C224.038 11.7065 223.799 11.3385 223.245 11.3385C222.691 11.3385 222.452 11.7065 222.452 12.3228C222.452 13.8806 224.784 14.0287 224.784 15.9878C224.784 17.039 224.277 17.7271 223.216 17.7271C222.156 17.7271 221.659 17.0438 221.659 15.9878V15.5912H222.385V16.026C222.385 16.6519 222.643 17.0199 223.197 17.0199C223.752 17.0199 224.01 16.6519 224.01 16.026C224.01 14.4778 221.687 14.3297 221.687 12.3706C221.687 11.3003 222.184 10.6313 223.226 10.6313C224.268 10.6313 224.774 11.3146 224.774 12.3706V12.3754Z" fill="#263238"/>
<path d="M230.062 21.3252H187.727C186.806 21.3252 186.059 22.0718 186.059 22.9928V28.9895C186.059 29.9105 186.806 30.6571 187.727 30.6571H230.062C230.983 30.6571 231.73 29.9105 231.73 28.9895V22.9928C231.73 22.0718 230.983 21.3252 230.062 21.3252Z" fill="#D9D9D9" stroke="#263238" stroke-width="0.477825" stroke-linecap="round" stroke-linejoin="round"/>
<path d="M209.095 89.5015H187.187C186.564 89.5015 186.059 90.0063 186.059 90.6291V96.4634C186.059 97.0862 186.564 97.5911 187.187 97.5911H209.095C209.718 97.5911 210.223 97.0862 210.223 96.4634V90.6291C210.223 90.0063 209.718 89.5015 209.095 89.5015Z" fill="#D9D9D9" stroke="#263238" stroke-width="0.477825" stroke-linecap="round" stroke-linejoin="round"/>
<path d="M238.974 89.5015H217.066C216.443 89.5015 215.938 90.0063 215.938 90.6291V96.4634C215.938 97.0862 216.443 97.5911 217.066 97.5911H238.974C239.597 97.5911 240.102 97.0862 240.102 96.4634V90.6291C240.102 90.0063 239.597 89.5015 238.974 89.5015Z" fill="#263238" stroke="#263238" stroke-width="0.477825" stroke-linecap="round" stroke-linejoin="round"/>
<path d="M301.397 36.7495H187.727C186.806 36.7495 186.059 37.4961 186.059 38.4171V44.4138C186.059 45.3348 186.806 46.0814 187.727 46.0814H301.397C302.318 46.0814 303.064 45.3348 303.064 44.4138V38.4171C303.064 37.4961 302.318 36.7495 301.397 36.7495Z" fill="#D9D9D9" stroke="#263238" stroke-width="0.477825" stroke-linecap="round" stroke-linejoin="round"/>
<path d="M303.065 50.3438H270.013V83.199H303.065V50.3438Z" fill="white" stroke="#263238" stroke-width="0.477825" stroke-linecap="round" stroke-linejoin="round"/>
<path d="M267.146 50.3438H186.059V83.199H267.146V50.3438Z" fill="white" stroke="#263238" stroke-width="0.477825" stroke-linecap="round" stroke-linejoin="round"/>
<path d="M272.279 55.6763H299.065" stroke="#263238" stroke-width="0.477825" stroke-linecap="round" stroke-linejoin="round"/>
<path d="M189.061 55.6763H265.054" stroke="#263238" stroke-width="0.477825" stroke-linecap="round" stroke-linejoin="round"/>
<path d="M272.493 62.6812H299.065" stroke="#263238" stroke-width="0.477825" stroke-linecap="round" stroke-linejoin="round"/>
<path d="M189.061 62.6812H265.264" stroke="#263238" stroke-width="0.477825" stroke-linecap="round" stroke-linejoin="round"/>
<path d="M272.493 69.6812H299.065" stroke="#263238" stroke-width="0.477825" stroke-linecap="round" stroke-linejoin="round"/>
<path d="M189.061 69.6812H265.264" stroke="#263238" stroke-width="0.477825" stroke-linecap="round" stroke-linejoin="round"/>
<path d="M272.493 76.6812H299.065" stroke="#263238" stroke-width="0.477825" stroke-linecap="round" stroke-linejoin="round"/>
<path d="M189.061 76.6812H265.264" stroke="#263238" stroke-width="0.477825" stroke-linecap="round" stroke-linejoin="round"/>
<path d="M270.414 23.2987C271.04 23.2987 271.327 23.6762 271.327 24.2974V26.3186C271.327 26.9302 271.04 27.3077 270.414 27.3077H269.473V23.2939H270.414V23.2987ZM270.409 26.9015C270.73 26.9015 270.887 26.7008 270.887 26.3329V24.2687C270.887 23.9008 270.734 23.7001 270.405 23.7001H269.922V26.8967H270.409V26.9015Z" fill="#263238"/>
<path d="M272.192 26.5002L272.039 27.3077H271.628L272.397 23.2939H273.047L273.816 27.3077H273.367L273.214 26.5002H272.201H272.192ZM272.249 26.1179H273.143L272.689 23.8004L272.249 26.1179Z" fill="#263238"/>
<path d="M274.744 27.3078V23.705H274.003V23.2988H275.929V23.705H275.188V27.3078H274.739H274.744Z" fill="#263238"/>
<path d="M277.667 25.0763V25.4777H276.688V26.9064H277.892V27.3126H276.243V23.2988H277.892V23.705H276.688V25.0763H277.667Z" fill="#263238"/>
<path d="M286.542 22.625H280.234V28.9323H286.542V22.625Z" fill="white" stroke="#263238" stroke-width="0.477825" stroke-linecap="round" stroke-linejoin="round"/>
<path d="M295.008 22.625H288.701V28.9323H295.008V22.625Z" fill="white" stroke="#263238" stroke-width="0.477825" stroke-linecap="round" stroke-linejoin="round"/>
<path d="M303.475 22.625H297.168V28.9323H303.475V22.625Z" fill="white" stroke="#263238" stroke-width="0.477825" stroke-linecap="round" stroke-linejoin="round"/>
<path d="M220.941 106.01H243.113L264.758 130.451L249.979 106.01H274.611" stroke="#263238" stroke-width="0.477825" stroke-linecap="round" stroke-linejoin="round"/>
<path d="M217.076 106.01H218.911" stroke="#263238" stroke-width="0.477825" stroke-linecap="round" stroke-linejoin="round"/>
<path d="M272.817 204.6C272.817 204.6 270.553 208.236 269.907 208.805C269.262 209.369 267.643 210.582 266.998 211.227C266.352 211.872 267.16 212.68 267.886 212.761C268.613 212.842 277.424 212.761 277.424 212.761C277.424 212.761 278.394 212.599 278.475 212.116C278.556 211.634 278.958 210.176 278.394 208.881C277.83 207.586 277.83 206.134 277.83 206.134L277.992 205.728L277.83 204.758L272.817 204.595V204.6Z" fill="white" stroke="#263238" stroke-width="0.477825" stroke-linecap="round" stroke-linejoin="round"/>
<path d="M267.891 212.761C268.617 212.842 277.428 212.761 277.428 212.761C277.428 212.761 278.398 212.599 278.48 212.116C278.532 211.806 278.714 211.094 278.69 210.286C277.357 210.683 276.005 211.227 276.005 211.227H266.998C266.352 211.873 267.16 212.685 267.886 212.761H267.891Z" fill="white" stroke="#263238" stroke-width="0.477825" stroke-linecap="round" stroke-linejoin="round"/>
<path d="M276.42 210.401L275.799 212.589" stroke="#263238" stroke-width="0.477825" stroke-linecap="round" stroke-linejoin="round"/>
<path d="M273.821 209.411C273.773 209.411 273.721 209.402 273.673 209.378C271.996 208.633 270.902 209.144 270.859 209.163C270.682 209.249 270.462 209.177 270.376 208.996C270.29 208.819 270.362 208.604 270.538 208.513C270.596 208.484 271.962 207.825 273.969 208.714C274.151 208.795 274.232 209.01 274.151 209.192C274.089 209.325 273.96 209.407 273.821 209.407V209.411Z" fill="white" stroke="#263238" stroke-width="0.477825" stroke-linecap="round" stroke-linejoin="round"/>
<path d="M274.131 208.475C274.083 208.475 274.031 208.466 273.983 208.442C272.306 207.697 271.212 208.208 271.169 208.227C270.987 208.313 270.772 208.236 270.686 208.06C270.6 207.883 270.672 207.668 270.848 207.577C270.906 207.548 272.272 206.889 274.279 207.778C274.461 207.859 274.542 208.074 274.461 208.256C274.399 208.389 274.27 208.471 274.131 208.471V208.475Z" fill="white" stroke="#263238" stroke-width="0.477825" stroke-linecap="round" stroke-linejoin="round"/>
<path d="M274.442 207.538C274.394 207.538 274.342 207.529 274.294 207.505C272.617 206.76 271.522 207.271 271.479 207.29C271.303 207.376 271.083 207.304 270.997 207.123C270.911 206.946 270.982 206.731 271.159 206.64C271.217 206.611 272.583 205.952 274.59 206.841C274.772 206.922 274.853 207.137 274.772 207.319C274.709 207.452 274.58 207.534 274.442 207.534V207.538Z" fill="white" stroke="#263238" stroke-width="0.477825" stroke-linecap="round" stroke-linejoin="round"/>
<path d="M297.368 204.6C297.368 204.6 299.633 208.236 300.278 208.805C300.923 209.369 302.543 210.582 303.188 211.227C303.833 211.872 303.026 212.68 302.299 212.761C301.573 212.842 292.762 212.761 292.762 212.761C292.762 212.761 291.792 212.599 291.711 212.116C291.629 211.634 291.228 210.176 291.792 208.881C292.356 207.586 292.356 206.134 292.356 206.134L292.193 205.728L292.356 204.758L297.368 204.595V204.6Z" fill="white" stroke="#263238" stroke-width="0.477825" stroke-linecap="round" stroke-linejoin="round"/>
<path d="M302.294 212.761C301.568 212.842 292.757 212.761 292.757 212.761C292.757 212.761 291.787 212.599 291.706 212.116C291.653 211.806 291.471 211.094 291.495 210.286C292.828 210.683 294.181 211.227 294.181 211.227H303.188C303.833 211.873 303.025 212.685 302.299 212.761H302.294Z" fill="white" stroke="#263238" stroke-width="0.477825" stroke-linecap="round" stroke-linejoin="round"/>
<path d="M293.766 210.401L294.392 212.589" stroke="#263238" stroke-width="0.477825" stroke-linecap="round" stroke-linejoin="round"/>
<path d="M296.365 209.411C296.413 209.411 296.465 209.402 296.513 209.378C298.19 208.633 299.284 209.144 299.327 209.163C299.504 209.249 299.724 209.177 299.81 208.996C299.896 208.819 299.824 208.604 299.648 208.513C299.59 208.484 298.224 207.825 296.217 208.714C296.035 208.795 295.954 209.01 296.035 209.192C296.097 209.325 296.226 209.407 296.365 209.407V209.411Z" fill="white" stroke="#263238" stroke-width="0.477825" stroke-linecap="round" stroke-linejoin="round"/>
<path d="M296.054 208.475C296.102 208.475 296.154 208.466 296.202 208.442C297.879 207.697 298.974 208.208 299.017 208.227C299.198 208.313 299.413 208.236 299.499 208.06C299.585 207.883 299.514 207.668 299.337 207.577C299.279 207.548 297.913 206.889 295.906 207.778C295.724 207.859 295.643 208.074 295.724 208.256C295.786 208.389 295.916 208.471 296.054 208.471V208.475Z" fill="white" stroke="#263238" stroke-width="0.477825" stroke-linecap="round" stroke-linejoin="round"/>
<path d="M295.743 207.538C295.791 207.538 295.843 207.529 295.891 207.505C297.568 206.76 298.663 207.271 298.706 207.29C298.882 207.376 299.102 207.304 299.188 207.123C299.274 206.946 299.202 206.731 299.026 206.64C298.968 206.611 297.602 205.952 295.595 206.841C295.413 206.922 295.332 207.137 295.413 207.319C295.475 207.452 295.604 207.534 295.743 207.534V207.538Z" fill="white" stroke="#263238" stroke-width="0.477825" stroke-linecap="round" stroke-linejoin="round"/>
<path d="M298.614 202.368C298.548 202.125 298.476 201.881 298.414 201.647C297.75 199.258 297.578 196.764 297.406 194.288C296.292 178.214 295.174 162.136 294.061 146.062C294.099 146.606 278.202 146.272 276.778 146.253C273.538 146.2 273.744 147.079 273.662 150.219C273.581 153.425 273.505 156.631 273.443 159.837C273.199 172.132 273.089 184.426 273.122 196.721C273.122 197.724 273.122 198.747 272.85 199.712C272.63 200.481 272.243 201.188 272 201.948C271.593 203.229 271.617 204.648 272.081 205.914C274.178 205.847 276.286 206.229 278.221 207.032C279.415 204.7 279.736 202.034 280.032 199.43C281.465 186.873 282.899 174.315 284.327 161.758L289.851 193.505C290.195 195.483 290.539 197.461 290.883 199.439C291.323 201.967 291.762 204.5 292.245 207.022C294.281 206.272 296.445 205.876 298.614 205.847C299.207 204.81 298.939 203.558 298.614 202.373V202.368Z" fill="#263238" stroke="#263238" stroke-width="0.477825" stroke-linecap="round" stroke-linejoin="round"/>
<path d="M290.346 147.39H277.258V148.804H290.346V147.39Z" fill="#575757" stroke="#263238" stroke-width="0.477825" stroke-linecap="round" stroke-linejoin="round"/>
<path d="M294.063 147.39H291.536V148.804H294.063V147.39Z" fill="#575757" stroke="#263238" stroke-width="0.477825" stroke-linecap="round" stroke-linejoin="round"/>
<path d="M276.068 147.39H274.061V148.804H276.068V147.39Z" fill="#575757" stroke="#263238" stroke-width="0.477825" stroke-linecap="round" stroke-linejoin="round"/>
<path d="M285.585 147.542H282.312V148.732H285.585V147.542Z" fill="white" stroke="#263238" stroke-width="0.477825" stroke-linecap="round" stroke-linejoin="round"/>
<path d="M269.52 121.377C269.52 121.377 263.49 142.344 263.232 142.87C262.969 143.396 264.541 143.133 266.027 143.396C267.513 143.658 269.611 142.521 269.873 142.086C270.136 141.652 272.32 134.833 272.32 134.833L269.525 121.377H269.52Z" fill="white" stroke="#263238" stroke-width="0.477825" stroke-linecap="round" stroke-linejoin="round"/>
<path d="M269.793 128.177L269.544 127.57" stroke="#263238" stroke-width="0.477825" stroke-linecap="round" stroke-linejoin="round"/>
<path d="M271.771 132.96L270.084 128.875" stroke="#263238" stroke-width="0.477825" stroke-linecap="round" stroke-linejoin="round"/>
<path d="M269.649 139.33C269.936 139.535 270.127 139.674 270.127 139.674L269.649 139.33Z" fill="white"/>
<path d="M269.649 139.33C269.936 139.535 270.127 139.674 270.127 139.674" stroke="#263238" stroke-width="0.477825" stroke-linecap="round" stroke-linejoin="round"/>
<path d="M265.196 138.379C265.196 138.379 266.84 137.791 267.193 137.791C267.394 137.791 268.335 138.412 269.095 138.938" fill="white"/>
<path d="M265.196 138.379C265.196 138.379 266.84 137.791 267.193 137.791C267.394 137.791 268.335 138.412 269.095 138.938" stroke="#263238" stroke-width="0.477825" stroke-linecap="round" stroke-linejoin="round"/>
<path d="M297.478 120.159C297.478 120.159 304.382 138.594 304.554 139.291C304.731 139.989 304.903 140.428 304.817 141.212C304.731 142 303.508 142.521 303.245 142.521C302.982 142.521 301.062 141.298 300.273 140.949C299.485 140.6 297.129 139.463 297.129 139.463L295.906 135.531L297.478 120.154V120.159Z" fill="white" stroke="#263238" stroke-width="0.477825" stroke-linecap="round" stroke-linejoin="round"/>
<path d="M297.865 126.141L297.98 125.688" stroke="#263238" stroke-width="0.477825" stroke-linecap="round" stroke-linejoin="round"/>
<path d="M296.217 132.621L297.679 126.873" stroke="#263238" stroke-width="0.477825" stroke-linecap="round" stroke-linejoin="round"/>
<path d="M300.445 135.913L297.626 137.676" stroke="#263238" stroke-width="0.477825" stroke-linecap="round" stroke-linejoin="round"/>
<path d="M279.612 115.032L279.899 110.593H285.552L286.698 115.529L282.905 118.893L279.612 115.032Z" fill="white" stroke="#263238" stroke-width="0.477825" stroke-linecap="round" stroke-linejoin="round"/>
<path d="M279.392 116.136L269.52 121.377L273.801 144.093C273.801 144.093 273.452 146.191 273.715 146.626C273.978 147.06 274.413 147.323 274.413 147.323H293.722C293.722 147.323 295.031 146.1 295.031 145.837V144.7L297.477 120.149L287.701 116.25L279.392 116.126V116.136Z" fill="white" stroke="#263238" stroke-width="0.477825" stroke-linecap="round" stroke-linejoin="round"/>
<path d="M281.604 117.172L282.899 120.832L281.145 143.08L283.888 147.423L286.253 142.698L283.812 120.832L285.336 117.555L283.128 115.118L281.604 117.172Z" fill="#263238" stroke="#263238" stroke-width="0.477825" stroke-linecap="round" stroke-linejoin="round"/>
<path d="M279.244 114.2L279.014 116.642L281.069 119.991L282.593 116.336L279.244 114.2Z" fill="white" stroke="#263238" stroke-width="0.477825" stroke-linecap="round" stroke-linejoin="round"/>
<path d="M283.965 116.413L285.183 120.297L287.701 116.26L286.555 113.899L283.965 116.413Z" fill="white" stroke="#263238" stroke-width="0.477825" stroke-linecap="round" stroke-linejoin="round"/>
<path d="M290.224 142.172L289.875 139.463L292.235 139.902L290.224 142.172Z" fill="white" stroke="#263238" stroke-width="0.477825" stroke-linecap="round" stroke-linejoin="round"/>
<path d="M283.759 133.963C283.759 133.963 282.359 133.786 281.575 133.528C280.786 133.265 280.266 133.614 280.877 134.402C281.489 135.191 283.673 135.54 283.935 135.54C283.935 135.54 284.37 137.809 285.593 138.249C286.817 138.684 287.514 138.684 287.514 138.684C287.514 138.684 288.126 139.558 288.914 139.644C289.703 139.73 291.538 141.044 291.538 141.044L292.412 139.033L290.491 137.461L288.57 134.14L286.735 133.528L285.163 133.002L283.763 133.963H283.759Z" fill="white" stroke="#263238" stroke-width="0.477825" stroke-linecap="round" stroke-linejoin="round"/>
<path d="M288.652 136.319L287.863 137.107C287.863 137.107 287.949 137.456 287.949 137.805C287.949 138.154 287.338 138.154 286.903 138.154C286.468 138.154 285.942 138.068 285.594 137.805C285.245 137.542 283.845 136.319 283.845 136.319L285.331 133.695L284.022 134.57C284.022 134.57 283.41 135.707 282.884 136.228C282.359 136.754 282.187 136.142 282.187 136.142C282.187 136.142 282.712 134.484 283.061 134.044C283.41 133.609 284.633 132.558 284.633 132.558C284.633 132.558 285.068 132.472 285.68 132.558C286.291 132.644 287.515 133.347 288.04 133.695C288.566 134.044 289.001 134.742 289.087 135.095C289.173 135.444 289.173 135.707 289.173 135.707" fill="white"/>
<path d="M288.652 136.319L287.863 137.107C287.863 137.107 287.949 137.456 287.949 137.805C287.949 138.154 287.338 138.154 286.903 138.154C286.468 138.154 285.942 138.068 285.594 137.805C285.245 137.542 283.845 136.319 283.845 136.319L285.331 133.695L284.022 134.57C284.022 134.57 283.41 135.707 282.884 136.228C282.359 136.754 282.187 136.142 282.187 136.142C282.187 136.142 282.712 134.484 283.061 134.044C283.41 133.609 284.633 132.558 284.633 132.558C284.633 132.558 285.068 132.472 285.68 132.558C286.291 132.644 287.515 133.347 288.04 133.695C288.566 134.044 289.001 134.742 289.087 135.095C289.173 135.444 289.173 135.707 289.173 135.707" stroke="#263238" stroke-width="0.477825" stroke-linecap="round" stroke-linejoin="round"/>
<path d="M286.382 138.067C286.382 138.067 286.119 137.456 286.296 137.021C286.473 136.586 287.605 134.923 287.605 134.923" stroke="#263238" stroke-width="0.477825" stroke-linecap="round" stroke-linejoin="round"/>
<path d="M285.594 137.805C285.594 137.805 285.456 137.647 285.298 137.427C285.107 137.155 285.269 136.811 285.269 136.524C285.269 135.999 286.555 133.877 286.555 133.877" stroke="#263238" stroke-width="0.477825" stroke-linecap="round" stroke-linejoin="round"/>
<path d="M302.805 137.37C302.805 137.37 304.988 140.691 304.902 141.565C304.816 142.44 304.291 144.36 303.502 144.36C302.714 144.36 299.221 143.926 296.774 143.486C294.328 143.051 292.67 142.874 292.67 142.874L290.223 142.177L291.881 138.158L293.473 138.493C293.473 138.493 294.643 138.196 295.78 138.106C296.918 138.02 300.707 137.112 300.707 137.112" fill="white"/>
<path d="M302.805 137.37C302.805 137.37 304.988 140.691 304.902 141.565C304.816 142.44 304.291 144.36 303.502 144.36C302.714 144.36 299.221 143.926 296.774 143.486C294.328 143.051 292.67 142.874 292.67 142.874L290.223 142.177L291.881 138.158L293.473 138.493C293.473 138.493 294.643 138.196 295.781 138.106C296.918 138.02 300.707 137.112 300.707 137.112" stroke="#263238" stroke-width="0.477825" stroke-linecap="round" stroke-linejoin="round"/>
<path d="M293.487 138.885C293.487 138.885 293.602 140.399 292.789 141.68" stroke="#263238" stroke-width="0.477825" stroke-linecap="round" stroke-linejoin="round"/>
<path d="M264.364 140.075C264.364 140.075 262.878 143.658 262.792 143.921C262.706 144.184 263.055 145.842 264.45 145.493C265.85 145.144 273.276 144.356 274.236 144.184C275.197 144.007 276.683 143.749 276.683 143.749H278.604C279.478 143.749 281.924 143.749 282.45 143.572C282.976 143.395 284.022 143.047 284.548 142.875C285.073 142.698 286.206 142 286.296 141.737C286.382 141.475 286.034 141.212 285.159 141.303C284.285 141.389 281.576 141.479 281.576 141.479C281.576 141.479 284.022 140.519 284.81 140.17C285.599 139.821 285.336 139.472 285.336 139.472C285.336 139.472 284.462 139.472 283.85 139.735C283.238 139.998 277.208 140.782 277.208 140.782L276.511 140.17C276.511 140.17 276.859 139.296 276.859 138.598C276.859 137.9 276.511 137.375 276.071 137.552C275.636 137.728 275.459 138.775 275.373 139.124C275.287 139.472 274.848 140.872 274.848 140.872L274.671 141.661C274.671 141.661 271.087 140.963 270.041 140.524C268.994 140.089 266.806 139.477 266.457 139.563C266.108 139.649 265.411 140.61 265.234 141.049" fill="white"/>
<path d="M264.364 140.075C264.364 140.075 262.878 143.658 262.792 143.921C262.706 144.184 263.055 145.842 264.45 145.493C265.85 145.144 273.276 144.356 274.236 144.184C275.197 144.007 276.683 143.749 276.683 143.749H278.604C279.478 143.749 281.924 143.749 282.45 143.572C282.976 143.395 284.022 143.047 284.548 142.875C285.073 142.698 286.206 142 286.296 141.737C286.382 141.475 286.034 141.212 285.159 141.303C284.285 141.389 281.576 141.479 281.576 141.479C281.576 141.479 284.022 140.519 284.81 140.17C285.599 139.821 285.336 139.472 285.336 139.472C285.336 139.472 284.462 139.472 283.85 139.735C283.238 139.998 277.208 140.782 277.208 140.782L276.511 140.17C276.511 140.17 276.859 139.296 276.859 138.598C276.859 137.9 276.511 137.375 276.071 137.552C275.636 137.728 275.459 138.775 275.373 139.124C275.287 139.472 274.848 140.872 274.848 140.872L274.671 141.661C274.671 141.661 271.087 140.963 270.041 140.524C268.994 140.089 266.806 139.477 266.457 139.563C266.108 139.649 265.411 140.61 265.234 141.049" stroke="#263238" stroke-width="0.477825" stroke-linecap="round" stroke-linejoin="round"/>
<path d="M272.167 141.332C272.167 141.332 271.584 142.612 272.281 143.429" stroke="#263238" stroke-width="0.477825" stroke-linecap="round" stroke-linejoin="round"/>
<path d="M273.419 136.725L276.075 142.129C276.171 142.33 276.376 142.454 276.596 142.459L286.291 142.559C286.707 142.559 286.994 142.148 286.846 141.761L284.734 136.257C284.648 136.032 284.428 135.879 284.184 135.879H273.94C273.505 135.879 273.223 136.333 273.414 136.725H273.419Z" fill="#75A9C8" stroke="#263238" stroke-width="0.477825" stroke-linecap="round" stroke-linejoin="round"/>
<path d="M285.158 141.298C284.284 141.384 281.575 141.474 281.575 141.474C281.575 141.474 284.021 140.514 284.81 140.165C285.598 139.816 285.335 139.468 285.335 139.468C285.335 139.468 284.461 139.468 283.849 139.73C283.237 139.993 277.207 140.777 277.207 140.777L276.51 140.165C276.51 140.165 276.858 139.291 276.858 138.593C276.858 137.896 276.51 137.37 276.07 137.547C275.635 137.724 275.458 138.77 275.372 139.119C275.286 139.468 274.847 140.868 274.847 140.868L274.67 141.656C274.67 141.656 274.293 141.584 273.748 141.47C273.614 141.943 273.552 142.583 273.796 143.319C273.915 143.672 274.03 143.964 274.14 144.208C274.173 144.203 274.207 144.198 274.235 144.193C275.196 144.016 276.682 143.758 276.682 143.758H278.603C279.477 143.758 281.923 143.758 282.449 143.582C282.975 143.405 284.021 143.056 284.547 142.884C285.072 142.707 286.205 142.01 286.296 141.747C286.382 141.484 286.033 141.221 285.158 141.312V141.298Z" fill="white" stroke="#263238" stroke-width="0.477825" stroke-linecap="round" stroke-linejoin="round"/>
<path d="M285.961 141.871C285.961 141.871 284.15 142.736 283.892 142.736C283.634 142.736 280.529 143.08 280.529 143.08" stroke="#263238" stroke-width="0.477825" stroke-linecap="round" stroke-linejoin="round"/>
<path d="M272.052 205.929C272.052 205.929 272.076 205.824 272.138 205.68C272.105 205.738 272.067 205.79 272.028 205.852L272.052 205.933V205.929Z" fill="white" stroke="#263238" stroke-width="0.477825" stroke-linecap="round" stroke-linejoin="round"/>
<path d="M277.318 103.779C277.318 103.779 276.529 103.206 276.243 104.066C275.956 104.926 275.813 105.853 276.386 106.498C276.96 107.143 277.748 108.285 277.748 108.285L277.318 103.774V103.779Z" fill="white" stroke="#263238" stroke-width="0.477825" stroke-linecap="round" stroke-linejoin="round"/>
<path d="M288.093 103.779C288.093 103.779 288.882 103.206 289.168 104.066C289.455 104.926 289.599 105.853 289.025 106.498C288.452 107.143 287.663 108.285 287.663 108.285L288.093 103.774V103.779Z" fill="white" stroke="#263238" stroke-width="0.477825" stroke-linecap="round" stroke-linejoin="round"/>
<path d="M278.13 109.948C278.13 109.948 280.997 113.794 281.599 113.995C282.292 114.224 283.563 114.458 284.141 114.11C284.719 113.761 287.782 110.335 287.868 108.753C287.959 107.171 288.504 100.988 287.61 99.4259C286.683 97.8061 284.834 95.6081 279.864 97.2279C279.864 97.2279 275.124 98.7331 278.13 109.948Z" fill="white" stroke="#263238" stroke-width="0.477825" stroke-linecap="round" stroke-linejoin="round"/>
<path d="M281.437 109.632C281.437 109.632 281.824 110.473 282.903 110.454C283.587 110.44 283.993 109.642 283.993 109.642" stroke="#263238" stroke-width="0.477825" stroke-linecap="round" stroke-linejoin="round"/>
<path d="M282.063 111.453C282.063 111.453 282.526 112.031 283.797 111.453" stroke="#263238" stroke-width="0.477825" stroke-linecap="round" stroke-linejoin="round"/>
<path d="M278.938 107.176C278.938 107.176 280.467 107.931 281.398 107.143" stroke="#263238" stroke-width="0.477825" stroke-linecap="round" stroke-linejoin="round"/>
<path d="M284.256 107.176C284.256 107.176 285.661 107.568 286.908 107.143" stroke="#263238" stroke-width="0.477825" stroke-linecap="round" stroke-linejoin="round"/>
<path d="M281.542 106.283C281.542 106.283 280.251 105.136 278.679 105.709" stroke="#263238" stroke-width="0.477825" stroke-linecap="round" stroke-linejoin="round"/>
<path d="M284.046 106.282C284.046 106.282 285.479 105.207 287.266 106.067" stroke="#263238" stroke-width="0.477825" stroke-linecap="round" stroke-linejoin="round"/>
<path d="M274.851 102.45C274.851 102.45 277.202 105.585 281.12 105.743C285.038 105.9 286.644 105.193 287.624 104.409C288.603 103.626 290.524 101.982 290.524 101.982C290.524 101.982 289.664 100.649 289.425 99.0052C289.191 97.3615 288.957 94.1457 285.349 93.0515C281.746 91.9525 277.67 93.4433 276.414 95.9519C275.162 98.4605 275.707 101.437 274.846 102.455L274.851 102.45Z" fill="white" stroke="#263238" stroke-width="0.477825" stroke-linecap="round" stroke-linejoin="round"/>
<path d="M278.922 102.383C278.922 102.383 278.817 98.7565 279.243 97.476C279.668 96.1954 282.014 95.1298 282.014 95.1298V93.7441" fill="white"/>
<path d="M278.922 102.383C278.922 102.383 278.817 98.7565 279.243 97.476C279.668 96.1954 282.014 95.1298 282.014 95.1298V93.7441" stroke="#263238" stroke-width="0.477825" stroke-linecap="round" stroke-linejoin="round"/>
<path d="M285.856 102.383C285.856 102.383 286.391 98.6515 285.321 96.9457C284.255 95.2398 283.51 95.2398 283.51 95.2398V93.749" fill="white"/>
<path d="M285.856 102.383C285.856 102.383 286.391 98.6515 285.321 96.9457C284.255 95.2398 283.51 95.2398 283.51 95.2398V93.749" stroke="#263238" stroke-width="0.477825" stroke-linecap="round" stroke-linejoin="round"/>
<path d="M106.209 66.231H96.4084V207.027H106.209V66.231Z" fill="#263238" stroke="#263238" stroke-width="0.477825" stroke-linecap="round" stroke-linejoin="round"/>
<path d="M110.963 95.9087H104.818C101.789 95.9087 99.333 98.3647 99.333 101.394V105.561C99.333 107.367 101.244 108.528 102.845 107.701L113.376 102.273V96.5681L110.963 95.9087Z" fill="#424242" stroke="#263238" stroke-width="0.477825" stroke-linecap="round" stroke-linejoin="round"/>
<path d="M110.963 173.594H104.818C101.789 173.594 99.333 176.05 99.333 179.079V183.246C99.333 185.052 101.244 186.213 102.845 185.386L113.376 179.958V174.253L110.963 173.594Z" fill="#424242" stroke="#263238" stroke-width="0.477825" stroke-linecap="round" stroke-linejoin="round"/>
<path d="M97.1352 62.5566H92.7488V93.7156H97.1352V62.5566Z" fill="#424242" stroke="#263238" stroke-width="0.477825" stroke-linecap="round" stroke-linejoin="round"/>
<path d="M174.862 153.262H140.984V168.787H174.862V153.262Z" fill="#263238" stroke="#263238" stroke-width="0.477825" stroke-linecap="round" stroke-linejoin="round"/>
<path d="M112.745 180.293L127.357 104.744C129.063 95.9184 136.603 89.42 145.582 89.0282L178.867 87.5803C182.25 87.4322 185.141 89.9886 185.413 93.362L191.166 164.845" stroke="#263238" stroke-width="5.25608" stroke-miterlimit="10"/>
<path d="M138.882 182.075L103.91 176.953V193.663L141.114 184.527L138.882 182.075Z" fill="#263238" stroke="#263238" stroke-width="0.477825" stroke-miterlimit="10"/>
<path d="M136.369 144.14L131.467 141.317L128.929 142.568L124.772 139.448L123.138 142.119L124.772 143.902L123.138 144.642L124.027 146.573C124.027 146.573 120.314 149.096 119.421 155.928L115.56 155.78V169.293L120.462 167.067L122.245 166.77C122.245 166.77 131.749 156.97 133.975 152.216C136.202 147.461 136.364 144.131 136.364 144.131L136.369 144.14Z" fill="#263238" stroke="#263238" stroke-width="0.477825" stroke-miterlimit="10"/>
<path d="M146.522 131.478L145.098 132.113L134.801 131.163C134.801 131.163 132.106 129.576 130.525 130.212C128.943 130.847 127.988 131.956 127.988 131.956C127.988 131.956 127.988 134.966 128.781 135.124C129.574 135.281 130.998 134.808 130.998 134.808L131.791 134.015C131.791 134.015 141.93 136.71 143.359 137.026C144.788 137.341 148.907 135.602 148.907 135.602L146.532 131.483L146.522 131.478Z" fill="white" stroke="#263238" stroke-width="0.477825" stroke-linecap="round" stroke-linejoin="round"/>
<path d="M130.52 130.212C128.934 130.847 127.983 131.956 127.983 131.956C127.983 131.956 127.983 134.966 128.776 135.124C129.569 135.281 130.993 134.808 130.993 134.808L131.786 134.015C131.786 134.015 133.057 134.354 134.763 134.804C135.064 134.45 135.37 133.953 135.37 133.394C135.37 132.892 135.189 131.999 134.993 131.182L134.797 131.163C134.797 131.163 132.102 129.576 130.52 130.212Z" fill="#75A9C8" stroke="#263238" stroke-width="0.477825" stroke-linecap="round" stroke-linejoin="round"/>
<path d="M131.867 131.139L130.936 131.296C130.936 131.296 129.536 132.854 129.536 133.394C129.536 133.934 130.391 134.249 130.702 134.092C131.012 133.934 131.633 133.313 131.633 133.313C131.633 133.313 132.102 133.7 132.957 133.7C133.812 133.7 134.515 133.313 134.515 133.313" stroke="#263238" stroke-width="0.477825" stroke-miterlimit="10"/>
<path d="M154.13 123.714L145.415 130.685L148.898 135.597L154.13 131.799V123.714Z" fill="white" stroke="#263238" stroke-width="0.477825" stroke-linecap="round" stroke-linejoin="round"/>
<path d="M145.415 130.685L148.425 137.026L150.327 135.124L147.632 128.788L145.415 130.685Z" fill="white" stroke="#263238" stroke-width="0.477825" stroke-linecap="round" stroke-linejoin="round"/>
<path d="M154.288 118.644L152.071 128.783C152.071 128.783 153.022 137.179 153.022 138.765C153.022 140.351 152.229 143.835 152.229 143.835L151.913 144.943C151.913 144.943 151.913 150.964 154.451 151.599C156.988 152.235 159.52 152.866 162.688 152.866C165.856 152.866 168.394 151.442 169.66 149.22C170.926 146.998 170.926 142.248 170.926 140.504C170.926 138.76 168.231 125.133 167.758 121.649C167.285 118.166 162.688 115.471 161.737 115.151C160.787 114.831 154.288 118.639 154.288 118.639V118.644Z" fill="white" stroke="#263238" stroke-width="0.477825" stroke-linecap="round" stroke-linejoin="round"/>
<path d="M150.155 103.994L149.276 105.934C149.276 105.934 146.92 107.659 147.465 108.113C148.01 108.566 148.344 108.939 148.344 108.939C148.344 108.939 147.45 112.824 147.775 113.168C148.43 113.861 149.539 113.918 150.408 113.536C151.278 113.154 152.095 113.832 152.095 113.832L154.412 118.228L161.537 113.928L160.576 110.291L162.344 107.616L150.155 103.998V103.994Z" fill="white" stroke="#263238" stroke-width="0.477825" stroke-linecap="round" stroke-linejoin="round"/>
<path d="M160.576 110.291L162.344 107.616L152.563 104.82C152.324 105.246 151.908 106.101 152.266 106.325C152.749 106.631 153.212 107.295 153.212 107.295C153.212 107.295 153.093 108.213 153.738 108.103C154.383 107.993 155.372 106.693 156.395 107.458C157.417 108.222 157.451 109.073 156.705 109.742C155.96 110.416 155.301 110.879 155.301 110.879C155.301 110.879 159.276 113.889 160.561 113.67C160.791 113.631 161.044 113.588 161.307 113.536L160.58 110.291H160.576Z" fill="#263238" stroke="#263238" stroke-width="0.477825" stroke-linecap="round" stroke-linejoin="round"/>
<path d="M149.07 103.267L146.461 103.654C146.461 103.654 152.549 106.034 154.312 106.02C156.07 106.005 162.932 109.56 162.932 109.56C162.932 109.56 165.842 105.255 163.654 101.418C161.465 97.5813 157.681 96.5922 154.833 97.5861C151.99 98.58 150.494 99.6169 149.07 103.272V103.267Z" fill="white" stroke="#263238" stroke-width="0.477825" stroke-linecap="round" stroke-linejoin="round"/>
<path d="M161.26 112.308L152.702 117.535L153.022 120.23L162.526 114.682L161.26 112.308Z" fill="white" stroke="#263238" stroke-width="0.477825" stroke-linecap="round" stroke-linejoin="round"/>
<path d="M126.412 171.085C126.412 171.085 121.361 173.909 120.473 174.206C119.584 174.502 113.788 175.988 113.936 177.03C114.084 178.071 114.528 178.368 116.908 178.96C119.288 179.553 129.236 180.594 130.574 180.446C131.912 180.298 130.426 172.275 130.426 172.275L126.417 171.085H126.412Z" fill="#263238" stroke="#263238" stroke-width="0.477825" stroke-linecap="round" stroke-linejoin="round"/>
<path d="M116.903 178.955C119.278 179.547 129.231 180.589 130.569 180.441C131.047 180.388 131.162 179.332 131.119 177.995C123.115 179.137 117.066 177.641 114.127 176.628C113.989 176.766 113.917 176.896 113.936 177.025C114.084 178.066 114.529 178.362 116.908 178.955H116.903Z" fill="white" stroke="#263238" stroke-width="0.477825" stroke-linecap="round" stroke-linejoin="round"/>
<path d="M164.279 147.767C164.279 147.767 157.891 144.943 157.298 144.499C156.706 144.055 138.29 145.541 136.656 146.726C135.022 147.915 122.546 169.747 122.546 169.747L130.564 174.946L143.04 155.938C143.04 155.938 147.794 155.79 148.979 155.346C150.169 154.901 157.15 153.711 157.15 153.711C157.15 153.711 164.724 154.753 166.802 153.86C168.881 152.971 166.506 149.253 166.506 149.253" fill="#75A9C8"/>
<path d="M164.279 147.767C164.279 147.767 157.891 144.943 157.298 144.499C156.706 144.055 138.29 145.541 136.656 146.726C135.022 147.915 122.546 169.747 122.546 169.747L130.564 174.946L143.04 155.938C143.04 155.938 147.794 155.79 148.979 155.346C150.169 154.901 157.15 153.711 157.15 153.711C157.15 153.711 164.724 154.753 166.802 153.86C168.881 152.971 166.506 149.253 166.506 149.253" stroke="#263238" stroke-width="0.477825" stroke-linecap="round" stroke-linejoin="round"/>
<path d="M142.748 155.489L138.882 150.888L143.192 154.008" stroke="#263238" stroke-width="0.477825" stroke-miterlimit="10"/>
<path d="M146.514 157.878H175.141V149.468C175.141 149.468 173.918 147.978 171.342 148.924C168.767 149.875 166.865 153.267 166.865 153.267C166.865 153.267 148.005 150.013 146.514 157.878Z" fill="#263238" stroke="#263238" stroke-width="0.477825" stroke-linecap="round" stroke-linejoin="round"/>
<path d="M174.869 152.723H178.667L185.18 134.408L182.194 133.595L174.869 152.723Z" fill="#263238" stroke="#263238" stroke-width="0.477825" stroke-linecap="round" stroke-linejoin="round"/>
<path d="M182.194 133.595L176.904 147.978L172.355 146.114C170.267 145.259 169.35 142.803 170.377 140.791C171.983 137.647 174.544 133.409 177.444 131.559C182.328 128.439 182.6 131.426 182.194 133.595Z" fill="#263238" stroke="#263238" stroke-width="0.477825" stroke-linecap="round" stroke-linejoin="round"/>
<path d="M137.549 164.921L136.66 183.858L120.3 186.71C124.495 189.496 127.261 194.26 127.261 199.674C127.261 201.891 126.793 204.003 125.957 205.909H193.947C195.648 205.909 197.029 204.528 197.029 202.827V161.887C197.029 160.439 195.925 159.235 194.482 159.111C185.441 158.332 154.536 156.43 137.549 164.926V164.921Z" fill="#75A9C8" stroke="#263238" stroke-width="0.477825" stroke-linecap="round" stroke-linejoin="round"/>
<path d="M120.488 209.424C125.871 204.574 126.303 196.277 121.452 190.893C116.602 185.51 108.305 185.078 102.921 189.929C97.5378 194.78 97.1059 203.076 101.957 208.46C106.807 213.843 115.104 214.275 120.488 209.424Z" fill="#263238" stroke="#263238" stroke-width="0.477825" stroke-linecap="round" stroke-linejoin="round"/>
<path d="M115.794 204.229C118.297 201.965 118.492 198.1 116.228 195.597C113.964 193.093 110.1 192.899 107.596 195.162C105.093 197.426 104.898 201.291 107.162 203.794C109.426 206.298 113.29 206.492 115.794 204.229Z" fill="white" stroke="#263238" stroke-width="0.477825" stroke-linecap="round" stroke-linejoin="round"/>
<path d="M194.593 210.763C197.308 208.048 197.308 203.646 194.593 200.931C191.878 198.216 187.476 198.216 184.761 200.931C182.046 203.646 182.046 208.048 184.761 210.763C187.476 213.478 191.878 213.478 194.593 210.763Z" fill="#263238" stroke="#263238" stroke-width="0.477825" stroke-linecap="round" stroke-linejoin="round"/>
<path d="M192.91 205.847C192.91 204.06 191.462 202.607 189.67 202.607C187.878 202.607 186.431 204.055 186.431 205.847C186.431 207.639 187.878 209.082 189.67 209.082C191.462 209.082 192.91 207.634 192.91 205.847Z" fill="white" stroke="#263238" stroke-width="0.477825" stroke-linecap="round" stroke-linejoin="round"/>
<path d="M102.883 187.924C105.339 186.075 108.397 184.981 111.708 184.981C119.826 184.981 126.406 191.56 126.406 199.679C126.406 201.241 126.162 202.746 125.708 204.156H126.65C127.075 202.737 127.304 201.236 127.304 199.679C127.304 191.068 120.323 184.083 111.708 184.083C108.201 184.083 104.966 185.239 102.357 187.198L102.883 187.924Z" fill="#75A9C8" stroke="#263238" stroke-width="0.477825" stroke-linecap="round" stroke-linejoin="round"/>
<path d="M136.656 183.858C136.656 183.858 172.588 178.54 175.303 178.109C178.021 177.679 186.034 174.817 189.04 158.791" stroke="#263238" stroke-width="0.477825" stroke-linecap="round" stroke-linejoin="round"/>
<path d="M54.2308 52.4224H19.8943V89.1624H54.2308V52.4224Z" fill="#75A9C8" stroke="#263238" stroke-width="0.477825" stroke-linecap="round" stroke-linejoin="round"/>
<path d="M25.7144 52.4224H22.5942V65.7871H25.7144V52.4224Z" fill="#263238"/>
<path d="M88.5389 52.4219H54.2024V89.1619H88.5389V52.4219Z" fill="#75A9C8" stroke="#263238" stroke-width="0.477825" stroke-linecap="round" stroke-linejoin="round"/>
<path d="M60.0228 52.4219H56.9026V65.7866H60.0228V52.4219Z" fill="#263238"/>
<path d="M54.2308 15.4385H19.8943V52.1785H54.2308V15.4385Z" fill="#75A9C8" stroke="#263238" stroke-width="0.477825" stroke-linecap="round" stroke-linejoin="round"/>
<path d="M25.7144 15.4385H22.5942V28.8033H25.7144V15.4385Z" fill="#263238"/>
<path d="M88.5389 15.4385H54.2024V52.1785H88.5389V15.4385Z" fill="#75A9C8" stroke="#263238" stroke-width="0.477825" stroke-linecap="round" stroke-linejoin="round"/>
<path d="M60.0228 15.4385H56.9026V28.8033H60.0228V15.4385Z" fill="#263238"/>
<path d="M92.0886 93.7158H18.5752V95.4694H92.0886V93.7158Z" fill="white" stroke="#263238" stroke-width="0.477825" stroke-linecap="round" stroke-linejoin="round"/>
<path d="M92.0886 87.3511H18.5752V89.1047H92.0886V87.3511Z" fill="white" stroke="#263238" stroke-width="0.477825" stroke-linecap="round" stroke-linejoin="round"/>
<path d="M25.5993 89.1572H19.894V93.6106H25.5993V89.1572Z" fill="white" stroke="#263238" stroke-width="0.477825" stroke-linecap="round" stroke-linejoin="round"/>
<path d="M57.2463 89.1572H51.541V93.6106H57.2463V89.1572Z" fill="white" stroke="#263238" stroke-width="0.477825" stroke-linecap="round" stroke-linejoin="round"/>
<path d="M88.8869 89.1572H83.1816V93.6106H88.8869V89.1572Z" fill="white" stroke="#263238" stroke-width="0.477825" stroke-linecap="round" stroke-linejoin="round"/>
<path d="M150.8 136.075C150.8 136.075 142.405 138.928 141.133 139.401C139.862 139.874 139.547 140.667 139.547 140.667C139.547 140.667 138.439 143.362 139.389 143.835C140.34 144.308 142.715 143.993 142.715 143.993C142.715 143.993 144.139 144.308 144.459 143.677C144.779 143.047 144.932 141.46 144.932 141.46C144.932 141.46 152.219 140.987 153.805 140.825C155.392 140.662 156.658 139.558 156.658 139.558L150.795 136.07L150.8 136.075Z" fill="white" stroke="#263238" stroke-width="0.477825" stroke-linecap="round" stroke-linejoin="round"/>
<path d="M144.464 143.682C144.77 143.071 144.928 141.58 144.937 141.475C144.436 141.432 143.403 141.241 142.448 140.395C141.874 139.888 141.841 139.439 141.989 139.095C141.602 139.229 141.306 139.339 141.134 139.401C139.868 139.874 139.547 140.667 139.547 140.667C139.547 140.667 138.439 143.362 139.39 143.835C140.341 144.308 142.715 143.993 142.715 143.993C142.715 143.993 144.139 144.308 144.459 143.678L144.464 143.682Z" fill="#75A9C8" stroke="#263238" stroke-width="0.477825" stroke-linecap="round" stroke-linejoin="round"/>
<path d="M157.771 119.122C157.771 119.122 156.027 121.182 155.554 122.926C155.081 124.67 153.81 131.006 153.81 131.006L152.543 133.38L150.799 136.075C150.799 136.075 151.272 138.45 153.967 139.243C156.662 140.036 157.293 140.352 157.928 139.716C158.564 139.081 161.254 134.331 161.89 132.109C162.525 129.887 165.058 123.714 165.058 123.714" fill="white"/>
<path d="M157.771 119.122C157.771 119.122 156.027 121.182 155.554 122.926C155.081 124.67 153.81 131.006 153.81 131.006L152.543 133.38L150.799 136.075C150.799 136.075 151.272 138.45 153.967 139.243C156.662 140.036 157.293 140.352 157.928 139.716C158.564 139.081 161.254 134.331 161.89 132.109C162.525 129.887 165.058 123.714 165.058 123.714" stroke="#263238" stroke-width="0.477825" stroke-linecap="round" stroke-linejoin="round"/>
<path d="M152.544 133.38L148.898 135.597C148.898 135.597 149.371 137.342 150.485 138.765C151.598 140.189 153.337 140.825 153.81 140.825H156.027L158.565 139.401C158.565 139.401 155.076 138.928 153.968 136.548C152.859 134.169 152.544 133.38 152.544 133.38Z" fill="white" stroke="#263238" stroke-width="0.477825" stroke-linecap="round" stroke-linejoin="round"/>
<path d="M130.272 136.777L132.054 141.532L136.804 143.758L138.438 140.934L130.272 136.777Z" fill="#263238" stroke="#263238" stroke-width="0.477825" stroke-miterlimit="10"/>
<path d="M143.513 144.413C143.374 144.413 143.231 144.38 143.097 144.308L126.937 135.75C126.502 135.521 126.335 134.981 126.564 134.546C126.794 134.111 127.334 133.944 127.768 134.173L143.928 142.731C144.363 142.96 144.531 143.5 144.301 143.935C144.143 144.236 143.833 144.408 143.513 144.408V144.413Z" fill="#263238"/>
<path d="M17.7588 212.8H334.963" stroke="#263238" stroke-width="0.477825" stroke-linecap="round" stroke-linejoin="round"/>
<path d="M1.03516 212.8H14.4143" stroke="#263238" stroke-width="0.477825" stroke-linecap="round" stroke-linejoin="round"/>
</g>
<defs>
<clipPath id="clip0_221_14063">
<rect width="334.406" height="213.038" fill="white" transform="translate(0.796875)"/>
</clipPath>
</defs>
</svg>
