<svg width="39" height="39" viewBox="0 0 39 39" fill="none" xmlns="http://www.w3.org/2000/svg">
<path d="M19.5 0C15.6433 0 11.8731 1.14366 8.66639 3.28634C5.45963 5.42903 2.96027 8.47451 1.48436 12.0377C0.00844905 15.6008 -0.377716 19.5216 0.374696 23.3043C1.12711 27.0869 2.9843 30.5615 5.71143 33.2886C8.43855 36.0157 11.9131 37.8729 15.6957 38.6253C19.4784 39.3777 23.3992 38.9916 26.9623 37.5156C30.5255 36.0397 33.571 33.5404 35.7137 30.3336C37.8564 27.1269 39 23.3567 39 19.5C38.9901 14.3313 36.9325 9.37718 33.2776 5.72237C29.6228 2.06755 24.6687 0.0099112 19.5 0ZM19.5 36C16.2366 36 13.0465 35.0323 10.3331 33.2192C7.61969 31.4062 5.50484 28.8293 4.256 25.8143C3.00715 22.7993 2.6804 19.4817 3.31705 16.281C3.95371 13.0803 5.52518 10.1403 7.83275 7.83274C10.1403 5.52517 13.0803 3.9537 16.281 3.31704C19.4817 2.68039 22.7993 3.00714 25.8143 4.25599C28.8293 5.50483 31.4062 7.61968 33.2193 10.3331C35.0323 13.0465 36 16.2366 36 19.5C35.995 23.8745 34.2551 28.0685 31.1618 31.1618C28.0685 34.2551 23.8746 35.995 19.5 36ZM27 23.25C26.9951 24.6409 26.4404 25.9734 25.4569 26.9569C24.4734 27.9403 23.1409 28.4951 21.75 28.5H21V30C21 30.3978 20.842 30.7794 20.5607 31.0607C20.2794 31.342 19.8978 31.5 19.5 31.5C19.1022 31.5 18.7207 31.342 18.4393 31.0607C18.158 30.7794 18 30.3978 18 30V28.5H15C14.6022 28.5 14.2207 28.342 13.9393 28.0607C13.658 27.7794 13.5 27.3978 13.5 27C13.5 26.6022 13.658 26.2206 13.9393 25.9393C14.2207 25.658 14.6022 25.5 15 25.5H21.75C22.3467 25.5 22.919 25.2629 23.341 24.841C23.763 24.419 24 23.8467 24 23.25C24 22.6533 23.763 22.081 23.341 21.659C22.919 21.2371 22.3467 21 21.75 21H17.25C15.8576 21 14.5223 20.4469 13.5377 19.4623C12.5531 18.4777 12 17.1424 12 15.75C12 14.3576 12.5531 13.0223 13.5377 12.0377C14.5223 11.0531 15.8576 10.5 17.25 10.5H18V9C18 8.60218 18.158 8.22064 18.4393 7.93934C18.7207 7.65804 19.1022 7.5 19.5 7.5C19.8978 7.5 20.2794 7.65804 20.5607 7.93934C20.842 8.22064 21 8.60218 21 9V10.5H24C24.3978 10.5 24.7794 10.658 25.0607 10.9393C25.342 11.2206 25.5 11.6022 25.5 12C25.5 12.3978 25.342 12.7794 25.0607 13.0607C24.7794 13.342 24.3978 13.5 24 13.5H17.25C16.6533 13.5 16.081 13.7371 15.659 14.159C15.2371 14.581 15 15.1533 15 15.75C15 16.3467 15.2371 16.919 15.659 17.341C16.081 17.7629 16.6533 18 17.25 18H21.75C23.1409 18.0049 24.4734 18.5597 25.4569 19.5431C26.4404 20.5266 26.9951 21.8591 27 23.25Z" fill="white"/>
</svg>
