<svg width="41" height="40" viewBox="0 0 41 40" fill="none" xmlns="http://www.w3.org/2000/svg">
<path d="M22.0001 0.0599976V4.1C30.7801 5.18 37.0001 13.16 35.9201 21.94C35.0001 29.22 29.2801 35 22.0001 35.86V39.86C33.0001 38.76 41.0001 29 39.9001 18C39.0001 8.5 31.4601 0.999998 22.0001 0.0599976ZM18.0001 0.119998C14.1001 0.499997 10.3801 2 7.3401 4.52L10.2001 7.48C12.4401 5.68 15.1401 4.52 18.0001 4.12V0.119998ZM4.5201 7.34C2.01941 10.3747 0.480502 14.0862 0.100098 18H4.1001C4.4801 15.16 5.6001 12.46 7.3801 10.2L4.5201 7.34ZM27.0001 13L17.2401 22.76L13.0001 18.52L10.8801 20.64L17.2401 27L29.1201 15.12L27.0001 13ZM0.120098 22C0.520098 25.92 2.0601 29.62 4.5401 32.66L7.3801 29.8C5.61396 27.5392 4.48801 24.8452 4.1201 22H0.120098ZM10.2001 32.74L7.3401 35.48C10.3697 38.0054 14.0786 39.5781 18.0001 40V36C15.1549 35.6321 12.4609 34.5061 10.2001 32.74Z" fill="white"/>
</svg>
