<svg width="39" height="40" viewBox="0 0 39 40" fill="none" xmlns="http://www.w3.org/2000/svg">
<path d="M21.3148 0.716064V4.63852C29.8476 5.6871 35.8925 13.4349 34.8429 21.9595C33.9488 29.0276 28.3898 34.6395 21.3148 35.4744V39.3581C32.0051 38.2901 39.7799 28.814 38.7109 18.1341C37.8362 8.9105 30.5085 1.62871 21.3148 0.716064ZM17.4274 0.774319C13.6372 1.14326 10.0219 2.59962 7.06745 5.0463L9.84694 7.92018C12.0239 6.17255 14.6479 5.0463 17.4274 4.65794V0.774319ZM4.32683 7.78425C1.89653 10.7306 0.400946 14.3341 0.03125 18.1341H3.91865C4.28796 15.3767 5.37643 12.7553 7.10632 10.561L4.32683 7.78425ZM0.050687 22.0177C0.439427 25.8237 1.93608 29.416 4.34627 32.3675L7.10632 29.5908C5.3899 27.3957 4.29564 24.7801 3.93809 22.0177H0.050687ZM9.84694 32.4452L7.06745 35.1055C10.0117 37.5574 13.6163 39.0843 17.4274 39.494V35.6104C14.6623 35.2532 12.0441 34.16 9.84694 32.4452ZM20.3429 10.3669V20.5614L29.0896 25.746L27.6318 28.1344L17.4274 22.0177V10.3669H20.3429Z" fill="#FAFAFA"/>
</svg>
