<svg width="360" height="221" viewBox="0 0 360 221" fill="none" xmlns="http://www.w3.org/2000/svg">
<mask id="mask0_434_22831" style="mask-type:alpha" maskUnits="userSpaceOnUse" x="0" y="0" width="360" height="221">
<rect width="360" height="221" fill="#D9D9D9"/>
</mask>
<g mask="url(#mask0_434_22831)">
<g clip-path="url(#clip0_434_22831)">
<path d="M-112.45 254.259C-112.45 254.259 -79.1779 44.7547 75.0737 130.548C229.325 216.342 200.565 27.6426 378.965 56.6349C572.41 88.0806 567.286 242.066 567.286 242.066" stroke="#628CA5" stroke-opacity="0.3" stroke-width="0.37" stroke-miterlimit="10"/>
<path d="M-110.186 254.867C-110.186 254.867 -77.6297 47.2916 75.7737 132.252C89.4556 139.845 101.708 145.285 112.809 148.92C225.355 185.794 217.329 34.4241 377.511 60.2509C568.062 91.0344 563.828 242.221 564.665 243.837" stroke="#628CA5" stroke-opacity="0.3" stroke-width="0.37" stroke-miterlimit="10"/>
<path d="M-107.926 255.485C-107.926 255.485 -76.0916 49.8242 76.4843 133.959C90.0314 141.452 102.181 146.848 113.205 150.484C224.876 187.313 218.104 38.5998 376.048 63.8627C563.694 93.9796 560.36 242.371 562.028 245.591" stroke="#628CA5" stroke-opacity="0.3" stroke-width="0.37" stroke-miterlimit="10"/>
<path d="M-105.66 256.093C-105.66 256.093 -74.543 52.3612 77.1797 135.672C90.5921 143.063 102.639 148.416 113.597 152.057C224.392 188.84 218.875 42.7846 374.595 67.4788C559.347 96.9335 556.913 242.531 559.407 247.363" stroke="#628CA5" stroke-opacity="0.3" stroke-width="0.37" stroke-miterlimit="10"/>
<path d="M-103.411 256.706C-103.411 256.706 -73.0049 54.8939 77.8903 137.379C91.1527 144.674 103.112 149.979 113.993 153.622C223.924 190.363 219.646 46.9693 373.132 71.0906C554.979 99.8787 553.44 242.691 556.781 249.121" stroke="#628CA5" stroke-opacity="0.3" stroke-width="0.37" stroke-miterlimit="10"/>
<path d="M-101.145 257.314C-101.145 257.314 -71.4611 57.4399 78.5908 139.083C91.7185 146.277 103.574 151.538 114.384 155.195C223.441 191.89 220.417 51.1541 371.68 74.7067C550.631 102.833 549.983 242.846 554.161 250.893" stroke="#628CA5" stroke-opacity="0.3" stroke-width="0.37" stroke-miterlimit="10"/>
<path d="M-98.8854 257.931C-98.8854 257.931 -69.923 59.9726 79.2964 140.799C92.2894 147.893 104.032 153.107 114.786 156.773C222.967 193.422 221.197 55.3431 370.232 78.3361C546.289 105.8 546.531 243.014 551.535 252.673" stroke="#628CA5" stroke-opacity="0.3" stroke-width="0.37" stroke-miterlimit="10"/>
<path d="M-96.6309 258.535C-96.6309 258.535 -68.1855 62.2341 79.9964 142.503C92.8646 149.477 104.494 154.666 115.171 158.333C222.484 194.949 221.957 59.5236 368.759 81.9436C541.911 108.741 543.052 243.161 548.898 254.427" stroke="#628CA5" stroke-opacity="0.3" stroke-width="0.37" stroke-miterlimit="10"/>
<path d="M-94.3706 259.153C-94.3706 259.153 -66.6171 64.735 80.7023 144.219C93.4358 151.093 104.958 156.247 115.573 159.911C222.01 196.481 222.739 63.7126 367.316 85.5641C537.568 111.686 539.605 243.32 546.278 256.199" stroke="#628CA5" stroke-opacity="0.3" stroke-width="0.37" stroke-miterlimit="10"/>
<path d="M-92.1053 259.761C-92.1053 259.761 -65.0589 67.2316 81.4028 145.923C94.0016 152.695 105.42 157.806 115.959 161.471C221.522 197.995 223.504 67.884 365.843 89.1715C533.195 114.64 536.133 243.48 543.637 257.962" stroke="#628CA5" stroke-opacity="0.3" stroke-width="0.37" stroke-miterlimit="10"/>
<path d="M-89.8559 260.374C-89.8559 260.374 -63.491 69.7326 82.1028 147.626C94.5668 154.297 105.883 159.365 116.355 163.036C221.053 199.518 224.274 72.0688 364.395 92.7786C528.852 117.585 532.68 243.626 541.025 259.715" stroke="#628CA5" stroke-opacity="0.3" stroke-width="0.37" stroke-miterlimit="10"/>
<path d="M-87.5907 260.982C-87.5907 260.982 -61.9275 72.2425 82.8086 149.343C95.1276 155.909 106.351 160.937 116.752 164.622C220.575 201.059 225.05 76.2668 362.932 96.4127C524.485 120.552 529.213 243.799 538.395 261.505" stroke="#628CA5" stroke-opacity="0.3" stroke-width="0.37" stroke-miterlimit="10"/>
<path d="M-85.3306 261.6C-85.3306 261.6 -60.3592 74.7435 83.5089 151.046C95.6932 157.511 106.813 162.497 117.138 166.183C220.086 202.573 225.857 80.2006 361.474 100.015C520.188 123.206 525.75 243.941 535.774 263.254" stroke="#628CA5" stroke-opacity="0.3" stroke-width="0.37" stroke-miterlimit="10"/>
<path d="M-83.0655 262.208C-83.0655 262.208 -58.8061 77.2491 84.2195 152.754C96.2691 159.118 107.286 164.06 117.545 167.751C219.628 204.1 226.648 84.3717 360.021 103.632C515.84 126.137 522.292 244.096 533.143 265.021" stroke="#628CA5" stroke-opacity="0.3" stroke-width="0.37" stroke-miterlimit="10"/>
<path d="M-80.8158 262.821C-80.8158 262.821 -57.2429 79.759 84.9148 154.466C96.8297 160.729 107.728 165.633 117.926 169.32C219.129 205.632 227.408 88.5297 358.553 107.252C511.477 129.074 518.825 244.269 530.507 266.798" stroke="#628CA5" stroke-opacity="0.3" stroke-width="0.37" stroke-miterlimit="10"/>
<path d="M-78.5506 263.429C-78.5506 263.429 -55.6794 82.269 85.6256 156.174C97.4057 162.336 108.201 167.196 118.332 170.889C218.661 207.155 228.199 92.7008 357.116 110.864C507.145 132 515.383 244.42 527.906 268.556" stroke="#628CA5" stroke-opacity="0.3" stroke-width="0.37" stroke-miterlimit="10"/>
<path d="M-76.2906 264.047C-76.2906 264.047 -54.1265 84.7746 86.3208 157.886C97.9662 163.947 108.659 168.764 118.723 172.463C218.188 208.686 228.964 96.8722 355.648 114.485C502.781 134.937 511.91 244.579 525.27 270.332" stroke="#628CA5" stroke-opacity="0.3" stroke-width="0.37" stroke-miterlimit="10"/>
<path d="M-74.0361 264.651C-74.0361 264.651 -52.5634 87.2845 87.0312 159.594C98.5316 165.549 109.132 170.327 119.119 174.027C217.709 210.205 229.744 101.039 354.199 118.092C498.433 137.868 508.457 244.725 522.644 272.09" stroke="#628CA5" stroke-opacity="0.3" stroke-width="0.37" stroke-miterlimit="10"/>
<path d="M-71.7759 265.268C-71.7759 265.268 -51.0102 89.7902 87.7316 161.298C99.0974 167.152 109.594 171.887 119.511 175.601C217.225 211.732 230.515 105.201 352.732 121.713C494.07 140.804 504.984 244.885 520.013 273.857" stroke="#628CA5" stroke-opacity="0.3" stroke-width="0.37" stroke-miterlimit="10"/>
<path d="M-69.5107 265.876C-69.5107 265.876 -49.4517 92.3092 88.4375 163.014C99.6685 168.768 110.053 173.477 119.902 177.174C216.658 213.435 231.291 109.377 351.274 125.338C489.717 143.745 501.527 245.063 517.387 275.638" stroke="#628CA5" stroke-opacity="0.3" stroke-width="0.37" stroke-miterlimit="10"/>
<path d="M-67.2612 266.489C-67.2612 266.489 -47.899 94.8148 89.1375 164.718C100.229 170.379 110.51 175.045 120.298 178.738C216.185 214.967 232.061 113.539 349.816 128.94C485.359 146.672 498.064 245.204 514.75 277.392" stroke="#628CA5" stroke-opacity="0.3" stroke-width="0.37" stroke-miterlimit="10"/>
<path d="M-64.9961 267.098C-64.9961 267.098 -46.3406 97.3337 89.8378 166.421C100.794 171.981 110.973 176.604 120.694 180.303C215.706 216.485 232.841 117.706 348.363 132.557C481.011 149.604 494.607 245.36 512.135 279.155" stroke="#628CA5" stroke-opacity="0.3" stroke-width="0.37" stroke-miterlimit="10"/>
<path d="M-62.7357 267.715C-62.7357 267.715 -44.7922 99.8484 90.5437 168.138C101.355 173.593 111.441 178.177 121.086 181.876C215.218 218.022 233.607 121.877 346.91 136.173C476.658 152.544 491.149 245.515 509.514 280.926" stroke="#628CA5" stroke-opacity="0.3" stroke-width="0.37" stroke-miterlimit="10"/>
<path d="M-60.4813 268.319C-60.4813 268.319 -43.2494 102.372 91.2438 169.841C101.921 175.195 111.893 179.731 121.482 183.441C214.749 219.544 234.387 126.044 345.447 139.784C472.3 155.471 487.681 245.665 506.888 282.684" stroke="#628CA5" stroke-opacity="0.3" stroke-width="0.37" stroke-miterlimit="10"/>
<path d="M-58.221 268.936C-58.221 268.936 -41.6908 104.891 91.9496 171.558C102.492 176.811 112.361 181.304 121.868 185.023C214.256 221.09 235.142 130.234 343.984 143.419C467.937 158.43 484.209 245.848 504.247 284.47" stroke="#628CA5" stroke-opacity="0.3" stroke-width="0.37" stroke-miterlimit="10"/>
<path d="M-55.9562 269.544C-55.9562 269.544 -40.148 107.415 92.6496 173.261C103.052 178.422 112.823 182.863 122.264 186.588C213.777 222.608 235.923 134.4 342.526 147.021C463.579 161.357 480.756 245.994 501.62 286.228" stroke="#628CA5" stroke-opacity="0.3" stroke-width="0.37" stroke-miterlimit="10"/>
<path d="M-53.6961 270.162C-53.6961 270.162 -38.6048 109.938 93.3603 174.969C103.618 180.024 113.291 184.435 122.671 188.156C213.309 224.131 236.703 138.567 341.083 150.642C459.236 164.302 477.309 246.153 499.015 287.995" stroke="#628CA5" stroke-opacity="0.3" stroke-width="0.37" stroke-miterlimit="10"/>
<path d="M-51.441 270.766C-51.441 270.766 -37.051 112.466 94.056 176.681C104.179 181.636 113.749 186.003 123.052 189.726C212.826 225.658 237.464 142.747 339.61 154.249C454.863 167.234 473.831 246.299 496.374 289.758" stroke="#628CA5" stroke-opacity="0.3" stroke-width="0.37" stroke-miterlimit="10"/>
<path d="M-49.1809 271.383C-49.1809 271.383 -35.5079 114.99 94.7666 178.389C104.75 183.251 114.222 187.567 123.459 191.294C212.352 227.19 238.255 146.919 338.168 157.87C450.521 170.179 470.384 246.459 493.753 291.529" stroke="#628CA5" stroke-opacity="0.3" stroke-width="0.37" stroke-miterlimit="10"/>
<path d="M-46.9211 272C-46.9211 272 -33.9701 117.523 95.4616 180.101C105.31 184.863 114.679 189.135 123.84 192.864C211.858 228.713 239.004 151.095 336.689 161.486C446.137 173.129 466.896 246.623 491.111 293.292" stroke="#628CA5" stroke-opacity="0.3" stroke-width="0.37" stroke-miterlimit="10"/>
<path d="M-44.6663 272.604C-44.6663 272.604 -32.4318 120.055 96.1723 181.809C105.886 186.47 115.152 190.698 124.246 194.432C211.39 230.236 239.79 155.275 335.252 165.098C441.81 176.069 463.464 246.778 488.506 295.059" stroke="#628CA5" stroke-opacity="0.3" stroke-width="0.37" stroke-miterlimit="10"/>
<path d="M-42.4062 273.222C-42.4062 273.222 -30.8936 122.588 96.8726 183.512C106.436 188.077 115.605 192.253 124.637 196.006C210.917 231.767 240.566 159.45 333.794 168.723C437.447 179.027 460.001 246.942 485.875 296.827" stroke="#628CA5" stroke-opacity="0.3" stroke-width="0.37" stroke-miterlimit="10"/>
<path d="M-40.1413 273.83C-40.1413 273.83 -29.3453 125.125 97.5781 185.229C107.007 189.692 116.048 193.87 125.029 197.579C210.636 232.925 241.326 163.631 332.331 172.334C433.079 181.973 456.533 247.093 483.244 298.594" stroke="#628CA5" stroke-opacity="0.3" stroke-width="0.37" stroke-miterlimit="10"/>
<path d="M-37.8915 274.443C-37.8915 274.443 -27.812 127.667 98.2785 186.932C107.568 191.304 116.51 195.429 125.425 199.144C210.152 234.453 242.097 167.816 330.878 175.951C428.721 184.922 453.076 247.248 480.623 300.366" stroke="#628CA5" stroke-opacity="0.3" stroke-width="0.37" stroke-miterlimit="10"/>
<path d="M-35.6263 275.051C-35.6263 275.051 -26.2787 130.208 98.9789 188.636C108.134 192.906 116.993 196.952 125.811 200.704C209.481 236.323 242.862 171.987 329.405 179.558C424.353 187.867 449.593 247.404 477.987 302.119" stroke="#628CA5" stroke-opacity="0.3" stroke-width="0.37" stroke-miterlimit="10"/>
<path d="M-33.366 275.669C-33.366 275.669 -24.7501 132.759 99.6848 190.353C108.694 194.517 117.461 198.525 126.213 202.282C209.008 237.854 243.633 176.172 327.962 183.178C420.006 190.821 446.156 247.567 475.366 303.891" stroke="#628CA5" stroke-opacity="0.3" stroke-width="0.37" stroke-miterlimit="10"/>
<path d="M-31.1012 276.277C-31.1012 276.277 -23.2118 135.314 100.395 192.06C109.265 196.133 117.934 200.088 126.619 203.85C208.544 239.368 244.414 180.361 326.509 186.795C415.653 193.784 442.699 247.722 472.745 305.663" stroke="#628CA5" stroke-opacity="0.3" stroke-width="0.37" stroke-miterlimit="10"/>
<path d="M-28.8513 276.89C-28.8513 276.89 -21.6938 137.86 101.08 193.768C109.811 197.749 118.381 201.652 126.99 205.415C208.04 240.887 245.159 184.546 325.036 190.402C411.275 196.725 439.22 247.869 470.109 307.417" stroke="#628CA5" stroke-opacity="0.3" stroke-width="0.37" stroke-miterlimit="10"/>
<path d="M-26.5864 277.498C-26.5864 277.498 -20.1656 140.411 101.791 195.476C110.386 199.356 118.843 203.211 127.391 206.993C207.582 242.414 245.935 188.744 323.588 194.032C406.927 199.701 435.768 248.037 467.493 309.202" stroke="#628CA5" stroke-opacity="0.3" stroke-width="0.37" stroke-miterlimit="10"/>
<path d="M-24.3264 278.116C-24.3264 278.116 -18.637 142.984 102.496 197.193C110.952 200.981 119.311 204.783 127.782 208.566C207.098 243.941 246.7 192.938 322.12 197.652C402.555 202.678 432.29 248.206 464.847 310.973" stroke="#628CA5" stroke-opacity="0.3" stroke-width="0.37" stroke-miterlimit="10"/>
<path d="M-22.0714 278.72C-22.0714 278.72 -17.1237 145.539 103.197 198.896C111.508 202.579 119.779 206.333 128.179 210.131C206.709 245.32 247.466 197.131 320.673 201.259C398.197 205.627 428.838 248.352 462.236 312.727" stroke="#628CA5" stroke-opacity="0.3" stroke-width="0.37" stroke-miterlimit="10"/>
<path d="M-19.8115 279.337C-19.8115 279.337 -15.5953 148.112 103.907 200.604C112.079 204.194 120.252 207.897 128.585 211.7C206.241 246.842 248.257 201.325 319.22 204.876C393.84 208.599 425.391 248.512 459.615 314.499" stroke="#628CA5" stroke-opacity="0.3" stroke-width="0.37" stroke-miterlimit="10"/>
<path d="M-17.5465 279.945C-17.5465 279.945 -14.0769 150.681 104.608 202.307C112.639 205.806 120.714 209.456 128.971 213.26C205.752 248.356 249.008 205.523 317.761 208.478C389.487 211.562 421.928 248.653 456.984 316.244" stroke="#628CA5" stroke-opacity="0.3" stroke-width="0.37" stroke-miterlimit="10"/>
<path d="M-15.2967 280.558C-15.2967 280.558 -12.5787 153.264 105.303 204.02C113.2 207.417 121.172 211.024 129.362 214.833C205.279 249.888 249.779 209.73 316.293 212.099C385.109 214.548 418.455 248.813 454.347 318.02" stroke="#628CA5" stroke-opacity="0.3" stroke-width="0.37" stroke-miterlimit="10"/>
<path d="M-13.0316 281.166C-13.0316 281.166 -11.0549 155.846 106.014 205.727C113.76 209.028 121.645 212.587 129.754 216.407C204.795 251.415 250.545 213.946 314.841 215.715C380.747 217.529 414.993 248.977 451.727 319.791" stroke="#628CA5" stroke-opacity="0.3" stroke-width="0.37" stroke-miterlimit="10"/>
<path d="M-10.7717 281.784C-10.7717 281.784 -9.03649 157.526 106.719 207.444C114.297 210.707 122.108 214.169 130.155 217.984C204.322 252.947 251.316 218.176 313.383 219.34C376.385 220.532 411.53 249.141 449.106 321.563" stroke="#628CA5" stroke-opacity="0.3" stroke-width="0.37" stroke-miterlimit="10"/>
<path d="M-8.50658 282.392C-8.50658 282.392 -7.59725 160.239 107.419 209.147C114.862 212.31 122.57 215.728 130.551 219.549C203.853 254.47 252.082 222.392 311.93 222.956C372.028 223.526 408.083 249.301 446.475 323.33" stroke="#628CA5" stroke-opacity="0.3" stroke-width="0.37" stroke-miterlimit="10"/>
<path d="M-3.99147 283.613C-3.99147 283.613 -5.03033 166.233 108.831 212.558C116.024 215.483 123.496 218.846 131.344 222.678C202.891 257.516 253.63 230.842 309.019 230.175C363.314 229.515 401.163 249.598 441.233 326.851" stroke="#628CA5" stroke-opacity="0.3" stroke-width="0.37" stroke-miterlimit="10"/>
<path d="M-1.73164 284.231C-1.73164 284.231 -3.62028 169.045 109.536 214.275C116.574 217.112 123.963 220.418 131.735 224.251C202.418 259.047 254.387 235.098 307.566 233.791C358.958 232.531 397.7 249.762 438.612 328.623" stroke="#628CA5" stroke-opacity="0.3" stroke-width="0.37" stroke-miterlimit="10"/>
<path d="M0.523219 284.835C0.523219 284.835 -2.08733 171.564 110.226 215.974C117.125 218.719 124.416 221.973 132.121 225.811C201.929 260.561 255.165 239.431 306.093 237.399C354.592 235.633 394.222 249.908 435.96 330.381" stroke="#628CA5" stroke-opacity="0.3" stroke-width="0.37" stroke-miterlimit="10"/>
<path d="M2.78319 285.452C2.78319 285.452 -0.963715 160.188 132.518 227.398C265.989 294.604 345.303 162.423 433.345 332.166" stroke="#628CA5" stroke-opacity="0.3" stroke-width="0.37" stroke-miterlimit="10"/>
</g>
</g>
<defs>
<clipPath id="clip0_434_22831">
<rect width="608.049" height="384.013" fill="white" transform="matrix(0.921849 0.387548 -0.481255 0.876581 58.8081 -88)"/>
</clipPath>
</defs>
</svg>
