<svg width="18" height="20" viewBox="0 0 18 20" fill="none" xmlns="http://www.w3.org/2000/svg">
<g clip-path="url(#clip0_38_190)">
<path d="M14.7756 10.3688C14.7672 8.79785 15.4682 7.61215 16.8871 6.73892C16.0932 5.58746 14.8939 4.95395 13.3103 4.82981C11.8111 4.70996 10.1727 5.71588 9.573 5.71588C8.93956 5.71588 7.48687 4.87262 6.34668 4.87262C3.99028 4.91114 1.48608 6.77745 1.48608 10.5743C1.48608 11.6958 1.68878 12.8544 2.09419 14.05C2.63472 15.621 4.58572 19.4735 6.62117 19.4093C7.68535 19.3836 8.43703 18.643 9.82215 18.643C11.165 18.643 11.8618 19.4093 13.0485 19.4093C15.1008 19.3793 16.866 15.8778 17.3812 14.3026C14.6278 12.9885 14.7756 10.4501 14.7756 10.3688ZM12.3855 3.34019C13.5383 1.9533 13.4328 0.690551 13.399 0.236816C12.3812 0.296744 11.203 0.938821 10.5316 1.73072C9.79259 2.57826 9.35763 3.62699 9.45053 4.80841C10.5527 4.89402 11.5578 4.32043 12.3855 3.34019Z" fill="black"/>
</g>
<defs>
<clipPath id="clip0_38_190">
<rect width="16.9282" height="19.2366" fill="white" transform="translate(0.969482 0.236816)"/>
</clipPath>
</defs>
</svg>
