<svg width="38" height="38" viewBox="0 0 38 38" fill="none" xmlns="http://www.w3.org/2000/svg">
<path d="M9.5 12.6667C9.5 12.2468 9.66682 11.844 9.96375 11.5471C10.2607 11.2502 10.6634 11.0833 11.0833 11.0833H26.9167C27.3366 11.0833 27.7393 11.2502 28.0363 11.5471C28.3332 11.844 28.5 12.2468 28.5 12.6667C28.5 13.0866 28.3332 13.4893 28.0363 13.7863C27.7393 14.0832 27.3366 14.25 26.9167 14.25H11.0833C10.6634 14.25 10.2607 14.0832 9.96375 13.7863C9.66682 13.4893 9.5 13.0866 9.5 12.6667ZM12.6667 19C12.6667 18.5801 12.8335 18.1774 13.1304 17.8804C13.4273 17.5835 13.8301 17.4167 14.25 17.4167H23.75C24.1699 17.4167 24.5727 17.5835 24.8696 17.8804C25.1665 18.1774 25.3333 18.5801 25.3333 19C25.3333 19.4199 25.1665 19.8227 24.8696 20.1196C24.5727 20.4165 24.1699 20.5833 23.75 20.5833H14.25C13.8301 20.5833 13.4273 20.4165 13.1304 20.1196C12.8335 19.8227 12.6667 19.4199 12.6667 19ZM17.4167 23.75C16.9967 23.75 16.594 23.9168 16.2971 24.2138C16.0001 24.5107 15.8333 24.9134 15.8333 25.3333C15.8333 25.7533 16.0001 26.156 16.2971 26.4529C16.594 26.7499 16.9967 26.9167 17.4167 26.9167H20.5833C21.0033 26.9167 21.406 26.7499 21.7029 26.4529C21.9999 26.156 22.1667 25.7533 22.1667 25.3333C22.1667 24.9134 21.9999 24.5107 21.7029 24.2138C21.406 23.9168 21.0033 23.75 20.5833 23.75H17.4167Z" fill="#628CA5"/>
</svg>
