<svg width="20" height="34" viewBox="0 0 20 34" fill="none" xmlns="http://www.w3.org/2000/svg">
<path d="M0 16.9904C0 17.3232 0.0589391 17.6303 0.176817 17.9119C0.307793 18.1935 0.504257 18.4623 0.766208 18.7182L16.0707 33.3473C16.516 33.7824 17.053 34 17.6817 34C18.1139 34 18.5003 33.8976 18.8409 33.6928C19.1945 33.5008 19.4761 33.2321 19.6857 32.8865C19.8952 32.5537 20 32.1826 20 31.773C20 31.1587 19.7577 30.6147 19.2731 30.1412L5.48134 16.9904L19.2731 3.83964C19.7577 3.36608 20 2.82853 20 2.22699C20 1.80463 19.8952 1.42707 19.6857 1.0943C19.4761 0.761528 19.1945 0.499153 18.8409 0.307171C18.5003 0.10239 18.1139 0 17.6817 0C17.053 0 16.516 0.21118 16.0707 0.63354L0.766208 15.2626C0.504257 15.5185 0.307793 15.7873 0.176817 16.0689C0.0589391 16.3505 0 16.6576 0 16.9904Z" fill="#717171" fill-opacity="0.3"/>
</svg>
