<svg width="12" height="13" viewBox="0 0 12 13" fill="none" xmlns="http://www.w3.org/2000/svg">
<path d="M4.06598 3.46698C3.981 3.55196 3.92894 3.67006 3.92911 3.79975L3.92911 3.85683C3.92911 4.11656 4.13937 4.32681 4.39876 4.32648H6.96495L2.62396 8.66747C2.44063 8.8508 2.44063 9.14839 2.62396 9.33172C2.80729 9.51506 3.10488 9.51506 3.28821 9.33172L7.6292 4.99073V7.55692C7.6292 7.81665 7.83946 8.0269 8.09885 8.02657L8.15593 8.02657C8.41565 8.02657 8.62591 7.81632 8.62558 7.55693L8.62558 3.79975C8.62558 3.54003 8.41532 3.32977 8.15593 3.3301L4.39876 3.3301C4.2689 3.3301 4.15097 3.38199 4.06598 3.46698Z" fill="#34C759"/>
</svg>
