<svg width="9" height="15" viewBox="0 0 9 15" fill="none" xmlns="http://www.w3.org/2000/svg">
<path d="M0.740479 7.85903C0.740479 7.99351 0.764774 8.11764 0.813365 8.23144C0.867355 8.34523 0.94834 8.45385 1.05632 8.5573L7.36505 14.4693C7.54862 14.6452 7.76998 14.7331 8.02913 14.7331C8.2073 14.7331 8.36657 14.6918 8.50694 14.609C8.65272 14.5314 8.76879 14.4228 8.85518 14.2831C8.94156 14.1487 8.98475 13.9987 8.98475 13.8331C8.98475 13.5849 8.88487 13.365 8.68511 13.1737L2.99996 7.85903L8.68511 2.54439C8.88487 2.35301 8.98475 2.13577 8.98475 1.89267C8.98475 1.72198 8.94156 1.5694 8.85518 1.43492C8.76879 1.30043 8.65272 1.1944 8.50694 1.11681C8.36657 1.03405 8.2073 0.992676 8.02913 0.992676C7.76998 0.992676 7.54862 1.07802 7.36505 1.24871L1.05632 7.16075C0.94834 7.2642 0.867355 7.37282 0.813365 7.48661C0.764774 7.60041 0.740479 7.72454 0.740479 7.85903Z" fill="black"/>
</svg>
