<svg width="50" height="41" viewBox="0 0 50 41" fill="none" xmlns="http://www.w3.org/2000/svg">
<path fill-rule="evenodd" clip-rule="evenodd" d="M26.1874 0.302778C25.8274 0.10453 25.4175 0 25 0C24.5825 0 24.1726 0.10453 23.8126 0.302778L1.15825 12.7485C0.805654 12.9422 0.513255 13.219 0.310075 13.5514C0.106895 13.8838 0 14.2601 0 14.6432C0 15.0262 0.106895 15.4026 0.310075 15.735C0.513255 16.0673 0.805654 16.3441 1.15825 16.5379L23.8126 28.9836C24.1726 29.1818 24.5825 29.2864 25 29.2864C25.4175 29.2864 25.8274 29.1818 26.1874 28.9836L48.8418 16.5379C49.1944 16.3441 49.4867 16.0673 49.6899 15.735C49.8931 15.4026 50 15.0262 50 14.6432C50 14.2601 49.8931 13.8838 49.6899 13.5514C49.4867 13.219 49.1944 12.9422 48.8418 12.7485L26.1874 0.302778ZM25 24.5441L6.97964 14.6432L25 4.74517L43.0204 14.6432L25 24.5412V24.5441ZM3.53305 24.4621C2.99686 24.167 2.35753 24.0836 1.75571 24.2302C1.15388 24.3768 0.638861 24.7415 0.323943 25.244C0.00902448 25.7465 -0.079995 26.3457 0.0764676 26.9097C0.23293 27.4737 0.622058 27.9564 1.15825 28.2515L23.8126 40.6972C24.1726 40.8955 24.5825 41 25 41C25.4175 41 25.8274 40.8955 26.1874 40.6972L48.8418 28.2515C49.1073 28.1054 49.3394 27.9116 49.525 27.6814C49.7107 27.4512 49.8461 27.189 49.9235 26.9097C50.001 26.6304 50.019 26.3396 49.9766 26.0538C49.9341 25.768 49.832 25.4928 49.6761 25.244C49.5201 24.9952 49.3134 24.7776 49.0678 24.6037C48.8221 24.4297 48.5423 24.3028 48.2443 24.2302C47.9463 24.1576 47.636 24.1407 47.331 24.1805C47.0261 24.2203 46.7324 24.316 46.467 24.4621L25 36.2578L3.53305 24.4621Z" fill="white"/>
</svg>
