<svg width="49" height="44" viewBox="0 0 49 44" fill="none" xmlns="http://www.w3.org/2000/svg">
<path fill-rule="evenodd" clip-rule="evenodd" d="M31.8806 0.666116L46.3081 8.3714C47.1262 8.80275 47.8054 9.42116 48.2777 10.1649C48.7501 10.9087 48.9991 11.7518 49 12.6101V26.5263C49 27.3866 48.7511 28.2319 48.2782 28.9776C47.8053 29.7234 47.1249 30.3436 46.305 30.7761L22.5614 43.334L22.5553 43.3368C21.7301 43.7712 20.793 44 19.8389 44C18.8848 44 17.9476 43.7712 17.1224 43.3368H17.1194L2.67357 35.6926C1.85913 35.261 1.18368 34.6432 0.714575 33.9009C0.245467 33.1586 -0.00091271 32.3178 2.5407e-06 31.4622V17.4766C2.5407e-06 16.6322 0.238878 15.8156 0.673753 15.1017L0.686003 15.0878L0.716628 15.035C1.176 14.3073 1.84669 13.6851 2.67663 13.249L26.4631 0.663339C27.2832 0.228925 28.2159 0 29.1657 0C30.1155 0 31.0482 0.228925 31.8684 0.663339L31.8745 0.666116H31.8806ZM28.7783 4.26043C28.8954 4.19845 29.0286 4.16578 29.1642 4.16578C29.2998 4.16578 29.433 4.19845 29.5501 4.26043L42.1523 10.988L20.2493 22.5098C20.1242 22.5759 19.9821 22.6107 19.8373 22.6107C19.6926 22.6107 19.5505 22.5759 19.4254 22.5098L6.82019 15.8767L28.7783 4.26043ZM22.5553 26.1152L26.7356 23.9153V36.3037L22.1419 38.7342V26.3124C22.2838 26.2522 22.4228 26.1864 22.5584 26.1152H22.5553ZM31.3263 33.876V21.5015L35.9844 19.0516V31.4122L31.3263 33.876ZM40.5781 28.9818L43.9928 27.1763H43.9989C44.1231 27.1106 44.2261 27.0165 44.2975 26.9034C44.369 26.7903 44.4065 26.6622 44.4063 26.5319V14.6212L40.5781 16.635V28.9818ZM4.98881 32.0928L17.5451 38.7397V26.3152C17.401 26.2542 17.26 26.1875 17.1224 26.1152L4.59375 19.5238V31.4622C4.59375 31.7261 4.74688 31.965 4.98881 32.0928Z" fill="white"/>
</svg>
