<svg width="53" height="34" viewBox="0 0 53 34" fill="none" xmlns="http://www.w3.org/2000/svg">
<path d="M52.9991 12.9273V12.8869C53.0027 12.8388 52.9952 12.7905 52.9771 12.7452V12.6845C52.9771 12.6441 52.955 12.6036 52.955 12.5632V12.5227C52.9329 12.462 52.9329 12.4216 52.9108 12.3609H52.8887L49.7971 5.28017C49.5383 4.67488 49.0853 4.15564 48.4979 3.79089C47.9106 3.42613 47.2163 3.23298 46.5067 3.23689H38.866V1.61844C38.866 1.18921 38.6799 0.777548 38.3486 0.474031C38.0173 0.170514 37.5679 0 37.0994 0H3.53328C2.59619 0 1.69749 0.341028 1.03487 0.948062C0.372255 1.5551 0 2.37841 0 3.23689V25.8951C0 26.7536 0.372255 27.5769 1.03487 28.1839C1.69749 28.7909 2.59619 29.132 3.53328 29.132H6.40406C6.79325 30.5245 7.67728 31.7588 8.91677 32.6402C10.1563 33.5216 11.6807 34 13.2498 34C14.8189 34 16.3433 33.5216 17.5828 32.6402C18.8223 31.7588 19.7063 30.5245 20.0955 29.132H32.9036C33.2928 30.5245 34.1768 31.7588 35.4163 32.6402C36.6558 33.5216 38.1803 34 39.7494 34C41.3184 34 42.8429 33.5216 44.0824 32.6402C45.3219 31.7588 46.2059 30.5245 46.5951 29.132H49.4659C50.4029 29.132 51.3017 28.7909 51.9643 28.1839C52.6269 27.5769 52.9991 26.7536 52.9991 25.8951V12.9475V12.9273ZM38.866 6.47377H46.5067L48.6267 11.3291H38.866V6.47377ZM3.53328 3.23689H35.3328V16.1844H3.53328V3.23689ZM13.2498 30.7504C12.551 30.7504 11.8678 30.5606 11.2868 30.2049C10.7058 29.8492 10.2529 29.3437 9.98546 28.7522C9.71804 28.1608 9.64807 27.5099 9.7844 26.882C9.92073 26.2542 10.2572 25.6774 10.7514 25.2247C11.2455 24.772 11.8751 24.4637 12.5605 24.3388C13.2459 24.2139 13.9563 24.278 14.6019 24.523C15.2475 24.768 15.7994 25.1829 16.1876 25.7152C16.5758 26.2475 16.7831 26.8733 16.7831 27.5135C16.7831 28.372 16.4108 29.1953 15.7482 29.8024C15.0856 30.4094 14.1869 30.7504 13.2498 30.7504ZM39.7494 30.7504C39.0505 30.7504 38.3674 30.5606 37.7864 30.2049C37.2053 29.8492 36.7525 29.3437 36.485 28.7522C36.2176 28.1608 36.1476 27.5099 36.284 26.882C36.4203 26.2542 36.7568 25.6774 37.2509 25.2247C37.7451 24.772 38.3747 24.4637 39.06 24.3388C39.7454 24.2139 40.4559 24.278 41.1015 24.523C41.7471 24.768 42.2989 25.1829 42.6872 25.7152C43.0754 26.2475 43.2826 26.8733 43.2826 27.5135C43.2826 28.372 42.9104 29.1953 42.2478 29.8024C41.5851 30.4094 40.6864 30.7504 39.7494 30.7504Z" fill="white"/>
</svg>
