<svg width="45" height="37" viewBox="0 0 45 37" fill="none" xmlns="http://www.w3.org/2000/svg">
<path d="M28.8001 3.31535L43.8774 26.2576C46.0441 29.5527 44.9799 33.8879 41.4991 35.9393C40.3309 36.6304 38.9691 36.9987 37.5774 37H7.42052C3.32326 37 0 33.855 0 29.972C0 28.6585 0.389251 27.3738 1.1205 26.2576L16.2 3.31535C18.3646 0.0202646 22.9411 -0.989021 26.4218 1.06244C27.3848 1.62978 28.1993 2.40062 28.8001 3.31535ZM22.5001 28.7777C23.0968 28.7777 23.6691 28.5611 24.0911 28.1756C24.513 27.7902 24.7501 27.2673 24.7501 26.7221C24.7501 26.177 24.513 25.6541 24.0911 25.2686C23.6691 24.8831 23.0968 24.6666 22.5001 24.6666C21.9033 24.6666 21.331 24.8831 20.9091 25.2686C20.4871 25.6541 20.2501 26.177 20.2501 26.7221C20.2501 27.2673 20.4871 27.7902 20.9091 28.1756C21.331 28.5611 21.9033 28.7777 22.5001 28.7777ZM22.5001 10.2776C21.9033 10.2776 21.331 10.4941 20.9091 10.8796C20.4871 11.2651 20.2501 11.788 20.2501 12.3331V20.5554C20.2501 21.1006 20.4871 21.6234 20.9091 22.0089C21.331 22.3944 21.9033 22.611 22.5001 22.611C23.0968 22.611 23.6691 22.3944 24.0911 22.0089C24.513 21.6234 24.7501 21.1006 24.7501 20.5554V12.3331C24.7501 11.788 24.513 11.2651 24.0911 10.8796C23.6691 10.4941 23.0968 10.2776 22.5001 10.2776Z" fill="white"/>
</svg>
