<svg width="170" height="161" viewBox="0 0 170 161" fill="none" xmlns="http://www.w3.org/2000/svg">
<g clip-path="url(#clip0_200_2150)">
<path d="M158.238 157.573C161.291 152.199 163.313 146.15 164.403 139.947C170.838 103.375 158.075 60.054 121.553 44.62C108.963 39.3014 94.5115 38.5014 81.4616 42.6025C66.6394 47.2636 57.1063 58.8748 45.1883 68.1101C36.7803 74.6253 26.1465 77.8046 18.4169 85.2207C10.2547 93.0507 5.02084 104.311 5.00007 115.713C4.98276 123.731 8.20198 131.512 14.6819 136.406C21.0338 141.203 29.1165 142.452 36.0049 146.202C43.6756 150.379 48.2899 157.67 54.4271 163.615C68.5848 177.334 89.797 181.581 108.849 180.938C127.555 180.305 148.345 174.99 158.242 157.569L158.238 157.573Z" fill="#75A9C8"/>
<path opacity="0.7" d="M158.238 157.573C161.291 152.199 163.313 146.15 164.403 139.947C170.838 103.375 158.075 60.054 121.553 44.62C108.963 39.3014 94.5115 38.5014 81.4616 42.6025C66.6394 47.2636 57.1063 58.8748 45.1883 68.1101C36.7803 74.6253 26.1465 77.8046 18.4169 85.2207C10.2547 93.0507 5.02084 104.311 5.00007 115.713C4.98276 123.731 8.20198 131.512 14.6819 136.406C21.0338 141.203 29.1165 142.452 36.0049 146.202C43.6756 150.379 48.2899 157.67 54.4271 163.615C68.5848 177.334 89.797 181.581 108.849 180.938C127.555 180.305 148.345 174.99 158.242 157.569L158.238 157.573Z" fill="white"/>
<path d="M132.025 144.86C133.014 145.293 135.432 145.238 135.435 145.238C135.461 145.238 134.915 143.653 134.868 143.558C134.337 142.449 132.657 140.613 131.294 140.798C130.308 140.933 129.763 141.915 129.985 142.842C130.21 143.787 131.181 144.493 132.025 144.86Z" fill="#75A9C8"/>
<path d="M132.86 151.866C133.885 152.016 136.045 151.39 136.216 151.339C136.558 152.546 137.005 153.761 137.525 154.964C137.823 155.652 138.143 156.335 138.474 157.015C138.278 156.728 138.1 156.47 138.071 156.437C137.264 155.506 135.162 154.183 133.893 154.721C132.98 155.11 132.711 156.204 133.169 157.037C133.638 157.888 134.758 158.31 135.671 158.444C136.594 158.579 138.445 158.081 138.933 157.943C139.063 158.204 139.187 158.463 139.318 158.724C139.943 159.968 140.572 161.208 141.154 162.444C141.358 162.88 141.543 163.317 141.732 163.75C141.558 163.495 141.409 163.28 141.38 163.248C140.576 162.317 138.471 160.993 137.202 161.531C136.289 161.921 136.02 163.015 136.478 163.848C136.947 164.699 138.067 165.12 138.98 165.255C139.86 165.382 141.572 164.939 142.154 164.779C142.332 165.229 142.511 165.684 142.663 166.128C142.761 166.433 142.874 166.724 142.954 167.037C143.041 167.346 143.125 167.651 143.209 167.953C143.351 168.542 143.5 169.149 143.623 169.727C143.71 170.127 143.79 170.513 143.867 170.898C143.667 170.462 143.26 169.618 143.22 169.553C142.565 168.509 140.685 166.884 139.351 167.222C138.387 167.466 137.958 168.509 138.285 169.404C138.62 170.317 139.663 170.906 140.543 171.175C141.511 171.469 143.656 171.2 143.921 171.164C144.049 171.804 144.169 172.429 144.27 173.018C144.5 174.32 144.674 175.491 144.805 176.48H145.707C145.55 175.458 145.343 174.236 145.07 172.869C144.943 172.218 144.794 171.527 144.634 170.815C144.794 170.749 145.71 170.382 146.518 169.927C147.223 170.691 149.03 171.586 149.267 171.698C149.019 172.302 148.776 172.891 148.536 173.44C148.038 174.589 147.561 175.611 147.143 176.48H148.121C148.481 175.68 148.878 174.767 149.292 173.76C149.543 173.145 149.801 172.487 150.059 171.807C150.317 171.862 152.441 172.291 153.43 172.069C154.328 171.866 155.412 171.36 155.815 170.473C156.208 169.604 155.855 168.535 154.914 168.218C153.608 167.778 151.612 169.262 150.881 170.255C150.837 170.313 150.441 171 150.197 171.436C150.303 171.156 150.405 170.887 150.51 170.6C150.717 170.033 150.91 169.458 151.117 168.844C151.208 168.542 151.299 168.24 151.39 167.931C151.488 167.629 151.554 167.295 151.634 166.975C151.812 166.229 151.954 165.466 152.085 164.691C152.583 164.873 154.361 165.491 155.281 165.426C156.197 165.36 157.35 165.026 157.881 164.208C158.401 163.408 158.215 162.299 157.332 161.844C156.106 161.211 153.91 162.379 153.037 163.244C152.983 163.299 152.426 163.993 152.128 164.379C152.201 163.913 152.277 163.448 152.336 162.975C152.506 161.608 152.634 160.219 152.768 158.833C152.808 158.408 152.856 157.986 152.899 157.564C153.077 157.63 155.172 158.412 156.204 158.339C157.121 158.273 158.273 157.939 158.804 157.121C159.324 156.321 159.139 155.212 158.255 154.757C157.03 154.125 154.834 155.292 153.961 156.157C153.895 156.223 153.096 157.223 152.906 157.484C153.005 156.554 153.11 155.626 153.255 154.717C153.448 153.463 153.71 152.241 154.048 151.077C154.132 151.11 156.317 151.932 157.372 151.859C158.288 151.794 159.441 151.459 159.972 150.641C160.492 149.841 160.306 148.732 159.422 148.278C158.197 147.645 156.001 148.812 155.128 149.677C155.059 149.747 154.201 150.819 154.059 151.026C154.081 150.957 154.092 150.885 154.114 150.816C154.492 149.579 155.015 148.427 155.557 147.372C155.87 146.758 156.204 146.19 156.543 145.645C156.935 145.841 158.732 146.714 159.692 146.75C160.612 146.787 161.79 146.579 162.408 145.827C163.011 145.089 162.95 143.965 162.124 143.416C160.975 142.652 158.666 143.569 157.703 144.336C157.652 144.376 157.164 144.86 156.815 145.216C156.972 144.972 157.128 144.718 157.281 144.485C157.859 143.616 158.437 142.856 158.961 142.187C159.259 141.809 159.539 141.474 159.801 141.162C160.284 141.154 162.233 141.092 163.088 140.692C163.92 140.3 164.873 139.572 165.073 138.62C165.269 137.689 164.695 136.718 163.71 136.613C162.339 136.464 160.71 138.343 160.212 139.467C160.168 139.565 159.666 141.162 159.692 141.162C159.692 141.162 159.713 141.162 159.721 141.162C159.462 141.456 159.186 141.776 158.895 142.129C158.361 142.787 157.761 143.536 157.161 144.394C156.561 145.252 155.935 146.198 155.364 147.256C154.79 148.318 154.241 149.459 153.83 150.714C153.826 150.728 153.823 150.743 153.819 150.757C153.826 150.354 153.808 149.223 153.797 149.139C153.637 147.918 152.616 145.652 151.259 145.401C150.281 145.219 149.456 145.987 149.379 146.936C149.299 147.907 150.005 148.878 150.688 149.488C151.463 150.179 153.608 150.848 153.779 150.899C153.397 152.096 153.103 153.354 152.874 154.645C152.743 155.383 152.634 156.128 152.532 156.881C152.528 156.532 152.521 156.219 152.514 156.175C152.354 154.954 151.332 152.688 149.976 152.437C148.998 152.256 148.172 153.023 148.096 153.972C148.016 154.943 148.718 155.914 149.405 156.524C150.099 157.146 151.917 157.753 152.401 157.906C152.365 158.193 152.328 158.481 152.292 158.772C152.128 160.153 151.968 161.535 151.772 162.884C151.703 163.36 151.616 163.826 151.532 164.291C151.528 163.982 151.521 163.72 151.514 163.68C151.354 162.459 150.332 160.193 148.976 159.942C147.998 159.761 147.172 160.528 147.096 161.477C147.016 162.448 147.721 163.419 148.405 164.03C149.067 164.622 150.743 165.197 151.314 165.382C151.212 165.859 151.114 166.335 150.994 166.789C150.907 167.098 150.841 167.404 150.736 167.709C150.637 168.015 150.539 168.317 150.445 168.615C150.237 169.186 150.027 169.771 149.812 170.324C149.663 170.709 149.517 171.069 149.368 171.436C149.441 170.964 149.568 170.037 149.572 169.957C149.59 169.138 149.299 167.811 148.721 166.877C148.721 166.757 148.721 166.637 148.699 166.517C148.547 165.575 147.663 164.877 146.703 165.131C145.372 165.488 144.525 167.826 144.463 169.055C144.46 169.127 144.507 169.92 144.547 170.418C144.481 170.127 144.42 169.847 144.347 169.549C144.209 168.96 144.049 168.375 143.885 167.749C143.794 167.448 143.703 167.146 143.609 166.837C143.525 166.531 143.394 166.219 143.289 165.906C143.027 165.186 142.725 164.47 142.401 163.753C142.918 163.63 144.743 163.164 145.474 162.601C146.205 162.041 146.976 161.124 146.969 160.153C146.961 159.201 146.194 158.375 145.209 158.484C143.838 158.633 142.649 160.815 142.401 162.022C142.387 162.099 142.303 162.982 142.271 163.47C142.074 163.04 141.881 162.611 141.671 162.186C141.06 160.953 140.402 159.724 139.747 158.495C139.547 158.117 139.354 157.743 139.158 157.364C139.343 157.321 141.521 156.815 142.343 156.186C143.074 155.626 143.845 154.71 143.838 153.739C143.83 152.786 143.063 151.961 142.078 152.07C140.707 152.219 139.518 154.401 139.271 155.608C139.253 155.699 139.136 156.972 139.125 157.299C138.693 156.47 138.271 155.637 137.889 154.797C137.358 153.645 136.904 152.481 136.544 151.325C136.631 151.306 138.907 150.787 139.747 150.143C140.478 149.583 141.249 148.667 141.242 147.696C141.234 146.743 140.467 145.918 139.482 146.027C138.111 146.176 136.922 148.358 136.674 149.565C136.656 149.659 136.533 151.03 136.529 151.281C136.507 151.212 136.478 151.143 136.456 151.074C136.089 149.834 135.889 148.583 135.758 147.405C135.682 146.721 135.645 146.063 135.627 145.419C136.06 145.365 138.042 145.103 138.863 144.605C139.649 144.129 140.518 143.303 140.62 142.336C140.718 141.387 140.045 140.485 139.053 140.482C137.674 140.482 136.253 142.518 135.874 143.689C135.853 143.754 135.714 144.423 135.624 144.914C135.62 144.623 135.609 144.325 135.609 144.049C135.609 143.005 135.678 142.052 135.744 141.209C135.784 140.729 135.831 140.296 135.878 139.889C136.278 139.616 137.871 138.489 138.362 137.685C138.842 136.9 139.231 135.769 138.874 134.864C138.525 133.976 137.511 133.486 136.631 133.94C135.405 134.573 135.085 137.038 135.285 138.253C135.304 138.358 135.765 139.965 135.787 139.954C135.787 139.954 135.805 139.94 135.813 139.936C135.758 140.325 135.707 140.743 135.656 141.198C135.573 142.041 135.485 142.998 135.46 144.045C135.435 145.092 135.431 146.227 135.54 147.423C135.645 148.623 135.82 149.881 136.165 151.154C136.169 151.168 136.176 151.183 136.18 151.197C135.962 150.856 135.325 149.925 135.267 149.859C134.464 148.928 132.358 147.605 131.089 148.143C130.177 148.532 129.907 149.627 130.366 150.459C130.835 151.314 131.955 151.732 132.867 151.866H132.86Z" fill="#75A9C8"/>
<path d="M156.495 145.391C156.517 145.406 156.935 143.784 156.95 143.678C157.121 142.46 156.732 140.006 155.488 139.406C154.594 138.973 153.594 139.493 153.27 140.388C152.936 141.3 153.357 142.424 153.859 143.195C154.445 144.1 156.495 145.391 156.495 145.391Z" fill="#75A9C8"/>
<path opacity="0.1" d="M37.0822 38.8282C37.0822 41.6935 31.897 47.675 31.897 47.675C31.897 47.675 26.7117 41.6935 26.7117 38.8282C26.7117 35.9628 29.0316 33.643 31.897 33.643C34.7623 33.643 37.0822 35.9628 37.0822 38.8282ZM86.7998 137.653C83.9345 137.653 81.6146 139.973 81.6146 142.838C81.6146 145.703 86.7998 151.685 86.7998 151.685C86.7998 151.685 91.9851 145.703 91.9851 142.838C91.9851 139.973 89.6652 137.653 86.7998 137.653ZM130.114 19C127.249 19 124.929 21.3199 124.929 24.1852C124.929 27.0505 130.114 33.0321 130.114 33.0321C130.114 33.0321 135.299 27.0505 135.299 24.1852C135.299 21.3199 132.979 19 130.114 19ZM14.8141 87.3241C11.9488 87.3241 9.62891 89.644 9.62891 92.5093C9.62891 95.3746 14.8141 101.356 14.8141 101.356C14.8141 101.356 19.9993 95.3746 19.9993 92.5093C19.9993 89.644 17.6794 87.3241 14.8141 87.3241ZM152.684 85.4951C149.819 85.4951 147.499 87.815 147.499 90.6803C147.499 93.5456 152.684 99.5272 152.684 99.5272C152.684 99.5272 157.869 93.5456 157.869 90.6803C157.869 87.815 155.549 85.4951 152.684 85.4951ZM130.114 26.3778H127.932C127.732 26.3778 127.569 26.2142 127.569 26.0142C127.569 25.8142 127.732 25.6506 127.932 25.6506H130.114C130.314 25.6506 130.478 25.8142 130.478 26.0142C130.478 26.2142 130.314 26.3778 130.114 26.3778ZM107.846 144.67C107.846 144.471 107.682 144.307 107.483 144.307H103.137C102.937 144.307 102.774 144.471 102.774 144.67C102.774 144.87 102.937 145.034 103.137 145.034H107.483C107.682 145.034 107.846 144.87 107.846 144.67ZM99.1593 144.67C99.1593 144.471 98.9956 144.307 98.7957 144.307H94.4504C94.2504 144.307 94.0868 144.471 94.0868 144.67C94.0868 144.87 94.2504 145.034 94.4504 145.034H98.7957C98.9956 145.034 99.1593 144.87 99.1593 144.67ZM111.864 144.998C113.413 144.83 114.831 144.089 115.857 142.907C115.988 142.754 115.973 142.525 115.82 142.394C115.668 142.263 115.438 142.278 115.308 142.431C114.402 143.474 113.151 144.129 111.784 144.274C111.584 144.296 111.439 144.474 111.461 144.674C111.479 144.86 111.639 144.998 111.82 144.998C111.835 144.998 111.846 144.998 111.86 144.998H111.864ZM90.4979 144.409C90.5779 144.223 90.4906 144.009 90.3051 143.932C89.047 143.394 88.0907 142.34 87.6834 141.038C87.6253 140.845 87.4216 140.74 87.2289 140.802C87.0362 140.863 86.9307 141.067 86.9926 141.256C87.4653 142.761 88.5707 143.98 90.0215 144.601C90.0688 144.62 90.116 144.63 90.1633 144.63C90.3051 144.63 90.4397 144.547 90.4979 144.409ZM117.362 138.671V134.326C117.362 134.126 117.198 133.962 116.998 133.962C116.798 133.962 116.635 134.126 116.635 134.326V138.671C116.635 138.871 116.798 139.034 116.998 139.034C117.198 139.034 117.362 138.871 117.362 138.671ZM87.4689 136.827V133.842C87.4689 133.369 87.4325 132.896 87.3635 132.435C87.3344 132.235 87.1489 132.1 86.9489 132.129C86.7489 132.158 86.6144 132.344 86.6435 132.544C86.7089 132.969 86.7417 133.409 86.7417 133.842V136.827C86.7417 137.027 86.9053 137.191 87.1053 137.191C87.3053 137.191 87.4689 137.027 87.4689 136.827ZM117.362 129.984V125.639C117.362 125.439 117.198 125.275 116.998 125.275C116.798 125.275 116.635 125.439 116.635 125.639V129.984C116.635 130.184 116.798 130.348 116.998 130.348C117.198 130.348 117.362 130.184 117.362 129.984ZM85.5781 128.809C85.7381 128.689 85.7744 128.464 85.6544 128.3C84.7599 127.086 83.5745 126.093 82.2219 125.431C82.0437 125.344 81.8255 125.417 81.7346 125.599C81.6474 125.78 81.7201 125.995 81.9019 126.086C83.1491 126.697 84.2436 127.613 85.069 128.733C85.1417 128.831 85.2508 128.882 85.3635 128.882C85.4399 128.882 85.5126 128.86 85.5781 128.813V128.809ZM78.2221 124.846C78.2221 124.646 78.0584 124.482 77.8584 124.482H73.5132C73.3132 124.482 73.1496 124.646 73.1496 124.846C73.1496 125.046 73.3132 125.21 73.5132 125.21H77.8584C78.0584 125.21 78.2221 125.046 78.2221 124.846ZM69.5352 124.846C69.5352 124.646 69.3716 124.482 69.1716 124.482H64.8263C64.6263 124.482 64.4627 124.646 64.4627 124.846C64.4627 125.046 64.6263 125.21 64.8263 125.21H69.1716C69.3716 125.21 69.5352 125.046 69.5352 124.846ZM60.8483 124.846C60.8483 124.646 60.6847 124.482 60.4847 124.482H56.1395C55.9395 124.482 55.7758 124.646 55.7758 124.846C55.7758 125.046 55.9395 125.21 56.1395 125.21H60.4847C60.6847 125.21 60.8483 125.046 60.8483 124.846ZM52.1615 124.846C52.1615 124.646 51.9978 124.482 51.7978 124.482H47.4526C47.2526 124.482 47.089 124.646 47.089 124.846C47.089 125.046 47.2526 125.21 47.4526 125.21H51.7978C51.9978 125.21 52.1615 125.046 52.1615 124.846ZM43.4746 124.846C43.4746 124.646 43.311 124.482 43.111 124.482H38.7657C38.5657 124.482 38.4021 124.646 38.4021 124.846C38.4021 125.046 38.5657 125.21 38.7657 125.21H43.111C43.311 125.21 43.4746 125.046 43.4746 124.846ZM34.7877 124.846C34.7877 124.646 34.6241 124.482 34.4241 124.482H30.0789C29.8789 124.482 29.7152 124.646 29.7152 124.846C29.7152 125.046 29.8789 125.21 30.0789 125.21H34.4241C34.6241 125.21 34.7877 125.046 34.7877 124.846ZM26.1009 124.846C26.1009 124.646 25.9372 124.482 25.7372 124.482H21.392C21.192 124.482 21.0284 124.646 21.0284 124.846C21.0284 125.046 21.192 125.21 21.392 125.21H25.7372C25.9372 125.21 26.1009 125.046 26.1009 124.846ZM17.4904 124.268C17.5813 124.09 17.5085 123.871 17.3304 123.781C16.105 123.166 15.0759 122.159 14.4323 120.948C14.3378 120.77 14.116 120.704 13.9414 120.799C13.7633 120.893 13.6978 121.115 13.7923 121.29C14.505 122.635 15.6468 123.751 17.0067 124.431C17.0577 124.457 17.1158 124.471 17.1704 124.471C17.3049 124.471 17.4322 124.399 17.494 124.271L17.4904 124.268ZM13.6578 116.908V112.563C13.6578 112.363 13.4942 112.199 13.2942 112.199C13.0942 112.199 12.9306 112.363 12.9306 112.563V116.908C12.9306 117.108 13.0942 117.272 13.2942 117.272C13.4942 117.272 13.6578 117.108 13.6578 116.908ZM13.6578 108.221V103.876C13.6578 103.676 13.4942 103.512 13.2942 103.512C13.0942 103.512 12.9306 103.676 12.9306 103.876V108.221C12.9306 108.421 13.0942 108.585 13.2942 108.585C13.4942 108.585 13.6578 108.421 13.6578 108.221ZM13.6578 99.5344V97.7018C13.6578 96.9273 13.8833 96.1782 14.3123 95.5346C14.425 95.3673 14.3778 95.1419 14.2105 95.0292C14.0432 94.9165 13.8178 94.9637 13.7051 95.131C13.196 95.8946 12.9269 96.7818 12.9269 97.7018V99.5344C12.9269 99.7344 13.0906 99.898 13.2906 99.898C13.4905 99.898 13.6542 99.7344 13.6542 99.5344H13.6578ZM161.138 93.4911C161.327 93.4293 161.433 93.222 161.367 93.0329C161.305 92.8438 161.098 92.7384 160.909 92.8038C160.375 92.982 159.815 93.0693 159.247 93.0693H156.709C156.509 93.0693 156.346 93.2329 156.346 93.4329C156.346 93.6329 156.509 93.7965 156.709 93.7965H159.247C159.895 93.7965 160.531 93.6947 161.138 93.4911ZM152.731 93.4329C152.731 93.2329 152.568 93.0693 152.368 93.0693H148.022C147.822 93.0693 147.659 93.2329 147.659 93.4329C147.659 93.6329 147.822 93.7965 148.022 93.7965H152.368C152.568 93.7965 152.731 93.6329 152.731 93.4329ZM144.044 93.4329C144.044 93.2329 143.881 93.0693 143.681 93.0693H139.336C139.136 93.0693 138.972 93.2329 138.972 93.4329C138.972 93.6329 139.136 93.7965 139.336 93.7965H143.681C143.881 93.7965 144.044 93.6329 144.044 93.4329ZM135.358 93.4329C135.358 93.2329 135.194 93.0693 134.994 93.0693H130.649C130.449 93.0693 130.285 93.2329 130.285 93.4329C130.285 93.6329 130.449 93.7965 130.649 93.7965H134.994C135.194 93.7965 135.358 93.6329 135.358 93.4329ZM126.671 93.4329C126.671 93.2329 126.507 93.0693 126.307 93.0693H121.962C121.762 93.0693 121.598 93.2329 121.598 93.4329C121.598 93.6329 121.762 93.7965 121.962 93.7965H126.307C126.507 93.7965 126.671 93.6329 126.671 93.4329ZM117.984 93.4329C117.984 93.2329 117.82 93.0693 117.62 93.0693H113.275C113.075 93.0693 112.911 93.2329 112.911 93.4329C112.911 93.6329 113.075 93.7965 113.275 93.7965H117.62C117.82 93.7965 117.984 93.6329 117.984 93.4329ZM109.297 93.4329C109.297 93.2329 109.133 93.0693 108.933 93.0693H104.588C104.388 93.0693 104.224 93.2329 104.224 93.4329C104.224 93.6329 104.388 93.7965 104.588 93.7965H108.933C109.133 93.7965 109.297 93.6329 109.297 93.4329ZM100.61 93.4329C100.61 93.2329 100.446 93.0693 100.246 93.0693H95.9012C95.7012 93.0693 95.5376 93.2329 95.5376 93.4329C95.5376 93.6329 95.7012 93.7965 95.9012 93.7965H100.246C100.446 93.7965 100.61 93.6329 100.61 93.4329ZM91.9232 93.4329C91.9232 93.2329 91.7596 93.0693 91.5596 93.0693H87.2144C87.0144 93.0693 86.8508 93.2329 86.8508 93.4329C86.8508 93.6329 87.0144 93.7965 87.2144 93.7965H91.5596C91.7596 93.7965 91.9232 93.6329 91.9232 93.4329ZM83.2364 93.4329C83.2364 93.2329 83.0727 93.0693 82.8728 93.0693H78.5275C78.3275 93.0693 78.1639 93.2329 78.1639 93.4329C78.1639 93.6329 78.3275 93.7965 78.5275 93.7965H82.8728C83.0727 93.7965 83.2364 93.6329 83.2364 93.4329ZM74.5495 93.4329C74.5495 93.2329 74.3859 93.0693 74.1859 93.0693H69.8406C69.6406 93.0693 69.477 93.2329 69.477 93.4329C69.477 93.6329 69.6406 93.7965 69.8406 93.7965H74.1859C74.3859 93.7965 74.5495 93.6329 74.5495 93.4329ZM65.8626 93.4329C65.8626 93.2329 65.699 93.0693 65.499 93.0693H61.1538C60.9538 93.0693 60.7901 93.2329 60.7901 93.4329C60.7901 93.6329 60.9538 93.7965 61.1538 93.7965H65.499C65.699 93.7965 65.8626 93.6329 65.8626 93.4329ZM57.1758 93.4329C57.1758 93.2329 57.0121 93.0693 56.8122 93.0693H52.4669C52.2669 93.0693 52.1033 93.2329 52.1033 93.4329C52.1033 93.6329 52.2669 93.7965 52.4669 93.7965H56.8122C57.0121 93.7965 57.1758 93.6329 57.1758 93.4329ZM48.4889 93.4329C48.4889 93.2329 48.3253 93.0693 48.1253 93.0693H43.78C43.58 93.0693 43.4164 93.2329 43.4164 93.4329C43.4164 93.6329 43.58 93.7965 43.78 93.7965H48.1253C48.3253 93.7965 48.4889 93.6329 48.4889 93.4329ZM39.802 93.4329C39.802 93.2329 39.6384 93.0693 39.4384 93.0693H35.0932C34.8932 93.0693 34.7296 93.2329 34.7296 93.4329C34.7296 93.6329 34.8932 93.7965 35.0932 93.7965H39.4384C39.6384 93.7965 39.802 93.6329 39.802 93.4329ZM31.1152 93.4329C31.1152 93.2329 30.9515 93.0693 30.7516 93.0693H26.4063C26.2063 93.0693 26.0427 93.2329 26.0427 93.4329C26.0427 93.6329 26.2063 93.7965 26.4063 93.7965H30.7516C30.9515 93.7965 31.1152 93.6329 31.1152 93.4329ZM22.4283 93.4329C22.4283 93.2329 22.2647 93.0693 22.0647 93.0693H17.7194C17.5194 93.0693 17.3558 93.2329 17.3558 93.4329C17.3558 93.6329 17.5194 93.7965 17.7194 93.7965H22.0647C22.2647 93.7965 22.4283 93.6329 22.4283 93.4329ZM164.585 90.5712C165.033 89.7203 165.265 88.7567 165.265 87.7895V86.1605C165.265 85.9605 165.102 85.7969 164.902 85.7969C164.702 85.7969 164.538 85.9605 164.538 86.1605V87.7895C164.538 88.6404 164.331 89.484 163.938 90.233C163.844 90.4112 163.913 90.6294 164.091 90.7239C164.145 90.753 164.203 90.7639 164.258 90.7639C164.389 90.7639 164.516 90.6912 164.582 90.5676L164.585 90.5712ZM165.265 81.8189V77.4736C165.265 77.2736 165.102 77.11 164.902 77.11C164.702 77.11 164.538 77.2736 164.538 77.4736V81.8189C164.538 82.0189 164.702 82.1825 164.902 82.1825C165.102 82.1825 165.265 82.0189 165.265 81.8189ZM165.265 73.132V71.623C165.265 70.6121 165.011 69.6122 164.523 68.7286C164.425 68.554 164.207 68.4886 164.029 68.5868C163.854 68.685 163.789 68.9031 163.887 69.0813C164.313 69.8558 164.538 70.7358 164.538 71.623V73.132C164.538 73.332 164.702 73.4956 164.902 73.4956C165.102 73.4956 165.265 73.332 165.265 73.132ZM161.269 66.336C161.327 66.1433 161.222 65.9396 161.029 65.8814C160.458 65.7069 159.862 65.616 159.262 65.616H156.604C156.404 65.616 156.24 65.7796 156.24 65.9796C156.24 66.1796 156.404 66.3432 156.604 66.3432H159.262C159.793 66.3432 160.316 66.4232 160.818 66.576C160.855 66.5869 160.891 66.5905 160.924 66.5905C161.08 66.5905 161.222 66.4887 161.273 66.3323L161.269 66.336ZM152.622 65.9796C152.622 65.7796 152.459 65.616 152.259 65.616H147.913C147.713 65.616 147.55 65.7796 147.55 65.9796C147.55 66.1796 147.713 66.3432 147.913 66.3432H152.259C152.459 66.3432 152.622 66.1796 152.622 65.9796ZM143.935 65.9796C143.935 65.7796 143.772 65.616 143.572 65.616H139.226C139.026 65.616 138.863 65.7796 138.863 65.9796C138.863 66.1796 139.026 66.3432 139.226 66.3432H143.572C143.772 66.3432 143.935 66.1796 143.935 65.9796ZM135.248 65.9796C135.248 65.7796 135.085 65.616 134.885 65.616H130.54C130.34 65.616 130.176 65.7796 130.176 65.9796C130.176 66.1796 130.34 66.3432 130.54 66.3432H134.885C135.085 66.3432 135.248 66.1796 135.248 65.9796ZM126.562 65.9796C126.562 65.7796 126.398 65.616 126.198 65.616H121.853C121.653 65.616 121.489 65.7796 121.489 65.9796C121.489 66.1796 121.653 66.3432 121.853 66.3432H126.198C126.398 66.3432 126.562 66.1796 126.562 65.9796ZM117.875 65.9796C117.875 65.7796 117.711 65.616 117.511 65.616H113.166C112.966 65.616 112.802 65.7796 112.802 65.9796C112.802 66.1796 112.966 66.3432 113.166 66.3432H117.511C117.711 66.3432 117.875 66.1796 117.875 65.9796ZM109.188 65.9796C109.188 65.7796 109.024 65.616 108.824 65.616H104.479C104.279 65.616 104.115 65.7796 104.115 65.9796C104.115 66.1796 104.279 66.3432 104.479 66.3432H108.824C109.024 66.3432 109.188 66.1796 109.188 65.9796ZM100.501 65.9796C100.501 65.7796 100.337 65.616 100.137 65.616H95.7922C95.5922 65.616 95.4285 65.7796 95.4285 65.9796C95.4285 66.1796 95.5922 66.3432 95.7922 66.3432H100.137C100.337 66.3432 100.501 66.1796 100.501 65.9796ZM91.8142 65.9796C91.8142 65.7796 91.6505 65.616 91.4505 65.616H87.1053C86.9053 65.616 86.7417 65.7796 86.7417 65.9796C86.7417 66.1796 86.9053 66.3432 87.1053 66.3432H91.4505C91.6505 66.3432 91.8142 66.1796 91.8142 65.9796ZM83.1273 65.9796C83.1273 65.7796 82.9637 65.616 82.7637 65.616H78.4184C78.2184 65.616 78.0548 65.7796 78.0548 65.9796C78.0548 66.1796 78.2184 66.3432 78.4184 66.3432H82.7637C82.9637 66.3432 83.1273 66.1796 83.1273 65.9796ZM74.4404 65.9796C74.4404 65.7796 74.2768 65.616 74.0768 65.616H69.7316C69.5316 65.616 69.3679 65.7796 69.3679 65.9796C69.3679 66.1796 69.5316 66.3432 69.7316 66.3432H74.0768C74.2768 66.3432 74.4404 66.1796 74.4404 65.9796ZM65.7536 65.9796C65.7536 65.7796 65.5899 65.616 65.3899 65.616H61.0447C60.8447 65.616 60.6811 65.7796 60.6811 65.9796C60.6811 66.1796 60.8447 66.3432 61.0447 66.3432H65.3899C65.5899 66.3432 65.7536 66.1796 65.7536 65.9796ZM57.0667 65.9796C57.0667 65.7796 56.9031 65.616 56.7031 65.616H52.3578C52.1578 65.616 51.9942 65.7796 51.9942 65.9796C51.9942 66.1796 52.1578 66.3432 52.3578 66.3432H56.7031C56.9031 66.3432 57.0667 66.1796 57.0667 65.9796ZM48.3798 65.9796C48.3798 65.7796 48.2162 65.616 48.0162 65.616H43.671C43.471 65.616 43.3073 65.7796 43.3073 65.9796C43.3073 66.1796 43.471 66.3432 43.671 66.3432H48.0162C48.2162 66.3432 48.3798 66.1796 48.3798 65.9796ZM39.693 65.9796C39.693 65.7796 39.5293 65.616 39.3293 65.616H34.9841C34.7841 65.616 34.6205 65.7796 34.6205 65.9796C34.6205 66.1796 34.7841 66.3432 34.9841 66.3432H39.3293C39.5293 66.3432 39.693 66.1796 39.693 65.9796ZM31.257 64.8815C31.3952 64.736 31.3915 64.507 31.2461 64.3688C30.3443 63.507 29.8461 62.3471 29.8461 61.0999V60.7071C29.8461 60.5072 29.6825 60.3435 29.4825 60.3435C29.2825 60.3435 29.1189 60.5072 29.1189 60.7071V61.0999C29.1189 62.5471 29.6971 63.8961 30.7443 64.896C30.8134 64.9615 30.9043 64.9979 30.9952 64.9979C31.0897 64.9979 31.1879 64.9615 31.257 64.8851V64.8815ZM29.8461 56.3619V52.0166C29.8461 51.8167 29.6825 51.653 29.4825 51.653C29.2825 51.653 29.1189 51.8167 29.1189 52.0166V56.3619C29.1189 56.5619 29.2825 56.7255 29.4825 56.7255C29.6825 56.7255 29.8461 56.5619 29.8461 56.3619ZM29.8461 47.675V46.7623C29.8461 45.6751 30.1661 44.6279 30.7697 43.7298C30.8825 43.5625 30.8388 43.337 30.6716 43.2243C30.5043 43.1116 30.2788 43.1552 30.1661 43.3225C29.4789 44.3406 29.1189 45.5297 29.1189 46.7587V47.6714C29.1189 47.8714 29.2825 48.035 29.4825 48.035C29.6825 48.035 29.8461 47.8714 29.8461 47.6714V47.675ZM34.0423 41.4717C34.4459 41.3771 34.8605 41.3299 35.2786 41.3299H38.293C38.493 41.3299 38.6566 41.1662 38.6566 40.9662C38.6566 40.7663 38.493 40.6026 38.293 40.6026H35.2786C34.8059 40.6026 34.3332 40.6572 33.8787 40.7626C33.6823 40.8099 33.5623 41.0026 33.606 41.199C33.646 41.3662 33.7951 41.479 33.9587 41.479C33.9878 41.479 34.0132 41.479 34.0423 41.468V41.4717ZM42.6928 41.2426C44.22 40.9772 45.6054 40.0936 46.4926 38.8136C46.609 38.65 46.5654 38.4209 46.4017 38.3082C46.2381 38.1918 46.009 38.2355 45.8963 38.3991C45.1182 39.519 43.9037 40.2936 42.5692 40.5263C42.3728 40.559 42.2383 40.7481 42.2747 40.9481C42.3037 41.1262 42.4601 41.2499 42.631 41.2499C42.6528 41.2499 42.671 41.2499 42.6928 41.2462V41.2426ZM47.5399 34.4647V31.5121C47.5399 31.0758 47.5944 30.6431 47.7035 30.2286C47.7544 30.0358 47.638 29.8359 47.4417 29.785C47.249 29.734 47.049 29.8504 46.9981 30.0468C46.8744 30.5231 46.8126 31.014 46.8126 31.5121V34.4647C46.8126 34.6647 46.9763 34.8284 47.1762 34.8284C47.3762 34.8284 47.5399 34.6647 47.5399 34.4647ZM50.0888 27.0796C50.867 26.6251 51.7615 26.3851 52.6669 26.3851H54.1177C54.3177 26.3851 54.4814 26.2215 54.4814 26.0215C54.4814 25.8215 54.3177 25.6579 54.1177 25.6579H52.6669C51.6306 25.6579 50.6124 25.9306 49.7216 26.4506C49.547 26.5524 49.4889 26.7742 49.5907 26.9487C49.6598 27.0651 49.7798 27.1305 49.9034 27.1305C49.9652 27.1305 50.027 27.116 50.0852 27.0796H50.0888ZM123.98 26.0215C123.98 25.8215 123.816 25.6579 123.616 25.6579H119.271C119.071 25.6579 118.907 25.8215 118.907 26.0215C118.907 26.2215 119.071 26.3851 119.271 26.3851H123.616C123.816 26.3851 123.98 26.2215 123.98 26.0215ZM115.293 26.0215C115.293 25.8215 115.129 25.6579 114.929 25.6579H110.584C110.384 25.6579 110.221 25.8215 110.221 26.0215C110.221 26.2215 110.384 26.3851 110.584 26.3851H114.929C115.129 26.3851 115.293 26.2215 115.293 26.0215ZM106.606 26.0215C106.606 25.8215 106.443 25.6579 106.243 25.6579H101.897C101.697 25.6579 101.534 25.8215 101.534 26.0215C101.534 26.2215 101.697 26.3851 101.897 26.3851H106.243C106.443 26.3851 106.606 26.2215 106.606 26.0215ZM97.9193 26.0215C97.9193 25.8215 97.7557 25.6579 97.5557 25.6579H93.2105C93.0105 25.6579 92.8468 25.8215 92.8468 26.0215C92.8468 26.2215 93.0105 26.3851 93.2105 26.3851H97.5557C97.7557 26.3851 97.9193 26.2215 97.9193 26.0215ZM89.2325 26.0215C89.2325 25.8215 89.0688 25.6579 88.8688 25.6579H84.5236C84.3236 25.6579 84.16 25.8215 84.16 26.0215C84.16 26.2215 84.3236 26.3851 84.5236 26.3851H88.8688C89.0688 26.3851 89.2325 26.2215 89.2325 26.0215ZM80.5456 26.0215C80.5456 25.8215 80.382 25.6579 80.182 25.6579H75.8367C75.6367 25.6579 75.4731 25.8215 75.4731 26.0215C75.4731 26.2215 75.6367 26.3851 75.8367 26.3851H80.182C80.382 26.3851 80.5456 26.2215 80.5456 26.0215ZM71.8587 26.0215C71.8587 25.8215 71.6951 25.6579 71.4951 25.6579H67.1499C66.9499 25.6579 66.7862 25.8215 66.7862 26.0215C66.7862 26.2215 66.9499 26.3851 67.1499 26.3851H71.4951C71.6951 26.3851 71.8587 26.2215 71.8587 26.0215ZM63.1719 26.0215C63.1719 25.8215 63.0082 25.6579 62.8082 25.6579H58.463C58.263 25.6579 58.0994 25.8215 58.0994 26.0215C58.0994 26.2215 58.263 26.3851 58.463 26.3851H62.8082C63.0082 26.3851 63.1719 26.2215 63.1719 26.0215ZM117.395 121.235V119.054C117.395 118.854 117.231 118.69 117.031 118.69C116.831 118.69 116.668 118.854 116.668 119.054V121.235C116.668 121.435 116.831 121.599 117.031 121.599C117.231 121.599 117.395 121.435 117.395 121.235Z" fill="black"/>
<path d="M37.6234 47.0039H141.069C141.968 47.0039 142.696 47.732 142.696 48.6312V151.5H36V48.6312C36 47.732 36.7281 47.0039 37.6273 47.0039H37.6234Z" fill="#E5E5E5"/>
<path d="M54.2785 81.9288C54.2785 83.4567 53.0411 84.6901 51.5172 84.6901C49.9933 84.6901 48.7559 83.4527 48.7559 81.9288C48.7559 80.4049 49.9933 79.1675 51.5172 79.1675C53.0411 79.1675 54.2785 80.4049 54.2785 81.9288Z" fill="#CCCCCC"/>
<path d="M142.695 58.6659L128.889 71.9274C126.457 71.7205 124.162 71.8398 122.813 72.0069C122.654 72.0268 122.491 71.9672 122.304 71.8199C119.721 69.7907 117.31 55.0054 116.264 47H115.508C116.339 53.386 118.774 70.0016 121.842 72.4128C122.188 72.6833 122.546 72.7987 122.908 72.755C124.4 72.568 126.266 72.4963 128.168 72.6197L116.992 83.3546L101.267 71.7085C99.6481 70.5069 97.3762 70.7019 95.9876 72.1621C94.3005 73.9327 93.0154 75.3651 92.1719 76.4195C91.0618 77.8081 89.2991 79.9885 87.3376 82.3837L81.4927 77.6808C81.4927 77.6808 81.4927 77.6808 81.4927 77.6768C84.9622 73.1011 87.9583 69.1462 89.7289 67.109C93.3297 62.967 101.669 52.5186 106.042 47.008H105.079C100.623 52.6181 92.6573 62.597 89.1599 66.6156C87.3734 68.6687 84.3734 72.6276 80.8998 77.2112L72.9422 70.8053C73.0257 70.6462 72.9939 70.4512 72.8467 70.3358C72.7035 70.2244 72.5085 70.2403 72.3772 70.3517L64.5628 64.0612C64.3996 63.9299 64.1649 63.9578 64.0336 64.1169C63.9023 64.2801 63.9301 64.5148 64.0893 64.6461L71.9037 70.9366C70.7857 72.373 67.6464 76.4234 65.4103 79.4474L44.4617 63.3013C44.2986 63.1739 44.0599 63.2058 43.9325 63.3689C43.8052 63.532 43.837 63.7708 44.0002 63.8981L64.9607 80.0561C64.4991 80.6848 64.0893 81.2537 63.767 81.7232C61.2842 85.3082 57.9659 88.722 52.1329 86.8559C46.1686 84.9461 45.3848 80.5574 45.357 80.3744C45.341 80.2869 45.2973 80.2073 45.2296 80.1476L39.8105 75.4884C40.2163 72.5839 40.6739 68.5056 41.1832 62.7562C41.7243 56.6725 42.15 50.5969 42.3888 47.0119H41.6368C41.0399 56.1672 40.1009 67.6183 39.1341 74.9075L36.2812 72.4566V73.4513L39.0107 75.7988C38.5094 79.3797 38.0081 81.779 37.5425 82.0973C37.1526 82.2683 36.7269 82.519 36.2812 82.8134V83.7286C36.8383 83.3307 37.3794 82.9925 37.8489 82.7856C38.1752 82.6424 38.7879 82.3678 39.6792 76.3717L44.6368 80.633C44.8198 81.4766 46.0055 85.6862 51.9021 87.5761C53.1157 87.9621 54.2298 88.1371 55.2563 88.1371C59.5972 88.1371 62.3744 85.0575 64.3837 82.1569C64.702 81.6954 65.1039 81.1384 65.5575 80.5216L73.6186 86.7366C69.2936 92.291 65.0362 97.4874 62.0601 100.257C58.511 103.559 54.0348 107.43 50.3902 110.514C45.2814 107.164 40.4948 103.543 40.4391 103.495C40.4312 103.491 40.4232 103.491 40.4153 103.483C40.4073 103.479 40.3993 103.468 40.3914 103.464L36.2852 101.235V102.091L39.1938 103.666C38.4975 103.842 37.463 104.092 36.2852 104.335V105.107C38.1115 104.733 39.6155 104.339 40.1328 104.2C40.9723 104.832 45.2296 108.011 49.7934 111.011C46.3556 113.916 43.7973 116.013 43.7416 116.057C43.5824 116.188 43.5585 116.427 43.6898 116.586C43.7654 116.677 43.8729 116.725 43.9803 116.725C44.0638 116.725 44.1474 116.697 44.219 116.641C44.2747 116.598 46.9206 114.429 50.4499 111.445C51.5003 112.125 52.5547 112.794 53.5812 113.407C54.2934 113.832 55.0892 114.306 55.9486 114.811C58.0017 116.025 60.5004 117.501 62.9712 119.061L55.7576 126.895C55.6581 127.002 55.6303 127.154 55.686 127.289C55.7377 127.424 55.865 127.516 56.0083 127.528C56.0759 127.532 62.6768 128.104 68.0363 135.66C72.7035 142.237 77.1319 147.764 84.9503 151.508H86.7806C78.1584 147.835 73.539 142.114 68.649 135.227C64.0853 128.793 58.7298 127.245 56.7961 126.883L63.6158 119.474C68.5496 122.626 73.2048 126.039 73.7539 128.248C74.5616 131.475 78.4728 135.453 80.3547 137.363C80.8362 137.853 81.25 138.274 81.3415 138.414C81.8667 139.201 85.3084 141.163 85.9927 141.549C86.0206 141.565 86.0445 141.577 86.0763 141.585C86.7527 141.776 90.9066 142.906 94.2011 142.906C95.9199 142.906 97.404 142.599 98.0406 141.688C99.0552 140.236 102.015 137.908 104.391 136.038C106.078 134.709 107.538 133.559 108.071 132.923C108.218 132.744 108.895 132.115 109.977 131.14L112.786 133.949L91.3443 151.508H92.5339L113.323 134.483L117.032 138.191L102.051 151.508H103.185L117.831 138.489C117.911 138.422 117.955 138.322 117.959 138.219C117.959 138.115 117.923 138.016 117.847 137.94L113.908 134.001L131.924 119.248L138.044 124.173L115.416 144.29C114.366 145.225 114.254 146.797 115.162 147.871C115.671 148.472 116.391 148.786 117.115 148.786C117.684 148.786 118.257 148.595 118.742 148.206L142.361 127.651L142.695 127.921V126.362L142.341 126.668L139.21 124.15L142.695 121.054V120.047L138.617 123.672L132.521 118.766L142.695 110.434V109.46L131.92 118.281L128.093 115.197C133.158 110.777 138.378 106.237 142.695 102.493V101.494C139.659 104.128 133.683 109.32 127.496 114.72L119.94 108.636C126.597 102.079 135.549 93.2022 136.966 91.4714C139.353 88.5509 140.296 80.0442 138.008 75.9778C136.627 73.5229 133.221 72.4446 129.871 72.0388L142.695 59.7203V58.6739V58.6659ZM138.641 124.647L141.764 127.161L118.261 147.621C117.485 148.241 116.379 148.134 115.738 147.378C115.098 146.618 115.173 145.508 115.918 144.847L138.641 124.647ZM92.7567 76.889C93.5724 75.8664 94.8775 74.4102 96.5287 72.6794C97.6587 71.4937 99.5009 71.3385 100.818 72.3133L116.439 83.8837L104.021 95.8083L87.9225 82.8493C90.6082 79.5667 92.701 76.9526 92.7567 76.885V76.889ZM81.0351 78.2776L86.8562 82.9646C84.6519 85.6503 82.2447 88.543 80.2354 90.8706L74.6809 86.5894C76.8454 83.8042 79.0099 80.9513 81.0351 78.2816V78.2776ZM66.0071 79.9009C68.2352 76.889 71.3666 72.8465 72.4926 71.4022L80.4502 77.8081C78.425 80.4818 76.2526 83.3426 74.0881 86.1318L66.0111 79.9049L66.0071 79.9009ZM62.5773 100.794C65.5893 97.9887 69.8745 92.7605 74.2194 87.1822L79.746 91.4395C77.8839 93.5802 76.4396 95.1399 75.9502 95.4184C74.6252 96.1783 64.1967 101.339 59.3465 103.734C60.4725 102.727 61.5627 101.737 62.5773 100.794ZM63.4964 118.492C61.0335 116.936 58.507 115.444 56.3345 114.159C55.4791 113.653 54.6833 113.184 53.9711 112.754C53.0122 112.181 52.0295 111.56 51.0507 110.928C52.9645 109.304 55.0971 107.478 57.2019 105.628C57.2019 105.628 57.2059 105.628 57.2099 105.628C57.9181 105.278 74.5735 97.0696 76.3202 96.0709C76.8812 95.7486 78.437 94.0775 80.3826 91.8454C80.3906 91.8454 80.3985 91.8454 80.4025 91.8454C80.5139 91.8454 80.6253 91.7937 80.7009 91.6982C80.7685 91.6067 80.7884 91.4992 80.7685 91.3958C82.8455 88.9965 85.2964 86.0443 87.441 83.4302L103.468 96.3295L95.2117 104.259C95.2117 104.259 95.2037 104.271 95.1998 104.275C95.1918 104.283 95.1838 104.283 95.1799 104.291L82.3521 120.079L70.8374 111.015C70.6822 110.892 70.4594 110.912 70.3281 111.055L63.4925 118.484L63.4964 118.492ZM97.4319 141.251C96.1228 143.121 89.0167 141.617 86.3309 140.865C84.8031 140.005 82.3044 138.481 81.9781 137.992C81.8508 137.805 81.5404 137.483 80.8998 136.83C79.0656 134.968 75.2499 131.089 74.4939 128.061C73.8852 125.622 69.218 122.148 64.145 118.901L70.6544 111.831L82.185 120.911C82.3481 121.038 82.5829 121.01 82.7102 120.851L95.2077 105.469L99.1149 139.424C98.3987 140.093 97.8059 140.713 97.4319 141.247V141.251ZM109.715 130.364C108.469 131.486 107.673 132.227 107.498 132.433C107.017 133.01 105.517 134.192 103.933 135.441C102.541 136.54 101.049 137.713 99.8033 138.808L95.8762 104.685L104.065 96.8189L118.81 108.688C115.03 112.412 112.126 115.249 112.046 115.324C111.986 115.38 111.951 115.456 111.939 115.539L109.715 130.364ZM127.52 115.694L131.332 118.762L113.383 133.46L110.55 130.627C113.996 127.535 120.573 121.762 127.524 115.694H127.52ZM126.923 115.213C120.652 120.684 114.266 126.282 110.594 129.569L112.663 115.77C113.256 115.189 115.977 112.531 119.403 109.157L126.923 115.209V115.213ZM119.351 108.151L104.614 96.2858L117.055 84.3373L132.095 95.4781C128.538 99.0789 123.493 104.072 119.351 108.147V108.151ZM137.351 76.3359C139.476 80.1118 138.589 88.2923 136.385 90.986C135.907 91.5708 134.515 93.0231 132.629 94.9409L117.605 83.8121L129.171 72.7032C132.672 73.0534 136.098 74.0998 137.355 76.3359H137.351Z" fill="white"/>
<path d="M139.027 139.432H79.1016V149.765H139.027V139.432Z" fill="white"/>
<path d="M87.0836 144.365H83.1406V148.873H87.0836V144.365Z" fill="#75A9C8"/>
<path d="M92.5309 144.27H88.5879V148.874H92.5309V144.27Z" fill="#75A9C8"/>
<path d="M97.9782 143.235H94.0352V148.869H97.9782V143.235Z" fill="#75A9C8"/>
<path d="M103.425 145.865H99.4824V148.869H103.425V145.865Z" fill="#75A9C8"/>
<path d="M108.875 142.861H104.932V148.873H108.875V142.861Z" fill="#75A9C8"/>
<path d="M114.322 144.645H110.379V148.87H114.322V144.645Z" fill="#75A9C8"/>
<path d="M119.769 146.618H115.826V148.874H119.769V146.618Z" fill="#75A9C8"/>
<path d="M125.22 145.491H121.273V148.873H125.22V145.491Z" fill="#75A9C8"/>
<path d="M130.664 146.431H126.721V148.874H130.664V146.431Z" fill="#75A9C8"/>
<path d="M136.115 142.861H132.172V148.873H136.115V142.861Z" fill="#75A9C8"/>
<path d="M36.2852 151.5H62.9474C61.1251 150.624 58.3757 149.248 58.0454 148.75C57.5441 147.998 54.7788 143.224 53.2709 142.973C51.7629 142.723 51.2615 144.481 51.2615 144.481L54.5282 149.757L53.2709 149.005C53.2709 149.005 50.2549 145.738 49.5029 145.237C48.7509 144.736 49.5029 142.727 49.7536 141.219C50.0042 139.711 51.7629 138.708 52.2642 137.451C52.7655 136.193 52.2642 132.425 52.2642 131.172C52.2642 129.919 50.0042 126.147 48.4963 123.135C46.9883 120.119 41.963 114.342 39.2017 113.088C38.4179 112.734 37.4112 112.499 36.2812 112.348V151.512L36.2852 151.5Z" fill="#CCCCCC"/>
<path d="M98.9932 76.9048L94.9746 81.93L99.9999 88.4593L109.294 83.6887L98.9932 76.9048Z" fill="#CCCCCC"/>
<path d="M104.018 99.5122L98.2402 105.039L100.5 117.349L106.783 119.108L108.792 113.832L114.82 108.055L104.018 99.5122Z" fill="#CCCCCC"/>
<path d="M37.6234 47.0039H141.069C141.968 47.0039 142.696 47.732 142.696 48.6312V151.5H36V48.6312C36 47.732 36.7281 47.0039 37.6273 47.0039H37.6234Z" stroke="#263238" stroke-width="0.397883" stroke-linecap="round" stroke-linejoin="round"/>
<path d="M37.6234 47.0039H141.069C141.968 47.0039 142.696 47.732 142.696 48.6312V67.097H36V48.6312C36 47.732 36.7281 47.0039 37.6273 47.0039H37.6234Z" fill="#75A9C8" stroke="#263238" stroke-width="0.397883" stroke-linecap="round" stroke-linejoin="round"/>
<path d="M127.127 59.5728H42.9746V63.09H127.127V59.5728Z" fill="white" stroke="#263238" stroke-width="0.397883" stroke-linecap="round" stroke-linejoin="round"/>
<path d="M141.155 47.0039H42.9062V56.0518H142.691V48.5477C142.691 47.6962 142.003 47.0079 141.152 47.0079L141.155 47.0039Z" fill="#808080" stroke="#263238" stroke-width="0.397883" stroke-linecap="round" stroke-linejoin="round"/>
<path d="M37.6234 47.0039H141.069C141.968 47.0039 142.696 47.732 142.696 48.6312V52.8886H36V48.6312C36 47.732 36.7281 47.0039 37.6273 47.0039H37.6234Z" fill="#263238" stroke="#263238" stroke-width="0.397883" stroke-linecap="round" stroke-linejoin="round"/>
<path d="M138.312 50.8516C138.755 50.8516 139.115 50.4917 139.115 50.0479C139.115 49.604 138.755 49.2441 138.312 49.2441C137.868 49.2441 137.508 49.604 137.508 50.0479C137.508 50.4917 137.868 50.8516 138.312 50.8516Z" fill="white"/>
<path d="M134.993 50.8516C135.437 50.8516 135.797 50.4917 135.797 50.0479C135.797 49.604 135.437 49.2441 134.993 49.2441C134.549 49.2441 134.189 49.604 134.189 50.0479C134.189 50.4917 134.549 50.8516 134.993 50.8516Z" fill="white"/>
<path d="M131.675 50.8516C132.119 50.8516 132.479 50.4917 132.479 50.0479C132.479 49.604 132.119 49.2441 131.675 49.2441C131.231 49.2441 130.871 49.604 130.871 50.0479C130.871 50.4917 131.231 50.8516 131.675 50.8516Z" fill="white"/>
<path d="M108.187 108.89C108.998 108.89 109.655 108.233 109.655 107.422C109.655 106.611 108.998 105.954 108.187 105.954C107.376 105.954 106.719 106.611 106.719 107.422C106.719 108.233 107.376 108.89 108.187 108.89Z" fill="#75A9C8" stroke="#263238" stroke-width="0.397883" stroke-linecap="round" stroke-linejoin="round"/>
<path d="M62.8764 72.1488C63.6872 72.1488 64.3446 71.4914 64.3446 70.6806C64.3446 69.8697 63.6872 69.2124 62.8764 69.2124C62.0655 69.2124 61.4082 69.8697 61.4082 70.6806C61.4082 71.4914 62.0655 72.1488 62.8764 72.1488Z" fill="#75A9C8" stroke="#263238" stroke-width="0.397883" stroke-linecap="round" stroke-linejoin="round"/>
<path d="M83.6981 106.929C83.6981 107.741 83.0416 108.397 82.2299 108.397C81.4182 108.397 80.7617 107.741 80.7617 106.929C80.7617 106.117 81.4182 105.461 82.2299 105.461C83.0416 105.461 83.6981 106.117 83.6981 106.929Z" fill="#75A9C8" stroke="#263238" stroke-width="0.397883" stroke-linecap="round" stroke-linejoin="round"/>
<path d="M51.0365 97.3324C51.8474 97.3324 52.5047 96.675 52.5047 95.8642C52.5047 95.0533 51.8474 94.396 51.0365 94.396C50.2257 94.396 49.5684 95.0533 49.5684 95.8642C49.5684 96.675 50.2257 97.3324 51.0365 97.3324Z" fill="#75A9C8" stroke="#263238" stroke-width="0.397883" stroke-linecap="round" stroke-linejoin="round"/>
<path d="M57.1278 132.818C57.1278 133.63 56.4713 134.286 55.6596 134.286C54.8479 134.286 54.1914 133.63 54.1914 132.818C54.1914 132.007 54.8479 131.35 55.6596 131.35C56.4713 131.35 57.1278 132.007 57.1278 132.818Z" fill="#75A9C8" stroke="#263238" stroke-width="0.397883" stroke-linecap="round" stroke-linejoin="round"/>
<path d="M125.193 131.856C126.004 131.856 126.661 131.199 126.661 130.388C126.661 129.577 126.004 128.92 125.193 128.92C124.382 128.92 123.725 129.577 123.725 130.388C123.725 131.199 124.382 131.856 125.193 131.856Z" fill="#75A9C8" stroke="#263238" stroke-width="0.397883" stroke-linecap="round" stroke-linejoin="round"/>
<path d="M132.718 86.6375C133.529 86.6375 134.186 85.9802 134.186 85.1694C134.186 84.3585 133.529 83.7012 132.718 83.7012C131.907 83.7012 131.25 84.3585 131.25 85.1694C131.25 85.9802 131.907 86.6375 132.718 86.6375Z" fill="#75A9C8" stroke="#263238" stroke-width="0.397883" stroke-linecap="round" stroke-linejoin="round"/>
<path d="M124.843 72.3963C125.654 72.3963 126.311 71.739 126.311 70.9281C126.311 70.1173 125.654 69.46 124.843 69.46C124.032 69.46 123.375 70.1173 123.375 70.9281C123.375 71.739 124.032 72.3963 124.843 72.3963Z" fill="#75A9C8" stroke="#263238" stroke-width="0.397883" stroke-linecap="round" stroke-linejoin="round"/>
<path d="M128.85 108.982C128.85 109.794 128.194 110.45 127.382 110.45C126.571 110.45 125.914 109.794 125.914 108.982C125.914 108.17 126.571 107.514 127.382 107.514C128.194 107.514 128.85 108.17 128.85 108.982Z" fill="#75A9C8" stroke="#263238" stroke-width="0.397883" stroke-linecap="round" stroke-linejoin="round"/>
<path d="M88.349 95.1717C89.1599 95.1717 89.8172 94.5144 89.8172 93.7035C89.8172 92.8927 89.1599 92.2354 88.349 92.2354C87.5382 92.2354 86.8809 92.8927 86.8809 93.7035C86.8809 94.5144 87.5382 95.1717 88.349 95.1717Z" fill="#75A9C8" stroke="#263238" stroke-width="0.397883" stroke-linecap="round" stroke-linejoin="round"/>
</g>
<defs>
<clipPath id="clip0_200_2150">
<rect width="169.123" height="160.756" fill="white" transform="translate(0.427734)"/>
</clipPath>
</defs>
</svg>
