<svg width="16" height="17" viewBox="0 0 16 17" fill="none" xmlns="http://www.w3.org/2000/svg">
<g clip-path="url(#clip0_33_1164)">
<path d="M15.8631 8.90772C15.8631 8.2318 15.8094 7.73856 15.6932 7.22705H8.13818V10.2778H12.5728C12.4834 11.036 12.0006 12.1777 10.9277 12.945L10.9127 13.0471L13.3014 14.9377L13.4669 14.9545C14.9868 13.5205 15.8631 11.4105 15.8631 8.90772Z" fill="#4285F4"/>
<path d="M8.13817 16.9459C10.3108 16.9459 12.1347 16.2151 13.4669 14.9547L10.9277 12.9451C10.2482 13.4292 9.33622 13.7672 8.13817 13.7672C6.01026 13.7672 4.20422 12.3332 3.56042 10.3511L3.46605 10.3593L0.98219 12.3231L0.949707 12.4154C2.27294 15.1008 4.99096 16.9459 8.13817 16.9459Z" fill="#34A853"/>
<path d="M3.56057 10.3507C3.39069 9.83922 3.29238 9.29113 3.29238 8.72484C3.29238 8.15849 3.39069 7.61046 3.55163 7.09896L3.54713 6.99002L1.03214 4.99463L0.949854 5.03461C0.404486 6.14899 0.0915527 7.40039 0.0915527 8.72484C0.0915527 10.0493 0.404486 11.3006 0.949854 12.415L3.56057 10.3507Z" fill="#FBBC05"/>
<path d="M8.13817 3.68305C9.64915 3.68305 10.6684 4.34984 11.2496 4.90706L13.5205 2.64178C12.1258 1.31734 10.3108 0.504395 8.13817 0.504395C4.99096 0.504395 2.27294 2.34948 0.949707 5.03489L3.55148 7.09923C4.20422 5.11713 6.01026 3.68305 8.13817 3.68305Z" fill="#EB4335"/>
</g>
<defs>
<clipPath id="clip0_33_1164">
<rect width="15.7717" height="16.4886" fill="white" transform="translate(0.0915527 0.480957)"/>
</clipPath>
</defs>
</svg>
