<svg width="24" height="24" viewBox="0 0 24 24" fill="none" xmlns="http://www.w3.org/2000/svg">
<path fill-rule="evenodd" clip-rule="evenodd" d="M5.81133 5L4.80444 5.99046L17.7614 18.7405L18.7683 17.7497L5.81133 5Z" fill="black" fill-opacity="0.6"/>
<path d="M6.93159 8.08366L7.87931 9.01622C6.84186 9.88543 6.01573 10.9674 5.48189 11.914L5.48026 11.9172C6.96703 14.3633 9.32609 16.675 12.3035 16.3244C13.1072 16.2297 13.8569 15.9594 14.542 15.5726L15.5014 16.5164C14.1661 17.3597 12.6355 17.8063 10.977 17.5855C7.9866 17.1876 5.54139 14.7741 4 11.9396C4.72371 10.5067 5.7137 9.13587 6.93159 8.08366ZM9.08713 6.70161C9.92333 6.33499 10.8281 6.11936 11.7944 6.10401C11.848 6.10369 12.4849 6.13344 12.7736 6.18015C12.9547 6.20958 13.1352 6.24637 13.313 6.29212C16.1497 7.01929 18.2512 9.379 19.5725 11.8101C19.0182 12.9115 18.2922 13.9865 17.4264 14.9075L16.5073 14.0031C17.1468 13.3249 17.68 12.5699 18.0906 11.8376C18.0906 11.8376 17.6777 11.1843 17.3646 10.7742C17.1634 10.5106 16.9517 10.2546 16.7294 10.008C16.5538 9.81345 15.872 9.15282 15.7098 9.01526C14.6213 8.09421 13.3433 7.37152 11.8103 7.38368C11.2167 7.39295 10.6457 7.50812 10.1038 7.702L9.08713 6.70161Z" fill="black" fill-opacity="0.6"/>
<path fill-rule="evenodd" clip-rule="evenodd" d="M9.51131 10.6227L10.2429 11.3423L13.059 14.1133C12.6825 14.3212 12.2482 14.4396 11.7862 14.4396C10.3475 14.4396 9.17969 13.2905 9.17969 11.8748C9.17969 11.4202 9.30031 10.9931 9.51131 10.6227ZM11.738 9.3107C11.754 9.31038 11.7702 9.31006 11.7862 9.31006C13.2248 9.31006 14.3926 10.4595 14.3926 11.8748C14.3926 11.8908 14.3926 11.9065 14.3923 11.9222L11.738 9.3107Z" fill="black" fill-opacity="0.6"/>
</svg>
