<svg width="18" height="18" viewBox="0 0 18 18" fill="none" xmlns="http://www.w3.org/2000/svg">
<path d="M6.6975 8.4375L7.3725 9.1275C7.9125 9.6675 8.25 10.125 8.25 11.25H9.75V10.875C9.75 10.0425 9.4125 9.2925 8.8725 8.7525L7.9425 7.8075C7.665 7.5375 7.5 7.1625 7.5 6.75C7.5 6.35218 7.65804 5.97064 7.93934 5.68934C8.22064 5.40804 8.60218 5.25 9 5.25C9.39782 5.25 9.77936 5.40804 10.0607 5.68934C10.342 5.97064 10.5 6.35218 10.5 6.75H12C12 5.95435 11.6839 5.19129 11.1213 4.62868C10.5587 4.06607 9.79565 3.75 9 3.75C8.20435 3.75 7.44129 4.06607 6.87868 4.62868C6.31607 5.19129 6 5.95435 6 6.75C6.00108 7.38243 6.25174 7.98887 6.6975 8.4375ZM8.25 14.25H9.75V12.75H8.25M9 1.5C9.98491 1.5 10.9602 1.69399 11.8701 2.0709C12.7801 2.44781 13.6069 3.00026 14.3033 3.6967C15.7098 5.10322 16.5 7.01088 16.5 9C16.5 10.9891 15.7098 12.8968 14.3033 14.3033C13.6069 14.9997 12.7801 15.5522 11.8701 15.9291C10.9602 16.306 9.98491 16.5 9 16.5C7.01088 16.5 5.10322 15.7098 3.6967 14.3033C2.29018 12.8968 1.5 10.9891 1.5 9C1.5 4.8525 4.875 1.5 9 1.5Z" fill="#717171"/>
</svg>
