<svg width="156" height="128" viewBox="0 0 156 128" fill="none" xmlns="http://www.w3.org/2000/svg">
<g clip-path="url(#clip0_199_7048)">
<path d="M123.948 43.1517C120.064 36.2649 116.246 29.832 104.158 28.6938C94.6864 27.7995 83.8289 27.7555 75.148 31.5563C67.6017 34.8591 64.7303 42.3793 57.402 45.8718C51.6702 48.6022 44.6043 47.9348 38.0485 47.3589C24.5191 46.1733 11.5034 50.4958 4.39683 60.7226C-1.55669 69.293 -1.45691 80.5903 4.65182 89.0828C7.0761 92.4533 10.3245 95.353 12.8781 98.6524C15.4317 101.952 17.3128 105.895 16.496 109.77C15.8124 113.019 13.3474 115.776 11.8027 118.808C7.68956 126.904 10.9084 137.06 18.9388 142.72C24.5745 146.694 31.973 148.479 39.2754 149.248C50.8313 150.464 62.598 149.387 73.947 147.199C80.7542 145.888 87.6464 144.163 94.594 144.787C100.496 145.315 105.973 147.504 111.545 149.218C118.109 151.233 125.093 152.622 132.048 152.083C140.618 151.416 148.501 147.537 151.96 140.705C155.966 132.795 152.995 123.757 150.186 115.492C147.189 106.671 145.474 98.3408 149.883 89.6688C153.616 82.3247 160.171 73.0938 152.278 65.98C147.207 61.4103 139.735 59.9672 134.158 56.0343C129.11 52.4775 126.512 47.718 123.94 43.1584L123.948 43.1517Z" fill="#75A9C8"/>
<path opacity="0.7" d="M123.948 43.1517C120.064 36.2649 116.246 29.832 104.158 28.6938C94.6864 27.7995 83.8289 27.7555 75.148 31.5563C67.6017 34.8591 64.7303 42.3793 57.402 45.8718C51.6702 48.6022 44.6043 47.9348 38.0485 47.3589C24.5191 46.1733 11.5034 50.4958 4.39683 60.7226C-1.55669 69.293 -1.45691 80.5903 4.65182 89.0828C7.0761 92.4533 10.3245 95.353 12.8781 98.6524C15.4317 101.952 17.3128 105.895 16.496 109.77C15.8124 113.019 13.3474 115.776 11.8027 118.808C7.68956 126.904 10.9084 137.06 18.9388 142.72C24.5745 146.694 31.973 148.479 39.2754 149.248C50.8313 150.464 62.598 149.387 73.947 147.199C80.7542 145.888 87.6464 144.163 94.594 144.787C100.496 145.315 105.973 147.504 111.545 149.218C118.109 151.233 125.093 152.622 132.048 152.083C140.618 151.416 148.501 147.537 151.96 140.705C155.966 132.795 152.995 123.757 150.186 115.492C147.189 106.671 145.474 98.3408 149.883 89.6688C153.616 82.3247 160.171 73.0938 152.278 65.98C147.207 61.4103 139.735 59.9672 134.158 56.0343C129.11 52.4775 126.512 47.718 123.94 43.1584L123.948 43.1517Z" fill="white"/>
<path d="M150.498 88.307L147.478 90.2311L147.497 93.5982L144.57 91.5624L141.078 92.6159L142.29 89.435L140.113 86.7216L143.787 86.7894L145.934 84.0557L146.998 87.2806L150.498 88.307Z" fill="white" stroke="#263238" stroke-width="0.386016" stroke-miterlimit="10"/>
<path d="M9.47185 101.819L8.74753 104.126L10.4105 105.983L7.79038 106.064L6.37868 108.09L5.48436 105.83L2.94922 105.224L5.01503 103.747L4.85981 101.349L7.03279 102.697L9.47185 101.819Z" fill="white" stroke="#263238" stroke-width="0.386016" stroke-miterlimit="10"/>
<path d="M22.2608 59.9365L21.7509 61.5523L22.9186 62.8531L21.082 62.9107L20.0916 64.3267L19.467 62.7447L17.6895 62.3213L19.1381 61.2881L19.0309 59.6079L20.5498 60.5496L22.2608 59.9365Z" fill="white" stroke="#263238" stroke-width="0.386016" stroke-miterlimit="10"/>
<path d="M56.0471 26.8545L54.4617 27.7013L54.325 29.3781L52.9539 28.2569L51.1727 28.6566L51.9118 27.1153L50.9473 25.6824L52.7729 25.8518L53.9628 24.5713L54.3509 26.2142L56.0471 26.8545Z" fill="white" stroke="#263238" stroke-width="0.386016" stroke-miterlimit="10"/>
<path d="M153.839 93.5239L153.329 95.1397L154.493 96.4405L152.66 96.4981L151.67 97.9141L151.045 96.3321L149.268 95.9087L150.716 94.8755L150.609 93.1953L152.128 94.137L153.839 93.5239Z" fill="white" stroke="#263238" stroke-width="0.386016" stroke-miterlimit="10"/>
<path d="M95.5734 33.9577L94.8491 36.268L96.5121 38.1243L93.8919 38.2022L92.4802 40.228L91.5896 37.9685L89.0508 37.3621L91.1203 35.8852L90.9651 33.4902L93.1344 34.8351L95.5734 33.9577Z" fill="white" stroke="#263238" stroke-width="0.386016" stroke-miterlimit="10"/>
<path d="M80.0161 123.584C107.198 123.584 129.233 103.386 129.233 78.4697C129.233 53.5535 107.198 33.355 80.0161 33.355C52.8341 33.355 30.7988 53.5535 30.7988 78.4697C30.7988 103.386 52.8341 123.584 80.0161 123.584Z" fill="#75A9C8" stroke="#263238" stroke-width="0.386016" stroke-miterlimit="10"/>
<path d="M70.1348 120.21C72.7512 120.732 75.4342 121.05 78.1578 121.148" stroke="#263238" stroke-width="0.386016" stroke-miterlimit="10"/>
<path d="M64.0996 118.608C65.4337 119.055 66.7937 119.445 68.1721 119.777" stroke="#263238" stroke-width="0.386016" stroke-miterlimit="10"/>
<path d="M35.2001 66.7861C33.1417 73.3918 32.798 80.5495 34.5386 87.731C37.9792 101.931 48.7628 112.893 62.4141 118.015" stroke="#263238" stroke-width="0.386016" stroke-miterlimit="10"/>
<path d="M41.4637 54.4995C39.7822 56.7725 38.341 59.1912 37.1621 61.7183" stroke="#263238" stroke-width="0.386016" stroke-miterlimit="10"/>
<path d="M73.3492 58.4321L78.3677 59.3874L80.0751 61.0134L82.3072 61.325L83.0167 63.2661L82.4956 64.5771L80.9768 65.2173L77.2517 64.6584L77.1482 64.2417L78.911 63.1136L77.6951 61.0574L74.3618 60.6408L72.5879 59.2451L73.3492 58.4321Z" fill="white" stroke="#263238" stroke-width="0.386016" stroke-miterlimit="10"/>
<path d="M113.786 100.874L109.809 100.258L105.009 99.6988L101.472 100.417L98.0132 100.464L94.5431 101.938L92.5142 102.46L91.2614 102.714L89.1697 104.455L87.0929 105.756L83.5821 104.604L83.6708 101.514L81.5532 101.176L79.2731 101.64L78.704 100.769L78.4748 98.8417L77.4216 97.9576L75.8769 98.4928L75.6736 99.631L73.7593 100.129L71.5937 98.5944L70.3003 96.2266L71.3018 92.9509L74.661 92.4868L75.7512 93.0322L77.1186 92.7544L78.6005 91.4672L80.1859 91.5823L83.0241 94.4041L83.7964 94.1365L82.9871 91.7788L82.0004 90.6643L81.7491 88.6318L85.5629 86.1014L85.197 82.1177L86.6937 80.3866L87.5954 77.68L88.6856 77.2397L90.9288 75.1394L90.8401 74.279L89.0404 74.7566L88.4972 73.991L87.2444 74.2451L85.4077 75.0581L85.9916 73.5134L89.7278 71.6571L90.4114 70.529L92.566 72.5039L93.8187 73.2356L95.3154 72.4938L94.3029 71.2743L91.5275 70.1937L88.1054 67.9274L84.8238 66.7316L81.9856 66.8705L80.3152 65.8949L78.3898 65.8475L78.2642 66.3116L78.7705 69.3908L79.48 70.3427L79.2657 73.8962L76.579 72.6869L76.5679 71.1523L73.9219 70.5934L72.6174 69.6517L72.5546 66.9213L75.3299 64.0521L74.9493 61.498L73.7187 61.857L72.6913 61.0779L71.9707 59.5806L71.1466 59.6382L71.0948 61.4031L69.8901 61.8672L68.434 58.3239L67.3956 57.9885L65.6476 57.687L64.0253 58.8964L66.7858 60.4173L67.6728 62.1009L62.8833 60.1159L59.3504 57.8733L58.4376 55.099L55.2705 54.8652L53.3193 56.6877C53.3193 56.6877 52.3326 57.5481 51.8115 57.8733C51.2904 58.1985 49.1766 58.8489 49.1766 58.8489L49.1507 60.7188L46.5527 61.3557L47.059 62.46L51.4309 62.2297L54.1286 63.9844L55.0155 67.6429L54.5462 71.1388L55.6105 74.5432L53.6593 80.3155L54.8234 88.0864L56.9113 92.2666L59.2026 95.3086L60.9654 95.1697L59.9897 93.6148L58.7739 92.5478L57.6468 90.3628L58.6224 89.9462L61.1317 93.3845L63.0829 96.4976L63.7407 99.2144L66.4902 101.179L70.9988 103.002L77.2812 103.259L79.4874 104.455L81.2613 105.847L83.5932 106.579L86.254 106.694L88.7374 106.077C88.7374 106.077 88.8778 107.144 89.0034 107.67C89.1291 108.191 87.965 110.295 87.965 110.295L87.2185 112.639L88.6893 114.753L91.4277 115.183L95.7737 117.808L97.5217 118.11L97.9023 119.678L98.2793 120.369C107.027 117.182 114.362 111.836 119.695 105.18L119.569 104.411L121.406 98.6622L119.695 98.022L113.804 100.867L113.786 100.874Z" fill="white" stroke="#263238" stroke-width="0.386016" stroke-miterlimit="10"/>
<path d="M115.641 57.1722L113.904 55.4412L111.749 53.4663L110.534 50.4243L112.662 50.3193L112.522 49.2523L111.014 49.4487L112.141 48.6696L113.331 47.6601L113.076 46.6134L111.302 45.2211L110.463 43.0328C99.2622 34.9536 84.3396 31.3764 69.3394 34.4286C62.5211 35.8174 56.3496 38.4428 51.0428 41.9861L54.0842 43.1582L52.9423 45.3634L50.8765 46.2238L51.331 49.0931L50.4958 49.591L49.6348 50.9731L50.2039 52.8329L52.1921 52.6465L51.8262 54.5876L53.7664 54.1946L56.1352 49.6554L56.0724 47.9142L59.2136 47.0538L59.7088 45.6378L62.9387 44.652L62.85 42.8059L65.2189 42.213C65.2189 42.213 66.7267 41.0274 67.0703 40.9597C67.414 40.8885 69.1362 41.0884 69.1362 41.0884L71.1502 41.9929L73.5449 41.5051L75.3188 39.9366L77.9907 39.6114C77.9907 39.6114 78.7778 39.8892 79.3469 39.774C79.9161 39.6589 81.4497 38.5783 81.4497 38.5783L85.2118 39.7876L86.8082 40.4482L87.1889 42.0166L88.9517 41.8777L89.2953 40.8208L90.9288 41.146L91.0175 42.0064L87.7987 43.5376L90.2931 45.4413L94.9052 46.6947L97.1225 48.4359L99.6835 48.1344L100.001 46.9725L100.862 46.5761L97.3923 45.089L95.5186 45.2516L96.9008 44.5335L95.101 43.0362L97.0153 42.5382L99.8276 43.2835L101.007 45.6751L102.588 46.7794L104.347 49.6012L107.263 50.7631L108.098 54.2116L111.099 55.2447L111.265 56.4168L111.251 57.8463L112.392 59.5875L112.847 60.4818L114.861 60.4005L115.342 58.4392L115.633 57.1722H115.641Z" fill="white" stroke="#263238" stroke-width="0.386016" stroke-miterlimit="10"/>
<path d="M114.573 46.3423L114.717 46.9418L114.551 48.7304L115.249 50.1227L116.606 50.2853L117.086 52.2704L115.589 52.0265L116.613 57.7412L115.8 60.3191L117.422 63.0596L119.207 64.0114L120.575 69.655L123.121 73.7437L125.527 76.762L128.302 76.8568L128.708 74.5804L129.015 74.2383C128.823 72.3955 128.509 70.5425 128.058 68.6862C125.922 59.8685 121.103 52.2331 114.566 46.3389L114.573 46.3423Z" fill="white" stroke="#263238" stroke-width="0.386016" stroke-miterlimit="10"/>
<path d="M88.0717 51.0476L79.8122 49.5503L76.5305 50.326L76.2127 52.4771L74.5164 51.3965L72.1328 52.4297L72.7426 55.9256L75.1225 56.8673L76.124 54.5773L78.2157 55.7968L82.4323 57.9005L83.8514 60.7934L87.6504 63.6389L92.2624 61.9316L91.7709 60.3869L90.3149 58.8185L89.0732 54.6857L89.7827 52.677L88.0717 51.0476Z" fill="white" stroke="#263238" stroke-width="0.386016" stroke-miterlimit="10"/>
<path d="M94.787 52.0941L92.9762 52.0264L91.7715 53.4762L93.3051 56.3454L94.787 56.0439V52.0941Z" fill="white" stroke="#263238" stroke-width="0.386016" stroke-miterlimit="10"/>
<path d="M105.873 51.9213L101.538 50.8305L100.437 49.7397L99.6016 50.2377L100.906 52.1652L102.248 54.7431L104.11 55.0242L104.35 54.5364L102.946 53.1747L106.165 53.6184L105.873 51.9213Z" fill="white" stroke="#263238" stroke-width="0.386016" stroke-miterlimit="10"/>
<path d="M81.72 96.4331L81.3652 96.9446L85.0127 97.1885L86.7349 98.3741L88.9522 98.1438L89.4733 96.8294L86.7496 96.9446L81.72 96.4331Z" fill="white" stroke="#263238" stroke-width="0.386016" stroke-miterlimit="10"/>
<path d="M92.3487 96.3555L90.1055 97.47L90.6524 98.2355L93.6162 97.6326L93.9821 96.6807L92.9806 96.9923L92.3487 96.3555Z" fill="white" stroke="#263238" stroke-width="0.386016" stroke-miterlimit="10"/>
<path d="M138.979 44.1102L117.715 38.9341L122.807 44.9537L138.979 44.1102Z" fill="white" stroke="#263238" stroke-width="0.386016" stroke-linecap="round" stroke-linejoin="round"/>
<path d="M122.807 44.9538L122.648 48.9985L138.979 44.1104L122.807 44.9538Z" fill="white" stroke="#263238" stroke-width="0.386016" stroke-linecap="round" stroke-linejoin="round"/>
<path d="M124.733 46.9728L122.648 48.9985L138.979 44.1104L124.733 46.9728Z" fill="white" stroke="#263238" stroke-width="0.386016" stroke-linecap="round" stroke-linejoin="round"/>
<path d="M138.979 44.1104L124.732 46.9728L128.446 52.9077L138.979 44.1104Z" fill="white" stroke="#263238" stroke-width="0.386016" stroke-linecap="round" stroke-linejoin="round"/>
<path d="M119.307 48.0703C119.307 48.0703 119.118 48.094 118.76 48.1381" stroke="#263238" stroke-width="0.386016" stroke-linecap="round" stroke-linejoin="round"/>
<path d="M117.667 48.2803C105.538 49.8656 29.7458 60.3838 13.9215 77.4703C-0.151108 92.6633 23.2343 96.918 28.6852 97.6869" stroke="#263238" stroke-width="0.386016" stroke-linecap="round" stroke-linejoin="round"/>
<path d="M29.2324 97.7612C29.5835 97.8053 29.7794 97.8256 29.7794 97.8256" stroke="#263238" stroke-width="0.386016" stroke-linecap="round" stroke-linejoin="round"/>
<path d="M36.8086 43.6468C36.8086 41.5635 34.9646 39.8731 32.6918 39.8731C32.2779 39.8731 31.8788 39.9307 31.4981 40.0357C30.6666 37.8914 28.4382 36.3501 25.8144 36.3501C23.1905 36.3501 20.9769 37.8779 20.138 40.012C19.787 39.9239 19.4174 39.8697 19.0368 39.8697C16.764 39.8697 14.9199 41.5601 14.9199 43.6434C14.9199 45.4591 16.3205 46.9733 18.1831 47.3358L33.66 47.3087C35.4671 46.9089 36.8086 45.4218 36.8086 43.6434V43.6468Z" fill="white" stroke="#263238" stroke-width="0.386016" stroke-miterlimit="10"/>
<path d="M40.4932 45.5234C40.4932 44.497 39.5878 43.667 38.4681 43.667C38.2648 43.667 38.0689 43.6941 37.8805 43.7483C37.4703 42.6914 36.3764 41.936 35.0829 41.936C33.7895 41.936 32.703 42.6881 32.2891 43.7382C32.1154 43.6941 31.9343 43.6704 31.7459 43.6704C30.6261 43.6704 29.7207 44.5004 29.7207 45.5268C29.7207 46.4211 30.4081 47.1663 31.3246 47.3425L38.9411 47.3289C39.8317 47.1325 40.4895 46.4008 40.4895 45.5268L40.4932 45.5234Z" fill="white" stroke="#263238" stroke-width="0.386016" stroke-miterlimit="10"/>
<path d="M149.363 65.1873C149.363 63.104 147.519 61.4136 145.246 61.4136C144.833 61.4136 144.433 61.4712 144.053 61.5762C143.221 59.4319 140.993 57.8906 138.369 57.8906C135.745 57.8906 133.532 59.4184 132.693 61.5525C132.342 61.4644 131.972 61.4102 131.591 61.4102C129.319 61.4102 127.475 63.1006 127.475 65.1839C127.475 66.9996 128.875 68.5138 130.738 68.8763L146.215 68.8492C148.022 68.4495 149.363 66.9623 149.363 65.1839V65.1873Z" fill="white" stroke="#263238" stroke-width="0.386016" stroke-miterlimit="10"/>
<path d="M153.048 67.0605C153.048 66.0341 152.142 65.2042 151.023 65.2042C150.819 65.2042 150.624 65.2313 150.435 65.2855C150.025 64.2286 148.931 63.4731 147.638 63.4731C146.344 63.4731 145.258 64.2252 144.844 65.2753C144.67 65.2313 144.489 65.2075 144.301 65.2075C143.181 65.2075 142.275 66.0375 142.275 67.0639C142.275 67.9582 142.963 68.7034 143.879 68.8796L151.496 68.866C152.386 68.6696 153.044 67.9379 153.044 67.0639L153.048 67.0605Z" fill="white" stroke="#263238" stroke-width="0.386016" stroke-miterlimit="10"/>
<path d="M31.1426 98.4495C31.1426 96.3662 29.2985 94.6758 27.0258 94.6758C26.6119 94.6758 26.2128 94.7334 25.8321 94.8384C25.0006 92.6941 22.7722 91.1528 20.1484 91.1528C17.5245 91.1528 15.3109 92.6806 14.472 94.8147C14.1209 94.7266 13.7514 94.6724 13.3707 94.6724C11.098 94.6724 9.25391 96.3628 9.25391 98.4461C9.25391 100.262 10.6545 101.776 12.5171 102.138L27.994 102.111C29.8011 101.712 31.1426 100.225 31.1426 98.4461V98.4495Z" fill="white" stroke="#263238" stroke-width="0.386016" stroke-miterlimit="10"/>
<path d="M34.8272 100.323C34.8272 99.2963 33.9218 98.4664 32.802 98.4664C32.5988 98.4664 32.4029 98.4935 32.2144 98.5477C31.8042 97.4908 30.7104 96.7354 29.4169 96.7354C28.1235 96.7354 27.037 97.4874 26.6231 98.5375C26.4494 98.4935 26.2683 98.4697 26.0798 98.4697C24.9601 98.4697 24.0547 99.2997 24.0547 100.326C24.0547 101.22 24.7421 101.966 25.6586 102.142L33.2751 102.128C34.1657 101.932 34.8235 101.2 34.8235 100.326L34.8272 100.323Z" fill="white" stroke="#263238" stroke-width="0.386016" stroke-miterlimit="10"/>
</g>
<defs>
<clipPath id="clip0_199_7048">
<rect width="156" height="128" fill="white"/>
</clipPath>
</defs>
</svg>
