<svg width="291" height="251" viewBox="0 0 291 251" fill="none" xmlns="http://www.w3.org/2000/svg">
<path d="M181.165 63.2191C182.499 58.2403 189.564 58.2403 190.898 63.2191L191.585 65.7825C201.471 102.677 230.322 131.474 267.234 141.292L269.915 142.005C274.906 143.332 274.906 150.415 269.915 151.743L267.234 152.456C230.322 162.274 201.471 191.071 191.585 227.965L190.898 230.528C189.564 235.507 182.499 235.507 181.165 230.528L180.478 227.965C170.591 191.071 141.741 162.274 104.828 152.456L102.147 151.743C97.1564 150.415 97.1564 143.332 102.147 142.005L104.828 141.292C141.741 131.474 170.591 102.677 180.478 65.7825L181.165 63.2191Z" fill="#F1F3F4" stroke="#628CA5" stroke-width="0.916031"/>
<path d="M118.937 19.9297C120.271 14.9509 127.335 14.9509 128.67 19.9297L129.275 22.1884C139.162 59.0825 168.012 87.8795 204.925 97.6974L207.3 98.3293C212.291 99.6567 212.291 106.74 207.3 108.067L204.925 108.699C168.012 118.517 139.162 147.314 129.275 184.208L128.67 186.467C127.335 191.445 120.271 191.445 118.937 186.467L118.331 184.208C108.445 147.314 79.5941 118.517 42.6816 108.699L40.306 108.067C35.3151 106.74 35.3151 99.6567 40.306 98.3293L42.6816 97.6974C79.5941 87.8795 108.445 59.0825 118.331 22.1884L118.937 19.9297Z" stroke="#628CA5" stroke-width="0.916031"/>
<path d="M204.494 16.6797C204.648 15.1785 206.838 15.1785 206.992 16.6797C207.717 23.7549 213.321 29.3561 220.399 30.0639C221.899 30.2139 221.899 32.4007 220.399 32.5508C213.321 33.2585 207.717 38.8597 206.992 45.9349C206.838 47.4361 204.648 47.4361 204.494 45.9349C203.769 38.8597 198.166 33.2585 191.088 32.5508C189.588 32.4007 189.588 30.2139 191.088 30.0639C198.166 29.3561 203.769 23.7549 204.494 16.6797Z" fill="#F1F3F4" stroke="#628CA5" stroke-width="0.916031"/>
<path d="M19.6375 61.8749C19.7095 61.1782 20.7276 61.1782 20.7996 61.8749C21.2518 66.2528 24.7225 69.7214 29.1036 70.156C29.7986 70.2249 29.7986 71.238 29.1036 71.3069C24.7225 71.7416 21.2518 75.2102 20.7996 79.588C20.7276 80.2847 19.7095 80.2847 19.6375 79.588C19.1853 75.2102 15.7146 71.7416 11.3335 71.3069C10.6385 71.238 10.6385 70.2249 11.3335 70.156C15.7146 69.7214 19.1853 66.2528 19.6375 61.8749Z" fill="#F1F3F4" stroke="#628CA5" stroke-width="0.916031"/>
</svg>
