<svg width="154" height="82" viewBox="0 0 154 82" fill="none" xmlns="http://www.w3.org/2000/svg">
<path d="M160.852 82.5471C164.057 77.897 166.179 72.6631 167.324 67.2967C174.079 35.6523 167.337 -3.57679 129 -16.931C115.785 -21.5329 93.9593 -20.4794 80.2609 -16.9309C64.7022 -12.8978 54.6955 -2.85131 42.1853 5.13955C33.3594 10.7768 22.1973 13.5277 14.0836 19.9445C5.51576 26.7194 0.021874 36.4619 7.28643e-05 46.3279C-0.0180948 53.2653 3.36108 59.9981 10.163 64.2328C16.8305 68.3832 25.3148 69.4637 32.5455 72.7082C40.5974 76.3229 45.4409 82.6313 51.8831 87.775C66.7442 99.6454 89.0105 103.32 109.009 102.763C128.645 102.216 150.468 97.6168 160.856 82.5441L160.852 82.5471Z" fill="#628CA5"/>
</svg>
