<svg width="16" height="18" viewBox="0 0 16 18" fill="none" xmlns="http://www.w3.org/2000/svg">
<path d="M9.00007 1.00903C9.00007 0.743816 8.89471 0.489463 8.70718 0.301926C8.51964 0.11439 8.26529 0.0090332 8.00007 0.0090332C7.73485 0.0090332 7.4805 0.11439 7.29296 0.301926C7.10543 0.489463 7.00007 0.743816 7.00007 1.00903L6.99707 9.01203C6.99707 9.27725 7.10243 9.5316 7.28996 9.71914C7.4775 9.90668 7.73185 10.012 7.99707 10.012C8.26229 10.012 8.51664 9.90668 8.70418 9.71914C8.89171 9.5316 8.99707 9.27725 8.99707 9.01203L9.00007 1.01003V1.00903Z" fill="#C76E61"/>
<path d="M0 9.99196C0 7.78196 0.895 5.78196 2.343 4.33496L3.757 5.74896C2.91785 6.58806 2.34636 7.65716 2.11482 8.82105C1.88327 9.98495 2.00207 11.1914 2.45618 12.2878C2.9103 13.3841 3.67933 14.3212 4.66604 14.9805C5.65274 15.6398 6.8128 15.9917 7.9995 15.9917C9.1862 15.9917 10.3463 15.6398 11.333 14.9805C12.3197 14.3212 13.0887 13.3841 13.5428 12.2878C13.9969 11.1914 14.1157 9.98495 13.8842 8.82105C13.6526 7.65716 13.0812 6.58806 12.242 5.74896L13.657 4.33496C14.5872 5.26525 15.2737 6.41058 15.6556 7.66953C16.0374 8.92847 16.1029 10.2622 15.8463 11.5525C15.5896 12.8428 15.0187 14.0499 14.1841 15.0668C13.3495 16.0838 12.2769 16.8792 11.0615 17.3827C9.84607 17.8861 8.52522 18.0821 7.21597 17.9532C5.90671 17.8242 4.64946 17.3744 3.55558 16.6435C2.46169 15.9126 1.56493 14.9233 0.944738 13.763C0.324541 12.6028 4.79384e-05 11.3075 0 9.99196Z" fill="#C76E61"/>
</svg>
