<svg width="24" height="24" viewBox="0 0 24 24" fill="none" xmlns="http://www.w3.org/2000/svg">
<path d="M19.2388 14.5059L15.4804 12.7131L13.8911 11.9549C14.5852 11.5176 15.1489 10.8427 15.5178 10.0299C15.8255 9.35217 15.9846 8.61652 15.9846 7.87226C15.9846 7.43378 15.915 7.01738 15.818 6.61562C15.3452 4.66874 13.8248 3.2345 11.9996 3.2345C10.209 3.2345 8.71163 4.61762 8.20955 6.50906C8.09363 6.94298 8.01395 7.39418 8.01395 7.87226C8.01395 8.70242 8.20787 9.47642 8.53739 10.1496C8.91827 10.9306 9.48299 11.5745 10.1704 11.9885L8.64827 12.6972L4.76795 14.5044C4.43099 14.6623 4.20947 15.0425 4.20947 15.4671V19.7307C4.20947 20.3021 4.60763 20.7653 5.09915 20.7653H10.8623V17.5008C10.8631 17.4671 10.8729 17.4343 10.8908 17.4058L10.8884 17.4043L11.8324 15.7695L11.8348 15.7709C11.8684 15.7133 11.9281 15.6725 11.9996 15.6725C12.0712 15.6725 12.1309 15.7131 12.1645 15.7709L12.1655 15.7702L12.1741 15.7853C12.1753 15.7877 12.177 15.7896 12.178 15.792L13.1094 17.4051L13.1082 17.4058C13.1261 17.4344 13.136 17.4673 13.1368 17.5011V20.7655H18.8999C19.3914 20.7655 19.7898 20.3023 19.7898 19.7309V15.4671C19.7905 15.0439 19.5726 14.6674 19.2388 14.5059ZM13.1089 13.4127L13.1113 13.4141L12.1672 15.049L12.1648 15.0475C12.1484 15.077 12.1245 15.1016 12.0955 15.1188C12.0666 15.1361 12.0336 15.1453 11.9999 15.1457C11.9662 15.1453 11.9332 15.1361 11.9042 15.1188C11.8753 15.1016 11.8514 15.077 11.835 15.0475L11.8338 15.0483L11.8242 15.0317C11.8235 15.03 11.822 15.0286 11.8213 15.0269L10.8899 13.4134L10.8908 13.4127C10.8729 13.384 10.8631 13.3511 10.8623 13.3174C10.8623 13.2106 10.9489 13.1239 11.0557 13.1239H12.9436C13.0504 13.1239 13.137 13.2106 13.137 13.3174C13.1366 13.3511 13.1269 13.3841 13.1089 13.4127Z" fill="#628CA5"/>
</svg>
