<svg width="38" height="38" viewBox="0 0 38 38" fill="none" xmlns="http://www.w3.org/2000/svg">
<mask id="mask0_525_7443" style="mask-type:luminance" maskUnits="userSpaceOnUse" x="0" y="0" width="38" height="38">
<path d="M19 38C29.4934 38 38 29.4934 38 19C38 8.50659 29.4934 0 19 0C8.50659 0 0 8.50659 0 19C0 29.4934 8.50659 38 19 38Z" fill="white"/>
</mask>
<g mask="url(#mask0_525_7443)">
<path d="M18.558 42.4186C31.2477 42.4186 41.5348 32.1315 41.5348 19.4418C41.5348 6.75213 31.2477 -3.53491 18.558 -3.53491C5.86834 -3.53491 -4.4187 6.75213 -4.4187 19.4418C-4.4187 32.1315 5.86834 42.4186 18.558 42.4186Z" fill="#7BF3FF"/>
<path d="M23.6128 29.883L38.6802 35.6449C42.7586 37.2046 45.7367 40.7704 46.5454 45.0653L48.1051 53.3502L37.6507 56.209V81.1035H0.344424V56.1339L-8.60767 52.8995L-5.13023 42.4186C-3.82232 38.4816 -0.658597 35.4416 3.3314 34.2928L15.2219 30.8772L23.6084 29.883H23.6128Z" fill="white"/>
<path d="M13.0834 31.4958C13.0834 31.4958 12.4869 36.5374 17.9793 36.9528C23.4716 37.3725 27.4704 33.0688 27.3909 31.3279" stroke="#B3CBFF" stroke-linecap="round" stroke-linejoin="round"/>
<path d="M8.38208 18.6642V20.9795C8.38208 22.1372 9.11557 23.127 10.1451 23.5025C10.4323 23.6086 10.746 23.666 11.0686 23.666H11.6518C12.6018 23.666 13.3751 22.8928 13.3751 21.9428V17.7009C13.3751 16.7509 12.6018 15.9777 11.6518 15.9777H11.0686C10.746 15.9777 10.4323 16.0351 10.1451 16.1411C9.11557 16.5167 8.38208 17.5065 8.38208 18.6642Z" fill="#2E9AE3"/>
<path d="M30.4484 16.7774C28.8312 20.9133 25.6719 26.1758 22.5877 24.9739L10.9226 15.3635C6.74262 13.8346 6.7382 11.1437 7.50704 10.3086L7.5468 10.2688C8.32006 9.51325 10.0963 10.207 10.2421 10.2644C10.0654 10.1098 7.3082 7.69279 8.70006 5.98278C9.95494 4.44069 11.8638 5.6779 12.3277 6.01813C11.9787 5.73092 10.9094 4.70581 11.6252 3.38906C12.4691 1.8293 16.0615 4.10488 19.371 4.63069C22.6805 5.15651 27.6249 5.6072 28.5308 7.41441C29.4322 9.2172 28.5308 11.0995 28.5308 11.0995C28.5308 11.0995 29.3924 11.4751 30.0684 12.35C30.7621 13.2514 31.2703 14.683 30.4484 16.7774Z" fill="#6633CC"/>
<path d="M30.4484 16.7774C28.8312 20.9133 25.6719 26.1758 22.5877 24.974L10.9226 15.3635C6.74262 13.8347 6.7382 11.1437 7.50704 10.3086C11.0287 13.3044 22.358 14.0512 24.5628 13.6181C26.8561 13.1674 25.8531 9.56628 25.8531 9.56628L27.0329 10.0833C27.0329 10.0833 28.9108 14.1749 30.0684 12.35C30.7621 13.2514 31.2703 14.683 30.4484 16.7774Z" fill="#5B33BC"/>
<path d="M24.7969 31.3412C24.4036 32.6093 20.9085 34.6684 18.3413 34.4121C15.7741 34.1602 15.3499 32.8921 15.3499 32.8921L15.2262 30.8816L15.0671 28.2658L21.8895 25.2877L24.1783 24.2891L24.7969 31.3412Z" fill="#FFCCCC"/>
<path d="M23.9264 25.0491C23.8955 25.8886 20.5992 30.6695 15.2262 30.8816L15.0671 28.2658L21.8895 25.2877C23.1223 24.9696 23.9309 24.837 23.9264 25.0491Z" fill="#F97594"/>
<path d="M10.6575 13.3353C9.8666 16.5211 10.4719 18.1384 10.2731 20.056C10.0743 21.9737 10.2996 28.1774 15.6329 29.0258C20.9617 29.8697 25.314 24.4481 25.7868 22.2565C26.9445 23.5821 28.7075 21.3418 28.4822 20.1842C28.2568 19.0265 27.594 18.8453 26.9047 19.1546C26.2154 19.4639 25.9459 20.7895 25.7338 20.7188C25.5217 20.6481 25.0445 15.4518 25.0445 15.4518C25.0445 15.4518 15.624 15.8451 10.6619 13.3353H10.6575Z" fill="#FFCCCC"/>
<path d="M15.4826 19.4463L14.811 21.4833C14.6829 21.8765 14.8906 22.3051 15.2794 22.4421L15.8936 22.663" stroke="#F97594" stroke-width="0.75" stroke-linecap="round" stroke-linejoin="round"/>
<path d="M18.9999 24.1565C19.0883 25.1021 18.3945 25.9416 17.4445 26.03C16.499 26.1184 15.6594 25.4246 15.571 24.4746" fill="white"/>
<path d="M19.9278 19.2563C19.9278 19.57 19.6759 19.8218 19.3622 19.8218C19.0485 19.8218 18.7966 19.57 18.7966 19.2563C18.7966 18.9425 19.0485 18.6907 19.3622 18.6907C19.6759 18.6907 19.9278 18.9425 19.9278 19.2563Z" fill="#48215B"/>
<path d="M12.5575 19.8218C12.8699 19.8218 13.1231 19.5686 13.1231 19.2563C13.1231 18.9439 12.8699 18.6907 12.5575 18.6907C12.2452 18.6907 11.9919 18.9439 11.9919 19.2563C11.9919 19.5686 12.2452 19.8218 12.5575 19.8218Z" fill="#48215B"/>
<path d="M18.1648 17.29C18.1648 17.29 19.3622 16.6979 20.5332 17.449" stroke="#48215B" stroke-width="0.87" stroke-linecap="round" stroke-linejoin="round"/>
<path d="M13.7373 17.29C13.7373 17.29 12.5398 16.6979 11.3689 17.449" stroke="#48215B" stroke-width="0.87" stroke-linecap="round" stroke-linejoin="round"/>
<path d="M26.6619 16.2207C26.6619 16.2207 28.204 4.76326 18.0146 4.33024C18.0146 4.33024 20.8205 3.6807 23.7412 5.31117C26.6619 6.94163 28.6546 9.4028 28.1377 16.8747" fill="#3970CA"/>
<path d="M30.1305 18.6642V20.9795C30.1305 22.1372 29.397 23.127 28.3674 23.5025C28.0802 23.6086 27.7665 23.666 27.444 23.666H26.8607C26.653 23.666 26.4498 23.6263 26.2642 23.5556C25.6058 23.317 25.1375 22.6807 25.1375 21.9428V17.7009C25.1375 16.963 25.6058 16.3267 26.2642 16.0881C26.4498 16.0174 26.653 15.9777 26.8607 15.9777H27.444C27.7665 15.9777 28.0802 16.0351 28.3674 16.1411C29.397 16.5167 30.1305 17.5065 30.1305 18.6642Z" fill="#2E9AE3"/>
<path d="M29.9227 18.8365V20.8028C29.9227 21.6644 29.4455 22.42 28.7341 22.8044C28.5441 22.906 28.3055 22.9016 28.1332 22.769C27.7929 22.4995 27.5764 22.0886 27.5764 21.6202V18.0146C27.5764 17.5507 27.7929 17.1353 28.1332 16.8658C28.3011 16.7332 28.5441 16.7244 28.7341 16.8304C29.4411 17.2193 29.9227 17.9704 29.9227 18.8321V18.8365Z" fill="#A4DCFF"/>
<path d="M26.379 21.7749C26.7402 21.7749 27.033 21.4821 27.033 21.1209C27.033 20.7598 26.7402 20.467 26.379 20.467C26.0179 20.467 25.7251 20.7598 25.7251 21.1209C25.7251 21.4821 26.0179 21.7749 26.379 21.7749Z" fill="#3970CA"/>
<path d="M26.379 21.1209L24.1874 23.4407C23.7322 23.9223 23.1004 24.1963 22.4376 24.1963H20.8513" stroke="#3970CA" stroke-miterlimit="10"/>
<path d="M21.1031 24.8767H20.4314C20.0559 24.8767 19.751 24.5719 19.751 24.1963C19.751 23.8207 20.0559 23.5158 20.4314 23.5158H21.1031C21.4787 23.5158 21.7835 23.8207 21.7835 24.1963C21.7835 24.5719 21.4787 24.8767 21.1031 24.8767Z" fill="#3970CA"/>
</g>
</svg>
