<svg width="38" height="38" viewBox="0 0 38 38" fill="none" xmlns="http://www.w3.org/2000/svg">
<path d="M9.5 12.6654C9.5 12.2454 9.66682 11.8427 9.96375 11.5458C10.2607 11.2488 10.6634 11.082 11.0833 11.082H26.9167C27.3366 11.082 27.7393 11.2488 28.0363 11.5458C28.3332 11.8427 28.5 12.2454 28.5 12.6654C28.5 13.0853 28.3332 13.488 28.0363 13.7849C27.7393 14.0819 27.3366 14.2487 26.9167 14.2487H11.0833C10.6634 14.2487 10.2607 14.0819 9.96375 13.7849C9.66682 13.488 9.5 13.0853 9.5 12.6654ZM12.6667 18.9987C12.6667 18.5788 12.8335 18.176 13.1304 17.8791C13.4273 17.5822 13.8301 17.4154 14.25 17.4154H23.75C24.1699 17.4154 24.5727 17.5822 24.8696 17.8791C25.1665 18.176 25.3333 18.5788 25.3333 18.9987C25.3333 19.4186 25.1665 19.8214 24.8696 20.1183C24.5727 20.4152 24.1699 20.582 23.75 20.582H14.25C13.8301 20.582 13.4273 20.4152 13.1304 20.1183C12.8335 19.8214 12.6667 19.4186 12.6667 18.9987ZM17.4167 23.7487C16.9967 23.7487 16.594 23.9155 16.2971 24.2124C16.0001 24.5094 15.8333 24.9121 15.8333 25.332C15.8333 25.752 16.0001 26.1547 16.2971 26.4516C16.594 26.7486 16.9967 26.9154 17.4167 26.9154H20.5833C21.0033 26.9154 21.406 26.7486 21.7029 26.4516C21.9999 26.1547 22.1667 25.752 22.1667 25.332C22.1667 24.9121 21.9999 24.5094 21.7029 24.2124C21.406 23.9155 21.0033 23.7487 20.5833 23.7487H17.4167Z" fill="#628CA5"/>
</svg>
