<svg width="270" height="274" viewBox="0 0 270 274" fill="none" xmlns="http://www.w3.org/2000/svg">
<g clip-path="url(#clip0_684_12118)">
<path d="M265.524 140.748C259.112 164.674 243.883 191.365 219.789 201.142C183.388 215.921 181.804 246.552 114.423 250.175C103.915 250.739 94.1023 250.193 84.9914 248.7C80.0911 247.896 75.4007 246.81 70.9142 245.467C30.1881 233.345 6.38821 200.35 1.18798 163.942C-5.66169 116.055 25.7076 89.9156 46.2326 74.4049C66.7576 58.8882 88.0624 4.35478 154.28 0.270173C164.374 -0.347617 174.547 0.0662423 184.527 1.76966C207.308 5.65634 231.162 16.7885 246.139 34.9623C247.26 36.3299 248.346 37.7334 249.389 39.1669C269.794 67.2733 274.269 108.119 265.524 140.742V140.748Z" fill="#75A9C8"/>
<path opacity="0.7" d="M265.524 140.748C259.112 164.674 243.883 191.365 219.789 201.142C183.388 215.921 181.804 246.552 114.423 250.175C103.915 250.739 94.1023 250.193 84.9914 248.7C80.0911 247.896 75.4007 246.81 70.9142 245.467C30.1881 233.345 6.38821 200.35 1.18798 163.942C-5.66169 116.055 25.7076 89.9156 46.2326 74.4049C66.7576 58.8882 88.0624 4.35478 154.28 0.270173C164.374 -0.347617 174.547 0.0662423 184.527 1.76966C207.308 5.65634 231.162 16.7885 246.139 34.9623C247.26 36.3299 248.346 37.7334 249.389 39.1669C269.794 67.2733 274.269 108.119 265.524 140.742V140.748Z" fill="white"/>
<path opacity="0.3" d="M35.9036 49.621V46.2202C35.9036 39.5085 31.4411 37.1333 26.8767 37.1333C22.3123 37.1333 17.9517 40.5521 17.9517 46.2202V49.621H16.6802V68.4426H37.0732V49.621H35.9036ZM27.4825 59.9675V63.3744H25.5512V59.9675C24.6095 59.5837 23.9437 58.666 23.9437 57.5863C23.9437 56.1648 25.0953 55.0132 26.5168 55.0132C27.9383 55.0132 29.0899 56.1648 29.0899 57.5863C29.0899 58.666 28.4242 59.5896 27.4825 59.9675ZM33.0786 49.621H20.6808V46.2202C20.6808 42.8014 23.4639 40.0183 26.8827 40.0183C30.3015 40.0183 33.0846 42.3575 33.0846 46.2202V49.621H33.0786Z" stroke="black" stroke-width="0.599796" stroke-miterlimit="10"/>
<path opacity="0.3" d="M107.837 14.1733H50.053C45.5877 14.1733 41.9678 17.7919 41.9678 22.2556C41.9678 26.7193 45.5877 30.3378 50.053 30.3378H107.837C112.303 30.3378 115.923 26.7193 115.923 22.2556C115.923 17.7919 112.303 14.1733 107.837 14.1733Z" stroke="black" stroke-width="0.599796" stroke-miterlimit="10"/>
<g opacity="0.3">
<path d="M57.3465 21.5028L59.032 23.3622L58.2222 23.968L56.9687 21.7547L55.7271 23.968L54.9174 23.3622L56.5848 21.5028L54.1196 20.993L54.4195 20.0213L56.7407 21.041L56.4528 18.5278H57.4725L57.2026 21.041L59.5238 20.0393L59.8237 21.011L57.3465 21.5028Z" fill="black"/>
<path d="M63.6263 21.5028L65.3117 23.3622L64.502 23.968L63.2484 21.7547L62.0069 23.968L61.1971 23.3622L62.8646 21.5028L60.3994 20.993L60.6993 20.0213L63.0205 21.041L62.7326 18.5278H63.7523L63.4824 21.041L65.8036 20.0393L66.1035 21.011L63.6263 21.5028Z" fill="black"/>
<path d="M69.9061 21.5028L71.5915 23.3622L70.7818 23.968L69.5282 21.7547L68.2867 23.968L67.4769 23.3622L69.1444 21.5028L66.6792 20.993L66.9791 20.0213L69.3003 21.041L69.0124 18.5278H70.0321L69.7621 21.041L72.0834 20.0393L72.3833 21.011L69.9061 21.5028Z" fill="black"/>
<path d="M76.1864 21.5028L77.8718 23.3622L77.0621 23.968L75.8085 21.7547L74.5669 23.968L73.7572 23.3622L75.4246 21.5028L72.9595 20.993L73.2594 20.0213L75.5806 21.041L75.2927 18.5278H76.3123L76.0424 21.041L78.3636 20.0393L78.6635 21.011L76.1864 21.5028Z" fill="black"/>
<path d="M82.4598 21.5028L84.1452 23.3622L83.3355 23.968L82.0819 21.7547L80.8404 23.968L80.0306 23.3622L81.6981 21.5028L79.2329 20.993L79.5328 20.0213L81.854 21.041L81.5661 18.5278H82.5858L82.3159 21.041L84.6371 20.0393L84.937 21.011L82.4598 21.5028Z" fill="black"/>
<path d="M88.7396 21.5028L90.425 23.3622L89.6153 23.968L88.3617 21.7547L87.1201 23.968L86.3104 23.3622L87.9778 21.5028L85.5127 20.993L85.8126 20.0213L88.1338 21.041L87.8459 18.5278H88.8656L88.5956 21.041L90.9169 20.0393L91.2167 21.011L88.7396 21.5028Z" fill="black"/>
<path d="M95.0194 21.5028L96.7048 23.3622L95.8951 23.968L94.6415 21.7547L93.3999 23.968L92.5902 23.3622L94.2576 21.5028L91.7925 20.993L92.0924 20.0213L94.4136 21.041L94.1257 18.5278H95.1453L94.8754 21.041L97.1966 20.0393L97.4965 21.011L95.0194 21.5028Z" fill="black"/>
<path d="M101.299 21.5028L102.985 23.3622L102.175 23.968L100.921 21.7547L99.6797 23.968L98.87 23.3622L100.537 21.5028L98.0723 20.993L98.3722 20.0213L100.693 21.041L100.405 18.5278H101.425L101.155 21.041L103.476 20.0393L103.776 21.011L101.299 21.5028Z" fill="black"/>
</g>
<path opacity="0.3" d="M33.1147 124.422C32.5808 123.498 31.8371 122.976 31.0514 122.976H29.6898V121.759C30.6615 120.613 31.2913 118.88 31.2913 117.098C31.2913 114.039 29.4499 111.556 27.1767 111.556C24.9035 111.556 23.0621 114.033 23.0621 117.098C23.0621 118.814 23.6379 120.487 24.5496 121.627V122.976H22.7322C21.9285 122.976 21.1667 123.498 20.6209 124.422L18.1558 128.572H35.5138L33.1087 124.422H33.1147Z" stroke="black" stroke-width="0.599796" stroke-miterlimit="10"/>
<path opacity="0.3" d="M38.8761 126.207C41.6041 119.621 38.4766 112.07 31.8905 109.342C25.3045 106.614 17.754 109.742 15.026 116.328C12.2979 122.914 15.4255 130.464 22.0115 133.192C28.5975 135.92 36.1481 132.793 38.8761 126.207Z" stroke="black" stroke-width="0.599796" stroke-miterlimit="10"/>
<g opacity="0.2">
<path d="M123.456 177.39C101.114 164.908 85.9688 141.024 85.9688 113.667C85.9688 73.4512 118.688 40.7263 158.91 40.7263C163.93 40.7263 168.831 41.2481 173.575 42.2198L171.716 48.4577L192.445 43.5274L177.81 28.0466L176.034 34.0026C170.51 32.815 164.788 32.1852 158.916 32.1852C113.985 32.1852 77.4277 68.7368 77.4277 113.673C77.4277 145.151 95.3676 172.507 121.555 186.075L116.402 177.534L123.468 177.396L123.456 177.39Z" fill="black"/>
<path d="M188.978 37.9312L195.378 44.7028L187.514 46.5742C213.551 57.7184 231.845 83.5936 231.845 113.667C231.845 153.884 199.126 186.608 158.904 186.608C151.562 186.608 144.473 185.511 137.785 183.484L140.316 178.895L119.018 179.309L130.024 197.549L133.569 191.119C141.546 193.734 150.057 195.156 158.898 195.156C203.829 195.156 240.386 158.604 240.386 113.667C240.386 79.353 219.063 49.9211 188.972 37.9312H188.978Z" fill="black"/>
</g>
<path d="M255.231 24.7298L241.495 22.1087L241.471 22.1566C240.788 23.5422 239.666 24.3159 238.634 24.118L238.041 24.004C237.003 23.8061 236.247 22.6785 236.121 21.137V21.083L222.38 18.4619C218.553 17.7301 214.865 20.2433 214.133 24.064L196.319 114.459C195.899 116.654 197.339 118.772 199.534 119.192L238.287 126.587C240.482 127.007 242.599 125.567 243.019 123.372L260.833 32.9769C261.565 29.1503 259.051 25.4615 255.231 24.7298Z" fill="#75A9C8" stroke="#263238" stroke-width="0.599796" stroke-linecap="round" stroke-linejoin="round"/>
<path d="M260.449 34.9923L260.833 32.9769C261.565 29.1503 259.052 25.4615 255.231 24.7298L241.496 22.1087L241.472 22.1566C240.788 23.5422 239.666 24.3159 238.635 24.118L238.041 24.004C237.003 23.8061 236.247 22.6785 236.121 21.137V21.083L222.38 18.4619C218.553 17.7301 214.865 20.2433 214.133 24.064L213.749 26.0793L260.455 34.9923H260.449Z" fill="white" stroke="#263238" stroke-width="0.599796" stroke-linecap="round" stroke-linejoin="round"/>
<path d="M257.444 63.9383L259.118 55.1633L258.326 55.0133L263.322 31.8072C264.054 27.9805 261.541 24.2918 257.72 23.5601L220.515 16.4585C216.688 15.7267 212.999 18.2399 212.268 22.0606L193.956 115.065C193.224 118.892 195.737 122.58 199.558 123.312L236.763 130.414C240.59 131.145 244.279 128.632 245.01 124.812L255.231 71.2678L256.023 71.4177L257.012 66.2295L256.221 66.0796L256.658 63.7883L257.45 63.9383H257.444ZM243.769 119.449C243.037 123.276 239.348 125.783 235.522 125.051L202.671 118.784C198.844 118.052 196.337 114.363 197.069 110.536L214.139 24.0579C214.871 20.2312 218.559 17.724 222.386 18.4558L236.121 21.0769V21.1309C236.253 22.6724 237.009 23.8 238.047 23.9979L238.641 24.1119C239.678 24.3098 240.794 23.5361 241.478 22.1505L241.502 22.1026L255.237 24.7237C259.064 25.4554 261.571 29.1442 260.839 32.9708L243.769 119.449Z" fill="#707070" stroke="#263238" stroke-width="0.599796" stroke-linecap="round" stroke-linejoin="round"/>
<path d="M256.317 24.2858L221.541 17.652C217.486 16.8783 213.576 19.5354 212.802 23.59L195.012 113.865C194.238 117.92 196.895 121.831 200.95 122.604L235.726 129.238C239.781 130.012 243.691 127.355 244.465 123.3L262.255 33.0248C263.029 28.9702 260.372 25.0595 256.317 24.2858ZM243.769 119.455C243.038 123.282 239.349 125.789 235.522 125.057L202.671 118.79C198.845 118.058 196.337 114.369 197.069 110.542L214.139 24.0638C214.871 20.2371 218.56 17.73 222.387 18.4617L236.122 21.0828V21.1368C236.254 22.6783 237.01 23.8059 238.047 24.0038L238.641 24.1178C239.679 24.3157 240.794 23.542 241.478 22.1565L241.502 22.1085L255.237 24.7296C259.064 25.4613 261.571 29.1501 260.839 32.9768L243.769 119.455Z" fill="#263238" stroke="#263238" stroke-width="0.599796" stroke-linecap="round" stroke-linejoin="round"/>
<path d="M239.252 22.0244C239.318 21.6645 239.084 21.3166 238.724 21.2506C238.364 21.1847 238.017 21.4186 237.951 21.7785C237.885 22.1383 238.119 22.4862 238.478 22.5522C238.838 22.6182 239.186 22.3842 239.252 22.0244Z" fill="#707070"/>
<path d="M219.069 20.7531C218.943 21.4129 218.157 21.5088 218.061 22.0067V22.0426L218.769 22.1806L218.727 22.4025L217.768 22.2226L217.804 22.0366C217.936 21.3349 218.703 21.3349 218.823 20.7231C218.865 20.5012 218.811 20.3632 218.631 20.3332C218.451 20.2972 218.349 20.4112 218.313 20.6031L218.277 20.7951L218.049 20.7531L218.085 20.5731C218.151 20.2373 218.343 20.0453 218.679 20.1113C219.021 20.1773 219.129 20.4232 219.069 20.7591V20.7531Z" fill="#263238"/>
<path d="M220.263 20.981L220.251 21.035C220.209 21.257 220.089 21.4009 219.903 21.4309C220.071 21.5329 220.125 21.7128 220.083 21.9347L220.053 22.1027C219.987 22.4385 219.789 22.6245 219.453 22.5585C219.117 22.4925 219.003 22.2466 219.069 21.9107L219.099 21.7608L219.327 21.8028L219.297 21.9707C219.261 22.1686 219.315 22.3006 219.495 22.3366C219.675 22.3726 219.771 22.2706 219.813 22.0487L219.843 21.8807C219.885 21.6648 219.813 21.5449 219.633 21.5029L219.501 21.4789L219.543 21.2629L219.687 21.2929C219.849 21.3169 219.969 21.233 220.005 21.041L220.023 20.9391C220.065 20.7171 220.011 20.5852 219.831 20.5492C219.657 20.5132 219.555 20.6212 219.513 20.8191L219.489 20.9331L219.261 20.8911L219.279 20.7891C219.345 20.4532 219.537 20.2673 219.873 20.3333C220.209 20.3992 220.323 20.6452 220.263 20.975V20.981Z" fill="#263238"/>
<path d="M220.701 21.2329L220.641 21.5328L220.407 21.4908L220.467 21.1909L220.701 21.2329ZM220.473 22.4205L220.413 22.7204L220.179 22.6784L220.239 22.3785L220.473 22.4205Z" fill="#263238"/>
<path d="M221.157 21.5269C221.247 21.4189 221.367 21.3829 221.516 21.4069C221.798 21.4609 221.882 21.6888 221.822 22.0007L221.738 22.4265C221.672 22.7624 221.474 22.9484 221.139 22.8824C220.803 22.8164 220.689 22.5705 220.755 22.2346L220.785 22.0907L221.013 22.1326L220.983 22.2946C220.947 22.4925 221.001 22.6245 221.181 22.6605C221.355 22.6965 221.456 22.5885 221.498 22.3966L221.576 21.9707C221.612 21.7728 221.558 21.6408 221.379 21.6048C221.247 21.5808 221.139 21.6348 221.085 21.7908L221.073 21.8387L220.845 21.7968L221.133 20.5972L221.99 20.7591L221.948 20.975L221.307 20.8551L221.145 21.5209L221.157 21.5269Z" fill="#263238"/>
<path d="M223.166 21.5329V21.5749L222.932 21.5329L222.944 21.4789C222.98 21.281 222.92 21.149 222.746 21.119C222.56 21.083 222.458 21.185 222.416 21.4189L222.32 21.9107C222.41 21.7728 222.542 21.7128 222.716 21.7428C222.998 21.7968 223.082 22.0247 223.022 22.3366L222.956 22.6665C222.89 23.0024 222.686 23.1883 222.35 23.1223C222.014 23.0564 221.888 22.8104 221.954 22.4746L222.164 21.3589C222.23 21.0111 222.428 20.8251 222.776 20.8911C223.112 20.9571 223.226 21.197 223.166 21.5329ZM222.26 22.2047L222.2 22.5345C222.164 22.7325 222.218 22.8644 222.398 22.9004C222.572 22.9364 222.68 22.8284 222.716 22.6365L222.776 22.3066C222.812 22.1087 222.752 21.9767 222.578 21.9407C222.398 21.9048 222.296 22.0127 222.26 22.2047Z" fill="#263238"/>
<path d="M246.976 26.1833L246.357 26.0652L246.064 27.6029L246.682 27.721L246.976 26.1833Z" fill="#263238"/>
<path d="M247.859 26.015L247.24 25.897L246.887 27.747L247.506 27.865L247.859 26.015Z" fill="#263238"/>
<path d="M248.726 25.9527L248.107 25.8347L247.713 27.9027L248.332 28.0207L248.726 25.9527Z" fill="#263238"/>
<path d="M249.617 25.7276L248.999 25.6096L248.531 28.0606L249.15 28.1786L249.617 25.7276Z" fill="#263238"/>
<path d="M256.778 29.594L253.083 28.8862L253.515 26.625L257.21 27.3328L256.778 29.594ZM253.323 28.7243L256.61 29.3541L256.964 27.5067L253.677 26.8769L253.323 28.7243Z" fill="#263238"/>
<path d="M255.901 27.5197L253.951 27.1477L253.684 28.5499L255.634 28.9219L255.901 27.5197Z" fill="#263238"/>
<path d="M257.382 28.2631L256.917 28.1743L256.815 28.7046L257.281 28.7934L257.382 28.2631Z" fill="#263238"/>
<path d="M251.824 28.1426C251.824 28.1426 251.776 28.1246 251.758 28.1126C251.092 27.5248 250.516 27.8427 250.492 27.8547C250.426 27.8907 250.342 27.8727 250.3 27.8067C250.264 27.7407 250.282 27.6568 250.348 27.6148C250.378 27.5968 251.122 27.1709 251.944 27.9027C252.004 27.9567 252.01 28.0406 251.956 28.1006C251.92 28.1366 251.872 28.1546 251.824 28.1426Z" fill="#263238"/>
<path d="M252.19 27.7288C252.19 27.7288 252.142 27.7108 252.124 27.6988C251.158 26.8471 250.307 27.3329 250.301 27.3329C250.235 27.3749 250.151 27.3509 250.109 27.2849C250.067 27.219 250.091 27.129 250.157 27.093C250.169 27.087 251.194 26.4992 252.31 27.4889C252.37 27.5429 252.376 27.6268 252.322 27.6868C252.286 27.7228 252.238 27.7408 252.19 27.7288Z" fill="#263238"/>
<path d="M252.544 27.2428C252.544 27.2428 252.496 27.2248 252.478 27.2129C251.254 26.1332 250.192 26.727 250.15 26.751C250.084 26.787 249.994 26.769 249.958 26.703C249.916 26.637 249.94 26.5531 250.006 26.5111C250.018 26.5051 251.284 25.7793 252.663 27.0029C252.723 27.0569 252.729 27.1409 252.675 27.2009C252.639 27.2368 252.591 27.2548 252.544 27.2428Z" fill="#263238"/>
<path d="M251.362 28.2926C251.326 28.4845 251.14 28.6104 250.948 28.5745C250.756 28.5385 250.63 28.3525 250.666 28.1606C250.702 27.9687 250.888 27.8427 251.08 27.8787C251.272 27.9147 251.398 28.1006 251.362 28.2926Z" fill="#263238"/>
<path d="M248.309 59.9326L215.763 53.7242C214.025 53.3927 212.348 54.5326 212.017 56.2702L206.805 83.5901C206.474 85.3277 207.613 87.005 209.351 87.3364L241.897 93.5449C243.634 93.8763 245.312 92.7364 245.643 90.9989L250.855 63.679C251.186 61.9414 250.046 60.2641 248.309 59.9326Z" fill="white" stroke="#263238" stroke-width="0.599796" stroke-miterlimit="10"/>
<path d="M221.768 49.657L221.349 46.4541L221.894 46.5561L222.188 49.0032L223.37 46.832L223.868 46.9279L222.29 49.753L221.966 51.4384L221.451 51.3424L221.774 49.657H221.768Z" fill="#263238"/>
<path d="M223.886 48.1096C224.024 47.3899 224.467 46.994 225.187 47.1319C225.913 47.2699 226.177 47.8037 226.045 48.5175L225.583 50.9466C225.445 51.6604 225.001 52.0623 224.275 51.9243C223.556 51.7864 223.292 51.2465 223.43 50.5388L223.892 48.1096H223.886ZM223.934 50.6647C223.85 51.0966 223.988 51.3785 224.359 51.4505C224.743 51.5224 224.965 51.3065 225.043 50.8807L225.517 48.3975C225.595 47.9777 225.475 47.6838 225.091 47.6118C224.713 47.5398 224.485 47.7617 224.401 48.1816L223.928 50.6647H223.934Z" fill="#263238"/>
<path d="M226.561 51.1686C226.483 51.5944 226.597 51.8763 226.98 51.9543C227.358 52.0263 227.574 51.8044 227.652 51.3785L228.336 47.7857L228.828 47.8817L228.15 51.4445C228.012 52.1582 227.592 52.5721 226.867 52.4342C226.147 52.2962 225.913 51.7564 226.045 51.0486L226.723 47.4858L227.238 47.5818L226.555 51.1746L226.561 51.1686Z" fill="#263238"/>
<path d="M230.399 48.1757C231.137 48.3137 231.377 48.7515 231.239 49.4473L231.167 49.8312C231.071 50.347 230.825 50.6349 230.399 50.6889C230.807 50.8988 230.897 51.2767 230.801 51.7805L230.663 52.5122C230.621 52.7222 230.591 52.9141 230.651 53.094L230.123 52.9921C230.087 52.8481 230.087 52.7222 230.147 52.4043L230.285 51.6665C230.387 51.1387 230.171 50.9228 229.734 50.8388L229.362 50.7668L228.978 52.7761L228.456 52.6742L229.356 47.9778L230.405 48.1757H230.399ZM229.842 50.365C230.255 50.4429 230.531 50.359 230.627 49.8491L230.711 49.3993C230.789 48.9794 230.681 48.7275 230.291 48.6496L229.782 48.5536L229.452 50.293L229.842 50.365Z" fill="#263238"/>
<path d="M234.898 50.215L234.82 50.6408L234.322 50.5448L234.406 50.095C234.484 49.6751 234.37 49.3872 233.986 49.3093C233.608 49.2373 233.387 49.4592 233.309 49.8851L232.835 52.3682C232.757 52.7941 232.883 53.082 233.255 53.154C233.638 53.2259 233.854 53.004 233.932 52.5781L234.046 51.9664L234.544 52.0623L234.43 52.6441C234.292 53.3579 233.866 53.7597 233.147 53.6218C232.427 53.4838 232.181 52.95 232.319 52.2363L232.781 49.8071C232.919 49.0933 233.345 48.6915 234.058 48.8294C234.784 48.9674 235.03 49.5012 234.892 50.215H234.898Z" fill="#263238"/>
<path d="M235.336 50.293C235.474 49.5732 235.918 49.1773 236.637 49.3153C237.363 49.4532 237.633 49.9871 237.495 50.7008L237.033 53.13C236.895 53.8438 236.451 54.2456 235.726 54.1077C235.006 53.9697 234.742 53.4299 234.88 52.7221L235.342 50.293H235.336ZM235.384 52.8481C235.3 53.2799 235.438 53.5618 235.81 53.6338C236.194 53.7058 236.415 53.4899 236.499 53.064L236.973 50.5809C237.051 50.161 236.925 49.8671 236.547 49.7951C236.17 49.7232 235.942 49.9451 235.864 50.3649L235.39 52.8481H235.384Z" fill="#263238"/>
<path d="M239.306 49.8792C240.038 50.0172 240.29 50.527 240.152 51.2528L239.702 53.6219C239.564 54.3417 239.144 54.7196 238.413 54.5816L237.309 54.3717L238.209 49.6753L239.312 49.8852L239.306 49.8792ZM238.497 54.1018C238.875 54.1738 239.096 53.9758 239.18 53.544L239.642 51.1268C239.726 50.6949 239.588 50.425 239.204 50.3531L238.641 50.2451L237.927 53.9938L238.497 54.1018Z" fill="#263238"/>
<path d="M242.137 52.578L242.047 53.0459L240.901 52.8239L240.583 54.4974L241.993 54.7673L241.903 55.2411L239.972 54.8693L240.871 50.1729L242.803 50.5447L242.713 51.0186L241.303 50.7487L240.997 52.3561L242.143 52.578H242.137Z" fill="#263238"/>
<path d="M218.158 68.6948C218.53 68.2689 219.022 68.095 219.615 68.2089C220.755 68.4249 221.103 69.3605 220.863 70.6261L220.533 72.3595C220.275 73.7151 219.459 74.4768 218.104 74.2189C216.748 73.961 216.287 72.9533 216.544 71.5978L216.658 71.004L217.582 71.1779L217.456 71.8377C217.306 72.6354 217.54 73.1812 218.248 73.3132C218.956 73.4511 219.375 73.0313 219.531 72.2336L219.861 70.5121C220.011 69.7144 219.777 69.1686 219.07 69.0367C218.524 68.9347 218.098 69.1686 217.888 69.7984L217.852 70.0023L216.928 69.8284L218.11 64.946L221.607 65.6118L221.439 66.4995L218.83 66.0017L218.17 68.7008L218.158 68.6948Z" fill="#263238"/>
<path d="M226.333 68.7186L226.303 68.8805L225.379 68.7066L225.421 68.4786C225.571 67.6809 225.331 67.1471 224.611 67.0091C223.862 66.8652 223.442 67.285 223.262 68.2327L222.884 70.224C223.244 69.6602 223.79 69.4143 224.497 69.5463C225.637 69.7622 225.985 70.6859 225.745 71.9635L225.487 73.307C225.229 74.6625 224.389 75.4183 223.034 75.1604C221.666 74.8964 221.163 73.8828 221.42 72.5273L222.284 68.0048C222.554 66.6013 223.352 65.8455 224.761 66.1154C226.129 66.3794 226.597 67.357 226.339 68.7126L226.333 68.7186ZM222.644 71.4536L222.392 72.7852C222.242 73.5829 222.476 74.1287 223.202 74.2667C223.91 74.4046 224.347 73.9848 224.497 73.187L224.749 71.8555C224.899 71.0578 224.653 70.5119 223.94 70.374C223.22 70.236 222.794 70.6559 222.644 71.4536Z" fill="#263238"/>
<path d="M231.257 69.6604L231.227 69.8224L230.303 69.6485L230.345 69.4205C230.495 68.6228 230.255 68.089 229.536 67.951C228.786 67.8071 228.366 68.2269 228.186 69.1746L227.808 71.1659C228.168 70.6021 228.714 70.3562 229.422 70.4882C230.561 70.7041 230.909 71.6278 230.669 72.9053L230.411 74.2489C230.153 75.6044 229.314 76.3602 227.958 76.1023C226.591 75.8383 226.087 74.8247 226.345 73.4692L227.208 68.9467C227.478 67.5432 228.276 66.7874 229.686 67.0573C231.053 67.3212 231.521 68.2989 231.263 69.6545L231.257 69.6604ZM227.568 72.3955L227.316 73.7271C227.167 74.5248 227.4 75.0706 228.126 75.2086C228.834 75.3465 229.272 74.9267 229.422 74.1289L229.674 72.7974C229.824 71.9997 229.578 71.4538 228.864 71.3159C228.144 71.1779 227.718 71.5978 227.568 72.3955Z" fill="#263238"/>
<path d="M236.181 70.6141L235.318 75.1366C235.048 76.5401 234.244 77.3078 232.828 77.0379C231.473 76.78 230.993 75.7843 231.251 74.4288L231.281 74.2669L232.205 74.4408L232.163 74.6687C232.013 75.4665 232.265 76.0003 232.972 76.1382C233.734 76.2822 234.154 75.8623 234.334 74.9266L234.712 72.9353C234.358 73.4991 233.812 73.733 233.104 73.6011C231.965 73.3852 231.611 72.4735 231.857 71.1959L232.115 69.8404C232.373 68.4848 233.2 67.7351 234.568 67.999C235.935 68.2629 236.439 69.2646 236.181 70.6201V70.6141ZM233.098 69.9723L232.846 71.3039C232.696 72.1016 232.942 72.6474 233.656 72.7854C234.376 72.9233 234.802 72.5035 234.952 71.7057L235.204 70.3742C235.36 69.5645 235.12 69.0307 234.394 68.8927C233.686 68.7547 233.254 69.1626 233.098 69.9723Z" fill="#263238"/>
<path d="M241.207 71.5317L241.153 71.8076C240.979 72.7073 240.542 73.3071 239.792 73.4391C240.47 73.8709 240.62 74.6207 240.446 75.5084L240.32 76.1682C240.056 77.5357 239.186 78.2495 237.807 77.9855C236.427 77.7216 235.881 76.738 236.139 75.3704L236.265 74.7107C236.439 73.811 236.841 73.1932 237.651 73.0312C236.979 72.6174 236.799 71.9096 236.973 71.0099L237.027 70.734C237.291 69.3665 238.166 68.6827 239.534 68.9406C240.901 69.2045 241.465 70.1642 241.207 71.5317ZM237.998 70.9439L237.914 71.3758C237.753 72.2395 238.094 72.6953 238.79 72.8273C239.486 72.9593 239.978 72.6594 240.14 71.8016L240.224 71.3698C240.398 70.4581 240.062 69.9603 239.36 69.8283C238.664 69.6964 238.166 70.0322 237.992 70.9439H237.998ZM237.267 74.7826L237.123 75.5324C236.949 76.4441 237.273 76.9539 237.98 77.0858C238.688 77.2238 239.162 76.8639 239.354 75.9582L239.498 75.2085C239.66 74.3448 239.36 73.8589 238.628 73.715C237.896 73.577 237.435 73.9189 237.267 74.7826Z" fill="#263238"/>
<path d="M209.25 95.0737L239.876 100.916" stroke="#263238" stroke-width="0.599796" stroke-miterlimit="10"/>
<path d="M208.111 101.048L238.736 106.89" stroke="#263238" stroke-width="0.599796" stroke-miterlimit="10"/>
<path d="M258.914 72.5634L266.321 71.4238" stroke="#263238" stroke-width="0.599796" stroke-miterlimit="10"/>
<path d="M257.774 81.1104L261.763 82.25" stroke="#263238" stroke-width="0.599796" stroke-miterlimit="10"/>
<path d="M255.495 88.5178L262.902 93.6461" stroke="#263238" stroke-width="0.599796" stroke-miterlimit="10"/>
<path d="M187.904 86.7905C188.708 86.7905 189.355 86.1428 189.355 85.339V73.3491C189.355 72.5454 188.708 71.8976 187.904 71.8976H187.838V67.2072C187.838 64.0103 185.247 61.4192 182.05 61.4192H55.4931C52.2962 61.4192 49.7051 64.0103 49.7051 67.2072V154.639C49.7051 157.836 52.2962 160.427 55.4931 160.427H182.05C185.247 160.427 187.838 157.836 187.838 154.639V123.27H187.904C188.708 123.27 189.355 122.622 189.355 121.819V109.829C189.355 109.025 188.708 108.377 187.904 108.377H187.838V106.86H187.904C188.708 106.86 189.355 106.212 189.355 105.408V93.4183C189.355 92.6146 188.708 91.9668 187.904 91.9668H187.838V86.7905H187.904Z" fill="#263238"/>
<path d="M182.68 65.2759H54.8691V156.565H182.68V65.2759Z" fill="#75A9C8" stroke="#263238" stroke-width="0.599796" stroke-miterlimit="10"/>
<path d="M154.73 77.0137H83.252V134.42H154.73V77.0137Z" fill="#E3E3E3" stroke="#263238" stroke-width="0.599796" stroke-miterlimit="10"/>
<path d="M110.141 118.514V118.874H109.265V120.151H110.345V120.517H108.869V116.924H110.345V117.29H109.265V118.514H110.141Z" fill="#B2B2B2"/>
<path d="M111.064 120.511H110.705V116.918H111.214L112.048 119.515V116.918H112.402V120.511H111.988L111.07 117.608V120.511H111.064Z" fill="#B2B2B2"/>
<path d="M113.325 120.511V117.284H112.666V116.918H114.387V117.284H113.727V120.511H113.331H113.325Z" fill="#B2B2B2"/>
<path d="M115.935 118.514V118.874H115.059V120.151H116.139V120.517H114.663V116.924H116.139V117.29H115.059V118.514H115.935Z" fill="#B2B2B2"/>
<path d="M117.302 116.924C117.866 116.924 118.1 117.212 118.1 117.746V118.04C118.1 118.436 117.962 118.682 117.656 118.778C117.986 118.874 118.106 119.144 118.106 119.527V120.085C118.106 120.247 118.106 120.391 118.178 120.517H117.77C117.722 120.415 117.704 120.319 117.704 120.079V119.515C117.704 119.108 117.512 118.982 117.182 118.982H116.9V120.517H116.499V116.924H117.296H117.302ZM117.2 118.616C117.518 118.616 117.71 118.514 117.71 118.124V117.782C117.71 117.458 117.59 117.29 117.296 117.29H116.906V118.622H117.206L117.2 118.616Z" fill="#B2B2B2"/>
<path d="M120.901 117.788V118.112H120.523V117.77C120.523 117.446 120.397 117.254 120.103 117.254C119.809 117.254 119.683 117.446 119.683 117.77V119.665C119.683 119.989 119.815 120.181 120.103 120.181C120.391 120.181 120.523 119.983 120.523 119.665V119.197H120.901V119.641C120.901 120.187 120.643 120.547 120.091 120.547C119.54 120.547 119.288 120.187 119.288 119.641V117.782C119.288 117.236 119.546 116.876 120.091 116.876C120.637 116.876 120.901 117.236 120.901 117.782V117.788Z" fill="#B2B2B2"/>
<path d="M121.237 117.788C121.237 117.236 121.507 116.882 122.059 116.882C122.61 116.882 122.886 117.236 122.886 117.788V119.647C122.886 120.193 122.616 120.553 122.059 120.553C121.501 120.553 121.237 120.193 121.237 119.647V117.788ZM121.633 119.665C121.633 119.995 121.771 120.181 122.059 120.181C122.346 120.181 122.484 119.989 122.484 119.665V117.77C122.484 117.446 122.352 117.254 122.059 117.254C121.765 117.254 121.633 117.446 121.633 117.77V119.665Z" fill="#B2B2B2"/>
<path d="M124.104 116.924C124.662 116.924 124.92 117.26 124.92 117.818V119.629C124.92 120.181 124.662 120.517 124.104 120.517H123.264V116.924H124.104ZM124.104 120.151C124.392 120.151 124.53 119.971 124.53 119.641V117.794C124.53 117.464 124.392 117.284 124.098 117.284H123.666V120.145H124.104V120.151Z" fill="#B2B2B2"/>
<path d="M126.569 118.514V118.874H125.693V120.151H126.773V120.517H125.297V116.924H126.773V117.29H125.693V118.514H126.569Z" fill="#B2B2B2"/>
<path d="M149.085 95.9734H88.77V102.781H149.085V95.9734Z" fill="white" stroke="#263238" stroke-width="0.599796" stroke-miterlimit="10"/>
<path d="M149.085 106.77H88.77V113.577H149.085V106.77Z" fill="white" stroke="#263238" stroke-width="0.599796" stroke-miterlimit="10"/>
<path d="M127.445 122.125H121.753V128.932H127.445V122.125Z" fill="white" stroke="#263238" stroke-width="0.599796" stroke-miterlimit="10"/>
<path d="M120.199 122.125H114.507V128.932H120.199V122.125Z" fill="white" stroke="#263238" stroke-width="0.599796" stroke-miterlimit="10"/>
<path d="M112.948 122.125H107.256V128.932H112.948V122.125Z" fill="white" stroke="#263238" stroke-width="0.599796" stroke-miterlimit="10"/>
<path d="M105.702 122.125H100.268V128.932H105.702V122.125Z" fill="white" stroke="#263238" stroke-width="0.599796" stroke-miterlimit="10"/>
<path d="M134.906 122.125H129.004V128.932H134.906V122.125Z" fill="white" stroke="#263238" stroke-width="0.599796" stroke-miterlimit="10"/>
<path d="M121.861 84.8051V83.4975C121.861 81.3742 120.134 79.6528 118.016 79.6528C115.899 79.6528 114.172 81.3802 114.172 83.4975V84.8051H114.1V92.0386H121.939V84.8051H121.867H121.861ZM118.244 88.7817V90.0953H117.5V88.7817C117.141 88.6318 116.883 88.2779 116.883 87.864C116.883 87.3182 117.327 86.8744 117.872 86.8744C118.418 86.8744 118.862 87.3182 118.862 87.864C118.862 88.2779 118.604 88.6318 118.244 88.7817ZM120.397 84.8051H115.629V83.4975C115.629 82.184 116.697 81.1163 118.01 81.1163C119.324 81.1163 120.391 82.184 120.391 83.4975V84.8051H120.397Z" fill="#263238"/>
<path d="M109.583 100.208C109.583 100.532 109.709 100.724 110.003 100.724C110.297 100.724 110.417 100.526 110.417 100.208V97.4607H110.788V100.184C110.788 100.73 110.537 101.089 109.985 101.089C109.433 101.089 109.187 100.724 109.187 100.184V97.4607H109.583V100.208Z" fill="#B2B2B2"/>
<path d="M112.744 98.3245V98.4205H112.366V98.3005C112.366 97.9766 112.24 97.7847 111.958 97.7847C111.676 97.7847 111.55 97.9766 111.55 98.2945C111.55 99.0982 112.756 99.1762 112.756 100.19C112.756 100.736 112.492 101.09 111.946 101.09C111.4 101.09 111.142 100.736 111.142 100.19V99.9859H111.514V100.214C111.514 100.538 111.646 100.73 111.934 100.73C112.222 100.73 112.354 100.538 112.354 100.214C112.354 99.4161 111.154 99.3382 111.154 98.3245C111.154 97.7727 111.412 97.4248 111.952 97.4248C112.492 97.4248 112.75 97.7787 112.75 98.3245H112.744Z" fill="#B2B2B2"/>
<path d="M114.375 99.0504V99.4103H113.499V100.688H114.579V101.054H113.103V97.4609H114.579V97.8268H113.499V99.0504H114.375Z" fill="#B2B2B2"/>
<path d="M115.742 97.4609C116.306 97.4609 116.54 97.7488 116.54 98.2827V98.5766C116.54 98.9724 116.402 99.2183 116.096 99.3143C116.426 99.4103 116.546 99.6802 116.546 100.064V100.622C116.546 100.784 116.546 100.928 116.618 101.054H116.21C116.162 100.952 116.144 100.856 116.144 100.616V100.052C116.144 99.6442 115.952 99.5182 115.622 99.5182H115.34V101.054H114.938V97.4609H115.736H115.742ZM115.64 99.1524C115.958 99.1524 116.15 99.0504 116.15 98.6605V98.3186C116.15 97.9948 116.03 97.8268 115.736 97.8268H115.346V99.1584H115.646L115.64 99.1524Z" fill="#B2B2B2"/>
<path d="M118.111 101.054H117.751V97.4609H118.261L119.095 100.058V97.4609H119.449V101.054H119.035L118.117 98.1507V101.054H118.111Z" fill="#B2B2B2"/>
<path d="M120.265 100.328L120.127 101.054H119.755L120.445 97.4609H121.027L121.717 101.054H121.315L121.177 100.328H120.271H120.265ZM120.319 99.9861H121.117L120.709 97.9108L120.313 99.9861H120.319Z" fill="#B2B2B2"/>
<path d="M123.342 101.048H122.958L122.364 98.1927V101.054H122.017V97.4609H122.574L123.162 100.328L123.732 97.4609H124.29V101.054H123.912V98.1627L123.342 101.048Z" fill="#B2B2B2"/>
<path d="M125.981 99.0504V99.4103H125.105V100.688H126.185V101.054H124.709V97.4609H126.185V97.8268H125.105V99.0504H125.981Z" fill="#B2B2B2"/>
<path d="M110.134 109.835L110.68 110.434L110.416 110.632L110.008 109.919L109.606 110.632L109.342 110.434L109.882 109.835L109.084 109.673L109.18 109.361L109.93 109.691L109.84 108.881H110.17L110.08 109.691L110.83 109.367L110.926 109.679L110.128 109.841L110.134 109.835Z" fill="#B2B2B2"/>
<path d="M112.162 109.835L112.708 110.434L112.444 110.632L112.036 109.919L111.634 110.632L111.37 110.434L111.91 109.835L111.112 109.673L111.208 109.361L111.958 109.691L111.868 108.881H112.198L112.108 109.691L112.858 109.367L112.954 109.679L112.156 109.841L112.162 109.835Z" fill="#B2B2B2"/>
<path d="M114.183 109.835L114.729 110.434L114.465 110.632L114.057 109.919L113.656 110.632L113.392 110.434L113.932 109.835L113.134 109.673L113.23 109.361L113.98 109.691L113.89 108.881H114.219L114.129 109.691L114.879 109.367L114.975 109.679L114.177 109.841L114.183 109.835Z" fill="#B2B2B2"/>
<path d="M116.21 109.835L116.756 110.434L116.492 110.632L116.084 109.919L115.682 110.632L115.419 110.434L115.958 109.835L115.161 109.673L115.257 109.361L116.006 109.691L115.916 108.881H116.246L116.156 109.691L116.906 109.367L117.002 109.679L116.204 109.841L116.21 109.835Z" fill="#B2B2B2"/>
<path d="M118.238 109.835L118.783 110.434L118.52 110.632L118.112 109.919L117.71 110.632L117.446 110.434L117.986 109.835L117.188 109.673L117.284 109.361L118.034 109.691L117.944 108.881H118.274L118.184 109.691L118.933 109.367L119.029 109.679L118.232 109.841L118.238 109.835Z" fill="#B2B2B2"/>
<path d="M120.265 109.835L120.811 110.434L120.547 110.632L120.139 109.919L119.737 110.632L119.473 110.434L120.013 109.835L119.215 109.673L119.311 109.361L120.061 109.691L119.971 108.881H120.301L120.211 109.691L120.961 109.367L121.057 109.679L120.259 109.841L120.265 109.835Z" fill="#B2B2B2"/>
<path d="M122.286 109.835L122.832 110.434L122.568 110.632L122.16 109.919L121.759 110.632L121.495 110.434L122.035 109.835L121.237 109.673L121.333 109.361L122.083 109.691L121.993 108.881H122.322L122.232 109.691L122.982 109.367L123.078 109.679L122.28 109.841L122.286 109.835Z" fill="#B2B2B2"/>
<path d="M124.314 109.835L124.86 110.434L124.596 110.632L124.188 109.919L123.786 110.632L123.522 110.434L124.062 109.835L123.264 109.673L123.36 109.361L124.11 109.691L124.02 108.881H124.35L124.26 109.691L125.01 109.367L125.106 109.679L124.308 109.841L124.314 109.835Z" fill="#B2B2B2"/>
<path d="M125.033 273.333C146.224 273.333 163.402 257.191 163.402 237.279C163.402 217.367 146.224 201.225 125.033 201.225C103.843 201.225 86.6646 217.367 86.6646 237.279C86.6646 257.191 103.843 273.333 125.033 273.333Z" fill="#263238"/>
<path d="M124.23 271.456C145.42 271.456 162.599 255.314 162.599 235.402C162.599 215.49 145.42 199.348 124.23 199.348C103.039 199.348 85.8608 215.49 85.8608 235.402C85.8608 255.314 103.039 271.456 124.23 271.456Z" fill="white" stroke="#263238" stroke-width="0.599796" stroke-miterlimit="10"/>
<path d="M124.23 266.525C142.519 266.525 157.345 252.591 157.345 235.402C157.345 218.213 142.519 204.278 124.23 204.278C105.941 204.278 91.1152 218.213 91.1152 235.402C91.1152 252.591 105.941 266.525 124.23 266.525Z" fill="white" stroke="#263238" stroke-width="0.599796" stroke-miterlimit="10"/>
<path d="M133.4 214.451C120.109 214.451 109.331 227.989 109.331 244.693C109.331 255.465 113.817 264.918 120.571 270.28C121.686 270.376 122.814 270.43 123.954 270.43C137.923 270.43 150.111 263.275 156.612 252.664C157.164 250.127 157.464 247.458 157.464 244.699C157.464 227.995 146.692 214.457 133.394 214.457L133.4 214.451Z" fill="#263238"/>
<path d="M109.618 231.053H93.9458V234.801H109.618V231.053Z" fill="white" stroke="#263238" stroke-width="0.599796" stroke-miterlimit="10"/>
<path d="M129.754 255.189C142.957 255.189 153.661 245.132 153.661 232.727C153.661 220.321 142.957 210.264 129.754 210.264C116.55 210.264 105.846 220.321 105.846 232.727C105.846 245.132 116.55 255.189 129.754 255.189Z" fill="white" stroke="#263238" stroke-width="0.599796" stroke-miterlimit="10"/>
<path d="M129.754 251.482C140.775 251.482 149.709 243.085 149.709 232.726C149.709 222.368 140.775 213.971 129.754 213.971C118.733 213.971 109.799 222.368 109.799 232.726C109.799 243.085 118.733 251.482 129.754 251.482Z" fill="#263238" stroke="#263238" stroke-width="0.599796" stroke-miterlimit="10"/>
<path d="M121.393 215.525C121.267 215.213 121.117 214.907 120.949 214.607C118.916 211.068 119.167 206.558 120.697 202.371" stroke="#263238" stroke-width="0.599796" stroke-miterlimit="10"/>
<path d="M121.711 222.98C121.711 222.98 122.779 218.925 121.393 215.524" stroke="white" stroke-width="0.599796" stroke-miterlimit="10"/>
<path d="M128.836 214.613C126.803 211.074 127.055 206.564 128.584 202.377" stroke="#263238" stroke-width="0.599796" stroke-miterlimit="10"/>
<path d="M129.598 222.98C129.598 222.98 130.869 218.152 128.836 214.607" stroke="white" stroke-width="0.599796" stroke-miterlimit="10"/>
<path d="M136.969 215.087C136.891 214.925 136.807 214.769 136.717 214.613C134.684 211.074 134.936 206.564 136.465 202.377" stroke="#263238" stroke-width="0.599796" stroke-miterlimit="10"/>
<path d="M137.485 222.98C137.485 222.98 138.649 218.571 136.975 215.086" stroke="white" stroke-width="0.599796" stroke-miterlimit="10"/>
<path d="M213.311 199.276C213.311 199.276 212.688 199.312 211.572 199.432C210.51 195.833 207.337 185.193 205.25 179.693C202.713 173.011 199.258 163.564 196.955 159.648C194.652 155.731 194.88 153.428 190.507 149.739C186.129 146.05 182.212 147.664 182.212 147.664C182.212 147.664 181.522 144.899 177.144 143.519C172.765 142.14 166.779 144.899 166.779 144.899C166.779 144.899 165.856 143.285 161.483 143.747C157.111 144.209 155.491 148.126 155.491 148.126C155.491 148.126 146.506 130.156 143.051 128.776C139.596 127.397 136.142 130.852 137.521 134.072C138.901 137.299 149.271 155.269 150.651 159.414C152.03 163.558 155.029 170.474 155.029 170.474C155.029 170.474 145.121 163.331 142.128 162.641C139.135 161.951 134.756 161.489 132.219 164.254C129.682 167.019 135.674 167.709 140.514 172.088C145.355 176.466 153.188 186.603 156.871 193.05C160.559 199.504 168.393 200.656 171.847 204.339C174.283 206.936 177.737 210.552 179.573 212.472C178.415 213.677 177.839 214.475 177.839 214.475L185.445 233.135C185.445 233.135 187.058 230.598 193.506 225.529C199.954 220.461 219.999 214.241 219.999 214.241L213.317 199.264L213.311 199.276Z" fill="#263238" stroke="#263238" stroke-width="0.599796" stroke-miterlimit="10"/>
<path d="M180.544 208.969C180.544 208.969 175.014 203.211 171.559 199.522C168.104 195.833 160.271 194.682 156.582 188.234C152.894 181.786 145.06 171.644 140.226 167.271C135.386 162.893 129.4 162.203 131.931 159.438C134.468 156.673 138.84 157.134 141.839 157.824C144.832 158.514 154.741 165.658 154.741 165.658C154.741 165.658 151.748 158.748 150.363 154.597C148.983 150.453 138.613 132.483 137.233 129.256C135.853 126.029 139.308 122.574 142.763 123.96C146.218 125.339 155.203 143.309 155.203 143.309C155.203 143.309 156.816 139.393 161.195 138.931C165.573 138.469 166.491 140.082 166.491 140.082C166.491 140.082 172.483 137.317 176.855 138.703C181.228 140.088 181.924 142.847 181.924 142.847C181.924 142.847 185.84 141.234 190.219 144.923C194.597 148.611 194.364 150.915 196.667 154.831C198.97 158.748 202.425 168.195 204.962 174.876C207.499 181.558 211.644 195.839 211.644 195.839L181.924 211.968L180.544 208.975V208.969Z" fill="white" stroke="#263238" stroke-width="0.599796" stroke-miterlimit="10"/>
<path d="M155.203 143.309L163.264 155.293" stroke="#263238" stroke-width="0.599796" stroke-miterlimit="10"/>
<path d="M166.491 140.088L173.863 151.604" stroke="#263238" stroke-width="0.599796" stroke-miterlimit="10"/>
<path d="M181.93 142.854L186.998 151.838" stroke="#263238" stroke-width="0.599796" stroke-miterlimit="10"/>
<path d="M158.298 175.962L159.347 179.021" stroke="#263238" stroke-width="0.599796" stroke-miterlimit="10"/>
<path d="M154.742 165.658L157.567 173.839" stroke="#263238" stroke-width="0.599796" stroke-miterlimit="10"/>
<path d="M167.643 158.058L169.484 160.589" stroke="#263238" stroke-width="0.599796" stroke-miterlimit="10"/>
<path d="M176.166 155.521L178.241 158.286" stroke="#263238" stroke-width="0.599796" stroke-miterlimit="10"/>
<path d="M187.454 154.142L188.84 158.52" stroke="#263238" stroke-width="0.599796" stroke-miterlimit="10"/>
<path d="M177.552 209.665C177.552 209.665 182.848 202.293 193.68 198.605C204.507 194.916 213.03 194.46 213.03 194.46L219.711 209.437C219.711 209.437 199.666 215.657 193.218 220.725C186.771 225.793 185.157 228.33 185.157 228.33L177.552 209.671V209.665Z" fill="white" stroke="#263238" stroke-width="0.599796" stroke-miterlimit="10"/>
<path d="M195.749 259.424C195.749 259.424 186.992 237.537 184.689 232.931C182.386 228.324 186.068 226.021 186.068 226.021C186.068 226.021 191.365 218.877 205.19 213.347C219.015 207.817 220.167 207.589 223.622 211.506C227.076 215.423 249.743 259.465 249.743 259.465" fill="white"/>
<path d="M195.749 259.424C195.749 259.424 186.992 237.537 184.689 232.931C182.386 228.324 186.068 226.021 186.068 226.021C186.068 226.021 191.365 218.877 205.19 213.347C219.015 207.817 220.167 207.589 223.622 211.506C227.076 215.423 249.743 259.465 249.743 259.465" stroke="#263238" stroke-width="0.599796" stroke-miterlimit="10"/>
<path d="M51.9364 236.397C51.9364 236.397 55.0673 229.68 62.5288 225.877C69.9842 222.074 74.8306 220.437 81.9681 213.395C89.1057 206.354 100.868 200.068 105.714 199.204C110.566 198.334 112.174 196.253 110.087 193.872C107.999 191.491 102.295 191.359 97.215 193.074C92.1347 194.79 87.4443 196.889 87.4443 196.889C90.0174 191.827 91.7268 185.727 94.2579 180.646C96.0573 177.042 99.0023 171.092 100.754 167.457C101.893 165.088 105.288 161.141 103.777 158.55C102.259 155.947 98.6245 157.68 96.7831 160.151C93.8561 164.086 79.539 185.667 79.539 185.667C82.256 179.909 84.9791 174.151 87.6962 168.393C91.8288 159.642 93.8021 155.467 93.2143 156.709C94.4199 154.154 96.7651 150.741 95.3376 147.796C93.8861 144.809 89.6815 144.503 87.9361 147.346C85.9448 150.591 70.728 179.387 70.728 179.387C70.728 179.387 80.2527 154.669 81.4703 151.832C82.9578 148.366 82.0761 145.343 79.8869 145.355C76.7019 145.379 75.1905 148.911 73.9429 151.311C74.1768 150.975 74.4047 150.633 74.6386 150.297C71.6577 154.267 69.6543 159.492 67.1592 163.804C64.2442 168.843 61.2272 173.827 58.1143 178.745C58.7261 173.653 60.7714 168.879 63.3025 164.464C64.832 161.801 71.1898 155.257 70.1042 152.036C69.1685 149.265 62.1929 154.471 58.1323 160.151C55.919 163.246 50.125 171.692 48.5295 177.63C46.9341 183.568 35.7659 203.799 32.7849 209.431C29.8039 215.069 26.2231 225.019 26.2231 225.019L51.9244 236.397H51.9364Z" fill="#263238" stroke="#263238" stroke-width="0.599796" stroke-miterlimit="10"/>
<path d="M60.4413 230.963C60.4413 230.963 54.6953 223.934 43.665 220.923C32.6288 217.912 24.0937 217.978 24.0937 217.978L18.3477 233.338C18.3477 233.338 38.7347 238.311 45.4884 242.971C52.2421 247.632 54.0055 250.061 54.0055 250.061L60.4413 230.969V230.963Z" fill="#263238" stroke="#263238" stroke-width="0.599796" stroke-miterlimit="10"/>
<path d="M51.1747 233.734C51.1747 233.734 54.3056 227.017 61.7671 223.214C69.2225 219.411 74.0689 217.774 81.2064 210.732C88.344 203.691 100.106 197.405 104.952 196.541C109.805 195.671 111.412 193.59 109.325 191.209C107.238 188.828 101.534 188.696 96.4532 190.411C91.373 192.127 86.6826 194.226 86.6826 194.226C89.2557 189.164 90.9651 183.064 93.4962 177.983C95.2956 174.379 98.2406 168.429 99.992 164.794C101.132 162.425 104.526 158.478 103.015 155.887C101.498 153.284 97.8627 155.017 96.0214 157.488C93.0944 161.423 78.7773 183.004 78.7773 183.004C81.4943 177.246 84.2174 171.488 86.9345 165.73C91.0671 156.979 93.0404 152.804 92.4526 154.046C93.6582 151.49 96.0034 148.078 94.5759 145.133C93.1244 142.146 88.9198 141.84 87.1744 144.683C85.1831 147.928 69.9663 176.724 69.9663 176.724C69.9663 176.724 79.491 152.006 80.7086 149.169C82.1961 145.702 81.3144 142.679 79.1251 142.691C75.9402 142.715 74.4287 146.248 73.1812 148.647C73.4151 148.312 73.643 147.97 73.8769 147.634C70.8959 151.604 68.8926 156.829 66.3975 161.141C63.4825 166.179 60.4655 171.164 57.3526 176.082C57.9643 170.99 60.0096 166.215 62.5408 161.801C64.0703 159.138 70.4281 152.594 69.3425 149.373C68.4068 146.602 61.4312 151.808 57.3706 157.488C55.1573 160.583 49.3633 169.028 47.7678 174.966C46.1724 180.904 35.0042 201.136 32.0232 206.768C29.0422 212.406 25.4614 222.356 25.4614 222.356L51.1627 233.734H51.1747Z" fill="white" stroke="#263238" stroke-width="0.599796" stroke-miterlimit="10"/>
<path d="M69.9782 176.73L67.2251 182.29" stroke="#263238" stroke-width="0.599796" stroke-miterlimit="10"/>
<path d="M78.7835 183.01L76.6362 185.793" stroke="#263238" stroke-width="0.599796" stroke-miterlimit="10"/>
<path d="M86.6888 194.226L83.9297 198.245" stroke="#263238" stroke-width="0.599796" stroke-miterlimit="10"/>
<path d="M72.4255 191.587L72.2036 193.98" stroke="#263238" stroke-width="0.599796" stroke-miterlimit="10"/>
<path d="M65.5518 187.226L65.5578 189.535" stroke="#263238" stroke-width="0.599796" stroke-miterlimit="10"/>
<path d="M55.4395 182.41L55.9913 186.338" stroke="#263238" stroke-width="0.599796" stroke-miterlimit="10"/>
<path d="M59.6796 228.307C59.6796 228.307 53.9335 221.277 42.9033 218.266C31.8671 215.255 23.332 215.321 23.332 215.321L17.5859 230.682C17.5859 230.682 37.973 235.654 44.7267 240.314C51.4804 244.975 53.2438 247.404 53.2438 247.404L59.6796 228.312V228.307Z" fill="white" stroke="#263238" stroke-width="0.599796" stroke-miterlimit="10"/>
<path d="M50.5447 261.517C50.5447 261.517 51.9723 256.713 53.9876 251.974C56.0029 247.236 52.1822 245.161 52.1822 245.161C52.1822 245.161 46.4541 238.359 32.317 233.692C18.1798 229.026 17.0162 228.87 13.8073 232.991C10.5984 237.111 0.275879 261.883 0.275879 261.883" fill="white"/>
<path d="M50.5447 261.517C50.5447 261.517 51.9723 256.713 53.9876 251.974C56.0029 247.236 52.1822 245.161 52.1822 245.161C52.1822 245.161 46.4541 238.359 32.317 233.692C18.1798 229.026 17.0162 228.87 13.8073 232.991C10.5984 237.111 0.275879 261.883 0.275879 261.883" stroke="#263238" stroke-width="0.599796" stroke-miterlimit="10"/>
</g>
<defs>
<clipPath id="clip0_684_12118">
<rect width="269.77" height="273.333" fill="white"/>
</clipPath>
</defs>
</svg>
