<svg width="302" height="284" viewBox="0 0 302 284" fill="none" xmlns="http://www.w3.org/2000/svg">
<g clip-path="url(#clip0_684_13824)">
<path d="M140.726 0.786451C224.846 -6.7073 224.982 40.7508 262.885 84.9673C300.787 129.184 308.898 149.224 294.609 200.195C280.32 251.159 232.177 291.117 172.614 268.479C113.05 245.842 78.9317 267.584 41.3613 247.477C3.7976 227.369 -10.1523 188.53 17.3474 142.761C44.847 96.9844 37.0074 10.0231 140.726 0.786451Z" fill="#75A9C8"/>
<path opacity="0.7" d="M140.726 0.786451C224.846 -6.7073 224.982 40.7508 262.885 84.9673C300.787 129.184 308.898 149.224 294.609 200.195C280.32 251.159 232.177 291.117 172.614 268.479C113.05 245.842 78.9317 267.584 41.3613 247.477C3.7976 227.369 -10.1523 188.53 17.3474 142.761C44.847 96.9844 37.0074 10.0231 140.726 0.786451Z" fill="white"/>
<path opacity="0.2" d="M176.289 239.996L175.048 239.854C173.787 239.712 172.885 238.857 172.776 237.657C172.105 230.489 165.913 225.436 157.863 224.534C150.607 223.72 142.259 226.921 136.786 232.401C135.307 233.886 133.286 234.727 131.435 234.517L125.264 233.825C123.406 233.615 122.097 232.401 121.703 230.712C120.252 224.453 114.637 219.685 107.381 218.872C99.3307 217.97 90.2704 221.299 84.9128 227.796C84.0177 228.881 82.6139 229.478 81.3592 229.336L80.1182 229.193C79.5553 229.132 78.9382 229.532 78.7483 230.095L77.7243 233.086C77.5683 233.547 77.7446 233.988 78.1515 234.151L79.5621 234.856C80.6675 235.412 81.2168 236.599 80.9184 237.908C78.6737 247.606 84.3228 256.015 94.2715 257.134C103.868 258.212 114.237 252.142 118.842 243.211C119.588 241.767 121.161 240.729 122.741 240.62C124.606 240.485 126.952 240.559 129.265 241.299C130.669 241.746 131.476 243.048 131.211 244.561C129.557 253.838 135.151 261.725 144.761 262.803C154.71 263.922 165.486 257.358 169.813 247.89C170.396 246.609 171.691 245.632 173.081 245.354L174.851 245.001C175.34 244.934 175.794 244.567 175.95 244.106L176.974 241.115C177.164 240.553 176.866 240.051 176.296 239.99L176.289 239.996ZM95.126 254.611C85.8826 253.573 80.9117 245.279 84.0516 236.117C87.1915 226.962 97.2623 220.35 106.512 221.394C115.756 222.432 120.727 230.726 117.587 239.888C114.447 249.05 104.376 255.655 95.126 254.611ZM120.659 238.382C120.788 237.853 120.896 237.325 120.978 236.809C121.046 236.382 121.514 236.036 121.948 236.083L133.015 237.325C133.449 237.372 133.653 237.792 133.436 238.206C133.171 238.701 132.927 239.203 132.703 239.718C128.234 237.508 123.317 237.908 120.666 238.389L120.659 238.382ZM145.616 260.28C136.372 259.243 131.401 250.949 134.541 241.787C137.681 232.632 147.752 226.019 157.002 227.064C166.245 228.101 171.216 236.395 168.076 245.557C164.937 254.713 154.866 261.325 145.616 260.287V260.28Z" fill="black"/>
<path d="M168.097 240.539L96.3197 237.521C92.895 237.379 89.5652 238.694 87.1577 241.143L74.2658 254.272C73.7571 254.794 73.8656 255.655 74.4895 256.028C75.812 256.822 77.5006 256.605 78.5789 255.506L90.4943 243.381C91.932 241.923 93.9123 241.129 95.9603 241.197L167.826 243.57L168.09 240.546L168.097 240.539Z" fill="#263238"/>
<path d="M72.4347 229.817L143.385 241.061C146.775 241.597 149.773 243.543 151.645 246.419L161.682 261.84C162.082 262.451 161.804 263.271 161.112 263.515C159.661 264.031 158.047 263.482 157.206 262.193L147.928 247.952C146.809 246.236 145.026 245.063 143.005 244.723L72.0889 232.828L72.428 229.811L72.4347 229.817Z" fill="#263238"/>
<path d="M114.529 241.841C115.37 242.16 114.291 248.08 111.965 249.769C109.639 251.458 108.473 246.181 109.3 244.52C110.128 242.858 111.891 240.844 114.529 241.841Z" fill="#757575" stroke="#263238" stroke-width="0.678167" stroke-linecap="round" stroke-linejoin="round"/>
<path d="M126.953 243.238C126.064 243.36 125.8 249.376 127.692 251.539C129.584 253.703 131.89 248.82 131.456 247.009C131.022 245.205 129.747 242.852 126.953 243.238Z" fill="#757575" stroke="#263238" stroke-width="0.678167" stroke-linecap="round" stroke-linejoin="round"/>
<path opacity="0.4" d="M85.4355 222.378C89.6944 219.862 98.4699 215.847 106.147 222.48C113.824 229.112 115.811 235.195 112.725 242.445C109.632 249.694 102.471 258.823 90.0606 254.835C77.6501 250.841 72.2248 230.197 85.4423 222.385L85.4355 222.378Z" fill="white"/>
<path opacity="0.4" d="M135.884 228.705C140.143 226.189 148.919 222.174 156.595 228.807C164.272 235.439 166.259 241.522 163.174 248.772C160.081 256.022 152.92 265.15 140.509 261.162C128.099 257.168 122.674 236.524 135.891 228.712L135.884 228.705Z" fill="white"/>
<path d="M169.752 239.705L168.511 239.563C167.249 239.42 166.185 238.559 165.805 237.352C163.567 230.116 156.412 225.03 148.362 224.128C141.106 223.314 133.673 226.549 129.543 232.089C128.424 233.588 126.648 234.436 124.789 234.225L118.618 233.534C116.76 233.323 115.214 232.103 114.461 230.394C111.667 224.073 105.129 219.272 97.8797 218.458C89.8298 217.556 81.7325 220.927 77.9415 227.484C77.3109 228.583 76.0766 229.187 74.8152 229.044L73.5742 228.902C73.0113 228.841 72.5026 229.248 72.4348 229.811L72.0957 232.828C72.0415 233.296 72.3128 233.737 72.7468 233.907L74.2794 234.619C75.4798 235.175 76.28 236.375 76.2733 237.698C76.2326 247.49 83.5975 255.967 93.5394 257.086C103.135 258.165 111.904 252.027 114.42 243.015C114.827 241.556 116.136 240.512 117.648 240.397C119.432 240.261 121.738 240.336 124.159 241.075C125.623 241.523 126.702 242.838 126.776 244.364C127.217 253.73 134.413 261.678 144.022 262.756C153.971 263.875 163.031 257.236 165.161 247.68C165.445 246.385 166.497 245.395 167.792 245.117L169.44 244.764C169.901 244.696 170.26 244.323 170.315 243.862L170.654 240.844C170.715 240.282 170.308 239.773 169.745 239.705H169.752ZM93.831 254.537C84.5876 253.499 77.9076 245.13 78.9452 235.887C79.9828 226.644 88.3514 219.964 97.5948 221.001C106.838 222.039 113.518 230.407 112.481 239.651C111.443 248.894 103.074 255.574 93.831 254.537ZM115.146 238.132C115.159 237.596 115.146 237.067 115.112 236.538C115.085 236.104 115.465 235.758 115.899 235.806L126.966 237.047C127.4 237.094 127.692 237.521 127.57 237.935C127.421 238.437 127.292 238.939 127.183 239.461C122.341 237.23 117.635 237.643 115.153 238.132H115.146ZM144.321 260.206C135.077 259.168 128.397 250.8 129.435 241.556C130.472 232.313 138.841 225.633 148.084 226.671C157.328 227.708 164.008 236.077 162.97 245.32C161.933 254.564 153.564 261.244 144.321 260.206Z" fill="#75A9C8" stroke="#263238" stroke-width="0.678167" stroke-linecap="round" stroke-linejoin="round"/>
<path opacity="0.5" d="M82.6074 246.507C82.6074 246.507 77.9009 237.345 83.8756 228.698C89.2466 220.92 98.5375 221.557 102.518 224.127L90.2096 238.884C92.5358 232.977 96.1572 227.912 96.1572 227.912C96.1572 227.912 86.378 234.856 82.6074 246.507Z" fill="white"/>
<path opacity="0.5" d="M133.056 251.681C133.056 251.681 128.35 242.519 134.324 233.873C139.695 226.094 148.986 226.731 152.967 229.302L140.658 244.059C142.401 238.287 146.606 233.086 146.606 233.086C146.606 233.086 136.827 240.03 133.056 251.681Z" fill="white"/>
<path opacity="0.2" d="M87.4835 179.795C87.4835 179.795 73.7641 196.817 72.8079 197.889C71.8585 198.96 72.1162 216.213 69.7765 223.964C67.4436 231.723 59.3328 239.705 41.2393 279.011L38.7979 202.433L52.1306 149.095L87.4767 179.789L87.4835 179.795Z" fill="black"/>
<path d="M97.5541 179.084C97.5541 179.084 88.4938 137.471 81.3324 132.31C77.182 129.313 70.9225 128.241 65.4633 128.764C61.5028 129.137 57.9559 130.351 55.9418 132.283C51.1336 136.888 44.1824 139.58 40.8119 142.571C37.4346 145.562 38.0178 155.429 36.2343 163.92C34.4507 172.404 31.1683 172.851 30.9106 181.24C30.6462 189.636 29.1135 215.372 24.034 222.785C18.9546 230.197 19.1512 235.772 17.2998 243.116C15.4484 250.467 0.338867 277.54 0.338867 277.54L41.4358 283.454C41.4358 283.454 44.4536 266.696 47.9259 252.97C49.5738 246.453 51.3302 240.614 52.9104 237.582C57.8203 228.149 60.5805 219.353 60.5805 219.353C64.8868 214.274 66.7721 203.471 66.9823 194.091L77.4872 187.378C85.6998 184.611 97.5609 179.077 97.5609 179.077L97.5541 179.084Z" fill="white"/>
<path opacity="0.4" d="M97.5541 179.084C97.5541 179.084 88.4937 137.471 81.3323 132.31C77.1819 129.313 70.9224 128.241 65.4632 128.764C52.6662 132.744 49.6009 140.177 47.9461 142.035C45.7421 144.511 43.5041 158.915 45.6878 167.094C47.858 175.272 46.8272 178.405 45.6743 182.529C43.1176 191.664 52.8222 195.929 53.9954 199.266C55.1686 202.589 55.9417 221.578 52.0762 227.993C50.0213 231.404 45.2131 248.664 47.9258 252.983C49.5737 246.466 51.3302 240.627 52.9103 237.596C57.8202 228.163 60.5804 219.367 60.5804 219.367C64.8867 214.287 66.772 203.484 66.9823 194.105L77.4871 187.391C85.6997 184.624 97.5608 179.09 97.5608 179.09L97.5541 179.084Z" fill="#75A9C8"/>
<path d="M48.1498 184.956C48.1498 184.956 45.7016 182.4 43.6807 182.515" stroke="#263238" stroke-width="0.678167" stroke-linecap="round" stroke-linejoin="round"/>
<path d="M52.5987 175.564C52.5987 175.564 49.825 170.478 45.8374 169.569" stroke="#263238" stroke-width="0.678167" stroke-linecap="round" stroke-linejoin="round"/>
<path d="M46.4204 145.162C46.4204 145.162 52.1306 147.237 53.2563 151.232" stroke="#263238" stroke-width="0.678167" stroke-linecap="round" stroke-linejoin="round"/>
<path d="M77.4805 187.378C77.4805 187.378 75.9818 185.689 75.9004 184.299" stroke="#263238" stroke-width="0.678167" stroke-linecap="round" stroke-linejoin="round"/>
<path d="M41.4358 283.46C41.4358 283.46 48.0005 247.022 52.9104 237.582C57.8204 228.149 60.5805 219.353 60.5805 219.353C64.8869 214.274 66.7722 203.464 66.9824 194.085L77.4872 187.378C85.6998 184.611 97.561 179.077 97.561 179.077C97.561 179.077 88.5006 137.465 81.3392 132.304C74.1778 127.136 60.7568 127.679 55.9486 132.277C51.1404 136.881 44.1892 139.574 40.8187 142.564C37.4414 145.555 38.0247 155.422 36.2411 163.913C34.4575 172.397 31.1752 172.845 30.9175 181.233C30.653 189.629 29.1203 215.366 24.0409 222.778C18.9614 230.19 19.1581 235.765 17.3067 243.109C15.4553 250.461 0.345703 277.533 0.345703 277.533" stroke="#263238" stroke-width="0.678167" stroke-linecap="round" stroke-linejoin="round"/>
<path d="M34.0448 51.5666L32.8278 40.6479C32.7864 40.2772 33.0499 39.9476 33.4206 39.9063L38.0375 39.3917L39.4033 51.6449L34.7864 52.1595C34.4157 52.2008 34.0861 51.9373 34.0448 51.5666Z" fill="#75A9C8" stroke="#263238" stroke-width="0.678167" stroke-linecap="round" stroke-linejoin="round"/>
<path d="M55.0169 22.5838L65.9356 21.3668C66.3063 21.3255 66.6359 21.589 66.6772 21.9597L67.1918 26.5766L54.9386 27.9423L54.424 23.3255C54.3827 22.9548 54.6462 22.6251 55.0169 22.5838Z" fill="#75A9C8" stroke="#263238" stroke-width="0.678167" stroke-linecap="round" stroke-linejoin="round"/>
<path d="M69.593 20.9662L80.5117 19.7491C80.8824 19.7078 81.212 19.9713 81.2534 20.342L81.768 24.9589L69.5148 26.3246L69.0002 21.7078C68.9588 21.3371 69.2223 21.0075 69.593 20.9662Z" fill="#75A9C8" stroke="#263238" stroke-width="0.678167" stroke-linecap="round" stroke-linejoin="round"/>
<path d="M50.2453 185.784L34.0439 40.3241C33.1826 32.593 38.7504 25.6214 46.4883 24.7602L258.083 1.20065C265.814 0.339381 272.786 5.90713 273.647 13.645L289.849 159.105C290.71 166.836 285.142 173.808 277.404 174.669L65.8093 198.235C58.0782 199.097 51.1066 193.529 50.2453 185.791V185.784Z" fill="#75A9C8" stroke="#263238" stroke-width="0.678167" stroke-linecap="round" stroke-linejoin="round"/>
<path d="M277.398 172.817L65.4025 196.431C58.7836 197.17 52.8225 192.403 52.0901 185.784L35.848 39.9236C35.1088 33.3047 39.8763 27.3436 46.4952 26.6112L258.484 2.99744C265.102 2.25824 271.064 7.02575 271.796 13.6447L288.045 159.505C288.784 166.124 284.017 172.085 277.398 172.817Z" fill="#757575" stroke="#263238" stroke-width="0.678167" stroke-linecap="round" stroke-linejoin="round"/>
<path d="M47.465 112.467C47.5125 112.908 47.1938 113.308 46.7529 113.356C46.3121 113.403 45.912 113.084 45.8645 112.644C45.8171 112.203 46.1358 111.803 46.5766 111.755C47.0174 111.708 47.4176 112.026 47.465 112.467Z" fill="#999999" stroke="#263238" stroke-width="0.678167" stroke-linecap="round" stroke-linejoin="round"/>
<path d="M49.0043 119.669C49.0992 120.517 48.4888 121.276 47.6411 121.371C46.7934 121.466 46.0339 120.856 45.9389 120.008C45.844 119.161 46.4543 118.401 47.302 118.306C48.1498 118.211 48.9093 118.822 49.0043 119.669Z" fill="#263238"/>
<path d="M47.0169 101.854C47.1119 102.702 46.5015 103.462 45.6538 103.556C44.8061 103.651 44.0466 103.041 43.9516 102.193C43.8567 101.346 44.467 100.586 45.3147 100.491C46.1625 100.396 46.922 101.007 47.0169 101.854Z" fill="#263238"/>
<path d="M49.1536 124.783C49.2214 125.4 48.7806 125.956 48.1635 126.024C47.5463 126.092 46.9902 125.651 46.9224 125.034C46.8546 124.417 47.2954 123.861 47.9125 123.793C48.5297 123.725 49.0858 124.166 49.1536 124.783Z" fill="#263238"/>
<path d="M59.9836 186.53L43.6059 39.4692C43.2397 36.2005 45.5929 33.264 48.8617 32.8978L262.057 9.1484C265.326 8.78219 268.262 11.1354 268.629 14.4042L285.006 161.465C285.372 164.733 283.019 167.67 279.75 168.036L66.5551 191.786C63.2863 192.152 60.3499 189.799 59.9836 186.53Z" fill="white"/>
<path opacity="0.3" d="M262.41 9.10741L48.5025 32.9314C45.4304 33.2705 43.2196 36.0374 43.5654 39.1095L60.0245 186.882C60.3636 189.954 63.1305 192.165 66.2026 191.819L280.11 167.995C283.182 167.656 285.393 164.889 285.047 161.817L268.588 14.0445C268.249 10.9724 265.482 8.76155 262.41 9.10741Z" fill="#75A9C8"/>
<path d="M187.811 165.181L151.123 169.271C145.06 169.949 139.594 165.575 138.922 159.512C138.244 153.449 142.618 147.983 148.681 147.312L185.37 143.222C191.433 142.544 196.899 146.918 197.57 152.981C198.248 159.044 193.874 164.51 187.811 165.181Z" fill="#75A9C8" stroke="#263238" stroke-width="0.678167" stroke-linecap="round" stroke-linejoin="round"/>
<path d="M161.065 162.082L159.417 162.265L158.928 160.414L156.928 160.638L156.853 162.55L155.354 162.719L155.856 152.154L158.243 151.889L161.058 162.089L161.065 162.082ZM156.975 159.207L158.549 159.03L157.192 153.869H157.165L156.982 159.207H156.975Z" fill="#263238"/>
<path d="M165.791 153.646L165.941 154.995C166.124 156.657 165.425 157.647 163.798 157.83L163.025 157.918L163.459 161.818L161.824 162.001L160.665 151.618L163.065 151.353C164.7 151.17 165.595 151.984 165.785 153.646H165.791ZM162.468 152.92L162.862 156.433L163.635 156.345C164.157 156.284 164.408 156.019 164.327 155.273L164.157 153.713C164.076 152.974 163.764 152.764 163.248 152.825L162.475 152.913L162.468 152.92Z" fill="#263238"/>
<path d="M171.38 153.022L171.529 154.371C171.712 156.033 171.014 157.03 169.379 157.206L168.606 157.294L169.04 161.194L167.406 161.377L166.246 150.994L168.647 150.729C170.281 150.546 171.176 151.36 171.366 153.022H171.38ZM168.057 152.296L168.45 155.809L169.223 155.721C169.739 155.666 169.996 155.395 169.915 154.656L169.739 153.096C169.657 152.357 169.345 152.147 168.83 152.208L168.057 152.296Z" fill="#263238"/>
<path d="M171.854 150.37L173.489 150.187L174.479 159.085L177.165 158.786L177.327 160.271L173.014 160.753L171.854 150.37Z" fill="#263238"/>
<path d="M178.263 156.684L175.428 149.97L177.13 149.78L178.887 154.371H178.914L179.619 149.502L181.179 149.326L179.891 156.494L180.27 159.932L178.636 160.115L178.249 156.677L178.263 156.684Z" fill="#263238"/>
<path d="M192.656 174.844L148.55 179.76L148.702 181.122L192.808 176.206L192.656 174.844Z" fill="#999999" stroke="#263238" stroke-width="0.678167" stroke-linecap="round" stroke-linejoin="round"/>
<path d="M256.11 127.807L80.6475 147.352C80.6475 147.352 73.0249 130.968 77.6364 120.334C82.2479 109.7 96.2114 115.763 102.125 105.896C108.039 96.0217 101.196 89.4909 107.7 75.9954C114.203 62.4999 132.866 55.2706 146.796 61.1978C160.725 67.1318 165.439 76.0564 174.296 73.554C183.152 71.0516 188.171 59.5295 205.749 60.3501C223.32 61.1707 227.077 85.7678 226.06 97.9002C225.043 110.033 260.036 99.2226 256.116 127.807H256.11Z" fill="white"/>
<path d="M203.667 74.7207L203.504 73.2559L192.518 74.4833L192.85 77.4605L193.434 82.7366L204.427 81.5092L203.667 74.7207Z" fill="white"/>
<mask id="mask0_684_13824" style="mask-type:luminance" maskUnits="userSpaceOnUse" x="192" y="73" width="13" height="10">
<path d="M203.667 74.7207L203.504 73.2559L192.518 74.4833L192.85 77.4605L193.434 82.7366L204.427 81.5092L203.667 74.7207Z" fill="white"/>
</mask>
<g mask="url(#mask0_684_13824)">
<path opacity="0.2" d="M193.459 82.6299L200.381 81.8584L199.473 73.7166L192.551 74.4881L193.459 82.6299Z" fill="black"/>
</g>
<path d="M203.667 74.7207L203.504 73.2559L192.518 74.4833L192.85 77.4605L193.434 82.7366L204.427 81.5092L203.667 74.7207Z" stroke="#263238" stroke-width="0.678167" stroke-linecap="round" stroke-linejoin="round"/>
<path d="M199.476 73.7031L199.557 74.4288" stroke="#263238" stroke-width="0.678167" stroke-linecap="round" stroke-linejoin="round"/>
<path d="M194.071 91.6541L192.81 80.3762L198.689 75.9274L204.515 75.2764L206.176 90.1825L194.071 91.6541Z" fill="#263238"/>
<mask id="mask1_684_13824" style="mask-type:luminance" maskUnits="userSpaceOnUse" x="192" y="75" width="15" height="17">
<path d="M194.071 91.6541L192.81 80.3762L198.689 75.9274L204.515 75.2764L206.176 90.1825L194.071 91.6541Z" fill="white"/>
</mask>
<g mask="url(#mask1_684_13824)">
<path opacity="0.2" d="M194.071 91.6547L200.608 90.9223L198.933 75.9009L192.81 80.3768L194.071 91.6547Z" fill="black"/>
</g>
<path d="M194.071 91.6541L192.81 80.3762L198.689 75.9274L204.515 75.2764L206.176 90.1825L194.071 91.6541Z" stroke="#263238" stroke-width="0.678167" stroke-linecap="round" stroke-linejoin="round"/>
<path opacity="0.2" d="M199.211 78.3965L199.564 81.5364" stroke="white" stroke-width="0.678167" stroke-linecap="round" stroke-linejoin="round"/>
<path opacity="0.2" d="M199.774 83.4146L200.514 90.0402" stroke="white" stroke-width="0.678167" stroke-linecap="round" stroke-linejoin="round"/>
<path d="M149.047 125.283L146.904 125.522C146.23 125.597 145.616 125.113 145.54 124.432L145.023 119.788L149.613 119.276L150.13 123.92C150.205 124.594 149.721 125.208 149.04 125.284L149.047 125.283Z" fill="#999999" stroke="#263238" stroke-width="0.678167" stroke-linecap="round" stroke-linejoin="round"/>
<path d="M147.278 132.172L150.149 131.852L149.412 125.24L146.541 125.56L147.278 132.172Z" fill="#757575" stroke="#263238" stroke-width="0.678167" stroke-linecap="round" stroke-linejoin="round"/>
<path d="M144.449 119.846L150.356 119.188L151.984 116.476L142.272 117.554L144.449 119.846Z" fill="#757575" stroke="#263238" stroke-width="0.678167" stroke-linecap="round" stroke-linejoin="round"/>
<path d="M161.037 109.266L152.94 110.168L150.193 101.63L149.047 101.603L151.767 110.501C151.292 110.555 150.953 110.975 151.007 111.45L151.204 113.186C151.34 114.38 152.418 115.248 153.611 115.112L160.583 114.339C161.146 114.278 161.546 113.769 161.485 113.213L161.044 109.28L161.037 109.266Z" fill="#999999" stroke="#263238" stroke-width="0.678167" stroke-linecap="round" stroke-linejoin="round"/>
<path d="M161.749 113.532L161.329 113.58C160.746 113.648 160.203 113.268 160.061 112.698L157.68 103.333C157.443 102.431 156.636 101.793 155.707 101.773L149.041 101.604C148.525 101.59 148.105 101.203 148.05 100.695C147.989 100.132 148.396 99.6233 148.952 99.5622L149.78 99.4673L156.399 99.7453C158.02 99.8132 159.403 100.946 159.79 102.519L162.306 112.746C162.401 113.126 162.136 113.499 161.749 113.539" fill="#BFBFBF"/>
<path d="M161.749 113.532L161.329 113.58C160.746 113.648 160.203 113.268 160.061 112.698L157.68 103.333C157.443 102.431 156.636 101.793 155.707 101.773L149.041 101.604C148.525 101.59 148.105 101.203 148.05 100.695C147.989 100.132 148.396 99.6233 148.952 99.5622L149.78 99.4673L156.399 99.7453C158.02 99.8132 159.403 100.946 159.79 102.519L162.306 112.746C162.401 113.126 162.136 113.499 161.749 113.539" stroke="#263238" stroke-width="0.678167" stroke-linecap="round" stroke-linejoin="round"/>
<path d="M121.473 83.9367L130.764 114.291L151.631 111.965L152.086 108.656L146.986 91.8238L143.568 80.5188C143.12 79.0471 141.676 78.0841 140.164 78.2537L124.016 80.0508C122.972 80.1661 122.145 80.7765 121.704 81.6106C121.345 82.2888 121.243 83.1026 121.487 83.9232L121.473 83.9367Z" fill="#75A9C8"/>
<mask id="mask2_684_13824" style="mask-type:luminance" maskUnits="userSpaceOnUse" x="121" y="78" width="32" height="37">
<path d="M121.473 83.9367L130.764 114.291L151.631 111.965L152.086 108.656L146.986 91.8238L143.568 80.5188C143.12 79.0471 141.676 78.0841 140.164 78.2537L124.016 80.0508C122.972 80.1661 122.145 80.7765 121.704 81.6106C121.345 82.2888 121.243 83.1026 121.487 83.9232L121.473 83.9367Z" fill="white"/>
</mask>
<g mask="url(#mask2_684_13824)">
<path opacity="0.2" d="M121.473 83.9367L130.764 114.292L151.631 111.965L152.086 108.656L146.986 91.8238L129.564 93.7634L126.288 83.0619C125.956 81.9633 124.884 81.2648 123.745 81.3868L121.697 81.6174C121.338 82.2956 121.236 83.1094 121.48 83.93L121.473 83.9367Z" fill="black"/>
</g>
<path d="M121.473 83.9367L130.764 114.291L151.631 111.965L152.086 108.656L146.986 91.8238L143.568 80.5188C143.12 79.0471 141.676 78.0841 140.164 78.2537L124.016 80.0508C122.972 80.1661 122.145 80.7765 121.704 81.6106C121.345 82.2888 121.243 83.1026 121.487 83.9232L121.473 83.9367Z" stroke="#263238" stroke-width="0.678167" stroke-linecap="round" stroke-linejoin="round"/>
<path d="M137.939 137.912C142.218 135.064 155.49 133.585 160.292 135.423L162.326 134.602C157.186 131.951 150.153 131.835 150.153 131.835L147.04 132.181C147.04 132.181 140.197 133.836 135.769 137.559L137.932 137.912H137.939Z" fill="#999999" stroke="#263238" stroke-width="0.678167" stroke-linecap="round" stroke-linejoin="round"/>
<path d="M160.17 136.671C160.278 137.668 161.173 138.38 162.17 138.272C163.167 138.163 163.879 137.268 163.771 136.271C163.662 135.274 162.767 134.562 161.77 134.671C160.773 134.779 160.061 135.674 160.17 136.671Z" fill="#BFBFBF" stroke="#263238" stroke-width="0.678167" stroke-linecap="round" stroke-linejoin="round"/>
<path d="M134.738 139.499C134.847 140.496 135.742 141.208 136.739 141.1C137.736 140.991 138.448 140.096 138.34 139.099C138.231 138.102 137.336 137.39 136.339 137.499C135.342 137.607 134.63 138.502 134.738 139.499Z" fill="#BFBFBF" stroke="#263238" stroke-width="0.678167" stroke-linecap="round" stroke-linejoin="round"/>
<path d="M138.285 118.896L158.711 116.624C162.387 116.217 165.039 112.901 164.632 109.226V109.192C164.51 108.107 163.526 107.327 162.441 107.442L132.629 110.765C131.544 110.887 130.764 111.864 130.879 112.949V112.983C131.293 116.658 134.609 119.31 138.285 118.903V118.896Z" fill="#75A9C8"/>
<mask id="mask3_684_13824" style="mask-type:luminance" maskUnits="userSpaceOnUse" x="130" y="107" width="35" height="12">
<path d="M138.285 118.896L158.711 116.624C162.387 116.217 165.039 112.901 164.632 109.226V109.192C164.51 108.107 163.526 107.327 162.441 107.442L132.629 110.765C131.544 110.887 130.764 111.864 130.879 112.949V112.983C131.293 116.658 134.609 119.31 138.285 118.903V118.896Z" fill="white"/>
</mask>
<g mask="url(#mask3_684_13824)">
<path opacity="0.2" d="M130.866 112.827L130.927 113.376C131.314 116.835 134.434 119.324 137.885 118.937L159.112 116.571C162.571 116.184 165.06 113.071 164.673 109.613L164.612 109.063C164.531 108.317 164.022 107.727 163.351 107.503L163.466 108.527C163.602 109.762 162.713 110.874 161.479 111.01L142.646 113.105C141.412 113.241 140.3 112.352 140.164 111.118L140.028 109.918L132.514 110.752C131.497 110.867 130.758 111.789 130.873 112.807L130.866 112.827Z" fill="black"/>
</g>
<path d="M138.285 118.896L158.711 116.624C162.387 116.217 165.039 112.901 164.632 109.226V109.192C164.51 108.107 163.526 107.327 162.441 107.442L132.629 110.765C131.544 110.887 130.764 111.864 130.879 112.949V112.983C131.293 116.658 134.609 119.31 138.285 118.903V118.896Z" stroke="#263238" stroke-width="0.678167" stroke-linecap="round" stroke-linejoin="round"/>
<path d="M138.231 111.802L130.133 112.704L127.387 104.166L126.241 104.139L128.96 113.037C128.485 113.091 128.146 113.511 128.201 113.986L128.391 115.722C128.526 116.916 129.604 117.784 130.798 117.648L137.77 116.875C138.332 116.814 138.733 116.305 138.672 115.749L138.231 111.816V111.802Z" fill="#999999" stroke="#263238" stroke-width="0.678167" stroke-linecap="round" stroke-linejoin="round"/>
<path d="M138.943 116.069L138.522 116.116C137.939 116.184 137.397 115.804 137.254 115.234L134.874 105.869C134.636 104.967 133.829 104.33 132.9 104.309L126.234 104.14C125.719 104.126 125.298 103.74 125.244 103.231C125.183 102.668 125.59 102.159 126.146 102.098L126.973 102.003L133.592 102.281C135.213 102.349 136.596 103.482 136.983 105.055L139.499 115.282C139.594 115.662 139.329 116.035 138.943 116.075" fill="#BFBFBF"/>
<path d="M138.943 116.069L138.522 116.116C137.939 116.184 137.397 115.804 137.254 115.234L134.874 105.869C134.636 104.967 133.829 104.33 132.9 104.309L126.234 104.14C125.719 104.126 125.298 103.74 125.244 103.231C125.183 102.668 125.59 102.159 126.146 102.098L126.973 102.003L133.592 102.281C135.213 102.349 136.596 103.482 136.983 105.055L139.499 115.282C139.594 115.662 139.329 116.035 138.943 116.075" stroke="#263238" stroke-width="0.678167" stroke-linecap="round" stroke-linejoin="round"/>
<path d="M153.442 94.8213L145.894 95.6623L145.942 96.0692C145.989 96.4761 146.355 96.7745 146.762 96.727L146.959 96.7066L171.61 93.9601C171.881 93.9329 172.071 93.6888 172.044 93.4175L171.97 92.7529L153.449 94.8146L153.442 94.8213Z" fill="#999999" stroke="#263238" stroke-width="0.678167" stroke-linecap="round" stroke-linejoin="round"/>
<path d="M176.371 79.5422L175.143 91.7628C175.089 92.285 174.675 92.7054 174.153 92.7597L155.13 94.8755C154.649 94.9298 154.242 94.5229 154.289 94.0414L155.639 81.8073C155.693 81.2851 156.107 80.8782 156.629 80.8171L175.53 78.7148C176.011 78.6606 176.418 79.0675 176.371 79.5422Z" fill="#BFBFBF" stroke="#263238" stroke-width="0.678167" stroke-linecap="round" stroke-linejoin="round"/>
<path d="M165.907 85.3541L167.378 85.1846L167.941 86.4595L167.033 87.8972L165.561 88.06L164.998 86.785L165.907 85.3541Z" fill="white" stroke="#263238" stroke-width="0.678167" stroke-linecap="round" stroke-linejoin="round"/>
<path d="M195.176 75.8735L195.014 74.4087L184.027 75.6362L184.36 78.6065L184.95 83.8827L195.936 82.662L195.176 75.8735Z" fill="white"/>
<mask id="mask4_684_13824" style="mask-type:luminance" maskUnits="userSpaceOnUse" x="184" y="74" width="12" height="10">
<path d="M195.176 75.8735L195.014 74.4087L184.027 75.6362L184.36 78.6065L184.95 83.8827L195.936 82.662L195.176 75.8735Z" fill="white"/>
</mask>
<g mask="url(#mask4_684_13824)">
<path opacity="0.2" d="M184.89 83.3959L191.845 82.6206L190.982 74.8764L184.026 75.6517L184.89 83.3959Z" fill="black"/>
</g>
<path d="M195.176 75.8735L195.014 74.4087L184.027 75.6362L184.36 78.6065L184.95 83.8827L195.936 82.662L195.176 75.8735Z" stroke="#263238" stroke-width="0.678167" stroke-linecap="round" stroke-linejoin="round"/>
<path d="M190.985 74.8564L191.067 75.5821" stroke="#263238" stroke-width="0.678167" stroke-linecap="round" stroke-linejoin="round"/>
<path d="M185.58 92.8006L184.326 81.5295L190.199 77.0807L196.024 76.4297L197.686 91.3358L185.58 92.8006Z" fill="#75A9C8"/>
<mask id="mask5_684_13824" style="mask-type:luminance" maskUnits="userSpaceOnUse" x="184" y="76" width="14" height="17">
<path d="M185.58 92.8006L184.326 81.5295L190.199 77.0807L196.024 76.4297L197.686 91.3358L185.58 92.8006Z" fill="white"/>
</mask>
<g mask="url(#mask5_684_13824)">
<path opacity="0.2" d="M190.199 77.0806L191.867 92.0409L185.574 92.7462L184.326 81.5293L190.199 77.0806Z" fill="black"/>
</g>
<path d="M185.58 92.8006L184.326 81.5295L190.199 77.0807L196.024 76.4297L197.686 91.3358L185.58 92.8006Z" stroke="#263238" stroke-width="0.678167" stroke-linecap="round" stroke-linejoin="round"/>
<path d="M190.721 79.5493L191.074 82.6892" stroke="#263238" stroke-width="0.678167" stroke-linecap="round" stroke-linejoin="round"/>
<path d="M191.284 84.5605L192.023 91.193" stroke="#263238" stroke-width="0.678167" stroke-linecap="round" stroke-linejoin="round"/>
<path d="M182.839 95.0005L179.947 95.3228L184.456 135.776L187.348 135.454L182.839 95.0005Z" fill="#75A9C8"/>
<mask id="mask6_684_13824" style="mask-type:luminance" maskUnits="userSpaceOnUse" x="179" y="95" width="9" height="41">
<path d="M182.839 95.0005L179.947 95.3228L184.456 135.776L187.348 135.454L182.839 95.0005Z" fill="white"/>
</mask>
<g mask="url(#mask6_684_13824)">
<path opacity="0.2" d="M182.839 95.0005L179.947 95.3228L184.456 135.776L187.348 135.454L182.839 95.0005Z" fill="black"/>
</g>
<path d="M182.839 95.0005L179.947 95.3228L184.456 135.776L187.348 135.454L182.839 95.0005Z" stroke="#263238" stroke-width="0.678167" stroke-linecap="round" stroke-linejoin="round"/>
<path d="M165.086 96.991L208.055 92.2031L212.558 132.656L209.669 132.981L205.431 94.9022L165.351 99.3646L165.086 96.991Z" fill="#75A9C8" stroke="#263238" stroke-width="0.678167" stroke-linecap="round" stroke-linejoin="round"/>
<path d="M199.585 90.8744L136.658 97.8799L136.909 100.111L209.276 92.0544L209.025 89.8232L203.735 90.4065L199.585 90.8744Z" fill="#75A9C8"/>
<mask id="mask7_684_13824" style="mask-type:luminance" maskUnits="userSpaceOnUse" x="136" y="89" width="74" height="12">
<path d="M199.585 90.8744L136.658 97.8799L136.909 100.111L209.276 92.0544L209.025 89.8232L203.735 90.4065L199.585 90.8744Z" fill="white"/>
</mask>
<g mask="url(#mask7_684_13824)">
<path opacity="0.6" d="M199.585 90.8744L136.658 97.8799L136.909 100.111L209.276 92.0544L209.025 89.8232L203.735 90.4065L199.585 90.8744Z" fill="white"/>
</g>
<path d="M199.585 90.8744L136.658 97.8799L136.909 100.111L209.276 92.0544L209.025 89.8232L203.735 90.4065L199.585 90.8744Z" stroke="#263238" stroke-width="0.678167" stroke-linecap="round" stroke-linejoin="round"/>
<path d="M142.632 140.448L138.129 99.9958L166.884 96.7881L171.387 137.241L168.498 137.566L164.259 99.4872L141.283 102.044L145.521 140.123L142.632 140.448Z" fill="#75A9C8"/>
<mask id="mask8_684_13824" style="mask-type:luminance" maskUnits="userSpaceOnUse" x="138" y="96" width="34" height="45">
<path d="M142.632 140.448L138.129 99.9958L166.884 96.7881L171.387 137.241L168.498 137.566L164.259 99.4872L141.283 102.044L145.521 140.123L142.632 140.448Z" fill="white"/>
</mask>
<g mask="url(#mask8_684_13824)">
<path opacity="0.2" d="M142.632 140.448L138.129 99.9958L166.884 96.7881L171.387 137.241L168.498 137.566L164.259 99.4872L141.283 102.044L145.521 140.123L142.632 140.448Z" fill="white"/>
</g>
<path d="M142.632 140.448L138.129 99.9958L166.884 96.7881L171.387 137.241L168.498 137.566L164.259 99.4872L141.283 102.044L145.521 140.123L142.632 140.448Z" stroke="#263238" stroke-width="0.678167" stroke-linecap="round" stroke-linejoin="round"/>
<path d="M211.059 102.749C204.481 97.4863 194.878 98.5578 189.616 105.136C184.353 111.714 185.424 121.317 192.003 126.58C198.215 131.544 207.112 130.872 212.517 125.244L214.816 127.081L216.566 124.891L214.267 123.053C218.566 116.543 217.264 107.713 211.052 102.749H211.059ZM211.954 122.999C207.35 128.757 198.954 129.692 193.196 125.088C187.439 120.483 186.503 112.087 191.107 106.33C195.712 100.572 204.108 99.6361 209.866 104.241C215.623 108.846 216.559 117.241 211.954 122.999Z" fill="#757575" stroke="#263238" stroke-width="0.678167" stroke-linecap="round" stroke-linejoin="round"/>
<path d="M234.015 140.638C233.276 141.561 231.926 141.71 231.004 140.971L214.294 127.611C214.097 127.455 214.063 127.17 214.219 126.973L216.328 124.335C216.484 124.139 216.769 124.105 216.966 124.261L233.676 137.621C234.598 138.36 234.747 139.709 234.008 140.632L234.015 140.638Z" fill="#999999" stroke="#263238" stroke-width="0.678167" stroke-linecap="round" stroke-linejoin="round"/>
<path d="M121.792 142.768L119.832 142.985L111.002 108.649L112.895 108.168L121.792 142.768Z" fill="#999999" stroke="#263238" stroke-width="0.678167" stroke-linecap="round" stroke-linejoin="round"/>
<path d="M120.547 92.8107L97.1045 98.834L100.88 113.527L124.322 107.504L120.547 92.8107Z" fill="#263238"/>
<path d="M240.98 57.8136L209.235 61.3468C208.129 61.4689 207.329 62.4658 207.451 63.578L208.699 74.7677C208.821 75.8732 209.818 76.6734 210.93 76.5513L214.898 76.1105L212.205 82.8718L217.522 75.8189L242.675 73.0181C243.781 72.896 244.581 71.8991 244.459 70.7869L243.211 59.5971C243.089 58.4917 242.092 57.6915 240.98 57.8136Z" fill="white" stroke="#263238" stroke-width="0.678167" stroke-linecap="round" stroke-linejoin="round"/>
<path d="M213.839 70.5974C213.792 70.4889 213.758 70.4279 213.717 70.082L213.643 69.4106C213.595 69.0173 213.446 68.8816 213.141 68.9156L212.91 68.9427L213.107 70.6788L212.436 70.7534L211.961 66.4877L212.971 66.3724C213.67 66.2978 214.002 66.5827 214.077 67.2473L214.118 67.5796C214.165 68.0204 214.056 68.312 213.772 68.4883V68.5019C214.124 68.6036 214.267 68.9088 214.321 69.3564L214.396 70.0142C214.416 70.2244 214.443 70.3736 214.524 70.5228L213.839 70.5974ZM212.7 67.0235L212.843 68.3323L213.107 68.3052C213.358 68.2781 213.5 68.1492 213.46 67.8101L213.412 67.3897C213.378 67.0845 213.256 66.9624 213.019 66.9896L212.693 67.0235H212.7Z" fill="#263238"/>
<path d="M215.284 67.9387L216.206 67.837L216.274 68.4473L215.352 68.549L215.494 69.7969L216.654 69.668L216.722 70.2784L214.891 70.4818L214.416 66.2161L216.247 66.0127L216.315 66.623L215.155 66.7519L215.291 67.9387H215.284Z" fill="#263238"/>
<path d="M216.715 66.9964C216.641 66.3115 216.959 65.8842 217.617 65.8096C218.275 65.735 218.682 66.0877 218.757 66.7726L219.007 68.9902C219.035 69.2276 219.007 69.431 218.946 69.6006C218.987 69.6752 219.035 69.682 219.143 69.6684H219.204L219.272 70.2584L219.184 70.272C218.885 70.3059 218.682 70.2177 218.573 70.0414C218.445 70.1024 218.289 70.1499 218.112 70.1703C217.454 70.2449 217.048 69.8922 216.973 69.2073L216.722 66.9896L216.715 66.9964ZM217.638 69.1869C217.671 69.4921 217.821 69.5938 218.031 69.5667C218.241 69.5396 218.363 69.4107 218.329 69.1055L218.072 66.7998C218.038 66.4946 217.888 66.3929 217.678 66.42C217.468 66.4471 217.346 66.576 217.38 66.8811L217.638 69.1869Z" fill="#263238"/>
<path d="M219.712 65.6262L220.079 68.9221C220.113 69.2273 220.262 69.3223 220.472 69.2951C220.689 69.268 220.811 69.1459 220.777 68.8408L220.411 65.5449L221.042 65.4771L221.401 68.7255C221.476 69.4104 221.177 69.8377 220.519 69.9123C219.862 69.9869 219.475 69.6342 219.4 68.9493L219.041 65.7008L219.712 65.6262Z" fill="#263238"/>
<path d="M221.496 65.4223L222.167 65.3477L222.642 69.6133L221.971 69.6879L221.496 65.4223Z" fill="#263238"/>
<path d="M224.534 69.4104C224.487 69.3019 224.453 69.2409 224.412 68.895L224.338 68.2236C224.29 67.8235 224.141 67.6946 223.836 67.7285L223.605 67.7557L223.802 69.4918L223.13 69.5664L222.656 65.3007L223.666 65.1854C224.365 65.1108 224.697 65.3956 224.772 66.0603L224.806 66.3926C224.853 66.8334 224.745 67.125 224.46 67.3013V67.3149C224.812 67.4166 224.955 67.7218 225.009 68.1693L225.084 68.8272C225.104 69.0374 225.131 69.1866 225.212 69.3358L224.527 69.4104H224.534ZM223.395 65.8365L223.537 67.1453L223.802 67.1182C224.053 67.0911 224.195 66.9622 224.155 66.6231L224.107 66.2027C224.073 65.8975 223.958 65.7754 223.714 65.8025L223.388 65.8365H223.395Z" fill="#263238"/>
<path d="M225.972 66.7448L226.894 66.6431L226.962 67.2534L226.039 67.3551L226.182 68.603L227.341 68.4741L227.409 69.0845L225.578 69.2879L225.104 65.0155L226.935 64.812L227.002 65.4224L225.843 65.5512L225.978 66.738L225.972 66.7448Z" fill="#263238"/>
<path d="M229.098 67.6469H229.112L229.227 64.5612L230.163 64.4595L230.638 68.7251L230.007 68.793L229.668 65.7344H229.654L229.546 68.8472L228.908 68.915L228.088 65.9514H228.074L228.413 68.9693L227.83 69.0371L227.355 64.7714L228.291 64.6697L229.119 67.6469H229.098Z" fill="#263238"/>
<path d="M231.513 66.1281L232.435 66.0264L232.503 66.6368L231.58 66.7385L231.716 67.9863L232.876 67.8575L232.943 68.4678L231.112 68.6713L230.638 64.4056L232.469 64.2021L232.537 64.8125L231.377 64.9414L231.513 66.1281Z" fill="#263238"/>
<path d="M233.622 65.2666H233.608L233.954 68.359L233.351 68.4269L232.876 64.1612L233.717 64.0662L234.68 66.5483H234.693L234.409 63.9916L235.005 63.9238L235.48 68.1895L234.788 68.2641L233.622 65.2666Z" fill="#263238"/>
<path d="M235.29 63.8902L237.365 63.6597L237.433 64.27L236.735 64.3514L237.141 68.0067L236.47 68.0813L236.063 64.426L235.365 64.5074L235.297 63.897L235.29 63.8902Z" fill="#263238"/>
<path d="M238.552 63.4766C239.203 63.402 239.583 63.7547 239.657 64.4396L239.671 64.5753L239.033 64.6431L239.013 64.4668C238.979 64.1616 238.843 64.0599 238.633 64.0802C238.423 64.1073 238.308 64.2362 238.342 64.5414C238.375 64.8533 238.538 65.0703 239.02 65.4026C239.637 65.8367 239.854 66.169 239.908 66.6572C239.983 67.3422 239.684 67.7694 239.026 67.844C238.369 67.9186 237.982 67.566 237.908 66.881L237.88 66.6165L238.518 66.5487L238.552 66.8539C238.586 67.1591 238.735 67.254 238.945 67.2269C239.155 67.1998 239.277 67.0777 239.243 66.7725C239.21 66.4606 239.047 66.2436 238.565 65.9113C237.948 65.4772 237.731 65.1449 237.677 64.6566C237.602 63.9717 237.894 63.5444 238.545 63.4698L238.552 63.4766Z" fill="#263238"/>
<path d="M71.8315 148.329L265.048 126.811" stroke="#263238" stroke-width="0.678167" stroke-linecap="round" stroke-linejoin="round"/>
<path d="M73.2354 145.616C71.6078 144.816 69.4851 144.897 67.7693 145.854C66.5893 146.505 65.4975 147.63 64.5819 149.55C62.3236 154.256 56.0981 165.032 55.0198 168.118C53.9347 171.203 51.6425 179.769 49.0723 183.472C46.4952 187.181 45.2881 192.586 45.2881 192.586L47.3294 244.262C48.4009 236.708 52.0833 227.986 52.0833 227.986C58.0851 224.331 60.5875 219.36 60.5875 219.36C61.1708 218.668 61.7065 217.882 62.2016 217C65.9586 210.361 67.2743 198.737 66.9691 189.785C66.63 179.647 69.6479 174.899 74.4357 165.731C79.2304 156.555 76.8161 147.379 73.2489 145.623L73.2354 145.616Z" fill="white"/>
<path opacity="0.4" d="M73.2352 145.616C71.5872 144.857 69.4849 144.898 67.7692 145.854C70.7192 146.478 74.6186 147.739 73.8727 150.011C72.7062 153.598 68.3727 148.634 66.4535 150.452C64.5275 152.269 57.7662 162.421 62.6829 166.423C67.5928 170.43 66.5417 177.687 63.4764 179.898C60.411 182.115 62.7643 186.801 64.2223 194.322C65.1107 198.873 63.551 209.384 62.1946 216.993C65.9517 210.354 67.2673 198.73 66.9621 189.779C66.6231 179.64 69.6409 174.893 74.4288 165.724C79.2234 156.548 76.8023 147.251 73.242 145.616H73.2352Z" fill="#75A9C8"/>
<path d="M47.3226 244.262C48.4009 236.708 52.0765 227.986 52.0765 227.986C58.0783 224.331 60.5808 219.36 60.5808 219.36C65.5653 213.48 67.3014 199.917 66.9555 189.785C66.6097 179.647 69.6275 174.899 74.4221 165.731C79.21 156.562 77.1958 147.488 73.2354 145.623C70.4752 144.321 66.8402 144.85 64.5819 149.556C62.3236 154.263 56.1049 165.039 55.013 168.125C53.9279 171.21 51.6357 179.775 49.0655 183.478C46.4884 187.188 45.2881 192.586 45.2881 192.586" stroke="#263238" stroke-width="0.678167" stroke-linecap="round" stroke-linejoin="round"/>
<path d="M59.3394 168.769C59.3394 168.769 63.4965 168.891 65.4768 170.342" stroke="#263238" stroke-width="0.678167" stroke-linecap="round" stroke-linejoin="round"/>
<path d="M43.7078 191.623C43.7078 191.623 42.7923 189.724 46.8952 187.595" stroke="#263238" stroke-width="0.678167" stroke-linecap="round" stroke-linejoin="round"/>
<path opacity="0.2" d="M189.277 152.913C197.571 152.98 207.933 190.334 211.161 194.633C211.161 194.633 257.446 196.227 263.285 202.676C269.124 209.133 266.221 214.585 270.087 220.716C273.953 226.84 275.024 237.161 275.024 237.161L285.142 254.312L241.543 275.193C241.543 275.193 218.248 261.853 212.565 258.836C206.882 255.818 190.077 249.273 185.601 240.742C181.125 232.211 180.901 224.256 179.938 220.723C178.975 217.189 197.686 206.637 197.686 206.637L189.277 152.919V152.913Z" fill="black"/>
<path d="M290.982 257.697C287.224 254.225 283.278 250.536 280.029 247.484C280.029 247.484 280.016 247.477 280.016 247.47C275.865 243.578 272.868 240.736 272.868 240.736C270.399 235.562 268.229 233.812 265.496 229.729C262.77 225.647 263.177 221.327 262.539 215.61C261.888 209.893 259.582 204.99 258.165 201.619C256.741 198.256 256.632 194.777 256.348 194.024C256.063 193.271 251.77 189.968 249.783 187.256C248.894 186.035 247.775 184.977 246.555 184.15C245.063 183.126 243.422 182.448 241.896 182.244C241.109 182.142 240.417 182.142 239.793 182.203C238.193 182.353 236.993 182.902 235.738 183.207C233.988 183.628 229.567 181.491 227.01 181.593C226.535 181.613 226.067 181.654 225.593 181.729H225.572C223.511 182.027 221.449 182.746 219.116 183.472C216.817 184.184 213.528 182.644 211.161 182.475C211.148 182.475 211.134 182.475 211.121 182.475C210.531 182.441 210.002 182.481 209.561 182.671C207.316 183.621 203.023 185.059 203.023 185.059C203.023 185.059 201.911 182.136 200.738 178.087C200.534 177.388 200.324 176.71 200.094 176.059V176.046C199.259 173.57 198.357 171.4 197.801 169.352C197.652 168.816 197.53 168.281 197.442 167.758C196.94 164.795 196.303 162.537 195.143 158.101C195.102 157.952 195.062 157.789 195.021 157.633C194.661 156.25 194.356 154.914 193.997 153.727C193.136 150.852 191.976 148.851 188.972 149.095C186.34 149.312 184.889 150.994 184.828 155.443C184.753 159.892 183.906 159.783 185.086 165.988C186.259 172.194 185.825 176.419 186.768 179.491C187.703 182.563 188.47 188.761 188.47 188.761C187.161 188.456 186.205 189.195 186.123 189.731C186.035 190.267 186.32 195.245 186.449 198.819C186.564 201.992 184.482 205.451 183.96 207.784C183.96 207.804 183.96 207.825 183.946 207.838C183.892 208.109 183.851 208.367 183.845 208.598C183.77 210.876 185.16 215.386 186.557 221.232C187.954 227.071 187.934 233.466 190.328 237.006C190.803 237.711 191.42 238.322 192.139 238.878C195.041 241.116 199.727 242.52 204.536 246.066C210.537 250.502 214.83 253.804 218.391 254.91C220.934 255.696 222.175 256.537 222.921 257.86C222.927 257.867 222.927 257.873 222.927 257.873C223.226 258.396 223.443 258.999 223.633 259.698C223.972 260.932 224.874 261.719 226.386 263.021C227.919 264.343 230.082 266.188 232.903 269.558C234.748 271.755 237.8 276.055 241.062 280.836L290.982 257.711V257.697Z" fill="white"/>
<path opacity="0.4" d="M197.442 167.745C197.53 168.267 197.652 168.803 197.802 169.339C193.909 169.522 187.161 173.082 187.575 175.3C188.09 178.012 189.277 184.421 190.993 185.567C192.709 186.713 195.855 186.964 195.855 186.964C195.638 187.032 195.435 187.113 195.238 187.202L195.231 187.208C195.211 187.222 195.184 187.229 195.164 187.242C194.241 187.683 193.543 188.354 193.055 189.195C190.905 192.803 192.329 199.307 194.011 202.203C201.003 214.213 197.137 225.979 194.614 225.274C192.092 224.568 189.23 213.48 189.284 210.707C189.345 207.933 188.762 205.878 188.762 205.878C187.69 205.783 185.717 206.767 183.94 207.825C183.94 207.804 183.94 207.784 183.953 207.77C184.476 205.437 186.564 201.979 186.442 198.805C186.314 195.231 186.035 190.253 186.117 189.717C186.205 189.182 187.161 188.436 188.463 188.748C188.463 188.748 187.697 182.549 186.761 179.477C185.818 176.405 186.252 172.18 185.079 165.975C183.906 159.77 184.754 159.878 184.822 155.429C184.889 150.981 186.341 149.299 188.965 149.082C191.969 148.838 193.129 150.831 193.99 153.714C193.59 153.49 193.17 153.28 192.729 153.11C191.617 152.676 190.396 152.486 189.277 152.927C187.975 153.436 187.121 155.063 186.72 156.67C186.137 158.99 186.497 161.268 187.826 160.149C189.331 158.881 192.926 158.325 195.143 158.101C196.303 162.537 196.934 164.802 197.442 167.758V167.745Z" fill="#75A9C8"/>
<path opacity="0.4" d="M223.633 259.691C223.443 258.992 223.226 258.389 222.928 257.867C222.928 257.867 222.928 257.867 222.921 257.853C222.175 256.531 220.934 255.69 218.391 254.903C214.831 253.798 210.538 250.495 204.536 246.06C199.728 242.513 195.042 241.109 192.139 238.871C195.327 239.726 198.968 238.023 200.759 240.153C203.349 243.225 212.857 246.541 212.857 246.541C222.819 252.604 223.64 259.691 223.64 259.691H223.633Z" fill="#75A9C8"/>
<path opacity="0.4" d="M211.121 182.468C210.131 182.502 209.073 189.446 209.364 191.759C210.11 197.74 217.394 214.993 213.454 215.508C211.826 215.718 207.954 207.777 206.909 203.891C203.722 192.091 203.023 187.045 203.023 187.045C203.023 187.045 200.596 180.671 200.101 176.052C200.324 176.703 200.535 177.381 200.745 178.08C201.918 182.122 203.03 185.052 203.03 185.052C203.03 185.052 207.323 183.614 209.568 182.664C210.009 182.474 210.544 182.434 211.128 182.468H211.121Z" fill="#75A9C8"/>
<path opacity="0.4" d="M225.579 181.729C223.552 182.413 221.951 184.936 220.344 185.709C218.371 186.652 213.454 182.888 211.162 182.475C213.535 182.644 216.824 184.183 219.117 183.471C221.449 182.739 223.511 182.027 225.573 181.729H225.579Z" fill="#75A9C8"/>
<path opacity="0.4" d="M239.794 182.203C239.238 183.186 238.437 185.892 238.363 187.045C237.983 192.836 244.439 212.863 240.947 210.17C236.403 206.664 236.464 190.734 232.537 185.594C231.283 183.946 227.702 181.694 227.01 181.592C229.56 181.491 233.982 183.627 235.738 183.206C236.993 182.908 238.193 182.352 239.794 182.203Z" fill="#75A9C8"/>
<path opacity="0.4" d="M280.009 247.477C276.544 245.049 272.983 242.804 270.847 242.146C265.652 240.559 263.686 238.091 262.18 233.554C260.681 229.01 261.882 228.841 262.153 223.937C262.424 219.034 258.532 213.982 259.027 215.162C259.508 216.335 259.393 225.321 257.914 226.114C256.429 226.908 254.53 221.333 253.222 216.729C251.913 212.124 249.268 189.853 247.545 185.784C247.267 185.126 246.928 184.59 246.548 184.149C247.769 184.977 248.881 186.035 249.776 187.255C251.763 189.975 256.056 193.271 256.341 194.024C256.626 194.776 256.734 198.255 258.159 201.619C259.576 204.989 261.882 209.893 262.533 215.61C263.177 221.32 262.763 225.64 265.49 229.729C268.223 233.812 270.386 235.561 272.861 240.736C272.861 240.736 275.866 243.577 280.009 247.47V247.477Z" fill="#75A9C8"/>
<path opacity="0.4" d="M223.843 194.329C225.139 195.17 229.201 209.269 230.625 212.633C232.049 215.996 232.239 224.826 230.591 222.534C228.943 220.242 218.567 190.897 223.85 194.322L223.843 194.329Z" fill="#75A9C8"/>
<path d="M239.814 279.012C237.033 274.977 234.511 271.464 232.903 269.551C230.075 266.181 227.919 264.336 226.386 263.014C224.874 261.712 223.972 260.918 223.633 259.691C223.443 258.992 223.226 258.389 222.927 257.867C222.927 257.867 222.927 257.867 222.921 257.853C222.175 256.531 220.934 255.69 218.391 254.903C214.83 253.798 210.537 250.495 204.536 246.06C199.727 242.513 195.041 241.109 192.139 238.871C191.42 238.315 190.803 237.705 190.328 236.999C187.934 233.453 187.954 227.064 186.557 221.225C185.16 215.379 183.77 210.87 183.845 208.591C183.845 208.354 183.885 208.096 183.946 207.831C183.946 207.811 183.946 207.791 183.96 207.777C184.482 205.444 186.571 201.986 186.449 198.812C186.32 195.238 186.042 190.26 186.123 189.724C186.211 189.189 187.168 188.443 188.47 188.755C188.47 188.755 187.703 182.556 186.768 179.484C185.825 176.412 186.259 172.187 185.086 165.982C183.912 159.776 184.76 159.885 184.828 155.436C184.896 150.987 186.347 149.306 188.972 149.089C191.976 148.844 193.136 150.838 193.997 153.72C194.356 154.907 194.655 156.243 195.021 157.627C195.062 157.789 195.102 157.945 195.143 158.095C196.303 162.53 196.933 164.795 197.442 167.752C197.53 168.274 197.652 168.81 197.801 169.345C198.351 171.393 199.259 173.57 200.087 176.039V176.052C200.317 176.704 200.528 177.382 200.731 178.08C201.904 182.122 203.016 185.052 203.016 185.052C203.016 185.052 207.309 183.614 209.554 182.665C209.995 182.475 210.531 182.434 211.114 182.468C211.127 182.468 211.148 182.468 211.154 182.468C213.528 182.637 216.817 184.177 219.109 183.465C221.442 182.732 223.504 182.02 225.566 181.722H225.586C226.061 181.647 226.529 181.6 227.003 181.58C229.553 181.478 233.975 183.614 235.731 183.194C236.986 182.895 238.186 182.339 239.787 182.19C240.411 182.129 241.102 182.129 241.889 182.231C243.415 182.434 245.056 183.112 246.548 184.136C247.769 184.964 248.881 186.022 249.776 187.242C251.763 189.962 256.056 193.258 256.341 194.01C256.626 194.763 256.734 198.242 258.158 201.606C259.576 204.976 261.881 209.879 262.532 215.596C263.177 221.307 262.763 225.627 265.489 229.716C268.222 233.798 270.386 235.548 272.861 240.722C272.861 240.722 275.865 243.564 280.009 247.457C280.009 247.457 280.016 247.463 280.022 247.47C282.905 250.176 286.336 253.384 289.693 256.497" stroke="#263238" stroke-width="0.678167" stroke-linecap="round" stroke-linejoin="round"/>
<path d="M188.457 188.741C189.481 193.027 190.362 198.445 190.24 200.805C190.118 203.165 192.329 210.462 191.881 213.867" stroke="#263238" stroke-width="0.678167" stroke-linecap="round" stroke-linejoin="round"/>
<path d="M191.474 191.589C191.474 191.589 193.651 187.5 195.862 186.971C198.073 186.442 200.616 187.344 203.017 187.045C205.417 186.747 207.438 184.434 209.581 183.485" stroke="#263238" stroke-width="0.678167" stroke-linecap="round" stroke-linejoin="round"/>
<path d="M189.426 175.557C189.426 175.557 193.102 173.122 195.53 174.099" stroke="#263238" stroke-width="0.678167" stroke-linecap="round" stroke-linejoin="round"/>
<path d="M192.023 172.919C192.023 172.919 193.176 172.288 195.204 172.736" stroke="#263238" stroke-width="0.678167" stroke-linecap="round" stroke-linejoin="round"/>
<path d="M188.463 162.787C188.463 162.787 190.389 161.777 192.593 161.797" stroke="#263238" stroke-width="0.678167" stroke-linecap="round" stroke-linejoin="round"/>
<path d="M183.947 207.763C183.947 207.763 186.239 205.878 187.249 205.498" stroke="#263238" stroke-width="0.678167" stroke-linecap="round" stroke-linejoin="round"/>
<path d="M191.725 210.117C191.725 210.117 190.755 212.897 190.735 214.138" stroke="#263238" stroke-width="0.678167" stroke-linecap="round" stroke-linejoin="round"/>
<path d="M185.947 152.269C185.947 152.269 186.51 157.376 187.236 157.674C187.961 157.966 192.865 157.233 193.054 156.284C193.238 155.334 192.444 151.679 192.444 151.679C192.444 151.679 188.389 147.434 185.947 152.269Z" stroke="#263238" stroke-width="0.678167" stroke-linecap="round" stroke-linejoin="round"/>
<path d="M186.436 198.798C186.436 198.798 189.935 195.841 189.345 192.938C188.755 190.043 187.589 190.348 186.097 190.687" stroke="#263238" stroke-width="0.678167" stroke-linecap="round" stroke-linejoin="round"/>
<path d="M250.108 190.477C251.322 194.993 253.194 208.55 253.526 210.53C253.865 212.51 255.181 217.461 255.181 217.461" stroke="#263238" stroke-width="0.678167" stroke-linecap="round" stroke-linejoin="round"/>
<path d="M219.177 186.875C224.955 192.091 220.1 190.748 229.947 219.868" stroke="#263238" stroke-width="0.678167" stroke-linecap="round" stroke-linejoin="round"/>
<path d="M272.868 240.742C272.868 240.742 268.365 238.694 267.307 237.162" stroke="#263238" stroke-width="0.678167" stroke-linecap="round" stroke-linejoin="round"/>
<path d="M219.51 252.02C221.097 253.641 222.812 257.608 222.914 257.852C222.921 257.859 222.921 257.866 222.921 257.866" stroke="#263238" stroke-width="0.678167" stroke-linecap="round" stroke-linejoin="round"/>
</g>
<defs>
<clipPath id="clip0_684_13824">
<rect width="301.228" height="283.799" fill="white"/>
</clipPath>
</defs>
</svg>
