<svg width="285" height="280" viewBox="0 0 285 280" fill="none" xmlns="http://www.w3.org/2000/svg">
<path opacity="0.7" d="M225.502 99.874C200.691 60.9203 208.721 17.549 170.822 3.22395C131.685 -11.5703 108.355 28.0841 64.1607 50.5619C35.0779 65.3561 15.8052 50.83 6.99447 79.6203C-8.76249 131.108 4.70953 214.408 56.7331 254.348C117.287 300.839 273.34 281.743 283.588 198.986C288.64 158.174 248.486 135.97 225.496 99.8679L225.502 99.874Z" fill="#75A9C8"/>
<path opacity="0.7" d="M225.502 99.874C200.691 60.9203 208.721 17.549 170.822 3.22395C131.685 -11.5703 108.355 28.0841 64.1607 50.5619C35.0779 65.3561 15.8052 50.83 6.99447 79.6203C-8.76249 131.108 4.70953 214.408 56.7331 254.348C117.287 300.839 273.34 281.743 283.588 198.986C288.64 158.174 248.486 135.97 225.496 99.8679L225.502 99.874Z" fill="white"/>
<path d="M146.065 247.884L126.805 239.841L103.163 261.624L90.2031 244.63" stroke="#263238" stroke-width="0.609318" stroke-linecap="round" stroke-linejoin="round"/>
<path d="M200.234 129.602L194.671 142.922L216.46 166.563L208.728 172.462" stroke="#263238" stroke-width="0.609318" stroke-linecap="round" stroke-linejoin="round"/>
<path d="M205.565 116.831L202.141 125.02" stroke="#263238" stroke-width="0.609318" stroke-linecap="round" stroke-linejoin="round"/>
<path d="M85.3223 69.8649L97.7524 75.0563L121.394 53.2671L140.892 78.8341L172.26 71.7843L176.367 103.67L202.811 111.926" stroke="#263238" stroke-width="0.609318" stroke-linecap="round" stroke-linejoin="round"/>
<path d="M28.3813 105.328L26.6143 97.4676L58.4999 93.3608L68.0844 62.6694L76.3346 66.1182" stroke="#263238" stroke-width="0.609318" stroke-linecap="round" stroke-linejoin="round"/>
<path d="M30.9647 116.831L29.8618 111.926" stroke="#263238" stroke-width="0.609318" stroke-linecap="round" stroke-linejoin="round"/>
<path d="M35.0166 207.114L17.4987 201.642L29.8862 171.974L8.10303 148.333L33.6639 128.835L31.8847 120.926" stroke="#263238" stroke-width="0.609318" stroke-linecap="round" stroke-linejoin="round"/>
<path d="M235.007 164.644L233.076 169.494L228.226 167.557L230.157 162.707L235.007 164.644ZM231.601 160.684L235.58 148.851L240.912 135.488L245.945 137.493L240.613 150.855L235.355 162.176L231.601 160.677V160.684Z" fill="#263238"/>
<path opacity="0.2" d="M230.328 233.101C228.878 231.578 228.025 229.604 227.903 227.502C227.598 222.067 226.325 210.648 221.073 201.721C219.068 198.315 213.407 188.725 210.166 185.818C206.912 182.918 201.69 185.124 201.69 185.124C201.69 185.124 200.063 182.68 198.436 179.664C196.809 176.648 195.304 173.863 190.314 173.748C185.324 173.632 184.977 175.63 184.977 177.227C184.977 180.84 187.877 185.928 187.877 185.928C186.945 185.928 185.555 181.98 184.026 176.995C182.491 172.005 178.445 171.201 173.137 173.047C167.836 174.887 170.121 181.516 171.395 185.002C172.668 188.481 172.748 190.729 170.304 191.339C167.861 191.948 166.843 182.796 159.525 169.568C152.201 156.346 151.83 155.042 147.315 152.275C144.932 150.819 143.439 151.447 142.519 152.507C142.44 151.404 142.044 150.38 141.221 149.485C138.51 146.542 135.689 148.534 132.801 151.684L132.788 151.611C137.346 146.219 139.576 141.161 136.158 138.462C134.763 137.359 132.795 137.664 130.546 138.822L128.359 134.794L125.556 118.897C125.02 115.826 122.095 113.785 119.03 114.321L74.4158 122.187L70.0348 122.955C65.7634 123.71 62.9057 127.787 63.6613 132.064L65.209 140.844C61.8882 136.256 57.9459 135.531 55.9595 137.518C53.0531 140.424 56.2276 152.062 55.9595 157.351C55.6975 162.64 49.0864 180.091 47.4961 185.118C45.9119 190.138 45.3818 216.583 42.9993 228.196C42.4509 230.859 41.0861 234.222 39.2886 237.811L67.372 261.313C70.4125 257.389 73.0814 253.952 74.9154 251.204C75.8172 249.851 94.6878 241.321 94.6878 241.321L140.009 233.333C140.009 233.333 140.058 233.321 140.088 233.315C141.331 235.508 142.665 238.104 143.854 241.577C146.699 249.919 160.531 258.875 171.925 263.75C183.319 268.631 189.827 266.193 189.827 266.193C189.827 266.193 196.06 269.216 201.824 272.201C204.03 271.622 206.211 271.007 208.374 270.355C222.955 265.956 236.47 259.899 247.925 252.197C240.047 243.783 233.704 236.666 230.316 233.095L230.328 233.101ZM157.094 228.172C154.651 229.189 149.362 216.778 145.7 211.288C144.548 209.557 142.94 208.381 141.228 207.687L137.017 183.814L137.389 177.794C138.936 174.729 139.016 172.328 137.364 170.817C136.92 170.415 136.475 170.134 136.018 169.964L135.268 165.692C137.31 163.334 139.655 160.501 141.118 157.723C141.447 163.797 145.7 171.207 145.7 171.207L147.12 175.277L153.834 195.817L156.07 206.931C156.278 217.838 159.531 227.148 157.094 228.166V228.172Z" fill="black"/>
<path d="M127.877 144.354C127.779 146.005 127.907 148.674 129.053 152.141" stroke="#263238" stroke-width="0.609318" stroke-linecap="round" stroke-linejoin="round"/>
<path d="M128.152 142.459C128.152 142.459 128.042 142.812 127.957 143.477" stroke="#263238" stroke-width="0.609318" stroke-linecap="round" stroke-linejoin="round"/>
<path d="M124.569 131.089C124.569 131.089 124.447 135.854 126.208 139.669" stroke="#263238" stroke-width="0.609318" stroke-linecap="round" stroke-linejoin="round"/>
<path d="M131.721 160.544C134.341 162.932 132.617 167.581 127.56 173.528C122.502 179.481 111.687 191.284 107.135 199.412C102.572 207.546 103.589 218.91 77.2788 236.702C75.9323 237.616 73.2391 239.584 72.3434 240.937C69.309 245.501 67.5968 251.929 64.014 259.345C61.4549 257.773 59.0298 256.103 56.7387 254.348C47.5258 247.28 39.5255 238.847 32.6768 229.476C34.9434 225.174 36.7348 221.073 37.3807 217.935L52.699 171.682L60.6506 168.507L74.1409 156.473L96.3505 136.64C96.3505 136.64 112.089 121.17 117.049 125.922C122.003 130.687 111.096 140.802 105.344 144.573C99.5921 148.339 95.4243 155.669 85.9129 165.193C86.0713 165.144 88.5695 164.321 91.2627 161.628C94.0351 158.856 100.189 151.118 104.351 147.547C108.512 143.976 124.641 123.534 130.533 128.195C135.767 132.32 127.761 141.99 118.432 149.929C109.116 157.863 107.324 162.225 97.2157 172.937L95.8265 174.521C95.8265 174.521 99.7932 172.145 105.941 164.705C112.089 157.266 115.952 153.396 121.016 148.443C126.073 143.483 130.984 134.215 135.591 139.211C140.752 144.805 129.339 155.279 126.274 159.349C123.197 163.414 103.096 179.749 102.279 185.416C102.419 185.209 104.637 181.876 107.227 179.183C109.902 176.404 118.926 167.38 123.191 163.407C127.456 159.441 129.534 158.545 131.715 160.538L131.721 160.544Z" fill="white"/>
<path opacity="0.5" d="M60.5898 176.886V164.425L111.846 121.103L124.306 125.02L132.52 171.877L100.25 218.74L84.53 236.063C84.53 236.063 73.5074 234.259 73.8486 218.74C74.1898 203.214 60.5959 176.886 60.5959 176.886H60.5898Z" fill="#75A9C8"/>
<path d="M33.4146 229.921C35.6812 225.619 37.4726 221.518 38.1185 218.38L53.4367 172.127L61.3883 168.952L74.8786 156.918L97.0883 137.085C97.0883 137.085 112.827 121.614 117.787 126.367C122.741 131.132 111.834 141.247 106.082 145.018C100.33 148.784 96.1621 156.114 86.6507 165.638C86.8091 165.589 89.3073 164.766 92.0005 162.073C94.7729 159.301 100.927 151.562 105.089 147.992C109.25 144.421 125.379 123.979 131.271 128.64C136.505 132.765 128.499 142.435 119.17 150.374C109.853 158.308 108.062 162.67 97.9535 173.382L96.5643 174.966C96.5643 174.966 100.531 172.59 106.679 165.15C112.827 157.71 116.69 153.841 121.753 148.887C126.811 143.928 131.722 134.66 136.328 139.656C141.489 145.25 130.077 155.724 127.012 159.794C123.935 163.858 103.833 180.194 103.017 185.861C103.157 185.654 105.375 182.321 107.965 179.628C110.64 176.849 119.664 167.825 123.929 163.852C128.194 159.886 130.272 158.99 132.453 160.982C135.073 163.371 133.349 168.02 128.291 173.967C123.234 179.92 112.419 191.723 107.867 199.851C103.303 207.985 104.321 219.349 78.0105 237.141C76.6639 238.055 73.9708 240.023 73.0751 241.376C70.0407 245.94 68.3285 252.368 64.7457 259.783" stroke="#263238" stroke-width="0.609318" stroke-miterlimit="10"/>
<path d="M55.9287 228.489C59.3531 231.34 64.8369 236.562 66.2018 241.766" stroke="#263238" stroke-width="0.609318" stroke-linecap="round" stroke-linejoin="round"/>
<path d="M53.1138 226.295C53.1138 226.295 53.6317 226.661 54.4664 227.307" stroke="#263238" stroke-width="0.609318" stroke-linecap="round" stroke-linejoin="round"/>
<path d="M33.2197 230.341C35.4864 226.034 37.2717 221.939 37.9176 218.795C40.3 207.187 40.824 180.743 42.4143 175.716C43.9986 170.689 50.6097 153.238 50.8778 147.949C51.1398 142.661 47.9713 131.023 50.8778 128.116C53.7842 125.21 60.9254 128.116 64.1 140.546C67.2745 152.976 61.7175 172.017 64.1 176.642C66.4824 181.273 67.634 178.452 73.8003 199.297C79.9666 220.141 74.5437 225.43 74.5437 225.43" fill="white"/>
<path d="M33.2197 230.341C35.4864 226.034 37.2717 221.939 37.9176 218.795C40.3 207.187 40.824 180.743 42.4143 175.716C43.9986 170.689 50.6097 153.238 50.8778 147.949C51.1398 142.661 47.9713 131.023 50.8778 128.116C53.7842 125.21 60.9254 128.116 64.1 140.546C67.2745 152.976 61.7175 172.017 64.1 176.642C66.4824 181.273 67.634 178.452 73.8003 199.297C79.9666 220.141 74.5437 225.43 74.5437 225.43" stroke="#263238" stroke-width="0.609318" stroke-miterlimit="10"/>
<path d="M56.2521 130.772C56.508 133.252 56.4166 135.97 55.1066 137.115C53.7539 138.291 52.7425 139.236 52.0783 139.882C51.6579 140.284 50.9633 140.083 50.8292 139.516L50.5977 138.529" stroke="#263238" stroke-width="0.609318" stroke-linecap="round" stroke-linejoin="round"/>
<path d="M55.9165 128.433C55.9896 128.853 56.0688 129.304 56.1298 129.773" stroke="#263238" stroke-width="0.609318" stroke-linecap="round" stroke-linejoin="round"/>
<path d="M52.5596 149.113C53.5467 148.412 55.2101 147.578 57.428 147.718" stroke="#263238" stroke-width="0.609318" stroke-linecap="round" stroke-linejoin="round"/>
<path d="M51.5293 150.003C51.5293 150.003 51.6633 149.844 51.9253 149.613" stroke="#263238" stroke-width="0.609318" stroke-linecap="round" stroke-linejoin="round"/>
<path d="M36.4614 167.929C36.5224 167.125 36.5833 166.345 36.6503 165.595" stroke="#263238" stroke-width="0.609318" stroke-linecap="round" stroke-linejoin="round"/>
<path d="M35.3765 182.558C35.7055 178.439 35.998 174.235 36.2783 170.415" stroke="#263238" stroke-width="0.609318" stroke-linecap="round" stroke-linejoin="round"/>
<path d="M33.8833 196.481C34.3768 193.301 34.7851 189.45 35.1324 185.404" stroke="#263238" stroke-width="0.609318" stroke-linecap="round" stroke-linejoin="round"/>
<path d="M33.3843 199.308C33.4635 198.912 33.5427 198.504 33.6219 198.071" stroke="#263238" stroke-width="0.609318" stroke-linecap="round" stroke-linejoin="round"/>
<path d="M113.82 234.88L119.535 233.875" stroke="#263238" stroke-width="0.609318" stroke-linecap="round" stroke-linejoin="round"/>
<path d="M91.9395 238.744L112.029 235.197" stroke="#263238" stroke-width="0.609318" stroke-linecap="round" stroke-linejoin="round"/>
<path d="M87.6929 239.493L89.9473 239.091" stroke="#263238" stroke-width="0.609318" stroke-linecap="round" stroke-linejoin="round"/>
<path d="M129.596 109.355L129.894 111.049" stroke="#263238" stroke-width="0.609318" stroke-linecap="round" stroke-linejoin="round"/>
<path d="M118.408 97.5648C123.283 96.7057 127.938 99.9594 128.797 104.84L129.297 107.68" stroke="#263238" stroke-width="0.609318" stroke-linecap="round" stroke-linejoin="round"/>
<path d="M90.2031 102.537L116.349 97.9243" stroke="#263238" stroke-width="0.609318" stroke-linecap="round" stroke-linejoin="round"/>
<path d="M86.5649 103.176L88.3015 102.872" stroke="#263238" stroke-width="0.609318" stroke-linecap="round" stroke-linejoin="round"/>
<path d="M71.8323 111.926L67.4513 112.7C63.1739 113.455 60.3222 117.532 61.0717 121.809L79.3269 225.338C80.0824 229.616 84.1588 232.467 88.4362 231.718L92.8172 230.944L71.8323 111.932V111.926Z" fill="#999999" stroke="#263238" stroke-width="0.609318" stroke-linecap="round" stroke-linejoin="round"/>
<path d="M137.431 223.072L90.136 231.407C87.0711 231.95 84.1464 229.902 83.6102 226.837L64.5812 118.927C64.0389 115.862 66.0862 112.937 69.1511 112.395L78.8149 110.689L116.446 104.06C119.511 103.517 122.436 105.565 122.978 108.63L128.432 139.571L142.001 216.54C142.543 219.605 140.496 222.529 137.431 223.072Z" fill="#263238" stroke="#263238" stroke-width="0.609318" stroke-linecap="round" stroke-linejoin="round"/>
<path d="M114.838 107.746L104.918 109.495L105.095 112.017C105.21 113.693 104.047 115.18 102.395 115.472L86.2546 118.317C84.6034 118.61 83.0009 117.605 82.5378 115.996L81.8431 113.565L71.9234 115.314C69.474 115.746 67.8288 118.092 68.2614 120.542L86.5166 224.071C86.9492 226.52 89.2951 228.165 91.7446 227.733L134.653 220.165C137.102 219.732 138.747 217.387 138.315 214.937L120.06 111.408C119.627 108.958 117.281 107.313 114.832 107.746H114.838Z" fill="#75A9C8"/>
<mask id="mask0_684_12498" style="mask-type:luminance" maskUnits="userSpaceOnUse" x="68" y="107" width="71" height="121">
<path d="M114.838 107.746L104.918 109.495L105.095 112.017C105.21 113.693 104.047 115.18 102.395 115.472L86.2546 118.317C84.6034 118.61 83.0009 117.605 82.5378 115.996L81.8431 113.565L71.9234 115.314C69.474 115.746 67.8288 118.092 68.2614 120.542L86.5166 224.071C86.9492 226.52 89.2951 228.165 91.7446 227.733L134.653 220.165C137.102 219.732 138.747 217.387 138.315 214.937L120.06 111.408C119.627 108.958 117.281 107.313 114.832 107.746H114.838Z" fill="white"/>
</mask>
<g mask="url(#mask0_684_12498)">
<path opacity="0.3" d="M99.0503 235.124H76.7676L103.413 96.4858H125.696L99.0503 235.124Z" fill="white"/>
</g>
<path d="M114.838 107.746L104.918 109.495L105.095 112.017C105.21 113.693 104.047 115.18 102.395 115.472L86.2546 118.317C84.6034 118.61 83.0009 117.605 82.5378 115.996L81.8431 113.565L71.9234 115.314C69.474 115.746 67.8288 118.092 68.2614 120.542L86.5166 224.071C86.9492 226.52 89.2951 228.165 91.7446 227.733L134.653 220.165C137.102 219.732 138.747 217.387 138.315 214.937L120.06 111.408C119.627 108.958 117.281 107.313 114.832 107.746H114.838Z" stroke="#263238" stroke-width="0.609318" stroke-linecap="round" stroke-linejoin="round"/>
<path d="M90.1781 114.156C90.306 114.869 89.8247 115.551 89.1118 115.679C88.3989 115.807 87.7164 115.326 87.5885 114.613C87.4605 113.9 87.9419 113.217 88.6548 113.089C89.3677 112.962 90.0501 113.443 90.1781 114.156Z" fill="#75A9C8" stroke="#263238" stroke-width="0.609318" stroke-linecap="round" stroke-linejoin="round"/>
<path d="M99.0991 111.896C98.8919 111.932 92.7074 113.023 92.5002 113.059C92.1346 113.126 91.8848 113.474 91.9518 113.845C92.0188 114.211 92.3661 114.461 92.7378 114.394C92.9937 114.351 99.0808 113.273 99.3367 113.23C99.7023 113.163 99.9522 112.816 99.8851 112.444C99.8181 112.078 99.4708 111.829 99.0991 111.896Z" fill="#75A9C8" stroke="#263238" stroke-width="0.609318" stroke-linecap="round" stroke-linejoin="round"/>
<path d="M119.347 218.758C119.14 218.795 105.863 221.134 105.655 221.171C105.29 221.238 105.04 221.585 105.107 221.957C105.174 222.322 105.521 222.572 105.893 222.505C106.149 222.463 119.329 220.135 119.584 220.092C119.95 220.025 120.2 219.678 120.133 219.306C120.066 218.941 119.719 218.691 119.347 218.758Z" fill="white"/>
<path d="M114.99 126.196L78.0834 132.704C76.2067 133.033 74.4153 131.784 74.0863 129.907C73.7572 128.03 75.0063 126.239 76.883 125.91L113.789 119.402C115.666 119.073 117.458 120.322 117.787 122.199C118.116 124.076 116.867 125.867 114.99 126.196Z" fill="white" stroke="#263238" stroke-width="0.609318" stroke-linecap="round" stroke-linejoin="round"/>
<path opacity="0.2" d="M122.893 171.018L85.9867 177.525C84.11 177.854 82.3186 176.605 81.9896 174.729C81.6606 172.852 82.9097 171.061 84.7864 170.731L121.693 164.224C123.569 163.895 125.361 165.144 125.69 167.021C126.019 168.897 124.77 170.689 122.893 171.018Z" fill="#263238"/>
<path opacity="0.2" d="M115.965 183.375L87.8935 188.322C86.0168 188.652 84.2254 187.402 83.8963 185.526C83.5673 183.649 84.8164 181.858 86.6931 181.529L114.764 176.581C116.641 176.252 118.432 177.501 118.762 179.378C119.091 181.254 117.841 183.046 115.965 183.375Z" fill="#263238"/>
<path opacity="0.2" d="M119.096 129.593L75.3936 137.299L80.6881 167.326L124.391 159.62L119.096 129.593Z" fill="black"/>
<path opacity="0.5" d="M116.513 188.877L86.1262 194.233C85.7546 194.3 85.4011 194.05 85.3341 193.678C85.2671 193.307 85.5169 192.953 85.8886 192.886L116.275 187.53C116.647 187.463 117 187.713 117.067 188.085C117.134 188.457 116.885 188.81 116.513 188.877Z" fill="#263238"/>
<path opacity="0.5" d="M124.026 193.148L87.0833 199.662C86.7116 199.729 86.3582 199.479 86.2911 199.108C86.2241 198.736 86.4739 198.383 86.8456 198.316L123.789 191.802C124.16 191.735 124.514 191.985 124.581 192.356C124.648 192.728 124.398 193.081 124.026 193.148Z" fill="#263238"/>
<path opacity="0.5" d="M115.343 200.271L88.0398 205.085C87.6681 205.152 87.3147 204.902 87.2477 204.53C87.1807 204.158 87.4305 203.805 87.8022 203.738L115.106 198.924C115.477 198.857 115.831 199.107 115.898 199.479C115.965 199.851 115.715 200.204 115.343 200.271Z" fill="#263238"/>
<path opacity="0.5" d="M119.931 205.06L88.9964 210.514C88.6247 210.581 88.2713 210.331 88.2042 209.959C88.1372 209.587 88.387 209.234 88.7587 209.167L119.694 203.714C120.065 203.646 120.419 203.896 120.486 204.268C120.553 204.64 120.303 204.993 119.931 205.06Z" fill="#263238"/>
<path opacity="0.5" d="M123.423 210.039L89.9529 215.943C89.5812 216.01 89.2278 215.76 89.1608 215.388C89.0938 215.017 89.3436 214.663 89.7153 214.596L123.185 208.692C123.557 208.625 123.91 208.875 123.977 209.247C124.044 209.618 123.794 209.972 123.423 210.039Z" fill="#263238"/>
<path d="M112.936 124.1C112.558 124.167 112.168 124.1 111.821 123.905L111.65 124.679L111.035 125.563C110.968 125.636 110.883 125.678 110.791 125.697C110.554 125.739 110.322 125.563 110.28 125.331C110.261 125.24 110.28 125.136 110.322 125.057L110.931 124.173L111.608 123.747C111.303 123.491 111.108 123.137 111.041 122.76C110.889 121.888 111.498 121.035 112.369 120.883C113.235 120.731 114.1 121.334 114.252 122.199C114.325 122.619 114.252 123.052 113.99 123.418C113.728 123.789 113.344 124.021 112.936 124.094V124.1ZM112.826 123.479C113.363 123.387 113.728 122.857 113.631 122.309C113.539 121.773 113.003 121.407 112.479 121.498C111.937 121.596 111.571 122.126 111.663 122.65C111.711 122.912 111.845 123.144 112.077 123.308C112.302 123.46 112.577 123.515 112.826 123.473V123.479Z" fill="#75A9C8"/>
<path opacity="0.2" d="M100.543 150.289L108.282 140.18L88.3203 143.708C86.3461 144.049 84.4633 142.733 84.116 140.759L78.8149 110.689L116.446 104.06C119.511 103.517 122.436 105.565 122.978 108.63L128.432 139.571L100.543 150.289Z" fill="black"/>
<path d="M228.713 108.746L147.966 122.985L100.549 150.289L113.717 129.024L93.7553 132.546C91.7811 132.893 89.8983 131.571 89.551 129.596L72.4779 32.7697C72.1245 30.7955 73.4528 28.9127 75.4209 28.5654L210.379 4.77152C212.353 4.41812 214.242 5.74034 214.583 7.71453L231.656 104.541C232.01 106.515 230.687 108.404 228.713 108.746Z" fill="#999999" stroke="#263238" stroke-width="0.609318" stroke-linecap="round" stroke-linejoin="round"/>
<path opacity="0.6" d="M225.307 105.06C226.459 104.859 227.227 103.756 227.026 102.604L210.891 11.115C210.69 9.9634 209.587 9.19566 208.435 9.39673L78.8212 32.2523C77.6696 32.4533 76.8957 33.5562 77.1029 34.7078L93.2376 126.197C93.4387 127.349 94.5416 128.116 95.6932 127.915L225.307 105.06Z" fill="white"/>
<path d="M227.026 102.604L210.891 11.115C210.69 9.9634 209.587 9.19566 208.435 9.39673L78.8212 32.2523C77.6696 32.4533 76.8957 33.5562 77.1029 34.7078L93.2376 126.197C93.4387 127.349 94.5416 128.116 95.6932 127.915L225.307 105.06C226.459 104.859 227.227 103.756 227.026 102.604Z" fill="#75A9C8"/>
<mask id="mask1_684_12498" style="mask-type:luminance" maskUnits="userSpaceOnUse" x="77" y="9" width="151" height="119">
<path d="M227.026 102.604L210.891 11.115C210.69 9.9634 209.587 9.19566 208.435 9.39673L78.8212 32.2523C77.6696 32.4533 76.8957 33.5562 77.1029 34.7078L93.2376 126.197C93.4387 127.349 94.5416 128.116 95.6932 127.915L225.307 105.06C226.459 104.859 227.227 103.756 227.026 102.604Z" fill="white"/>
</mask>
<g mask="url(#mask1_684_12498)">
<path opacity="0.4" d="M155.857 206.438H104.175L165.972 -33.4199H217.654L155.857 206.438Z" fill="white"/>
</g>
<path d="M227.026 102.604L210.891 11.115C210.69 9.9634 209.587 9.19566 208.435 9.39673L78.8212 32.2523C77.6696 32.4533 76.8957 33.5562 77.1029 34.7078L93.2376 126.197C93.4387 127.349 94.5416 128.116 95.6932 127.915L225.307 105.06C226.459 104.859 227.227 103.756 227.026 102.604Z" stroke="#263238" stroke-width="0.609318" stroke-linecap="round" stroke-linejoin="round"/>
<path d="M219.61 7.24563C220.255 10.9198 217.806 14.4173 214.132 15.0632C210.464 15.7091 206.96 13.2596 206.314 9.58541C205.668 5.91122 208.118 2.41374 211.792 1.76786C215.466 1.12198 218.964 3.57144 219.61 7.24563Z" fill="#75A9C8" stroke="#263238" stroke-width="0.609318" stroke-linecap="round" stroke-linejoin="round"/>
<path d="M209.733 6.16113L216.198 10.6823" stroke="#263238" stroke-width="0.913977" stroke-linecap="round" stroke-linejoin="round"/>
<path d="M215.229 5.19238L210.702 11.6512" stroke="#263238" stroke-width="0.913977" stroke-linecap="round" stroke-linejoin="round"/>
<g opacity="0.2">
<path d="M142.501 35.4937L150.587 28.0356L157.259 36.7855L167.995 34.3726L169.402 45.2794L179.901 48.5636L175.66 58.7148L183.118 66.8005L174.374 73.4725L176.781 84.2087L165.874 85.6162L162.596 96.1148L152.439 91.8739L144.353 99.332L137.681 90.5883L126.945 92.9951L125.538 82.0883L115.039 78.8101L119.28 68.6528L111.822 60.5671L120.572 53.8951L118.159 43.1589L129.065 41.7514L132.35 31.2528L142.501 35.4937Z" fill="black"/>
</g>
<path d="M144.329 31.8374L152.414 24.3794L159.086 33.1292L169.822 30.7163L171.23 41.6231L181.729 44.9073L177.488 55.0586L184.946 63.1442L176.202 69.8162L178.609 80.5524L167.702 81.96L164.424 92.4585L154.267 88.2177L146.181 95.6757L139.509 86.932L128.773 89.3388L127.365 78.432L116.867 75.1539L121.107 64.9965L113.649 56.9109L122.399 50.2389L119.986 39.5027L130.893 38.0951L134.177 27.5966L144.329 31.8374Z" fill="white" stroke="#263238" stroke-width="0.609318" stroke-linecap="round" stroke-linejoin="round"/>
<path d="M186.609 62.6567L180.473 74.6055L189.272 91.4348L208.727 81.2653L199.929 64.436L186.615 62.6567H186.609ZM189.826 68.8109C188.955 69.2678 187.882 68.9266 187.425 68.0614C186.968 67.1901 187.31 66.1177 188.175 65.6607C189.046 65.2037 190.119 65.5449 190.576 66.4101C191.033 67.2815 190.691 68.3539 189.826 68.8109Z" fill="white" stroke="#263238" stroke-width="0.609318" stroke-linecap="round" stroke-linejoin="round"/>
<path d="M180.382 62.9187C180.796 62.1266 183.057 62.48 185.433 63.7108C187.809 64.9416 189.4 66.5868 188.992 67.3789C188.803 67.7445 188.212 67.8664 187.401 67.7689" stroke="#263238" stroke-width="0.609318" stroke-linecap="round" stroke-linejoin="round"/>
<path d="M184.458 66.8491C184.288 66.7699 184.111 66.6846 183.934 66.5932C183.209 66.2154 182.557 65.8011 182.015 65.3867" stroke="#263238" stroke-width="0.609318" stroke-linecap="round" stroke-linejoin="round"/>
<path d="M176.217 96.1439L138.311 102.828C137.005 103.058 136.133 104.303 136.364 105.609L137.358 111.249C137.588 112.555 138.834 113.427 140.139 113.197L178.045 106.513C179.351 106.283 180.223 105.038 179.993 103.732L178.998 98.0913C178.768 96.7855 177.523 95.9137 176.217 96.1439Z" fill="#263238"/>
<path d="M176.217 96.1439L138.311 102.828C137.005 103.058 136.133 104.303 136.364 105.609L137.358 111.249C137.588 112.555 138.834 113.427 140.139 113.197L178.045 106.513C179.351 106.283 180.223 105.038 179.993 103.732L178.998 98.0913C178.768 96.7855 177.523 95.9137 176.217 96.1439Z" stroke="#263238" stroke-width="0.609318" stroke-linecap="round" stroke-linejoin="round"/>
<path d="M148.49 107.515L148.106 105.34C147.997 104.718 148.252 104.286 148.868 104.182C149.483 104.072 149.867 104.389 149.983 105.011L150.056 105.437L149.453 105.541L149.368 105.072C149.319 104.804 149.173 104.718 148.984 104.749C148.795 104.785 148.685 104.913 148.734 105.181L149.13 107.442C149.179 107.71 149.325 107.789 149.514 107.759C149.703 107.722 149.812 107.6 149.77 107.332L149.66 106.711L150.263 106.607L150.367 107.18C150.477 107.801 150.221 108.234 149.605 108.338C148.99 108.447 148.606 108.13 148.49 107.509V107.515Z" fill="#75A9C8"/>
<path d="M150.197 104.005L150.83 103.895L151.44 107.362L152.488 107.179L152.591 107.758L150.91 108.057L150.197 104.011V104.005Z" fill="#75A9C8"/>
<path d="M152.183 103.658L152.817 103.548L153.53 107.594L152.896 107.703L152.183 103.658Z" fill="#75A9C8"/>
<path d="M153.804 106.576L153.42 104.401C153.31 103.779 153.566 103.347 154.181 103.243C154.797 103.133 155.181 103.45 155.296 104.072L155.37 104.498L154.766 104.602L154.681 104.133C154.632 103.865 154.486 103.779 154.297 103.81C154.108 103.846 153.999 103.974 154.047 104.242L154.443 106.503C154.492 106.771 154.638 106.85 154.827 106.82C155.016 106.783 155.126 106.661 155.083 106.393L154.973 105.772L155.577 105.668L155.68 106.241C155.79 106.862 155.534 107.295 154.919 107.399C154.303 107.508 153.919 107.191 153.804 106.57V106.576Z" fill="#75A9C8"/>
<path d="M155.504 103.073L156.137 102.963L156.436 104.669L156.942 102.823L157.575 102.713L157.082 104.334L158.3 106.759L157.636 106.875L156.783 105.163L156.619 105.723L156.844 107.015L156.21 107.125L155.498 103.079L155.504 103.073Z" fill="#75A9C8"/>
<path d="M158.824 102.488L159.458 102.378L159.75 104.023L160.433 103.901L160.14 102.256L160.774 102.146L161.487 106.192L160.853 106.302L160.53 104.48L159.848 104.602L160.171 106.424L159.537 106.534L158.824 102.488Z" fill="#75A9C8"/>
<path d="M161.249 102.055L162.986 101.75L163.089 102.329L161.992 102.524L162.181 103.597L163.053 103.444L163.156 104.023L162.285 104.176L162.504 105.419L163.601 105.224L163.705 105.802L161.968 106.107L161.255 102.061L161.249 102.055Z" fill="#75A9C8"/>
<path d="M163.352 101.69L164.296 101.525C164.954 101.409 165.295 101.665 165.405 102.293L165.448 102.543C165.521 102.957 165.435 103.249 165.173 103.414V103.426C165.509 103.469 165.667 103.749 165.746 104.206L165.874 104.919C165.911 105.114 165.941 105.26 166.033 105.4L165.387 105.516C165.332 105.419 165.301 105.358 165.24 105.029L165.112 104.291C165.045 103.914 164.918 103.816 164.625 103.865L164.406 103.901L164.71 105.638L164.077 105.748L163.364 101.702L163.352 101.69ZM164.528 103.274C164.765 103.231 164.893 103.103 164.832 102.78L164.777 102.47C164.729 102.177 164.607 102.073 164.381 102.11L164.089 102.159L164.29 103.316L164.521 103.274H164.528Z" fill="#75A9C8"/>
<path d="M165.679 101.275L167.416 100.971L167.519 101.55L166.423 101.745L166.611 102.817L167.483 102.665L167.586 103.243L166.715 103.396L166.934 104.639L168.031 104.444L168.135 105.023L166.398 105.327L165.685 101.281L165.679 101.275Z" fill="#75A9C8"/>
<path d="M136.852 34.8657C138.034 35.7553 138.814 37.2298 139.18 39.2954L139.771 42.604C140.137 44.6635 139.923 46.3208 139.113 47.5639C138.309 48.8069 136.913 49.6051 134.921 49.9646L133.032 50.2997L134.738 59.8721L130.735 60.585L126.195 35.1155L132.087 34.0614C134.074 33.708 135.664 33.9761 136.846 34.8657H136.852ZM132.386 46.6621L134.275 46.3269C134.933 46.2112 135.39 45.9431 135.652 45.5165C135.914 45.0961 135.969 44.4441 135.81 43.5728L135.128 39.7524C134.969 38.8811 134.695 38.29 134.305 37.9854C133.915 37.6807 133.391 37.5832 132.733 37.7051L130.844 38.0402L132.38 46.6621H132.386Z" fill="#263238"/>
<path d="M141.575 33.7999C142.416 32.4959 143.823 31.6734 145.785 31.32C147.747 30.9666 149.356 31.259 150.593 32.1913C151.836 33.1235 152.64 34.6042 152.999 36.6393L155.364 49.8859C155.729 51.921 155.485 53.5905 154.645 54.8945C153.798 56.1984 152.396 57.021 150.434 57.3744C148.472 57.7278 146.864 57.4353 145.627 56.5031C144.384 55.5708 143.579 54.0902 143.22 52.0551L140.856 38.8085C140.49 36.7734 140.734 35.1038 141.575 33.7999ZM149.782 53.7368C151.165 53.493 151.708 52.5303 151.409 50.8547L148.954 37.1024C148.655 35.4268 147.814 34.7139 146.431 34.9637C145.048 35.2074 144.506 36.1701 144.804 37.8458L147.26 51.5981C147.558 53.2737 148.399 53.9866 149.782 53.7368Z" fill="#263238"/>
<path d="M165.155 29.8205C166.343 30.7101 167.117 32.1846 167.483 34.2502L168.074 37.5588C168.439 39.6183 168.226 41.2757 167.416 42.5187C166.611 43.7617 165.216 44.566 163.223 44.9194L161.335 45.2545L163.041 54.8208L159.037 55.5337L154.498 30.0642L160.39 29.0101C162.377 28.6567 163.967 28.9248 165.149 29.8144L165.155 29.8205ZM160.689 41.6169L162.578 41.2818C163.236 41.166 163.693 40.8979 163.955 40.4714C164.217 40.0509 164.272 39.399 164.113 38.5276L163.431 34.7072C163.278 33.8359 163.004 33.2449 162.608 32.9402C162.218 32.6355 161.694 32.538 161.036 32.6599L159.147 32.995L160.683 41.6169H160.689Z" fill="#263238"/>
<path d="M145.718 80.0893C146.011 81.7405 146.852 82.4412 148.235 82.1914C149.618 81.9477 150.16 80.9971 149.868 79.3459L146.364 59.6954L150.148 59.019L153.609 78.4136C153.974 80.4731 153.749 82.1488 152.926 83.4344C152.104 84.7201 150.721 85.5366 148.783 85.8839C146.839 86.2312 145.261 85.9448 144.049 85.0186C142.83 84.0986 142.044 82.6057 141.672 80.5402L138.211 61.1456L142.215 60.4327L145.718 80.0832V80.0893Z" fill="#75A9C8" stroke="#263238" stroke-width="0.609318" stroke-linecap="round" stroke-linejoin="round"/>
<path d="M163.529 58.2939C164.711 59.1835 165.491 60.658 165.856 62.7236L166.447 66.0322C166.813 68.0917 166.6 69.7491 165.789 70.9921C164.985 72.2351 163.589 73.0333 161.597 73.3928L159.708 73.7279L161.414 83.3003L157.411 84.0132L152.872 58.5437L158.764 57.4896C160.75 57.1362 162.34 57.4043 163.522 58.2939H163.529ZM159.062 70.0903L160.951 69.7552C161.609 69.6394 162.066 69.3713 162.328 68.9448C162.59 68.5243 162.645 67.8724 162.487 67.001L161.804 63.1806C161.646 62.3093 161.378 61.7183 160.982 61.4136C160.592 61.1089 160.068 61.0114 159.41 61.1333L157.521 61.4684L159.056 70.0903H159.062Z" fill="#75A9C8" stroke="#263238" stroke-width="0.609318" stroke-linecap="round" stroke-linejoin="round"/>
<path d="M253.866 247.926C241.271 257.693 225.575 265.182 208.387 270.367C206.717 268.521 205.218 266.943 204.054 265.87C201.288 263.329 191.844 257.127 191.844 257.127C191.844 257.127 185.336 259.57 173.942 254.683C162.548 249.803 148.716 242.68 145.87 234.338C143.025 225.996 139.363 222.743 137.937 217.856C137.407 216.034 137.176 213.956 136.396 211.866C135.098 208.363 133.379 204.823 134.275 202.398C135.701 198.528 144.043 198.528 147.705 204.024C151.367 209.521 156.655 221.926 159.099 220.909C161.542 219.891 158.282 210.581 158.081 199.674L155.839 188.566L149.124 168.02L147.705 163.95C147.705 163.95 142.208 154.389 143.226 148.077C143.226 148.077 144.341 141.972 149.331 145.024C153.846 147.784 154.212 149.094 161.542 162.323C168.866 175.545 169.884 184.697 172.321 184.088C174.758 183.478 174.685 181.23 173.412 177.751C172.138 174.271 169.859 167.642 175.154 165.796C180.461 163.95 184.513 164.748 186.043 169.744C187.572 174.735 188.961 178.683 189.894 178.683C189.894 178.683 186.993 173.589 186.993 169.976C186.993 168.385 187.341 166.381 192.331 166.497C197.321 166.612 198.826 169.397 200.453 172.419C202.08 175.435 203.707 177.873 203.707 177.873C203.707 177.873 208.929 175.667 212.183 178.567C215.43 181.468 221.085 191.058 223.089 194.47C228.342 203.397 229.615 214.828 229.926 220.257C230.042 222.353 230.895 224.333 232.345 225.856C236.129 229.841 244.19 238.244 253.878 247.932L253.866 247.926Z" fill="white"/>
<mask id="mask2_684_12498" style="mask-type:luminance" maskUnits="userSpaceOnUse" x="134" y="144" width="120" height="127">
<path d="M253.866 247.926C241.271 257.693 225.575 265.182 208.387 270.367C206.717 268.521 205.218 266.943 204.054 265.87C201.288 263.329 191.844 257.127 191.844 257.127C191.844 257.127 185.336 259.57 173.942 254.683C162.548 249.803 148.716 242.68 145.87 234.338C143.025 225.996 139.363 222.743 137.937 217.856C137.407 216.034 137.176 213.956 136.396 211.866C135.098 208.363 133.379 204.823 134.275 202.398C135.701 198.528 144.043 198.528 147.705 204.024C151.367 209.521 156.655 221.926 159.099 220.909C161.542 219.891 158.282 210.581 158.081 199.674L155.839 188.566L149.124 168.02L147.705 163.95C147.705 163.95 142.208 154.389 143.226 148.077C143.226 148.077 144.341 141.972 149.331 145.024C153.846 147.784 154.212 149.094 161.542 162.323C168.866 175.545 169.884 184.697 172.321 184.088C174.758 183.478 174.685 181.23 173.412 177.751C172.138 174.271 169.859 167.642 175.154 165.796C180.461 163.95 184.513 164.748 186.043 169.744C187.572 174.735 188.961 178.683 189.894 178.683C189.894 178.683 186.993 173.589 186.993 169.976C186.993 168.385 187.341 166.381 192.331 166.497C197.321 166.612 198.826 169.397 200.453 172.419C202.08 175.435 203.707 177.873 203.707 177.873C203.707 177.873 208.929 175.667 212.183 178.567C215.43 181.468 221.085 191.058 223.089 194.47C228.342 203.397 229.615 214.828 229.926 220.257C230.042 222.353 230.895 224.333 232.345 225.856C236.129 229.841 244.19 238.244 253.878 247.932L253.866 247.926Z" fill="white"/>
</mask>
<g mask="url(#mask2_684_12498)">
<path opacity="0.5" d="M217.264 270.434C213.596 266.388 210.44 263.007 209.044 261.758C204.621 257.791 194.396 254.129 192.568 250.924C190.74 247.719 191.197 239.176 189.668 235.21C188.139 231.243 152.591 231.243 149.234 229.567C145.876 227.892 142.824 212.939 140.539 215.059C138.254 217.18 139.631 221.78 139.631 221.78L138.997 225.29L142.525 242.534L158.849 261.758L176.495 270.434H217.27H217.264Z" fill="#75A9C8"/>
</g>
<path d="M136.913 209.417C137.132 208.802 137.614 207.997 138.625 207.016C141.075 204.64 142.013 204.061 140.502 201.033" stroke="#263238" stroke-width="0.609318" stroke-linecap="round" stroke-linejoin="round"/>
<path d="M142.471 211.221C142.818 210.873 143.19 210.526 143.604 210.191" stroke="#263238" stroke-width="0.609318" stroke-linecap="round" stroke-linejoin="round"/>
<path d="M138.991 216.638C139.387 215.529 140.179 213.822 141.684 212.074" stroke="#263238" stroke-width="0.609318" stroke-linecap="round" stroke-linejoin="round"/>
<path d="M144.347 149.308C144.347 149.308 144.853 150.734 146.382 150.222C147.906 149.716 152.183 149.101 151.062 147.474" stroke="#263238" stroke-width="0.609318" stroke-linecap="round" stroke-linejoin="round"/>
<path d="M155.784 164.62C156.996 163.956 158.538 163.316 160.213 163.14" stroke="#263238" stroke-width="0.609318" stroke-linecap="round" stroke-linejoin="round"/>
<path d="M153.2 166.393C153.2 166.393 153.566 166.064 154.193 165.613" stroke="#263238" stroke-width="0.609318" stroke-linecap="round" stroke-linejoin="round"/>
<path d="M195.426 182.156C198.107 181.449 200.124 180.401 204.919 181.979" stroke="#263238" stroke-width="0.609318" stroke-linecap="round" stroke-linejoin="round"/>
<path d="M165.667 190.51C166.898 189.243 168.835 188.176 171.815 188.524C178.377 189.285 179.901 184.1 183.867 182.571C187.834 181.047 189.357 183.028 193.324 182.571" stroke="#263238" stroke-width="0.609318" stroke-linecap="round" stroke-linejoin="round"/>
<path d="M163.723 193.861C163.723 193.861 163.924 193.063 164.491 192.082" stroke="#263238" stroke-width="0.609318" stroke-linecap="round" stroke-linejoin="round"/>
<path d="M220.378 178.11C219.909 177.562 219.464 177.099 219.056 176.733" stroke="#263238" stroke-width="0.609318" stroke-linecap="round" stroke-linejoin="round"/>
<path d="M233.935 201.837C232.966 198.699 231.674 195.531 229.968 192.63C228.384 189.937 224.521 183.387 221.365 179.323" stroke="#263238" stroke-width="0.609318" stroke-linecap="round" stroke-linejoin="round"/>
<path d="M236.646 216.247C236.384 213.164 235.842 209.033 234.733 204.676" stroke="#263238" stroke-width="0.609318" stroke-linecap="round" stroke-linejoin="round"/>
<path d="M236.805 218.417C236.786 218.124 236.768 217.814 236.744 217.491" stroke="#263238" stroke-width="0.609318" stroke-linecap="round" stroke-linejoin="round"/>
<mask id="mask3_684_12498" style="mask-type:luminance" maskUnits="userSpaceOnUse" x="134" y="144" width="120" height="127">
<path d="M208.387 270.367C206.717 268.521 205.218 266.943 204.054 265.87C201.288 263.329 191.844 257.127 191.844 257.127C191.844 257.127 185.336 259.57 173.942 254.683C162.548 249.803 148.716 242.68 145.87 234.338C143.025 225.996 139.363 222.743 137.937 217.856C137.407 216.034 137.176 213.956 136.396 211.866C135.098 208.363 133.379 204.823 134.275 202.398C135.701 198.528 144.043 198.528 147.705 204.024C151.367 209.521 156.655 221.926 159.099 220.909C161.542 219.891 158.282 210.581 158.081 199.674L155.839 188.566L149.124 168.02L147.705 163.95C147.705 163.95 142.208 154.389 143.226 148.077C143.226 148.077 144.341 141.972 149.331 145.024C153.846 147.784 154.212 149.094 161.542 162.323C168.866 175.545 169.884 184.697 172.321 184.088C174.758 183.478 174.685 181.23 173.412 177.751C172.138 174.271 169.859 167.642 175.154 165.796C180.461 163.95 184.513 164.748 186.043 169.744C187.572 174.735 188.961 178.683 189.894 178.683C189.894 178.683 186.993 173.589 186.993 169.976C186.993 168.385 187.341 166.381 192.331 166.497C197.321 166.612 198.826 169.397 200.453 172.419C202.08 175.435 203.707 177.873 203.707 177.873C203.707 177.873 208.929 175.667 212.183 178.567C215.43 181.468 221.085 191.058 223.089 194.47C228.342 203.397 229.615 214.828 229.926 220.257C230.042 222.353 230.895 224.333 232.345 225.856C236.129 229.841 244.19 238.244 253.878 247.932" fill="white"/>
</mask>
<g mask="url(#mask3_684_12498)">
<path d="M177.347 181.912C178.17 180.109 177.871 178.001 177.335 176.1C176.799 174.192 176.031 172.316 175.964 170.335C175.897 168.355 176.732 166.174 178.542 165.369C180.485 164.504 182.837 165.564 184.178 167.216C185.512 168.867 186.091 170.987 186.749 173.01C187.401 175.033 188.23 177.123 189.875 178.464C189.26 176.069 188.644 173.565 189.193 171.152C189.747 168.745 191.874 166.497 194.335 166.71C193.903 163.901 191.155 162.104 188.559 160.934C183.806 158.789 177.89 157.625 173.631 160.635C170.072 163.152 168.78 167.886 168.841 172.243C168.884 175.307 169.28 180.048 171.157 182.625C172.82 184.916 175.97 184.916 177.347 181.912Z" fill="#75A9C8"/>
<path opacity="0.5" d="M177.347 181.912C178.17 180.109 177.871 178.001 177.335 176.1C176.799 174.192 176.031 172.316 175.964 170.335C175.897 168.355 176.732 166.174 178.542 165.369C180.485 164.504 182.837 165.564 184.178 167.216C185.512 168.867 186.091 170.987 186.749 173.01C187.401 175.033 188.23 177.123 189.875 178.464C189.26 176.069 188.644 173.565 189.193 171.152C189.747 168.745 191.874 166.497 194.335 166.71C193.903 163.901 191.155 162.104 188.559 160.934C183.806 158.789 177.89 157.625 173.631 160.635C170.072 163.152 168.78 167.886 168.841 172.243C168.884 175.307 169.28 180.048 171.157 182.625C172.82 184.916 175.97 184.916 177.347 181.912Z" fill="white"/>
<path d="M142.403 147.797C145.895 153.823 149.392 159.855 152.883 165.881C151.543 168.52 151.994 171.749 153.139 174.479C154.285 177.209 156.07 179.615 157.459 182.229C161.146 189.145 161.962 197.542 159.677 205.036C159.555 205.438 159.348 205.901 158.934 205.968C158.392 206.054 158.057 205.402 157.91 204.872C152.664 186.525 147.412 168.179 142.166 149.832L142.403 147.809V147.797Z" fill="#75A9C8"/>
<g opacity="0.5">
<path d="M142.403 147.797C145.895 153.823 149.392 159.855 152.883 165.881C151.543 168.52 151.994 171.749 153.139 174.479C154.285 177.209 156.07 179.615 157.459 182.229C161.146 189.145 161.962 197.542 159.677 205.036C159.555 205.438 159.348 205.901 158.934 205.968C158.392 206.054 158.057 205.402 157.91 204.872C152.664 186.525 147.412 168.179 142.166 149.832L142.403 147.809V147.797Z" fill="white"/>
</g>
</g>
<path d="M208.387 270.367C206.717 268.521 205.218 266.943 204.054 265.87C201.288 263.329 191.844 257.127 191.844 257.127C191.844 257.127 185.336 259.57 173.942 254.683C162.548 249.803 148.716 242.68 145.87 234.338C143.025 225.996 139.363 222.743 137.937 217.856C137.407 216.034 137.176 213.956 136.396 211.866C135.098 208.363 133.379 204.823 134.275 202.398C135.701 198.528 144.043 198.528 147.705 204.024C151.367 209.521 156.655 221.926 159.099 220.909C161.542 219.891 158.282 210.581 158.081 199.674L155.839 188.566L149.124 168.02L147.705 163.95C147.705 163.95 142.208 154.389 143.226 148.077C143.226 148.077 144.341 141.972 149.331 145.024C153.846 147.784 154.212 149.094 161.542 162.323C168.866 175.545 169.884 184.697 172.321 184.088C174.758 183.478 174.685 181.23 173.412 177.751C172.138 174.271 169.859 167.642 175.154 165.796C180.461 163.95 184.513 164.748 186.043 169.744C187.572 174.735 188.961 178.683 189.894 178.683C189.894 178.683 186.993 173.589 186.993 169.976C186.993 168.385 187.341 166.381 192.331 166.497C197.321 166.612 198.826 169.397 200.453 172.419C202.08 175.435 203.707 177.873 203.707 177.873C203.707 177.873 208.929 175.667 212.183 178.567C215.43 181.468 221.085 191.058 223.089 194.47C228.342 203.397 229.615 214.828 229.926 220.257C230.042 222.353 230.895 224.333 232.345 225.856C236.129 229.841 244.19 238.244 253.878 247.932" stroke="#263238" stroke-width="0.609318" stroke-miterlimit="10"/>
<path d="M136.913 209.417C137.132 208.802 137.614 207.997 138.625 207.016C141.075 204.64 142.013 204.061 140.502 201.033" stroke="#263238" stroke-width="0.609318" stroke-linecap="round" stroke-linejoin="round"/>
<path d="M142.471 211.221C142.818 210.873 143.19 210.526 143.604 210.191" stroke="#263238" stroke-width="0.609318" stroke-linecap="round" stroke-linejoin="round"/>
<path d="M138.991 216.638C139.387 215.529 140.179 213.822 141.684 212.074" stroke="#263238" stroke-width="0.609318" stroke-linecap="round" stroke-linejoin="round"/>
<path d="M144.347 149.308C144.347 149.308 144.853 150.734 146.382 150.222C147.906 149.716 152.183 149.101 151.062 147.474" stroke="#263238" stroke-width="0.609318" stroke-linecap="round" stroke-linejoin="round"/>
<path d="M155.784 164.62C156.996 163.956 158.538 163.316 160.213 163.14" stroke="#263238" stroke-width="0.609318" stroke-linecap="round" stroke-linejoin="round"/>
<path d="M153.2 166.393C153.2 166.393 153.566 166.064 154.193 165.613" stroke="#263238" stroke-width="0.609318" stroke-linecap="round" stroke-linejoin="round"/>
<path d="M195.481 182.278C198.168 181.601 200.197 180.572 204.974 182.205" stroke="#263238" stroke-width="0.609318" stroke-linecap="round" stroke-linejoin="round"/>
<path d="M165.636 190.308C166.879 189.053 168.835 188.005 171.803 188.383C178.353 189.218 179.937 184.045 183.922 182.564C187.907 181.083 189.412 183.082 193.378 182.668" stroke="#263238" stroke-width="0.609318" stroke-linecap="round" stroke-linejoin="round"/>
<path d="M163.656 193.635C163.656 193.635 163.863 192.837 164.442 191.862" stroke="#263238" stroke-width="0.609318" stroke-linecap="round" stroke-linejoin="round"/>
<path d="M201.599 174.466C202.409 176.038 204.98 179.585 204.98 179.585" stroke="#263238" stroke-width="0.609318" stroke-linecap="round" stroke-linejoin="round"/>
<path d="M220.378 178.11C219.909 177.562 219.464 177.099 219.056 176.733" stroke="#263238" stroke-width="0.609318" stroke-linecap="round" stroke-linejoin="round"/>
<path d="M233.935 201.837C232.966 198.699 231.674 195.531 229.968 192.63C228.384 189.937 224.521 183.387 221.365 179.323" stroke="#263238" stroke-width="0.609318" stroke-linecap="round" stroke-linejoin="round"/>
<path d="M236.646 216.247C236.384 213.164 235.842 209.033 234.733 204.676" stroke="#263238" stroke-width="0.609318" stroke-linecap="round" stroke-linejoin="round"/>
<path d="M236.805 218.417C236.786 218.124 236.768 217.814 236.744 217.491" stroke="#263238" stroke-width="0.609318" stroke-linecap="round" stroke-linejoin="round"/>
</svg>
