<svg width="315" height="286" viewBox="0 0 315 286" fill="none" xmlns="http://www.w3.org/2000/svg">
<path d="M78.057 272.509C94.5788 289.948 135.141 283.563 152.713 272.509C209.741 236.63 309.698 176.9 314.227 90.3705C316.152 53.5886 283.718 34.2806 270.171 28.617C237.632 15.0075 201.928 10.9261 166.693 9.35092C129.891 7.70575 90.4133 8.98689 57.2648 26.9438C44.7125 33.7485 32.8672 42.4644 24.7533 54.3727C16.5135 66.47 11.781 80.8705 10.5208 95.411C8.49062 118.864 14.8053 142.379 24.3473 163.899C33.8893 185.42 46.6097 205.344 58.2939 225.786C65.9107 239.122 64.1465 257.807 78.064 272.502L78.057 272.509Z" fill="#75A9C8"/>
<path opacity="0.7" d="M78.057 272.509C94.5788 289.948 135.141 283.563 152.713 272.509C209.741 236.63 309.698 176.9 314.227 90.3705C316.152 53.5886 283.718 34.2806 270.171 28.617C237.632 15.0075 201.928 10.9261 166.693 9.35092C129.891 7.70575 90.4133 8.98689 57.2648 26.9438C44.7125 33.7485 32.8672 42.4644 24.7533 54.3727C16.5135 66.47 11.781 80.8705 10.5208 95.411C8.49062 118.864 14.8053 142.379 24.3473 163.899C33.8893 185.42 46.6097 205.344 58.2939 225.786C65.9107 239.122 64.1465 257.807 78.064 272.502L78.057 272.509Z" fill="white"/>
<path d="M84.1888 71.3431L50.7232 61.201C49.4244 60.8074 48.0525 61.5411 47.6589 62.8399L41.6873 82.5441C41.2937 83.8429 42.0275 85.2148 43.3263 85.6084L76.7919 95.7506C78.0907 96.1442 79.4626 95.4104 79.8562 94.1116L85.8278 74.4074C86.2214 73.1086 85.4876 71.7367 84.1888 71.3431Z" stroke="#263238" stroke-width="0.700074" stroke-miterlimit="10"/>
<path d="M46.6514 66.1763L84.8194 77.7415" stroke="#263238" stroke-width="0.700074" stroke-miterlimit="10"/>
<path d="M45.4897 70.0059L83.6578 81.5711" stroke="#263238" stroke-width="0.700074" stroke-miterlimit="10"/>
<path d="M72.0431 88.7329C71.8401 89.4119 71.9381 90.105 72.2601 90.6791C71.7141 90.9521 71.056 91.0221 70.4189 90.8331C69.1028 90.434 68.3607 89.0549 68.7598 87.7388C69.1588 86.4226 70.5449 85.6805 71.8611 86.0796C72.4982 86.2756 73.0022 86.7026 73.3032 87.2347C72.7152 87.5287 72.2461 88.0538 72.0431 88.7329Z" stroke="#263238" stroke-width="0.700074" stroke-miterlimit="10"/>
<path d="M76.7972 90.1752C76.3982 91.4843 75.0121 92.2264 73.7029 91.8344C72.3938 91.4353 71.6517 90.0492 72.0437 88.74C72.4428 87.4309 73.8289 86.6888 75.1381 87.0809C76.4472 87.4799 77.1893 88.866 76.7972 90.1752Z" stroke="#263238" stroke-width="0.700074" stroke-miterlimit="10"/>
<path d="M312.649 119.327L284.892 110.915C283.593 110.522 282.221 111.256 281.827 112.554L276.962 128.607C276.569 129.906 277.303 131.278 278.601 131.671L306.359 140.084C307.657 140.477 309.029 139.743 309.423 138.445L314.288 122.392C314.682 121.093 313.948 119.721 312.649 119.327Z" stroke="#263238" stroke-width="0.700074" stroke-miterlimit="10"/>
<path d="M281.079 115.027L313.541 124.863" stroke="#263238" stroke-width="0.700074" stroke-miterlimit="10"/>
<path d="M280.092 118.29L312.547 128.126" stroke="#263238" stroke-width="0.700074" stroke-miterlimit="10"/>
<path d="M302.676 134.216C302.501 134.79 302.585 135.386 302.858 135.869C302.396 136.1 301.836 136.163 301.297 136.002C300.177 135.666 299.547 134.489 299.883 133.369C300.219 132.249 301.402 131.619 302.515 131.962C303.054 132.123 303.488 132.494 303.74 132.942C303.243 133.194 302.844 133.642 302.669 134.216H302.676Z" stroke="#263238" stroke-width="0.700074" stroke-miterlimit="10"/>
<path d="M306.715 135.441C306.379 136.555 305.196 137.185 304.083 136.849C302.97 136.513 302.34 135.329 302.676 134.216C303.012 133.103 304.195 132.473 305.308 132.809C306.421 133.145 307.051 134.328 306.715 135.441Z" stroke="#263238" stroke-width="0.700074" stroke-miterlimit="10"/>
<path d="M268.229 42.6411L227.708 61.1934L237.36 82.2753L277.881 63.7231L268.229 42.6411Z" stroke="#263238" stroke-width="0.700074" stroke-miterlimit="10"/>
<path d="M274.393 60.6597L268.26 47.2673C267.07 47.8133 265.656 47.2883 265.11 46.0981L232.354 61.0937C232.9 62.2839 232.375 63.698 231.185 64.2441L237.317 77.6365C238.507 77.0904 239.922 77.6155 240.468 78.8056L273.224 63.81C272.678 62.6199 273.203 61.2057 274.393 60.6597Z" stroke="#263238" stroke-width="0.700074" stroke-miterlimit="10"/>
<path d="M256.5 67.2888C259.167 65.2396 259.669 61.416 257.619 58.7484C255.57 56.0808 251.747 55.5795 249.079 57.6286C246.412 59.6777 245.91 63.5014 247.959 66.169C250.008 68.8365 253.832 69.3379 256.5 67.2888Z" stroke="#263238" stroke-width="0.700074" stroke-miterlimit="10"/>
<path d="M254.44 65.4059L254.895 66.4L254.461 66.596L254.006 65.6089C253.138 65.952 252.2 66.008 251.577 65.7699L251.605 65.1609C252.179 65.3709 253.005 65.3429 253.754 65.0559L252.711 62.7806C251.654 62.9836 250.548 63.1307 250.023 61.9895C249.645 61.1564 249.911 60.1693 251.185 59.4553L250.73 58.4612L251.164 58.2651L251.619 59.2522C252.277 58.9792 253.019 58.8742 253.621 58.9862L253.635 59.5953C253.005 59.5043 252.382 59.5953 251.864 59.7983L252.914 62.0945C253.999 61.8775 255.154 61.6885 255.687 62.8436C256.072 63.6837 255.771 64.6988 254.433 65.4059H254.44ZM252.438 62.1786L251.444 60.0153C250.59 60.4984 250.401 61.1424 250.653 61.6885C250.954 62.3466 251.647 62.3256 252.438 62.1786ZM255.077 63.1657C254.762 62.4796 254.027 62.5356 253.201 62.6966L254.195 64.8598C255.112 64.3558 255.337 63.7187 255.084 63.1657H255.077Z" fill="#263238"/>
<path d="M43.7267 138.288L12.6821 140.971L14.0777 157.118L45.1223 154.434L43.7267 138.288Z" stroke="#263238" stroke-width="0.700074" stroke-miterlimit="10"/>
<path d="M43.5504 151.599L42.6613 141.343C41.7442 141.42 40.9391 140.748 40.8621 139.831L15.7714 142.001C15.8484 142.918 15.1764 143.723 14.2593 143.8L15.1484 154.057C16.0655 153.98 16.8706 154.652 16.9476 155.569L42.0382 153.398C41.9612 152.481 42.6333 151.676 43.5504 151.599Z" stroke="#263238" stroke-width="0.700074" stroke-miterlimit="10"/>
<path d="M33.1545 147.335C33.3575 149.681 31.6214 151.746 29.2761 151.949C26.9309 152.152 24.8656 150.416 24.6626 148.071C24.4596 145.725 26.1958 143.66 28.541 143.457C30.8863 143.254 32.9515 144.99 33.1545 147.335Z" stroke="#263238" stroke-width="0.700074" stroke-miterlimit="10"/>
<path d="M29.3039 150.038L29.3669 150.801L29.0379 150.829L28.9749 150.073C28.3238 150.094 27.6938 149.912 27.3367 149.604L27.4978 149.212C27.8268 149.485 28.3798 149.667 28.9399 149.646L28.7859 147.903C28.0438 147.784 27.2807 147.623 27.2037 146.748C27.1477 146.111 27.5608 145.523 28.5689 145.355L28.5059 144.591L28.8349 144.563L28.8979 145.32C29.395 145.299 29.906 145.397 30.277 145.614L30.144 146.02C29.752 145.817 29.3179 145.726 28.9329 145.74L29.0869 147.497C29.85 147.609 30.6621 147.756 30.7321 148.645C30.7881 149.289 30.3541 149.884 29.3039 150.038ZM28.7439 147.441L28.6039 145.782C27.9248 145.901 27.6518 146.279 27.6868 146.699C27.7288 147.203 28.1908 147.35 28.7439 147.441ZM30.249 148.715C30.207 148.19 29.703 148.057 29.1219 147.966L29.2619 149.625C29.983 149.506 30.284 149.142 30.242 148.715H30.249Z" fill="#263238"/>
<path d="M296.683 52.0836C300.047 52.0836 302.774 49.3568 302.774 45.993C302.774 42.6292 300.047 39.9023 296.683 39.9023C293.319 39.9023 290.592 42.6292 290.592 45.993C290.592 49.3568 293.319 52.0836 296.683 52.0836Z" stroke="#263238" stroke-width="0.700074" stroke-miterlimit="10"/>
<path d="M296.956 49.3744V50.4665H296.48V49.3814C295.549 49.3324 294.674 48.9893 294.205 48.5133L294.478 47.9742C294.912 48.4013 295.675 48.7233 296.48 48.7723V46.266C295.43 46.007 294.366 45.685 294.366 44.4318C294.366 43.5147 295.024 42.7307 296.48 42.6116V41.5195H296.956V42.6046C297.67 42.6326 298.385 42.8427 298.889 43.1927L298.651 43.7528C298.118 43.4097 297.509 43.2277 296.956 43.1997V45.72C298.035 45.979 299.162 46.28 299.162 47.5542C299.162 48.4783 298.469 49.2764 296.956 49.3604V49.3744ZM296.48 45.608V43.2277C295.5 43.3117 295.059 43.8158 295.059 44.4178C295.059 45.1389 295.696 45.4049 296.48 45.608ZM298.469 47.6102C298.469 46.8611 297.775 46.6021 296.956 46.399V48.7793C298.006 48.7023 298.469 48.2192 298.469 47.6102Z" fill="#263238"/>
<path d="M256.57 127.473C259.845 126.701 261.873 123.422 261.102 120.147C260.33 116.873 257.05 114.845 253.776 115.616C250.502 116.388 248.474 119.667 249.245 122.941C250.017 126.216 253.296 128.244 256.57 127.473Z" stroke="#263238" stroke-width="0.700074" stroke-miterlimit="10"/>
<path d="M253.642 124.562L253.068 125.493L252.662 125.241L253.229 124.317C252.459 123.785 251.892 123.036 251.745 122.385L252.263 122.07C252.41 122.665 252.893 123.337 253.544 123.799L254.853 121.664C254.097 120.894 253.355 120.06 254.013 118.989C254.489 118.212 255.463 117.883 256.765 118.548L257.339 117.617L257.745 117.869L257.178 118.793C257.773 119.192 258.27 119.745 258.515 120.305L258.018 120.663C257.745 120.088 257.318 119.619 256.863 119.304L255.54 121.454C256.324 122.238 257.129 123.092 256.457 124.177C255.974 124.961 254.965 125.283 253.628 124.562H253.642ZM255.21 121.104L256.457 119.073C255.575 118.632 254.937 118.835 254.622 119.346C254.244 119.962 254.65 120.522 255.21 121.104ZM255.862 123.848C256.254 123.211 255.799 122.623 255.203 122.028L253.957 124.058C254.888 124.541 255.54 124.373 255.862 123.855V123.848Z" fill="#263238"/>
<path d="M167.765 3.97442C169.165 7.03375 167.814 10.6531 164.755 12.0463C161.695 13.4464 158.076 12.0953 156.683 9.03596C155.283 5.97664 156.634 2.35725 159.693 0.964105C162.753 -0.436044 166.372 0.9151 167.765 3.97442Z" stroke="#263238" stroke-width="0.700074" stroke-miterlimit="10"/>
<path d="M163.879 9.46302L164.334 10.4571L163.9 10.6531L163.452 9.66604C162.584 10.0091 161.646 10.0651 161.023 9.82706L161.051 9.218C161.625 9.42802 162.451 9.40702 163.2 9.11299L162.157 6.83774C161.1 7.04077 159.994 7.18778 159.469 6.04666C159.091 5.21357 159.357 4.22647 160.638 3.51239L160.183 2.51829L160.617 2.32227L161.065 3.30937C161.723 3.03634 162.465 2.93133 163.067 3.04334L163.081 3.65241C162.451 3.5614 161.828 3.65241 161.31 3.85543L162.36 6.15167C163.445 5.94165 164.6 5.74563 165.132 6.90775C165.517 7.74784 165.216 8.76295 163.872 9.47002L163.879 9.46302ZM161.877 6.23568L160.89 4.07245C160.036 4.5555 159.847 5.19957 160.092 5.74563C160.393 6.4037 161.086 6.3827 161.877 6.23568ZM164.516 7.22979C164.201 6.54371 163.466 6.59972 162.64 6.76074L163.627 8.92397C164.544 8.41991 164.768 7.78284 164.516 7.22979Z" fill="#263238"/>
<path d="M147.253 250.638C149.353 255.238 147.33 260.664 142.73 262.764C138.131 264.864 132.705 262.841 130.605 258.241C128.505 253.642 130.528 248.216 135.127 246.116C139.727 244.016 145.152 246.039 147.253 250.638Z" stroke="#263238" stroke-width="0.700074" stroke-miterlimit="10"/>
<path d="M141.407 258.885L142.093 260.383L141.442 260.677L140.763 259.193C139.461 259.711 138.047 259.788 137.116 259.431L137.158 258.521C138.026 258.836 139.265 258.801 140.385 258.367L138.824 254.951C137.235 255.252 135.575 255.476 134.791 253.761C134.224 252.514 134.623 251.023 136.542 249.959L135.855 248.461L136.507 248.167L137.186 249.651C138.18 249.245 139.286 249.084 140.196 249.252L140.224 250.169C139.279 250.036 138.334 250.169 137.564 250.47L139.139 253.915C140.77 253.593 142.506 253.306 143.304 255.049C143.878 256.309 143.43 257.835 141.414 258.899L141.407 258.885ZM138.404 254.034L136.92 250.785C135.631 251.513 135.351 252.479 135.722 253.299C136.171 254.286 137.214 254.251 138.404 254.041V254.034ZM142.366 255.525C141.897 254.496 140.791 254.58 139.545 254.818L141.029 258.066C142.408 257.31 142.744 256.358 142.366 255.525Z" fill="#263238"/>
<path d="M16.1844 108.454C12.39 111.786 6.60739 111.415 3.27504 107.62C-0.057312 103.826 0.313727 98.0434 4.10813 94.7111C7.90253 91.3787 13.6851 91.7498 17.0175 95.5442C20.3499 99.3386 19.9788 105.121 16.1844 108.454Z" stroke="#263238" stroke-width="0.700074" stroke-miterlimit="10"/>
<path d="M6.60079 105.234L5.36866 106.319L4.89961 105.78L6.12474 104.702C5.25665 103.603 4.7736 102.273 4.8436 101.278L5.7327 101.054C5.68369 101.971 6.07573 103.155 6.81081 104.1L9.63211 101.621C8.88303 100.186 8.18996 98.6601 9.61111 97.414C10.6402 96.5109 12.1874 96.4689 13.7555 97.9951L14.9877 96.91L15.4567 97.449L14.2316 98.5271C14.9037 99.3602 15.3797 100.375 15.4777 101.292L14.6096 101.579C14.4696 100.641 14.0706 99.7733 13.5525 99.1222L10.7102 101.621C11.4873 103.092 12.2644 104.667 10.8292 105.934C9.78613 106.851 8.19696 106.858 6.60079 105.234ZM10.3812 100.963L13.0625 98.6041C11.9914 97.582 10.9903 97.589 10.3112 98.1841C9.4921 98.8982 9.82813 99.8853 10.3742 100.963H10.3812ZM10.0942 105.185C10.9413 104.443 10.5422 103.4 9.96115 102.28L7.27986 104.639C8.39998 105.745 9.41509 105.787 10.1012 105.185H10.0942Z" fill="#263238"/>
<path d="M56.6138 182.591C58.1749 184.467 57.9229 187.254 56.0467 188.815C54.1705 190.376 51.3842 190.124 49.8231 188.248C48.2619 186.372 48.5139 183.585 50.3901 182.024C52.2663 180.463 55.0526 180.715 56.6138 182.591Z" stroke="#263238" stroke-width="0.700074" stroke-miterlimit="10"/>
<path d="M54.9401 187.177L55.4511 187.786L55.1851 188.01L54.6811 187.408C54.142 187.814 53.4909 188.031 53.0149 187.982L52.9169 187.555C53.3579 187.59 53.932 187.415 54.401 187.072L53.2389 185.678C52.5388 186.021 51.7897 186.336 51.2087 185.636C50.7816 185.125 50.7816 184.383 51.5447 183.641L51.0337 183.032L51.2997 182.808L51.8037 183.41C52.2168 183.095 52.7068 182.878 53.1549 182.843L53.2809 183.263C52.8259 183.319 52.3988 183.501 52.0838 183.739L53.2529 185.146C53.974 184.789 54.7441 184.432 55.3391 185.146C55.7662 185.657 55.7522 186.427 54.9471 187.177H54.9401ZM52.9239 185.3L51.8177 183.977C51.3137 184.481 51.2997 184.964 51.5797 185.3C51.9158 185.706 52.3918 185.552 52.9239 185.3ZM54.9611 185.489C54.611 185.069 54.107 185.251 53.5539 185.517L54.6601 186.841C55.2061 186.315 55.2411 185.825 54.9611 185.489Z" fill="#263238"/>
<path d="M193.955 273.629C195.516 275.506 195.264 278.292 193.388 279.853C191.511 281.414 188.725 281.162 187.164 279.286C185.603 277.41 185.855 274.623 187.731 273.062C189.607 271.501 192.393 271.753 193.955 273.629Z" stroke="#263238" stroke-width="0.700074" stroke-miterlimit="10"/>
<path d="M192.275 278.215L192.786 278.824L192.52 279.048L192.016 278.446C191.476 278.852 190.825 279.069 190.349 279.02L190.251 278.593C190.692 278.628 191.266 278.453 191.735 278.11L190.573 276.717C189.873 277.06 189.124 277.375 188.543 276.674C188.116 276.163 188.116 275.421 188.879 274.679L188.368 274.07L188.634 273.846L189.138 274.448C189.551 274.133 190.041 273.916 190.489 273.881L190.615 274.301C190.16 274.357 189.733 274.539 189.418 274.777L190.587 276.184C191.308 275.827 192.079 275.47 192.674 276.184C193.101 276.696 193.087 277.466 192.282 278.215H192.275ZM190.258 276.338L189.152 275.015C188.648 275.519 188.634 276.002 188.914 276.338C189.25 276.745 189.726 276.591 190.258 276.338ZM192.296 276.527C191.946 276.107 191.441 276.289 190.888 276.555L191.995 277.879C192.541 277.354 192.576 276.864 192.296 276.527Z" fill="#263238"/>
<path d="M72.0503 18.7319C73.6115 20.6081 73.3594 23.3944 71.4832 24.9556C69.607 26.5167 66.8207 26.2647 65.2596 24.3885C63.6984 22.5123 63.9504 19.726 65.8266 18.1649C67.7028 16.6037 70.4891 16.8557 72.0503 18.7319Z" stroke="#263238" stroke-width="0.700074" stroke-miterlimit="10"/>
<path d="M70.3771 23.3177L70.8881 23.9267L70.6221 24.1508L70.1181 23.5487C69.579 23.9547 68.9279 24.1718 68.4519 24.1228L68.3539 23.6957C68.7949 23.7307 69.369 23.5557 69.838 23.2127L68.6759 21.8195C67.9758 22.1626 67.2268 22.4776 66.6457 21.7775C66.2186 21.2665 66.2187 20.5244 66.9817 19.7823L66.4707 19.1732L66.7367 18.9492L67.2408 19.5513C67.6538 19.2362 68.1439 19.0192 68.5919 18.9842L68.7179 19.4043C68.2629 19.4603 67.8358 19.6423 67.5208 19.8803L68.6899 21.2875C69.411 20.9304 70.1811 20.5734 70.7761 21.2875C71.2032 21.7985 71.1892 22.5686 70.3841 23.3177H70.3771ZM68.3609 21.4415L67.2548 20.1183C66.7507 20.6224 66.7367 21.1054 67.0167 21.4415C67.3528 21.8475 67.8288 21.6935 68.3609 21.4415ZM70.3981 21.6305C70.0481 21.2105 69.544 21.3925 68.9909 21.6585L70.0971 22.9816C70.6431 22.4566 70.6781 21.9665 70.3981 21.6305Z" fill="#263238"/>
<path opacity="0.2" d="M168.206 202.669C168.206 202.669 162.808 230.07 129.702 236.245C129.702 236.245 121.056 243.14 118.178 247.222C115.301 251.303 99.9485 258.241 84.3649 279.887C68.7742 301.527 45.5107 232.793 45.5107 232.793L96.8822 166.069L168.206 202.662V202.669Z" fill="black"/>
<path d="M197.63 74.0447C197.63 74.0447 215.482 65.3218 219.41 66.8269C223.337 68.3321 227.089 77.363 212.087 86.0089C197.091 94.6549 201.551 110.764 201.551 110.764H212.262C212.262 110.764 218.689 113.382 221.188 116.742C223.687 120.103 225.472 131.591 226.9 135.49C228.329 139.39 227.614 143.275 223.687 144.549C223.687 144.549 221.188 155.442 221.902 160.273C222.616 165.103 222.259 168.212 217.617 168.8C212.976 169.388 208.334 165.446 208.691 160.273L205.121 173.21L207.62 178.181C207.62 178.181 212.262 179.735 217.26 184.019C222.259 188.304 227.257 189.473 225.829 194.247C224.401 199.022 221.545 204.167 206.549 198.203C191.554 192.238 179.057 168.8 179.057 168.8L170.047 87.0731L197.623 74.0517L197.63 74.0447Z" fill="white"/>
<path opacity="0.4" d="M216.42 120.992C208.327 132.025 217.281 144.731 217.281 144.731C217.281 144.731 211.68 147.854 211.519 155.821C211.456 159.132 212.29 163.759 213.284 168.044C210.504 166.693 208.453 163.759 208.705 160.259L205.128 173.196L207.627 178.167C207.627 178.167 210.945 179.28 214.992 182.213C212.773 187.31 212.093 193.611 212.297 200.107C210.616 199.673 208.712 199.05 206.563 198.189C191.567 192.217 179.071 168.786 179.071 168.786L170.061 87.0593L197.637 74.0379C197.637 74.0379 207.389 69.2704 214.068 67.3872C213.55 73.6389 214.782 80.0936 215.65 83.6989C214.607 84.469 213.424 85.2391 212.1 86.0022C197.105 94.6411 201.564 110.757 201.564 110.757H212.283C212.283 110.757 218.394 113.242 221.005 116.49C219.528 117.436 217.981 118.871 216.427 120.992H216.42Z" fill="#75A9C8"/>
<path d="M169.704 189.48C169.704 189.48 150.284 227.557 115.273 236.196C115.273 236.196 113.936 243.728 108.014 246.963C104.849 248.685 92.087 267.825 80.8718 285.285L18.8242 247.222C22.6466 243.441 27.0011 239.087 31.4536 234.544C44.4049 221.34 58.2174 206.506 62.4528 199.218C66.2332 192.707 71.0148 181.408 75.1802 170.788C80.5148 157.206 84.8552 144.731 84.8552 144.731L105.549 121.727L138.089 85.5537L139.496 90.1812L169.704 189.48Z" fill="white"/>
<path opacity="0.4" d="M138.089 85.5539L169.704 189.48C169.704 189.48 150.284 227.557 115.273 236.196C115.273 236.196 113.936 243.729 108.013 246.963C105.178 248.51 94.6 264.087 84.3579 279.887C88.1523 266.866 99.1435 246.109 99.1435 246.109C92.0937 237.757 94.1449 228.957 96.9662 231.463C99.6965 233.9 106.879 241.005 107.334 241.453C104.219 237.785 103.498 232.037 103.498 232.037C103.498 232.037 112.235 237.848 112.942 228.509C113.649 219.17 107.705 196.446 107.705 196.446L92.1357 136.638L138.096 85.5469L138.089 85.5539Z" fill="#75A9C8"/>
<path d="M170.054 87.0661L197.63 74.0447C197.63 74.0447 215.482 65.3218 219.409 66.8269C223.337 68.3321 227.089 77.363 212.087 86.0089C197.091 94.6549 201.551 110.764 201.551 110.764H212.262C212.262 110.764 218.688 113.382 221.188 116.742C223.687 120.103 225.472 131.591 226.9 135.49C228.328 139.39 227.614 143.275 223.687 144.549C223.687 144.549 221.188 155.442 221.902 160.273C222.616 165.103 222.259 168.212 217.617 168.8C212.976 169.388 208.334 165.446 208.691 160.273L205.121 173.21L207.62 178.181C207.62 178.181 212.262 179.735 217.26 184.019C222.259 188.304 227.257 189.473 225.829 194.247C224.401 199.022 221.545 204.167 206.549 198.203C191.553 192.238 179.057 168.8 179.057 168.8" stroke="#263238" stroke-width="0.700074" stroke-linecap="round" stroke-linejoin="round"/>
<path d="M223.694 144.543C218.338 145.992 212.086 144.921 209.769 135.456C207.445 125.991 212.093 115.888 215.125 114.922" stroke="#263238" stroke-width="0.700074" stroke-linecap="round" stroke-linejoin="round"/>
<path d="M208.698 160.266C208.698 160.266 208.341 148.078 212.808 145.074" stroke="#263238" stroke-width="0.700074" stroke-linecap="round" stroke-linejoin="round"/>
<path opacity="0.4" d="M78.4634 220.801C78.4634 220.801 65.379 219.17 62.4597 213.318C60.0445 208.473 46.9531 226.591 31.4604 234.544C44.4118 221.34 58.2243 206.506 62.4597 199.218C66.2401 192.707 71.0216 181.408 75.1871 170.788V170.802C74.9771 179.609 70.2796 193.092 71.6237 200.114C71.6237 200.114 66.5832 201.36 67.5983 206.933C68.6064 212.499 78.4704 220.801 78.4704 220.801H78.4634Z" fill="#75A9C8"/>
<path d="M169.704 189.48C169.704 189.48 150.284 227.564 115.273 236.196C115.273 236.196 113.936 243.729 108.013 246.963C104.849 248.685 92.0868 267.818 80.8716 285.285" stroke="#263238" stroke-width="0.700074" stroke-linecap="round" stroke-linejoin="round"/>
<path d="M18.8315 247.222C33.7851 232.443 56.7686 209.012 62.4602 199.218C71.0711 184.39 84.8626 144.724 84.8626 144.724L138.096 85.5537" stroke="#263238" stroke-width="0.700074" stroke-linecap="round" stroke-linejoin="round"/>
<path d="M107.706 130.744C107.706 130.744 115.882 138.066 118.179 144.731" stroke="#263238" stroke-width="0.700074" stroke-linecap="round" stroke-linejoin="round"/>
<path d="M204.224 24.0874H116.246C113.644 24.0874 111.535 26.1968 111.535 28.7989V216.09C111.535 218.692 113.644 220.801 116.246 220.801H204.224C206.827 220.801 208.936 218.692 208.936 216.09V28.7989C208.936 26.1968 206.827 24.0874 204.224 24.0874Z" fill="#263238"/>
<path d="M179.547 29.4431L177.685 32.8594C177.279 33.6085 176.495 34.0706 175.641 34.0706H144.823C143.969 34.0706 143.185 33.6015 142.779 32.8594L140.917 29.4431C140.511 28.694 139.727 28.2319 138.873 28.2319H117.359C116.071 28.2319 115.035 29.275 115.035 30.5562V214.718C115.035 216.006 116.078 217.042 117.359 217.042H203.09C204.379 217.042 205.415 215.999 205.415 214.718V30.5562C205.415 29.268 204.372 28.2319 203.09 28.2319H181.577C180.723 28.2319 179.939 28.701 179.533 29.4431H179.547Z" fill="#75A9C8" stroke="#263238" stroke-width="0.700074" stroke-linecap="round" stroke-linejoin="round"/>
<path d="M153.553 31.0951C154.246 31.0951 154.807 30.5341 154.807 29.842C154.807 29.1499 154.246 28.5889 153.553 28.5889C152.861 28.5889 152.3 29.1499 152.3 29.842C152.3 30.5341 152.861 31.0951 153.553 31.0951Z" stroke="white" stroke-width="0.700074" stroke-miterlimit="10"/>
<path d="M168.164 29.842C168.164 30.2691 167.813 30.6191 167.386 30.6191C166.959 30.6191 166.609 30.2691 166.609 29.842C166.609 29.415 166.959 29.0649 167.386 29.0649C167.813 29.0649 168.164 29.415 168.164 29.842Z" stroke="white" stroke-width="0.700074" stroke-miterlimit="10"/>
<path d="M164.678 29.3516H157.068C156.802 29.3516 156.578 29.5686 156.578 29.8416C156.578 30.1146 156.795 30.3317 157.068 30.3317H164.678C164.951 30.3317 165.168 30.1146 165.168 29.8416C165.168 29.5756 164.951 29.3516 164.678 29.3516Z" fill="white"/>
<path d="M130.983 32.9087H122.771V36.3951H130.983V32.9087Z" stroke="#263238" stroke-width="0.700074" stroke-linecap="round" stroke-linejoin="round"/>
<path d="M132.25 33.4966H130.976V35.8138H132.25V33.4966Z" stroke="#263238" stroke-width="0.700074" stroke-linecap="round" stroke-linejoin="round"/>
<path d="M189.173 35.1348H187.717V36.4019H189.173V35.1348Z" stroke="#263238" stroke-width="0.700074" stroke-linecap="round" stroke-linejoin="round"/>
<path d="M192.015 33.8604H190.559V36.4016H192.015V33.8604Z" stroke="#263238" stroke-width="0.700074" stroke-linecap="round" stroke-linejoin="round"/>
<path d="M194.858 32.5864H193.402V36.3948H194.858V32.5864Z" stroke="#263238" stroke-width="0.700074" stroke-linecap="round" stroke-linejoin="round"/>
<path d="M197.693 31.3193H196.237V36.4019H197.693V31.3193Z" stroke="#263238" stroke-width="0.700074" stroke-linecap="round" stroke-linejoin="round"/>
<path opacity="0.5" d="M204.841 68.9272H115.624V154.021H204.841V68.9272Z" fill="white"/>
<path d="M140.267 55.3319V56.816C140.267 58.6362 139.384 59.6303 137.599 59.6303H136.752V63.9148H134.96V52.5176H137.599C139.391 52.5176 140.267 53.5117 140.267 55.3319ZM136.752 54.1418V57.9992H137.599C138.166 57.9992 138.481 57.7401 138.481 56.928V55.2199C138.481 54.4078 138.173 54.1488 137.599 54.1488H136.752V54.1418Z" fill="#263238"/>
<path d="M146.686 63.9075H144.879L144.571 61.8422H142.373L142.065 63.9075H140.42L142.24 52.5103H144.858L146.679 63.9075H146.686ZM142.597 60.2951H144.319L143.472 54.5335H143.437L142.59 60.2951H142.597Z" fill="#263238"/>
<path d="M148.394 60.1344L146.132 52.5176H148.002L149.353 57.7121H149.388L150.739 52.5176H152.447L150.186 60.1344V63.9148H148.394V60.1344Z" fill="#263238"/>
<path d="M156.941 60.6031H156.976L158.181 52.5103H160.673V63.9075H158.979V55.7376H158.944L157.739 63.9075H156.045L154.743 55.8496H154.708V63.9075H153.147V52.5103H155.639L156.941 60.6031Z" fill="#263238"/>
<path d="M163.767 57.3199H166.225V58.9511H163.767V62.2904H166.862V63.9216H161.975V52.5244H166.862V54.1556H163.767V57.3269V57.3199Z" fill="#263238"/>
<path d="M169.599 55.6536H169.564V63.9075H167.954V52.5103H170.201L172.008 59.329H172.043V52.5103H173.639V63.9075H171.798L169.599 55.6536Z" fill="#263238"/>
<path d="M174.402 52.5103H179.939V54.1414H178.07V63.9075H176.278V54.1414H174.409V52.5103H174.402Z" fill="#263238"/>
<path d="M183.131 52.3843C184.875 52.3843 185.771 53.4274 185.771 55.2476V55.6046H184.077V55.1356C184.077 54.3235 183.755 54.0155 183.18 54.0155C182.606 54.0155 182.284 54.3235 182.284 55.1356C182.284 55.9477 182.641 56.5847 183.818 57.6068C185.316 58.923 185.785 59.8681 185.785 61.1702C185.785 62.9904 184.875 64.0335 183.117 64.0335C181.36 64.0335 180.45 62.9904 180.45 61.1702V60.4701H182.144V61.2822C182.144 62.0943 182.501 62.3883 183.075 62.3883C183.65 62.3883 184.007 62.0943 184.007 61.2822C184.007 60.4701 183.65 59.8331 182.473 58.811C180.975 57.4948 180.506 56.5497 180.506 55.2476C180.506 53.4274 181.402 52.3843 183.145 52.3843H183.131Z" fill="#263238"/>
<path d="M197.693 79.2324H122.771V90.4266H197.693V79.2324Z" fill="white" stroke="#263238" stroke-width="0.700074" stroke-linecap="round" stroke-linejoin="round"/>
<path d="M197.693 100.228H122.771V111.422H197.693V100.228Z" fill="white" stroke="#263238" stroke-width="0.700074" stroke-linecap="round" stroke-linejoin="round"/>
<path d="M197.693 119.318H122.771V130.513H197.693V119.318Z" fill="white" stroke="#263238" stroke-width="0.700074" stroke-linecap="round" stroke-linejoin="round"/>
<path d="M158.244 134.594H122.771V147.7H158.244V134.594Z" fill="white" stroke="#263238" stroke-width="0.700074" stroke-linecap="round" stroke-linejoin="round"/>
<path d="M197.7 134.594H162.227V147.7H197.7V134.594Z" fill="white" stroke="#263238" stroke-width="0.700074" stroke-linecap="round" stroke-linejoin="round"/>
<path d="M127.44 77.2794V77.5804H125.095V74.269H127.363V74.5701H125.445V75.7462H127.16V76.0472H125.445V77.2794H127.44Z" fill="#263238"/>
<path d="M132.299 76.138V77.5802H131.963V76.173C131.963 75.648 131.697 75.3749 131.249 75.3749C130.738 75.3749 130.416 75.704 130.416 76.271V77.5802H130.08V76.173C130.08 75.648 129.814 75.3749 129.359 75.3749C128.855 75.3749 128.525 75.704 128.525 76.271V77.5802H128.189V75.0879H128.511V75.5429C128.686 75.2419 129.009 75.0669 129.422 75.0669C129.835 75.0669 130.157 75.2419 130.304 75.592C130.486 75.2699 130.836 75.0669 131.291 75.0669C131.9 75.0669 132.292 75.4169 132.292 76.131L132.299 76.138Z" fill="#263238"/>
<path d="M135.092 76.0398V77.58H134.77V77.195C134.616 77.447 134.322 77.608 133.916 77.608C133.356 77.608 133.006 77.314 133.006 76.8869C133.006 76.5019 133.251 76.1798 133.965 76.1798H134.756V76.0258C134.756 75.5988 134.518 75.3678 134.049 75.3678C133.727 75.3678 133.426 75.4798 133.223 75.6618L133.069 75.4098C133.321 75.1997 133.692 75.0737 134.084 75.0737C134.728 75.0737 135.092 75.3958 135.092 76.0398ZM134.756 76.8379V76.4319H133.972C133.489 76.4319 133.335 76.6209 133.335 76.8799C133.335 77.167 133.566 77.349 133.965 77.349C134.364 77.349 134.623 77.167 134.756 76.8449V76.8379Z" fill="#263238"/>
<path d="M135.925 74.3108C135.925 74.1848 136.037 74.0728 136.17 74.0728C136.303 74.0728 136.415 74.1778 136.415 74.3038C136.415 74.4438 136.31 74.5488 136.17 74.5488C136.03 74.5488 135.925 74.4368 135.925 74.3108ZM136.002 75.0949H136.338V77.5871H136.002V75.0949Z" fill="#263238"/>
<path d="M137.276 74.0728H137.612V77.5871H137.276V74.0728Z" fill="#263238"/>
<path d="M129.758 85.8765V86.1776H127.413V82.8662H129.681V83.1672H127.763V84.3434H129.478V84.6444H127.763V85.8765H129.758Z" fill="#263238"/>
<path d="M134.616 84.7352V86.1773H134.28V84.7702C134.28 84.2451 134.014 83.9721 133.566 83.9721C133.055 83.9721 132.733 84.3011 132.733 84.8682V86.1773H132.397V84.7702C132.397 84.2451 132.131 83.9721 131.675 83.9721C131.171 83.9721 130.842 84.3011 130.842 84.8682V86.1773H130.506V83.6851H130.828V84.1401C131.003 83.8391 131.325 83.6641 131.738 83.6641C132.152 83.6641 132.474 83.8391 132.621 84.1891C132.803 83.8671 133.153 83.6641 133.608 83.6641C134.217 83.6641 134.609 84.0141 134.609 84.7282L134.616 84.7352Z" fill="#263238"/>
<path d="M137.403 84.6375V86.1777H137.081V85.7926C136.927 86.0446 136.633 86.2057 136.227 86.2057C135.666 86.2057 135.316 85.9116 135.316 85.4846C135.316 85.0995 135.561 84.7775 136.276 84.7775H137.067V84.6235C137.067 84.1964 136.829 83.9654 136.36 83.9654C136.037 83.9654 135.736 84.0774 135.533 84.2594L135.379 84.0074C135.631 83.7974 136.002 83.6714 136.395 83.6714C137.039 83.6714 137.403 83.9934 137.403 84.6375ZM137.067 85.4356V85.0295H136.283C135.799 85.0295 135.645 85.2186 135.645 85.4776C135.645 85.7646 135.876 85.9466 136.276 85.9466C136.675 85.9466 136.934 85.7646 137.067 85.4426V85.4356Z" fill="#263238"/>
<path d="M138.243 82.9011C138.243 82.7751 138.355 82.6631 138.488 82.6631C138.621 82.6631 138.733 82.7681 138.733 82.8941C138.733 83.0341 138.628 83.1391 138.488 83.1391C138.348 83.1391 138.243 83.0271 138.243 82.9011ZM138.32 83.6852H138.656V86.1775H138.32V83.6852Z" fill="#263238"/>
<path d="M139.594 82.6704H139.93V86.1848H139.594V82.6704Z" fill="#263238"/>
<path d="M143.15 84.7355V86.1777H142.814V84.7705C142.814 84.2454 142.541 83.9724 142.065 83.9724C141.533 83.9724 141.197 84.3015 141.197 84.8685V86.1777H140.861V83.6854H141.183V84.1474C141.365 83.8464 141.701 83.6714 142.128 83.6714C142.737 83.6714 143.15 84.0214 143.15 84.7355Z" fill="#263238"/>
<path d="M145.943 84.6375V86.1777H145.621V85.7926C145.467 86.0446 145.173 86.2057 144.767 86.2057C144.207 86.2057 143.857 85.9116 143.857 85.4846C143.857 85.0995 144.102 84.7775 144.816 84.7775H145.607V84.6235C145.607 84.1964 145.369 83.9654 144.9 83.9654C144.578 83.9654 144.277 84.0774 144.074 84.2594L143.92 84.0074C144.172 83.7974 144.543 83.6714 144.935 83.6714C145.579 83.6714 145.943 83.9934 145.943 84.6375ZM145.607 85.4356V85.0295H144.823C144.34 85.0295 144.186 85.2186 144.186 85.4776C144.186 85.7646 144.417 85.9466 144.816 85.9466C145.215 85.9466 145.474 85.7646 145.607 85.4426V85.4356Z" fill="#263238"/>
<path d="M150.963 84.7352V86.1773H150.627V84.7702C150.627 84.2451 150.361 83.9721 149.913 83.9721C149.402 83.9721 149.08 84.3011 149.08 84.8682V86.1773H148.744V84.7702C148.744 84.2451 148.478 83.9721 148.023 83.9721C147.519 83.9721 147.19 84.3011 147.19 84.8682V86.1773H146.854V83.6851H147.176V84.1401C147.351 83.8391 147.673 83.6641 148.086 83.6641C148.499 83.6641 148.821 83.8391 148.968 84.1891C149.15 83.8671 149.5 83.6641 149.955 83.6641C150.564 83.6641 150.956 84.0141 150.956 84.7282L150.963 84.7352Z" fill="#263238"/>
<path d="M154.051 85.0365H151.971C152.006 85.5546 152.405 85.9046 152.951 85.9046C153.252 85.9046 153.525 85.7926 153.714 85.5756L153.903 85.7926C153.679 86.0586 153.336 86.1987 152.944 86.1987C152.167 86.1987 151.635 85.6666 151.635 84.9315C151.635 84.1964 152.153 83.6714 152.853 83.6714C153.553 83.6714 154.058 84.1894 154.058 84.9315C154.058 84.9595 154.058 84.9945 154.058 85.0365H154.051ZM151.971 84.7845H153.735C153.693 84.2945 153.336 83.9584 152.853 83.9584C152.37 83.9584 152.013 84.3015 151.971 84.7845Z" fill="#263238"/>
<path d="M158.923 84.9243C158.923 85.7294 158.622 86.2054 158.139 86.2054C157.831 86.2054 157.621 86.0164 157.607 85.6874C157.418 86.0164 157.075 86.2054 156.662 86.2054C155.99 86.2054 155.485 85.6944 155.485 84.9803C155.485 84.2662 155.99 83.7621 156.662 83.7621C157.068 83.7621 157.404 83.9442 157.6 84.2592V83.7832H157.908V85.5753C157.908 85.8414 158.041 85.9324 158.202 85.9324C158.496 85.9324 158.685 85.5683 158.685 84.9313C158.685 83.8182 157.887 83.0831 156.739 83.0831C155.59 83.0831 154.785 83.8602 154.785 84.9803C154.785 86.1004 155.569 86.8845 156.718 86.8845C157.005 86.8845 157.355 86.8215 157.628 86.6745L157.705 86.9055C157.418 87.0525 157.033 87.1225 156.718 87.1225C155.415 87.1225 154.526 86.2264 154.526 84.9733C154.526 83.7201 155.429 82.8311 156.739 82.8311C158.048 82.8311 158.93 83.6781 158.93 84.9173L158.923 84.9243ZM157.6 84.9733C157.6 84.3992 157.215 84.0282 156.704 84.0282C156.193 84.0282 155.801 84.3992 155.801 84.9733C155.801 85.5473 156.179 85.9254 156.704 85.9254C157.229 85.9254 157.6 85.5543 157.6 84.9733Z" fill="#263238"/>
<path d="M161.793 85.0365H159.714C159.749 85.5546 160.148 85.9046 160.694 85.9046C160.995 85.9046 161.268 85.7926 161.457 85.5756L161.646 85.7926C161.422 86.0586 161.079 86.1987 160.687 86.1987C159.91 86.1987 159.378 85.6666 159.378 84.9315C159.378 84.1964 159.896 83.6714 160.596 83.6714C161.296 83.6714 161.8 84.1894 161.8 84.9315C161.8 84.9595 161.8 84.9945 161.8 85.0365H161.793ZM159.714 84.7845H161.478C161.436 84.2945 161.079 83.9584 160.596 83.9584C160.113 83.9584 159.756 84.3015 159.714 84.7845Z" fill="#263238"/>
<path d="M166.596 84.7352V86.1773H166.26V84.7702C166.26 84.2451 165.994 83.9721 165.546 83.9721C165.035 83.9721 164.713 84.3011 164.713 84.8682V86.1773H164.377V84.7702C164.377 84.2451 164.111 83.9721 163.655 83.9721C163.151 83.9721 162.822 84.3011 162.822 84.8682V86.1773H162.486V83.6851H162.808V84.1401C162.983 83.8391 163.305 83.6641 163.718 83.6641C164.132 83.6641 164.454 83.8391 164.601 84.1891C164.783 83.8671 165.133 83.6641 165.588 83.6641C166.197 83.6641 166.589 84.0141 166.589 84.7282L166.596 84.7352Z" fill="#263238"/>
<path d="M169.382 84.6375V86.1777H169.06V85.7926C168.906 86.0446 168.619 86.2057 168.206 86.2057C167.646 86.2057 167.296 85.9116 167.296 85.4846C167.296 85.0995 167.541 84.7775 168.255 84.7775H169.046V84.6235C169.046 84.1964 168.801 83.9654 168.339 83.9654C168.017 83.9654 167.716 84.0774 167.513 84.2594L167.359 84.0074C167.611 83.7974 167.982 83.6714 168.374 83.6714C169.018 83.6714 169.382 83.9934 169.382 84.6375ZM169.046 85.4356V85.0295H168.262C167.779 85.0295 167.625 85.2186 167.625 85.4776C167.625 85.7646 167.856 85.9466 168.255 85.9466C168.654 85.9466 168.913 85.7646 169.046 85.4426V85.4356Z" fill="#263238"/>
<path d="M170.222 82.9011C170.222 82.7751 170.334 82.6631 170.467 82.6631C170.6 82.6631 170.712 82.7681 170.712 82.8941C170.712 83.0341 170.607 83.1391 170.467 83.1391C170.327 83.1391 170.222 83.0271 170.222 82.9011ZM170.299 83.6852H170.635V86.1775H170.299V83.6852Z" fill="#263238"/>
<path d="M171.566 82.6704H171.902V86.1848H171.566V82.6704Z" fill="#263238"/>
<path d="M172.624 85.9397C172.624 85.7927 172.736 85.6807 172.876 85.6807C173.016 85.6807 173.135 85.7927 173.135 85.9397C173.135 86.0867 173.016 86.1987 172.876 86.1987C172.736 86.1987 172.624 86.0867 172.624 85.9397Z" fill="#263238"/>
<path d="M173.519 84.9315C173.519 84.1894 174.058 83.6714 174.8 83.6714C175.22 83.6714 175.577 83.8394 175.773 84.1614L175.521 84.3295C175.353 84.0774 175.087 83.9584 174.8 83.9584C174.254 83.9584 173.855 84.3435 173.855 84.9315C173.855 85.5196 174.254 85.9046 174.8 85.9046C175.087 85.9046 175.353 85.7926 175.521 85.5406L175.773 85.7086C175.577 86.0306 175.22 86.1987 174.8 86.1987C174.058 86.1987 173.519 85.6736 173.519 84.9315Z" fill="#263238"/>
<path d="M176.145 84.9315C176.145 84.1964 176.684 83.6714 177.412 83.6714C178.14 83.6714 178.679 84.1964 178.679 84.9315C178.679 85.6666 178.147 86.1987 177.412 86.1987C176.677 86.1987 176.145 85.6666 176.145 84.9315ZM178.336 84.9315C178.336 84.3505 177.944 83.9584 177.412 83.9584C176.88 83.9584 176.488 84.3435 176.488 84.9315C176.488 85.5196 176.887 85.9046 177.412 85.9046C177.937 85.9046 178.336 85.5196 178.336 84.9315Z" fill="#263238"/>
<path d="M183.467 84.7352V86.1773H183.131V84.7702C183.131 84.2451 182.865 83.9721 182.417 83.9721C181.906 83.9721 181.584 84.3011 181.584 84.8682V86.1773H181.248V84.7702C181.248 84.2451 180.982 83.9721 180.527 83.9721C180.023 83.9721 179.694 84.3011 179.694 84.8682V86.1773H179.358V83.6851H179.68V84.1401C179.855 83.8391 180.177 83.6641 180.59 83.6641C181.003 83.6641 181.325 83.8391 181.472 84.1891C181.654 83.8671 182.004 83.6641 182.459 83.6641C183.068 83.6641 183.46 84.0141 183.46 84.7282L183.467 84.7352Z" fill="#263238"/>
<path d="M128.008 105.884L128.596 106.213L128.484 106.409L127.889 106.066V106.738H127.672V106.066L127.084 106.409L126.972 106.213L127.56 105.884L126.972 105.555L127.084 105.352L127.672 105.702V105.03H127.882V105.702L128.477 105.352L128.589 105.555L128.001 105.884H128.008Z" fill="#263238"/>
<path d="M129.933 105.884L130.521 106.213L130.409 106.409L129.814 106.066V106.738H129.597V106.066L129.009 106.409L128.897 106.213L129.485 105.884L128.897 105.555L129.009 105.352L129.597 105.702V105.03H129.807V105.702L130.402 105.352L130.514 105.555L129.926 105.884H129.933Z" fill="#263238"/>
<path d="M131.852 105.884L132.44 106.213L132.328 106.409L131.733 106.066V106.738H131.516V106.066L130.927 106.409L130.815 106.213L131.403 105.884L130.815 105.555L130.927 105.352L131.516 105.702V105.03H131.726V105.702L132.321 105.352L132.433 105.555L131.845 105.884H131.852Z" fill="#263238"/>
<path d="M133.77 105.884L134.358 106.213L134.246 106.409L133.651 106.066V106.738H133.433V106.066L132.845 106.409L132.733 106.213L133.321 105.884L132.733 105.555L132.845 105.352L133.433 105.702V105.03H133.643V105.702L134.239 105.352L134.351 105.555L133.763 105.884H133.77Z" fill="#263238"/>
<path d="M135.694 105.884L136.282 106.213L136.17 106.409L135.575 106.066V106.738H135.358V106.066L134.77 106.409L134.658 106.213L135.246 105.884L134.658 105.555L134.77 105.352L135.358 105.702V105.03H135.568V105.702L136.163 105.352L136.275 105.555L135.687 105.884H135.694Z" fill="#263238"/>
<path d="M137.613 105.884L138.201 106.213L138.089 106.409L137.494 106.066V106.738H137.277V106.066L136.689 106.409L136.577 106.213L137.165 105.884L136.577 105.555L136.689 105.352L137.277 105.702V105.03H137.487V105.702L138.082 105.352L138.194 105.555L137.606 105.884H137.613Z" fill="#263238"/>
<path d="M139.531 105.884L140.119 106.213L140.007 106.409L139.412 106.066V106.738H139.195V106.066L138.607 106.409L138.495 106.213L139.083 105.884L138.495 105.555L138.607 105.352L139.195 105.702V105.03H139.405V105.702L140 105.352L140.112 105.555L139.524 105.884H139.531Z" fill="#263238"/>
<path d="M141.456 105.884L142.044 106.213L141.932 106.409L141.337 106.066V106.738H141.12V106.066L140.532 106.409L140.42 106.213L141.008 105.884L140.42 105.555L140.532 105.352L141.12 105.702V105.03H141.33V105.702L141.925 105.352L142.037 105.555L141.449 105.884H141.456Z" fill="#263238"/>
<path d="M143.374 105.884L143.963 106.213L143.851 106.409L143.255 106.066V106.738H143.038V106.066L142.45 106.409L142.338 106.213L142.926 105.884L142.338 105.555L142.45 105.352L143.038 105.702V105.03H143.248V105.702L143.844 105.352L143.956 105.555L143.367 105.884H143.374Z" fill="#263238"/>
<path d="M145.292 105.884L145.881 106.213L145.769 106.409L145.173 106.066V106.738H144.956V106.066L144.368 106.409L144.256 106.213L144.844 105.884L144.256 105.555L144.368 105.352L144.956 105.702V105.03H145.166V105.702L145.762 105.352L145.874 105.555L145.285 105.884H145.292Z" fill="#263238"/>
<path d="M147.217 105.884L147.805 106.213L147.693 106.409L147.098 106.066V106.738H146.881V106.066L146.293 106.409L146.181 106.213L146.769 105.884L146.181 105.555L146.293 105.352L146.881 105.702V105.03H147.091V105.702L147.686 105.352L147.798 105.555L147.21 105.884H147.217Z" fill="#263238"/>
<path d="M127.692 96.4056C127.692 97.1127 127.181 97.5397 126.341 97.5397H125.452V98.5828H125.102V95.2715H126.341C127.181 95.2715 127.692 95.6985 127.692 96.4056ZM127.342 96.4056C127.342 95.8735 126.992 95.5725 126.327 95.5725H125.445V97.2317H126.327C126.992 97.2317 127.342 96.9307 127.342 96.4056Z" fill="#263238"/>
<path d="M130.234 97.0428V98.5829H129.912V98.1979C129.758 98.4499 129.464 98.6109 129.058 98.6109C128.498 98.6109 128.148 98.3169 128.148 97.8899C128.148 97.5048 128.393 97.1828 129.107 97.1828H129.898V97.0288C129.898 96.6017 129.66 96.3707 129.191 96.3707C128.869 96.3707 128.568 96.4827 128.365 96.6647L128.211 96.4127C128.463 96.2027 128.834 96.0767 129.226 96.0767C129.87 96.0767 130.234 96.3987 130.234 97.0428ZM129.898 97.8409V97.4348H129.114C128.631 97.4348 128.477 97.6238 128.477 97.8829C128.477 98.1699 128.708 98.3519 129.107 98.3519C129.506 98.3519 129.765 98.1699 129.898 97.8478V97.8409Z" fill="#263238"/>
<path d="M130.801 98.3027L130.955 98.0367C131.151 98.1907 131.487 98.3167 131.837 98.3167C132.313 98.3167 132.502 98.1557 132.502 97.9107C132.502 97.2596 130.885 97.7707 130.885 96.7906C130.885 96.3845 131.235 96.0835 131.872 96.0835C132.194 96.0835 132.544 96.1745 132.754 96.3145L132.607 96.5876C132.39 96.4335 132.131 96.3775 131.872 96.3775C131.424 96.3775 131.221 96.5525 131.221 96.7906C131.221 97.4626 132.838 96.9586 132.838 97.9107C132.838 98.3377 132.46 98.6178 131.809 98.6178C131.396 98.6178 130.997 98.4847 130.794 98.3097L130.801 98.3027Z" fill="#263238"/>
<path d="M133.111 98.3027L133.265 98.0367C133.461 98.1907 133.797 98.3167 134.147 98.3167C134.623 98.3167 134.812 98.1557 134.812 97.9107C134.812 97.2596 133.195 97.7707 133.195 96.7906C133.195 96.3845 133.545 96.0835 134.182 96.0835C134.504 96.0835 134.854 96.1745 135.064 96.3145L134.917 96.5876C134.7 96.4335 134.441 96.3775 134.182 96.3775C133.734 96.3775 133.531 96.5525 133.531 96.7906C133.531 97.4626 135.148 96.9586 135.148 97.9107C135.148 98.3377 134.77 98.6178 134.119 98.6178C133.706 98.6178 133.307 98.4847 133.104 98.3097L133.111 98.3027Z" fill="#263238"/>
<path d="M139.377 96.0977L138.432 98.5899H138.117L137.333 96.5527L136.549 98.5899H136.234L135.295 96.0977H135.617L136.402 98.2119L137.2 96.0977H137.487L138.285 98.2119L139.076 96.0977H139.384H139.377Z" fill="#263238"/>
<path d="M139.559 97.3368C139.559 96.6017 140.098 96.0767 140.826 96.0767C141.554 96.0767 142.086 96.6017 142.086 97.3368C142.086 98.0719 141.554 98.6039 140.826 98.6039C140.098 98.6039 139.559 98.0719 139.559 97.3368ZM141.75 97.3368C141.75 96.7557 141.358 96.3637 140.826 96.3637C140.294 96.3637 139.902 96.7487 139.902 97.3368C139.902 97.9249 140.301 98.3099 140.826 98.3099C141.351 98.3099 141.75 97.9249 141.75 97.3368Z" fill="#263238"/>
<path d="M144.032 96.0767V96.4057C144.032 96.4057 143.976 96.4057 143.955 96.4057C143.437 96.4057 143.115 96.7347 143.115 97.3228V98.5899H142.779V96.0977H143.101V96.5877C143.255 96.2587 143.577 96.0837 144.032 96.0837V96.0767Z" fill="#263238"/>
<path d="M146.881 95.0752V98.5896H146.559V98.0995C146.356 98.4355 146.013 98.6176 145.6 98.6176C144.893 98.6176 144.361 98.0995 144.361 97.3504C144.361 96.6014 144.893 96.0903 145.6 96.0903C145.999 96.0903 146.335 96.2583 146.545 96.5804V95.0822H146.881V95.0752ZM146.552 97.3434C146.552 96.7624 146.153 96.3703 145.628 96.3703C145.103 96.3703 144.704 96.7554 144.704 97.3434C144.704 97.9315 145.103 98.3165 145.628 98.3165C146.153 98.3165 146.552 97.9315 146.552 97.3434Z" fill="#263238"/>
<path d="M151.859 123.687V126.998H151.516V123.988H150.732V123.687H151.852H151.859Z" fill="#263238"/>
<path d="M154.911 126.69V126.991H152.587V126.753L153.966 125.402C154.337 125.031 154.414 124.814 154.414 124.583C154.414 124.198 154.141 123.96 153.637 123.96C153.252 123.96 152.951 124.079 152.734 124.331L152.496 124.121C152.755 123.82 153.161 123.645 153.672 123.645C154.344 123.645 154.771 123.988 154.771 124.541C154.771 124.856 154.673 125.143 154.225 125.577L153.098 126.683H154.918L154.911 126.69Z" fill="#263238"/>
<path d="M157.53 126.046C157.53 126.599 157.13 127.026 156.325 127.026C155.849 127.026 155.387 126.858 155.135 126.599L155.303 126.326C155.513 126.55 155.898 126.711 156.332 126.711C156.878 126.711 157.186 126.459 157.186 126.046C157.186 125.633 156.906 125.388 156.29 125.388H156.052V125.136L156.969 123.988H155.275V123.687H157.403V123.925L156.465 125.101C157.172 125.136 157.53 125.514 157.53 126.046Z" fill="#263238"/>
<path d="M160.82 126.123H160.155V126.992H159.812V126.123H157.942V125.878L159.7 123.68H160.078L158.383 125.822H159.826V125.052H160.155V125.822H160.82V126.123Z" fill="#263238"/>
<path d="M164.621 126.019C164.621 126.579 164.229 127.02 163.417 127.02C162.941 127.02 162.486 126.852 162.227 126.593L162.395 126.32C162.605 126.544 162.99 126.705 163.41 126.705C163.97 126.705 164.271 126.432 164.271 126.026C164.271 125.599 164.005 125.333 163.165 125.333H162.458L162.626 123.673H164.439V123.974H162.927L162.815 125.031H163.242C164.243 125.031 164.621 125.424 164.621 126.012V126.019Z" fill="#263238"/>
<path d="M167.541 126.004C167.541 126.627 167.051 127.019 166.407 127.019C165.525 127.019 165.049 126.41 165.049 125.36C165.049 124.233 165.665 123.645 166.561 123.645C166.862 123.645 167.142 123.694 167.345 123.827L167.205 124.1C167.037 123.988 166.806 123.946 166.561 123.946C165.847 123.946 165.385 124.408 165.385 125.304C165.385 125.381 165.385 125.472 165.399 125.577C165.567 125.213 165.952 125.01 166.414 125.01C167.072 125.01 167.527 125.395 167.527 126.004H167.541ZM167.205 126.011C167.205 125.577 166.883 125.297 166.372 125.297C165.861 125.297 165.518 125.612 165.518 126.018C165.518 126.382 165.819 126.725 166.393 126.725C166.869 126.725 167.205 126.445 167.205 126.004V126.011Z" fill="#263238"/>
<path d="M170.229 123.687V123.925L168.842 126.998H168.471L169.837 123.988H168.135V124.611H167.799V123.687H170.229Z" fill="#263238"/>
<path d="M173.134 126.074C173.134 126.662 172.637 127.027 171.846 127.027C171.055 127.027 170.565 126.662 170.565 126.074C170.565 125.675 170.789 125.395 171.202 125.262C170.866 125.129 170.684 124.877 170.684 124.534C170.684 123.995 171.139 123.659 171.846 123.659C172.553 123.659 173.015 123.995 173.015 124.534C173.015 124.877 172.826 125.129 172.483 125.262C172.896 125.402 173.134 125.682 173.134 126.074ZM172.784 126.074C172.784 125.668 172.434 125.409 171.846 125.409C171.258 125.409 170.915 125.668 170.915 126.074C170.915 126.48 171.258 126.74 171.846 126.74C172.434 126.74 172.784 126.48 172.784 126.074ZM171.846 125.143C172.364 125.143 172.672 124.912 172.672 124.555C172.672 124.198 172.343 123.953 171.846 123.953C171.349 123.953 171.027 124.177 171.027 124.548C171.027 124.919 171.328 125.143 171.846 125.143Z" fill="#263238"/>
<path d="M177.237 125.311C177.237 126.438 176.62 127.026 175.724 127.026C175.423 127.026 175.15 126.977 174.94 126.844L175.08 126.571C175.248 126.683 175.479 126.725 175.724 126.725C176.438 126.725 176.901 126.263 176.901 125.367C176.901 125.29 176.901 125.199 176.887 125.094C176.719 125.458 176.333 125.661 175.871 125.661C175.213 125.661 174.758 125.276 174.758 124.667C174.758 124.058 175.248 123.652 175.892 123.652C176.775 123.652 177.251 124.261 177.251 125.311H177.237ZM176.768 124.653C176.768 124.289 176.466 123.946 175.892 123.946C175.416 123.946 175.08 124.226 175.08 124.667C175.08 125.108 175.402 125.381 175.913 125.381C176.424 125.381 176.768 125.066 176.768 124.66V124.653Z" fill="#263238"/>
<path d="M178.637 123.687V126.998H178.294V123.988H177.51V123.687H178.63H178.637Z" fill="#263238"/>
<path d="M179.428 125.339C179.428 124.282 179.981 123.652 180.751 123.652C181.521 123.652 182.075 124.282 182.075 125.339C182.075 126.396 181.514 127.026 180.751 127.026C179.988 127.026 179.428 126.396 179.428 125.339ZM181.724 125.339C181.724 124.457 181.325 123.967 180.751 123.967C180.177 123.967 179.778 124.457 179.778 125.339C179.778 126.221 180.177 126.711 180.751 126.711C181.325 126.711 181.724 126.221 181.724 125.339Z" fill="#263238"/>
<path d="M183.467 123.687V126.998H183.124V123.988H182.34V123.687H183.46H183.467Z" fill="#263238"/>
<path d="M186.415 123.687V126.998H186.072V123.988H185.288V123.687H186.408H186.415Z" fill="#263238"/>
<path d="M188.116 123.687V126.998H187.773V123.988H186.989V123.687H188.109H188.116Z" fill="#263238"/>
<path d="M191.169 126.69V126.991H188.844V126.753L190.224 125.402C190.595 125.031 190.672 124.814 190.672 124.583C190.672 124.198 190.399 123.96 189.895 123.96C189.509 123.96 189.208 124.079 188.991 124.331L188.753 124.121C189.005 123.82 189.418 123.645 189.93 123.645C190.602 123.645 191.029 123.988 191.029 124.541C191.029 124.856 190.931 125.143 190.483 125.577L189.355 126.683H191.176L191.169 126.69Z" fill="#263238"/>
<path d="M192.512 123.687V126.998H192.169V123.988H191.385V123.687H192.505H192.512Z" fill="#263238"/>
<path d="M136.689 122.924V122.42C136.689 121.93 136.296 121.538 135.806 121.538H126.866C126.376 121.538 125.984 121.93 125.984 122.42V122.924H136.682H136.689Z" fill="#263238"/>
<path d="M125.984 123.617V127.328C125.984 127.818 126.376 128.21 126.866 128.21H135.806C136.296 128.21 136.689 127.818 136.689 127.328V123.617H125.991H125.984Z" fill="#263238"/>
<path d="M126.117 143.156C126.117 142.099 126.67 141.469 127.44 141.469C128.21 141.469 128.763 142.099 128.763 143.156C128.763 144.214 128.203 144.844 127.44 144.844C126.677 144.844 126.117 144.214 126.117 143.156ZM128.413 143.156C128.413 142.274 128.014 141.784 127.44 141.784C126.866 141.784 126.467 142.274 126.467 143.156C126.467 144.039 126.866 144.529 127.44 144.529C128.014 144.529 128.413 144.039 128.413 143.156Z" fill="#263238"/>
<path d="M131.795 143.891C131.795 144.479 131.298 144.843 130.507 144.843C129.716 144.843 129.226 144.479 129.226 143.891C129.226 143.492 129.45 143.212 129.863 143.079C129.527 142.946 129.345 142.694 129.345 142.351C129.345 141.812 129.807 141.476 130.507 141.476C131.207 141.476 131.676 141.812 131.676 142.351C131.676 142.694 131.487 142.946 131.144 143.079C131.557 143.219 131.795 143.499 131.795 143.891ZM131.445 143.891C131.445 143.485 131.095 143.226 130.507 143.226C129.919 143.226 129.576 143.478 129.576 143.891C129.576 144.304 129.919 144.556 130.507 144.556C131.095 144.556 131.445 144.297 131.445 143.891ZM130.507 142.96C131.025 142.96 131.333 142.729 131.333 142.372C131.333 142.015 131.004 141.77 130.507 141.77C130.01 141.77 129.688 141.994 129.688 142.365C129.688 142.736 129.989 142.96 130.507 142.96Z" fill="#263238"/>
<path d="M133.468 140.832H133.776L132.215 145.292H131.907L133.468 140.832Z" fill="#263238"/>
<path d="M136.114 144.515V144.816H133.79V144.578L135.169 143.226C135.54 142.855 135.617 142.631 135.617 142.407C135.617 142.022 135.344 141.784 134.84 141.784C134.455 141.784 134.154 141.903 133.937 142.155L133.699 141.945C133.958 141.644 134.364 141.469 134.875 141.469C135.547 141.469 135.974 141.812 135.974 142.365C135.974 142.68 135.876 142.967 135.428 143.401L134.301 144.508H136.121L136.114 144.515Z" fill="#263238"/>
<path d="M138.789 143.842C138.789 144.402 138.397 144.843 137.585 144.843C137.109 144.843 136.654 144.675 136.395 144.416L136.563 144.143C136.773 144.367 137.158 144.528 137.578 144.528C138.138 144.528 138.439 144.255 138.439 143.849C138.439 143.422 138.173 143.156 137.333 143.156H136.626L136.794 141.497H138.607V141.798H137.095L136.983 142.855H137.41C138.411 142.855 138.789 143.247 138.789 143.835V143.842Z" fill="#263238"/>
<path d="M127.665 139.369V139.558H126.208V137.5H127.616V137.689H126.426V138.417H127.49V138.599H126.426V139.362H127.665V139.369Z" fill="#263238"/>
<path d="M129.436 139.558L128.77 138.655L128.112 139.558H127.86L128.644 138.501L127.916 137.5H128.168L128.791 138.34L129.408 137.5H129.646L128.917 138.494L129.702 139.558H129.45H129.436Z" fill="#263238"/>
<path d="M131.62 138.207C131.62 138.641 131.305 138.907 130.78 138.907H130.227V139.558H130.01V137.5H130.78C131.305 137.5 131.62 137.766 131.62 138.207ZM131.403 138.207C131.403 137.878 131.186 137.689 130.773 137.689H130.227V138.718H130.773C131.186 138.718 131.403 138.529 131.403 138.207Z" fill="#263238"/>
<path d="M132.895 137.5H133.735C134.393 137.5 134.834 137.92 134.834 138.529C134.834 139.138 134.393 139.558 133.735 139.558H132.895V137.5ZM133.721 139.369C134.267 139.369 134.617 139.019 134.617 138.529C134.617 138.039 134.267 137.689 133.721 137.689H133.112V139.369H133.721Z" fill="#263238"/>
<path d="M136.443 138.599V139.558H136.24V139.32C136.149 139.481 135.967 139.579 135.708 139.579C135.358 139.579 135.141 139.397 135.141 139.131C135.141 138.893 135.295 138.697 135.736 138.697H136.226V138.606C136.226 138.34 136.079 138.2 135.792 138.2C135.589 138.2 135.407 138.27 135.281 138.382L135.19 138.228C135.344 138.095 135.575 138.018 135.82 138.018C136.219 138.018 136.443 138.221 136.443 138.62V138.599ZM136.233 139.096V138.844H135.75C135.449 138.844 135.351 138.963 135.351 139.117C135.351 139.299 135.498 139.411 135.743 139.411C135.988 139.411 136.149 139.299 136.233 139.096Z" fill="#263238"/>
<path d="M137.823 139.46C137.739 139.53 137.62 139.572 137.494 139.572C137.207 139.572 137.039 139.411 137.039 139.124V138.193H136.766V138.018H137.039V137.682H137.249V138.018H137.718V138.193H137.249V139.117C137.249 139.299 137.34 139.397 137.515 139.397C137.599 139.397 137.683 139.369 137.746 139.32L137.816 139.467L137.823 139.46Z" fill="#263238"/>
<path d="M139.496 138.851H138.201C138.222 139.173 138.474 139.39 138.81 139.39C138.999 139.39 139.167 139.32 139.286 139.187L139.405 139.32C139.265 139.481 139.055 139.572 138.81 139.572C138.327 139.572 137.998 139.243 137.998 138.788C137.998 138.333 138.32 138.004 138.754 138.004C139.188 138.004 139.503 138.326 139.503 138.788C139.503 138.802 139.503 138.83 139.503 138.851H139.496ZM138.201 138.697H139.3C139.272 138.396 139.055 138.186 138.754 138.186C138.453 138.186 138.236 138.396 138.208 138.697H138.201Z" fill="#263238"/>
<path d="M165.217 141.504V144.816H164.874V141.805H164.09V141.504H165.21H165.217Z" fill="#263238"/>
<path d="M168.269 144.515V144.816H165.945V144.578L167.324 143.226C167.695 142.855 167.772 142.631 167.772 142.407C167.772 142.022 167.506 141.784 166.995 141.784C166.61 141.784 166.309 141.903 166.092 142.155L165.854 141.945C166.113 141.644 166.519 141.469 167.03 141.469C167.702 141.469 168.129 141.812 168.129 142.365C168.129 142.68 168.031 142.967 167.583 143.401L166.456 144.508H168.276L168.269 144.515Z" fill="#263238"/>
<path d="M170.887 143.864C170.887 144.417 170.488 144.844 169.683 144.844C169.207 144.844 168.745 144.676 168.493 144.417L168.661 144.144C168.871 144.368 169.256 144.529 169.69 144.529C170.236 144.529 170.544 144.277 170.544 143.864C170.544 143.451 170.264 143.206 169.648 143.206H169.41V142.954L170.327 141.805H168.633V141.504H170.761V141.742L169.823 142.919C170.53 142.954 170.887 143.332 170.887 143.857V143.864Z" fill="#263238"/>
<path d="M164.208 138.529C164.208 137.927 164.67 137.486 165.286 137.486C165.587 137.486 165.853 137.584 166.035 137.787L165.895 137.927C165.727 137.759 165.524 137.682 165.286 137.682C164.789 137.682 164.418 138.046 164.418 138.536C164.418 139.026 164.789 139.39 165.286 139.39C165.524 139.39 165.727 139.32 165.895 139.145L166.035 139.285C165.853 139.488 165.58 139.586 165.279 139.586C164.663 139.586 164.201 139.145 164.201 138.543L164.208 138.529Z" fill="#263238"/>
<path d="M169.305 137.5L168.612 139.558H168.381L167.779 137.808L167.17 139.558H166.946L166.253 137.5H166.477L167.072 139.271L167.688 137.5H167.891L168.5 139.278L169.102 137.5H169.312H169.305Z" fill="#263238"/>
<path d="M146.854 162.611H145.006L144.607 163.493H144.243L145.755 160.182H146.098L147.61 163.493H147.239L146.84 162.611H146.854ZM146.728 162.324L145.93 160.546L145.132 162.324H146.721H146.728Z" fill="#263238"/>
<path d="M147.82 162.247C147.82 161.505 148.359 160.98 149.101 160.98C149.521 160.98 149.878 161.148 150.074 161.47L149.822 161.638C149.654 161.386 149.388 161.267 149.101 161.267C148.555 161.267 148.163 161.652 148.163 162.24C148.163 162.828 148.562 163.213 149.101 163.213C149.388 163.213 149.654 163.101 149.822 162.849L150.074 163.017C149.878 163.339 149.521 163.507 149.101 163.507C148.359 163.507 147.82 162.982 147.82 162.24V162.247Z" fill="#263238"/>
<path d="M152.069 163.339C151.936 163.458 151.74 163.514 151.544 163.514C151.075 163.514 150.816 163.248 150.816 162.793V161.288H150.368V161.001H150.816V160.455H151.152V161.001H151.908V161.288H151.152V162.772C151.152 163.066 151.306 163.227 151.579 163.227C151.719 163.227 151.852 163.185 151.95 163.101L152.069 163.339Z" fill="#263238"/>
<path d="M152.609 160.217C152.609 160.091 152.721 159.979 152.854 159.979C152.987 159.979 153.099 160.084 153.099 160.21C153.099 160.35 152.994 160.455 152.854 160.455C152.714 160.455 152.609 160.343 152.609 160.217ZM152.686 161.001H153.022V163.493H152.686V161.001Z" fill="#263238"/>
<path d="M153.701 162.247C153.701 161.512 154.24 160.98 154.968 160.98C155.696 160.98 156.228 161.505 156.228 162.247C156.228 162.989 155.696 163.514 154.968 163.514C154.24 163.514 153.701 162.982 153.701 162.247ZM155.892 162.247C155.892 161.666 155.5 161.274 154.968 161.274C154.436 161.274 154.044 161.659 154.044 162.247C154.044 162.835 154.443 163.22 154.968 163.22C155.493 163.22 155.892 162.835 155.892 162.247Z" fill="#263238"/>
<path d="M159.21 162.051V163.493H158.874V162.086C158.874 161.561 158.601 161.288 158.125 161.288C157.593 161.288 157.257 161.617 157.257 162.191V163.5H156.921V161.008H157.243V161.47C157.425 161.169 157.761 160.994 158.188 160.994C158.797 160.994 159.21 161.344 159.21 162.058V162.051Z" fill="#263238"/>
<path d="M161.786 160.483V161.785H163.501V162.086H161.786V163.493H161.436V160.182H163.711V160.483H161.793H161.786Z" fill="#263238"/>
<path d="M164.237 160.217C164.237 160.091 164.349 159.979 164.482 159.979C164.615 159.979 164.727 160.084 164.727 160.21C164.727 160.35 164.622 160.455 164.482 160.455C164.342 160.455 164.237 160.343 164.237 160.217ZM164.314 161.001H164.65V163.493H164.314V161.001Z" fill="#263238"/>
<path d="M167.884 161.001V163.185C167.884 164.039 167.464 164.431 166.638 164.431C166.183 164.431 165.735 164.291 165.476 164.046L165.644 163.787C165.882 163.997 166.239 164.13 166.624 164.13C167.254 164.13 167.541 163.843 167.541 163.227V162.912C167.331 163.227 166.981 163.395 166.575 163.395C165.868 163.395 165.322 162.898 165.322 162.184C165.322 161.47 165.861 160.98 166.575 160.98C166.988 160.98 167.352 161.148 167.562 161.477V161.001H167.884ZM167.555 162.184C167.555 161.645 167.156 161.274 166.61 161.274C166.064 161.274 165.665 161.645 165.665 162.184C165.665 162.723 166.057 163.094 166.61 163.094C167.163 163.094 167.555 162.723 167.555 162.184Z" fill="#263238"/>
<path d="M171.07 161.001V163.493H170.747V163.038C170.572 163.339 170.25 163.514 169.851 163.514C169.214 163.514 168.801 163.157 168.801 162.443V161.001H169.137V162.408C169.137 162.94 169.41 163.206 169.886 163.206C170.404 163.206 170.733 162.87 170.733 162.303V160.994H171.07V161.001Z" fill="#263238"/>
<path d="M173.267 160.987V161.316C173.267 161.316 173.211 161.316 173.183 161.316C172.665 161.316 172.343 161.645 172.343 162.233V163.5H172.007V161.008H172.329V161.498C172.483 161.169 172.805 160.994 173.26 160.994L173.267 160.987Z" fill="#263238"/>
<path d="M176.012 162.352H173.933C173.968 162.87 174.367 163.22 174.913 163.22C175.214 163.22 175.487 163.108 175.676 162.891L175.865 163.108C175.641 163.374 175.298 163.514 174.906 163.514C174.129 163.514 173.597 162.982 173.597 162.247C173.597 161.512 174.115 160.98 174.815 160.98C175.515 160.98 176.019 161.498 176.019 162.247C176.019 162.275 176.019 162.31 176.019 162.352H176.012ZM173.933 162.1H175.697C175.655 161.61 175.298 161.274 174.815 161.274C174.332 161.274 173.975 161.617 173.933 162.1Z" fill="#263238"/>
<path d="M148.338 176.781V178.237H147.036V176.823C145.748 176.746 144.516 176.34 143.802 175.78L144.516 174.19C145.167 174.673 146.105 175.023 147.036 175.114V172.944C145.594 172.594 143.984 172.111 143.984 170.256C143.984 168.877 144.985 167.694 147.036 167.463V166.021H148.338V167.435C149.311 167.512 150.263 167.771 150.978 168.226L150.326 169.822C149.661 169.444 148.989 169.227 148.338 169.143V171.355C149.78 171.691 151.37 172.174 151.37 174.008C151.37 175.36 150.382 176.529 148.338 176.781ZM147.036 171.033V169.185C146.35 169.339 146.077 169.717 146.077 170.144C146.077 170.599 146.469 170.844 147.036 171.026V171.033ZM149.269 174.169C149.269 173.714 148.891 173.469 148.331 173.273V175.065C148.982 174.925 149.269 174.582 149.269 174.169Z" fill="#263238"/>
<path d="M159.035 174.96V176.676H152.161V175.31L155.668 171.992C156.473 171.222 156.62 170.76 156.62 170.312C156.62 169.598 156.123 169.178 155.164 169.178C154.387 169.178 153.722 169.479 153.281 170.088L151.748 169.101C152.448 168.072 153.722 167.414 155.36 167.414C157.39 167.414 158.741 168.457 158.741 170.102C158.741 170.984 158.496 171.789 157.222 172.972L155.129 174.946H159.042L159.035 174.96Z" fill="#263238"/>
<path d="M159.882 172.125C159.882 169.122 161.548 167.421 163.782 167.421C166.015 167.421 167.681 169.122 167.681 172.125C167.681 175.129 166.029 176.83 163.782 176.83C161.534 176.83 159.882 175.129 159.882 172.125ZM165.56 172.125C165.56 170.06 164.832 169.199 163.782 169.199C162.732 169.199 162.011 170.06 162.011 172.125C162.011 174.191 162.739 175.052 163.782 175.052C164.825 175.052 165.56 174.191 165.56 172.125Z" fill="#263238"/>
<path d="M168.71 172.125C168.71 169.122 170.376 167.421 172.609 167.421C174.843 167.421 176.509 169.122 176.509 172.125C176.509 175.129 174.857 176.83 172.609 176.83C170.362 176.83 168.71 175.129 168.71 172.125ZM174.395 172.125C174.395 170.06 173.666 169.199 172.616 169.199C171.566 169.199 170.845 170.06 170.845 172.125C170.845 174.191 171.573 175.052 172.616 175.052C173.659 175.052 174.395 174.191 174.395 172.125Z" fill="#263238"/>
<path d="M174.745 199.848H145.719C141.967 199.848 138.929 196.81 138.929 193.057C138.929 189.305 141.967 186.267 145.719 186.267H174.745C178.497 186.267 181.535 189.305 181.535 193.057C181.535 196.81 178.497 199.848 174.745 199.848Z" fill="#263238"/>
<path d="M150.921 192.33C150.921 193.177 150.305 193.695 149.29 193.695H148.219V194.955H147.799V190.964H149.297C150.312 190.964 150.928 191.475 150.928 192.336L150.921 192.33ZM150.501 192.33C150.501 191.692 150.081 191.328 149.283 191.328H148.219V193.324H149.283C150.081 193.324 150.501 192.96 150.501 192.33Z" fill="white"/>
<path d="M153.98 193.1V194.962H153.595V194.493C153.413 194.801 153.056 194.99 152.566 194.99C151.887 194.99 151.474 194.633 151.474 194.115C151.474 193.653 151.768 193.268 152.629 193.268H153.581V193.086C153.581 192.575 153.287 192.295 152.734 192.295C152.349 192.295 151.978 192.435 151.733 192.645L151.551 192.344C151.852 192.085 152.3 191.938 152.769 191.938C153.546 191.938 153.987 192.323 153.987 193.1H153.98ZM153.574 194.059V193.569H152.636C152.055 193.569 151.866 193.8 151.866 194.108C151.866 194.458 152.146 194.675 152.622 194.675C153.098 194.675 153.413 194.458 153.574 194.066V194.059Z" fill="white"/>
<path d="M157.544 191.958L156.046 195.319C155.794 195.907 155.479 196.096 155.044 196.096C154.764 196.096 154.498 196.005 154.316 195.823L154.505 195.522C154.652 195.669 154.834 195.753 155.051 195.753C155.318 195.753 155.5 195.627 155.675 195.249L155.808 194.955L154.47 191.958H154.89L156.018 194.507L157.145 191.958H157.544Z" fill="white"/>
<path d="M160.967 194.982V195.64H160.68V194.989C160.12 194.961 159.595 194.758 159.315 194.471L159.483 194.149C159.742 194.408 160.204 194.597 160.68 194.625V193.127C160.05 192.973 159.413 192.777 159.413 192.028C159.413 191.482 159.805 191.006 160.68 190.936V190.278H160.967V190.929C161.394 190.943 161.821 191.069 162.122 191.286L161.982 191.622C161.66 191.419 161.296 191.307 160.967 191.293V192.805C161.611 192.959 162.29 193.141 162.29 193.904C162.29 194.457 161.877 194.94 160.967 194.989V194.982ZM160.68 192.721V191.293C160.092 191.342 159.833 191.643 159.833 192.007C159.833 192.441 160.218 192.602 160.68 192.721ZM161.87 193.918C161.87 193.47 161.457 193.316 160.96 193.19V194.618C161.59 194.569 161.87 194.282 161.87 193.918Z" fill="white"/>
<path d="M165.581 194.591V194.955H162.781V194.661L164.44 193.037C164.888 192.596 164.979 192.323 164.979 192.049C164.979 191.587 164.657 191.3 164.041 191.3C163.572 191.3 163.215 191.44 162.949 191.748L162.655 191.496C162.963 191.132 163.46 190.922 164.069 190.922C164.881 190.922 165.392 191.335 165.392 192C165.392 192.386 165.273 192.729 164.734 193.254L163.376 194.591H165.574H165.581Z" fill="white"/>
<path d="M166.07 192.959C166.07 191.685 166.735 190.929 167.659 190.929C168.584 190.929 169.256 191.685 169.256 192.959C169.256 194.233 168.584 194.989 167.659 194.989C166.735 194.989 166.07 194.233 166.07 192.959ZM168.836 192.959C168.836 191.895 168.36 191.307 167.659 191.307C166.959 191.307 166.483 191.895 166.483 192.959C166.483 194.023 166.959 194.611 167.659 194.611C168.36 194.611 168.836 194.023 168.836 192.959Z" fill="white"/>
<path d="M169.844 192.959C169.844 191.685 170.509 190.929 171.433 190.929C172.358 190.929 173.03 191.685 173.03 192.959C173.03 194.233 172.358 194.989 171.433 194.989C170.509 194.989 169.844 194.233 169.844 192.959ZM172.61 192.959C172.61 191.895 172.133 191.307 171.433 191.307C170.733 191.307 170.257 191.895 170.257 192.959C170.257 194.023 170.74 194.611 171.433 194.611C172.126 194.611 172.61 194.023 172.61 192.959Z" fill="white"/>
<path d="M116.317 178.468C117.367 194.605 109.89 212.575 109.89 212.575L69.5095 201.206L62.4668 199.218C69.4535 189.487 72.7999 170.34 70.9727 154.84C70.8327 153.671 70.7417 152.565 70.6857 151.522C70.0206 138.739 75.2922 134.993 79.7866 129.344C84.6522 123.225 95.5943 100.123 95.5943 94.655C95.5943 89.1874 109.274 75.809 106.235 60.6103C106.235 60.6103 110.373 58.0481 114.531 60.1553C116.415 61.1074 118.305 63.0186 119.817 66.554C123.38 74.8849 118.382 98.4074 114.118 104.183L105.92 138.123C105.92 138.123 108.686 142.89 111.402 151.543C113.516 158.292 115.595 167.4 116.317 178.468Z" fill="white"/>
<path opacity="0.4" d="M70.6788 151.529C72.9611 157.788 75.3973 161.996 75.1873 170.803C74.9773 179.609 70.2798 193.093 71.6239 200.115C71.6239 200.115 70.5598 200.374 69.5027 201.207L62.46 199.219C69.4467 189.487 72.7931 170.34 70.9659 154.841C70.8258 153.672 70.7348 152.566 70.6788 151.522V151.529Z" fill="#75A9C8"/>
<path opacity="0.4" d="M114.119 104.19L105.921 138.13C105.921 138.13 108.686 142.897 111.402 151.55C111.402 151.55 111.402 151.536 111.388 151.529C105.844 142.582 101.153 139.929 101.153 139.929C104.85 135.491 107.699 103.084 107.699 103.084C107.699 103.084 119.285 89.4677 118.172 75.2212C117.654 68.6685 116.079 63.656 114.518 60.1626C116.401 61.1147 118.291 63.0259 119.803 66.5613C123.367 74.8922 118.368 98.4147 114.105 104.19H114.119Z" fill="#75A9C8"/>
<path d="M62.46 199.218C69.4537 189.494 72.7931 170.34 70.9729 154.841C69.1527 139.341 74.9213 135.462 79.7868 129.344C84.6523 123.225 95.5945 100.13 95.5945 94.6551C95.5945 89.1806 109.274 75.8091 106.236 60.6105C106.236 60.6105 114.966 55.199 119.824 66.5542C123.387 74.8851 118.382 98.4075 114.132 104.183L105.935 138.123C105.935 138.123 114.686 153.209 116.324 178.468C117.374 194.605 109.897 212.576 109.897 212.576" stroke="#263238" stroke-width="0.700074" stroke-linecap="round" stroke-linejoin="round"/>
<path d="M89.4546 225.492C89.4546 225.492 98.6466 231.156 104.009 240.096" stroke="#263238" stroke-width="0.700074" stroke-linecap="round" stroke-linejoin="round"/>
<path d="M115.274 236.196C115.274 236.196 107.356 237.323 100.201 228.761C95.6157 223.273 81.6912 220.795 78.4849 206.457" stroke="#263238" stroke-width="0.700074" stroke-linecap="round" stroke-linejoin="round"/>
<path opacity="0.2" d="M230.352 278.592C210.085 268.896 222.364 261.133 194.48 249.091C166.596 237.057 166.309 226.773 169.676 203.124C173.044 179.469 170.369 154.329 178.483 152.194C186.597 150.059 172.134 117.442 181.592 105.912L228.105 196.39L230.352 278.592Z" fill="black"/>
<path d="M305.869 277.647C304.917 274.924 303.944 271.949 303.201 269.261C302.235 265.739 301.479 262.953 299.694 259.712C299.414 259.187 299.106 258.64 298.77 258.059C296.873 254.678 294.275 250.051 292.756 244.366C291.741 240.537 292.735 231.107 293.708 221.978C294.395 215.411 295.046 209.215 294.864 205.701L294.808 204.455C294.331 195.263 293.337 176.137 291.279 170.844C289.284 165.748 287.422 164.985 284.026 163.619C283.676 163.465 283.312 163.325 282.927 163.164C281.653 162.632 279.483 161.512 276.984 160.217C271.348 157.298 264.333 153.664 260.77 153.181C256.065 152.558 251.529 153.482 250.78 153.643C246.39 150.269 238.921 145.929 236.694 145.845C234.867 145.753 230.898 146.895 228.973 147.49C228.525 147.63 228.181 147.735 228.013 147.798C226.41 146.608 225.066 145.718 224.198 145.291C224.1 145.249 224.016 145.207 223.939 145.179C221.468 144.164 217.736 144.122 215.699 144.178C215.083 144.206 214.607 144.241 214.383 144.262C210.547 138.354 206.759 132.466 205.121 129.883C201.691 124.45 191.071 102.09 190.959 101.859C190.931 101.803 190.889 101.761 190.819 101.747C190.819 101.747 190.784 101.726 190.721 101.712C189.894 101.467 183.811 99.9266 181.368 105.821C178.693 112.234 182.516 126.333 186.233 131.451C188.025 133.922 192.912 143.968 197.882 154.371C196.601 155.555 186.415 164.971 181.466 166.728C177.412 168.163 178.357 188.934 179.12 205.624C179.407 211.785 179.645 217.084 179.575 220.269C179.435 226.43 190.644 234.922 201.502 243.12C211.324 250.555 221.468 258.234 222.658 263.814C222.987 265.389 223.925 266.656 225.045 268.091C226.914 270.472 229.323 273.279 230.345 278.607C230.646 280.196 233.208 282.282 235.217 285.698H308.823C308.207 284.109 307.045 281.085 305.855 277.668L305.869 277.647ZM203.889 166.966C207.452 174.429 209.658 178.895 210.176 179.371C210.701 179.847 210.68 182.234 210.659 184.531C210.631 186.561 210.617 188.738 210.869 190.579C210.001 191.342 204.526 196.334 203.42 200.366L198.764 194.878L197.588 177.684C198.295 176.949 203.084 171.894 203.896 166.966H203.889Z" fill="white"/>
<path opacity="0.4" d="M284.768 214.921C286.497 231.057 286.518 239.808 288.458 244.478C291.727 252.361 296.557 253.957 296.557 253.957C295.164 251.226 293.736 248.013 292.763 244.359C291.748 240.529 292.742 231.099 293.715 221.97C294.401 215.404 295.059 209.201 294.87 205.687L294.807 204.44C294.331 195.248 293.337 176.122 291.279 170.83C289.291 165.733 287.421 164.97 284.026 163.605C283.676 163.451 283.312 163.311 282.92 163.15C281.646 162.618 279.483 161.498 276.976 160.203C271.341 157.283 264.326 153.65 260.763 153.167C256.058 152.544 251.522 153.461 250.773 153.629C246.383 150.262 238.913 145.921 236.687 145.83C234.867 145.746 229.931 147.181 228.013 147.783C236.393 154.637 248.511 163.164 248.511 163.164C258.081 165.068 256.856 169.227 260.721 171.544C264.228 173.644 267.574 167.497 270.501 166.958C274.358 166.244 278.755 170.34 278.559 175.275C278.019 188.962 283.284 201.059 284.768 214.914V214.921Z" fill="#75A9C8"/>
<path opacity="0.4" d="M236.393 164.914C236.393 164.914 228.811 158.627 225.178 156.492C221.545 154.364 220.984 147.146 223.841 145.389C223.939 145.326 224.051 145.291 224.191 145.277C224.1 145.235 224.009 145.186 223.932 145.158C221.461 144.136 217.729 144.101 215.692 144.164C219.92 151.984 223.246 157.99 224.149 159.299C227.201 163.717 236.393 164.907 236.393 164.907V164.914Z" fill="#75A9C8"/>
<path opacity="0.4" d="M224.891 262.897C225.206 261.224 222.455 256.323 221.244 254.335C218.485 249.798 186.541 221.571 191.176 214.032C195.789 206.478 200.024 212.078 202.958 212.561C205.065 212.911 210.827 209.474 210.799 209.187C210.141 203.383 215.503 199.61 215.503 199.61C215.503 199.61 215.006 176.508 213.781 176.907C212.549 177.299 197.805 142.211 197.805 142.211C197.805 142.211 182.229 121.489 183.104 111.828C183.979 102.174 190.735 101.957 190.735 101.957L190.721 101.698C189.894 101.453 183.811 99.9125 181.368 105.807C178.693 112.22 182.516 126.319 186.233 131.437C188.025 133.908 192.912 143.954 197.882 154.357C196.601 155.54 186.415 164.956 181.466 166.714C177.412 168.149 178.357 188.92 179.12 205.61C179.407 211.77 179.645 217.07 179.575 220.255C179.435 226.416 190.644 234.908 201.502 243.106C211.324 250.54 221.468 258.22 222.658 263.8C222.987 265.375 223.925 266.642 225.045 268.077C224.863 266.047 224.723 263.779 224.884 262.897H224.891ZM203.889 166.966C207.452 174.428 209.658 178.895 210.176 179.371C210.701 179.847 210.68 182.234 210.659 184.53C210.631 186.561 210.617 188.738 210.869 190.579C210.001 191.342 204.526 196.334 203.42 200.366L198.764 194.878L197.588 177.684C198.295 176.949 203.084 171.894 203.896 166.966H203.889Z" fill="#75A9C8"/>
<path d="M232.018 164.823C232.018 164.823 227.341 163.591 224.149 159.307C220.95 155.022 208.383 135.511 204.904 130.001C201.425 124.492 190.728 101.963 190.728 101.963C190.728 101.963 184.147 99.7582 181.585 105.912C179.022 112.059 182.53 125.941 186.429 131.297C190.328 136.645 208.873 177.859 210.344 179.196C211.814 180.526 209.609 191.51 212.556 194.17" stroke="#263238" stroke-width="0.700074" stroke-linecap="round" stroke-linejoin="round"/>
<path d="M211.141 190.677C211.141 190.677 204.351 196.593 203.552 200.912L198.512 194.983L197.322 177.593C197.322 177.593 203.405 171.502 203.734 166.083" stroke="#263238" stroke-width="0.700074" stroke-linecap="round" stroke-linejoin="round"/>
<path d="M198.184 154.413C198.184 154.413 186.905 165.054 181.543 166.951C176.18 168.849 180.087 208.718 179.821 220.262C179.555 231.806 220.397 251.912 222.896 263.737C223.89 268.434 228.007 269.393 230.52 278.403" stroke="#263238" stroke-width="0.700074" stroke-linecap="round" stroke-linejoin="round"/>
<path d="M214.235 144.507C214.235 144.507 220.375 143.954 223.833 145.389C227.292 146.824 241.342 158.894 244.724 161.204C248.105 163.507 253.208 164.382 254.175 166.86" stroke="#263238" stroke-width="0.700074" stroke-linecap="round" stroke-linejoin="round"/>
<path d="M227.964 148.063C227.964 148.063 234.286 145.977 236.666 146.082C239.047 146.187 248.134 151.55 252.194 155.113C256.254 158.676 260.329 160.651 262.772 161.54" stroke="#263238" stroke-width="0.700074" stroke-linecap="round" stroke-linejoin="round"/>
<path d="M250.724 153.902C250.724 153.902 255.617 152.733 260.742 153.419C265.866 154.112 278.734 161.68 282.836 163.388C286.931 165.096 288.899 165.411 291.055 170.928C293.204 176.444 294.198 197.419 294.632 205.707C295.066 213.996 290.747 237.736 292.525 244.422C294.303 251.1 297.531 256.253 299.484 259.83" stroke="#263238" stroke-width="0.700074" stroke-linecap="round" stroke-linejoin="round"/>
<path d="M197.322 177.585C197.322 177.585 196.3 173.504 194.956 172.979" stroke="#263238" stroke-width="0.700074" stroke-linecap="round" stroke-linejoin="round"/>
<path d="M198.512 194.976C198.512 194.976 199.422 199.526 200.423 202.011C201.424 204.497 199.863 208.088 199.863 208.088" stroke="#263238" stroke-width="0.700074" stroke-linecap="round" stroke-linejoin="round"/>
<path d="M203.553 200.905C203.385 204.881 207.347 209.53 208.306 208.872" stroke="#263238" stroke-width="0.700074" stroke-linecap="round" stroke-linejoin="round"/>
<path d="M223.694 177.586C223.694 177.586 227.937 170.711 232.018 170.375C236.093 170.039 240.797 175.821 243.31 175.282C245.831 174.743 248.988 171.04 253.209 170.361C257.438 169.682 259.419 171.719 262.772 171.887C266.133 172.055 266.469 167.574 270.494 166.958C274.52 166.342 275.864 168.387 278.552 168.877C281.24 169.367 281.913 167.28 284.09 166.069" stroke="#263238" stroke-width="0.700074" stroke-linecap="round" stroke-linejoin="round"/>
</svg>
