<svg width="305" height="280" viewBox="0 0 305 280" fill="none" xmlns="http://www.w3.org/2000/svg">
<path d="M138.26 0.785565C222.337 -6.70439 222.473 40.7297 260.356 84.9238C298.24 129.118 306.347 149.148 292.065 200.093C277.783 251.031 229.665 290.969 170.131 268.343C110.598 245.717 76.4968 267.448 38.9453 247.351C1.40068 227.253 -12.5422 188.434 14.9436 142.688C42.4293 96.9348 34.5937 10.0175 138.26 0.785565Z" fill="#75A9C8"/>
<path opacity="0.7" d="M138.26 0.785565C222.337 -6.70439 222.473 40.7297 260.356 84.9238C298.24 129.118 306.347 149.148 292.065 200.093C277.783 251.031 229.665 290.969 170.131 268.343C110.598 245.717 76.4968 267.448 38.9453 247.351C1.40068 227.253 -12.5422 188.434 14.9436 142.688C42.4293 96.9348 34.5937 10.0175 138.26 0.785565Z" fill="white"/>
<path d="M157.348 3.90178L143.518 6.81357C141.654 7.20616 140.46 9.03595 140.853 10.9005L143.765 24.7299C144.157 26.5945 145.987 27.7878 147.852 27.3952L161.681 24.4834C163.546 24.0908 164.739 22.261 164.346 20.3964L161.435 6.56704C161.042 4.70247 159.212 3.50919 157.348 3.90178Z" stroke="#263238" stroke-width="0.677824" stroke-linecap="round" stroke-linejoin="round"/>
<path d="M151.721 11.4478L153.484 19.8392" stroke="#263238" stroke-width="0.677824" stroke-linecap="round" stroke-linejoin="round"/>
<path d="M156.799 14.7554L148.407 16.5245" stroke="#263238" stroke-width="0.677824" stroke-linecap="round" stroke-linejoin="round"/>
<path d="M296.755 151.764L282.926 154.676C281.061 155.068 279.868 156.898 280.261 158.763L283.172 172.592C283.565 174.457 285.395 175.65 287.259 175.257L301.089 172.346C302.953 171.953 304.147 170.123 303.754 168.259L300.842 154.429C300.45 152.565 298.62 151.371 296.755 151.764Z" stroke="#263238" stroke-width="0.677824" stroke-linecap="round" stroke-linejoin="round"/>
<path d="M294.356 159.904L289.672 167.089" stroke="#263238" stroke-width="0.677824" stroke-linecap="round" stroke-linejoin="round"/>
<path d="M295.603 165.835L288.418 161.151" stroke="#263238" stroke-width="0.677824" stroke-linecap="round" stroke-linejoin="round"/>
<path d="M110.49 241.025L96.3804 240.211C94.4781 240.102 92.8471 241.555 92.7374 243.457L91.9239 257.566C91.8142 259.469 93.2674 261.1 95.1697 261.209L109.279 262.023C111.181 262.133 112.812 260.679 112.922 258.777L113.735 244.668C113.845 242.766 112.392 241.135 110.49 241.025Z" stroke="#263238" stroke-width="0.677824" stroke-linecap="round" stroke-linejoin="round"/>
<path d="M107.101 251.37L98.5337 250.875" stroke="#263238" stroke-width="0.677824" stroke-linecap="round" stroke-linejoin="round"/>
<path d="M25.7087 143.417L12.2931 138.973C10.4844 138.373 8.53228 139.354 7.93304 141.163L3.48848 154.578C2.88923 156.387 3.86975 158.339 5.67852 158.938L19.0941 163.383C20.9028 163.982 22.8549 163.002 23.4542 161.193L27.8987 147.777C28.498 145.969 27.5174 144.017 25.7087 143.417Z" stroke="#263238" stroke-width="0.677824" stroke-linecap="round" stroke-linejoin="round"/>
<path d="M21.0639 148.483L10.334 153.872" stroke="#263238" stroke-width="0.677824" stroke-linecap="round" stroke-linejoin="round"/>
<path d="M14.9089 146.267C15.2817 147.006 14.9834 147.907 14.2446 148.28C13.5058 148.653 12.6043 148.355 12.2315 147.616C11.8587 146.877 12.1569 145.975 12.8957 145.603C13.6346 145.23 14.5361 145.528 14.9089 146.267Z" stroke="#263238" stroke-width="0.677824" stroke-linecap="round" stroke-linejoin="round"/>
<path d="M19.1662 154.746C19.539 155.485 19.2408 156.387 18.5019 156.759C17.7631 157.132 16.8616 156.834 16.4888 156.095C16.116 155.356 16.4142 154.455 17.1531 154.082C17.8919 153.709 18.7934 154.007 19.1662 154.746Z" stroke="#263238" stroke-width="0.677824" stroke-linecap="round" stroke-linejoin="round"/>
<path d="M158.222 237.664C154.304 243.338 146.523 244.754 140.85 240.836C138.66 239.318 137.108 237.23 136.24 234.912C134.878 231.218 135.271 226.941 137.677 223.457C139.358 221.03 141.744 219.383 144.368 218.604C147.879 217.546 151.81 218.048 155.057 220.291C160.73 224.209 162.147 231.991 158.222 237.664Z" fill="#75A9C8"/>
<mask id="mask0_684_12978" style="mask-type:luminance" maskUnits="userSpaceOnUse" x="135" y="218" width="26" height="26">
<path d="M158.222 237.664C154.304 243.338 146.523 244.754 140.85 240.836C138.66 239.318 137.108 237.23 136.24 234.912C134.878 231.218 135.271 226.941 137.677 223.457C139.358 221.03 141.744 219.383 144.368 218.604C147.879 217.546 151.81 218.048 155.057 220.291C160.73 224.209 162.147 231.991 158.222 237.664Z" fill="white"/>
</mask>
<g mask="url(#mask0_684_12978)">
<path opacity="0.3" d="M156.595 236.532C153.294 241.304 146.753 242.497 141.975 239.196C137.196 235.895 136.01 229.354 139.311 224.575C142.612 219.804 149.153 218.611 153.931 221.912C158.703 225.213 159.896 231.754 156.595 236.532Z" fill="black"/>
<path d="M156.595 236.532C153.294 241.304 146.753 242.497 141.975 239.196C137.196 235.895 136.01 229.354 139.311 224.575C142.612 219.804 149.153 218.611 153.931 221.912C158.703 225.213 159.896 231.754 156.595 236.532Z" stroke="#263238" stroke-width="0.677824" stroke-linecap="round" stroke-linejoin="round"/>
<path d="M150.644 225.314L151.146 224.582L152.406 225.456L151.905 226.188C152.847 227.171 152.82 228.398 151.905 229.727L151.695 230.039L150.237 229.029L150.515 228.622C151.003 227.924 150.902 227.463 150.414 227.124C149.926 226.785 149.458 226.86 148.977 227.558C148.495 228.256 148.434 228.94 148.902 230.486C149.465 232.37 149.37 233.441 148.59 234.56C147.668 235.888 146.503 236.349 145.255 235.814L144.761 236.532L143.5 235.658L143.995 234.939C143.039 233.95 143.073 232.709 143.995 231.374L144.462 230.703L145.92 231.713L145.384 232.485C144.896 233.184 145.032 233.651 145.527 233.99C146.021 234.329 146.503 234.288 146.984 233.59C147.465 232.892 147.54 232.194 147.058 230.662C146.482 228.791 146.591 227.707 147.37 226.588C148.279 225.273 149.41 224.806 150.651 225.314H150.644Z" fill="#75A9C8" stroke="#263238" stroke-width="0.677824" stroke-linecap="round" stroke-linejoin="round"/>
<path opacity="0.2" d="M144.469 220.44C144.469 226.595 141.168 231.977 136.24 234.912C134.878 231.218 135.271 226.941 137.677 223.457C139.358 221.03 141.744 219.383 144.368 218.604C144.435 219.207 144.469 219.817 144.469 220.44Z" fill="black"/>
</g>
<path d="M158.222 237.664C154.304 243.338 146.523 244.754 140.85 240.836C138.66 239.318 137.108 237.23 136.24 234.912C134.878 231.218 135.271 226.941 137.677 223.457C139.358 221.03 141.744 219.383 144.368 218.604C147.879 217.546 151.81 218.048 155.057 220.291C160.73 224.209 162.147 231.991 158.222 237.664Z" stroke="#263238" stroke-width="0.677824" stroke-linecap="round" stroke-linejoin="round"/>
<path d="M130.119 232.547C137.019 232.547 142.612 226.954 142.612 220.055C142.612 213.155 137.019 207.562 130.119 207.562C123.22 207.562 117.627 213.155 117.627 220.055C117.627 226.954 123.22 232.547 130.119 232.547Z" fill="#75A9C8" stroke="#263238" stroke-width="0.677824" stroke-linecap="round" stroke-linejoin="round"/>
<path opacity="0.3" d="M130.12 230.561C135.922 230.561 140.626 225.857 140.626 220.055C140.626 214.252 135.922 209.548 130.12 209.548C124.317 209.548 119.613 214.252 119.613 220.055C119.613 225.857 124.317 230.561 130.12 230.561Z" fill="black"/>
<path d="M130.12 230.561C135.922 230.561 140.626 225.857 140.626 220.055C140.626 214.252 135.922 209.548 130.12 209.548C124.317 209.548 119.613 214.252 119.613 220.055C119.613 225.857 124.317 230.561 130.12 230.561Z" stroke="#263238" stroke-width="0.677824" stroke-linecap="round" stroke-linejoin="round"/>
<path d="M129.354 214.205V213.317H130.886V214.205C132.214 214.476 132.899 215.5 132.899 217.12V217.493H131.123V216.998C131.123 216.144 130.784 215.819 130.188 215.819C129.591 215.819 129.252 216.144 129.252 216.998C129.252 217.852 129.591 218.449 130.852 219.452C132.384 220.679 132.912 221.614 132.912 222.976C132.912 224.596 132.214 225.633 130.886 225.905V226.772H129.354V225.905C128.005 225.633 127.327 224.59 127.327 222.976V222.156H129.103V223.092C129.103 223.946 129.476 224.251 130.072 224.251C130.669 224.251 131.042 223.946 131.042 223.092C131.042 222.238 130.703 221.628 129.442 220.638C127.91 219.425 127.381 218.476 127.381 217.106C127.381 215.507 128.046 214.483 129.361 214.192L129.354 214.205Z" fill="#75A9C8" stroke="#263238" stroke-width="0.677824" stroke-linecap="round" stroke-linejoin="round"/>
<path d="M200.225 230.538C203.948 224.729 202.256 217.002 196.447 213.28C190.638 209.558 182.911 211.249 179.189 217.058C175.467 222.867 177.158 230.594 182.967 234.316C188.777 238.039 196.503 236.347 200.225 230.538Z" fill="#75A9C8" stroke="#263238" stroke-width="0.677824" stroke-linecap="round" stroke-linejoin="round"/>
<path opacity="0.3" d="M197.408 216.659C201.359 220.909 201.108 227.559 196.859 231.51C192.609 235.462 185.959 235.211 182.007 230.961C178.056 226.711 178.306 220.062 182.556 216.11C186.806 212.158 193.456 212.409 197.408 216.659Z" fill="black"/>
<path d="M197.408 216.659C201.359 220.909 201.108 227.559 196.859 231.51C192.609 235.462 185.959 235.211 182.007 230.961C178.056 226.711 178.306 220.062 182.556 216.11C186.806 212.158 193.456 212.409 197.408 216.659Z" stroke="#263238" stroke-width="0.677824" stroke-linecap="round" stroke-linejoin="round"/>
<path d="M185.172 220.055L184.569 219.404L185.694 218.36L186.298 219.011C187.457 218.306 188.65 218.591 189.754 219.777L190.012 220.055L188.711 221.261L188.372 220.902C187.789 220.279 187.321 220.272 186.887 220.679C186.453 221.085 186.42 221.553 187.002 222.177C187.585 222.8 188.236 223.003 189.849 222.881C191.808 222.739 192.832 223.064 193.76 224.061C194.865 225.247 195.055 226.487 194.269 227.586L194.858 228.223L193.733 229.267L193.144 228.629C191.971 229.348 190.764 229.05 189.666 227.863L189.11 227.267L190.412 226.06L191.049 226.745C191.632 227.369 192.113 227.342 192.547 226.935C192.981 226.528 193.049 226.047 192.473 225.423C191.89 224.8 191.225 224.583 189.626 224.718C187.68 224.874 186.643 224.535 185.715 223.539C184.623 222.366 184.413 221.167 185.179 220.062L185.172 220.055Z" fill="#75A9C8" stroke="#263238" stroke-width="0.677824" stroke-linecap="round" stroke-linejoin="round"/>
<path opacity="0.2" d="M184.569 169.516C184.569 169.516 184.515 195.436 184.569 196.948C184.624 198.46 186.582 207.563 186.582 207.563L180.292 219.16L185.708 223.525L196.248 213.162C196.248 213.162 205.223 218.706 206.863 226.637C208.503 234.567 218.271 240.342 228.404 262.304C238.538 284.265 250.095 213.162 250.095 213.162L218.826 173.794L184.563 169.503L184.569 169.516Z" fill="black"/>
<path d="M280.156 30.2642L270.578 123.723L264.688 181.216L182.373 172.783L166.356 171.143L156.101 170.092L165.19 81.3653L171.569 19.1411L280.156 30.2642Z" fill="white"/>
<mask id="mask1_684_12978" style="mask-type:luminance" maskUnits="userSpaceOnUse" x="156" y="19" width="125" height="163">
<path d="M280.156 30.2642L270.578 123.723L264.688 181.216L182.373 172.783L166.356 171.143L156.101 170.092L165.19 81.3653L171.569 19.1411L280.156 30.2642Z" fill="white"/>
</mask>
<g mask="url(#mask1_684_12978)">
<path d="M248.617 33.7548L201.745 28.9491C200.864 28.8609 200.078 29.4981 199.99 30.3793C199.902 31.2604 200.539 32.0467 201.42 32.1348L248.292 36.9406C249.173 37.0287 249.959 36.3916 250.047 35.5104C250.135 34.6292 249.498 33.8429 248.617 33.7548Z" fill="#263238"/>
<path d="M236.233 39.0965L212.793 36.697C212.353 36.6495 211.96 36.9749 211.912 37.4087C211.865 37.8493 212.19 38.2424 212.624 38.2899L236.063 40.6894C236.504 40.7368 236.897 40.4115 236.944 39.9776C236.992 39.5371 236.666 39.1439 236.233 39.0965Z" fill="#263238"/>
<path d="M262.017 108.078L185.938 100.283C185.498 100.236 185.105 100.561 185.057 100.995C185.01 101.436 185.335 101.829 185.769 101.876L261.848 109.671C262.289 109.719 262.682 109.393 262.729 108.96C262.777 108.526 262.451 108.126 262.017 108.078Z" fill="#263238"/>
<path d="M261.427 113.806L172.965 104.743C172.524 104.696 172.131 105.021 172.083 105.455C172.036 105.896 172.361 106.289 172.795 106.336L261.258 115.399C261.699 115.446 262.092 115.121 262.139 114.687C262.187 114.246 261.861 113.853 261.427 113.806Z" fill="#263238"/>
<path d="M236.07 116.992L172.382 110.465C171.941 110.417 171.548 110.742 171.501 111.176C171.453 111.617 171.779 112.01 172.212 112.057L235.901 118.585C236.341 118.632 236.734 118.307 236.782 117.873C236.829 117.439 236.504 117.039 236.07 116.992Z" fill="#263238"/>
<path d="M171.382 116.653L168.794 141.912L257.977 151.049L260.565 125.79L171.382 116.653Z" fill="#BFBFBF" stroke="#263238" stroke-width="0.677824" stroke-miterlimit="10"/>
<path d="M212.273 87.4228C220.697 80.4041 221.837 67.8854 214.818 59.4613C207.799 51.0373 195.281 49.898 186.857 56.9166C178.433 63.9353 177.293 76.454 184.312 84.8781C191.331 93.3021 203.849 94.4414 212.273 87.4228Z" fill="#75A9C8"/>
<mask id="mask2_684_12978" style="mask-type:luminance" maskUnits="userSpaceOnUse" x="179" y="52" width="41" height="41">
<path d="M212.273 87.4228C220.697 80.4041 221.837 67.8854 214.818 59.4613C207.799 51.0373 195.281 49.898 186.857 56.9166C178.433 63.9353 177.293 76.454 184.312 84.8781C191.331 93.3021 203.849 94.4414 212.273 87.4228Z" fill="white"/>
</mask>
<g mask="url(#mask2_684_12978)">
<path opacity="0.5" d="M212.273 87.4228C220.697 80.4041 221.837 67.8854 214.818 59.4613C207.799 51.0373 195.281 49.898 186.857 56.9166C178.433 63.9353 177.293 76.454 184.312 84.8781C191.331 93.3021 203.849 94.4414 212.273 87.4228Z" fill="white"/>
</g>
<path d="M212.273 87.4228C220.697 80.4041 221.837 67.8854 214.818 59.4613C207.799 51.0373 195.281 49.898 186.857 56.9166C178.433 63.9353 177.293 76.454 184.312 84.8781C191.331 93.3021 203.849 94.4414 212.273 87.4228Z" stroke="#263238" stroke-width="0.677824" stroke-miterlimit="10"/>
<path d="M200.139 72.1136L216.651 80.4238C217.586 78.492 218.203 76.3704 218.433 74.1132C218.955 69.016 217.403 64.1831 214.468 60.4551L200.139 72.1204V72.1136Z" fill="white"/>
<path d="M200.254 71.2255L214.081 59.9737C212.041 57.5538 209.404 55.6356 206.361 54.4697L203.866 61.3157L200.26 71.2255H200.254Z" fill="#75A9C8"/>
<path d="M201.813 53.3516L200.139 69.7142L205.772 54.2531C204.511 53.8193 203.189 53.5142 201.82 53.3516H201.813Z" fill="#757575"/>
<path d="M199.278 71.9711L201.189 53.2903C190.9 52.4024 181.756 59.933 180.698 70.2427C180.353 73.6047 180.915 76.8447 182.169 79.7322L199.271 71.9644L199.278 71.9711Z" fill="#999999"/>
<path d="M197.637 91.0455C205.582 91.8589 212.875 87.6428 216.366 80.9798L199.562 72.5273L182.434 80.3088C185.186 86.0974 190.798 90.3473 197.637 91.0455Z" fill="#BFBFBF"/>
<path d="M231.427 59.2901L229.168 59.0587C228.934 59.0346 228.724 59.2053 228.7 59.4399L228.468 61.6988C228.444 61.9334 228.615 62.1431 228.85 62.1672L231.109 62.3986C231.343 62.4226 231.553 62.2519 231.577 62.0173L231.808 59.7584C231.832 59.5238 231.662 59.3141 231.427 59.2901Z" fill="#75A9C8" stroke="#263238" stroke-width="0.677824" stroke-miterlimit="10"/>
<path d="M262.898 63.6613L233.718 60.6721C233.521 60.6518 233.379 60.4756 233.399 60.279C233.42 60.0824 233.596 59.9401 233.793 59.9604L262.973 62.9496C263.169 62.97 263.312 63.1462 263.291 63.3428C263.271 63.5393 263.095 63.6817 262.898 63.6613Z" fill="#263238"/>
<path d="M259.882 64.9221L233.555 62.2244C233.359 62.2041 233.216 62.0278 233.237 61.8313C233.257 61.6347 233.433 61.4923 233.63 61.5127L259.957 64.2104C260.153 64.2308 260.296 64.407 260.275 64.6035C260.255 64.8001 260.079 64.9425 259.882 64.9221Z" fill="#263238"/>
<path d="M230.714 66.251L228.455 66.0196C228.22 65.9956 228.011 66.1663 227.987 66.4009L227.755 68.6598C227.731 68.8944 227.902 69.1041 228.136 69.1281L230.395 69.3595C230.63 69.3836 230.84 69.2129 230.864 68.9783L231.095 66.7194C231.119 66.4848 230.948 66.2751 230.714 66.251Z" fill="#757575" stroke="#263238" stroke-width="0.677824" stroke-linecap="round" stroke-linejoin="round"/>
<path d="M262.186 70.6223L233.006 67.6331C232.809 67.6127 232.667 67.4365 232.687 67.2399C232.707 67.0434 232.884 66.901 233.08 66.9214L262.26 69.9106C262.457 69.9309 262.599 70.1071 262.579 70.3037C262.559 70.5003 262.382 70.6426 262.186 70.6223Z" fill="#263238"/>
<path d="M259.17 71.8831L232.843 69.1853C232.647 69.165 232.504 68.9888 232.525 68.7922C232.545 68.5956 232.721 68.4533 232.918 68.4736L259.244 71.1714C259.441 71.1917 259.583 71.3679 259.563 71.5645C259.543 71.7611 259.366 71.9034 259.17 71.8831Z" fill="#263238"/>
<path d="M230.001 73.212L227.742 72.9805C227.508 72.9565 227.298 73.1272 227.274 73.3618L227.043 75.6207C227.019 75.8553 227.189 76.065 227.424 76.089L229.683 76.3205C229.917 76.3445 230.127 76.1738 230.151 75.9392L230.383 73.6803C230.407 73.4457 230.236 73.236 230.001 73.212Z" fill="#999999" stroke="#263238" stroke-width="0.677824" stroke-linecap="round" stroke-linejoin="round"/>
<path d="M261.468 77.5837L232.288 74.5945C232.091 74.5742 231.949 74.3979 231.969 74.2014C231.989 74.0048 232.166 73.8625 232.362 73.8828L261.542 76.872C261.739 76.8923 261.881 77.0686 261.861 77.2651C261.841 77.4617 261.664 77.604 261.468 77.5837Z" fill="#263238"/>
<path d="M258.452 78.8513L232.125 76.1536C231.928 76.1333 231.786 75.957 231.806 75.7604C231.827 75.5639 232.003 75.4215 232.2 75.4419L258.526 78.1396C258.723 78.1599 258.865 78.3362 258.845 78.5327C258.824 78.7293 258.648 78.8717 258.452 78.8513Z" fill="#263238"/>
<path d="M229.288 80.1798L227.029 79.9483C226.794 79.9243 226.585 80.095 226.56 80.3296L226.329 82.5885C226.305 82.8231 226.476 83.0328 226.71 83.0568L228.969 83.2882C229.204 83.3123 229.414 83.1416 229.438 82.907L229.669 80.6481C229.693 80.4135 229.522 80.2038 229.288 80.1798Z" fill="#BFBFBF" stroke="#263238" stroke-width="0.677824" stroke-miterlimit="10"/>
<path d="M260.756 84.5515L231.576 81.5623C231.379 81.5419 231.237 81.3657 231.257 81.1691C231.277 80.9726 231.454 80.8302 231.65 80.8506L260.83 83.8398C261.027 83.8601 261.169 84.0363 261.149 84.2329C261.129 84.4295 260.953 84.5718 260.756 84.5515Z" fill="#263238"/>
<path d="M257.739 85.8123L231.413 83.1145C231.216 83.0942 231.074 82.918 231.094 82.7214C231.115 82.5248 231.291 82.3825 231.487 82.4028L257.814 85.1006C258.011 85.1209 258.153 85.2971 258.133 85.4937C258.112 85.6903 257.936 85.8326 257.739 85.8123Z" fill="#263238"/>
<path d="M228.569 87.1397L226.31 86.9083C226.075 86.8842 225.866 87.0549 225.841 87.2895L225.61 89.5484C225.586 89.783 225.757 89.9927 225.991 90.0168L228.25 90.2482C228.485 90.2722 228.694 90.1015 228.719 89.8669L228.95 87.608C228.974 87.3734 228.803 87.1638 228.569 87.1397Z" fill="white" stroke="#263238" stroke-width="0.677824" stroke-linecap="round" stroke-linejoin="round"/>
<path d="M260.044 91.5129L230.864 88.5237C230.667 88.5034 230.525 88.3271 230.545 88.1306C230.565 87.934 230.742 87.7917 230.938 87.812L260.119 90.8012C260.315 90.8215 260.458 90.9978 260.437 91.1943C260.417 91.3909 260.241 91.5332 260.044 91.5129Z" fill="#263238"/>
<path d="M257.028 92.7737L230.702 90.076C230.505 90.0556 230.363 89.8794 230.383 89.6828C230.403 89.4862 230.58 89.3439 230.776 89.3642L257.103 92.062C257.299 92.0823 257.442 92.2585 257.421 92.4551C257.401 92.6517 257.225 92.794 257.028 92.7737Z" fill="#263238"/>
<path d="M247.062 142.531L248.728 142.701L249.704 133.173L248.038 133.003L247.062 142.531Z" fill="#757575" stroke="#263238" stroke-width="0.677824" stroke-linecap="round" stroke-linejoin="round"/>
<path d="M247.207 141.083L248.872 141.253L249.331 136.769L247.666 136.599L247.207 141.083Z" fill="#75A9C8" stroke="#263238" stroke-width="0.677824" stroke-miterlimit="10"/>
<path d="M251.059 140.499L252.725 140.669L253.701 131.142L252.035 130.971L251.059 140.499Z" fill="#757575" stroke="#263238" stroke-width="0.677824" stroke-linecap="round" stroke-linejoin="round"/>
<path d="M251.763 133.497L251.303 137.981L252.969 138.152L253.428 133.668L251.763 133.497Z" fill="#75A9C8" stroke="#263238" stroke-width="0.677824" stroke-miterlimit="10"/>
<path d="M254.625 142.709L256.29 142.88L257.266 133.352L255.601 133.181L254.625 142.709Z" fill="#757575" stroke="#263238" stroke-width="0.677824" stroke-linecap="round" stroke-linejoin="round"/>
<path d="M254.984 139.134L256.65 139.305L257.109 134.821L255.444 134.65L254.984 139.134Z" fill="#75A9C8" stroke="#263238" stroke-width="0.677824" stroke-miterlimit="10"/>
<path d="M243.506 140.258L245.171 140.429L246.147 130.901L244.482 130.73L243.506 140.258Z" fill="#757575" stroke="#263238" stroke-width="0.677824" stroke-linecap="round" stroke-linejoin="round"/>
<path d="M243.65 138.817L245.316 138.988L245.775 134.504L244.11 134.333L243.65 138.817Z" fill="#75A9C8" stroke="#263238" stroke-width="0.677824" stroke-miterlimit="10"/>
<path d="M239.469 142.682L241.134 142.853L242.11 133.325L240.445 133.155L239.469 142.682Z" fill="#757575" stroke="#263238" stroke-width="0.677824" stroke-linecap="round" stroke-linejoin="round"/>
<path d="M239.575 141.62L241.241 141.791L241.7 137.307L240.035 137.136L239.575 141.62Z" fill="#75A9C8" stroke="#263238" stroke-width="0.677824" stroke-miterlimit="10"/>
<path d="M235.967 139.844L237.633 140.015L238.609 130.487L236.944 130.317L235.967 139.844Z" fill="#757575" stroke="#263238" stroke-width="0.677824" stroke-linecap="round" stroke-linejoin="round"/>
<path d="M235.998 139.492L237.663 139.663L238.123 135.179L236.457 135.008L235.998 139.492Z" fill="#75A9C8" stroke="#263238" stroke-width="0.677824" stroke-miterlimit="10"/>
<path d="M231.703 144.451L233.368 144.622L234.344 135.094L232.679 134.924L231.703 144.451Z" fill="#757575" stroke="#263238" stroke-width="0.677824" stroke-linecap="round" stroke-linejoin="round"/>
<path d="M231.733 144.091L233.399 144.262L233.858 139.778L232.193 139.607L231.733 144.091Z" fill="#75A9C8" stroke="#263238" stroke-width="0.677824" stroke-miterlimit="10"/>
<path d="M228.569 138.047L230.234 138.218L231.211 128.69L229.545 128.519L228.569 138.047Z" fill="#757575" stroke="#263238" stroke-width="0.677824" stroke-linecap="round" stroke-linejoin="round"/>
<path d="M228.72 136.614L230.385 136.785L230.845 132.301L229.179 132.13L228.72 136.614Z" fill="#75A9C8" stroke="#263238" stroke-width="0.677824" stroke-miterlimit="10"/>
<path d="M224.868 137.117L226.534 137.288L227.51 127.76L225.844 127.59L224.868 137.117Z" fill="#757575" stroke="#263238" stroke-width="0.677824" stroke-linecap="round" stroke-linejoin="round"/>
<path d="M225.242 133.529L226.907 133.699L227.367 129.215L225.701 129.045L225.242 133.529Z" fill="#75A9C8" stroke="#263238" stroke-width="0.677824" stroke-miterlimit="10"/>
<path d="M220.508 142.709L222.173 142.88L223.15 133.352L221.484 133.181L220.508 142.709Z" fill="#757575" stroke="#263238" stroke-width="0.677824" stroke-linecap="round" stroke-linejoin="round"/>
<path d="M220.92 138.762L222.585 138.933L223.045 134.449L221.379 134.278L220.92 138.762Z" fill="#75A9C8" stroke="#263238" stroke-width="0.677824" stroke-miterlimit="10"/>
<path d="M217.185 138.137L218.851 138.308L219.827 128.78L218.162 128.609L217.185 138.137Z" fill="#757575" stroke="#263238" stroke-width="0.677824" stroke-linecap="round" stroke-linejoin="round"/>
<path d="M217.368 136.345L219.034 136.516L219.493 132.032L217.828 131.861L217.368 136.345Z" fill="#75A9C8" stroke="#263238" stroke-width="0.677824" stroke-miterlimit="10"/>
<path d="M213.176 140.244L214.842 140.415L215.818 130.887L214.152 130.716L213.176 140.244Z" fill="#757575" stroke="#263238" stroke-width="0.677824" stroke-linecap="round" stroke-linejoin="round"/>
<path d="M213.334 138.804L215 138.975L215.459 134.491L213.794 134.32L213.334 138.804Z" fill="#75A9C8" stroke="#263238" stroke-width="0.677824" stroke-miterlimit="10"/>
<path d="M208.989 144.141L210.654 144.312L211.63 134.784L209.965 134.614L208.989 144.141Z" fill="#757575" stroke="#263238" stroke-width="0.677824" stroke-linecap="round" stroke-linejoin="round"/>
<path d="M208.995 144.133L210.66 144.304L211.12 139.82L209.454 139.649L208.995 144.133Z" fill="#75A9C8" stroke="#263238" stroke-width="0.677824" stroke-miterlimit="10"/>
<path d="M205.858 137.717L207.523 137.887L208.499 128.359L206.834 128.189L205.858 137.717Z" fill="#757575" stroke="#263238" stroke-width="0.677824" stroke-linecap="round" stroke-linejoin="round"/>
<path d="M205.971 136.641L207.636 136.812L208.096 132.327L206.43 132.157L205.971 136.641Z" fill="#75A9C8" stroke="#263238" stroke-width="0.677824" stroke-miterlimit="10"/>
<path d="M202.535 133.152L204.201 133.322L205.177 123.795L203.511 123.624L202.535 133.152Z" fill="#757575" stroke="#263238" stroke-width="0.677824" stroke-linecap="round" stroke-linejoin="round"/>
<path d="M202.648 132.062L204.314 132.232L204.773 127.748L203.108 127.578L202.648 132.062Z" fill="#75A9C8" stroke="#263238" stroke-width="0.677824" stroke-miterlimit="10"/>
<path d="M198.27 137.8L199.936 137.971L200.912 128.443L199.246 128.272L198.27 137.8Z" fill="#757575" stroke="#263238" stroke-width="0.677824" stroke-linecap="round" stroke-linejoin="round"/>
<path d="M198.63 134.218L200.295 134.388L200.755 129.904L199.089 129.733L198.63 134.218Z" fill="#75A9C8" stroke="#263238" stroke-width="0.677824" stroke-miterlimit="10"/>
<path d="M193.964 142.799L195.63 142.969L196.606 133.441L194.941 133.271L193.964 142.799Z" fill="#757575" stroke="#263238" stroke-width="0.677824" stroke-linecap="round" stroke-linejoin="round"/>
<path d="M194.408 138.5L196.074 138.671L196.533 134.187L194.868 134.016L194.408 138.5Z" fill="#75A9C8" stroke="#263238" stroke-width="0.677824" stroke-miterlimit="10"/>
<path d="M190.772 137.029L192.437 137.199L193.413 127.671L191.748 127.501L190.772 137.029Z" fill="#757575" stroke="#263238" stroke-width="0.677824" stroke-linecap="round" stroke-linejoin="round"/>
<path d="M190.909 135.601L192.575 135.772L193.034 131.288L191.369 131.117L190.909 135.601Z" fill="#75A9C8" stroke="#263238" stroke-width="0.677824" stroke-miterlimit="10"/>
<path d="M187.168 135.065L188.834 135.236L189.81 125.708L188.145 125.537L187.168 135.065Z" fill="#757575" stroke="#263238" stroke-width="0.677824" stroke-linecap="round" stroke-linejoin="round"/>
<path d="M187.587 131.112L189.252 131.283L189.712 126.799L188.046 126.628L187.587 131.112Z" fill="#75A9C8" stroke="#263238" stroke-width="0.677824" stroke-miterlimit="10"/>
<path d="M183.12 137.655L184.786 137.825L185.762 128.297L184.097 128.127L183.12 137.655Z" fill="#757575" stroke="#263238" stroke-width="0.677824" stroke-linecap="round" stroke-linejoin="round"/>
<path d="M183.126 137.646L184.792 137.817L185.251 133.333L183.585 133.162L183.126 137.646Z" fill="#75A9C8" stroke="#263238" stroke-width="0.677824" stroke-miterlimit="10"/>
<path d="M179.676 134.287L181.342 134.458L182.318 124.93L180.652 124.76L179.676 134.287Z" fill="#757575" stroke="#263238" stroke-width="0.677824" stroke-linecap="round" stroke-linejoin="round"/>
<path d="M179.751 133.577L181.417 133.748L181.876 129.263L180.211 129.093L179.751 133.577Z" fill="#75A9C8" stroke="#263238" stroke-width="0.677824" stroke-miterlimit="10"/>
<path d="M175.797 135.19L177.462 135.36L178.439 125.833L176.773 125.662L175.797 135.19Z" fill="#757575" stroke="#263238" stroke-width="0.677824" stroke-linecap="round" stroke-linejoin="round"/>
<path d="M175.834 134.831L177.5 135.001L177.959 130.517L176.294 130.347L175.834 134.831Z" fill="#75A9C8" stroke="#263238" stroke-width="0.677824" stroke-miterlimit="10"/>
<path d="M172.17 133.585L173.835 133.756L174.812 124.228L173.146 124.057L172.17 133.585Z" fill="#757575" stroke="#263238" stroke-width="0.677824" stroke-linecap="round" stroke-linejoin="round"/>
<path d="M172.652 128.922L174.317 129.093L174.777 124.609L173.111 124.438L172.652 128.922Z" fill="#75A9C8" stroke="#263238" stroke-width="0.677824" stroke-miterlimit="10"/>
<path d="M257.286 154.211L181.207 146.416C180.767 146.369 180.374 146.694 180.326 147.128C180.279 147.569 180.604 147.962 181.038 148.009L257.117 155.804C257.557 155.852 257.95 155.526 257.998 155.092C258.045 154.659 257.72 154.259 257.286 154.211Z" fill="#263238"/>
<path d="M256.703 159.939L168.241 150.877C167.8 150.829 167.407 151.155 167.359 151.588C167.312 152.029 167.637 152.422 168.071 152.47L256.534 161.532C256.974 161.58 257.368 161.254 257.415 160.82C257.462 160.38 257.137 159.987 256.703 159.939Z" fill="#263238"/>
<path d="M218.955 161.864L167.65 156.604C167.21 156.556 166.817 156.882 166.769 157.315C166.722 157.756 167.047 158.149 167.481 158.197L218.785 163.457C219.226 163.504 219.619 163.179 219.667 162.745C219.714 162.311 219.389 161.911 218.955 161.864Z" fill="#263238"/>
<path opacity="0.2" d="M265.678 110.708C263.054 110.498 262.146 114.68 262.146 114.68C262.146 114.68 257.998 109.244 258.655 96.4604C258.655 96.4604 256.629 90.7938 251.199 94.2168C245.777 97.6398 240.144 109.705 241.486 122.848L230.932 87.8113C227.286 88.5841 219.877 93.4847 221.829 117.148L210.313 104.974C210.313 104.974 207.195 103.971 205.433 106.729C203.67 109.495 204.511 129.247 205.968 136.635C207.432 144.03 203.711 158.868 203.711 158.868C203.711 158.868 199.739 142.058 192.554 137.801L165.19 81.3652L156.101 170.092L166.356 171.143L182.827 163.124C182.732 166.832 182.644 170.241 182.373 172.783L264.688 181.215L270.578 123.722C268.579 116.558 266.667 110.783 265.678 110.708Z" fill="black"/>
</g>
<path d="M280.156 30.2642L270.578 123.723L264.688 181.216L182.373 172.783L166.356 171.143L156.101 170.092L165.19 81.3653L171.569 19.1411L280.156 30.2642Z" stroke="#263238" stroke-width="0.677824" stroke-linecap="round" stroke-linejoin="round"/>
<path d="M278.799 270.864L230.674 279.052C230.674 279.052 222.296 234.553 217.3 227.545C212.305 220.529 213.22 217.648 210.793 212.924C209.329 210.07 201.988 204.749 196.227 199.496H196.22C195.719 199.042 195.231 198.588 194.763 198.134C194.559 197.951 194.37 197.754 194.18 197.571C193.414 196.812 192.702 196.073 192.072 195.348C191.841 195.09 191.624 194.833 191.421 194.575C190.221 193.091 189.374 191.701 189.089 190.447C189.069 190.38 189.056 190.312 189.049 190.237C189.028 190.149 189.015 190.068 189.008 189.986C188.879 188.936 188.744 187.736 188.608 186.435C188.581 186.177 188.554 185.906 188.52 185.635C188.507 185.526 188.493 185.425 188.479 185.309C188.364 184.225 188.235 183.073 188.086 181.886C187.937 180.646 187.774 179.358 187.585 178.064C187.524 177.616 187.463 177.169 187.388 176.715C187.388 176.708 187.388 176.701 187.381 176.701C187.307 176.2 187.225 175.698 187.144 175.19L186.92 173.888C186.907 173.814 186.887 173.746 186.88 173.685C186.785 173.176 186.69 172.682 186.595 172.18C186.575 172.126 186.568 172.072 186.561 172.011C186.466 171.57 186.378 171.136 186.276 170.696C186.066 169.713 185.829 168.75 185.572 167.815C185.063 165.951 184.467 164.209 183.775 162.663C180.305 154.916 184.819 157.715 182.101 137.78C182.101 137.78 184.101 133.158 189.801 136.852C190.242 137.137 190.662 137.448 191.075 137.78H191.082C192.228 138.702 193.244 139.794 194.112 141.02C195.244 142.613 196.125 144.437 196.729 146.416C197.63 149.364 197.921 152.665 197.501 156.109C197.501 156.109 201.785 170.79 204.042 174.132C206.306 177.474 215.633 158.278 215.03 156.041C214.908 155.594 214.738 154.502 214.548 153.004C214.508 152.672 214.467 152.32 214.42 151.947C214.379 151.574 214.332 151.188 214.291 150.788C214.264 150.598 214.243 150.395 214.216 150.198C214.21 150.117 214.203 150.036 214.189 149.961C214.108 149.195 214.013 148.382 213.925 147.541C213.905 147.304 213.877 147.08 213.85 146.85C213.81 146.45 213.769 146.036 213.728 145.63C213.715 145.569 213.715 145.501 213.708 145.426C213.681 145.196 213.654 144.959 213.633 144.715C213.579 144.24 213.532 143.759 213.484 143.278C213.437 142.864 213.403 142.451 213.362 142.037C213.281 141.258 213.206 140.478 213.132 139.726C213.078 139.163 213.023 138.607 212.976 138.065C212.962 137.943 212.949 137.821 212.942 137.706C212.657 134.723 212.434 132.27 212.352 131.226C212.352 131.226 205.567 121.181 204.869 116.449C204.171 111.711 204.232 106.736 207.072 104.709C213.796 99.924 211.83 107.638 214.84 110.83C217.85 114.036 222.465 119.256 225.082 120.889C227.495 122.421 229.65 128.372 229.955 129.24C229.61 127.938 226.16 115.141 226.085 112.565C225.997 109.847 223.923 95.5114 227.447 90.3667C230.965 85.2288 235.656 89.2144 236.09 90.2311C236.524 91.2479 236.652 105.136 237.893 109.007C239.14 112.87 244.325 128.982 244.325 128.982C244.325 128.982 244.542 113.311 245.715 106.296C246.881 99.2869 249.931 93.7965 252.913 93.4847C255.896 93.1729 258.654 96.4603 258.654 96.4603C258.654 96.4603 257.475 107.644 257.814 110.227C258.146 112.803 257.326 122.136 258.743 127.152C258.743 127.152 258.58 113.792 260.654 112.084C262.735 110.376 264.511 109.556 265.677 110.708C266.836 111.86 267.093 119.771 268.28 124.529C269.473 129.294 269.317 135.754 270.096 143.176C270.876 150.598 273.946 160.901 273.336 166.791C272.726 172.668 270.849 187.289 269.337 195.863C267.825 204.444 263.969 216.184 263.969 216.184C263.969 216.184 265.724 222.454 265.385 228.046C265.04 233.638 278.799 270.864 278.799 270.864Z" fill="white"/>
<path opacity="0.4" d="M237.9 109C238.822 111.86 241.899 121.431 243.438 126.21C243.438 126.21 236.707 131.158 236.876 135.747C237.052 140.336 235.643 149.615 232.626 149.351C229.61 149.093 229.881 129.789 228.891 126.549C229.502 127.938 229.901 129.077 229.983 129.301C229.759 128.467 226.167 115.188 226.092 112.558C226.072 111.942 225.95 110.708 225.807 109.115V109.081C225.807 109.081 232.497 102.683 237.405 106.6C237.554 107.583 237.71 108.403 237.9 108.993V109Z" fill="#75A9C8"/>
<path opacity="0.4" d="M257.882 114.517C254.751 117.486 250.026 122.739 249.43 127.803C249.43 127.803 251.179 141.935 250.433 148.103L244.326 128.982C244.326 128.982 244.543 113.311 245.715 106.295C245.743 106.105 245.783 105.909 245.817 105.712C248.813 104.18 252.921 102.811 258.079 102.716C257.842 105.739 257.652 108.979 257.815 110.22C257.916 111.06 257.91 112.619 257.889 114.517H257.882Z" fill="#75A9C8"/>
<path opacity="0.4" d="M260.655 112.084C260.655 112.084 260.641 112.104 260.634 112.104C260.56 112.159 260.377 112.301 260.112 112.525C260.282 112.213 260.458 111.915 260.648 111.644L260.661 112.084H260.655Z" fill="#75A9C8"/>
<path opacity="0.4" d="M262.247 151.174C262.247 151.174 258.221 136.072 258.153 123.912C258.126 119.411 258.641 115.31 260.099 112.538C260.268 112.219 260.444 111.921 260.634 111.65L260.648 112.09C261.509 111.386 262.308 110.83 263.047 110.504C261.915 112.267 260.614 115.717 262.119 121.322C264.477 130.107 262.424 140.83 262.241 151.181L262.247 151.174Z" fill="#75A9C8"/>
<path opacity="0.4" d="M206.713 179.954C206.713 179.954 207.798 194.344 196.228 199.503C195.726 199.049 195.245 198.594 194.77 198.14C194.567 197.95 194.377 197.761 194.187 197.578C193.421 196.819 192.71 196.08 192.079 195.354C191.849 195.09 191.632 194.832 191.429 194.582C190.229 193.097 189.382 191.708 189.097 190.454C189.076 190.386 189.063 190.311 189.056 190.244C189.036 190.156 189.022 190.074 189.015 189.993C188.887 188.942 188.751 187.742 188.616 186.441C188.588 186.183 188.561 185.912 188.527 185.641C188.514 185.533 188.5 185.431 188.494 185.316C188.372 184.231 188.243 183.079 188.1 181.893C187.951 180.652 187.789 179.365 187.599 178.07C187.531 177.623 187.47 177.168 187.402 176.721V176.707C187.328 176.206 187.246 175.698 187.165 175.196C187.09 174.762 187.016 174.328 186.941 173.888C186.928 173.82 186.914 173.752 186.901 173.684C186.806 173.183 186.711 172.681 186.609 172.18C186.596 172.125 186.582 172.064 186.575 172.01C186.487 171.57 186.392 171.129 186.297 170.695C186.074 169.712 185.843 168.75 185.586 167.814C190.161 163.409 200.721 166.174 195.611 155.973C195.611 155.973 198.186 147.242 191.09 137.773C195.943 141.691 198.43 148.564 197.509 156.108C197.509 156.108 201.792 170.783 204.05 174.132C206.314 177.473 215.64 158.277 215.03 156.041C214.915 155.6 214.746 154.502 214.556 153.004C214.515 152.672 214.475 152.319 214.427 151.947C214.38 151.574 214.339 151.187 214.292 150.788C214.264 150.598 214.244 150.401 214.224 150.205C214.217 150.123 214.21 150.042 214.197 149.967C214.115 149.195 214.027 148.388 213.932 147.541C213.912 147.31 213.885 147.08 213.858 146.849C213.817 146.449 213.776 146.043 213.736 145.629C213.729 145.568 213.722 145.5 213.715 145.426C213.695 145.195 213.661 144.958 213.641 144.707C213.587 144.233 213.546 143.752 213.492 143.27C213.451 142.857 213.41 142.443 213.37 142.03C213.295 141.251 213.214 140.471 213.146 139.719C213.092 139.156 213.038 138.593 212.983 138.065C212.97 137.943 212.963 137.821 212.949 137.699C213.139 138.587 216.576 154.949 218.535 158.759C220.548 162.683 212 183.337 206.72 179.947L206.713 179.954Z" fill="#75A9C8"/>
<path opacity="0.4" d="M269.337 195.863C267.826 204.444 263.976 216.184 263.976 216.184C263.976 216.184 265.731 222.454 265.386 228.046C265.291 229.551 266.226 233.347 267.623 238.091C267.216 237.048 262.898 225.85 262.966 221.946C263.047 217.845 261.881 216.713 259.597 211.677C257.32 206.634 253.829 207.196 253.829 207.196C253.829 207.196 252.487 219.763 249.328 211.507C246.176 203.245 245.566 193.647 253.517 160.298C253.517 160.298 254.717 164.48 253.714 176.904C252.704 189.336 255.679 193.091 255.679 193.091C255.679 193.091 262.105 182.51 266.247 168.445C266.247 168.445 265.223 182.944 264.301 189.552C263.386 196.154 267.562 181.9 270.476 173.088C273.215 164.825 273.316 161.68 272.272 155.797C273.045 159.945 273.628 163.897 273.33 166.784C272.72 172.668 270.835 187.282 269.324 195.856L269.337 195.863Z" fill="#75A9C8"/>
<path opacity="0.4" d="M214.956 223.81C217.301 227.538 223.042 232.465 226.465 246.096C229.888 259.727 227.733 274.646 227.733 274.646L214.956 223.803V223.81Z" fill="#75A9C8"/>
<path opacity="0.2" d="M196.729 146.416C196.729 146.416 184.725 152.496 183.776 162.664C180.306 154.916 184.82 157.716 182.102 137.781C182.102 137.781 184.101 133.158 189.802 136.852C190.242 137.137 190.663 137.449 191.076 137.781H191.083C192.228 138.703 193.245 139.794 194.113 141.021L196.729 146.416Z" fill="black"/>
<path d="M230.674 279.053C230.674 279.053 222.303 234.553 217.301 227.545C212.305 220.536 213.22 217.648 210.794 212.924C208.367 208.2 189.829 196.704 189.009 189.986C188.188 183.276 187.246 170.411 183.776 162.663C180.305 154.909 184.82 157.715 182.095 137.781C182.095 137.781 184.108 133.165 189.802 136.852C195.495 140.546 198.498 147.934 197.502 156.116C197.502 156.116 201.786 170.791 204.043 174.132C206.307 177.481 215.627 158.278 215.023 156.034C214.42 153.791 212.631 134.703 212.353 131.226C212.353 131.226 205.568 121.174 204.87 116.449C204.171 111.718 204.232 106.736 207.073 104.716C213.797 99.9308 211.831 107.644 214.84 110.844C217.85 114.043 222.466 119.262 225.082 120.903C227.699 122.543 229.99 129.355 229.99 129.355C229.99 129.355 226.167 115.297 226.085 112.579C226.004 109.861 223.923 95.525 227.448 90.3871C230.973 85.2492 235.663 89.2348 236.09 90.2447C236.517 91.2547 236.66 105.15 237.9 109.014C239.14 112.884 244.326 128.996 244.326 128.996C244.326 128.996 244.549 113.325 245.715 106.309C246.888 99.2937 249.938 93.8033 252.914 93.4983C255.896 93.1865 258.655 96.4739 258.655 96.4739C258.655 96.4739 257.476 107.658 257.808 110.241C258.14 112.823 257.326 122.15 258.743 127.166C258.743 127.166 258.574 113.806 260.655 112.098C262.735 110.39 264.511 109.569 265.67 110.722C266.836 111.874 267.087 119.784 268.28 124.543C269.466 129.301 269.317 135.767 270.097 143.19C270.876 150.612 273.947 160.915 273.337 166.798C272.727 172.682 270.842 187.296 269.331 195.877C267.819 204.458 263.969 216.198 263.969 216.198C263.969 216.198 265.725 222.468 265.379 228.06C265.033 233.652 278.793 270.878 278.793 270.878" stroke="#263238" stroke-width="0.677824" stroke-linecap="round" stroke-linejoin="round"/>
<path d="M244.319 128.982C245.722 132.277 249.185 146.186 250.426 148.111C251.666 150.036 253.069 150.619 253.069 150.619" stroke="#263238" stroke-width="0.677824" stroke-linecap="round" stroke-linejoin="round"/>
<path d="M258.743 127.152C258.743 127.152 258.445 129.999 259.983 139.088C261.522 148.178 262.274 152.042 263.135 154.068" stroke="#263238" stroke-width="0.677824" stroke-linecap="round" stroke-linejoin="round"/>
<path d="M229.99 129.341C231.874 134.879 232.932 143.704 234.003 146.361C235.074 149.019 236.029 149.568 236.029 149.568" stroke="#263238" stroke-width="0.677824" stroke-linecap="round" stroke-linejoin="round"/>
<path d="M233.033 142.626C233.033 142.626 235.005 144.091 235.636 145.914" stroke="#263238" stroke-width="0.677824" stroke-linecap="round" stroke-linejoin="round"/>
<path d="M204.049 174.132C204.049 174.132 205.08 181.473 209.682 180.89" stroke="#263238" stroke-width="0.677824" stroke-linecap="round" stroke-linejoin="round"/>
<path d="M215.03 156.034C215.03 156.034 216.223 164.758 214.264 168.465" stroke="#263238" stroke-width="0.677824" stroke-linecap="round" stroke-linejoin="round"/>
<path d="M251.789 156.116C251.789 156.116 254.88 158.007 252.812 163.558C250.745 169.11 247.152 191.505 247.152 191.505" stroke="#263238" stroke-width="0.677824" stroke-linecap="round" stroke-linejoin="round"/>
<path d="M265.243 161.972C266.538 166.988 266.653 167.117 264.552 173.278C262.444 179.44 259.055 194.528 259.055 194.528" stroke="#263238" stroke-width="0.677824" stroke-linecap="round" stroke-linejoin="round"/>
<path d="M263.976 216.184C263.976 216.184 261.956 212.104 263.623 208.749" stroke="#263238" stroke-width="0.677824" stroke-linecap="round" stroke-linejoin="round"/>
<path d="M217.301 227.544C217.301 227.544 222.412 234.723 224.635 242.755" stroke="#263238" stroke-width="0.677824" stroke-linecap="round" stroke-linejoin="round"/>
<path d="M254.907 101.72L256.29 100.351L256.913 100.175L256.872 100.853L255.605 102.473L254.907 101.72Z" fill="#757575" stroke="#263238" stroke-width="0.677824" stroke-linecap="round" stroke-linejoin="round"/>
<path d="M256.025 102.473L253.782 107.577L193.32 188.19L186.582 183.9L195.726 172.431L250.033 104.31L254.826 101.266C254.826 101.266 255.849 101.53 256.032 102.473H256.025Z" fill="#75A9C8"/>
<mask id="mask3_684_12978" style="mask-type:luminance" maskUnits="userSpaceOnUse" x="186" y="101" width="71" height="88">
<path d="M256.025 102.473L253.782 107.577L193.32 188.19L186.582 183.9L195.726 172.431L250.033 104.31L254.826 101.266C254.826 101.266 255.849 101.53 256.032 102.473H256.025Z" fill="white"/>
</mask>
<g mask="url(#mask3_684_12978)">
<path opacity="0.3" d="M256.025 102.473L253.782 107.577L193.32 188.19L186.582 183.9L195.726 172.431C199.929 171.997 200.627 174.478 200.627 174.478L252.718 106.492C252.209 104.662 250.033 104.31 250.033 104.31L254.826 101.266C254.826 101.266 255.849 101.53 256.032 102.473H256.025Z" fill="black"/>
</g>
<path d="M256.025 102.473L253.782 107.577L193.32 188.19L186.582 183.9L195.726 172.431L250.033 104.31L254.826 101.266C254.826 101.266 255.849 101.53 256.032 102.473H256.025Z" stroke="#263238" stroke-width="0.677824" stroke-linecap="round" stroke-linejoin="round"/>
<path d="M213.037 164.324C213.037 164.324 206.293 177.718 199.799 187.194L195.163 188.394C195.163 188.394 184.521 198.968 178.028 204.248C178.028 204.248 176.36 203.279 174.855 201.584C174.855 201.584 184.074 183.879 194.275 172.675C194.275 172.675 195.76 173.129 197.624 174.451C198.728 175.237 199.976 176.321 201.114 177.799L212.481 163.497L213.044 164.324H213.037Z" fill="#75A9C8"/>
<mask id="mask4_684_12978" style="mask-type:luminance" maskUnits="userSpaceOnUse" x="174" y="163" width="40" height="42">
<path d="M213.037 164.324C213.037 164.324 206.293 177.718 199.799 187.194L195.163 188.394C195.163 188.394 184.521 198.968 178.028 204.248C178.028 204.248 176.36 203.279 174.855 201.584C174.855 201.584 184.074 183.879 194.275 172.675C194.275 172.675 195.76 173.129 197.624 174.451C198.728 175.237 199.976 176.321 201.114 177.799L212.481 163.497L213.044 164.324H213.037Z" fill="white"/>
</mask>
<g mask="url(#mask4_684_12978)">
<path opacity="0.3" d="M213.037 164.324C213.037 164.324 206.293 177.718 199.8 187.194L195.163 188.394C195.163 188.394 184.521 198.968 178.028 204.248L178.204 201.374C185.247 190.617 194.194 178.884 197.617 174.451C198.722 175.237 199.969 176.321 201.108 177.799L194.79 186.231L198.41 185.581L212.475 163.497L213.037 164.324Z" fill="black"/>
</g>
<path d="M213.037 164.324C213.037 164.324 206.293 177.718 199.799 187.194L195.163 188.394C195.163 188.394 184.521 198.968 178.028 204.248C178.028 204.248 176.36 203.279 174.855 201.584C174.855 201.584 184.074 183.879 194.275 172.675C194.275 172.675 195.76 173.129 197.624 174.451C198.728 175.237 199.976 176.321 201.114 177.799L212.481 163.497L213.044 164.324H213.037Z" stroke="#263238" stroke-width="0.677824" stroke-linecap="round" stroke-linejoin="round"/>
<path d="M236.029 149.568L217.145 167.883L214.129 170.811C216.196 165.497 215.193 157.288 215.064 156.285V156.272C215.057 156.217 215.05 156.183 215.05 156.183C215.05 156.136 215.05 156.075 215.037 156.041C214.922 155.601 214.752 154.502 214.562 153.004C214.522 152.672 214.481 152.32 214.434 151.947C214.386 151.574 214.345 151.188 214.298 150.788C214.271 150.598 214.251 150.402 214.23 150.205C214.223 150.124 214.217 150.042 214.203 149.968C214.122 149.202 214.027 148.388 213.939 147.541C213.918 147.311 213.891 147.08 213.864 146.85C213.824 146.45 213.783 146.043 213.742 145.63C213.735 145.569 213.729 145.501 213.722 145.426C213.702 145.196 213.668 144.959 213.647 144.708C213.593 144.233 213.552 143.752 213.498 143.271C213.458 142.857 213.417 142.444 213.376 142.03C213.302 141.251 213.22 140.472 213.152 139.719C213.091 139.157 213.037 138.601 212.99 138.065C212.976 137.943 212.969 137.821 212.956 137.699C212.671 134.717 212.448 132.27 212.366 131.219C212.366 131.219 205.588 121.174 204.883 116.443C204.185 111.711 204.246 106.729 207.086 104.71C213.81 99.9173 211.838 107.631 214.847 110.83C217.857 114.036 222.479 119.249 225.089 120.889C227.699 122.536 229.996 129.342 229.996 129.342C231.874 134.879 232.938 143.698 234.009 146.362C235.08 149.019 236.036 149.568 236.036 149.568H236.029Z" fill="white"/>
<path d="M233.033 142.627C233.033 142.627 235.006 144.091 235.636 145.914" stroke="#263238" stroke-width="0.677824" stroke-linecap="round" stroke-linejoin="round"/>
<path opacity="0.4" d="M214.84 110.83C217.836 114.03 222.439 119.215 225.055 120.876C224.689 120.693 219.87 118.341 217.179 120.957C214.379 123.682 212.353 131.226 212.353 131.226C212.353 131.226 205.574 121.181 204.869 116.449C204.171 111.718 204.232 106.736 207.072 104.716C213.796 99.9241 211.824 107.638 214.833 110.837L214.84 110.83Z" fill="#75A9C8"/>
<path opacity="0.4" d="M217.138 167.883L214.122 170.811C216.189 165.497 215.186 157.288 215.057 156.285V156.272C215.057 156.177 215.044 156.102 215.03 156.041C214.915 155.601 214.745 154.502 214.556 153.004C214.515 152.672 214.474 152.32 214.427 151.947C214.379 151.574 214.339 151.188 214.291 150.788C214.264 150.598 214.244 150.402 214.224 150.205C214.217 150.124 214.21 150.042 214.196 149.968C214.115 149.195 214.027 148.389 213.932 147.541C213.912 147.311 213.885 147.08 213.857 146.85C213.817 146.45 213.776 146.043 213.735 145.63C213.729 145.569 213.722 145.501 213.715 145.426C213.695 145.196 213.661 144.959 213.641 144.708C213.586 144.233 213.546 143.752 213.491 143.271C213.451 142.857 213.41 142.444 213.369 142.031C213.295 141.251 213.214 140.472 213.146 139.719C213.092 139.157 213.037 138.594 212.983 138.065C212.97 137.943 212.963 137.821 212.949 137.699C213.139 138.587 216.576 154.95 218.534 158.759C219.273 160.203 218.589 163.917 217.145 167.876L217.138 167.883Z" fill="#75A9C8"/>
<path d="M236.029 149.568C236.029 149.568 235.073 149.019 234.002 146.362C232.931 143.705 231.867 134.88 229.99 129.342C229.99 129.342 227.692 122.53 225.082 120.889C222.473 119.249 217.857 114.03 214.84 110.83C211.831 107.631 213.796 99.9175 207.072 104.703C204.232 106.723 204.178 111.705 204.87 116.436C205.568 121.167 212.353 131.213 212.353 131.213C212.631 134.697 214.42 153.784 215.023 156.021" stroke="#263238" stroke-width="0.677824" stroke-linecap="round" stroke-linejoin="round"/>
<path d="M215.031 156.035C215.031 156.035 216.224 164.758 214.265 168.466" stroke="#263238" stroke-width="0.677824" stroke-linecap="round" stroke-linejoin="round"/>
<path opacity="0.2" d="M99.0957 166.71C99.0957 166.71 103.386 186.631 94.0933 201.13C84.8004 215.622 77.6493 219.492 74.4297 223.817C71.21 228.141 58.6228 252.319 58.6228 252.319L43.9141 208.756L58.6228 154.862L99.1025 166.717L99.0957 166.71Z" fill="black"/>
<path d="M185.789 151.479L94.581 189.864L85.1796 193.823L67.4613 151.723L26.3174 53.9608L126.927 11.6172L185.789 151.479Z" fill="white"/>
<mask id="mask5_684_12978" style="mask-type:luminance" maskUnits="userSpaceOnUse" x="26" y="11" width="160" height="183">
<path d="M185.789 151.479L94.581 189.864L85.1796 193.823L67.4613 151.723L26.3174 53.9608L126.927 11.6172L185.789 151.479Z" fill="white"/>
</mask>
<g mask="url(#mask5_684_12978)">
<path d="M100.932 29.8099L57.5043 48.084C56.6909 48.4297 56.3045 49.3651 56.6502 50.1785C56.9959 50.9919 57.9313 51.3782 58.7447 51.0325L102.173 32.7584C102.986 32.4127 103.373 31.4773 103.027 30.6639C102.681 29.8506 101.746 29.4642 100.932 29.8099Z" fill="#263238"/>
<path d="M92.6293 40.4448L70.9118 49.5818C70.5052 49.7513 70.3154 50.2258 70.4848 50.6325C70.6543 51.0392 71.1287 51.2289 71.5354 51.0595L93.2529 41.9224C93.6596 41.753 93.8494 41.2785 93.6799 40.8718C93.5105 40.4651 93.036 40.2753 92.6293 40.4448Z" fill="#263238"/>
<path d="M128.357 96.1147C128.357 96.1147 129.272 103.306 126.594 104.438C124.147 105.469 120.928 101.605 118.115 102.791C115.302 103.977 117.518 114.172 114.807 115.317C112.096 116.456 108.829 112.267 106.49 113.25C104.152 114.233 105.568 119.479 103.155 120.496C101.162 121.337 98.3155 117.161 96.038 116.246C95.5567 116.05 95.1026 116.002 94.6824 116.178C92.2964 117.181 93.4826 128.142 91.422 129.003C90.7374 129.294 90.1409 129.342 89.5919 129.301C88.7785 129.247 88.06 129.003 87.267 129.084C86.9891 129.111 86.7044 129.179 86.3994 129.308C84.6438 130.047 84.881 135.815 83.2746 136.493C81.6681 137.171 80.082 136.33 78.3671 137.055C76.6523 137.781 76.6794 140.777 74.1172 141.854L75.2017 144.423L137.636 118.151" fill="#BFBFBF"/>
<path d="M128.357 96.1147C128.357 96.1147 129.272 103.306 126.594 104.438C124.147 105.469 120.928 101.605 118.115 102.791C115.302 103.977 117.518 114.172 114.807 115.317C112.096 116.456 108.829 112.267 106.49 113.25C104.152 114.233 105.568 119.479 103.155 120.496C101.162 121.337 98.3155 117.161 96.038 116.246C95.5567 116.05 95.1026 116.002 94.6824 116.178C92.2964 117.181 93.4826 128.142 91.422 129.003C90.7374 129.294 90.1409 129.342 89.5919 129.301C88.7785 129.247 88.06 129.003 87.267 129.084C86.9891 129.111 86.7044 129.179 86.3994 129.308C84.6438 130.047 84.881 135.815 83.2746 136.493C81.6681 137.171 80.082 136.33 78.3671 137.055C76.6523 137.781 76.6794 140.777 74.1172 141.854L75.2017 144.423L137.636 118.151" stroke="#263238" stroke-width="0.677824" stroke-miterlimit="10"/>
<path d="M62.5542 114.389L75.1956 144.423L140.565 116.917" stroke="#263238" stroke-width="0.677824" stroke-linecap="round" stroke-linejoin="round"/>
<path d="M133.38 108.052C133.38 108.052 133.075 107.672 132.607 107.225C131.8 106.445 130.519 105.455 129.543 105.862C128.587 106.262 128.506 107.848 128.526 109.536C128.547 111.597 128.73 113.806 127.693 114.247C126.812 114.62 126.025 114.057 125.212 113.454C124.283 112.762 123.334 112.003 122.189 112.484C120.264 113.298 120.847 115.806 120.169 117.955C119.823 119.053 119.145 120.056 117.634 120.693C115.966 121.391 114.279 120.706 112.692 119.622C110.008 117.792 107.595 114.823 106.036 115.48C103.549 116.524 106.294 123.255 103.616 124.38C102.125 125.011 99.0343 120.3 96.0315 116.253C93.6592 113.047 91.341 110.261 89.9108 110.858C86.6844 112.213 91.9985 128.298 89.6532 129.288C89.6329 129.295 89.6058 129.308 89.5787 129.315C88.6026 129.701 87.8841 129.457 87.2537 129.098C86.4064 128.617 85.7218 127.939 84.7865 128.332C83.058 129.057 84.0747 135.361 82.1701 136.168C80.2654 136.967 79.1266 135.808 76.9847 136.71C75.1749 137.469 74.0972 141.861 74.0972 141.861L75.1817 144.43L137.616 118.158" fill="#757575"/>
<path d="M133.38 108.052C133.38 108.052 133.075 107.672 132.607 107.225C131.8 106.445 130.519 105.455 129.543 105.862C128.587 106.262 128.506 107.848 128.526 109.536C128.547 111.597 128.73 113.806 127.693 114.247C126.812 114.62 126.025 114.057 125.212 113.454C124.283 112.762 123.334 112.003 122.189 112.484C120.264 113.298 120.847 115.806 120.169 117.955C119.823 119.053 119.145 120.056 117.634 120.693C115.966 121.391 114.279 120.706 112.692 119.622C110.008 117.792 107.595 114.823 106.036 115.48C103.549 116.524 106.294 123.255 103.616 124.38C102.125 125.011 99.0343 120.3 96.0315 116.253C93.6592 113.047 91.341 110.261 89.9108 110.858C86.6844 112.213 91.9985 128.298 89.6532 129.288C89.6329 129.295 89.6058 129.308 89.5787 129.315C88.6026 129.701 87.8841 129.457 87.2537 129.098C86.4064 128.617 85.7218 127.939 84.7865 128.332C83.058 129.057 84.0747 135.361 82.1701 136.168C80.2654 136.967 79.1266 135.808 76.9847 136.71C75.1749 137.469 74.0972 141.861 74.0972 141.861L75.1817 144.43L137.616 118.158" stroke="#263238" stroke-width="0.677824" stroke-linecap="round" stroke-linejoin="round"/>
<path d="M120.169 129.498L98.4519 138.635C98.0452 138.804 97.8554 139.279 98.0249 139.685C98.1943 140.092 98.6688 140.282 99.0755 140.112L120.793 130.975C121.2 130.806 121.389 130.331 121.22 129.925C121.051 129.518 120.576 129.328 120.169 129.498Z" fill="#263238"/>
<path d="M137.364 93.5231L135.271 94.4037C135.054 94.4952 134.952 94.7456 135.043 94.9629L135.924 97.0559C136.015 97.2733 136.266 97.3754 136.483 97.2839L138.576 96.4032C138.793 96.3118 138.895 96.0614 138.804 95.844L137.923 93.751C137.832 93.5337 137.581 93.4316 137.364 93.5231Z" fill="#BFBFBF" stroke="#263238" stroke-width="0.677824" stroke-miterlimit="10"/>
<path d="M148.712 89.9736L140.036 93.6271C139.853 93.7016 139.643 93.6203 139.569 93.4373C139.494 93.2543 139.575 93.0441 139.758 92.9696L148.434 89.3161C148.617 89.2416 148.828 89.3229 148.902 89.5059C148.977 89.6889 148.895 89.899 148.712 89.9736Z" fill="#263238"/>
<path d="M146.672 92.5219L140.64 95.057C140.457 95.1316 140.247 95.0502 140.172 94.8672C140.098 94.6842 140.179 94.4741 140.362 94.3995L146.394 91.8645C146.578 91.7899 146.788 91.8712 146.862 92.0542C146.937 92.2373 146.855 92.4474 146.672 92.5219Z" fill="#263238"/>
<path d="M140.078 99.9693L137.985 100.85C137.768 100.941 137.666 101.192 137.757 101.409L138.638 103.502C138.73 103.72 138.98 103.822 139.197 103.73L141.29 102.85C141.508 102.758 141.61 102.508 141.518 102.29L140.638 100.197C140.546 99.9799 140.296 99.8779 140.078 99.9693Z" fill="#757575" stroke="#263238" stroke-width="0.677824" stroke-linecap="round" stroke-linejoin="round"/>
<path d="M151.431 96.4194L142.755 100.073C142.572 100.147 142.361 100.066 142.287 99.8831C142.212 99.7001 142.294 99.4899 142.477 99.4154L151.153 95.7619C151.336 95.6874 151.546 95.7687 151.62 95.9517C151.695 96.1347 151.614 96.3448 151.431 96.4194Z" fill="#263238"/>
<path d="M149.383 98.9751L143.351 101.51C143.168 101.585 142.958 101.503 142.883 101.32C142.808 101.137 142.89 100.927 143.073 100.853L149.105 98.3176C149.288 98.243 149.499 98.3244 149.573 98.5074C149.648 98.6904 149.566 98.9005 149.383 98.9751Z" fill="#263238"/>
<path d="M162.838 123.018L92.3508 152.679C91.9441 152.849 91.7543 153.323 91.9238 153.73C92.0932 154.136 92.5677 154.326 92.9744 154.157L163.461 124.495C163.868 124.326 164.058 123.851 163.888 123.445C163.719 123.038 163.244 122.848 162.838 123.018Z" fill="#263238"/>
<path d="M165.075 128.325L83.1125 162.819C82.7058 162.989 82.516 163.463 82.6855 163.87C82.855 164.276 83.3294 164.466 83.7361 164.297L165.699 129.802C166.105 129.633 166.295 129.158 166.126 128.752C165.956 128.345 165.482 128.155 165.075 128.325Z" fill="#263238"/>
<path d="M167.305 133.632L85.3425 168.127C84.9358 168.296 84.746 168.771 84.9155 169.177C85.0849 169.584 85.5594 169.774 85.9661 169.604L167.929 135.11C168.335 134.94 168.525 134.466 168.356 134.059C168.186 133.653 167.712 133.463 167.305 133.632Z" fill="#263238"/>
<path d="M169.542 138.946L87.5793 173.441C87.1726 173.61 86.9828 174.085 87.1523 174.491C87.3217 174.898 87.7962 175.088 88.2029 174.918L170.165 140.424C170.572 140.254 170.762 139.78 170.592 139.373C170.423 138.967 169.948 138.777 169.542 138.946Z" fill="#263238"/>
<path d="M137.345 158.739L89.8093 178.741C89.4026 178.911 89.2128 179.385 89.3823 179.792C89.5517 180.199 90.0262 180.388 90.4329 180.219L137.969 160.216C138.375 160.047 138.565 159.572 138.396 159.166C138.226 158.759 137.752 158.569 137.345 158.739Z" fill="#263238"/>
<path d="M111.167 55.2686C111.167 55.2686 112.082 62.4603 109.405 63.5922C106.958 64.6225 103.738 60.7589 100.925 61.9451C98.1124 63.1313 100.329 73.3258 97.6175 74.4713C94.9063 75.61 91.6391 71.4211 89.3007 72.4039C86.9622 73.3868 88.3788 78.6331 85.9658 79.6499C83.973 80.4904 81.1261 76.315 78.8486 75.3999C78.3674 75.2033 77.9132 75.1559 77.493 75.3321C75.107 76.3353 76.2932 87.2957 74.2326 88.1566C73.548 88.448 72.9515 88.4955 72.4025 88.4548C71.5891 88.4006 70.8706 88.1566 70.0776 88.2379C69.7997 88.265 69.515 88.3328 69.21 88.4616C67.4544 89.2004 67.6916 94.9687 66.0852 95.6465C64.4787 96.3243 62.8926 95.4838 61.1777 96.2091C59.4629 96.9344 59.49 99.9304 56.9346 101.008L58.0191 103.577L120.453 77.3046" fill="#BFBFBF"/>
<path d="M111.167 55.2686C111.167 55.2686 112.082 62.4603 109.405 63.5922C106.958 64.6225 103.738 60.7589 100.925 61.9451C98.1124 63.1313 100.329 73.3258 97.6175 74.4713C94.9063 75.61 91.6392 71.4211 89.3007 72.4039C86.9622 73.3868 88.3788 78.6331 85.9658 79.6499C83.973 80.4904 81.1261 76.315 78.8486 75.3999C78.3674 75.2033 77.9132 75.1559 77.493 75.3321C75.107 76.3353 76.2932 87.2957 74.2326 88.1566C73.548 88.448 72.9515 88.4955 72.4025 88.4548C71.5891 88.4006 70.8706 88.1566 70.0776 88.2379C69.7997 88.265 69.515 88.3328 69.21 88.4616C67.4544 89.2004 67.6916 94.9687 66.0852 95.6465C64.4787 96.3243 62.8926 95.4838 61.1777 96.2091C59.4629 96.9344 59.49 99.9304 56.9346 101.008L58.0191 103.577L120.453 77.3046" stroke="#263238" stroke-width="0.677824" stroke-miterlimit="10"/>
<path d="M115.2 64.8594C115.2 64.8594 115.769 68.3434 114.393 68.9263C113.248 69.4076 112.543 68.7365 111.336 68.6959C110.855 68.6755 110.293 68.7569 109.588 69.0551C108.483 69.516 108.218 71.0072 108.022 72.6137C107.778 74.5861 107.656 76.7213 106.212 77.3313C105.202 77.7584 104.111 77.5076 102.986 77.1144C101.196 76.4908 99.305 75.5012 97.4884 76.2671C96.6073 76.6399 95.9905 77.5957 95.5092 78.7819C94.3772 81.5813 94.0248 85.6347 92.7979 86.1498C91.0559 86.8819 87.8634 83.8859 86.3179 84.5366C84.7725 85.1873 85.4029 87.8783 84.1489 88.407C82.8949 88.9357 82.1764 87.3767 79.9667 88.3053C77.757 89.2339 78.8347 92.501 75.7168 93.8092C72.5988 95.1174 71.2363 92.7111 68.22 93.9787C65.2037 95.2462 65.7527 97.5305 63.6312 98.4252C61.5096 99.3199 60.6081 97.7677 59.0897 98.4049C57.6121 99.0285 57.2122 101.448 57.1851 101.604L58.0188 103.583L120.453 77.311" fill="#75A9C8"/>
<path d="M115.2 64.8594C115.2 64.8594 115.769 68.3434 114.393 68.9263C113.248 69.4076 112.543 68.7365 111.336 68.6959C110.855 68.6755 110.293 68.7569 109.588 69.0551C108.483 69.516 108.218 71.0072 108.022 72.6137C107.778 74.5861 107.656 76.7213 106.212 77.3313C105.202 77.7584 104.111 77.5076 102.986 77.1144C101.196 76.4908 99.305 75.5012 97.4884 76.2671C96.6073 76.6399 95.9905 77.5957 95.5092 78.7819C94.3772 81.5813 94.0248 85.6347 92.7979 86.1498C91.0559 86.8819 87.8634 83.8859 86.3179 84.5366C84.7725 85.1873 85.4029 87.8783 84.1489 88.407C82.8949 88.9357 82.1764 87.3767 79.9667 88.3053C77.757 89.2339 78.8347 92.501 75.7168 93.8092C72.5988 95.1174 71.2363 92.7111 68.22 93.9787C65.2037 95.2462 65.7527 97.5305 63.6312 98.4252C61.5096 99.3199 60.6081 97.7677 59.0897 98.4049C57.6121 99.0285 57.2122 101.448 57.1851 101.604L58.0188 103.583L120.453 77.311" stroke="#263238" stroke-width="0.677824" stroke-miterlimit="10"/>
<path d="M45.3643 73.5425L58.0057 103.577L123.375 76.064" stroke="#263238" stroke-width="0.677824" stroke-linecap="round" stroke-linejoin="round"/>
<path d="M102.783 88.1835L81.0652 97.3206C80.6585 97.4901 80.4687 97.9645 80.6381 98.3712C80.8076 98.7779 81.2821 98.9677 81.6888 98.7983L103.406 89.6612C103.813 89.4917 104.003 89.0173 103.833 88.6106C103.664 88.2039 103.189 88.0141 102.783 88.1835Z" fill="#263238"/>
<path d="M119.074 50.0685L116.981 50.9491C116.764 51.0406 116.662 51.291 116.754 51.5083L117.634 53.6013C117.726 53.8187 117.976 53.9208 118.193 53.8293L120.286 52.9486C120.504 52.8572 120.606 52.6068 120.514 52.3894L119.634 50.2964C119.542 50.0791 119.292 49.977 119.074 50.0685Z" fill="#BFBFBF" stroke="#263238" stroke-width="0.677824" stroke-miterlimit="10"/>
<path d="M130.425 46.518L121.749 50.1715C121.566 50.2461 121.356 50.1647 121.281 49.9817C121.206 49.7987 121.288 49.5886 121.471 49.514L130.147 45.8605C130.33 45.786 130.54 45.8673 130.615 46.0503C130.689 46.2333 130.608 46.4435 130.425 46.518Z" fill="#263238"/>
<path d="M128.384 49.0732L122.352 51.6083C122.169 51.6828 121.959 51.6015 121.884 51.4185C121.809 51.2355 121.891 51.0253 122.074 50.9508L128.106 48.4157C128.289 48.3412 128.5 48.4225 128.574 48.6055C128.649 48.7885 128.567 48.9986 128.384 49.0732Z" fill="#263238"/>
<path d="M121.789 56.5152L119.696 57.3959C119.478 57.4874 119.376 57.7377 119.468 57.9551L120.349 60.0481C120.44 60.2655 120.69 60.3676 120.908 60.2761L123.001 59.3954C123.218 59.304 123.32 59.0536 123.229 58.8362L122.348 56.7432C122.257 56.5258 122.006 56.4238 121.789 56.5152Z" fill="#75A9C8" stroke="#263238" stroke-width="0.677824" stroke-miterlimit="10"/>
<path d="M133.143 52.9712L124.466 56.6246C124.283 56.6992 124.073 56.6179 123.999 56.4348C123.924 56.2518 124.006 56.0417 124.189 55.9671L132.865 52.3137C133.048 52.2391 133.258 52.3204 133.332 52.5035C133.407 52.6865 133.326 52.8966 133.143 52.9712Z" fill="#263238"/>
<path d="M131.095 55.52L125.063 58.055C124.88 58.1296 124.669 58.0483 124.595 57.8653C124.52 57.6822 124.602 57.4721 124.785 57.3976L130.817 54.8625C131 54.7879 131.21 54.8693 131.285 55.0523C131.36 55.2353 131.278 55.4454 131.095 55.52Z" fill="#263238"/>
<path opacity="0.2" d="M94.5812 189.864L85.1797 193.823L67.4614 151.723C68.5731 150.666 69.8745 148.856 70.4235 145.914C71.4809 140.275 70.7353 122.143 84.8544 120.272C98.9667 118.401 87.0641 150.151 87.7148 156.204C88.3113 161.714 96.357 177.731 94.5812 189.864Z" fill="black"/>
</g>
<path d="M185.789 151.479L94.581 189.864L85.1796 193.823L67.4613 151.723L26.3174 53.9608L126.927 11.6172L185.789 151.479Z" stroke="#263238" stroke-width="0.677824" stroke-linecap="round" stroke-linejoin="round"/>
<path d="M88.9011 158.495C90.4805 153.086 96.6622 135.713 95.8556 128.033C95.7811 127.342 95.6319 126.718 95.4218 126.162C93.2528 120.428 84.3868 120.984 80.9774 125.735C77.2358 130.961 74.1856 140.37 73.9212 146.09C73.7789 149.256 72.4233 152.157 71.2371 154.129C71.2371 154.143 71.2371 154.15 71.2235 154.157C70.2678 155.743 69.4273 156.705 69.4273 156.705L49.1942 108.702C49.1942 108.702 45.9271 111.345 43.9004 114.612C43.0803 115.92 42.4702 117.344 42.3482 118.727C41.9347 123.451 36.5799 142.878 34.3499 151.079C34.3092 151.255 34.255 151.418 34.2143 151.581C32.0724 159.457 37.7255 188.712 36.1122 197.212C34.4922 205.705 33.4891 205.522 33.2586 211.555C33.0891 215.96 26.7854 229.354 19.7225 243.107C15.6759 250.99 11.3717 258.982 7.82666 265.455L59.5582 263.306C60.4529 257.023 61.3747 250.387 62.2152 243.968C62.5609 241.325 63.1235 238.607 63.7607 236.031C64.8994 231.415 66.2957 227.246 67.1362 224.806C68.458 220.997 69.834 213.893 69.834 213.893C75.853 207.522 83.7429 197.517 86.0272 190.732C86.0272 190.718 86.0407 190.698 86.0407 190.684C86.6169 188.97 86.827 187.465 86.5559 186.285C86.3254 185.309 86.2034 184.042 86.1492 182.584C86.1492 182.584 86.1492 182.58 86.1492 182.571C85.8848 175.23 87.5658 163.009 88.8944 158.501L88.9011 158.495Z" fill="white"/>
<path opacity="0.4" d="M71.2304 154.15C69.6239 157.37 67.6921 160.495 66.4585 164.107C65.2248 167.713 63.9031 168.229 60.2767 171.048C56.6571 173.875 54.0136 169.218 54.0136 169.218C54.0136 169.218 58.8059 164.243 57.213 161.471C55.6133 158.698 49.662 151.805 50.0145 148.002C50.3602 144.2 46.4017 135.673 46.4017 135.673C46.4017 135.673 55.4371 130.372 53.6815 124.177C52.7258 120.781 47.9946 117.175 43.9141 114.606C45.9408 111.339 49.2079 108.695 49.2079 108.695L69.4409 156.699C69.4409 156.699 70.2814 155.736 71.2371 154.15H71.2304Z" fill="#75A9C8"/>
<path opacity="0.4" d="M38.4234 183.595C38.5454 184.001 41.4871 193.715 39.0063 197.761C36.4645 201.896 33.9769 207.176 35.1902 212.667C36.1595 217.059 28.0256 232.92 19.729 243.101C26.7919 229.348 33.0957 215.954 33.2651 211.548C33.5024 205.516 34.4988 205.699 36.1188 197.205C37.732 188.706 32.0857 159.451 34.2209 151.574C34.2615 151.412 34.3158 151.249 34.3564 151.073C35.9358 160 39.6164 177.779 40.6263 183.493C41.9142 190.773 38.5522 183.886 38.4166 183.595H38.4234Z" fill="#75A9C8"/>
<path opacity="0.4" d="M57.0498 242.206C63.0621 216.32 83.2951 196.473 86.0335 190.725C83.7493 197.503 75.8594 207.515 69.8403 213.886C69.8403 213.886 68.4644 220.983 67.1426 224.799C66.2953 227.239 64.9058 231.408 63.767 236.017C57.8903 242.945 57.0498 242.213 57.0498 242.213V242.206Z" fill="#75A9C8"/>
<path opacity="0.4" d="M88.9009 158.495C87.5724 163.002 85.8914 175.224 86.1557 182.564C85.0915 177.955 83.0445 172.099 82.7056 163.945C82.1294 150.117 89.9651 155.079 87.2335 148.267C84.5018 141.461 76.7136 150.185 80.5501 135.767C83.3495 125.241 91.3275 125.336 95.4216 126.156C95.6317 126.712 95.7808 127.335 95.8554 128.027C96.6688 135.706 90.487 153.079 88.9009 158.488V158.495Z" fill="#75A9C8"/>
<path d="M15.7031 251.173C22.1899 239.318 28.5004 227.124 33.0419 213.974C33.5841 212.083 32.8588 209.623 33.4079 207.732C39.5557 190.651 32.5809 172.871 33.7265 155.383C34.689 148.49 36.8919 141.542 39.0948 134.601C40.1319 129.572 40.525 123.953 42.1789 118.896C43.887 115.087 45.5748 110.654 49.2079 108.702C56.1218 124.549 63.0152 140.458 69.441 156.705C72.3421 155.024 72.8098 151.269 73.3046 148.131C74.8636 140.586 76.4429 133.673 79.2965 127.321C82.1976 122.217 89.5859 120.042 94.1206 124.21C95.4152 125.403 96.1134 127.24 96.1947 129.111C95.3135 137.868 92.5615 146.707 89.7892 154.922C88.698 158.705 87.5863 161.87 87.1186 165.625C87.1729 166.872 87.1932 167.489 87.2474 168.737C85.641 175.033 87.1186 180.578 86.7526 186.828C85.3495 198.1 76.3345 205.956 69.8273 214.32C68.2209 220.617 66.6145 226.914 64.3844 233.238C61.6596 242.701 60.8055 252.082 59.8769 261.198" stroke="#263238" stroke-width="0.677824" stroke-linecap="round" stroke-linejoin="round"/>
<path d="M69.4409 156.699C69.4409 156.699 67.3125 160.786 66.4652 164.107C65.6179 167.429 61.3273 166.947 59.1108 169.015" stroke="#263238" stroke-width="0.677824" stroke-linecap="round" stroke-linejoin="round"/>
<path d="M53.2544 150.856C53.2544 150.856 59.0905 152.917 62.4864 155.567C65.8823 158.217 68.397 158.868 68.397 158.868" stroke="#263238" stroke-width="0.677824" stroke-linecap="round" stroke-linejoin="round"/>
<path d="M49.5332 136.384C49.5332 136.384 54.2441 137.706 57.7349 136.045C57.7349 136.045 57.9924 133.158 58.6228 131.036" stroke="#263238" stroke-width="0.677824" stroke-linecap="round" stroke-linejoin="round"/>
<path d="M58.8599 136.723C58.8599 136.723 58.9073 137.381 61.3136 137.408" stroke="#263238" stroke-width="0.677824" stroke-linecap="round" stroke-linejoin="round"/>
<path d="M69.8413 213.894C69.8413 213.894 65.2456 218.062 62.4395 225.572" stroke="#263238" stroke-width="0.677824" stroke-linecap="round" stroke-linejoin="round"/>
<path d="M33.9501 153.025C33.74 157.085 38.5051 171.516 39.9556 178.681C41.4062 185.852 41.9416 190.922 41.9416 190.922" stroke="#263238" stroke-width="0.677824" stroke-linecap="round" stroke-linejoin="round"/>
</svg>
