<svg width="278" height="276" viewBox="0 0 278 276" fill="none" xmlns="http://www.w3.org/2000/svg">
<g clip-path="url(#clip0_684_13293)">
<path d="M185.448 16.0337C185.448 16.0337 139.4 -1.11951 94.7353 24.6993C50.0646 50.5238 28.0105 102.62 9.03808 144.341C-9.94007 186.062 1.81295 228.885 36.4063 248.787C70.994 268.684 93.995 240.288 142.166 239.502C190.338 238.716 203.382 245.883 243.02 218.705C282.663 191.526 289.079 126.241 256.936 77.4674C224.793 28.6935 185.448 16.0395 185.448 16.0395V16.0337Z" fill="#75A9C8"/>
<path opacity="0.7" d="M185.448 16.0337C185.448 16.0337 139.4 -1.11951 94.7353 24.6993C50.0646 50.5238 28.0105 102.62 9.03808 144.341C-9.94007 186.062 1.81295 228.885 36.4063 248.787C70.994 268.684 93.995 240.288 142.166 239.502C190.338 238.716 203.382 245.883 243.02 218.705C282.663 191.526 289.079 126.241 256.936 77.4674C224.793 28.6935 185.448 16.0395 185.448 16.0395V16.0337Z" fill="white"/>
<g opacity="0.3">
<path d="M226.686 151.476L218.85 159.312L226.686 167.147L234.522 159.312L226.686 151.476Z" stroke="black" stroke-width="0.573878" stroke-linecap="round" stroke-linejoin="round"/>
<path d="M57.6708 12.9742L49.835 20.8101L57.6708 28.6459L65.5067 20.8101L57.6708 12.9742Z" stroke="black" stroke-width="0.573878" stroke-linecap="round" stroke-linejoin="round"/>
<path d="M43.4274 176.377L38.5823 181.223L43.4274 186.068L48.2726 181.223L43.4274 176.377Z" stroke="black" stroke-width="0.573878" stroke-linecap="round" stroke-linejoin="round"/>
<path d="M16.0429 97.7378L11.1978 102.583L16.0429 107.428L20.8881 102.583L16.0429 97.7378Z" stroke="black" stroke-width="0.573878" stroke-linecap="round" stroke-linejoin="round"/>
<path d="M214.148 41.6573L209.303 46.5024L214.148 51.3476L218.994 46.5024L214.148 41.6573Z" stroke="black" stroke-width="0.573878" stroke-linecap="round" stroke-linejoin="round"/>
<path d="M54.3005 181.765L47.4102 188.655L54.3005 195.546L61.1909 188.655L54.3005 181.765Z" stroke="black" stroke-width="0.573878" stroke-linecap="round" stroke-linejoin="round"/>
<path d="M191.715 174.418L186.87 179.264L191.715 184.109L196.56 179.264L191.715 174.418Z" stroke="black" stroke-width="0.573878" stroke-linecap="round" stroke-linejoin="round"/>
<path d="M228.88 31.7608L219.608 41.0332L228.88 50.3056L238.152 41.0332L228.88 31.7608Z" stroke="black" stroke-width="0.573878" stroke-linecap="round" stroke-linejoin="round"/>
<path d="M129.508 250.711L124.662 255.557L129.508 260.402L134.353 255.557L129.508 250.711Z" stroke="black" stroke-width="0.573878" stroke-linecap="round" stroke-linejoin="round"/>
<path d="M33.0205 104.538C36.9094 104.538 40.062 101.385 40.062 97.4961C40.062 93.6072 36.9094 90.4546 33.0205 90.4546C29.1316 90.4546 25.979 93.6072 25.979 97.4961C25.979 101.385 29.1316 104.538 33.0205 104.538Z" stroke="black" stroke-width="0.573878" stroke-linecap="round" stroke-linejoin="round"/>
<path d="M237.246 126.057C240.92 126.057 243.898 123.08 243.898 119.406C243.898 115.733 240.92 112.755 237.246 112.755C233.573 112.755 230.595 115.733 230.595 119.406C230.595 123.08 233.573 126.057 237.246 126.057Z" stroke="black" stroke-width="0.573878" stroke-linecap="round" stroke-linejoin="round"/>
<path d="M261.115 77.5421C263.276 77.5421 265.028 75.7898 265.028 73.6282C265.028 71.4666 263.276 69.7144 261.115 69.7144C258.953 69.7144 257.201 71.4666 257.201 73.6282C257.201 75.7898 258.953 77.5421 261.115 77.5421Z" stroke="black" stroke-width="0.573878" stroke-linecap="round" stroke-linejoin="round"/>
<path d="M182.866 22.3809C182.866 21.0839 181.816 20.0337 180.519 20.0337C179.222 20.0337 178.172 21.0839 178.172 22.3809C178.172 23.6778 179.222 24.728 180.519 24.728C181.816 24.728 182.866 23.6778 182.866 22.3809Z" stroke="black" stroke-width="0.573878" stroke-linecap="round" stroke-linejoin="round"/>
<path d="M84.2737 158.528C85.57 158.528 86.6208 157.477 86.6208 156.181C86.6208 154.884 85.57 153.833 84.2737 153.833C82.9774 153.833 81.9265 154.884 81.9265 156.181C81.9265 157.477 82.9774 158.528 84.2737 158.528Z" stroke="black" stroke-width="0.573878" stroke-linecap="round" stroke-linejoin="round"/>
<path d="M28.7167 222.693C30.6628 222.693 32.2403 221.116 32.2403 219.17C32.2403 217.224 30.6628 215.646 28.7167 215.646C26.7707 215.646 25.1931 217.224 25.1931 219.17C25.1931 221.116 26.7707 222.693 28.7167 222.693Z" stroke="black" stroke-width="0.573878" stroke-linecap="round" stroke-linejoin="round"/>
<path d="M241.941 213.305C241.941 211.578 240.541 210.177 238.813 210.177C237.086 210.177 235.686 211.578 235.686 213.305C235.686 215.032 237.086 216.433 238.813 216.433C240.541 216.433 241.941 215.032 241.941 213.305Z" stroke="black" stroke-width="0.573878" stroke-linecap="round" stroke-linejoin="round"/>
<path d="M216.902 11.0354C216.902 9.30798 215.502 7.90771 213.775 7.90771C212.047 7.90771 210.647 9.30798 210.647 11.0354C210.647 12.7627 212.047 14.163 213.775 14.163C215.502 14.163 216.902 12.7627 216.902 11.0354Z" stroke="black" stroke-width="0.573878" stroke-linecap="round" stroke-linejoin="round"/>
</g>
<path d="M91.7055 131.143L69.4045 143.274" stroke="#263238" stroke-width="1.72163" stroke-linecap="round" stroke-linejoin="round"/>
<path d="M49.4507 65.0259L73.3183 74.4145" stroke="#263238" stroke-width="1.72163" stroke-linecap="round" stroke-linejoin="round"/>
<path d="M78.0127 11.8159L93.2721 36.464" stroke="#263238" stroke-width="1.72163" stroke-linecap="round" stroke-linejoin="round"/>
<path d="M130.047 0.86084L129.266 20.4244" stroke="#263238" stroke-width="1.72163" stroke-linecap="round" stroke-linejoin="round"/>
<path d="M174.649 47.4196L194.602 27.4658" stroke="#263238" stroke-width="1.72163" stroke-linecap="round" stroke-linejoin="round"/>
<path d="M202.424 87.7175L219.64 81.8467" stroke="#263238" stroke-width="1.72163" stroke-linecap="round" stroke-linejoin="round"/>
<path d="M185.994 131.533L200.473 139.751" stroke="#263238" stroke-width="1.72163" stroke-linecap="round" stroke-linejoin="round"/>
<path d="M72.9285 47.0293L84.6643 56.0277" stroke="#263238" stroke-width="1.72163" stroke-linecap="round" stroke-linejoin="round"/>
<path d="M199.296 63.8496L186.774 69.7204" stroke="#263238" stroke-width="1.72163" stroke-linecap="round" stroke-linejoin="round"/>
<path d="M77.2322 106.495L63.9297 110.408" stroke="#263238" stroke-width="1.72163" stroke-linecap="round" stroke-linejoin="round"/>
<path d="M191.474 111.579L197.729 113.145" stroke="#263238" stroke-width="1.72163" stroke-linecap="round" stroke-linejoin="round"/>
<path d="M196.829 88.2852C194.619 86.753 186.281 88.1131 181.007 92.3655C175.733 96.6179 174.545 98.1502 174.545 98.1502C174.545 98.1502 172.163 81.479 172.163 80.9683C172.163 80.4575 168.76 49.1582 168.083 44.5672C167.4 39.9761 166.384 33.17 165.363 31.6377C164.341 30.1054 160.261 29.939 158.901 30.6162L157.541 31.2991C157.541 31.2991 158.224 19.3911 156.858 16.4988C155.498 13.6064 151.245 15.3109 150.052 16.8374C148.864 18.3696 148.009 20.7512 148.009 20.7512C148.009 20.7512 144.095 19.3911 141.886 23.8157C139.676 28.2403 137.972 32.1484 137.633 36.4009C137.294 40.6533 135.424 46.0994 135.424 46.0994C135.424 46.0994 133.214 42.5299 130.833 44.5672C128.451 46.6102 125.731 54.6043 125.048 60.389C124.365 66.1737 123.688 81.479 123.688 81.479C123.688 81.479 122.328 88.4517 121.645 94.0642C120.962 99.6767 121.473 122.982 124.026 132.675C126.58 142.373 129.978 148.497 129.978 148.497C129.978 148.497 135.929 168.06 136.784 170.78C137.633 173.5 146.987 210.584 146.987 210.584L174.884 175.205C174.884 175.205 167.911 155.986 166.379 151.561C164.846 147.136 163.825 145.776 163.825 145.776C163.825 145.776 172.33 133.696 176.921 130.127C181.512 126.557 183.893 114.649 185.087 109.375C186.275 104.101 191.21 96.7901 193.931 94.4085C196.651 92.0269 199.032 89.8175 196.823 88.2852H196.829ZM133.891 80.1189C133.381 80.1189 133.553 73.4849 133.553 65.4908C133.553 57.4967 134.913 53.9214 134.913 53.9214C134.23 57.4909 135.596 75.1836 135.596 76.3772C135.596 77.5709 134.408 80.1189 133.897 80.1189H133.891Z" fill="white" stroke="#263238" stroke-width="0.573878" stroke-linecap="round" stroke-linejoin="round"/>
<path d="M159.613 148.686C161.742 147.607 162.127 146.459 162.127 146.459" stroke="#263238" stroke-width="0.573878" stroke-linecap="round" stroke-linejoin="round"/>
<path d="M142.907 144.761C142.907 144.761 152.262 150.884 156.858 149.696" stroke="#263238" stroke-width="0.573878" stroke-linecap="round" stroke-linejoin="round"/>
<path d="M174.545 98.1558C174.545 98.1558 170.975 103.768 170.12 105.811C169.271 107.854 168.76 109.553 167.228 110.402C165.696 111.252 163.658 112.445 163.658 112.445" stroke="#263238" stroke-width="0.573878" stroke-linecap="round" stroke-linejoin="round"/>
<path d="M164.267 99.8149C159.94 101.824 153.851 105.376 150.391 110.569" stroke="#263238" stroke-width="0.573878" stroke-linecap="round" stroke-linejoin="round"/>
<path d="M169.271 97.8115C169.271 97.8115 168.026 98.2018 166.132 98.9937" stroke="#263238" stroke-width="0.573878" stroke-linecap="round" stroke-linejoin="round"/>
<path d="M148.52 112.784C148.52 112.784 145.456 118.397 144.095 122.821" stroke="#263238" stroke-width="0.573878" stroke-linecap="round" stroke-linejoin="round"/>
<path d="M148.009 20.7573C148.009 20.7573 147.159 27.9021 145.966 38.6164C144.778 49.3307 144.095 54.6047 144.267 61.4109C144.439 68.2171 146.31 74.1682 146.138 75.0175" stroke="#263238" stroke-width="0.573878" stroke-linecap="round" stroke-linejoin="round"/>
<path d="M157.535 31.3052C157.535 31.3052 157.024 35.7298 157.535 41.5087C158.046 47.2934 157.024 58.0077 157.024 62.0937C157.024 66.1798 157.197 72.2973 157.363 74.1682C157.529 76.039 158.551 77.3991 158.551 77.3991" stroke="#263238" stroke-width="0.573878" stroke-linecap="round" stroke-linejoin="round"/>
<path d="M160.766 78.4204C160.766 78.4204 161.616 79.9527 167.228 80.1191" stroke="#263238" stroke-width="0.573878" stroke-linecap="round" stroke-linejoin="round"/>
<path d="M147.837 74.3398C147.837 74.3398 151.917 75.1892 154.643 74.6784" stroke="#263238" stroke-width="0.573878" stroke-linecap="round" stroke-linejoin="round"/>
<path d="M133.036 81.4849C133.036 81.4849 133.036 83.1835 128.101 84.7158" stroke="#263238" stroke-width="0.573878" stroke-linecap="round" stroke-linejoin="round"/>
<path d="M142.735 76.888C143.246 76.5494 145.289 75.8665 145.8 73.4849" stroke="#263238" stroke-width="0.573878" stroke-linecap="round" stroke-linejoin="round"/>
<path d="M143.027 102.948C143.027 102.948 153.604 99.0685 160.301 97.6567" stroke="#263238" stroke-width="0.573878" stroke-linecap="round" stroke-linejoin="round"/>
<path d="M173.053 275.117H264.495C258.107 266.687 234.796 235.967 233.276 234.452C231.514 232.691 223.755 231.635 223.755 231.635L200.84 212.599L172.284 165.357L145.139 203.078L140.554 184.743L130.328 222.82C130.328 222.82 167.349 267.95 168.755 269.711C169.03 270.056 170.625 272.076 173.047 275.123L173.053 275.117Z" fill="#263238" stroke="#263238" stroke-width="0.573878" stroke-linecap="round" stroke-linejoin="round"/>
<path d="M101.45 142.861C101.45 142.861 93.8806 123.476 92.0557 119.906C90.2308 116.337 80.3256 100.836 79.8264 96.6297C79.3271 92.4231 77.7776 85.4276 76.1822 82.5008C74.5869 79.574 79.3386 77.6573 83.2696 81.3645C87.195 85.0718 89.5708 91.1032 89.5192 92.8421C89.4675 94.5809 98.3339 101.077 98.3339 101.077L99.9465 86.1334C99.9465 86.1334 101.668 49.0666 101.307 43.5345C100.945 38.0023 100.589 26.255 104.979 25.8016C109.37 25.3482 110.053 28.8202 110.053 28.8202C110.053 28.8202 110.207 20.0686 115.091 20.631C118.821 21.0614 120.25 24.5793 120.796 26.2722C121.341 27.9651 121.983 30.0655 121.983 30.0655C121.983 30.0655 125.059 27.9766 128.061 32.9521C129.782 35.8101 133.444 44.797 134.035 47.081C134.626 49.3651 134.81 50.1914 134.81 50.1914C134.81 50.1914 138.924 50.0595 140.749 54.4037C142.574 58.748 145.168 70.0821 147.676 79.4592C150.184 88.8364 150.081 97.743 150.081 97.743C150.081 97.743 151.062 127.912 149.042 137.507C147.022 147.102 143.223 155.28 142.442 156.061C141.662 156.841 130.437 189.965 130.437 189.965L91.5048 175.532C91.5048 175.532 99.6137 155.613 100.893 151.269C102.179 146.93 101.45 142.861 101.45 142.861Z" fill="white" stroke="#263238" stroke-width="0.573878" stroke-linecap="round" stroke-linejoin="round"/>
<path d="M93.3066 114.586C93.387 116.485 93.7944 117.627 93.7944 117.627" stroke="#263238" stroke-width="0.573878" stroke-linecap="round" stroke-linejoin="round"/>
<path d="M97.1459 102.73C97.1459 102.73 94.9479 105.289 93.8059 109.858C93.5764 110.776 93.4386 111.637 93.364 112.429" stroke="#263238" stroke-width="0.573878" stroke-linecap="round" stroke-linejoin="round"/>
<path d="M110.052 28.8315C110.052 28.8315 110.729 40.8543 111.177 46.7939C111.63 52.7336 111.848 61.9214 111.888 67.9586C111.929 73.99 111.194 81.5767 110.781 83.2237C110.368 84.8708 109.449 86.9712 109.449 86.9712" stroke="#263238" stroke-width="0.573878" stroke-linecap="round" stroke-linejoin="round"/>
<path d="M121.978 30.0771C121.978 30.0771 120.055 32.3153 120.692 35.1961C121.329 38.077 124.285 54.1686 124.285 56.4985C124.285 58.8285 124.451 79.0749 124.491 80.4464C124.537 81.818 123.573 86.432 123.114 88.2627" stroke="#263238" stroke-width="0.573878" stroke-linecap="round" stroke-linejoin="round"/>
<path d="M134.804 50.1973C134.804 50.1973 132.612 50.4211 133.111 53.8529C133.61 57.2847 134.701 68.4351 134.695 71.5398C134.695 74.6502 135.418 81.8237 135.275 88.5897C135.131 95.3557 136.686 97.6857 137.415 99.4245" stroke="#263238" stroke-width="0.573878" stroke-linecap="round" stroke-linejoin="round"/>
<path d="M100.945 95.3267C100.945 95.3267 100.165 99.2118 101.215 101.22C102.265 103.235 103.723 107.481 103.723 109.817" stroke="#263238" stroke-width="0.573878" stroke-linecap="round" stroke-linejoin="round"/>
<path d="M108.808 93.416C108.808 93.416 108.394 96.6125 108.848 98.6727C109.301 100.733 110.719 102.833 110.719 102.833" stroke="#263238" stroke-width="0.573878" stroke-linecap="round" stroke-linejoin="round"/>
<path d="M121.921 98.4546C121.921 98.4546 121.462 101.835 122.282 103.987C123.103 106.133 124.061 107.734 124.061 107.734" stroke="#263238" stroke-width="0.573878" stroke-linecap="round" stroke-linejoin="round"/>
<path d="M104.268 275.117L140.462 193.448C140.462 193.448 125.019 180.697 114.862 174.005C104.704 167.314 92.5206 167.515 92.5206 167.515C92.5206 167.515 76.6184 201.402 75.7863 203.56C74.9484 205.718 63.8611 228.679 63.8611 228.679C63.8611 228.679 58.9889 230.418 56.8254 234.309C55.1324 237.362 42.9145 263.812 37.7095 275.117H104.268Z" fill="#75A9C8" stroke="#263238" stroke-width="0.573878" stroke-linecap="round" stroke-linejoin="round"/>
<path d="M129.877 198.809C131.481 197.86 132.012 195.791 131.064 194.187C130.115 192.583 128.046 192.051 126.442 193C124.837 193.949 124.306 196.018 125.255 197.622C126.203 199.226 128.273 199.758 129.877 198.809Z" fill="#263238" stroke="#263238" stroke-width="0.573878" stroke-linecap="round" stroke-linejoin="round"/>
<path d="M126.339 209.345C125.886 211.153 124.055 212.249 122.248 211.795C120.44 211.342 119.344 209.511 119.797 207.704C120.25 205.896 122.081 204.8 123.889 205.253C125.697 205.707 126.793 207.537 126.339 209.345Z" fill="#263238" stroke="#263238" stroke-width="0.573878" stroke-linecap="round" stroke-linejoin="round"/>
</g>
<defs>
<clipPath id="clip0_684_13293">
<rect width="277.43" height="275.404" fill="white"/>
</clipPath>
</defs>
</svg>
