<svg width="233" height="228" viewBox="0 0 233 228" fill="none" xmlns="http://www.w3.org/2000/svg">
<g clip-path="url(#clip0_569_5359)">
<path d="M224.333 39.279C230.304 56.095 229.745 75.2113 225.735 92.3162C217.792 126.188 196.38 156.686 167.264 175.595C138.147 194.504 101.648 201.617 67.5927 195.022C50.7826 191.762 34.2224 185.047 21.8566 173.158C3.32962 155.35 -4.38 125.954 2.46575 101.228C5.91036 88.784 12.9137 77.3698 22.3456 68.5884C32.6577 58.9894 47.2294 55.1411 59.4648 48.4746C77.5408 38.6303 92.2918 23.5095 110.161 13.2891C127.623 3.30305 148.123 -1.72812 168.106 0.539451C186.399 2.61624 210.098 12.1226 219.644 28.9659C221.519 32.2746 223.073 35.725 224.339 39.2844L224.333 39.279Z" fill="#75A9C8"/>
<path opacity="0.7" d="M224.333 39.279C230.304 56.095 229.745 75.2113 225.735 92.3162C217.792 126.188 196.38 156.686 167.264 175.595C138.147 194.504 101.648 201.617 67.5927 195.022C50.7826 191.762 34.2224 185.047 21.8566 173.158C3.32962 155.35 -4.38 125.954 2.46575 101.228C5.91036 88.784 12.9137 77.3698 22.3456 68.5884C32.6577 58.9894 47.2294 55.1411 59.4648 48.4746C77.5408 38.6303 92.2918 23.5095 110.161 13.2891C127.623 3.30305 148.123 -1.72812 168.106 0.539451C186.399 2.61624 210.098 12.1226 219.644 28.9659C221.519 32.2746 223.073 35.725 224.339 39.2844L224.333 39.279Z" fill="white"/>
<path d="M118.497 228C181.736 228 233.001 215.012 233.001 198.99C233.001 182.969 181.736 169.981 118.497 169.981C55.259 169.981 3.99414 182.969 3.99414 198.99C3.99414 215.012 55.259 228 118.497 228Z" fill="#75A9C8"/>
<path opacity="0.5" d="M118.497 228C181.736 228 233.001 215.012 233.001 198.99C233.001 182.969 181.736 169.981 118.497 169.981C55.259 169.981 3.99414 182.969 3.99414 198.99C3.99414 215.012 55.259 228 118.497 228Z" fill="white"/>
<path d="M190.447 58.6843V131.41L187.671 131.067V60.9683C187.671 59.611 187.063 58.3246 186.009 57.4688C181.961 54.1655 171.616 46.1691 167.976 47.7226C164.564 49.1834 149.422 99.0591 142.006 124.117C139.506 132.571 137.882 138.202 137.882 138.202L134.285 138.845C134.285 138.845 135.915 132.686 138.458 123.506C145.684 97.4456 160.31 47.0358 166.042 44.4248C166.042 44.4248 166.053 44.4248 166.058 44.4248C166.178 44.3703 166.292 44.343 166.4 44.3321C168.03 44.1741 170.128 44.7355 172.399 45.7112C173.045 45.9892 173.713 46.2999 174.387 46.6433C175.485 47.1938 176.598 47.8153 177.707 48.4803C178.299 48.8346 178.897 49.1998 179.478 49.565C180.559 50.2518 181.619 50.9495 182.618 51.6472C183.01 51.9143 183.384 52.1869 183.759 52.4431C184.819 53.2007 185.808 53.9312 186.677 54.5853C187.476 55.1849 188.176 55.7299 188.747 56.1824C189.051 56.4222 189.317 56.6348 189.551 56.8201C190.078 57.2398 190.399 57.8612 190.437 58.5263C190.447 58.5808 190.447 58.6298 190.447 58.6843Z" fill="#75A9C8" stroke="#263238" stroke-miterlimit="10"/>
<path d="M193.371 42.3207L172.399 45.7111L166.982 46.5887C166.901 46.5996 166.825 46.6105 166.748 46.6105C166.124 46.6105 165.569 46.2072 165.461 45.6348C165.368 45.1551 165.613 44.6864 166.042 44.4302C166.042 44.4302 166.053 44.4302 166.058 44.4302C166.194 44.3484 166.346 44.2939 166.515 44.2666L192.904 39.9986C193.621 39.8841 194.294 40.3093 194.425 40.9525C194.555 41.5903 194.083 42.2062 193.371 42.3207Z" fill="#75A9C8" stroke="#263238" stroke-miterlimit="10"/>
<path d="M200.503 44.534L177.705 48.4804L175.168 48.9165C175.092 48.9274 175.016 48.9328 174.94 48.9328C174.348 48.9328 173.815 48.524 173.706 47.9353C173.609 47.3902 173.897 46.8778 174.386 46.6435C174.489 46.5835 174.608 46.5508 174.728 46.529L200.063 42.1519C200.747 42.032 201.399 42.4681 201.519 43.1276C201.644 43.7872 201.187 44.4195 200.503 44.534Z" fill="#75A9C8" stroke="#263238" stroke-miterlimit="10"/>
<path d="M205.887 47.3792L182.622 51.6473L180.009 52.1269C179.933 52.1433 179.857 52.1487 179.781 52.1487C179.172 52.1487 178.629 51.7072 178.52 51.0695C178.401 50.3827 178.819 49.7231 179.477 49.565C179.504 49.5541 179.531 49.5487 179.558 49.5432L205.436 44.7955C206.132 44.6701 206.8 45.1443 206.925 45.853C207.05 46.567 206.588 47.2484 205.887 47.3792Z" fill="#75A9C8" stroke="#263238" stroke-miterlimit="10"/>
<path d="M210.891 50.2246L186.681 54.5798L184.388 54.9887C184.307 55.005 184.231 55.0105 184.155 55.0105C183.53 55.0105 182.976 54.5635 182.862 53.9257C182.747 53.2662 183.139 52.6284 183.758 52.4376C183.812 52.4158 183.861 52.4049 183.921 52.394L210.424 47.63C211.136 47.5046 211.815 47.9788 211.951 48.6929C212.075 49.4124 211.603 50.0938 210.891 50.2246Z" fill="#75A9C8" stroke="#263238" stroke-miterlimit="10"/>
<path d="M216.57 53.6531C216.407 53.7949 216.201 53.893 215.983 53.9257L190.437 58.5208L189.486 58.6898C189.404 58.7061 189.328 58.7116 189.247 58.7116C188.622 58.7116 188.068 58.2646 187.954 57.6268C187.845 57.0054 188.187 56.4113 188.747 56.1769C188.828 56.1387 188.921 56.1115 189.013 56.0951L215.516 51.3311C215.771 51.282 216.032 51.3202 216.255 51.4128C216.657 51.5763 216.961 51.9416 217.037 52.394C217.119 52.8846 216.929 53.3642 216.565 53.6477L216.57 53.6531Z" fill="#75A9C8" stroke="#263238" stroke-miterlimit="10"/>
<path opacity="0.3" d="M215.982 53.9257L190.436 58.5208C190.447 58.5753 190.447 58.6244 190.447 58.6789V97.3584L187.67 101.267V60.9683C187.67 59.611 187.062 58.3246 186.008 57.4688C181.96 54.1655 171.615 46.1691 167.975 47.7226C164.563 49.1834 149.421 99.0591 142.005 124.117L138.919 124.678L138.457 123.506C145.683 97.4456 160.309 47.0358 166.041 44.4248C166.041 44.4248 166.052 44.4248 166.057 44.4248C166.193 44.343 166.345 44.2885 166.514 44.2613L192.902 39.9932C193.62 39.8788 194.293 40.3039 194.424 40.9471C194.554 41.5849 194.081 42.2008 193.37 42.3153L172.398 45.7058C173.044 45.9838 173.713 46.2945 174.386 46.6379C174.49 46.5779 174.609 46.5452 174.729 46.5234L200.063 42.1463C200.748 42.0264 201.4 42.4625 201.519 43.122C201.644 43.7816 201.188 44.4139 200.503 44.5284L177.706 48.4748C178.298 48.8291 178.896 49.1943 179.477 49.5595C179.504 49.5486 179.532 49.5432 179.559 49.5377L205.437 44.79C206.132 44.6646 206.8 45.1389 206.925 45.8475C207.05 46.5615 206.589 47.2429 205.888 47.3737L182.623 51.6418C183.014 51.9089 183.389 52.1814 183.764 52.4376C183.818 52.4158 183.867 52.4049 183.927 52.394L210.43 47.6299C211.142 47.5046 211.821 47.9788 211.956 48.6929C212.081 49.4124 211.609 50.0937 210.897 50.2246L186.687 54.5798C187.486 55.1794 188.187 55.7245 188.757 56.1769C188.839 56.1388 188.931 56.1115 189.023 56.0952L215.526 51.3311C215.781 51.282 216.042 51.3202 216.265 51.4128C216.384 52.1814 216.488 52.9336 216.575 53.6477C216.412 53.7894 216.205 53.8876 215.988 53.9203L215.982 53.9257Z" fill="black"/>
<path d="M225.822 159.7C225.822 159.7 221.856 152.745 212.603 155.072C208.599 155.639 205.426 163.38 205.426 172.853C205.426 182.327 208.838 190.65 213.054 190.672L213.087 190.83C213.087 190.83 220.34 192.477 224.616 188.792C228.891 185.107 225.822 159.7 225.822 159.7Z" fill="#263238"/>
<path d="M222.306 189.555C226.107 189.555 229.189 182.368 229.189 173.502C229.189 164.636 226.107 157.449 222.306 157.449C218.504 157.449 215.422 164.636 215.422 173.502C215.422 182.368 218.504 189.555 222.306 189.555Z" fill="#263238"/>
<path opacity="0.3" d="M222.306 189.555C226.107 189.555 229.189 182.368 229.189 173.502C229.189 164.636 226.107 157.449 222.306 157.449C218.504 157.449 215.422 164.636 215.422 173.502C215.422 182.368 218.504 189.555 222.306 189.555Z" fill="black"/>
<path d="M223.85 172.466C223.85 177.536 222.128 181.64 220.004 181.64C219.743 181.64 219.482 181.575 219.238 181.455C217.488 180.594 216.168 176.898 216.168 172.466C216.168 168.035 217.488 164.334 219.238 163.478C219.482 163.358 219.743 163.292 220.004 163.292C222.128 163.292 223.85 167.402 223.85 172.466Z" fill="white" stroke="#263238" stroke-miterlimit="10"/>
<path d="M222.302 172.466C222.302 176.903 220.987 180.599 219.232 181.455C217.482 180.594 216.162 176.898 216.162 172.466C216.162 168.035 217.482 164.334 219.232 163.478C220.987 164.339 222.302 168.035 222.302 172.466Z" fill="white" stroke="#263238" stroke-miterlimit="10"/>
<path d="M227.843 148.046C227.843 151.382 228.201 154.222 225.604 155.601C223.007 156.98 218.416 159.149 216.362 169.506C214.531 178.762 216.601 181.88 213.494 182.725C211.076 183.39 192.712 187.859 184.758 189.794C182.519 190.339 181.107 190.683 181.107 190.683L161.276 177.361L160.792 177.034L158.592 175.551L160.792 165.249L161.048 164.05L171.49 149.381L189.425 131.252L198.129 125.932C198.129 125.932 218.715 126.182 219.807 127.414C220.894 128.646 221.192 129.3 221.725 134.277C222.263 139.259 221.632 141.227 224.979 142.203C227.886 143.042 227.902 144.312 227.853 146.803C227.853 147.19 227.837 147.599 227.837 148.04L227.843 148.046Z" fill="#75A9C8"/>
<path opacity="0.3" d="M216.166 126.684C216.166 126.684 215.992 126.815 215.987 126.831C214.465 128.047 207.207 131.596 202.806 137.848C198.4 144.1 194.059 152.118 194.151 156.855C194.151 156.855 195.243 157.444 195.732 159.112V162.317C187.468 169.817 181.584 176.369 181.584 176.369L161.28 177.35L160.797 177.372V164.399L161.052 164.039L171.495 149.371L189.43 131.241L198.133 125.921C198.133 125.921 209.961 126.068 216.166 126.673V126.684Z" fill="black"/>
<path d="M183.85 189.98L212.797 182.987C214.237 182.621 215.264 181.351 215.324 179.863C215.514 175.137 216.275 164.988 219.388 160.676C221.648 157.542 223.968 156.185 225.603 155.601C226.94 155.122 227.842 153.862 227.842 152.434V145.528C227.842 143.909 226.69 142.519 225.103 142.225L224.984 142.203C223.528 141.93 222.425 140.737 222.267 139.26L221.257 129.835C221.083 128.227 219.801 126.973 218.198 126.848C212.259 126.379 198.101 125.512 189.12 127.088" stroke="#263238" stroke-linecap="round" stroke-linejoin="round"/>
<path d="M211.967 149.376C214.7 147.458 217.438 145.702 220.095 144.231" stroke="#263238" stroke-linecap="round" stroke-linejoin="round"/>
<path d="M182.291 175.214C182.291 175.214 193.744 163.282 206.708 153.263" stroke="#263238" stroke-linecap="round" stroke-linejoin="round"/>
<path d="M184.27 168.416C184.27 168.416 176.294 153.552 162.037 163.636" stroke="#263238" stroke-linecap="round" stroke-linejoin="round"/>
<path d="M195.678 162.453C195.678 162.453 196.379 157.204 192.483 155.798C188.587 154.391 173.146 154.947 173.146 154.947" stroke="#263238" stroke-linecap="round" stroke-linejoin="round"/>
<path d="M194.152 156.86C194.152 156.86 194.842 140.502 213.5 128.723" stroke="#263238" stroke-linecap="round" stroke-linejoin="round"/>
<path d="M181.89 173.159C181.89 173.159 177.456 165.386 167.117 167.986C162.645 168.618 159.098 177.269 159.098 187.86C159.098 198.451 162.912 207.75 167.617 207.772L167.655 207.946C167.655 207.946 175.756 209.783 180.537 205.668C185.318 201.552 181.884 173.159 181.884 173.159H181.89Z" fill="#263238"/>
<path d="M177.961 206.518C182.21 206.518 185.654 198.487 185.654 188.579C185.654 178.672 182.21 170.64 177.961 170.64C173.712 170.64 170.268 178.672 170.268 188.579C170.268 198.487 173.712 206.518 177.961 206.518Z" fill="#222221"/>
<path opacity="0.3" d="M177.961 206.518C182.21 206.518 185.654 198.487 185.654 188.579C185.654 178.672 182.21 170.64 177.961 170.64C173.712 170.64 170.268 178.672 170.268 188.579C170.268 198.487 173.712 206.518 177.961 206.518Z" fill="black"/>
<path d="M179.684 187.424C179.684 193.087 177.755 197.677 175.386 197.677C175.093 197.677 174.805 197.606 174.527 197.47H174.522C172.566 196.51 171.094 192.378 171.094 187.424C171.094 182.469 172.566 178.337 174.522 177.378H174.527C174.805 177.241 175.093 177.17 175.386 177.17C177.76 177.17 179.684 181.76 179.684 187.424Z" fill="white" stroke="#263238" stroke-miterlimit="10"/>
<path d="M177.956 187.424C177.956 192.379 176.489 196.51 174.527 197.47H174.522C172.566 196.51 171.094 192.379 171.094 187.424C171.094 182.469 172.566 178.337 174.522 177.378H174.527C176.489 178.337 177.956 182.469 177.956 187.424Z" fill="white" stroke="#263238" stroke-miterlimit="10"/>
<path opacity="0.1" d="M225.604 155.601C223.007 156.98 218.416 159.15 216.363 169.506C214.532 178.762 216.602 181.88 213.494 182.725C211.076 183.39 192.712 187.86 184.758 189.795L184.264 185.69L210.218 180.032C210.218 180.032 209.289 149.921 227.854 146.803C227.854 147.19 227.837 147.599 227.837 148.041C227.837 151.377 228.196 154.217 225.599 155.596L225.604 155.601Z" fill="black"/>
<path opacity="0.1" d="M194.152 155.786C194.152 155.786 197.586 158.158 199.395 156.348C201.205 154.544 213.543 146.084 219.232 144.721C219.232 144.721 200.531 157.787 194.505 163.445C194.505 163.445 197.613 161.782 194.505 157.449L194.152 155.786Z" fill="black"/>
<path d="M157.939 104.161C157.939 104.161 159.162 117.827 165.568 121.25C165.568 121.25 170.485 121.8 175.048 118.949C177.26 117.565 181.699 104.499 182.084 103.234L172.44 101.79L170.588 114.834C170.588 114.834 166.372 110.708 163.916 106.565C164.236 105.028 162.78 104.118 162.384 102.788C160.575 96.7588 157.939 104.161 157.939 104.161Z" fill="white" stroke="#263238" stroke-linecap="round" stroke-linejoin="round"/>
<path d="M193.559 83.8621C193.559 83.8621 196.276 83.8621 197.406 86.2932C197.406 86.2932 207.664 90.5231 209.652 93.4774C211.635 96.4318 210.712 108.146 208.278 113.193C205.844 118.235 201.062 120.072 201.062 120.072L200.041 124.515L178.705 124.291L176.619 110.86L176.7 104.565L172.381 102.139C172.381 102.139 173.658 92.2728 175.494 91.3516C177.33 90.4304 185.382 87.1162 185.382 87.1162C185.382 87.1162 185.947 85.4755 187.001 85.0176C188.055 84.5598 193.559 83.8675 193.559 83.8675V83.8621Z" fill="#75A9C8"/>
<path d="M208.924 110.98C208.924 110.98 206.305 120.416 204.561 122.258C204.561 122.258 199.916 122.629 196.433 121.768C192.95 120.906 178.493 115.036 176.77 113.231C175.048 111.427 178.303 109.23 178.303 109.23C178.303 109.23 181.171 110.304 185.29 111.275C189.408 112.245 196.601 112.888 198.617 114.114L200.285 108.958C200.285 108.958 204.795 107.721 208.924 110.975V110.98Z" fill="white"/>
<path d="M182.15 68.6703C182.15 68.6703 181.781 71.5701 182.9 77.0646C184.025 82.5591 184.921 83.9873 186.486 83.8292C188.051 83.6711 188.051 84.5542 188.051 84.5542V87.9882C188.051 87.9882 189.615 94.1586 190.561 94.502C191.512 94.8454 194.299 89.7925 194.978 88.3589C195.657 86.9253 195.662 80.5586 195.662 80.5586L195.983 75.5384C195.983 75.5384 198.173 75.1078 197.836 72.8511C197.493 70.5944 194.907 67.6019 194.907 67.6019C194.907 67.6019 186.758 65.6559 182.145 68.6757L182.15 68.6703Z" fill="white"/>
<path d="M160.797 121.25C160.797 121.25 172.755 121.969 173.972 123.326C175.189 124.684 174.918 127.938 174.918 127.938L177.384 129.698L173.152 160.125C173.152 160.125 165.301 158.076 160.797 166.247V121.244V121.25Z" fill="#263238"/>
<path d="M185.132 72.366C185.393 73.6197 185.013 74.9879 184.143 75.9309C184.089 75.9908 184.029 76.0508 183.997 76.1216C183.888 76.3397 184.018 76.6122 184.203 76.7757C184.458 76.9992 184.812 77.1028 185.143 77.0483C185.474 76.9938 185.779 76.7812 185.947 76.4868" stroke="#263238" stroke-linecap="round" stroke-linejoin="round"/>
<path d="M184.96 70.8998C184.96 70.8998 184.052 70.1095 183.074 71.1179" stroke="#263238" stroke-linecap="round" stroke-linejoin="round"/>
<path d="M187.365 70.6C187.365 70.6 188.805 69.9132 189.647 71.3304" stroke="#263238" stroke-linecap="round" stroke-linejoin="round"/>
<path d="M184.459 72.9547C184.459 73.429 184.252 73.816 183.997 73.816C183.742 73.816 183.535 73.429 183.535 72.9547C183.535 72.4805 183.742 72.0935 183.997 72.0935C184.252 72.0935 184.459 72.4805 184.459 72.9547Z" fill="#263238"/>
<path d="M187.936 73.816C188.191 73.816 188.398 73.4304 188.398 72.9547C188.398 72.4791 188.191 72.0935 187.936 72.0935C187.681 72.0935 187.475 72.4791 187.475 72.9547C187.475 73.4304 187.681 73.816 187.936 73.816Z" fill="#263238"/>
<path d="M185.545 78.6946C185.545 78.6946 188.289 79.1852 189.022 77.6589" stroke="#263238" stroke-linecap="round" stroke-linejoin="round"/>
<path d="M183.536 65.3833C183.536 65.3833 181.384 68.7847 182.444 74.7152C183.498 80.6513 184.644 83.4312 186.491 83.8291C188.339 84.227 193.527 81.2236 194.761 79.9481C195.994 78.6671 195.994 75.5329 195.994 75.5329" stroke="#263238" stroke-linecap="round" stroke-linejoin="round"/>
<path d="M194.445 72.8458C194.445 72.8458 194.82 70.7472 195.836 70.4038C196.852 70.0603 197.836 71.7556 197.836 72.8458C197.836 73.9359 196.89 75.7892 195.603 75.533" stroke="#263238" stroke-linecap="round" stroke-linejoin="round"/>
<path d="M195.548 70.5618C195.548 70.5618 194.004 71.483 192.624 71.3358C191.244 71.1886 189.321 68.7466 186.632 68.9647C183.942 69.1827 181.688 71.0087 180.813 70.2783C179.938 69.5479 181.247 67.5801 181.247 67.5801L181.867 66.7952C181.867 66.7952 181.704 65.1272 181.704 63.7427C181.704 62.3582 183.926 60.2105 188.506 59.9162C193.086 59.6218 195.124 61.4097 195.863 62.2273C196.036 62.4181 197.503 64.0697 197.84 65.6178C198.221 67.373 197.552 69.9077 197.389 71.3467C196.699 69.9077 195.548 70.5563 195.548 70.5563V70.5618Z" fill="#263238"/>
<path d="M183.535 66.8716C183.535 66.8716 187.311 64.6149 191.696 67.8146" stroke="white" stroke-linecap="round" stroke-linejoin="round"/>
<path d="M188.051 83.6711V87.9882C188.051 87.9882 189.447 94.0823 190.561 94.502C191.68 94.9217 194.331 89.9505 194.891 88.6205C195.19 87.9119 195.326 86.2384 195.391 84.8376L195.983 75.5383" stroke="#263238" stroke-linecap="round" stroke-linejoin="round"/>
<path d="M187.936 84.8323C187.936 84.8323 186.029 84.9031 185.817 86.1623C185.605 87.4215 185.746 92.8832 185.328 93.7281C184.909 94.5676 184.209 95.129 184.491 95.407C184.768 95.685 188.577 92.4908 189.571 93.0032" stroke="#263238" stroke-linecap="round" stroke-linejoin="round"/>
<path d="M192.412 92.9813C192.412 92.9813 194.189 93.6572 195.449 94.9164C196.704 96.1755 197.682 94.8292 197.335 94.5239C196.987 94.2187 196.498 93.3792 197.057 91.1389C197.617 88.8986 197.492 84.8431 195.428 84.0691" stroke="#263238" stroke-linecap="round" stroke-linejoin="round"/>
<path d="M172.332 102.373C173.136 97.9689 174.288 92.131 175.489 91.3461C177.227 90.2123 185.736 87.0835 185.736 87.0835" stroke="#263238" stroke-linecap="round" stroke-linejoin="round"/>
<path d="M175.793 105.159L178.401 123.277L200.036 124.515L200.796 122.411" stroke="#263238" stroke-linecap="round" stroke-linejoin="round"/>
<path d="M177.836 110.43L171.365 107.497" stroke="#222221" stroke-linecap="round" stroke-linejoin="round"/>
<path d="M175.07 112.474C173.549 108.402 170.854 105.039 167.486 103C164.019 100.901 160.249 100.443 156.875 101.714C153.501 102.984 150.958 105.813 149.725 109.683C149.42 110.631 149.203 111.623 149.078 112.632L151.681 112.981C151.784 112.125 151.969 111.291 152.229 110.489C153.218 107.404 155.196 105.164 157.798 104.183C158.749 103.823 159.743 103.649 160.759 103.649C162.536 103.649 164.378 104.194 166.138 105.257C167.573 106.123 168.86 107.279 169.958 108.658C171.055 110.037 171.962 111.64 172.614 113.4C173.929 116.916 174.092 120.612 173.065 123.811C172.077 126.897 170.099 129.137 167.496 130.118C165.394 130.909 163.063 130.816 160.781 129.867V132.68C162.025 133.089 163.286 133.296 164.535 133.296C165.861 133.296 167.17 133.056 168.42 132.587C171.794 131.317 174.337 128.483 175.57 124.613C176.097 122.961 176.363 121.206 176.363 119.413C176.363 117.118 175.934 114.758 175.076 112.474H175.07Z" fill="#263238"/>
<path d="M160.668 102.335C160.668 102.335 159.299 111.809 162.646 114.763C165.992 117.717 173.675 113.471 173.675 113.471L174.87 116.976C174.87 116.976 164.971 118.644 166.199 128.614L160.57 129.344V114.109L155.952 113.52C155.952 113.52 156.24 108.816 152.975 106.227C152.975 106.227 155.968 103.507 160.673 102.34L160.668 102.335Z" fill="#263238"/>
<path d="M177.031 113.755C182.443 115.668 188.028 119.402 192.956 120.912C198.709 122.678 204.235 122.509 204.566 122.258C204.566 122.258 207.028 117.554 208.511 112.463C210.679 105.039 211.901 96.0446 209.652 93.4773C206.712 90.125 197.406 86.293 197.406 86.293" stroke="#263238" stroke-linecap="round" stroke-linejoin="round"/>
<path d="M188.051 84.5542C188.051 84.5542 188.187 87.3941 189.572 87.0889C190.958 86.7836 194.804 83.9492 195.782 78.7654C195.782 78.7654 194.701 80.417 192.414 81.6435C190.126 82.8699 188.507 83.5295 188.507 83.5295L188.051 84.5542Z" fill="#263238"/>
<path d="M177.476 107.459C177.21 106.401 176.732 105.213 175.743 104.962C175.52 104.908 175.292 104.902 175.064 104.908C173.135 104.952 171.098 105.638 169.984 107.219C169.826 107.443 169.685 107.699 169.68 107.971C169.68 108.249 169.854 108.544 170.125 108.582C170.315 108.615 170.495 108.522 170.663 108.429C171.429 108.015 172.184 107.552 173.027 107.328C173.505 107.203 174.021 107.165 174.483 107.344C174.575 107.464 174.727 107.819 174.819 107.939C173.266 108.037 170.647 108.991 170.033 110.566C169.984 110.691 169.946 110.828 169.984 110.958C170.087 111.324 170.609 111.307 170.978 111.215C172.293 110.888 173.635 110.664 174.988 110.539C174.488 110.61 173.999 110.828 173.505 110.898C172.619 111.029 171.608 111.236 171.158 112.01C171.076 112.147 171.022 112.31 171.076 112.463C171.147 112.659 171.38 112.735 171.587 112.763C172.266 112.85 172.945 112.67 173.624 112.621C174.303 112.572 175.069 112.697 175.493 113.237C175.531 113.836 175.52 114.283 175.558 114.883C176.498 114.452 177.194 113.678 177.482 112.681C177.889 111.291 177.943 109.803 177.677 108.386C177.628 108.113 177.563 107.791 177.482 107.459H177.476Z" fill="white" stroke="#263238" stroke-linecap="round" stroke-linejoin="round"/>
<path d="M198.623 114.12C198.623 114.12 200.943 108.963 200.791 104.357" stroke="#263238" stroke-linecap="round" stroke-linejoin="round"/>
<path d="M200.384 124.368C200.384 124.368 203.828 134.283 199.71 141.265C198.151 143.914 180.515 144.236 180.515 144.236L173.153 160.131L164.846 130.876L178.401 123.277L200.384 124.368Z" fill="#263238"/>
<path d="M179.873 143.364L196.672 144.236" stroke="#263238" stroke-linecap="round" stroke-linejoin="round"/>
<path d="M178.02 108.963C181.611 110.555 189.728 112.468 191.966 112.675C195.623 113.013 199.975 113.515 201.876 117.156" stroke="#263238" stroke-linecap="round" stroke-linejoin="round"/>
<path d="M200.291 108.963C200.291 108.963 204.17 107.928 208.93 110.98" stroke="#263238" stroke-linecap="round" stroke-linejoin="round"/>
<g opacity="0.2">
<path d="M185.742 126.739C182.775 127.643 178.418 129.061 173.887 130.87" stroke="white" stroke-linecap="round" stroke-linejoin="round"/>
<path d="M182.439 127.415L181.732 125.632" stroke="white" stroke-linecap="round" stroke-linejoin="round"/>
</g>
<path d="M177.031 106.183L176.357 99.7896" stroke="#263238" stroke-linecap="round" stroke-linejoin="round"/>
<path d="M154.664 102.101C153.958 102.869 153.284 103.807 153.371 104.848C153.387 105.066 153.463 105.311 153.659 105.409C153.903 105.529 154.191 105.366 154.387 105.18C154.729 104.853 154.979 104.434 155.099 103.976C155.224 103.512 155.691 100.989 154.664 102.101Z" fill="white" stroke="#263238" stroke-linecap="round" stroke-linejoin="round"/>
<path d="M157.076 102.989C156.696 103.605 156.25 104.177 155.75 104.701C155.734 104.723 155.712 104.739 155.685 104.744C155.658 104.744 155.631 104.728 155.609 104.712C155.305 104.483 155.142 104.101 155.104 103.72C155.066 103.338 155.142 102.956 155.25 102.591C155.468 101.828 155.832 101.06 156.473 100.596C156.587 100.514 156.712 100.438 156.853 100.427C157.005 100.411 157.157 100.465 157.299 100.525C157.521 100.623 157.739 100.738 157.94 100.874C157.652 101.594 157.489 102.324 157.076 102.989Z" fill="white" stroke="#263238" stroke-linecap="round" stroke-linejoin="round"/>
<path d="M158.973 99.397C157.702 100.062 157.006 101.97 156.849 103.3C156.8 103.747 156.876 104.243 157.381 104.346C157.886 104.45 158.397 104.107 158.674 103.665C158.951 103.229 159.06 102.706 159.228 102.215C159.402 101.703 159.652 101.272 160.103 100.972C160.494 100.711 161.19 100.771 161.304 100.204C161.532 99.0918 159.565 99.0808 158.967 99.3915L158.973 99.397Z" fill="white" stroke="#263238" stroke-linecap="round" stroke-linejoin="round"/>
<path d="M176.857 104.565L172.375 102.139" stroke="#263238" stroke-linecap="round" stroke-linejoin="round"/>
<path d="M158.984 23.4004V113.705L148.655 113.765L144.896 114.523V45.0623L144.879 45.0677H144.874L122.381 48.9324L122.125 48.9706L122.5 109.895L111.574 108.756V32.8141L114.394 31.8384L122.125 33.4028L122.18 33.3919L144.608 28.11L144.64 28.1045L144.874 23.1333V23.1224L144.896 22.6918L148.655 21.5144L158.984 23.4004Z" fill="#75A9C8"/>
<path opacity="0.3" d="M144.874 45.0681L122.739 48.8674L122.381 48.9328L122.18 33.3923L144.608 28.1104L144.841 43.0458L144.874 45.0681Z" fill="black"/>
<path opacity="0.2" d="M144.874 45.0679L122.381 48.9326L122.413 47.1502L144.841 43.0457L144.874 45.0679Z" fill="black"/>
<path opacity="0.2" d="M114.394 31.8386V109.051L111.574 108.756V32.8143L114.394 31.8386Z" fill="black"/>
<path opacity="0.2" d="M148.655 21.5146V113.766L144.895 114.523L144.878 45.068L144.873 23.1336V23.1227L144.895 22.692L148.655 21.5146Z" fill="black"/>
<path d="M158.984 114.202V23.4007L148.656 21.5093L144.891 22.6921V115.101" stroke="#263238" stroke-linecap="round" stroke-linejoin="round"/>
<path d="M148.656 21.5093V114.523" stroke="#263238" stroke-linecap="round" stroke-linejoin="round"/>
<path d="M122.506 110.789L122.125 33.4031L114.394 31.8333L111.574 32.8144V110.163" stroke="#263238" stroke-linecap="round" stroke-linejoin="round"/>
<path d="M114.395 31.8333V111.869" stroke="#263238" stroke-linecap="round" stroke-linejoin="round"/>
<path d="M122.125 33.403L144.89 28.1375" stroke="#263238" stroke-linecap="round" stroke-linejoin="round"/>
<path d="M122.18 47.1994L144.89 42.9204" stroke="#263238" stroke-linecap="round" stroke-linejoin="round"/>
<path d="M122.381 48.9327L144.89 45.0571" stroke="#263238" stroke-linecap="round" stroke-linejoin="round"/>
<path d="M218.2 126.842V65.013C218.2 62.8272 218.265 60.625 218.308 58.4447C218.341 56.7058 218.591 54.7489 217.667 53.2118C215.999 50.4318 213.033 48.5894 210.376 46.867C205.443 43.6618 199.955 40.9146 194.153 39.7699C186.916 38.3363 160.57 114.889 160.57 114.889L160.798 121.255C160.798 121.255 188.665 41.6941 195.788 42.926C199.944 43.6455 203.889 45.4443 207.426 47.7282C209.387 48.9928 211.598 50.0394 213.272 51.7019C215.76 54.1711 215.423 57.3272 215.423 60.5651C215.423 61.8896 215.423 63.2087 215.423 64.5333C215.423 68.0982 215.423 71.6631 215.423 75.228C215.423 83.9766 215.423 92.7253 215.423 101.474C215.423 108.446 215.423 115.423 215.423 122.395C215.423 122.613 215.347 126.505 215.423 126.51L218.2 126.848V126.842Z" fill="#75A9C8" stroke="#263238" stroke-miterlimit="10"/>
<path d="M160.022 187.647V206.344L154.257 207.919L135.322 204.207L132.15 205.106V213.953L122.832 216.34L103.376 212.356L100.724 213.059V222.544L88.315 225.934L70.8311 222.407V213.293L68.8426 213.233L48.8106 218.286L39.0093 216.073V207.755L34.6193 207.292L17.418 211.991L11.0449 210.345V192.858L88.315 190.154L92.9875 189.991L160.022 187.647Z" fill="#75A9C8"/>
<path opacity="0.1" d="M160.021 187.647V206.344L154.256 207.919L135.322 204.207L132.149 205.106V213.953L122.831 216.34L103.375 212.356L100.724 213.059V222.544L88.3145 225.934V190.154L92.9869 189.991L160.021 187.647Z" fill="black"/>
<path opacity="0.3" d="M88.315 189.604V225.934L70.8311 222.407V213.294L68.8426 213.234L48.8106 218.287L39.0093 216.073V207.755L34.6193 207.292L17.418 211.991L11.0449 210.345V183.205L88.315 189.604Z" fill="black"/>
<path opacity="0.3" d="M50.4297 209.74V218.292L68.8426 213.234L50.4297 209.74Z" fill="black"/>
<path opacity="0.3" d="M122.831 207.221V216.341L103.375 212.356L122.831 207.221Z" fill="black"/>
<path opacity="0.3" d="M154.257 207.919V198.8L135.654 204.054L154.257 207.919Z" fill="black"/>
<path opacity="0.3" d="M18.6133 204.201L35.9341 207.292L18.6133 211.958V204.201Z" fill="black"/>
<path d="M160.798 114.131V190.269L88.3148 206.131L7.80664 195.878V114.131L88.3148 106.565L160.798 114.131Z" fill="white"/>
<path opacity="0.1" d="M80.2402 116.077L88.6942 115.461L96.3875 116.077V120.339L88.6996 119.696L80.2402 120.519V116.077Z" fill="black"/>
<path d="M7.80664 114.13V195.883L88.3148 206.13L160.798 190.268V114.13L88.3148 106.57L7.80664 114.13Z" stroke="#263238" stroke-linecap="round" stroke-linejoin="round"/>
<path d="M88.3145 225.934V206.131V106.57" stroke="#263238" stroke-linecap="round" stroke-linejoin="round"/>
<path d="M69.3859 213.043L50.4297 218.292L39.0147 216.073V207.75L18.6133 204.201V211.958L11.0449 210.344V196.292" stroke="#263238" stroke-linecap="round" stroke-linejoin="round"/>
<path d="M18.7441 211.991L35.9346 207.292" stroke="#263238" stroke-linecap="round" stroke-linejoin="round"/>
<path d="M122.832 216.341V207.221L100.724 213.059V222.544L88.3149 225.934L70.8311 222.407V213.293L50.4297 209.74V218.292" stroke="#263238" stroke-linecap="round" stroke-linejoin="round"/>
<path opacity="0.1" d="M88.3148 106.565V206.131L7.80664 195.878V114.131L88.3148 106.565Z" fill="black"/>
<path d="M103.375 212.361L122.831 216.286L132.149 213.958V205.112L154.256 198.799V207.919L155.261 207.646L160.021 206.343L160.026 190.438" stroke="#263238" stroke-linecap="round" stroke-linejoin="round"/>
<path d="M154.094 207.99L135.322 204.201" stroke="#263238" stroke-linecap="round" stroke-linejoin="round"/>
<path d="M7.80664 139.854L88.3148 136.959L160.798 139.854" stroke="#263238" stroke-linecap="round" stroke-linejoin="round"/>
<path d="M7.80664 168.351L88.3148 173.028L160.798 166.252" stroke="#263238" stroke-linecap="round" stroke-linejoin="round"/>
<path d="M130.27 110.948V138.409" stroke="#263238" stroke-linecap="round" stroke-linejoin="round"/>
<path d="M120.887 138.409V169.981" stroke="#263238" stroke-linecap="round" stroke-linejoin="round"/>
<path d="M144.711 139.216V167.501" stroke="#263238" stroke-linecap="round" stroke-linejoin="round"/>
<path d="M129.117 169.212V197.203" stroke="#263238" stroke-linecap="round" stroke-linejoin="round"/>
<path d="M56.8633 109.525V171.125" stroke="#263238" stroke-linecap="round" stroke-linejoin="round"/>
<path d="M20.5254 112.937V139.216" stroke="#263238" stroke-linecap="round" stroke-linejoin="round"/>
<path d="M29.8262 139.063V169.637" stroke="#263238" stroke-linecap="round" stroke-linejoin="round"/>
<path d="M41.1602 200.13V170.231" stroke="#263238" stroke-linecap="round" stroke-linejoin="round"/>
<path opacity="0.1" d="M7.87695 151.688H14.6847V155.727L7.87695 155.656V151.688Z" fill="black"/>
<path opacity="0.1" d="M115.068 150.984V155.525L126.793 154.925V151.17L115.068 150.984Z" fill="black"/>
<path opacity="0.1" d="M34.7109 182.436V187.069L48.0602 188.416V183.205L34.7109 182.436Z" fill="black"/>
<path d="M89.0763 49.2924C85.7186 47.4609 84.1538 48.9872 82.926 47.4609C81.6981 45.9347 86.3054 41.9065 77.0853 37.9001C77.0853 37.9001 76.4931 29.2604 63.8665 28.9552C51.2345 28.6499 54.641 37.5785 51.2616 39.7316C47.8822 41.8847 46.9586 38.4997 43.5901 40.6637C40.2215 42.8277 41.7428 47.1393 38.9719 47.7716C36.2064 48.3985 32.5173 44.9971 29.1325 47.1775C25.7476 49.3578 25.7531 51.1839 24.2155 51.1839C22.6779 51.1839 19.5973 49.952 17.7609 51.1839C15.9191 52.4158 13.7676 53.9584 13.7676 53.9584H91.532C91.532 53.9584 92.4611 51.1457 89.0763 49.2924Z" stroke="#263238" stroke-linecap="round" stroke-linejoin="round"/>
<path d="M43.0582 48.0552C42.6181 48.3059 42.1563 48.5239 41.6836 48.7038" stroke="#263238" stroke-linecap="round" stroke-linejoin="round"/>
<path d="M59.6944 33.6211C58.146 34.3188 57.0268 35.7251 56.6953 37.3986C56.1031 40.2221 54.8209 42.1027 53.3214 42.288C51.8218 42.4788 46.1714 41.901 45.2532 43.9723C45.0032 44.5828 44.8239 45.2151 44.7207 45.8693" stroke="#263238" stroke-linecap="round" stroke-linejoin="round"/>
<path d="M92.8356 75.1133C91.5153 74.3884 90.9123 74.9934 90.4341 74.3884C89.956 73.7833 91.749 72.2189 88.1522 70.6545C88.1522 70.6545 87.9077 67.2804 82.9853 67.1605C78.0629 67.0406 79.3777 70.5346 78.0575 71.374C76.7372 72.2135 76.3732 70.8944 75.0529 71.7338C73.7327 72.5732 74.3303 74.2685 73.2546 74.5083C72.1734 74.7536 70.7336 73.4181 69.4133 74.263C68.0931 75.1079 68.0931 75.8274 67.49 75.8274C66.8869 75.8274 65.6916 75.3477 64.969 75.8274C64.2464 76.3071 63.4043 76.9176 63.4043 76.9176H93.7973C93.7973 76.9176 94.1558 75.8274 92.841 75.1079L92.8356 75.1133Z" stroke="#263238" stroke-linecap="round" stroke-linejoin="round"/>
<path d="M74.8625 74.6174C74.6887 74.7155 74.5148 74.7973 74.3301 74.8736" stroke="#263238" stroke-linecap="round" stroke-linejoin="round"/>
<path d="M81.3554 68.9866C80.7469 69.2591 80.3122 69.8042 80.1764 70.4529C79.9591 71.5594 79.4429 72.2953 78.8616 72.3661C78.2748 72.437 76.0744 72.2244 75.7104 73.0311C75.6126 73.271 75.5419 73.5163 75.5039 73.7725" stroke="#263238" stroke-linecap="round" stroke-linejoin="round"/>
</g>
<defs>
<clipPath id="clip0_569_5359">
<rect width="233" height="228" fill="white"/>
</clipPath>
</defs>
</svg>
