<svg width="234" height="228" viewBox="0 0 234 228" fill="none" xmlns="http://www.w3.org/2000/svg">
<g clip-path="url(#clip0_567_4661)">
<path d="M221.352 89.1432C211.231 77.9487 194.272 76.6969 181.086 69.3582C158.391 56.7283 149.595 27.9689 128.948 12.2121C115.906 2.26403 98.2909 -1.5917 82.5397 0.589315C60.1787 3.68837 39.1363 18.6717 32.8213 40.6266C31.0687 46.719 30.3677 53.3288 30.9074 60.3281C31.92 73.4309 34.7353 86.7006 32.0758 99.5698C29.1436 113.752 19.9188 125.731 14.4051 139.123C7.53931 155.798 6.59346 174.509 9.53116 192.302C11.5341 204.442 15.529 216.699 23.8636 225.746C24.4923 226.431 25.1488 227.082 25.8165 227.721H116.846C122.555 220.438 126.883 211.82 131.907 204.175C144.548 184.93 164.79 171.215 186.895 164.778C196.798 161.896 207.525 160.182 215.482 153.617C223.672 146.862 227.433 136.091 229.057 125.608C231.027 112.912 229.964 98.6795 221.346 89.1487L221.352 89.1432Z" fill="#75A9C8"/>
<path opacity="0.7" d="M221.352 89.1432C211.231 77.9487 194.272 76.6969 181.086 69.3582C158.391 56.7283 149.595 27.9689 128.948 12.2121C115.906 2.26403 98.2909 -1.5917 82.5397 0.589315C60.1787 3.68837 39.1363 18.6717 32.8213 40.6266C31.0687 46.719 30.3677 53.3288 30.9074 60.3281C31.92 73.4309 34.7353 86.7006 32.0758 99.5698C29.1436 113.752 19.9188 125.731 14.4051 139.123C7.53931 155.798 6.59346 174.509 9.53116 192.302C11.5341 204.442 15.529 216.699 23.8636 225.746C24.4923 226.431 25.1488 227.082 25.8165 227.721H116.846C122.555 220.438 126.883 211.82 131.907 204.175C144.548 184.93 164.79 171.215 186.895 164.778C196.798 161.896 207.525 160.182 215.482 153.617C223.672 146.862 227.433 136.091 229.057 125.608C231.027 112.912 229.964 98.6795 221.346 89.1487L221.352 89.1432Z" fill="white"/>
<path d="M12.373 196.341L12.4843 198.366L12.501 198.689L12.757 203.435L12.8015 204.336L13.0296 208.515L13.1075 209.995L13.3022 213.589L13.4079 215.642L13.5748 218.663L13.7139 221.295L13.8475 223.743C13.8475 223.743 13.8753 224.282 13.9087 224.917" stroke="#263238" stroke-width="0.556382" stroke-linecap="round" stroke-linejoin="round"/>
<path d="M13.959 225.874C13.9924 226.464 14.0146 226.948 14.0146 226.948L14.0369 227.41H40.1368L40.1924 226.392L40.3204 223.994L40.4651 221.312L40.6208 218.352L40.7377 216.238L40.9268 212.694L41.0103 211.164C41.0103 211.164 41.0548 210.346 41.1049 209.439" stroke="#263238" stroke-width="0.556382" stroke-linecap="round" stroke-linejoin="round"/>
<path d="M41.166 208.332C41.205 207.614 41.2328 207.047 41.2328 207.047L41.2829 206.09L41.5332 201.394L41.5555 201.016C41.5555 201.016 41.6223 199.769 41.689 198.562" stroke="#263238" stroke-width="0.556382" stroke-linecap="round" stroke-linejoin="round"/>
<path d="M41.7441 197.543C41.7831 196.858 41.8109 196.341 41.8109 196.341" stroke="#263238" stroke-width="0.556382" stroke-linecap="round" stroke-linejoin="round"/>
<path d="M14.4813 227.41L14.0195 226.948" stroke="#263238" stroke-width="0.556382" stroke-linecap="round" stroke-linejoin="round"/>
<path d="M19.8275 227.41L17.6743 225.257L15.0037 222.586L13.7129 221.295" stroke="#263238" stroke-width="0.556382" stroke-linecap="round" stroke-linejoin="round"/>
<path d="M25.1813 227.41L23.0281 225.257L20.3519 222.581L17.6812 219.91L15.005 217.234L13.4082 215.643" stroke="#263238" stroke-width="0.556382" stroke-linecap="round" stroke-linejoin="round"/>
<path d="M30.5207 227.41L28.3675 225.257L25.6968 222.586L24.9902 221.879" stroke="#263238" stroke-width="0.556382" stroke-linecap="round" stroke-linejoin="round"/>
<path d="M24.2181 221.106L23.0218 219.91L20.3512 217.239L17.675 214.563L14.9988 211.887L14.3145 211.202" stroke="#263238" stroke-width="0.556382" stroke-linecap="round" stroke-linejoin="round"/>
<path d="M35.874 227.41L33.7208 225.257L31.0446 222.58L28.3739 219.91L25.6977 217.234L23.0271 214.563L20.3509 211.887L17.6747 209.211L15.0041 206.54L12.8008 204.337" stroke="#263238" stroke-width="0.556382" stroke-linecap="round" stroke-linejoin="round"/>
<path d="M40.1962 226.392L39.0612 225.257L36.3906 222.587C36.3906 222.587 36.0512 222.247 35.6172 221.813" stroke="#263238" stroke-width="0.556382" stroke-linecap="round" stroke-linejoin="round"/>
<path d="M34.5156 220.712C34.0649 220.262 33.7144 219.911 33.7144 219.911L31.0438 217.24L28.3676 214.564L25.6969 211.888L23.0207 209.217L20.3501 206.541C20.3501 206.541 19.7437 205.94 19.1094 205.306" stroke="#263238" stroke-width="0.556382" stroke-linecap="round" stroke-linejoin="round"/>
<path d="M17.6748 203.869L14.9986 201.193C14.9986 201.193 14.253 200.441 13.5742 199.763" stroke="#263238" stroke-width="0.556382" stroke-linecap="round" stroke-linejoin="round"/>
<path d="M15.5 196.341L17.6755 198.517L20.3517 201.193L23.0223 203.864L25.6985 206.54L28.3747 209.216L31.0453 211.887L33.7215 214.563L36.3922 217.234L39.0684 219.91L40.4704 221.312" stroke="#263238" stroke-width="0.556382" stroke-linecap="round" stroke-linejoin="round"/>
<path d="M20.8457 196.341L23.0267 198.522L25.6974 201.193L28.3736 203.869L31.0442 206.54L33.7204 209.216L36.3966 211.892L39.0672 214.563L40.7419 216.238" stroke="#263238" stroke-width="0.556382" stroke-linecap="round" stroke-linejoin="round"/>
<path d="M26.1934 196.341L28.3688 198.517L31.045 201.193L33.7212 203.869L36.3919 206.54L39.0681 209.216L41.0154 211.163" stroke="#263238" stroke-width="0.556382" stroke-linecap="round" stroke-linejoin="round"/>
<path d="M31.5391 196.341L33.7201 198.522L36.3907 201.193L39.0669 203.869L41.2869 206.089" stroke="#263238" stroke-width="0.556382" stroke-linecap="round" stroke-linejoin="round"/>
<path d="M36.8867 196.341L39.0677 198.522L41.5603 201.015" stroke="#263238" stroke-width="0.556382" stroke-linecap="round" stroke-linejoin="round"/>
<path d="M40.3263 223.993L39.0634 225.256L36.9102 227.409" stroke="#263238" stroke-width="0.556382" stroke-linecap="round" stroke-linejoin="round"/>
<path d="M40.6263 218.352L39.0684 219.91L36.3922 222.586L33.7216 225.256L31.5684 227.41" stroke="#263238" stroke-width="0.556382" stroke-linecap="round" stroke-linejoin="round"/>
<path d="M40.9312 212.693L39.0673 214.563L36.3911 217.233L33.7149 219.91L31.0442 222.58L28.368 225.256L26.2148 227.41" stroke="#263238" stroke-width="0.556382" stroke-linecap="round" stroke-linejoin="round"/>
<path d="M41.2385 207.047L39.0686 209.217L36.398 211.893L33.7218 214.564C33.7218 214.564 33.5716 214.714 33.3379 214.948" stroke="#263238" stroke-width="0.556382" stroke-linecap="round" stroke-linejoin="round"/>
<path d="M31.9817 216.305C31.4698 216.817 31.047 217.24 31.047 217.24L28.3763 219.91L25.7001 222.586L23.0295 225.257C23.0295 225.257 22.5009 225.786 21.9668 226.32" stroke="#263238" stroke-width="0.556382" stroke-linecap="round" stroke-linejoin="round"/>
<path d="M41.5379 201.393L39.0676 203.869L36.3914 206.54L33.7208 209.216L31.0446 211.887L28.3684 214.563L25.6977 217.233L23.0215 219.91L20.3509 222.58L17.6747 225.256L15.5215 227.41" stroke="#263238" stroke-width="0.556382" stroke-linecap="round" stroke-linejoin="round"/>
<path d="M13.8477 223.744L15.0049 222.586L17.6811 219.91L20.3518 217.24L23.028 214.563C23.028 214.563 23.3896 214.202 23.8459 213.745" stroke="#263238" stroke-width="0.556382" stroke-linecap="round" stroke-linejoin="round"/>
<path d="M25.0137 212.571C25.4031 212.181 25.6925 211.887 25.6925 211.887L28.3687 209.216L31.0393 206.54L33.7155 203.869L36.3861 201.193L39.0623 198.522C39.0623 198.522 39.5909 197.994 40.125 197.46" stroke="#263238" stroke-width="0.556382" stroke-linecap="round" stroke-linejoin="round"/>
<path d="M13.5742 218.663L15.0041 217.234L17.6748 214.563L20.351 211.887L23.0216 209.216L25.6978 206.54L28.374 203.869L31.0446 201.193L33.7208 198.522L35.8963 196.341" stroke="#263238" stroke-width="0.556382" stroke-linecap="round" stroke-linejoin="round"/>
<path d="M13.3027 213.589L14.9997 211.887L17.6759 209.211C17.6759 209.211 18.1377 208.749 18.6774 208.209" stroke="#263238" stroke-width="0.556382" stroke-linecap="round" stroke-linejoin="round"/>
<path d="M19.4121 207.48C19.924 206.968 20.3524 206.54 20.3524 206.54L23.023 203.864L25.6992 201.193L28.3699 198.517C28.3699 198.517 28.7593 198.133 29.2044 197.682" stroke="#263238" stroke-width="0.556382" stroke-linecap="round" stroke-linejoin="round"/>
<path d="M13.0293 208.515L15.0045 206.54L17.6751 203.869L20.3513 201.193L23.0275 198.522C23.0275 198.522 23.7285 197.821 24.335 197.215" stroke="#263238" stroke-width="0.556382" stroke-linecap="round" stroke-linejoin="round"/>
<path d="M12.7559 203.435L14.9981 201.193L17.6743 198.517L19.8553 196.341" stroke="#263238" stroke-width="0.556382" stroke-linecap="round" stroke-linejoin="round"/>
<path d="M14.5096 196.341L12.4844 198.367" stroke="#263238" stroke-width="0.556382" stroke-linecap="round" stroke-linejoin="round"/>
<path d="M20.6289 192.931H39.7073" stroke="#263238" stroke-width="0.556382" stroke-linecap="round" stroke-linejoin="round"/>
<path d="M40.811 192.931H42.903V196.342H35.5254" stroke="#263238" stroke-width="0.556382" stroke-linecap="round" stroke-linejoin="round"/>
<path d="M33.6875 196.341H18.5762" stroke="#263238" stroke-width="0.556382" stroke-linecap="round" stroke-linejoin="round"/>
<path d="M17.915 196.342H11.2773V194.907" stroke="#263238" stroke-width="0.556382" stroke-linecap="round" stroke-linejoin="round"/>
<path d="M11.2773 194.611V192.931H18.7941" stroke="#263238" stroke-width="0.556382" stroke-linecap="round" stroke-linejoin="round"/>
<path d="M31.5898 166.503V189.905" stroke="#263238" stroke-width="0.556382" stroke-linecap="round" stroke-linejoin="round"/>
<path d="M31.5898 158.892V163.877" stroke="#263238" stroke-width="0.556382" stroke-linecap="round" stroke-linejoin="round"/>
<path d="M137.814 227.321V146.557H31.5898V156.071" stroke="#263238" stroke-width="0.556382" stroke-linecap="round" stroke-linejoin="round"/>
<path d="M123.549 151.298H132.045V223.344" stroke="#263238" stroke-width="0.556382" stroke-linecap="round" stroke-linejoin="round"/>
<path d="M37.3594 189.906V151.298H118.613" stroke="#263238" stroke-width="0.556382" stroke-linecap="round" stroke-linejoin="round"/>
<path d="M41.4316 142.073H44.1301" stroke="#263238" stroke-width="0.556382" stroke-linecap="round" stroke-linejoin="round"/>
<path d="M48.0029 142.073H140.251V146.53H29.1582V142.073H39.7072" stroke="#263238" stroke-width="0.556382" stroke-linecap="round" stroke-linejoin="round"/>
<path d="M162.234 139.869L160.91 148.471" stroke="#263238" stroke-width="0.556382" stroke-linecap="round" stroke-linejoin="round"/>
<path d="M154.105 104.567H160.521C164.282 104.567 167.158 107.922 166.585 111.638L162.958 135.157" stroke="#263238" stroke-width="0.556382" stroke-linecap="round" stroke-linejoin="round"/>
<path d="M147.584 104.567H152.269" stroke="#263238" stroke-width="0.556382" stroke-linecap="round" stroke-linejoin="round"/>
<path d="M120.588 136.809L124.755 109.769C125.217 106.776 127.793 104.567 130.82 104.567H144.24" stroke="#263238" stroke-width="0.556382" stroke-linecap="round" stroke-linejoin="round"/>
<path d="M115.938 166.988L118.024 153.44" stroke="#263238" stroke-width="0.556382" stroke-linecap="round" stroke-linejoin="round"/>
<path d="M139.66 184.268H146.042C149.208 184.268 152.084 183.016 154.193 180.98" stroke="#263238" stroke-width="0.556382" stroke-linecap="round" stroke-linejoin="round"/>
<path d="M104.492 184.269H126.731" stroke="#263238" stroke-width="0.556382" stroke-linecap="round" stroke-linejoin="round"/>
<path d="M95.2949 182.26C97.1699 183.529 99.4344 184.269 101.866 184.269" stroke="#263238" stroke-width="0.556382" stroke-linecap="round" stroke-linejoin="round"/>
<path d="M130.18 166.988H94.4995C92.0793 166.988 90.1152 168.952 90.1152 171.372V172.518C90.1152 175.272 91.0611 177.809 92.6523 179.812" stroke="#263238" stroke-width="0.556382" stroke-linecap="round" stroke-linejoin="round"/>
<path d="M157.482 169.719C156.831 168.117 155.256 166.988 153.42 166.988H147.061" stroke="#263238" stroke-width="0.556382" stroke-linecap="round" stroke-linejoin="round"/>
<path d="M130.259 187.502H114.986L111.781 184.269" stroke="#263238" stroke-width="0.556382" stroke-linecap="round" stroke-linejoin="round"/>
<path d="M119.375 187.501H128.538V198.206C128.538 198.763 128.088 199.219 127.526 199.219H120.382C119.825 199.219 119.369 198.768 119.369 198.206V187.501H119.375Z" stroke="#263238" stroke-width="0.556382" stroke-linecap="round" stroke-linejoin="round"/>
<path d="M126.826 199.213H121.096V212.411H126.826V199.213Z" stroke="#263238" stroke-width="0.556382" stroke-linecap="round" stroke-linejoin="round"/>
<path d="M97.6875 220.534C107.235 214.174 121.089 212.41 121.089 212.41" stroke="#263238" stroke-width="0.556382" stroke-linecap="round" stroke-linejoin="round"/>
<path d="M130.236 218.637C120.572 217.219 110.952 219.361 101.883 221.697" stroke="#263238" stroke-width="0.556382" stroke-linecap="round" stroke-linejoin="round"/>
<path d="M146.037 221.702C143.834 221.134 141.608 220.639 139.383 220.183" stroke="#263238" stroke-width="0.556382" stroke-linecap="round" stroke-linejoin="round"/>
<path d="M139.66 215.514C143.349 216.777 146.971 218.369 150.226 220.533" stroke="#263238" stroke-width="0.556382" stroke-linecap="round" stroke-linejoin="round"/>
<path d="M126.824 212.41C128.032 212.572 129.233 212.794 130.424 213.034" stroke="#263238" stroke-width="0.556382" stroke-linecap="round" stroke-linejoin="round"/>
<path d="M98.813 227.722C100.798 227.722 102.407 226.113 102.407 224.128C102.407 222.143 100.798 220.534 98.813 220.534C96.8279 220.534 95.2188 222.143 95.2188 224.128C95.2188 226.113 96.8279 227.722 98.813 227.722Z" stroke="#263238" stroke-width="0.556382" stroke-linecap="round" stroke-linejoin="round"/>
<path d="M153.181 224.128C153.181 226.114 151.573 227.722 149.586 227.722C147.6 227.722 145.992 226.114 145.992 224.128C145.992 222.142 147.6 220.534 149.586 220.534C151.573 220.534 153.181 222.142 153.181 224.128Z" stroke="#263238" stroke-width="0.556382" stroke-linecap="round" stroke-linejoin="round"/>
<path d="M145.232 176.935L148.053 157.835C148.325 156.004 149.772 154.574 151.602 154.318L164.711 152.516C165.718 152.377 166.469 151.514 166.469 150.502C166.469 149.378 165.556 148.465 164.432 148.465H162.78L149.794 150.463C146.612 150.952 144.141 153.484 143.718 156.672L141.003 177.392C140.903 178.159 141.498 178.838 142.272 178.838" stroke="#263238" stroke-width="0.556382" stroke-linecap="round" stroke-linejoin="round"/>
<path d="M164.71 152.521L161.299 170.665C162.239 170.665 163.002 171.427 163.002 172.367V175.834C163.002 178.221 161.066 180.157 158.679 180.157H142.738" stroke="#263238" stroke-width="0.556382" stroke-linecap="round" stroke-linejoin="round"/>
<path d="M162.45 152.833L158.9 170.275H149.586" stroke="#263238" stroke-width="0.556382" stroke-linecap="round" stroke-linejoin="round"/>
<path d="M94.5449 156.683L93.5879 163.961" stroke="#263238" stroke-width="0.556382" stroke-linecap="round" stroke-linejoin="round"/>
<path d="M97.8652 164.689L98.8779 157.835C99.1505 156.004 100.597 154.574 102.428 154.318L115.536 152.516" stroke="#263238" stroke-width="0.556382" stroke-linecap="round" stroke-linejoin="round"/>
<path d="M68.401 114.809L73.5085 138.633C73.7255 139.657 74.6324 140.386 75.6784 140.386H113.652C114.614 140.386 115.332 139.49 115.12 138.55L109.774 114.72C109.545 113.708 108.644 112.984 107.609 112.984H69.8754C68.9184 112.984 68.2007 113.869 68.4065 114.804L68.401 114.809Z" stroke="#263238" stroke-width="0.556382" stroke-linecap="round" stroke-linejoin="round"/>
<path d="M90.3113 123.973H87.3681L86.5391 126.599L88.6478 129.231H91.5855L92.4145 126.599L90.3113 123.973Z" stroke="#263238" stroke-width="0.556382" stroke-linecap="round" stroke-linejoin="round"/>
<path d="M116.98 138.768H132.047V139.586C132.047 140.404 131.385 141.06 130.573 141.06H130.183" stroke="#263238" stroke-width="0.556382" stroke-linecap="round" stroke-linejoin="round"/>
<path d="M199.225 197.677C199.225 197.677 207.598 198.339 207.949 204.515C207.949 204.515 199.469 208.421 199.225 197.677Z" stroke="#263238" stroke-width="0.556382" stroke-linecap="round" stroke-linejoin="round"/>
<path d="M215.793 199.212C215.793 199.212 220.472 192.886 228.033 196.129C228.033 196.129 223.415 203.78 215.793 199.212Z" stroke="#263238" stroke-width="0.556382" stroke-linecap="round" stroke-linejoin="round"/>
<path d="M227.387 179.238C227.387 179.238 228.734 191.406 217.656 188.056C217.656 188.056 221.173 179.11 227.387 179.238Z" stroke="#263238" stroke-width="0.556382" stroke-linecap="round" stroke-linejoin="round"/>
<path d="M213.792 172.461C213.792 172.461 222.555 177.185 216.112 184.356C216.112 184.356 209.97 179.238 213.792 172.461Z" stroke="#263238" stroke-width="0.556382" stroke-linecap="round" stroke-linejoin="round"/>
<path d="M203.008 183.338C203.008 183.338 212.533 182.376 212.533 191.194C212.533 191.194 203.008 191.567 203.008 183.338Z" stroke="#263238" stroke-width="0.556382" stroke-linecap="round" stroke-linejoin="round"/>
<path d="M210.146 209.493C210.007 206.533 210.007 202.727 211.815 198.705C215.982 189.424 217.395 181.607 215.214 176.099" stroke="#263238" stroke-width="0.556382" stroke-linecap="round" stroke-linejoin="round"/>
<path d="M206.141 185.708C206.141 185.708 211.849 187.978 213.791 193.859" stroke="#263238" stroke-width="0.556382" stroke-linecap="round" stroke-linejoin="round"/>
<path d="M224.379 184.106C224.379 184.106 221.08 188.601 215.488 188.117" stroke="#263238" stroke-width="0.556382" stroke-linecap="round" stroke-linejoin="round"/>
<path d="M224.378 197.419C224.378 197.419 215.243 200.051 211.609 199.189" stroke="#263238" stroke-width="0.556382" stroke-linecap="round" stroke-linejoin="round"/>
<path d="M201.957 200.459C201.957 200.459 206.041 204.943 210.153 204.871" stroke="#263238" stroke-width="0.556382" stroke-linecap="round" stroke-linejoin="round"/>
<path d="M221.011 209.495H201.154C200.887 209.495 200.67 209.712 200.67 209.979V211.486C200.67 211.754 200.887 211.971 201.154 211.971H201.733L203.502 227.416H218.663L220.433 211.971H221.011C221.278 211.971 221.495 211.754 221.495 211.486V209.979C221.495 209.712 221.278 209.495 221.011 209.495Z" stroke="#263238" stroke-width="0.556382" stroke-linecap="round" stroke-linejoin="round"/>
<path d="M203.008 211.964H214.558" stroke="#263238" stroke-width="0.556382" stroke-linecap="round" stroke-linejoin="round"/>
<path d="M216.74 211.964H218.471" stroke="#263238" stroke-width="0.556382" stroke-linecap="round" stroke-linejoin="round"/>
<path d="M104.906 19.4284V174.058C104.906 174.798 104.305 175.399 103.565 175.399H11.9678C11.2278 175.399 10.627 174.798 10.627 174.058V19.4284C10.627 18.6884 11.2278 18.0875 11.9678 18.0875H40.9275C41.712 18.0875 42.3463 18.7218 42.3463 19.5063V22.7556C42.3463 23.5401 42.9806 24.1744 43.7651 24.1744H71.7734C72.5579 24.1744 73.1922 23.5401 73.1922 22.7556V19.5063C73.1922 18.7218 73.8265 18.0875 74.611 18.0875H103.565C104.305 18.0875 104.906 18.6884 104.906 19.4284Z" fill="white" stroke="#263238" stroke-width="0.556382" stroke-linecap="round" stroke-linejoin="round"/>
<path d="M104.906 33.3431H10.627V47.5476H104.906V33.3431Z" fill="#BFBFBF" stroke="#263238" stroke-width="0.556382" stroke-linecap="round" stroke-linejoin="round"/>
<path d="M22.9512 76.0055H61.3304" stroke="#263238" stroke-width="1.66915" stroke-linecap="round" stroke-linejoin="round"/>
<path d="M32.4277 82.6646H92.5782" stroke="#263238" stroke-width="1.66915" stroke-linecap="round" stroke-linejoin="round"/>
<path d="M22.9512 87.639H92.5769" stroke="#263238" stroke-width="1.66915" stroke-linecap="round" stroke-linejoin="round"/>
<path d="M22.9512 92.6077H92.5769" stroke="#263238" stroke-width="1.66915" stroke-linecap="round" stroke-linejoin="round"/>
<path d="M22.9512 97.582H92.5769" stroke="#263238" stroke-width="1.66915" stroke-linecap="round" stroke-linejoin="round"/>
<path d="M22.9512 102.555H92.5769" stroke="#263238" stroke-width="1.66915" stroke-linecap="round" stroke-linejoin="round"/>
<path d="M22.9512 107.525H92.5769" stroke="#263238" stroke-width="1.66915" stroke-linecap="round" stroke-linejoin="round"/>
<path d="M22.9512 112.498H55.277" stroke="#263238" stroke-width="1.66915" stroke-linecap="round" stroke-linejoin="round"/>
<path d="M94.291 38.6953H97.8463" stroke="#263238" stroke-width="0.556382" stroke-linecap="round" stroke-linejoin="round"/>
<path d="M94.291 40.3317H97.8463" stroke="#263238" stroke-width="0.556382" stroke-linecap="round" stroke-linejoin="round"/>
<path d="M94.291 41.9668H97.8463" stroke="#263238" stroke-width="0.556382" stroke-linecap="round" stroke-linejoin="round"/>
<path d="M20.5028 40.3331H17.5039" stroke="#263238" stroke-width="0.556382" stroke-linecap="round" stroke-linejoin="round"/>
<path d="M18.8838 42.1522L17.0645 40.3328L18.8838 38.5134" stroke="#263238" stroke-width="0.556382" stroke-linecap="round" stroke-linejoin="round"/>
<path d="M89.0492 38.6954H84.5703V41.967H89.0492V38.6954Z" stroke="#263238" stroke-width="0.556382" stroke-linecap="round" stroke-linejoin="round"/>
<path d="M84.5703 38.6954L86.8125 40.3312L89.0492 38.6954" stroke="#263238" stroke-width="0.556382" stroke-linecap="round" stroke-linejoin="round"/>
<path d="M78.7892 42.6016H75.7736L75.373 38.6958H79.1898L78.7892 42.6016Z" stroke="#263238" stroke-width="0.556382" stroke-linecap="round" stroke-linejoin="round"/>
<path d="M76.5312 38.6965V38.0623H78.0335V38.6965" stroke="#263238" stroke-width="0.556382" stroke-linecap="round" stroke-linejoin="round"/>
<path d="M104.906 164.11V174.058C104.906 174.798 104.311 175.399 103.565 175.399H11.9678C11.2278 175.399 10.627 174.798 10.627 174.058V164.11H104.906Z" fill="#75A9C8" stroke="#263238" stroke-width="0.556382" stroke-linecap="round" stroke-linejoin="round"/>
<path d="M34.5527 59.5155H72.932" stroke="#263238" stroke-width="1.66915" stroke-linecap="round" stroke-linejoin="round"/>
<path d="M27.4917 64.1902C30.0729 63.7712 31.8257 61.3391 31.4067 58.7579C30.9877 56.1767 28.5556 54.4239 25.9744 54.8429C23.3932 55.2619 21.6404 57.694 22.0594 60.2752C22.4784 62.8564 24.9105 64.6092 27.4917 64.1902Z" fill="#75A9C8" stroke="#263238" stroke-width="0.556382" stroke-linecap="round" stroke-linejoin="round"/>
<path d="M28.6689 62.4701C28.3795 62.4701 27.545 61.8358 27.8287 61.324C28.118 60.8065 28.6689 59.9441 28.6689 59.9441C29.0138 59.4823 29.0695 58.3918 29.0695 58.3918C29.1863 57.5906 28.7245 56.2108 26.7271 56.2108C24.7297 56.2108 24.2734 57.5906 24.3847 58.3918C24.3847 58.3918 24.4403 59.4823 24.7853 59.9441C24.7853 59.9441 25.3361 60.8065 25.6254 61.324C25.9148 61.8414 25.0746 62.4701 24.7853 62.4701C24.496 62.4701 23.4277 62.9097 23.4277 62.9097C23.4277 62.9097 25.3361 64.2505 26.7271 64.2505C28.118 64.2505 30.0264 62.9097 30.0264 62.9097C30.0264 62.9097 28.9526 62.4701 28.6689 62.4701Z" fill="#263238"/>
<path d="M10.627 122.321H104.906" stroke="#263238" stroke-width="0.556382" stroke-linecap="round" stroke-linejoin="round"/>
<path d="M104.906 148.202H10.627V164.115H104.906V148.202Z" fill="#BFBFBF" stroke="#263238" stroke-width="0.556382" stroke-linecap="round" stroke-linejoin="round"/>
<path d="M92.0039 128.285H84.2368C82.7188 128.285 81.4883 129.515 81.4883 131.033V138.8C81.4883 140.318 82.7188 141.549 84.2368 141.549H92.0039C93.5219 141.549 94.7524 140.318 94.7524 138.8V131.033C94.7524 129.515 93.5219 128.285 92.0039 128.285Z" fill="#75A9C8" stroke="#263238" stroke-width="0.556382" stroke-linecap="round" stroke-linejoin="round"/>
<path d="M86.0735 133.898L87.9374 132.034C88.7442 131.227 90.0517 131.227 90.8584 132.034C91.6652 132.841 91.6652 134.148 90.8584 134.955L87.815 137.998C87.2753 138.538 86.4018 138.538 85.8677 137.998C85.328 137.459 85.328 136.585 85.8677 136.051L88.7608 133.158C89.0112 132.908 89.4229 132.908 89.6733 133.158C89.9237 133.408 89.9237 133.82 89.6733 134.07L88.121 135.623" stroke="#263238" stroke-width="0.834574" stroke-linecap="round" stroke-linejoin="round"/>
<path d="M22.9512 132.43H75.1565" stroke="#263238" stroke-width="1.66915" stroke-linecap="round" stroke-linejoin="round"/>
<path d="M22.9512 137.404H66.4492" stroke="#263238" stroke-width="1.66915" stroke-linecap="round" stroke-linejoin="round"/>
<path d="M34.4404 152.136H24.3921C23.3719 152.136 22.5449 152.963 22.5449 153.983V158.245C22.5449 159.265 23.3719 160.092 24.3921 160.092H34.4404C35.4606 160.092 36.2876 159.265 36.2876 158.245V153.983C36.2876 152.963 35.4606 152.136 34.4404 152.136Z" stroke="#263238" stroke-width="0.556382" stroke-linecap="round" stroke-linejoin="round"/>
<path d="M31.4794 157.732V157.164C31.4794 156.386 30.8507 155.757 30.0718 155.757H27.7461" stroke="#263238" stroke-width="0.556382" stroke-linecap="round" stroke-linejoin="round"/>
<path d="M28.6087 157.015L27.3457 155.752L28.6087 154.494" stroke="#263238" stroke-width="0.556382" stroke-linecap="round" stroke-linejoin="round"/>
<path d="M63.1259 152.136H53.0777C52.0575 152.136 51.2305 152.963 51.2305 153.983V158.245C51.2305 159.265 52.0575 160.092 53.0777 160.092H63.1259C64.1461 160.092 64.9731 159.265 64.9731 158.245V153.983C64.9731 152.963 64.1461 152.136 63.1259 152.136Z" stroke="#263238" stroke-width="0.556382" stroke-linecap="round" stroke-linejoin="round"/>
<path d="M60.8193 157.732V157.164C60.8193 156.386 60.1906 155.757 59.4116 155.757H57.0859" stroke="#263238" stroke-width="0.556382" stroke-linecap="round" stroke-linejoin="round"/>
<path d="M57.9488 157.015L56.6914 155.752L57.9488 154.494" stroke="#263238" stroke-width="0.556382" stroke-linecap="round" stroke-linejoin="round"/>
<path d="M56.6422 157.015L55.3848 155.752L56.6422 154.494" stroke="#263238" stroke-width="0.556382" stroke-linecap="round" stroke-linejoin="round"/>
<path d="M82.4288 160.092H92.477C93.4972 160.092 94.3242 159.265 94.3242 158.245V153.983C94.3242 152.963 93.4972 152.136 92.477 152.136H82.4288C81.4086 152.136 80.5816 152.963 80.5816 153.983V158.245C80.5816 159.265 81.4086 160.092 82.4288 160.092Z" stroke="#263238" stroke-width="0.556382" stroke-linecap="round" stroke-linejoin="round"/>
<path d="M85.3887 157.732V157.164C85.3887 156.386 86.0174 155.757 86.7963 155.757H89.122" stroke="#263238" stroke-width="0.556382" stroke-linecap="round" stroke-linejoin="round"/>
<path d="M88.2598 157.015L89.5172 155.752L88.2598 154.494" stroke="#263238" stroke-width="0.556382" stroke-linecap="round" stroke-linejoin="round"/>
<path d="M104.906 19.4228V33.3435H10.627V19.4284C10.627 18.6884 11.2278 18.0875 11.9678 18.0875H40.9275C41.712 18.0875 42.3463 18.7218 42.3463 19.5063V22.7556C42.3463 23.5401 42.9806 24.1744 43.7651 24.1744H71.7734C72.5579 24.1744 73.1922 23.5401 73.1922 22.7556V19.5063C73.1922 18.7218 73.8265 18.0875 74.611 18.0875H103.571C104.311 18.0875 104.906 18.6829 104.906 19.4228Z" fill="#75A9C8" stroke="#263238" stroke-width="0.556382" stroke-linecap="round" stroke-linejoin="round"/>
<path d="M133.02 80.4421V81.8331" stroke="#263238" stroke-width="0.556382" stroke-linecap="round" stroke-linejoin="round"/>
<path d="M133.02 84.5383V131.859" stroke="#263238" stroke-width="0.556382" stroke-linecap="round" stroke-linejoin="round"/>
<path d="M133.018 133.209V134.6H131.627" stroke="#263238" stroke-width="0.556382" stroke-linecap="round" stroke-linejoin="round"/>
<path d="M129.007 134.6H98.8789" stroke="#263238" stroke-width="0.556382" stroke-linecap="round" stroke-linejoin="round"/>
<path d="M97.5667 134.6H96.1758" stroke="#263238" stroke-width="0.556382" stroke-linecap="round" stroke-linejoin="round"/>
<path d="M199.041 216.704C199.041 216.704 199.186 220.972 197.723 222.441C196.254 223.909 196.844 227.721 196.844 227.721H210.124L210.492 223.715L208.288 215.719L199.041 216.699V216.704Z" fill="#757575" stroke="#263238" stroke-width="0.556382" stroke-linecap="round" stroke-linejoin="round"/>
<path d="M166.465 215.725C166.465 215.725 167.933 219.587 162.503 221.456C157.073 223.326 153.846 223.326 153.406 226.402V227.721H165.007L168.668 226.547L169.842 227.721H176.296L177.03 225.373L176.001 217.684L166.465 215.725Z" fill="#757575" stroke="#263238" stroke-width="0.556382" stroke-linecap="round" stroke-linejoin="round"/>
<path d="M167.422 110.397L164.674 125.591C164.674 125.591 163.082 148.27 163.271 157.728C163.461 167.192 166.76 209.989 166.543 211.703C166.32 213.416 164.568 215.28 164.674 215.558C164.779 215.837 165.336 218.023 165.336 218.023L176.246 219.57L177.76 216.705C177.76 216.705 175.829 214.251 176.246 213.5C176.658 212.754 177.543 209.95 177.76 208.932C177.982 207.914 180.113 149.866 180.113 149.866C180.113 149.866 195.147 207.313 195.147 209.483C195.147 211.653 197.567 214.101 197.567 214.101L196.716 218.479L198.669 220.605C198.669 220.605 204.316 218.04 209.896 220.605L209.601 216.265L207.916 214.101L208.355 211.068C208.355 211.068 206.091 187.533 203.593 176.372C201.094 165.217 199.492 127.973 198.802 125.285C198.112 122.598 195.837 108.944 195.837 108.944L167.417 110.402L167.422 110.397Z" fill="#263238"/>
<path d="M151.12 30.1719H114.922C113.093 30.1719 111.611 31.654 111.611 33.4824V75.5616C111.611 77.3899 113.093 78.872 114.922 78.872H151.12C152.948 78.872 154.431 77.3899 154.431 75.5616V33.4824C154.431 31.654 152.948 30.1719 151.12 30.1719Z" fill="#75A9C8" stroke="#263238" stroke-width="0.556382" stroke-linecap="round" stroke-linejoin="round"/>
<path d="M142.323 40.856H120.975V71.4181H142.323V40.856Z" fill="white"/>
<mask id="mask0_567_4661" style="mask-type:luminance" maskUnits="userSpaceOnUse" x="120" y="40" width="23" height="32">
<path d="M142.321 40.858H120.973V71.4201H142.321V40.858Z" fill="white"/>
</mask>
<g mask="url(#mask0_567_4661)">
<path opacity="0.4" d="M142.321 40.858H120.973V71.4201H142.321V40.858Z" fill="#75A9C8"/>
</g>
<path d="M142.323 40.856H120.975V71.4181H142.323V40.856Z" stroke="#263238" stroke-width="0.556382" stroke-linecap="round" stroke-linejoin="round"/>
<path d="M141.629 36.5459L120.693 40.7253L126.677 70.696L147.612 66.5165L141.629 36.5459Z" fill="white" stroke="#263238" stroke-width="0.556382" stroke-linecap="round" stroke-linejoin="round"/>
<path d="M122.26 40.2592C122.571 39.5081 123.311 38.9795 124.174 38.9795C125.314 38.9795 126.243 39.9031 126.243 41.0492V45.3556C126.243 46.1179 125.626 46.7355 124.864 46.7355C124.101 46.7355 123.484 46.1179 123.484 45.3556V41.2662C123.484 40.9101 123.773 40.6208 124.129 40.6208C124.485 40.6208 124.775 40.9101 124.775 41.2662V43.4639" stroke="#263238" stroke-width="0.834574" stroke-linecap="round" stroke-linejoin="round"/>
<path d="M155.299 86.8566C155.31 89.8499 150.842 90.7346 150.842 90.7346C142.697 83.2624 140.861 74.0821 136.899 72.6243C136.538 72.4908 136.209 72.2794 135.926 72.029C134.735 70.9719 134.156 69.197 134.156 69.197L139.425 68.1455C139.676 66.7545 140.304 65.013 140.844 64.2563C141.228 63.7166 140.671 62.4537 140.021 61.0404C139.592 60.1224 140.293 59.2878 140.293 59.2878C140.293 59.2878 142.33 60.8847 143.136 63.0434C143.943 65.1966 143.131 70.2597 145.512 72.769C149.768 77.2534 150.408 76.9975 154.436 80.4471C154.436 80.4471 155.288 83.9578 155.299 86.8566Z" fill="white"/>
<mask id="mask1_567_4661" style="mask-type:luminance" maskUnits="userSpaceOnUse" x="134" y="59" width="22" height="32">
<path d="M155.301 86.8577C155.312 89.851 150.844 90.7357 150.844 90.7357C142.699 83.2635 140.863 74.0832 136.901 72.6254C136.54 72.4919 136.211 72.2805 135.928 72.0301C134.737 70.973 134.158 69.1981 134.158 69.1981L139.427 68.1466C139.678 66.7556 140.306 65.0141 140.846 64.2574C141.23 63.7177 140.673 62.4548 140.022 61.0415C139.594 60.1235 140.295 59.2889 140.295 59.2889C140.295 59.2889 142.331 60.8858 143.138 63.0445C143.945 65.1977 143.133 70.2608 145.514 72.7701C149.77 77.2545 150.41 76.9986 154.438 80.4482C154.438 80.4482 155.29 83.9589 155.301 86.8577Z" fill="white"/>
</mask>
<g mask="url(#mask1_567_4661)">
<path opacity="0.4" d="M135.928 72.0298C134.737 70.9727 134.158 69.1978 134.158 69.1978L139.427 68.1462C139.427 68.1462 139.16 69.6373 139.427 70.6555C139.594 71.3065 137.53 71.3121 135.928 72.0298Z" fill="#75A9C8"/>
</g>
<path d="M155.299 86.8566C155.31 89.8499 150.842 90.7346 150.842 90.7346C142.697 83.2624 140.861 74.0821 136.899 72.6243C136.538 72.4908 136.209 72.2794 135.926 72.029C134.735 70.9719 134.156 69.197 134.156 69.197L139.425 68.1455C139.676 66.7545 140.304 65.013 140.844 64.2563C141.228 63.7166 140.671 62.4537 140.021 61.0404C139.592 60.1224 140.293 59.2878 140.293 59.2878C140.293 59.2878 142.33 60.8847 143.136 63.0434C143.943 65.1966 143.131 70.2597 145.512 72.769C149.768 77.2534 150.408 76.9975 154.436 80.4471C154.436 80.4471 155.288 83.9578 155.299 86.8566Z" stroke="#263238" stroke-width="0.556382" stroke-linecap="round" stroke-linejoin="round"/>
<path d="M169.988 64.255V83.7729C169.988 83.7729 167.451 86.2766 164.697 88.9139C161.754 91.7347 158.566 94.7058 157.959 94.9451C156.785 95.4013 154.437 93.6042 154.437 93.6042C153.119 94.4833 151.794 92.6138 151.794 92.6138C150.476 93.9658 149.152 91.6958 150.771 89.3479C152.384 86.9999 154.437 80.4457 154.437 80.4457C155.316 79.7558 155.906 80.4457 155.906 80.4457C155.906 80.4457 166.027 66.1634 169.988 64.255Z" fill="#75A9C8"/>
<mask id="mask2_567_4661" style="mask-type:luminance" maskUnits="userSpaceOnUse" x="150" y="64" width="20" height="32">
<path d="M169.986 64.2561V83.774C169.986 83.774 167.449 86.2777 164.695 88.915C161.752 91.7358 158.564 94.7069 157.957 94.9462C156.783 95.4024 154.435 93.6053 154.435 93.6053C153.117 94.4844 151.793 92.6149 151.793 92.6149C150.474 93.9669 149.15 91.6969 150.769 89.349C152.382 87.001 154.435 80.4468 154.435 80.4468C155.314 79.7569 155.904 80.4468 155.904 80.4468C155.904 80.4468 166.025 66.1645 169.986 64.2561Z" fill="white"/>
</mask>
<g mask="url(#mask2_567_4661)">
<path opacity="0.2" d="M169.987 72.6064V83.773C169.987 83.773 167.45 86.2768 164.696 88.914C163.439 87.5731 162.526 85.7092 162.359 84.5297C162.031 82.204 164.78 83.8843 164.78 83.8843C162.799 81.8925 165.113 72.7678 165.23 74.309C165.33 75.5608 165.653 78.2815 165.77 79.2663C165.52 75.7611 169.036 73.0015 169.987 72.6064Z" fill="black"/>
</g>
<path d="M169.988 64.255V83.7729C169.988 83.7729 167.451 86.2766 164.697 88.9139C161.754 91.7347 158.566 94.7058 157.959 94.9451C156.785 95.4013 154.437 93.6042 154.437 93.6042C153.119 94.4833 151.794 92.6138 151.794 92.6138C150.476 93.9658 149.152 91.6958 150.771 89.3479C152.384 86.9999 154.437 80.4457 154.437 80.4457C155.316 79.7558 155.906 80.4457 155.906 80.4457C155.906 80.4457 166.027 66.1634 169.988 64.255Z" stroke="#263238" stroke-width="0.556382" stroke-linecap="round" stroke-linejoin="round"/>
<path d="M196.989 110.346C198.073 112.11 168.201 112.867 166.143 111.459C165.87 111.276 165.67 111.059 165.531 110.83C164.596 109.312 166.143 107.053 166.143 107.053C166.143 107.053 165.881 75.9898 169.987 64.2557C169.987 64.2557 175.023 63.627 181.922 63.7271C184.587 63.7661 187.536 63.9163 190.585 64.2557C192.788 64.5005 195.514 64.9567 198.201 65.4575C202.691 66.3032 207.081 67.2935 208.823 67.6886C209.324 67.8054 209.607 67.8722 209.607 67.8722C209.607 67.8722 195.904 108.588 196.989 110.346Z" fill="#75A9C8"/>
<mask id="mask3_567_4661" style="mask-type:luminance" maskUnits="userSpaceOnUse" x="165" y="63" width="45" height="50">
<path d="M196.989 110.346C198.073 112.11 168.201 112.866 166.143 111.459C165.87 111.275 165.67 111.058 165.531 110.83C164.596 109.311 166.143 107.052 166.143 107.052C166.143 107.052 165.881 75.9894 169.987 64.2553C169.987 64.2553 175.023 63.6266 181.922 63.7268C184.587 63.7657 187.536 63.9159 190.585 64.2553C192.788 64.5001 195.514 64.9564 198.201 65.4571C202.691 66.3028 207.081 67.2932 208.823 67.6882C209.324 67.805 209.607 67.8718 209.607 67.8718C209.607 67.8718 195.904 108.588 196.989 110.346Z" fill="white"/>
</mask>
<g mask="url(#mask3_567_4661)">
<path opacity="0.2" d="M179.845 70.6543C179.845 70.6543 177.847 67.277 181.174 64.2559C181.358 64.0889 181.608 63.9109 181.92 63.7273C184.585 63.7662 187.534 63.9165 190.583 64.2559C192.786 64.5007 195.512 64.9569 198.2 65.4576L186.243 71.7781L183.762 69.2466L179.845 70.6543Z" fill="black"/>
<path opacity="0.2" d="M196.987 110.348C198.072 112.111 168.2 112.868 166.141 111.46C165.869 111.277 165.668 111.06 165.529 110.832C171.46 111.911 186.099 110.553 190.094 108.945C194.823 107.043 197.577 98.4131 196.069 99.2922C194.567 100.171 189.543 99.6261 193.337 97.751C197.132 95.8816 201.349 89.7336 201.349 89.7336C201.349 89.7336 198.679 82.0165 199.558 80.4475C200.197 79.2958 201.021 81.4268 201.416 82.6564C200.743 79.485 203.146 76.3192 203.146 76.3192L208.821 67.6897C209.322 67.8065 209.606 67.8733 209.606 67.8733C209.606 67.8733 195.902 108.589 196.987 110.348Z" fill="black"/>
</g>
<path d="M196.989 110.346C198.073 112.11 168.201 112.867 166.143 111.459C165.87 111.276 165.67 111.059 165.531 110.83C164.596 109.312 166.143 107.053 166.143 107.053C166.143 107.053 165.881 75.9898 169.987 64.2557C169.987 64.2557 175.023 63.627 181.922 63.7271C184.587 63.7661 187.536 63.9163 190.585 64.2557C192.788 64.5005 195.514 64.9567 198.201 65.4575C202.691 66.3032 207.081 67.2935 208.823 67.6886C209.324 67.8054 209.607 67.8722 209.607 67.8722C209.607 67.8722 195.904 108.588 196.989 110.346Z" stroke="#263238" stroke-width="0.556382" stroke-linecap="round" stroke-linejoin="round"/>
<path d="M195.317 64.7678C195.317 64.7678 184.207 69.2188 180.557 64.5675C180.557 64.5675 182.554 64.7678 183.756 63.0374C184.223 62.3753 184.574 61.4295 184.652 60.0775C184.707 59.254 184.652 58.2804 184.462 57.1286C184.034 54.5248 194.995 56.205 194.995 56.205C194.995 56.205 192.636 63.4547 195.317 64.7678Z" fill="white" stroke="#263238" stroke-width="0.556382" stroke-linecap="round" stroke-linejoin="round"/>
<path d="M188.732 59.0421C188.732 59.0421 186.818 62.3415 183.758 63.0369C184.225 62.3748 184.576 61.429 184.654 60.077C186.723 59.4761 188.732 59.0421 188.732 59.0421Z" fill="#263238"/>
<path d="M194.998 55.6099C198.097 51.0197 202.821 32.9039 187.581 36.4425C180.004 38.2007 180.988 48.1321 180.988 48.1321L178.379 51.3647L180.538 53.1952L180.449 55.3484L181.183 55.6099C181.183 55.6099 180.538 60.8455 181.183 61.1737C182.363 61.7746 190.113 60.8288 190.113 58.9482" fill="white"/>
<path d="M194.998 55.6099C198.097 51.0197 202.821 32.9039 187.581 36.4425C180.004 38.2007 180.988 48.1321 180.988 48.1321L178.379 51.3647L180.538 53.1952L180.449 55.3484L181.183 55.6099C181.183 55.6099 180.538 60.8455 181.183 61.1737C182.363 61.7746 190.113 60.8288 190.113 58.9482" stroke="#263238" stroke-width="0.556382" stroke-linecap="round" stroke-linejoin="round"/>
<path d="M181.178 55.6094C181.178 55.6094 183.359 55.8931 185.011 55.6761C185.011 55.6761 184.177 57.3787 182.04 56.8112" stroke="#263238" stroke-width="0.556382" stroke-linecap="round" stroke-linejoin="round"/>
<path d="M182.273 44.1541C182.273 44.1541 184.855 43.8981 186.085 45.6396" stroke="#263238" stroke-width="0.556382" stroke-linecap="round" stroke-linejoin="round"/>
<path d="M183.827 48.1195C183.827 48.637 183.616 49.0543 183.36 49.0543C183.104 49.0543 182.893 48.637 182.893 48.1195C182.893 47.6021 183.104 47.1848 183.36 47.1848C183.616 47.1848 183.827 47.6021 183.827 48.1195Z" fill="#263238"/>
<path d="M199.711 39.2017C197.257 36.6701 186.753 32.9591 183.765 34.4891C179.381 36.1583 180.566 40.9432 180.566 40.9432L181.183 39.2796C181.183 39.2796 181.506 40.6872 183.765 41.544V40.4869C183.765 40.4869 185.523 41.3438 188.294 41.1935L187.816 40.4814C188.862 40.7206 189.557 40.9988 189.557 40.9988C187.877 44.1145 189.774 46.3178 189.774 46.3178L189.757 50.5352C189.757 50.5352 191.966 52.7106 192.612 54.9028C193.257 57.0949 195.004 57.3676 195.004 57.3676C199.85 54.4076 202.298 41.8556 199.717 39.1961L199.711 39.2017Z" fill="#263238"/>
<path d="M189.244 51.1636C189.244 51.1636 191.631 47.9478 192.861 48.4596C194.09 48.9715 194.413 51.9426 193.762 53.2946C193.117 54.6522 190.791 57.423 190.273 56.3936" fill="white"/>
<path d="M189.244 51.1636C189.244 51.1636 191.631 47.9478 192.861 48.4596C194.09 48.9715 194.413 51.9426 193.762 53.2946C193.117 54.6522 190.791 57.423 190.273 56.3936" stroke="#263238" stroke-width="0.556382" stroke-linecap="round" stroke-linejoin="round"/>
<path d="M155.898 80.441C155.898 80.441 157.657 85.5319 155.898 91.6967" stroke="#263238" stroke-width="0.556382" stroke-linecap="round" stroke-linejoin="round"/>
<path d="M151.793 92.6095C151.793 92.6095 153.996 89.1989 154.436 86.851" stroke="#263238" stroke-width="0.556382" stroke-linecap="round" stroke-linejoin="round"/>
<path d="M181.175 66.6931L182.271 70.6545C182.271 70.6545 175.711 92.5816 174.977 98.8909L176.445 101.139L179.233 99.0411C179.233 99.0411 181.981 77.4479 183.762 71.4279L187.145 66.8544L185.014 66.6486L181.18 66.7042L181.175 66.6931Z" fill="#263238"/>
<path d="M182.884 63.0381L184.175 65.7254L195.314 63.0381L198.196 65.4583L186.078 70.655L184.175 66.8493L180.553 69.3975C180.553 69.3975 177.877 63.4387 182.879 63.0436L182.884 63.0381Z" fill="#75A9C8" stroke="#263238" stroke-width="0.556382" stroke-linecap="round" stroke-linejoin="round"/>
<path d="M208.69 100.17C208.69 100.17 204.066 104.243 201.095 109.306C198.124 114.369 193.612 119.432 191.303 120.751C191.303 120.751 191.525 125.263 194.385 127.795C194.385 127.795 213.202 111.092 215.517 105.895C217.831 100.693 208.695 100.17 208.695 100.17H208.69Z" fill="white" stroke="#263238" stroke-width="0.556382" stroke-linecap="round" stroke-linejoin="round"/>
<path d="M209.607 67.8729C213.129 69.5421 217.97 99.3141 218.092 103.437C218.131 104.756 215.477 107.61 215.477 107.61C215.477 107.61 215.522 110.169 213.886 110.397C213.886 110.397 209.023 105.39 204.912 103.459C204.912 103.459 204.327 101.606 206.38 101.567L203.192 87.6412C199.776 76.1797 206.965 70.3711 206.965 70.3711" fill="#75A9C8"/>
<path d="M209.607 67.8729C213.129 69.5421 217.97 99.3141 218.092 103.437C218.131 104.756 215.477 107.61 215.477 107.61C215.477 107.61 215.522 110.169 213.886 110.397C213.886 110.397 209.023 105.39 204.912 103.459C204.912 103.459 204.327 101.606 206.38 101.567L203.192 87.6412C199.776 76.1797 206.965 70.3711 206.965 70.3711" stroke="#263238" stroke-width="0.556382" stroke-linecap="round" stroke-linejoin="round"/>
<path d="M206.381 101.568C206.381 101.568 211.221 101.935 213.864 105.896" stroke="#263238" stroke-width="0.556382" stroke-linecap="round" stroke-linejoin="round"/>
<path d="M184.442 115.553C187.33 115.436 190.356 115.141 193.339 114.573L193.105 111.903C191.124 112.203 188.058 112.576 184.158 112.749C184.242 113.505 184.37 114.713 184.448 115.553H184.442Z" fill="#757575" stroke="#263238" stroke-width="0.556382" stroke-linecap="round" stroke-linejoin="round"/>
<path d="M194.427 114.351C194.978 114.234 195.523 114.112 196.069 113.973L195.662 111.447C195.662 111.447 195.139 111.564 194.16 111.731L194.427 114.351Z" fill="#757575" stroke="#263238" stroke-width="0.556382" stroke-linecap="round" stroke-linejoin="round"/>
<path d="M182.901 112.8C179.162 112.922 174.739 112.855 169.815 112.399L169.492 114.814C172.157 115.181 177.226 115.721 183.029 115.598L182.895 112.8H182.901Z" fill="#757575" stroke="#263238" stroke-width="0.556382" stroke-linecap="round" stroke-linejoin="round"/>
<path d="M168.918 112.315C168.54 112.276 168.167 112.237 167.789 112.198L167.494 114.507C167.494 114.507 167.895 114.58 168.607 114.685L168.918 112.315Z" fill="#757575" stroke="#263238" stroke-width="0.556382" stroke-linecap="round" stroke-linejoin="round"/>
<path d="M177.655 115.793L172.814 115.62L173.182 112.543L178.022 112.716L177.655 115.793Z" fill="#BFBFBF" stroke="#263238" stroke-width="0.556382" stroke-linecap="round" stroke-linejoin="round"/>
<path d="M153.992 226.547H164.341L169.181 225.523L171.234 226.547H175.491" stroke="#263238" stroke-width="0.556382" stroke-linecap="round" stroke-linejoin="round"/>
<path d="M197.428 226.548H209.095" stroke="#263238" stroke-width="0.556382" stroke-linecap="round" stroke-linejoin="round"/>
<path d="M198.896 221.724C198.896 221.724 203.948 219.677 207.042 221.045" stroke="#263238" stroke-width="0.556382" stroke-linecap="round" stroke-linejoin="round"/>
<path d="M187.936 78.0375L196.07 78.872L194.161 87.407L189.872 87.9522L186.244 85.6432L187.14 78.872" stroke="#263238" stroke-width="0.556382" stroke-linecap="round" stroke-linejoin="round"/>
<path d="M208.139 78.8717C208.139 78.8717 204.651 80.2348 204.289 85.5372" stroke="#263238" stroke-width="0.556382" stroke-linecap="round" stroke-linejoin="round"/>
<path d="M164.779 75.8508C164.779 75.8508 165.174 81.5092 166.849 84.5693" stroke="#263238" stroke-width="0.556382" stroke-linecap="round" stroke-linejoin="round"/>
<path d="M168.207 107.521C168.207 107.521 182.406 106.441 186.579 102.591" stroke="#263238" stroke-width="0.556382" stroke-linecap="round" stroke-linejoin="round"/>
<path d="M200.326 82.2053C200.326 82.2053 201.216 85.755 202.975 86.8567" stroke="#263238" stroke-width="0.556382" stroke-linecap="round" stroke-linejoin="round"/>
<g opacity="0.2">
<path d="M174.354 119.494C174.354 119.494 174.17 129.826 174.977 131.122C175.784 132.418 176.262 132.663 176.262 132.663" stroke="white" stroke-width="0.556382" stroke-linecap="round" stroke-linejoin="round"/>
<path d="M176.262 118.871C176.262 118.871 176.295 134.399 178.02 139.574" stroke="white" stroke-width="0.556382" stroke-linecap="round" stroke-linejoin="round"/>
<path d="M190.09 117.78C190.09 117.78 190.273 125.987 196.071 129.587" stroke="white" stroke-width="0.556382" stroke-linecap="round" stroke-linejoin="round"/>
<path d="M197.793 126.965C197.793 126.965 198.016 135.5 197.793 137.258C197.57 139.016 199.006 147.312 199.006 150.762C199.006 154.211 200.219 159.602 200.219 160.81" stroke="white" stroke-width="0.556382" stroke-linecap="round" stroke-linejoin="round"/>
<path d="M178.533 142.221C178.533 142.221 186.957 144.947 188.743 144.624" stroke="white" stroke-width="0.556382" stroke-linecap="round" stroke-linejoin="round"/>
<path d="M178.53 144.068C177.651 143.312 170.936 146.678 170.057 146.316" stroke="white" stroke-width="0.556382" stroke-linecap="round" stroke-linejoin="round"/>
<path d="M178.532 146.345C178.31 146.723 171.711 155.903 170.826 154.891" stroke="white" stroke-width="0.556382" stroke-linecap="round" stroke-linejoin="round"/>
<path d="M179.633 145.149C179.633 145.149 186.627 152.115 188.741 152.889" stroke="white" stroke-width="0.556382" stroke-linecap="round" stroke-linejoin="round"/>
<path d="M198.896 213.172C198.896 213.172 203.96 208.532 204.51 207.558C205.061 206.59 199.67 205.488 199.67 205.488" stroke="white" stroke-width="0.556382" stroke-linecap="round" stroke-linejoin="round"/>
<path d="M200.215 215.725C200.215 215.725 203.959 214.401 206.38 215.558" stroke="white" stroke-width="0.556382" stroke-linecap="round" stroke-linejoin="round"/>
<path d="M168.852 210.813C168.852 210.813 173.692 207.837 173.586 206.056" stroke="white" stroke-width="0.556382" stroke-linecap="round" stroke-linejoin="round"/>
<path d="M175.489 211.987C175.489 211.987 169.842 215.103 168.189 215.086C166.537 215.069 172.701 217.378 174.243 217.05" stroke="white" stroke-width="0.556382" stroke-linecap="round" stroke-linejoin="round"/>
</g>
<path d="M128.357 61.0973L136.681 59.4337" stroke="#263238" stroke-width="0.556382" stroke-linecap="round" stroke-linejoin="round"/>
<path d="M127.963 58.9772L142.457 56.084" stroke="#263238" stroke-width="0.556382" stroke-linecap="round" stroke-linejoin="round"/>
<path d="M127.568 56.8517L142.062 53.9585" stroke="#263238" stroke-width="0.556382" stroke-linecap="round" stroke-linejoin="round"/>
<path d="M127.174 54.7319L141.668 51.8387" stroke="#263238" stroke-width="0.556382" stroke-linecap="round" stroke-linejoin="round"/>
<path d="M126.777 52.6134L141.271 49.7202" stroke="#263238" stroke-width="0.556382" stroke-linecap="round" stroke-linejoin="round"/>
<path d="M126.383 50.4926L140.877 47.5994" stroke="#263238" stroke-width="0.556382" stroke-linecap="round" stroke-linejoin="round"/>
<path d="M125.988 48.3672L140.482 45.474" stroke="#263238" stroke-width="0.556382" stroke-linecap="round" stroke-linejoin="round"/>
<path d="M129.461 45.4741L140.088 43.3542" stroke="#263238" stroke-width="0.556382" stroke-linecap="round" stroke-linejoin="round"/>
<path d="M0.277344 227.721H233.674" stroke="#263238" stroke-width="0.556382" stroke-linecap="round" stroke-linejoin="round"/>
</g>
<defs>
<clipPath id="clip0_567_4661">
<rect width="233.953" height="228" fill="white"/>
</clipPath>
</defs>
</svg>
