<svg width="219" height="229" viewBox="0 0 219 229" fill="none" xmlns="http://www.w3.org/2000/svg">
<g clip-path="url(#clip0_176_2422)">
<path d="M139.101 23.2551C139.101 23.2551 81.8874 20.491 35.3191 52.2195C-11.2492 83.948 12.4154 195.038 28.3202 202.047C44.2301 209.056 105.39 221.223 152.602 200.577C199.814 179.93 215.308 105.183 208.507 83.7147C201.711 62.2462 188.51 29.3563 139.096 23.2551H139.101Z" fill="#75A9C8"/>
<path opacity="0.7" d="M139.101 23.2551C139.101 23.2551 81.8874 20.491 35.3191 52.2195C-11.2492 83.948 12.4154 195.038 28.3202 202.047C44.2301 209.056 105.39 221.223 152.602 200.577C199.814 179.93 215.308 105.183 208.507 83.7147C201.711 62.2462 188.51 29.3563 139.096 23.2551H139.101Z" fill="white"/>
<path d="M50.0118 142.104C50.027 142.069 50.0118 142.028 49.9763 142.018C49.9408 142.003 49.9053 142.018 49.89 142.054C47.9019 146.643 46.5072 151.456 45.3407 156.315C44.2148 161.184 43.3983 166.129 42.8302 171.099L42.4752 174.837C42.4194 175.461 42.3535 176.085 42.3079 176.708L42.2064 178.585C42.1506 179.838 42.0746 181.085 42.0391 182.338L42.0746 186.096L42.1151 187.973C42.1405 188.596 42.1861 189.22 42.2318 189.844C42.3281 191.092 42.4042 192.339 42.5158 193.587C42.7542 196.077 43.1295 198.552 43.5149 201.017C43.5149 201.047 43.5454 201.073 43.5809 201.073C43.6164 201.073 43.6468 201.042 43.6468 201.007C43.6417 199.749 43.5859 198.507 43.5606 197.259C43.5251 196.016 43.4186 194.774 43.4338 193.531C43.4388 192.289 43.4084 191.046 43.3932 189.804L43.3577 187.942L43.3932 186.081L43.4084 182.358L43.5099 178.641L43.5504 176.779C43.5758 176.161 43.6214 175.542 43.6569 174.923L43.8852 171.206C44.3213 166.261 45.0009 161.331 45.9899 156.462C46.9789 151.593 48.2012 146.75 50.0168 142.114L50.0118 142.104Z" fill="#ABABAB"/>
<path d="M50.5435 161.559C50.5536 161.524 50.5333 161.488 50.5029 161.478C50.4674 161.468 50.4319 161.483 50.4217 161.519C49.3516 164.612 48.4945 167.772 47.7743 170.967C47.0846 174.167 46.5419 177.413 46.2122 180.679C45.8826 183.936 45.5174 187.197 45.4718 190.468C45.4211 193.739 45.4718 197.015 45.8217 200.287C45.8217 200.317 45.8471 200.342 45.8826 200.347C45.9181 200.347 45.9536 200.327 45.9536 200.287C46.334 197.026 46.5622 193.775 46.7904 190.524C47.0186 187.273 47.0541 184.017 47.2621 180.766C47.4599 177.525 47.8656 174.299 48.4235 171.089C48.9712 167.884 49.6509 164.688 50.5536 161.554L50.5435 161.559Z" fill="#ABABAB"/>
<path d="M61.332 168.406C61.3117 168.376 61.2711 168.365 61.2407 168.386C58.5425 170.095 56.1335 172.25 54.0287 174.675C52.9941 175.907 52.0305 177.195 51.2089 178.595L50.6307 179.69L50.1793 180.827C50.017 181.202 49.9004 181.592 49.7837 181.978C49.6671 182.363 49.5352 182.754 49.4338 183.139C48.6223 186.263 48.0847 189.453 47.9427 192.654C47.8108 195.854 47.8717 199.059 48.3028 202.239C48.3028 202.27 48.3332 202.295 48.3637 202.295C48.3992 202.295 48.4296 202.27 48.4347 202.234L49.2563 192.745C49.5859 189.611 49.7837 186.456 50.4583 183.393C50.5445 183.012 50.6561 182.637 50.7524 182.262C50.8488 181.887 50.9452 181.506 51.0872 181.146L51.4726 180.051L51.9696 179.016C52.7 177.647 53.5926 176.333 54.5562 175.09C56.4834 172.605 58.7505 170.338 61.3269 168.497C61.3573 168.477 61.3624 168.436 61.3421 168.406H61.332Z" fill="#ABABAB"/>
<path d="M56.1132 180.593C54.6424 181.541 53.6585 183.032 52.8318 184.534C52.0457 186.07 51.4219 187.693 50.9959 189.362C50.8691 189.778 50.7626 190.194 50.6763 190.615L50.3771 191.877C50.225 192.724 50.1083 193.582 50.0576 194.439C50.0474 195.301 50.0221 196.158 50.0779 197.015C50.1489 197.872 50.2452 198.729 50.4177 199.576C50.4228 199.602 50.443 199.622 50.4684 199.627C50.5039 199.632 50.5394 199.612 50.5495 199.576C50.7575 198.729 50.8944 197.893 51.006 197.056C51.1379 196.219 51.2697 195.392 51.3712 194.56C51.4929 193.734 51.6045 192.907 51.6653 192.075C51.782 191.254 51.8428 190.412 52.0203 189.6C52.3094 187.957 52.7862 186.349 53.4252 184.813C54.0642 183.291 54.896 181.775 56.1791 180.699L56.1893 180.689C56.1893 180.689 56.2197 180.634 56.2045 180.603C56.1842 180.573 56.1436 180.563 56.1132 180.583V180.593Z" fill="#ABABAB"/>
<path d="M40.985 190.097C40.63 185.888 39.9352 181.713 39.281 177.55C38.6216 173.381 37.8964 169.227 37.1356 165.078C36.3444 160.935 35.5228 156.801 34.6251 152.678C34.6201 152.643 34.5846 152.622 34.5491 152.627C34.5136 152.632 34.4882 152.668 34.4983 152.703C35.2185 156.857 35.8728 161.016 36.4865 165.185C37.1204 169.349 37.7138 173.518 38.2413 177.697C38.7586 181.876 39.1592 186.065 39.6816 190.234L41.2234 202.771C41.2234 202.802 41.2538 202.827 41.2843 202.827C41.3198 202.827 41.3502 202.802 41.3553 202.766C41.4009 201.711 41.406 200.651 41.4314 199.596C41.4415 198.536 41.3908 197.481 41.3705 196.426C41.3299 194.312 41.1524 192.207 40.9901 190.097H40.985Z" fill="#ABABAB"/>
<path d="M38.4598 190.036C38.2366 188.368 37.9272 186.709 37.6077 185.056L37.0143 182.596C36.8216 181.774 36.639 180.953 36.3956 180.146C35.5537 176.885 34.4836 173.675 33.1751 170.571L32.6679 169.415L32.1049 168.279C31.7499 167.513 31.3188 166.788 30.908 166.052C30.0255 164.617 29.1126 163.187 27.8701 162.02C27.8447 161.995 27.8041 161.995 27.7788 162.02C27.7534 162.046 27.7534 162.086 27.7788 162.112H27.7839C28.9351 163.314 29.772 164.784 30.5631 166.24C30.9283 166.991 31.3188 167.726 31.6282 168.497L32.1252 169.643L32.5614 170.815C33.7279 173.934 34.6661 177.139 35.366 180.395C35.7515 182.013 36.0051 183.666 36.3195 185.299L36.7151 187.769C36.8571 188.591 37.0346 189.407 37.1513 190.229C37.415 191.877 37.7193 193.515 38.0033 195.164C38.2569 196.817 38.5612 198.465 38.9061 200.114C38.9111 200.144 38.9416 200.169 38.972 200.169C39.0075 200.169 39.0379 200.139 39.0379 200.104C39.043 198.42 39.0075 196.736 38.9213 195.057C38.8249 193.379 38.6271 191.705 38.4496 190.031L38.4598 190.036Z" fill="#ABABAB"/>
<path d="M34.9738 190.25C34.1928 188.039 33.29 185.878 32.3061 183.758C31.2968 181.648 30.2064 179.579 28.9537 177.611C28.9334 177.586 28.8929 177.571 28.8624 177.591C28.832 177.611 28.8219 177.652 28.8371 177.682C29.9326 179.731 30.8607 181.866 31.7026 184.022C32.5597 186.177 33.3255 188.363 33.9747 190.58C34.634 192.796 35.1057 195.058 35.694 197.29C36.3127 199.516 36.8148 201.768 37.4995 204.02C37.5097 204.045 37.535 204.07 37.5604 204.07C37.5959 204.07 37.6263 204.04 37.6263 204.004C37.6618 201.651 37.4285 199.303 36.9721 197C36.5613 194.683 35.7447 192.466 34.9687 190.26L34.9738 190.25Z" fill="#ABABAB"/>
<path d="M34.8274 197.614C34.4267 196.23 33.7471 194.941 32.9711 193.724C32.2104 192.502 31.3279 191.351 30.273 190.372C29.7303 189.9 29.1725 189.449 28.5588 189.079C27.9502 188.698 27.3111 188.379 26.6112 188.196C26.5808 188.186 26.5504 188.201 26.5352 188.232C26.52 188.267 26.5352 188.303 26.5707 188.318H26.5808C27.8437 188.881 28.9087 189.814 29.8115 190.828C30.7244 191.848 31.4547 193.019 32.0633 194.237C32.7023 195.449 33.032 196.782 33.5899 198.03C33.8333 198.669 34.0768 199.313 34.3608 199.952C34.5992 200.601 34.868 201.251 35.2078 201.9C35.2078 201.9 35.2382 201.94 35.2635 201.94C35.2991 201.94 35.3346 201.915 35.3346 201.874C35.365 201.154 35.3244 200.439 35.2534 199.724C35.152 199.014 34.9998 198.314 34.8325 197.614H34.8274Z" fill="#ABABAB"/>
<path d="M35.0917 158.709C35.0917 158.709 28.1891 157.117 26.5966 149.687C25.0041 142.257 30.1367 145.442 25.5367 133.762C20.9366 122.081 21.9966 119.429 23.5891 116.066C25.1816 112.704 26.0641 113.764 27.4842 118.191C28.8992 122.614 34.0317 129.517 35.9793 142.434C37.9268 155.352 35.0968 158.714 35.0968 158.714L35.0917 158.709Z" fill="#75A9C8"/>
<path d="M48.7137 146.146C48.7137 146.146 44.1136 144.554 43.9361 135.881C43.7586 127.209 47.2987 128.979 47.8312 118.186C48.3637 107.393 49.0687 99.7809 51.0162 99.6084C52.9637 99.4309 58.0963 104.918 59.8663 116.949C61.6363 128.984 57.5638 136.946 54.0288 140.481C50.4888 144.021 48.7187 146.141 48.7187 146.141L48.7137 146.146Z" fill="#75A9C8"/>
<path d="M32.611 169.146C32.611 169.146 31.551 162.776 29.426 159.769C27.3009 156.761 22.7009 154.104 19.6934 148.266C16.6859 142.429 13.3234 139.594 13.5009 147.911C13.6784 156.229 17.3959 160.474 21.996 163.304C26.596 166.134 32.611 169.141 32.611 169.141V169.146Z" fill="#75A9C8"/>
<path d="M30.6637 180.122C30.6637 180.122 26.4187 171.982 20.2211 165.967C14.0285 159.952 9.07349 156.944 10.8435 159.952C12.6135 162.959 14.7386 162.782 17.7461 168.092C20.7536 173.402 19.8711 177.292 24.1161 180.299C28.3611 183.307 30.6637 180.122 30.6637 180.122Z" fill="#75A9C8"/>
<path d="M30.1349 190.56C29.9574 190.027 29.7799 186.137 23.7648 182.952C17.7498 179.767 12.0847 181.004 12.7948 182.597C13.5048 184.189 17.2173 186.842 20.9348 188.435C24.6524 190.027 30.1349 190.56 30.1349 190.56Z" fill="#75A9C8"/>
<path d="M48.3581 169.502C48.3581 169.502 45.7056 166.139 47.1206 159.064C48.5356 151.984 51.7207 153.754 55.2607 150.042C58.8007 146.324 58.0907 145.797 61.6307 141.902C65.1708 138.007 68.3558 135.887 69.7708 137.479C71.1858 139.072 69.0608 144.027 66.9408 146.857C64.8158 149.687 61.4532 151.102 59.8607 154.642C58.2682 158.182 58.9782 163.842 54.9057 166.499C50.8382 169.152 48.3581 169.507 48.3581 169.507V169.502Z" fill="#75A9C8"/>
<path d="M57.209 171.449C57.209 171.449 63.579 164.192 68.179 158.887C72.7791 153.577 74.5491 149.509 74.7266 153.049C74.9041 156.589 76.3191 159.419 72.6016 164.019C68.884 168.619 57.209 171.449 57.209 171.449Z" fill="#75A9C8"/>
<path d="M53.8479 183.129C53.8479 183.129 53.6704 180.299 63.7579 173.752C73.8455 167.204 78.0905 165.967 77.0306 168.619C75.9706 171.272 71.543 173.929 66.7655 178.707C61.9879 183.484 53.8479 183.129 53.8479 183.129Z" fill="#75A9C8"/>
<path d="M35.5125 157.954C35.5125 157.954 33.144 145.259 30.6691 136.237C28.1941 127.214 26.6016 121.727 26.6016 121.727" stroke="#ABABAB" stroke-width="0.507169" stroke-linecap="round" stroke-linejoin="round"/>
<path d="M48.3086 146.279C48.3086 146.279 52.6094 132.519 54.0244 124.202C55.4394 115.884 53.8469 109.692 53.1419 105.974" stroke="#ABABAB" stroke-width="0.507169" stroke-linecap="round" stroke-linejoin="round"/>
<path d="M32.0542 168.883C32.0542 168.883 29.427 164.192 25.532 159.592C21.6369 154.992 18.6294 152.512 16.8594 148.089" stroke="#ABABAB" stroke-width="0.507169" stroke-linecap="round" stroke-linejoin="round"/>
<path d="M48.3594 169.501C48.3594 169.501 49.7744 161.006 53.1369 156.584C56.4994 152.161 63.2245 145.259 65.877 140.836" stroke="#ABABAB" stroke-width="0.507169" stroke-linecap="round" stroke-linejoin="round"/>
<path d="M29.7207 190.366C29.7207 190.366 23.7665 186.491 19.5215 184.366" stroke="#ABABAB" stroke-width="0.507169" stroke-linecap="round" stroke-linejoin="round"/>
<path d="M47.036 227.897H39.2459C37.8664 227.897 36.6238 227.07 36.0913 225.797C33.5453 219.701 26.7492 202.097 30.8421 197.107C34.7422 192.349 51.5396 192.349 55.4398 197.107C59.5326 202.097 52.7366 219.701 50.1906 225.797C49.658 227.07 48.4155 227.897 47.036 227.897Z" fill="#ABABAB"/>
<path d="M148.422 13.7497V171.728C148.422 176.064 144.907 179.579 140.571 179.579H72.3061C67.9698 179.579 64.4551 176.064 64.4551 171.728V13.7446C64.4551 9.40829 67.9698 5.89868 72.301 5.89868H101.6L101.625 5.98997C102.356 8.61711 104.035 10.3263 105.901 10.3263H106.971C108.837 10.3263 110.516 8.61711 111.246 5.98997L111.277 5.89868H140.566C144.902 5.89868 148.417 9.41336 148.417 13.7497H148.422Z" fill="white" stroke="#263238" stroke-width="0.507169" stroke-linecap="round" stroke-linejoin="round"/>
<path d="M148.423 21.0994V13.7505C148.423 9.41422 144.908 5.89954 140.572 5.89954H111.283L111.252 5.99083C110.522 8.61796 108.843 10.3271 106.977 10.3271H105.907C104.04 10.3271 102.362 8.61796 101.631 5.99083L101.606 5.89954H72.3068C67.9706 5.89954 64.4609 9.41422 64.4609 13.7454V21.0994H148.423Z" fill="#DBDBDB" stroke="#263238" stroke-width="0.507169" stroke-linecap="round" stroke-linejoin="round"/>
<path d="M64.4551 170.496V171.734C64.4551 176.07 67.9698 179.585 72.3061 179.585H140.566C144.902 179.585 148.417 176.07 148.417 171.734V170.496H64.4551Z" fill="#DBDBDB" stroke="#263238" stroke-width="0.507169" stroke-linecap="round" stroke-linejoin="round"/>
<path d="M153.758 51.4838V35.7058H152.332V15.5002C152.332 8.62298 146.759 3.04919 139.881 3.04919H72.9959C66.1187 3.04919 60.5449 8.62298 60.5449 15.5002V176.024C60.5449 182.901 66.1187 188.475 72.9959 188.475H139.881C146.759 188.475 152.332 182.901 152.332 176.024V64.9289H153.758V55.6071H152.332V51.4838H153.758ZM148.417 167.129C148.417 174.006 142.838 179.58 135.966 179.58H76.9062C70.029 179.58 64.4552 174.006 64.4552 167.129V18.3454C64.4552 11.4682 70.0341 5.89441 76.9062 5.89441H101.6L101.626 5.9857C102.356 8.61284 104.035 10.322 105.901 10.322H106.971C108.838 10.322 110.516 8.61284 111.247 5.9857L111.277 5.89441H135.966C142.843 5.89441 148.417 11.4682 148.417 18.3454V167.129Z" fill="#75A9C8" stroke="#263238" stroke-width="0.507169" stroke-linecap="round" stroke-linejoin="round"/>
<path d="M138.881 4.76355H73.9941C67.3604 4.76355 61.9844 10.1395 61.9844 16.7733V174.751C61.9844 181.385 67.3604 186.761 73.9941 186.761H138.881C145.515 186.761 150.891 181.385 150.891 174.751V16.7733C150.891 10.1395 145.515 4.76355 138.881 4.76355ZM148.421 167.57C148.421 174.204 143.045 179.58 136.411 179.58H76.4691C69.8354 179.58 64.4594 174.204 64.4594 167.57V17.9043C64.4594 11.2756 69.8354 5.89961 76.4641 5.89961H101.604L101.63 5.9909C102.36 8.61803 104.039 10.3272 105.905 10.3272H106.975C108.842 10.3272 110.52 8.61803 111.251 5.9909L111.281 5.89961H136.411C143.045 5.89961 148.421 11.2756 148.421 17.9094V167.57Z" fill="#263238" stroke="#263238" stroke-width="0.507169" stroke-linecap="round" stroke-linejoin="round"/>
<path d="M107.351 6.49278C107.351 5.84868 106.828 5.32629 106.184 5.32629C105.54 5.32629 105.018 5.84868 105.018 6.49278C105.018 7.13689 105.54 7.65927 106.184 7.65927C106.828 7.65927 107.351 7.13689 107.351 6.49278Z" fill="white"/>
<path d="M71.9204 10.9717C71.9204 12.1534 70.5916 12.5794 70.5865 13.4822V13.5431H71.8748V13.9387H70.1555V13.6039C70.1555 12.336 71.4842 12.0926 71.4842 10.9869C71.4842 10.5812 71.3473 10.3682 71.0227 10.3682C70.6981 10.3682 70.5612 10.5964 70.5612 10.9464V11.2963H70.1504V10.9768C70.1504 10.3783 70.4243 9.97766 71.0278 9.97766C71.6313 9.97766 71.9153 10.3682 71.9153 10.9717H71.9204Z" fill="#263238"/>
<path d="M74.0657 10.9666V11.068C74.0657 11.4737 73.9034 11.7577 73.589 11.8744C73.9187 11.9961 74.0657 12.2953 74.0657 12.6859V12.9902C74.0657 13.5886 73.7868 13.9842 73.1782 13.9842C72.5696 13.9842 72.3008 13.5937 72.3008 12.9902V12.7214H72.7116V13.0206C72.7116 13.3756 72.8587 13.5886 73.1731 13.5886C73.4876 13.5886 73.6346 13.3807 73.6346 12.9851V12.6808C73.6346 12.2953 73.4723 12.1077 73.1427 12.0975H72.9094V11.707H73.168C73.4571 11.6969 73.6397 11.5092 73.6397 11.1694V10.9919C73.6397 10.5862 73.4977 10.3833 73.1782 10.3833C72.8587 10.3833 72.7167 10.6014 72.7167 10.9564V11.1593H72.3059V10.9818C72.3059 10.3833 72.5848 9.9928 73.1833 9.9928C73.7817 9.9928 74.0708 10.3782 74.0708 10.9818L74.0657 10.9666Z" fill="#263238"/>
<path d="M74.9112 11.266V11.8087H74.4902V11.266H74.9112ZM74.9112 13.4012V13.9438H74.4902V13.4012H74.9112Z" fill="#263238"/>
<path d="M75.8002 11.6207C75.9219 11.4077 76.1197 11.2961 76.3834 11.2961C76.8855 11.2961 77.1138 11.6664 77.1138 12.2243V12.9901C77.1138 13.5885 76.8298 13.9841 76.2262 13.9841C75.6227 13.9841 75.3438 13.5936 75.3438 12.9901V12.7263H75.7546V13.0154C75.7546 13.3705 75.9016 13.5835 76.2161 13.5835C76.5305 13.5835 76.6776 13.3705 76.6776 13.0154V12.2547C76.6776 11.8997 76.5305 11.6867 76.2161 11.6867C75.9777 11.6867 75.8103 11.8236 75.7748 12.1076V12.1989H75.364L75.4705 10.0181H77.0174V10.4086H75.8611L75.8002 11.6156V11.6207Z" fill="#263238"/>
<path d="M79.2884 10.9616V11.0326H78.8775V10.9312C78.8775 10.5761 78.7305 10.3682 78.411 10.3682C78.0914 10.3682 77.9342 10.5812 77.9342 11.0022V11.8796C78.0407 11.6108 78.2537 11.4586 78.5682 11.4586C79.0703 11.4586 79.2985 11.8238 79.2985 12.3867V12.9801C79.2985 13.5786 78.9993 13.9742 78.4008 13.9742C77.8023 13.9742 77.498 13.5836 77.498 12.9801V10.9768C77.498 10.353 77.777 9.96753 78.4008 9.96753C79.0246 9.96753 79.2884 10.3479 79.2884 10.9464V10.9616ZM77.9393 12.4324V13.0207C77.9393 13.3757 78.0864 13.5887 78.4059 13.5887C78.7254 13.5887 78.8725 13.3757 78.8725 13.0207V12.4324C78.8725 12.0774 78.7203 11.8643 78.4059 11.8643C78.0914 11.8643 77.9393 12.0774 77.9393 12.4324Z" fill="#263238"/>
<path d="M122.119 11.1346H121.014V13.9038H122.119V11.1346Z" fill="#263238"/>
<path d="M123.596 10.5811H122.49V13.903H123.596V10.5811Z" fill="#263238"/>
<path d="M125.076 10.1853H123.971V13.9029H125.076V10.1853Z" fill="#263238"/>
<path d="M126.553 9.50122H125.447V13.9034H126.553V9.50122Z" fill="#263238"/>
<path d="M140.26 13.8263H133.611V9.76392H140.26V13.8263ZM133.982 13.4561H139.89V10.1341H133.982V13.4561Z" fill="#263238"/>
<path d="M138.049 10.5341H134.539V13.0547H138.049V10.5341Z" fill="#263238"/>
<path d="M140.868 11.3214H140.031V12.28H140.868V11.3214Z" fill="#263238"/>
<path d="M131.177 12.9452C131.136 12.9452 131.091 12.9351 131.05 12.9097C129.696 12.1084 128.803 12.8539 128.768 12.8843C128.667 12.9756 128.509 12.9604 128.418 12.859C128.327 12.7575 128.337 12.6003 128.438 12.509C128.484 12.4685 129.63 11.4896 131.304 12.4837C131.42 12.5547 131.461 12.7068 131.39 12.8235C131.344 12.8996 131.263 12.9452 131.177 12.9452Z" fill="#263238"/>
<path d="M131.68 12.1137C131.634 12.1137 131.594 12.1035 131.553 12.0782C129.596 10.9167 128.282 12.0427 128.272 12.0528C128.17 12.1441 128.013 12.1339 127.922 12.0325C127.831 11.9311 127.841 11.7739 127.942 11.6826C127.957 11.6673 129.545 10.3081 131.807 11.6572C131.924 11.7282 131.964 11.8804 131.893 11.997C131.847 12.0731 131.766 12.1187 131.68 12.1187V12.1137Z" fill="#263238"/>
<path d="M132.132 11.1442C132.086 11.1442 132.046 11.1341 132.005 11.1087C129.53 9.63793 127.882 11.0225 127.811 11.0834C127.71 11.1747 127.552 11.1594 127.461 11.058C127.37 10.9566 127.38 10.7993 127.481 10.7081C127.502 10.6928 129.459 9.01918 132.254 10.6827C132.37 10.7537 132.411 10.9059 132.34 11.0225C132.294 11.0986 132.213 11.1442 132.127 11.1442H132.132Z" fill="#263238"/>
<path d="M130.431 13.3605C130.431 13.7054 130.152 13.9843 129.807 13.9843C129.463 13.9843 129.184 13.7054 129.184 13.3605C129.184 13.0156 129.463 12.7367 129.807 12.7367C130.152 12.7367 130.431 13.0156 130.431 13.3605Z" fill="#263238"/>
<path d="M134.17 108.296H79.1173C77.6243 108.296 76.4141 109.506 76.4141 110.999V130.145C76.4141 131.638 77.6243 132.848 79.1173 132.848H134.17C135.663 132.848 136.874 131.638 136.874 130.145V110.999C136.874 109.506 135.663 108.296 134.17 108.296Z" fill="#75A9C8" stroke="#263238" stroke-width="0.507169" stroke-linecap="round" stroke-linejoin="round"/>
<path d="M74.4512 148.936H139.851" stroke="#263238" stroke-width="0.507169" stroke-linecap="round" stroke-linejoin="round"/>
<path d="M75.3066 153.063H89.4212" stroke="#263238" stroke-width="0.507169" stroke-linecap="round" stroke-linejoin="round"/>
<path d="M75.3066 155.132H89.4212" stroke="#263238" stroke-width="0.507169" stroke-linecap="round" stroke-linejoin="round"/>
<path d="M75.3066 157.196H89.4212" stroke="#263238" stroke-width="0.507169" stroke-linecap="round" stroke-linejoin="round"/>
<path d="M75.3066 159.261H89.4212" stroke="#263238" stroke-width="0.507169" stroke-linecap="round" stroke-linejoin="round"/>
<path d="M91.8301 153.063H105.945" stroke="#263238" stroke-width="0.507169" stroke-linecap="round" stroke-linejoin="round"/>
<path d="M91.8301 155.132H105.945" stroke="#263238" stroke-width="0.507169" stroke-linecap="round" stroke-linejoin="round"/>
<path d="M91.8301 157.196H105.945" stroke="#263238" stroke-width="0.507169" stroke-linecap="round" stroke-linejoin="round"/>
<path d="M91.8301 159.26H105.945" stroke="#263238" stroke-width="0.507169" stroke-linecap="round" stroke-linejoin="round"/>
<path d="M108.354 153.063H122.468" stroke="#263238" stroke-width="0.507169" stroke-linecap="round" stroke-linejoin="round"/>
<path d="M108.354 155.132H122.468" stroke="#263238" stroke-width="0.507169" stroke-linecap="round" stroke-linejoin="round"/>
<path d="M108.354 157.196H122.468" stroke="#263238" stroke-width="0.507169" stroke-linecap="round" stroke-linejoin="round"/>
<path d="M108.354 159.26H122.468" stroke="#263238" stroke-width="0.507169" stroke-linecap="round" stroke-linejoin="round"/>
<path d="M124.877 153.063H138.991" stroke="#263238" stroke-width="0.507169" stroke-linecap="round" stroke-linejoin="round"/>
<path d="M124.877 155.132H138.991" stroke="#263238" stroke-width="0.507169" stroke-linecap="round" stroke-linejoin="round"/>
<path d="M124.877 157.196H138.991" stroke="#263238" stroke-width="0.507169" stroke-linecap="round" stroke-linejoin="round"/>
<path d="M124.877 159.26H138.991" stroke="#263238" stroke-width="0.507169" stroke-linecap="round" stroke-linejoin="round"/>
<path d="M136.711 49.7938H78.9753C77.5608 49.7938 76.4141 50.9405 76.4141 52.355V61.9202C76.4141 63.3347 77.5608 64.4814 78.9753 64.4814H136.711C138.126 64.4814 139.273 63.3347 139.273 61.9202V52.355C139.273 50.9405 138.126 49.7938 136.711 49.7938Z" stroke="#263238" stroke-width="0.507169" stroke-linecap="round" stroke-linejoin="round"/>
<path d="M136.711 78.7385H78.9753C77.5608 78.7385 76.4141 79.8852 76.4141 81.2997V90.8649C76.4141 92.2795 77.5608 93.4261 78.9753 93.4261H136.711C138.126 93.4261 139.273 92.2795 139.273 90.8649V81.2997C139.273 79.8852 138.126 78.7385 136.711 78.7385Z" stroke="#263238" stroke-width="0.507169" stroke-linecap="round" stroke-linejoin="round"/>
<path d="M78.1086 43.2209L77.2109 40.4873H77.7029L78.3673 42.5819L79.0367 40.4873H79.4881L78.5803 43.2209V44.7475H78.1137V43.2209H78.1086Z" fill="black"/>
<path d="M79.6973 41.5169C79.6973 40.8677 80.0219 40.4468 80.671 40.4468C81.3202 40.4468 81.6499 40.8677 81.6499 41.5169V43.718C81.6499 44.3621 81.3253 44.7881 80.671 44.7881C80.0168 44.7881 79.6973 44.3621 79.6973 43.718V41.5169ZM80.1639 43.7434C80.1639 44.1339 80.3262 44.3571 80.671 44.3571C81.0159 44.3571 81.1782 44.1339 81.1782 43.7434V41.4915C81.1782 41.1061 81.021 40.8779 80.671 40.8779C80.3211 40.8779 80.1639 41.1112 80.1639 41.4915V43.7434Z" fill="black"/>
<path d="M82.5525 43.7433C82.5525 44.1288 82.7047 44.357 83.0496 44.357C83.3944 44.357 83.5415 44.1237 83.5415 43.7433V40.4873H83.9878V43.718C83.9878 44.3621 83.6886 44.7932 83.0343 44.7932C82.3801 44.7932 82.0859 44.3621 82.0859 43.718V40.4873H82.5525V43.7433Z" fill="black"/>
<path d="M85.4074 40.4873C86.0769 40.4873 86.3558 40.8271 86.3558 41.4611V41.8059C86.3558 42.2725 86.1935 42.5667 85.8283 42.6833C86.2189 42.8 86.3659 43.1144 86.3659 43.5709V44.2353C86.3659 44.4229 86.371 44.6004 86.4522 44.7475H85.9703C85.9146 44.6258 85.8892 44.5142 85.8892 44.2302V43.5607C85.8892 43.0789 85.666 42.9268 85.2705 42.9268H84.9357V44.7475H84.459V40.4873H85.4074ZM85.2857 42.4957C85.661 42.4957 85.8892 42.374 85.8892 41.9124V41.5067C85.8892 41.1213 85.7472 40.9235 85.3973 40.9235H84.9357V42.5008H85.2907L85.2857 42.4957Z" fill="black"/>
<path d="M88.217 44.7475H87.791V40.4873H88.3945L89.3784 43.5658V40.4873H89.7994V44.7475H89.3074L88.217 41.3038V44.7475Z" fill="black"/>
<path d="M90.7684 43.8904L90.6061 44.7475H90.1699L90.9865 40.4873H91.6711L92.4877 44.7475H92.0109L91.8487 43.8904H90.7735H90.7684ZM90.8292 43.4847H91.7777L91.2958 41.0249L90.8292 43.4847Z" fill="black"/>
<path d="M94.4249 44.7425H93.9685L93.2635 41.3546V44.7475H92.8477V40.4873H93.512L94.2119 43.8853L94.8865 40.4873H95.5509V44.7475H95.0995V41.3241L94.4249 44.7425Z" fill="black"/>
<path d="M97.5543 42.374V42.8H96.5146V44.3164H97.7927V44.7475H96.043V40.4873H97.7927V40.9184H96.5146V42.374H97.5543Z" fill="black"/>
<path d="M78.1086 73.3275L77.2109 70.5939H77.7029L78.3673 72.6885L79.0367 70.5939H79.4881L78.5803 73.3275V74.8541H78.1137V73.3275H78.1086Z" fill="black"/>
<path d="M79.6973 71.6235C79.6973 70.9743 80.0219 70.5533 80.671 70.5533C81.3202 70.5533 81.6499 70.9743 81.6499 71.6235V73.8246C81.6499 74.4687 81.3253 74.8947 80.671 74.8947C80.0168 74.8947 79.6973 74.4687 79.6973 73.8246V71.6235ZM80.1639 73.8499C80.1639 74.2405 80.3262 74.4636 80.671 74.4636C81.0159 74.4636 81.1782 74.2405 81.1782 73.8499V71.5981C81.1782 71.2127 81.021 70.9844 80.671 70.9844C80.3211 70.9844 80.1639 71.2177 80.1639 71.5981V73.8499Z" fill="black"/>
<path d="M82.5525 73.8499C82.5525 74.2353 82.7047 74.4636 83.0496 74.4636C83.3944 74.4636 83.5415 74.2303 83.5415 73.8499V70.5939H83.9878V73.8245C83.9878 74.4686 83.6886 74.8997 83.0343 74.8997C82.3801 74.8997 82.0859 74.4686 82.0859 73.8245V70.5939H82.5525V73.8499Z" fill="black"/>
<path d="M85.4074 70.5939C86.0769 70.5939 86.3558 70.9337 86.3558 71.5676V71.9125C86.3558 72.3791 86.1935 72.6733 85.8283 72.7899C86.2189 72.9066 86.3659 73.221 86.3659 73.6775V74.3419C86.3659 74.5295 86.371 74.707 86.4522 74.8541H85.9703C85.9146 74.7324 85.8892 74.6208 85.8892 74.3368V73.6673C85.8892 73.1855 85.666 73.0334 85.2705 73.0334H84.9357V74.8541H84.459V70.5939H85.4074ZM85.2857 72.6023C85.661 72.6023 85.8892 72.4805 85.8892 72.019V71.6133C85.8892 71.2278 85.7472 71.03 85.3973 71.03H84.9357V72.6073H85.2907L85.2857 72.6023Z" fill="black"/>
<path d="M88.217 74.8541H87.791V70.5939H88.3945L89.3784 73.6724V70.5939H89.7994V74.8541H89.3074L88.217 71.4104V74.8541Z" fill="black"/>
<path d="M90.7361 73.8499C90.7361 74.2353 90.8883 74.4636 91.2331 74.4636C91.578 74.4636 91.7251 74.2303 91.7251 73.8499V70.5939H92.1714V73.8245C92.1714 74.4686 91.8722 74.8997 91.2179 74.8997C90.5637 74.8997 90.2695 74.4686 90.2695 73.8245V70.5939H90.7361V73.8499Z" fill="black"/>
<path d="M94.2101 74.849H93.7537L93.0487 71.4611V74.8541H92.6328V70.5939H93.2972L93.9971 73.9919L94.6716 70.5939H95.336V74.8541H94.8846V71.4307L94.2101 74.849Z" fill="black"/>
<path d="M96.7777 70.5939C97.4421 70.5939 97.7007 70.9083 97.7007 71.5372V71.7401C97.7007 72.1915 97.574 72.4704 97.2037 72.587C97.6196 72.7037 97.7768 73.0334 97.7768 73.4999V73.86C97.7768 74.4991 97.4674 74.8592 96.8031 74.8592H95.8242V70.5989H96.7777V70.5939ZM96.661 72.3994C97.0363 72.3994 97.2341 72.2777 97.2341 71.8314V71.5829C97.2341 71.2075 97.1074 71.025 96.7676 71.025H96.301V72.3994H96.6661H96.661ZM96.8031 74.4179C97.1479 74.4179 97.3102 74.2353 97.3102 73.8398V73.4645C97.3102 72.9877 97.1226 72.8305 96.7118 72.8305H96.2959V74.4179H96.8031Z" fill="black"/>
<path d="M99.7243 72.4805V72.9066H98.6846V74.423H99.9626V74.8541H98.2129V70.5939H99.9626V71.025H98.6846V72.4805H99.7243Z" fill="black"/>
<path d="M101.353 70.5939C102.022 70.5939 102.301 70.9337 102.301 71.5676V71.9125C102.301 72.3791 102.139 72.6733 101.774 72.7899C102.164 72.9066 102.311 73.221 102.311 73.6775V74.3419C102.311 74.5295 102.316 74.707 102.397 74.8541H101.916C101.86 74.7324 101.835 74.6208 101.835 74.3368V73.6673C101.835 73.1855 101.611 73.0334 101.216 73.0334H100.881V74.8541H100.404V70.5939H101.353ZM101.231 72.6023C101.606 72.6023 101.835 72.4805 101.835 72.019V71.6133C101.835 71.2278 101.693 71.03 101.343 71.03H100.881V72.6073H101.236L101.231 72.6023Z" fill="black"/>
<path d="M95.9492 113.636V114.255H95.2239V113.595C95.2239 112.976 94.9805 112.601 94.4176 112.601C93.8546 112.601 93.6112 112.976 93.6112 113.595V117.227C93.6112 117.845 93.8647 118.221 94.4176 118.221C94.9704 118.221 95.2239 117.845 95.2239 117.227V116.334H95.9492V117.186C95.9492 118.226 95.4573 118.915 94.3973 118.915C93.3373 118.915 92.8555 118.226 92.8555 117.186V113.631C92.8555 112.591 93.3474 111.901 94.3973 111.901C95.4471 111.901 95.9492 112.591 95.9492 113.631V113.636Z" fill="white"/>
<path d="M97.0605 113.636C97.0605 112.586 97.5829 111.906 98.6328 111.906C99.6826 111.906 100.215 112.586 100.215 113.636V117.191C100.215 118.231 99.6927 118.92 98.6328 118.92C97.5728 118.92 97.0605 118.231 97.0605 117.191V113.636ZM97.8162 117.232C97.8162 117.86 98.08 118.226 98.6328 118.226C99.1856 118.226 99.4493 117.86 99.4493 117.232V113.6C99.4493 112.981 99.1957 112.606 98.6328 112.606C98.0698 112.606 97.8162 112.981 97.8162 113.6V117.232Z" fill="white"/>
<path d="M102.092 118.849H101.402V111.977H102.376L103.969 116.947V111.977H104.648V118.849H103.852L102.092 113.291V118.849Z" fill="white"/>
<path d="M108.249 115.177V115.877H106.666V118.854H105.9V111.982H108.629V112.677H106.666V115.182H108.249V115.177Z" fill="white"/>
<path d="M110.481 111.972V118.844H109.715V111.972H110.481Z" fill="white"/>
<path d="M113.27 111.972C114.35 111.972 114.802 112.52 114.802 113.544V114.102C114.802 114.858 114.538 115.33 113.95 115.517C114.578 115.705 114.812 116.217 114.812 116.952V118.023C114.812 118.327 114.822 118.611 114.949 118.849H114.173C114.086 118.651 114.046 118.474 114.046 118.012V116.932C114.046 116.156 113.681 115.913 113.047 115.913H112.504V118.849H111.738V111.977H113.27V111.972ZM113.072 115.213C113.681 115.213 114.046 115.015 114.046 114.27V113.61C114.046 112.991 113.818 112.667 113.25 112.667H112.504V115.213H113.072Z" fill="white"/>
<path d="M118.616 118.839H117.881L116.74 113.367V118.844H116.07V111.972H117.14L118.271 117.46L119.362 111.972H120.432V118.844H119.707V113.316L118.616 118.834V118.839Z" fill="white"/>
<path d="M93.13 128.983H92.3946L91.2534 123.511V128.988H90.584V122.116H91.6541L92.7851 127.603L93.8755 122.116H94.9456V128.988H94.2204V123.46L93.13 128.978V128.983Z" fill="white"/>
<path d="M97.4263 126.528L95.9707 122.121H96.767L97.8371 125.499L98.9174 122.121H99.6426L98.1769 126.528V128.993H97.4212V126.528H97.4263Z" fill="white"/>
<path d="M102.6 123.779C102.6 122.73 103.122 122.05 104.172 122.05C105.222 122.05 105.754 122.73 105.754 123.779V127.335C105.754 128.374 105.232 129.064 104.172 129.064C103.112 129.064 102.6 128.374 102.6 127.335V123.779ZM103.355 127.375C103.355 128.004 103.619 128.369 104.172 128.369C104.725 128.369 104.988 128.004 104.988 127.375V123.744C104.988 123.125 104.735 122.75 104.172 122.75C103.609 122.75 103.355 123.125 103.355 123.744V127.375Z" fill="white"/>
<path d="M108.487 122.116C109.567 122.116 110.018 122.664 110.018 123.688V124.246C110.018 125.002 109.755 125.473 109.166 125.661C109.795 125.849 110.029 126.361 110.029 127.096V128.166C110.029 128.471 110.039 128.755 110.165 128.993H109.389C109.303 128.795 109.263 128.618 109.263 128.156V127.076C109.263 126.3 108.898 126.057 108.264 126.057H107.721V128.993H106.955V122.121H108.487V122.116ZM108.289 125.357C108.898 125.357 109.263 125.159 109.263 124.413V123.754C109.263 123.135 109.034 122.811 108.466 122.811H107.721V125.357H108.289Z" fill="white"/>
<path d="M112.904 122.116C113.974 122.116 114.466 122.765 114.466 123.825V127.294C114.466 128.344 113.974 128.993 112.904 128.993H111.291V122.121H112.904V122.116ZM112.894 128.293C113.441 128.293 113.71 127.948 113.71 127.319V123.784C113.71 123.156 113.446 122.811 112.884 122.811H112.057V128.288H112.894V128.293Z" fill="white"/>
<path d="M118.103 125.164V125.854H116.424V128.298H118.488V128.998H115.658V122.126H118.488V122.826H116.424V125.174H118.103V125.164Z" fill="white"/>
<path d="M121.198 122.116C122.278 122.116 122.729 122.664 122.729 123.688V124.246C122.729 125.002 122.466 125.473 121.877 125.661C122.506 125.849 122.739 126.361 122.739 127.096V128.166C122.739 128.471 122.75 128.755 122.876 128.993H122.1C122.014 128.795 121.974 128.618 121.974 128.156V127.076C121.974 126.3 121.608 126.057 120.975 126.057H120.432V128.993H119.666V122.121H121.198V122.116ZM121 125.357C121.608 125.357 121.974 125.159 121.974 124.413V123.754C121.974 123.135 121.745 122.811 121.177 122.811H120.432V125.357H121Z" fill="white"/>
<path d="M171.473 220.294C171.473 220.294 169.221 223.393 168.238 223.814C167.254 224.235 165.423 224.519 164.86 225.787C164.297 227.055 164.297 227.76 164.297 227.76H178.234C178.234 227.76 178.797 225.929 178.234 224.803C177.671 223.677 177.529 222.551 177.529 222.551L171.473 220.299V220.294Z" fill="white" stroke="#263238" stroke-width="0.507169" stroke-linecap="round" stroke-linejoin="round"/>
<path d="M178.472 226.35H164.632C164.302 227.258 164.297 227.76 164.297 227.76H178.234C178.234 227.76 178.432 227.111 178.472 226.35Z" fill="white" stroke="#263238" stroke-width="0.507169" stroke-linecap="round" stroke-linejoin="round"/>
<path d="M186.398 223.394L186.682 227.898H193.437C193.437 227.898 193.721 226.63 193.295 225.362C192.874 224.094 192.448 222.968 192.448 222.968L186.393 223.389L186.398 223.394Z" fill="white" stroke="#263238" stroke-width="0.507169" stroke-linecap="round" stroke-linejoin="round"/>
<path d="M186.676 227.897H193.432C193.432 227.897 193.599 227.137 193.477 226.208H186.564L186.671 227.897H186.676Z" fill="white" stroke="#263238" stroke-width="0.507169" stroke-linecap="round" stroke-linejoin="round"/>
<path d="M165.986 154.682C165.986 154.682 167.112 169.324 167.396 174.533C167.68 179.741 171.479 220.294 171.479 220.294C171.479 220.294 176.972 223.672 177.672 223.672C178.371 223.672 179.218 174.811 179.218 174.811L186.4 223.388C186.4 223.388 187.668 223.809 188.794 223.809C189.92 223.809 192.455 222.962 192.455 222.962L190.062 164.389V154.677C190.062 154.677 175.841 156.65 172.042 156.087C168.243 155.524 165.986 154.677 165.986 154.677V154.682Z" fill="#263238" stroke="#263238" stroke-width="0.507169" stroke-linecap="round" stroke-linejoin="round"/>
<path d="M183.158 163.552L180.059 165.946L179.217 174.812" stroke="#808080" stroke-width="0.507169" stroke-linecap="round" stroke-linejoin="round"/>
<path d="M184.436 95.1916C184.436 95.1916 178.695 94.4715 177.006 96.4342C175.322 98.3919 174.988 102.206 173.801 103.114C172.614 104.027 171.98 102.89 171.453 104.077C170.93 105.264 171.782 106.73 171.782 106.73C171.782 106.73 171.64 112.446 172.305 112.719C172.969 112.993 175.84 112.998 175.84 112.998L175.368 115.347L182.631 115.651L183.265 113.196C183.265 113.196 188.788 109.996 190.279 107.567C191.77 105.137 191.415 99.7511 189.924 97.8746C188.433 95.998 184.431 95.1967 184.431 95.1967L184.436 95.1916Z" fill="#B2B2B2" stroke="#263238" stroke-width="0.507169" stroke-linecap="round" stroke-linejoin="round"/>
<path d="M175.541 102.835C175.364 103.266 175.08 103.555 174.907 103.484C174.735 103.413 174.74 103.007 174.918 102.576C175.095 102.145 175.379 101.856 175.552 101.927C175.724 101.998 175.719 102.404 175.541 102.835Z" fill="#263238"/>
<path d="M172.365 107.648C172.365 107.648 173.461 108.195 174.115 107.12" stroke="#263238" stroke-width="0.507169" stroke-linecap="round" stroke-linejoin="round"/>
<path d="M175.602 100.831C175.602 100.831 176.342 100.431 176.423 101.653" stroke="#263238" stroke-width="0.507169" stroke-linecap="round" stroke-linejoin="round"/>
<path d="M189.93 97.8692C188.438 95.9927 184.437 95.1914 184.437 95.1914C184.437 95.1914 178.696 94.4712 177.007 96.434C177.007 96.434 180.182 95.6326 179.766 96.9868C179.35 98.3409 176.064 100.41 177.195 101.211C178.326 102.013 179.599 101.404 179.071 102.591C178.549 103.778 177.884 104.939 178.437 105.046C178.99 105.157 180.537 103.884 181.196 104.163C181.861 104.437 182.606 106.456 181.967 107.475C181.333 108.494 180.146 108.687 180.146 108.687C180.146 108.687 181.277 111.644 182.271 112.415C182.763 112.795 183.276 112.902 183.778 112.881C185.182 112.024 189.067 109.534 190.28 107.556C191.771 105.127 191.416 99.7407 189.925 97.8642L189.93 97.8692Z" fill="#263238" stroke="#263238" stroke-width="0.507169" stroke-linecap="round" stroke-linejoin="round"/>
<path d="M165.322 154.976L165.728 158.207C165.728 158.207 167.747 160.362 173.538 160.494C179.33 160.631 186.466 159.956 188.221 159.419C189.976 158.881 190.376 158.344 190.376 158.344L190.057 154.682C190.057 154.682 179.467 158.344 165.322 154.976Z" fill="white" stroke="#263238" stroke-width="0.507169" stroke-linecap="round" stroke-linejoin="round"/>
<path d="M191.277 162.948C191.277 162.948 190.836 164.597 190.74 165.094C190.638 165.591 190.938 169.166 190.938 169.663C190.938 170.16 191.435 170.657 191.83 170.257C191.83 170.257 192.327 172.042 192.921 171.946C193.514 171.844 195.401 169.76 195.801 167.974C196.197 166.189 195.7 163.308 195.7 163.308L191.277 162.953V162.948Z" fill="#B2B2B2" stroke="#263238" stroke-width="0.507169" stroke-linecap="round" stroke-linejoin="round"/>
<path d="M192.033 165.49C192.033 165.49 192.231 166.382 192.728 166.783L193.225 167.179L193.524 168.964C193.524 168.964 193.326 170.054 193.225 170.653" fill="#B2B2B2"/>
<path d="M192.033 165.49C192.033 165.49 192.231 166.382 192.728 166.783L193.225 167.179L193.524 168.964C193.524 168.964 193.326 170.054 193.225 170.653" stroke="#263238" stroke-width="0.507169" stroke-linecap="round" stroke-linejoin="round"/>
<path d="M191.83 170.257L191.932 167.671" stroke="#263238" stroke-width="0.507169" stroke-linecap="round" stroke-linejoin="round"/>
<path d="M191.273 160.737C191.273 160.737 191.298 162.203 191.273 162.948C191.252 163.694 192.733 164.916 194.625 164.439C196.512 163.963 196.547 160.265 196.547 160.265C196.547 160.265 193.94 162.188 191.268 160.742L191.273 160.737Z" fill="white" stroke="#263238" stroke-width="0.507169" stroke-linecap="round" stroke-linejoin="round"/>
<path d="M190.289 119.489C190.289 119.489 194.382 122.162 195.482 124.211C196.583 126.255 199.261 145.451 199.575 147.5C199.89 149.544 197.06 160.245 196.588 161.66C196.116 163.075 193.576 162.816 192.652 162.446C190.842 161.716 190.766 159.773 190.766 159.773L190.294 150.335V119.494L190.289 119.489Z" fill="#75A9C8" stroke="#263238" stroke-width="0.507169" stroke-linecap="round" stroke-linejoin="round"/>
<path d="M192.131 142.454C192.323 135.496 192.694 128.968 192.81 127.827C192.947 126.483 192.8 122.923 191.912 120.767C190.497 119.368 188.971 118.353 187.566 117.628C186.668 117.359 185.979 117.232 185.979 117.232L186.425 117.09C185.512 116.695 184.68 116.426 184.006 116.249C181.896 115.686 176.261 115.402 174.572 116.954C174.572 116.954 169.693 118.475 167.294 120.225C166.584 121.122 165.337 123.019 165.114 125.474C164.799 128.938 163.871 149.336 163.871 149.336C163.871 149.336 162.745 152.714 164.155 154.403C165.565 156.092 168.522 158.628 177.108 158.344C185.695 158.06 189.787 156.929 190.944 155.858C191.197 155.62 191.436 155.062 191.634 154.438C192.054 153.11 192.232 151.715 192.207 150.32C192.161 147.647 192.08 142.484 192.136 142.449L192.131 142.454Z" fill="#75A9C8" stroke="#263238" stroke-width="0.507169" stroke-linecap="round" stroke-linejoin="round"/>
<path d="M173.02 117.511C173.02 117.511 174.566 115.402 174.992 115.118C175.413 114.834 181.469 113.429 183.3 113.992C185.131 114.555 185.973 117.227 185.973 117.227C185.973 117.227 180.343 116.38 173.02 117.511Z" fill="white" stroke="#263238" stroke-width="0.507169" stroke-linecap="round" stroke-linejoin="round"/>
<path d="M139.273 123.937C139.273 123.937 138.411 122.01 137.899 120.986C137.386 119.961 133.542 117.06 132.776 116.117C132.01 115.173 131.067 115.605 130.981 116.457C130.895 117.309 131.747 118.252 132.005 118.592C132.259 118.932 132.857 119.789 132.857 119.789C132.857 119.789 130.636 121.239 130.469 121.665C130.296 122.091 130.808 123.8 130.981 124.399C131.153 124.997 131.407 125.596 131.833 125.596H132.259C132.259 125.596 133.025 126.194 133.537 126.534C134.049 126.874 135.804 126.854 135.804 126.854L137.036 127.559C137.036 127.559 137.65 125.089 139.263 123.932L139.273 123.937Z" fill="#B2B2B2" stroke="#263238" stroke-width="0.507169" stroke-linecap="round" stroke-linejoin="round"/>
<path d="M132.263 125.601C132.263 125.601 131.837 124.577 131.924 123.978L132.263 125.601Z" fill="white"/>
<path d="M132.263 125.601C132.263 125.601 131.837 124.577 131.924 123.978" stroke="#263238" stroke-width="0.507169" stroke-linecap="round" stroke-linejoin="round"/>
<path d="M141.728 125.119C141.728 125.119 140.085 124.358 139.269 123.937C138.452 123.516 136.297 124.505 135.81 126.858C135.323 129.212 139.416 131.24 139.416 131.24C139.416 131.24 138.685 127.31 141.728 125.119Z" fill="white" stroke="#263238" stroke-width="0.507169" stroke-linecap="round" stroke-linejoin="round"/>
<path d="M173.019 117.511C173.019 117.511 165.427 120.275 164.483 120.904C163.54 121.533 154.568 132.077 154.568 132.077C154.568 132.077 143.923 126.047 142.508 125.256C141.093 124.47 138.679 124.678 138.05 127.041C137.421 129.399 137.892 131.291 139.779 132.706C141.666 134.121 153.625 142.307 155.354 142.936C157.084 143.565 161.491 140.42 161.491 140.42L169.672 133.183" fill="#75A9C8"/>
<path d="M173.019 117.511C173.019 117.511 165.427 120.275 164.483 120.904C163.54 121.533 154.568 132.077 154.568 132.077C154.568 132.077 143.923 126.047 142.508 125.256C141.093 124.47 138.679 124.678 138.05 127.041C137.421 129.399 137.892 131.291 139.779 132.706C141.666 134.121 153.625 142.307 155.354 142.936C157.084 143.565 161.491 140.42 161.491 140.42L169.672 133.183" stroke="#263238" stroke-width="0.507169" stroke-linecap="round" stroke-linejoin="round"/>
<path d="M139.051 227.896H218.149" stroke="#263238" stroke-width="0.507169" stroke-linecap="round" stroke-linejoin="round"/>
<path d="M0.253906 227.896H135.354" stroke="#263238" stroke-width="0.507169" stroke-linecap="round" stroke-linejoin="round"/>
<path d="M195.336 30.3556L168.162 37.1872L177.945 42.4617L195.336 30.3556Z" fill="white" stroke="#263238" stroke-width="0.507169" stroke-linecap="round" stroke-linejoin="round"/>
<path d="M177.945 42.4617L178.782 50.0338L195.336 30.3556L177.945 42.4617Z" fill="#B2B2B2" stroke="#263238" stroke-width="0.507169" stroke-linecap="round" stroke-linejoin="round"/>
<path d="M180.923 43.9426L178.783 50.0338L195.337 30.3556L180.923 43.9426Z" fill="white" stroke="#263238" stroke-width="0.507169" stroke-linecap="round" stroke-linejoin="round"/>
<path d="M195.338 30.3556L180.924 43.9426L189.17 49.4911L195.338 30.3556Z" fill="white" stroke="#263238" stroke-width="0.507169" stroke-linecap="round" stroke-linejoin="round"/>
<path d="M59.6481 71.1624C59.3539 71.3246 59.0598 71.4869 58.7656 71.6543" stroke="#263238" stroke-width="0.507169" stroke-linecap="round" stroke-linejoin="round"/>
<path d="M56.985 72.659C47.8052 77.9133 36.1707 85.3687 25.292 94.6752C-3.26672 119.1 26.1897 136.628 68.7411 118.649C110.578 100.974 147.195 81.8489 174.334 53.0164" stroke="#263238" stroke-width="0.507169" stroke-linecap="round" stroke-linejoin="round"/>
<path d="M175.039 52.2701C175.267 52.0216 175.501 51.773 175.729 51.5245" stroke="#263238" stroke-width="0.507169" stroke-linecap="round" stroke-linejoin="round"/>
<path d="M137.564 44.7487C154.134 38.0997 180.075 18.8577 184.112 12.9746C203.38 -15.077 154.235 12.0211 154.235 12.0211" stroke="#263238" stroke-width="0.507169" stroke-linecap="round" stroke-linejoin="round"/>
</g>
<defs>
<clipPath id="clip0_176_2422">
<rect width="218.402" height="228.15" fill="white"/>
</clipPath>
</defs>
</svg>
