<svg width="304" height="213" viewBox="0 0 304 213" fill="none" xmlns="http://www.w3.org/2000/svg">
<g clip-path="url(#clip0_179_3570)">
<path d="M274.838 63.9371C267.953 44.8681 257.547 28.2439 242.176 18.9544C221.636 6.53803 197.289 6.2299 175.982 15.7467C163.828 21.177 153.049 30.2998 142.572 39.5995C133.262 47.8636 122.639 60.487 111.127 63.1542C95.5433 66.7659 58.7236 37.4678 31.1076 45.55C3.49156 53.6373 -4.51491 99.1 2.28933 127.388C9.09357 155.676 35.5074 155.676 45.1101 178.912C54.7128 202.149 89.1331 221.849 131.555 208.715C173.976 195.582 195.985 188.005 218.399 198.613C240.812 209.221 271.625 212.251 282.031 167.799C286.198 150.003 287.411 131.126 285.441 112.729C283.718 96.6096 280.44 79.4652 274.838 63.9422V63.9371Z" fill="#75A9C8"/>
<path opacity="0.7" d="M274.838 63.9371C267.953 44.8681 257.547 28.2439 242.176 18.9544C221.636 6.53803 197.289 6.2299 175.982 15.7467C163.828 21.177 153.049 30.2998 142.572 39.5995C133.262 47.8636 122.639 60.487 111.127 63.1542C95.5433 66.7659 58.7236 37.4678 31.1076 45.55C3.49156 53.6373 -4.51491 99.1 2.28933 127.388C9.09357 155.676 35.5074 155.676 45.1101 178.912C54.7128 202.149 89.1331 221.849 131.555 208.715C173.976 195.582 195.985 188.005 218.399 198.613C240.812 209.221 271.625 212.251 282.031 167.799C286.198 150.003 287.411 131.126 285.441 112.729C283.718 96.6096 280.44 79.4652 274.838 63.9422V63.9371Z" fill="white"/>
<path d="M5.92969 198.21H303.311" stroke="#263238" stroke-width="0.459678" stroke-miterlimit="10"/>
<path d="M114.595 24.4257L120.783 25.138L122.071 19.5057L116.302 17.5003C116.227 16.3233 115.984 15.1968 115.59 14.1411L119.849 9.8979L116.247 5.38194L111.241 8.54412C110.256 7.86218 109.17 7.32168 107.998 6.96303L107.351 1.12866H101.573L100.926 6.98324C99.7642 7.35199 98.6781 7.89754 97.7032 8.58453L92.7023 5.42741L89.1006 9.94336L93.3842 14.2118C93.0003 15.2675 92.7629 16.389 92.6972 17.5609L86.9336 19.5663L88.2217 25.1986L94.445 24.4864C95.0108 25.4007 95.6978 26.2291 96.4807 26.9514L94.3895 32.8919L99.5924 35.3974L102.977 29.9924C103.477 30.0581 103.987 30.0934 104.502 30.0934C105.018 30.0934 105.563 30.053 106.083 29.9873L109.453 35.3772L114.656 32.8717L112.559 26.9211C113.342 26.1887 114.029 25.3552 114.595 24.4358V24.4257ZM98.082 18.258C98.082 14.7119 100.956 11.8427 104.497 11.8427C108.038 11.8427 110.913 14.7169 110.913 18.258C110.913 21.799 108.038 24.6733 104.497 24.6733C100.956 24.6733 98.082 21.799 98.082 18.258Z" stroke="#263238" stroke-width="0.505141" stroke-miterlimit="10"/>
<path d="M291.243 108.747L295.229 109.207L296.057 105.58L292.344 104.287C292.294 103.529 292.137 102.802 291.885 102.125L294.628 99.3921L292.309 96.4825L289.081 98.5182C288.45 98.0788 287.748 97.7302 286.995 97.4979L286.581 93.7396H282.858L282.439 97.513C281.691 97.7504 280.989 98.099 280.363 98.5435L277.14 96.5128L274.821 99.4225L277.579 102.17C277.332 102.847 277.18 103.575 277.135 104.327L273.422 105.615L274.25 109.242L278.261 108.783C278.625 109.369 279.069 109.904 279.574 110.374L278.226 114.198L281.58 115.814L283.757 112.329C284.08 112.369 284.409 112.394 284.742 112.394C285.075 112.394 285.429 112.369 285.762 112.324L287.935 115.794L291.289 114.178L289.94 110.344C290.445 109.874 290.89 109.333 291.248 108.742L291.243 108.747ZM280.605 104.777C280.605 102.494 282.454 100.645 284.737 100.645C287.02 100.645 288.869 102.494 288.869 104.777C288.869 107.06 287.02 108.909 284.737 108.909C282.454 108.909 280.605 107.06 280.605 104.777Z" stroke="#263238" stroke-width="0.505141" stroke-miterlimit="10"/>
<path d="M270.002 47.338L272.503 47.6259L273.023 45.3477L270.689 44.5344C270.659 44.0596 270.558 43.605 270.401 43.1756L272.124 41.4581L270.669 39.6295L268.643 40.9075C268.244 40.6297 267.805 40.4125 267.335 40.266L267.072 37.907H264.734L264.471 40.2761C264.001 40.4226 263.562 40.6448 263.168 40.9227L261.147 39.6447L259.692 41.4733L261.425 43.2009C261.268 43.6252 261.172 44.0798 261.147 44.5546L258.818 45.3629L259.339 47.641L261.854 47.3531C262.082 47.7219 262.359 48.0553 262.678 48.3533L261.834 50.7527L263.94 51.768L265.309 49.5808C265.511 49.606 265.719 49.6212 265.926 49.6212C266.133 49.6212 266.355 49.606 266.562 49.5757L267.926 51.7529L270.032 50.7376L269.184 48.3331C269.502 48.035 269.78 47.7017 270.007 47.3279L270.002 47.338ZM263.324 44.8426C263.324 43.408 264.486 42.2461 265.921 42.2461C267.355 42.2461 268.517 43.408 268.517 44.8426C268.517 46.2772 267.355 47.439 265.921 47.439C264.486 47.439 263.324 46.2772 263.324 44.8426Z" stroke="#263238" stroke-width="0.505141" stroke-miterlimit="10"/>
<path d="M31.2932 132.263L33.7936 132.551L34.3139 130.273L31.9802 129.459C31.9499 128.985 31.8488 128.53 31.6922 128.101L33.4148 126.383L31.96 124.554L29.9344 125.832C29.5353 125.555 29.0958 125.337 28.626 125.191L28.3634 122.832H26.0246L25.7619 125.201C25.2921 125.348 24.8526 125.57 24.4586 125.848L22.4381 124.57L20.9833 126.398L22.7159 128.126C22.5593 128.55 22.4633 129.005 22.4381 129.48L20.1094 130.288L20.6297 132.566L23.1453 132.278C23.3726 132.647 23.6504 132.98 23.9686 133.278L23.1251 135.678L25.2315 136.693L26.6004 134.506C26.8025 134.531 27.0096 134.546 27.2167 134.546C27.4238 134.546 27.6461 134.531 27.8532 134.501L29.2171 136.678L31.3235 135.662L30.4749 133.258C30.7931 132.96 31.0709 132.627 31.2982 132.253L31.2932 132.263ZM24.6152 129.767C24.6152 128.333 25.7771 127.171 27.2116 127.171C28.6462 127.171 29.8081 128.333 29.8081 129.767C29.8081 131.202 28.6462 132.364 27.2116 132.364C25.7771 132.364 24.6152 131.202 24.6152 129.767Z" stroke="#263238" stroke-width="0.505141" stroke-miterlimit="10"/>
<g opacity="0.2">
<path d="M48.3529 93.1593C50.136 91.8863 52.5607 87.6229 52.5607 87.6179C52.586 87.5724 49.2621 86.8753 49.05 86.8501C46.5647 86.6177 41.6244 87.628 40.5232 90.1992C39.7301 92.048 40.8718 94.0281 42.7155 94.609C44.5997 95.2001 46.8324 94.2453 48.3529 93.1593Z" fill="black"/>
<path d="M74.7706 51.1208C74.8161 51.0956 72.4318 48.681 72.2651 48.5446C70.3203 46.9787 65.6427 45.0995 63.3039 46.6352C61.6218 47.7414 61.4854 50.0196 62.7028 51.5199C63.9455 53.0505 66.3398 53.4849 68.2038 53.4192C70.3911 53.3434 74.7706 51.1208 74.7706 51.1208Z" fill="black"/>
<path d="M67.0372 29.4206C65.3551 31.6533 66.9261 36.442 68.3607 38.4878C68.487 38.6646 70.7399 41.2004 70.7702 41.16C70.7702 41.16 70.7955 41.1196 70.8005 41.1095C71.043 41.8672 71.3107 42.6755 71.6239 43.5594C72.2099 45.1759 72.8918 47.0045 73.7606 48.9392C74.6295 50.8739 75.6246 52.9551 76.8723 55.0514C78.12 57.1528 79.5394 59.2996 81.2872 61.3252C81.3074 61.3505 81.3327 61.3707 81.3479 61.3909C80.6508 60.9565 78.6706 59.8149 78.5039 59.7441C76.2156 58.749 71.2046 58.1681 69.3558 60.2644C68.0222 61.7748 68.492 64.0126 70.0681 65.139C71.6744 66.2857 74.094 66.0736 75.8772 65.5179C77.8826 64.8915 81.2872 61.8556 81.555 61.6132C83.2371 63.5226 85.1213 65.3512 87.1267 67.0939C88.2733 68.0891 89.4604 69.0589 90.6576 70.0187C90.0464 69.6651 89.4958 69.3519 89.4099 69.3166C87.1216 68.3214 82.1106 67.7405 80.2618 69.8369C78.9282 71.3472 79.398 73.585 80.974 74.7115C82.5804 75.8581 85 75.646 86.7832 75.0903C88.5916 74.5246 91.5416 71.9938 92.3145 71.3119C92.7792 71.6756 93.2389 72.0393 93.7036 72.403C95.9363 74.1306 98.1791 75.848 100.321 77.5958C101.079 78.2121 101.796 78.8486 102.523 79.48C101.978 79.1668 101.518 78.9041 101.442 78.8738C99.1541 77.8787 94.1431 77.2978 92.2943 79.3941C90.9607 80.9045 91.4305 83.1423 93.0065 84.2687C94.6128 85.4154 97.0325 85.2032 98.8156 84.6476C100.538 84.1121 103.286 81.7986 104.205 80.9904C104.928 81.6622 105.65 82.329 106.322 83.0109C106.767 83.4858 107.231 83.9151 107.656 84.4152C108.085 84.9052 108.509 85.3901 108.929 85.87C109.701 86.8247 110.51 87.8047 111.242 88.7493C111.757 89.406 112.232 90.0425 112.717 90.6789C111.975 90.0576 110.489 88.8705 110.353 88.7847C108.949 87.9007 106.332 87.0217 104.104 87.052C103.897 86.9207 103.68 86.8045 103.453 86.7136C101.66 85.9963 99.5228 86.8045 98.9672 88.7443C98.1943 91.4316 101.387 95.3363 103.458 96.7305C103.579 96.8114 105.009 97.5539 105.913 98.0085C105.337 97.8216 104.781 97.6347 104.19 97.4529C103.018 97.0841 101.841 96.7457 100.574 96.382C99.9572 96.2254 99.3309 96.0688 98.6994 95.9122C98.0781 95.7405 97.4012 95.6394 96.7445 95.503C95.219 95.2101 93.6531 94.9878 92.077 94.8009C92.4003 93.7755 93.4914 90.1132 93.2742 88.2543C93.0621 86.4004 92.274 84.102 90.5717 83.1018C88.9048 82.1219 86.672 82.5967 85.8284 84.4304C84.6616 86.9712 87.2176 91.3154 89.0613 93.0026C89.1775 93.1087 90.6323 94.1695 91.4406 94.7403C90.4909 94.6342 89.5412 94.5231 88.5764 94.4473C85.7931 94.2301 82.9643 94.0937 80.1456 93.9472C79.2818 93.9017 78.4231 93.8462 77.5644 93.7957C77.6856 93.432 79.0747 89.108 78.8323 87.0268C78.6201 85.1729 77.8321 82.8745 76.1298 81.8744C74.4628 80.8944 72.2301 81.3692 71.3865 83.2029C70.2196 85.7437 72.7807 90.0879 74.6143 91.7751C74.7507 91.9014 76.8521 93.4269 77.4027 93.7906C75.5084 93.6744 73.6192 93.5431 71.7653 93.341C69.2043 93.0632 66.7089 92.6439 64.3145 92.063C64.3701 91.8913 65.84 87.3905 65.5976 85.2537C65.3854 83.3999 64.5974 81.1015 62.8951 80.1013C61.2281 79.1213 58.9954 79.5962 58.1518 81.4248C56.9849 83.9656 59.546 88.3098 61.3797 89.997C61.5009 90.1081 63.0971 91.275 63.87 91.8105C63.8346 91.8913 63.8397 91.8761 63.8043 91.957C61.2534 91.3003 58.859 90.3456 56.6667 89.3403C55.3937 88.7594 54.2117 88.1381 53.0751 87.5016C53.4338 86.6934 55.0401 82.9655 55.03 81.0207C55.0199 79.1567 54.4895 76.7825 52.9084 75.6005C51.3627 74.4437 49.0896 74.6711 48.049 76.3986C46.6093 78.793 48.6754 83.3948 50.3171 85.2739C50.408 85.375 51.4284 86.3145 52.1861 86.9864C51.6759 86.6934 51.1455 86.4004 50.6656 86.1074C48.8522 85.0163 47.261 83.9101 45.8567 82.9149C45.0636 82.3441 44.3564 81.8087 43.7048 81.3035C43.6442 80.3236 43.3461 76.3784 42.4571 74.6862C41.5882 73.0344 40.0274 71.1755 38.0775 70.8522C36.1681 70.539 34.2587 71.7867 34.1324 73.7972C33.9606 76.5855 37.9108 79.7174 40.2345 80.6267C40.4365 80.7075 43.7199 81.5763 43.7149 81.5258C43.7149 81.5258 43.7149 81.4803 43.7149 81.4652C44.3362 81.9653 45.008 82.4906 45.7506 83.0513C47.1347 84.0768 48.7057 85.2234 50.504 86.36C52.2972 87.4966 54.2723 88.6836 56.4697 89.7394C58.6721 90.8052 61.0362 91.8105 63.6124 92.5379C63.6427 92.548 63.673 92.553 63.7033 92.5581C62.885 92.5783 60.5967 92.7197 60.4249 92.75C57.9649 93.1794 53.4692 95.4626 53.0852 98.2308C52.8074 100.226 54.434 101.832 56.3636 101.903C58.3337 101.974 60.238 100.464 61.415 99.0188C62.7435 97.3872 63.9054 92.9773 63.9963 92.6288C66.4563 93.2956 69.0325 93.7805 71.6643 94.124C73.1696 94.3261 74.6952 94.4776 76.2207 94.614C75.5135 94.6544 74.8821 94.6999 74.7911 94.715C72.3311 95.1494 67.8353 97.4276 67.4514 100.196C67.1736 102.191 68.8002 103.797 70.7298 103.868C72.6998 103.939 74.6042 102.429 75.7812 100.984C76.9784 99.5189 78.0392 95.7758 78.312 94.7857C78.8979 94.8312 79.4839 94.8817 80.0698 94.9272C82.8885 95.1343 85.7022 95.3313 88.4552 95.6091C89.425 95.7051 90.3798 95.8364 91.3294 95.9678C90.7031 96.0082 90.1727 96.0435 90.0918 96.0587C87.6318 96.4881 83.1361 98.7713 82.7521 101.539C82.4743 103.535 84.1009 105.141 86.0305 105.212C88.0006 105.283 89.9049 103.772 91.0819 102.327C92.2235 100.928 93.2389 97.4832 93.5621 96.3062C94.532 96.4679 95.5069 96.6245 96.4414 96.8265C97.0779 96.9781 97.6992 97.0791 98.3256 97.266C98.952 97.4377 99.5733 97.6095 100.19 97.7762C101.362 98.1449 102.574 98.5137 103.71 98.9026C104.503 99.1653 105.251 99.433 106.004 99.6957C105.039 99.5896 103.145 99.4179 102.988 99.4179C100.493 99.4734 95.7039 101.044 94.9008 103.722C94.3249 105.651 95.6888 107.485 97.5881 107.849C99.5279 108.217 101.634 107.01 103.018 105.762C104.544 104.388 106.302 100.373 106.519 99.8725C107.767 100.317 108.979 100.762 110.111 101.196C114.01 102.686 117.208 104.075 119.44 105.086L120.415 103.459C120.365 103.439 120.319 103.419 120.264 103.393C117.976 102.418 114.692 101.075 110.686 99.6401C109.419 99.1855 108.06 98.7208 106.655 98.2611C106.711 97.9126 107.019 95.9375 107.075 94.0583C109.141 93.6239 112.581 91.4114 113.02 91.1235C113.818 92.1843 114.581 93.2198 115.288 94.2099C117.718 97.6044 119.617 100.524 120.926 102.6L121.991 100.817C120.658 98.8218 118.849 96.2052 116.622 93.2299C115.819 92.154 114.935 91.0174 114.02 89.8556C114.384 89.4616 117.344 86.2186 117.986 84.2637C118.567 82.4906 118.814 80.071 117.693 78.4495C116.592 76.8634 114.364 76.3582 112.833 77.6665C110.707 79.485 111.212 84.5011 112.177 86.8045C112.232 86.9409 113.015 88.3452 113.52 89.2241C113.141 88.7544 112.783 88.2896 112.389 87.8098C111.616 86.855 110.818 85.9256 109.964 84.9203C109.535 84.4506 109.1 83.9757 108.661 83.4959C108.236 83.0109 107.726 82.5512 107.257 82.0714C106.145 80.9853 104.963 79.9397 103.751 78.9092C104.584 78.2323 107.514 75.7824 108.363 74.1103C109.206 72.4484 109.818 70.0945 108.954 68.3214C108.105 66.5837 105.979 65.7503 104.266 66.8111C101.892 68.2861 101.629 73.3223 102.23 75.7419C102.266 75.8935 102.897 77.5807 103.256 78.5051C102.523 77.8938 101.791 77.2776 101.028 76.6815C98.8257 74.964 96.5425 73.292 94.2744 71.6149C93.5773 71.0997 92.8903 70.5794 92.2033 70.0642C92.5014 69.8267 96.0474 66.9879 96.9971 65.1188C97.8407 63.4569 98.4519 61.103 97.5881 59.3299C96.7395 57.5922 94.6128 56.7588 92.9004 57.8196C90.5263 59.2946 90.2636 64.3308 90.8647 66.7504C90.9102 66.9323 91.8144 69.362 92.077 69.9682C90.5616 68.8266 89.0563 67.6749 87.6217 66.4827C85.6416 64.836 83.7877 63.1134 82.1157 61.305C82.2571 61.1939 85.9699 58.2489 86.9398 56.3344C87.7833 54.6725 88.3946 52.3186 87.5308 50.5455C86.6821 48.8079 84.5555 47.9744 82.8431 49.0352C80.4689 50.5102 80.2062 55.5464 80.8074 57.9661C80.8478 58.1277 81.5348 59.9765 81.8833 60.8504C81.8075 60.8959 81.8227 60.8858 81.7469 60.9363C79.9789 58.9814 78.514 56.8648 77.236 54.819C76.4935 53.6319 75.8519 52.46 75.2559 51.3032C76.0035 50.8234 79.398 48.6058 80.4639 46.9792C81.4842 45.4184 82.3531 43.1452 81.6863 41.2914C81.0347 39.4729 79.0091 38.407 77.1956 39.2759C74.6699 40.4781 73.8617 45.4588 74.19 47.9289C74.2102 48.0653 74.5436 49.409 74.8012 50.3889C74.5386 49.8636 74.2607 49.3231 74.0183 48.818C73.109 46.9085 72.3917 45.1052 71.7704 43.5039C71.4269 42.5896 71.1289 41.7561 70.8611 40.9731C71.3511 40.1194 73.2808 36.6643 73.4727 34.7649C73.6596 32.9111 73.3818 30.4965 71.9371 29.1528C70.5176 27.8395 68.2344 27.8243 67.0221 29.4357L67.0372 29.4206Z" fill="black"/>
</g>
<g opacity="0.2">
<path d="M172.042 18.176C173.446 19.8531 177.891 21.9393 177.896 21.9393C177.942 21.9595 178.381 18.5953 178.386 18.378C178.421 15.8827 177.032 11.0384 174.38 10.1392C172.471 9.49263 170.592 10.7858 170.157 12.67C169.713 14.5945 170.844 16.7464 172.042 18.176Z" fill="black"/>
<path d="M216.011 41.235C216.036 41.2804 218.263 38.7143 218.385 38.5325C219.794 36.4715 221.304 31.6626 219.592 29.45C218.359 27.8589 216.071 27.8993 214.672 29.2328C213.242 30.5917 212.995 33.0113 213.207 34.8652C213.454 37.0423 216.011 41.2299 216.011 41.235Z" fill="black"/>
<path d="M237.043 31.8303C234.689 30.325 230.032 32.2648 228.107 33.8559C227.941 33.9923 225.587 36.4423 225.632 36.4625C225.632 36.4625 225.673 36.4827 225.688 36.4877C224.95 36.7908 224.162 37.1192 223.314 37.498C221.748 38.2103 219.98 39.0286 218.121 40.049C216.257 41.0643 214.261 42.2211 212.271 43.6254C210.271 45.0347 208.245 46.6158 206.361 48.5151C206.341 48.5353 206.321 48.5606 206.3 48.5808C206.679 47.8534 207.664 45.7874 207.725 45.6207C208.538 43.2617 208.725 38.2204 206.492 36.5433C204.881 35.336 202.689 35.9775 201.688 37.6293C200.668 39.3216 201.067 41.7159 201.764 43.4486C202.547 45.3984 205.841 48.5555 206.103 48.8031C204.33 50.6317 202.658 52.6472 201.077 54.7839C200.173 56.0064 199.299 57.2642 198.44 58.5321C198.749 57.8905 199.016 57.3197 199.047 57.2338C199.86 54.8748 200.047 49.8335 197.814 48.1565C196.203 46.9492 194.01 47.5907 193.01 49.2425C191.99 50.9347 192.389 53.3291 193.086 55.0617C193.788 56.8196 196.541 59.5625 197.284 60.2798C196.96 60.7698 196.627 61.2598 196.309 61.7498C194.758 64.1139 193.222 66.4779 191.646 68.7511C191.091 69.5542 190.515 70.322 189.939 71.0949C190.212 70.5292 190.434 70.0442 190.459 69.9684C191.272 67.6094 191.459 62.5681 189.227 60.8911C187.615 59.6838 185.423 60.3253 184.423 61.9771C183.402 63.6643 183.806 66.0637 184.499 67.7963C185.17 69.4734 187.691 72.0294 188.565 72.8831C187.954 73.656 187.342 74.4288 186.716 75.1512C186.277 75.6311 185.888 76.1261 185.418 76.5908C184.963 77.0556 184.514 77.5152 184.069 77.9749C183.18 78.8236 182.266 79.7025 181.377 80.5057C180.766 81.0714 180.169 81.5968 179.568 82.1272C180.129 81.3341 181.2 79.7631 181.271 79.6217C182.044 78.1517 182.715 75.4795 182.508 73.2569C182.624 73.0397 182.72 72.8174 182.791 72.58C183.367 70.7363 182.392 68.6702 180.417 68.2661C177.679 67.7054 174.032 71.1909 172.81 73.368C172.739 73.4943 172.107 74.9744 171.729 75.919C171.87 75.333 172.011 74.7622 172.148 74.1561C172.426 72.9589 172.668 71.7566 172.936 70.4635C173.042 69.8371 173.148 69.2006 173.259 68.5591C173.38 67.9277 173.426 67.2407 173.517 66.5739C173.689 65.0282 173.79 63.4521 173.85 61.866C174.896 62.1085 178.634 62.9116 180.473 62.5479C182.301 62.1893 184.534 61.2245 185.398 59.4514C186.246 57.7137 185.595 55.5265 183.705 54.8294C181.084 53.8646 176.952 56.754 175.411 58.719C175.315 58.8402 174.37 60.3758 173.865 61.2295C173.896 60.2748 173.931 59.3201 173.931 58.3502C173.931 55.5568 173.845 52.728 173.774 49.9093C173.749 49.0455 173.739 48.1817 173.724 47.323C174.098 47.4139 178.513 48.4646 180.574 48.0605C182.402 47.7018 184.635 46.737 185.499 44.964C186.347 43.2263 185.696 41.039 183.806 40.3419C181.185 39.3771 177.053 42.2665 175.512 44.2315C175.396 44.378 174.037 46.5905 173.719 47.1664C173.683 45.2671 173.668 43.3728 173.729 41.5088C173.81 38.9326 174.027 36.412 174.421 33.9822C174.593 34.0226 179.2 35.139 181.311 34.7298C183.14 34.3712 185.372 33.4064 186.236 31.6333C187.085 29.8956 186.433 27.7084 184.544 27.0113C181.922 26.0465 177.79 28.9359 176.25 30.9009C176.149 31.0322 175.113 32.7143 174.638 33.5226C174.557 33.4922 174.573 33.4973 174.487 33.467C174.941 30.8706 175.704 28.4105 176.538 26.1475C177.017 24.8341 177.548 23.6066 178.088 22.4246C178.927 22.7226 182.761 24.031 184.701 23.8693C186.56 23.7127 188.883 23.0005 189.939 21.3335C190.974 19.7019 190.565 17.449 188.767 16.5498C186.267 15.3021 181.841 17.7218 180.094 19.5049C179.998 19.6009 179.144 20.697 178.528 21.5002C178.78 20.9698 179.033 20.4192 179.285 19.9141C180.23 18.0248 181.21 16.3478 182.094 14.8728C182.604 14.0393 183.079 13.2917 183.529 12.5996C184.499 12.4632 188.413 11.8571 190.03 10.8367C191.606 9.84157 193.344 8.13924 193.51 6.17425C193.677 4.24966 192.278 2.44126 190.267 2.47157C187.474 2.51703 184.66 6.70464 183.933 9.08891C183.872 9.29602 183.256 12.635 183.306 12.6299C183.306 12.6299 183.352 12.6249 183.367 12.6198C182.917 13.2765 182.443 13.9888 181.943 14.7717C181.028 16.2316 180.008 17.8885 179.018 19.7676C178.023 21.6416 176.997 23.7077 176.113 25.9808C175.224 28.259 174.401 30.6988 173.886 33.3205C173.88 33.3508 173.875 33.3811 173.87 33.4114C173.785 32.5981 173.466 30.3301 173.421 30.1583C172.799 27.7387 170.173 23.4349 167.384 23.2682C165.374 23.147 163.899 24.8948 163.98 26.8244C164.061 28.7944 165.717 30.5725 167.253 31.6384C168.981 32.8356 173.471 33.6488 173.825 33.7095C173.355 36.215 173.072 38.8215 172.931 41.4735C172.85 42.9889 172.815 44.5195 172.799 46.0551C172.704 45.3529 172.613 44.7266 172.587 44.6407C171.966 42.2211 169.339 37.9173 166.551 37.7506C164.54 37.6293 163.065 39.3771 163.146 41.3068C163.227 43.2768 164.884 45.06 166.42 46.1208C167.975 47.1967 171.784 47.9696 172.799 48.1565C172.799 48.7475 172.794 49.3335 172.799 49.9245C172.81 52.7482 172.835 55.5719 172.774 58.3351C172.754 59.31 172.698 60.2697 172.643 61.2295C172.557 60.6082 172.476 60.0828 172.456 60.002C171.835 57.5824 169.208 53.2786 166.42 53.1119C164.409 52.9907 162.934 54.7385 163.015 56.6681C163.096 58.6381 164.753 60.4162 166.288 61.4821C167.773 62.5126 171.284 63.2501 172.486 63.4824C172.4 64.4624 172.32 65.4474 172.193 66.392C172.092 67.0386 172.042 67.665 171.905 68.3065C171.784 68.943 171.663 69.5795 171.542 70.2059C171.269 71.403 170.991 72.6406 170.693 73.8025C170.491 74.6107 170.284 75.3785 170.082 76.1514C170.112 75.1815 170.137 73.2822 170.122 73.1205C169.875 70.6352 167.93 65.9829 165.197 65.3969C163.227 64.9726 161.505 66.4779 161.292 68.3975C161.075 70.3574 162.444 72.3679 163.798 73.6509C165.288 75.0603 169.425 76.505 169.945 76.6818C169.602 77.9598 169.253 79.2024 168.905 80.3693C167.723 84.3751 166.586 87.6686 165.758 89.9771L167.455 90.8206C167.475 90.7651 167.49 90.7196 167.506 90.664C168.299 88.3101 169.385 84.9307 170.496 80.8189C170.85 79.5207 171.203 78.1265 171.557 76.6919C171.905 76.7222 173.901 76.8737 175.78 76.7828C176.371 78.8084 178.846 82.0615 179.169 82.4808C178.174 83.3597 177.199 84.1982 176.27 84.9812C173.077 87.6686 170.309 89.7902 168.344 91.2601L170.208 92.1845C172.092 90.6994 174.557 88.694 177.351 86.239C178.361 85.355 179.427 84.3852 180.508 83.385C180.932 83.7184 184.392 86.4158 186.393 86.9007C188.206 87.3402 190.636 87.4008 192.167 86.1531C193.662 84.9307 193.99 82.6677 192.566 81.2432C190.591 79.2681 185.625 80.1622 183.407 81.2987C183.276 81.3644 181.937 82.2535 181.099 82.8293C181.538 82.4151 181.973 82.0211 182.417 81.5917C183.311 80.7481 184.175 79.8793 185.11 78.9498C185.544 78.4851 185.984 78.0153 186.428 77.5405C186.878 77.0808 187.297 76.5353 187.736 76.0301C188.732 74.8329 189.686 73.5751 190.616 72.287C191.358 73.065 194.031 75.7978 195.758 76.51C197.481 77.2223 199.875 77.6466 201.577 76.6464C203.244 75.6664 203.911 73.4792 202.719 71.8577C201.062 69.6047 196.026 69.7361 193.657 70.5241C193.51 70.5746 191.874 71.3323 190.985 71.7617C191.54 70.9838 192.096 70.2059 192.626 69.3976C194.167 67.0689 195.657 64.6645 197.152 62.2701C197.612 61.5376 198.077 60.8102 198.536 60.0828C198.799 60.3607 201.901 63.6744 203.84 64.4776C205.563 65.1898 207.957 65.6141 209.66 64.6139C211.327 63.634 211.988 61.4467 210.796 59.8252C209.139 57.5723 204.103 57.7036 201.734 58.4916C201.557 58.5523 199.203 59.6434 198.617 59.9515C199.638 58.3502 200.668 56.7641 201.744 55.2385C203.229 53.1321 204.805 51.152 206.472 49.3436C206.593 49.4749 209.821 52.9452 211.806 53.7635C213.529 54.4758 215.923 54.9001 217.626 53.8999C219.293 52.9199 219.959 50.7327 218.767 49.1112C217.11 46.8583 212.074 46.9896 209.705 47.7776C209.548 47.8281 207.755 48.6616 206.912 49.0758C206.861 49.0051 206.871 49.0203 206.816 48.9445C208.624 47.03 210.619 45.4035 212.564 43.9739C213.686 43.1404 214.807 42.413 215.913 41.726C216.449 42.4332 218.924 45.6459 220.631 46.5804C222.268 47.4745 224.597 48.1615 226.4 47.3533C228.163 46.5602 229.067 44.4639 228.057 42.7161C226.658 40.2965 221.636 39.8722 219.197 40.3975C219.065 40.4278 217.747 40.8673 216.792 41.2007C217.297 40.8976 217.813 40.5743 218.297 40.2965C220.131 39.2407 221.869 38.3871 223.42 37.6394C224.304 37.2252 225.112 36.8666 225.87 36.5382C226.759 36.9575 230.35 38.6144 232.265 38.6548C234.129 38.6952 236.513 38.2305 237.74 36.6847C238.938 35.1693 238.771 32.8911 237.074 31.8051L237.043 31.8303Z" fill="black"/>
</g>
<g opacity="0.2">
<path d="M126.972 184.632C125.603 182.924 121.208 180.742 121.203 180.737C121.158 180.717 120.642 184.071 120.637 184.288C120.546 186.783 121.829 191.658 124.456 192.613C126.35 193.3 128.26 192.047 128.735 190.178C129.22 188.264 128.139 186.086 126.972 184.632Z" fill="black"/>
<path d="M83.5249 160.602C83.4997 160.556 81.2164 163.072 81.0952 163.249C79.6404 165.279 78.024 170.053 79.6859 172.301C80.8831 173.917 83.1713 173.927 84.6009 172.629C86.0607 171.301 86.3588 168.886 86.1921 167.032C85.9951 164.85 83.53 160.607 83.53 160.602H83.5249Z" fill="black"/>
<path d="M62.2946 169.537C64.6182 171.093 69.311 169.255 71.2709 167.709C71.4376 167.572 73.8471 165.178 73.8017 165.158C73.8017 165.158 73.7613 165.138 73.7511 165.133C74.4937 164.85 75.2868 164.537 76.1506 164.173C77.7317 163.496 79.5199 162.718 81.399 161.738C83.2831 160.763 85.3037 159.652 87.3243 158.288C89.3549 156.924 91.4159 155.388 93.3405 153.53C93.3607 153.509 93.3809 153.484 93.4062 153.464C93.0122 154.181 91.9817 156.227 91.9211 156.394C91.0522 158.732 90.7542 163.769 92.9515 165.496C94.5377 166.739 96.7401 166.148 97.7756 164.516C98.8314 162.849 98.4828 160.445 97.8312 158.697C97.0937 156.727 93.8709 153.504 93.6133 153.247C95.4267 151.458 97.1442 149.478 98.7708 147.377C99.7002 146.175 100.604 144.937 101.493 143.684C101.175 144.316 100.892 144.882 100.862 144.967C99.9932 147.311 99.6952 152.342 101.893 154.07C103.479 155.313 105.681 154.722 106.717 153.09C107.772 151.423 107.424 149.019 106.772 147.271C106.11 145.498 103.413 142.694 102.691 141.962C103.024 141.477 103.368 140.997 103.701 140.512C105.302 138.183 106.888 135.855 108.515 133.617C109.086 132.829 109.682 132.071 110.273 131.313C109.99 131.874 109.753 132.349 109.727 132.425C108.858 134.769 108.56 139.8 110.758 141.527C112.339 142.77 114.546 142.179 115.582 140.547C116.638 138.88 116.289 136.476 115.637 134.728C115.006 133.036 112.541 130.424 111.687 129.551C112.314 128.793 112.945 128.03 113.587 127.323C114.036 126.848 114.435 126.363 114.915 125.913C115.38 125.459 115.839 125.009 116.294 124.56C117.203 123.731 118.133 122.873 119.042 122.09C119.668 121.539 120.275 121.029 120.886 120.508C120.305 121.286 119.204 122.837 119.128 122.974C118.325 124.423 117.592 127.085 117.749 129.308C117.628 129.52 117.527 129.742 117.451 129.975C116.835 131.808 117.764 133.895 119.729 134.339C122.457 134.961 126.175 131.556 127.448 129.409C127.523 129.283 128.185 127.818 128.584 126.883C128.433 127.469 128.276 128.03 128.124 128.636C127.821 129.823 127.549 131.02 127.256 132.309C127.134 132.935 127.013 133.566 126.892 134.203C126.756 134.834 126.695 135.516 126.589 136.178C126.382 137.719 126.25 139.295 126.149 140.881C125.109 140.618 121.391 139.729 119.547 140.052C117.708 140.371 115.456 141.285 114.551 143.038C113.667 144.755 114.268 146.958 116.143 147.7C118.744 148.726 122.937 145.927 124.523 143.998C124.624 143.876 125.604 142.366 126.124 141.522C126.074 142.477 126.013 143.432 125.993 144.397C125.932 147.19 125.952 150.019 125.962 152.843C125.962 153.706 125.962 154.57 125.957 155.429C125.589 155.333 121.194 154.181 119.128 154.54C117.289 154.858 115.036 155.772 114.132 157.525C113.248 159.243 113.849 161.445 115.723 162.188C118.325 163.213 122.517 160.415 124.104 158.485C124.225 158.338 125.629 156.161 125.962 155.591C125.952 157.49 125.927 159.384 125.826 161.248C125.69 163.819 125.412 166.34 124.967 168.754C124.796 168.709 120.214 167.492 118.097 167.855C116.259 168.174 114.006 169.088 113.102 170.841C112.218 172.558 112.819 174.761 114.693 175.503C117.294 176.529 121.487 173.73 123.073 171.8C123.179 171.674 124.25 170.012 124.745 169.214C124.826 169.244 124.811 169.239 124.892 169.275C124.381 171.861 123.563 174.301 122.679 176.549C122.174 177.852 121.613 179.064 121.042 180.236C120.214 179.923 116.405 178.529 114.46 178.645C112.602 178.761 110.258 179.423 109.167 181.065C108.096 182.676 108.454 184.934 110.232 185.874C112.708 187.177 117.183 184.858 118.966 183.111C119.062 183.015 119.941 181.944 120.573 181.151C120.31 181.676 120.042 182.222 119.78 182.717C118.795 184.586 117.774 186.237 116.86 187.692C116.334 188.516 115.839 189.248 115.375 189.93C114.4 190.046 110.475 190.566 108.838 191.546C107.237 192.506 105.469 194.168 105.257 196.133C105.05 198.053 106.403 199.896 108.419 199.906C111.212 199.922 114.117 195.8 114.9 193.431C114.966 193.223 115.653 189.9 115.602 189.905C115.602 189.905 115.557 189.91 115.541 189.91C116.006 189.263 116.496 188.561 117.011 187.788C117.961 186.349 119.017 184.717 120.047 182.858C121.083 181.004 122.154 178.963 123.088 176.71C124.028 174.452 124.902 172.033 125.483 169.421C125.488 169.391 125.493 169.361 125.498 169.33C125.563 170.149 125.831 172.422 125.872 172.594C126.442 175.023 128.968 179.388 131.756 179.615C133.762 179.782 135.277 178.069 135.242 176.135C135.201 174.159 133.585 172.346 132.08 171.25C130.377 170.012 125.912 169.103 125.553 169.032C126.079 166.542 126.422 163.94 126.619 161.288C126.735 159.773 126.801 158.242 126.852 156.712C126.932 157.414 127.013 158.045 127.033 158.131C127.604 160.561 130.13 164.925 132.918 165.153C134.924 165.32 136.439 163.607 136.404 161.672C136.368 159.697 134.747 157.884 133.242 156.788C131.711 155.676 127.917 154.823 126.912 154.611C126.927 154.02 126.942 153.434 126.953 152.848C127.003 150.024 127.043 147.2 127.165 144.437C127.205 143.462 127.286 142.507 127.362 141.548C127.437 142.174 127.503 142.699 127.518 142.78C128.089 145.21 130.615 149.574 133.403 149.802C135.409 149.968 136.924 148.256 136.889 146.321C136.853 144.346 135.232 142.533 133.726 141.436C132.267 140.376 128.771 139.557 127.574 139.3C127.68 138.32 127.786 137.34 127.933 136.395C128.049 135.754 128.114 135.127 128.266 134.486C128.402 133.849 128.539 133.223 128.67 132.596C128.973 131.404 129.276 130.177 129.599 129.02C129.817 128.217 130.044 127.454 130.266 126.686C130.211 127.656 130.145 129.556 130.16 129.717C130.352 132.208 132.191 136.9 134.914 137.552C136.873 138.017 138.626 136.557 138.884 134.637C139.147 132.682 137.823 130.642 136.495 129.328C135.035 127.884 130.933 126.348 130.418 126.161C130.792 124.888 131.165 123.656 131.539 122.499C132.807 118.518 134.014 115.25 134.898 112.962L133.221 112.083C133.201 112.133 133.186 112.184 133.166 112.234C132.322 114.573 131.16 117.927 129.958 122.009C129.574 123.297 129.19 124.681 128.806 126.11C128.458 126.075 126.468 125.878 124.588 125.924C124.043 123.888 121.638 120.574 121.325 120.15C122.336 119.296 123.331 118.473 124.28 117.715C127.533 115.098 130.347 113.037 132.342 111.618L130.499 110.653C128.579 112.098 126.074 114.048 123.225 116.437C122.194 117.301 121.108 118.245 120.002 119.22C119.588 118.877 116.183 116.104 114.198 115.573C112.394 115.093 109.97 114.977 108.409 116.195C106.883 117.382 106.51 119.635 107.899 121.089C109.833 123.11 114.814 122.327 117.057 121.236C117.188 121.17 118.547 120.311 119.401 119.756C118.951 120.16 118.512 120.544 118.052 120.963C117.143 121.786 116.259 122.635 115.304 123.544C114.859 123.999 114.41 124.459 113.955 124.923C113.496 125.373 113.066 125.908 112.612 126.409C111.591 127.58 110.611 128.818 109.651 130.086C108.929 129.293 106.318 126.505 104.6 125.752C102.893 125.004 100.508 124.524 98.7859 125.489C97.0987 126.434 96.3865 128.601 97.5382 130.253C99.1446 132.541 104.186 132.521 106.57 131.783C106.717 131.738 108.373 131.015 109.273 130.601C108.702 131.369 108.131 132.132 107.575 132.925C105.984 135.218 104.438 137.592 102.893 139.951C102.418 140.674 101.938 141.391 101.458 142.108C101.206 141.82 98.1747 138.441 96.2501 137.597C94.5427 136.85 92.1585 136.37 90.4359 137.335C88.7488 138.279 88.0365 140.446 89.1933 142.098C90.7996 144.386 95.8409 144.366 98.2252 143.629C98.4071 143.573 100.781 142.533 101.372 142.24C100.316 143.821 99.2506 145.382 98.1393 146.882C96.6037 148.953 94.9873 150.898 93.2799 152.671C93.1637 152.539 90.0116 148.993 88.0466 148.13C86.3392 147.382 83.955 146.902 82.2325 147.867C80.5453 148.812 79.833 150.979 80.9848 152.63C82.5911 154.919 87.6324 154.898 90.0167 154.161C90.1733 154.11 91.9817 153.322 92.8354 152.923C92.8859 152.994 92.8758 152.984 92.9263 153.055C91.0724 154.929 89.0417 156.51 87.0717 157.899C85.9301 158.707 84.7935 159.409 83.6721 160.076C83.1518 159.354 80.7473 156.091 79.0602 155.121C77.4437 154.191 75.1302 153.449 73.3117 154.217C71.5336 154.969 70.5839 157.05 71.5487 158.813C72.8924 161.263 77.9085 161.799 80.3584 161.329C80.4897 161.304 81.8182 160.894 82.7831 160.581C82.2729 160.874 81.7526 161.182 81.2575 161.45C79.4037 162.465 77.6407 163.284 76.0798 163.991C75.1857 164.385 74.3725 164.728 73.6047 165.042C72.7257 164.602 69.1695 162.87 67.2601 162.784C65.3961 162.703 63.0018 163.112 61.744 164.633C60.5114 166.123 60.6276 168.401 62.2996 169.527L62.2946 169.537Z" fill="black"/>
</g>
<path d="M48.3938 152.374C49.2576 152.753 51.3641 152.702 51.3641 152.702C51.3843 152.702 50.9094 151.323 50.869 151.237C50.4043 150.268 48.9444 148.671 47.7523 148.833C46.8936 148.949 46.4187 149.808 46.6107 150.616C46.8077 151.439 47.6563 152.051 48.3888 152.374H48.3938Z" fill="#263238"/>
<path d="M49.1206 158.48C50.0147 158.612 51.8938 158.066 52.0454 158.021C52.3434 159.076 52.7323 160.132 53.187 161.178C53.4446 161.779 53.7275 162.37 54.0103 162.966C53.8386 162.713 53.682 162.491 53.6568 162.461C52.9546 161.648 51.1209 160.496 50.0147 160.966C49.2166 161.304 48.9842 162.259 49.3833 162.986C49.7924 163.729 50.7673 164.098 51.5604 164.214C52.3636 164.33 53.98 163.901 54.4044 163.779C54.5155 164.007 54.6266 164.234 54.7428 164.461C55.2884 165.547 55.8339 166.628 56.339 167.704C56.5158 168.083 56.6775 168.462 56.8442 168.841C56.6926 168.619 56.5613 168.432 56.5361 168.406C55.8339 167.593 54.0002 166.441 52.894 166.911C52.0959 167.25 51.8635 168.204 52.2626 168.932C52.6717 169.674 53.6466 170.043 54.4397 170.159C55.2075 170.27 56.6977 169.886 57.2079 169.745C57.3645 170.139 57.5211 170.533 57.6524 170.922C57.7383 171.19 57.8393 171.442 57.905 171.715C57.9808 171.983 58.0565 172.25 58.1272 172.513C58.2485 173.028 58.3798 173.554 58.4859 174.059C58.5617 174.407 58.6324 174.741 58.6981 175.079C58.5263 174.7 58.1727 173.963 58.1323 173.907C57.5615 172.998 55.9248 171.579 54.763 171.877C53.9245 172.089 53.5507 172.998 53.8336 173.776C54.1265 174.574 55.0358 175.084 55.8036 175.317C56.6472 175.574 58.5162 175.337 58.7486 175.307C58.8597 175.862 58.9658 176.408 59.0517 176.923C59.2537 178.06 59.4052 179.075 59.5164 179.939H60.3044C60.168 179.05 59.9862 177.984 59.7487 176.792C59.6376 176.226 59.5063 175.62 59.3699 175.004C59.5113 174.948 60.3044 174.625 61.0116 174.231C61.6279 174.897 63.2039 175.675 63.406 175.776C63.1938 176.302 62.9766 176.812 62.7695 177.292C62.3351 178.292 61.9208 179.181 61.5571 179.939H62.4108C62.724 179.242 63.0675 178.449 63.4312 177.57C63.6535 177.034 63.8757 176.458 64.098 175.867C64.3253 175.913 66.1741 176.292 67.0329 176.095C67.8158 175.918 68.7605 175.478 69.109 174.705C69.4525 173.948 69.1444 173.018 68.326 172.74C67.1895 172.357 65.4518 173.65 64.8153 174.514C64.7799 174.564 64.4314 175.16 64.2192 175.544C64.3102 175.302 64.4011 175.064 64.492 174.817C64.6739 174.322 64.8406 173.821 65.0224 173.286C65.1032 173.023 65.179 172.761 65.2598 172.493C65.3457 172.23 65.4013 171.942 65.472 171.659C65.6286 171.008 65.7498 170.341 65.8609 169.669C66.2954 169.826 67.8461 170.366 68.6493 170.311C69.4474 170.255 70.4527 169.962 70.9124 169.25C71.367 168.553 71.2053 167.588 70.4325 167.189C69.3666 166.638 67.4521 167.654 66.6894 168.411C66.6439 168.457 66.159 169.063 65.8963 169.402C65.962 168.997 66.0276 168.593 66.0782 168.179C66.2246 166.987 66.3408 165.78 66.457 164.572C66.4924 164.204 66.5328 163.835 66.5732 163.466C66.7247 163.522 68.5533 164.204 69.4525 164.143C70.2506 164.087 71.2558 163.794 71.7155 163.082C72.1701 162.385 72.0085 161.42 71.2356 161.021C70.1698 160.471 68.2553 161.486 67.4925 162.244C67.437 162.299 66.7399 163.173 66.5732 163.4C66.6591 162.587 66.75 161.784 66.8763 160.991C67.048 159.9 67.2703 158.834 67.5683 157.819C67.639 157.844 69.5434 158.566 70.4628 158.501C71.2609 158.445 72.2661 158.152 72.7258 157.44C73.1804 156.743 73.0188 155.778 72.2459 155.379C71.1801 154.828 69.2656 155.844 68.5028 156.601C68.4422 156.662 67.6946 157.596 67.5734 157.778C67.5936 157.718 67.6037 157.652 67.6239 157.591C67.9522 156.51 68.4069 155.51 68.8817 154.591C69.1545 154.055 69.4474 153.56 69.7404 153.085C70.0839 153.257 71.6499 154.015 72.4833 154.05C73.2815 154.081 74.3119 153.899 74.8524 153.247C75.3778 152.606 75.3273 151.626 74.6049 151.146C73.6047 150.479 71.5892 151.282 70.7507 151.949C70.7052 151.984 70.2809 152.409 69.9778 152.717C70.1142 152.505 70.2506 152.282 70.382 152.08C70.882 151.323 71.3922 150.661 71.8469 150.08C72.1095 149.752 72.3469 149.459 72.5793 149.186C72.9986 149.181 74.7009 149.125 75.4435 148.777C76.1658 148.438 76.9993 147.802 77.171 146.973C77.3428 146.16 76.8427 145.316 75.984 145.225C74.7918 145.099 73.3724 146.731 72.9329 147.711C72.8976 147.797 72.4581 149.186 72.4783 149.186C72.4783 149.186 72.4985 149.186 72.5035 149.186C72.2762 149.443 72.0388 149.721 71.7812 150.029C71.3114 150.605 70.7911 151.257 70.2708 152.004C69.7505 152.752 69.1999 153.575 68.7049 154.5C68.2048 155.424 67.7249 156.419 67.3663 157.51C67.3663 157.521 67.3612 157.536 67.3562 157.551C67.3612 157.197 67.3461 156.212 67.336 156.142C67.1996 155.076 66.3055 153.106 65.1234 152.883C64.2748 152.727 63.5525 153.394 63.4868 154.222C63.4161 155.066 64.0323 155.914 64.6284 156.445C65.3002 157.046 67.1743 157.627 67.3208 157.677C66.9874 158.718 66.7298 159.814 66.5328 160.94C66.4166 161.582 66.3206 162.234 66.2347 162.885C66.2347 162.582 66.2246 162.309 66.2196 162.269C66.0832 161.203 65.1891 159.233 64.0071 159.011C63.1584 158.854 62.4361 159.521 62.3704 160.349C62.2997 161.193 62.916 162.042 63.512 162.572C64.1182 163.112 65.7043 163.643 66.1236 163.774C66.0933 164.027 66.058 164.274 66.0276 164.527C65.8812 165.734 65.7448 166.936 65.573 168.113C65.5124 168.528 65.4366 168.932 65.3659 169.341C65.3659 169.073 65.3558 168.841 65.3507 168.81C65.2144 167.745 64.3203 165.775 63.1382 165.552C62.2896 165.396 61.5673 166.063 61.4965 166.891C61.4258 167.735 62.0421 168.583 62.6381 169.114C63.214 169.629 64.6739 170.134 65.174 170.296C65.0881 170.71 64.9972 171.124 64.8961 171.523C64.8204 171.791 64.7648 172.059 64.6739 172.326C64.588 172.594 64.5021 172.857 64.4213 173.114C64.2394 173.609 64.0576 174.125 63.8707 174.604C63.7444 174.938 63.6131 175.256 63.4868 175.574C63.5525 175.16 63.6636 174.352 63.6636 174.286C63.6787 173.574 63.4262 172.417 62.921 171.604C62.921 171.498 62.921 171.392 62.9008 171.291C62.7695 170.472 61.9966 169.861 61.1631 170.083C60.0013 170.392 59.2689 172.427 59.2133 173.498C59.2133 173.564 59.2537 174.251 59.284 174.685C59.2234 174.433 59.1729 174.185 59.1072 173.928C58.986 173.412 58.8496 172.907 58.7031 172.357C58.6223 172.094 58.5415 171.831 58.4606 171.564C58.3849 171.296 58.2737 171.023 58.1778 170.75C57.9504 170.124 57.6827 169.497 57.4049 168.876C57.8545 168.77 59.4457 168.361 60.0821 167.871C60.7186 167.381 61.3905 166.588 61.3854 165.739C61.3803 164.911 60.7085 164.188 59.8498 164.284C58.6576 164.416 57.6171 166.315 57.4049 167.366C57.3897 167.431 57.319 168.204 57.2887 168.629C57.117 168.255 56.9503 167.881 56.7634 167.507C56.2279 166.431 55.6571 165.36 55.0863 164.289C54.9146 163.961 54.7428 163.633 54.5711 163.304C54.7327 163.269 56.632 162.825 57.3443 162.279C57.9808 161.794 58.6526 160.996 58.6475 160.147C58.6425 159.319 57.9706 158.597 57.1119 158.693C55.9198 158.824 54.8842 160.723 54.667 161.774C54.6519 161.855 54.5509 162.961 54.5407 163.244C54.1669 162.521 53.7982 161.794 53.4648 161.067C53.0051 160.061 52.6061 159.051 52.2929 158.041C52.3686 158.026 54.3538 157.571 55.0863 157.01C55.7228 156.52 56.3946 155.727 56.3896 154.879C56.3845 154.05 55.7127 153.328 54.8539 153.424C53.6618 153.555 52.6263 155.455 52.4091 156.505C52.3939 156.586 52.2828 157.783 52.2828 158C52.2626 157.94 52.2373 157.879 52.2222 157.819C51.9039 156.738 51.7271 155.647 51.616 154.621C51.5503 154.025 51.52 153.449 51.4998 152.894C51.8787 152.848 53.6062 152.616 54.3185 152.186C55.0055 151.772 55.7632 151.055 55.8491 150.211C55.9349 149.388 55.349 148.6 54.4852 148.595C53.2829 148.595 52.0454 150.368 51.717 151.388C51.6968 151.444 51.5806 152.03 51.4948 152.454C51.4948 152.201 51.4796 151.939 51.4846 151.701C51.4846 150.792 51.5453 149.964 51.6008 149.226C51.6362 148.807 51.6766 148.428 51.717 148.08C52.0656 147.842 53.4547 146.862 53.879 146.16C54.2983 145.478 54.6367 144.488 54.3235 143.7C54.0205 142.927 53.1365 142.498 52.3686 142.897C51.3028 143.447 51.0199 145.594 51.1967 146.655C51.2119 146.746 51.616 148.15 51.6311 148.135C51.6311 148.135 51.6463 148.125 51.6513 148.12C51.6059 148.458 51.5604 148.822 51.515 149.221C51.4392 149.959 51.3685 150.792 51.3432 151.701C51.318 152.611 51.318 153.601 51.4139 154.646C51.5049 155.692 51.6564 156.788 51.9595 157.894C51.9595 157.905 51.9696 157.92 51.9696 157.93C51.7827 157.632 51.222 156.818 51.1765 156.763C50.4744 155.95 48.6407 154.798 47.5395 155.268C46.7414 155.606 46.509 156.561 46.9081 157.288C47.3172 158.031 48.2922 158.4 49.0852 158.516L49.1206 158.48Z" fill="#263238"/>
<path d="M69.7152 152.838C69.7152 152.838 70.0991 151.439 70.1092 151.343C70.2557 150.282 69.9173 148.14 68.8363 147.62C68.0584 147.241 67.1845 147.696 66.9016 148.479C66.6137 149.277 66.9774 150.252 67.4168 150.924C67.927 151.712 69.7102 152.838 69.7152 152.838Z" fill="#263238"/>
<path d="M66.9834 198.208H55.4611L54.0215 178.523H68.423L66.9834 198.208Z" fill="white" stroke="#263238" stroke-width="0.505141" stroke-linecap="round" stroke-linejoin="round"/>
<path d="M54.2832 180.868L54.4246 182.11H68.023L68.1594 180.868H54.2832Z" fill="#263238"/>
<path d="M67.7134 184.839L67.8498 183.597H54.5898L54.7313 184.839H67.7134Z" fill="#263238"/>
<path d="M154.007 20.8585H146.98V34.9065H154.007V20.8585Z" fill="white" stroke="#263238" stroke-width="0.505141" stroke-miterlimit="10"/>
<path d="M154.007 20.8585H146.98V27.0819H154.007V20.8585Z" fill="#263238" stroke="#263238" stroke-width="0.505141" stroke-miterlimit="10"/>
<path d="M159.69 15.5101H141.293V25.5473H159.69V15.5101Z" fill="#75A9C8" stroke="#263238" stroke-width="0.505141" stroke-miterlimit="10"/>
<path d="M143.824 15.9905V22.8553" stroke="#263238" stroke-width="0.505141" stroke-miterlimit="10"/>
<path d="M147.102 19.1121V22.2338" stroke="#263238" stroke-width="0.505141" stroke-miterlimit="10"/>
<path d="M149.91 25.0418V17.7072" stroke="#263238" stroke-width="0.505141" stroke-miterlimit="10"/>
<path d="M206.628 42.9119L202.918 39.3513L195.793 46.7755L199.504 50.3361L206.628 42.9119Z" fill="white" stroke="#263238" stroke-width="0.505141" stroke-miterlimit="10"/>
<path d="M206.628 42.9127L202.918 39.3522L199.763 42.6397L203.473 46.2002L206.628 42.9127Z" fill="#263238" stroke="#263238" stroke-width="0.505141" stroke-miterlimit="10"/>
<path d="M212.349 42.9659L202.629 33.6379L197.54 38.941L207.26 48.269L212.349 42.9659Z" fill="#75A9C8" stroke="#263238" stroke-width="0.505141" stroke-miterlimit="10"/>
<path d="M203.719 35.179L200.238 38.8059" stroke="#263238" stroke-width="0.505141" stroke-miterlimit="10"/>
<path d="M203.868 38.4871L202.287 40.1389" stroke="#263238" stroke-width="0.505141" stroke-miterlimit="10"/>
<path d="M202.344 43.0446L206.062 39.1702" stroke="#263238" stroke-width="0.505141" stroke-miterlimit="10"/>
<path d="M204.58 160.578C234.452 130.706 234.452 82.2729 204.58 52.4004C174.707 22.5278 126.274 22.5278 96.4015 52.4004C66.529 82.2729 66.529 130.706 96.4015 160.578C126.274 190.451 174.707 190.451 204.58 160.578Z" fill="#263238" stroke="#263238" stroke-width="0.505141" stroke-miterlimit="10"/>
<path d="M200.142 156.142C227.564 128.72 227.564 84.2591 200.142 56.8366C172.719 29.4142 128.259 29.4142 100.836 56.8366C73.4139 84.2591 73.4139 128.72 100.836 156.142C128.259 183.565 172.719 183.565 200.142 156.142Z" fill="white"/>
<path opacity="0.2" d="M216.977 128.899C221.725 115.053 221.897 100.742 218.3 87.6189C200.489 85.8358 177.111 89.1141 151.652 106.496C124.44 125.07 96.6017 118.427 80.5332 111.568C82.6497 138.633 100.456 163.173 127.769 172.543C164.452 185.126 204.389 165.587 216.972 128.904L216.977 128.899Z" fill="black"/>
<path d="M142.156 121.948C134.852 130.666 126.855 135.996 126.855 135.996C126.855 135.996 130.705 127.191 138.009 118.472C145.313 109.754 153.31 104.424 153.31 104.424C153.31 104.424 149.461 113.229 142.156 121.948Z" fill="#75A9C8" stroke="#263238" stroke-width="0.505141" stroke-miterlimit="10"/>
<path d="M131.412 91.7256C120.496 81.1934 113.793 70.4288 113.793 70.4288C113.793 70.4288 124.79 76.738 135.711 87.2702C146.627 97.8024 153.33 108.567 153.33 108.567C153.33 108.567 142.333 102.258 131.412 91.7256Z" fill="#75A9C8" stroke="#263238" stroke-width="0.505141" stroke-miterlimit="10"/>
<path d="M154.494 109.335C156.065 107.765 156.065 105.219 154.494 103.648C152.924 102.078 150.378 102.078 148.808 103.648C147.238 105.219 147.238 107.765 148.808 109.335C150.378 110.905 152.924 110.905 154.494 109.335Z" fill="#263238" stroke="#263238" stroke-width="0.505141" stroke-miterlimit="10"/>
<path d="M150.268 40.4637V51.7789" stroke="#263238" stroke-width="0.505141" stroke-miterlimit="10"/>
<path d="M150.268 163.348V174.669" stroke="#263238" stroke-width="0.505141" stroke-miterlimit="10"/>
<path d="M217.369 107.569H206.049" stroke="#263238" stroke-width="0.505141" stroke-miterlimit="10"/>
<path d="M94.4792 107.569H83.1641" stroke="#263238" stroke-width="0.505141" stroke-miterlimit="10"/>
<path d="M208.041 73.4348L198.297 79.1884" stroke="#263238" stroke-width="0.505141" stroke-miterlimit="10"/>
<path d="M102.24 135.942L92.4961 141.7" stroke="#263238" stroke-width="0.505141" stroke-miterlimit="10"/>
<path d="M181.569 48.2129L176.285 58.2248" stroke="#263238" stroke-width="0.505141" stroke-miterlimit="10"/>
<path d="M124.242 156.909L118.963 166.921" stroke="#263238" stroke-width="0.505141" stroke-miterlimit="10"/>
<path d="M92.4961 73.4348L102.24 79.1884" stroke="#263238" stroke-width="0.505141" stroke-miterlimit="10"/>
<path d="M198.297 135.942L208.041 141.7" stroke="#263238" stroke-width="0.505141" stroke-miterlimit="10"/>
<path d="M118.963 48.2129L124.242 58.2248" stroke="#263238" stroke-width="0.505141" stroke-miterlimit="10"/>
<path d="M176.285 156.909L181.569 166.921" stroke="#263238" stroke-width="0.505141" stroke-miterlimit="10"/>
<path d="M186.607 188.545C186.653 188.924 176.787 189.01 176.641 189.409C176.494 189.808 176.939 190.333 176.939 190.333C176.939 190.333 181.798 193.415 182.824 193.965C183.844 194.516 186.057 194.551 187.087 195.198C188.123 195.844 189.532 196.451 189.931 196.597C190.33 196.744 190.356 196.93 191.452 195.652C192.553 194.374 192.497 191.409 192.442 190.934C192.386 190.46 186.607 188.54 186.607 188.54V188.545Z" fill="white" stroke="#263238" stroke-width="0.505141" stroke-miterlimit="10"/>
<path d="M210.964 133.884L208.383 137.248C208.383 137.248 191.996 153.988 191.733 155.842C191.466 157.696 186.611 188.545 186.611 188.545L192.335 191.621L201.447 162.768L216.687 149.816L217.571 150.003L226.947 171.709C226.947 171.709 227.917 171.789 228.189 171.663C228.462 171.537 259.786 162.727 259.786 162.727L258.821 158.524L233.271 160.05L229.937 140.415C229.937 140.415 229.882 134.96 228.659 131.838L210.969 133.879L210.964 133.884Z" fill="#263238" stroke="#263238" stroke-width="0.505141" stroke-miterlimit="10"/>
<path d="M217.839 98.7667L215.182 99.8426L214.369 103.581L215.859 102.353C215.859 102.353 212.919 108.445 212.005 111.33C211.091 114.214 209.681 126.075 209.54 129.828C209.398 133.581 209.55 134.91 212.348 135.066C215.147 135.223 223.871 134.404 225.755 134.091C227.634 133.778 228.973 133.717 229.574 131.444C230.175 129.171 230.074 128.317 230.165 127.444C230.256 126.57 232.428 110.501 232.029 106.233C231.63 101.964 230.741 100.055 229.038 97.7564C227.336 95.458 226.523 94.9125 226.523 94.9125L217.844 98.7616L217.839 98.7667Z" fill="#75A9C8" stroke="#263238" stroke-width="0.505141" stroke-miterlimit="10"/>
<path d="M216.355 74.7613C216.355 74.7613 213.658 78.5549 213.607 79.6056C213.556 80.6563 213.496 82.4041 212.647 83.374C211.804 84.3439 209.914 85.344 210.606 86.0462C211.298 86.7483 212.228 87.2535 212.228 87.2535C212.228 87.2535 212.066 94.1486 212.955 94.3103C213.844 94.4669 218.759 93.2899 218.759 93.2899L219.123 97.9473L226.523 94.9164L226.251 91.8149C226.251 91.8149 231.923 85.1521 231.873 82.4597C231.822 79.7673 231.363 77.2921 228.231 75.0442C225.099 72.7963 225.902 73.746 221.74 71.6143C217.577 69.4826 215.501 71.1142 215.38 72.3468C215.259 73.5793 216.355 74.7613 216.355 74.7613Z" fill="white" stroke="#263238" stroke-width="0.505141" stroke-miterlimit="10"/>
<path d="M228.225 75.0442C225.094 72.7963 225.897 73.746 221.734 71.6143C217.572 69.4826 215.496 71.1142 215.375 72.3468C215.253 73.5793 216.35 74.7613 216.35 74.7613C216.35 74.7613 218.552 74.2461 219.183 74.433C219.815 74.6199 221.436 75.8272 221.224 76.2869C221.012 76.7465 219.345 77.3729 220.173 78.4994C221.002 79.6208 222.548 80.227 222.346 81.4696C222.138 82.7122 220.921 83.4649 221.689 84.0711C222.457 84.6772 222.76 84.2933 223.255 84.066C223.75 83.8337 225.791 83.4245 225.154 85.4147C224.518 87.405 223.073 87.7434 223.073 87.7434C223.073 87.7434 224.063 91.0269 225.821 91.1683C226.109 91.1936 226.462 91.1531 226.846 91.0824C228.306 89.2791 231.908 84.6065 231.867 82.4597C231.817 79.7673 231.357 77.2921 228.225 75.0442Z" fill="#263238" stroke="#263238" stroke-width="0.505141" stroke-miterlimit="10"/>
<path d="M215.663 83.0201C215.592 83.5202 215.375 83.9092 215.173 83.8789C214.971 83.8486 214.87 83.4192 214.94 82.9191C215.011 82.419 215.228 82.0301 215.43 82.0604C215.627 82.0907 215.734 82.5201 215.663 83.0201Z" fill="#263238"/>
<path d="M214.541 80.192C214.541 80.192 216.198 78.6967 217.072 80.2475" stroke="#263238" stroke-width="0.505141" stroke-miterlimit="10"/>
<path d="M218.754 93.2907L222.068 92.5582L218.875 95.1041L218.754 93.2907Z" fill="#263238" stroke="#263238" stroke-width="0.505141" stroke-miterlimit="10"/>
<path d="M226.291 93.093C226.019 93.2193 217.037 98.4778 217.037 98.4778L217.214 102.484L228.226 95.745L226.291 93.093Z" fill="#75A9C8" stroke="#263238" stroke-width="0.505141" stroke-miterlimit="10"/>
<path d="M185.404 103.475L205.787 100.642L207.843 115.937L210.399 115.644L212.354 135.072L190.779 139.194C190.779 139.194 188.344 123.08 188.39 119.337H186.667L185.409 103.48L185.404 103.475Z" fill="white" stroke="#263238" stroke-width="0.505141" stroke-miterlimit="10"/>
<path d="M190.385 102.612L213.045 99.6117L212.975 94.4996L190.031 96.2272L190.385 102.612Z" fill="#263238" stroke="#263238" stroke-width="0.505141" stroke-miterlimit="10"/>
<path d="M204.693 96.1585L191.922 97.6339L192.327 101.136L205.097 99.6611L204.693 96.1585Z" fill="white" stroke="#263238" stroke-width="0.505141" stroke-miterlimit="10"/>
<path d="M210.465 97.1755C210.536 97.7766 210.101 98.3222 209.505 98.3878C208.904 98.4586 208.358 98.0241 208.293 97.4281C208.222 96.827 208.656 96.2814 209.252 96.2157C209.849 96.1501 210.399 96.5794 210.465 97.1755Z" stroke="#263238" stroke-width="0.505141" stroke-miterlimit="10"/>
<path d="M186.344 106.622L197.346 104.778" stroke="#263238" stroke-width="0.505141" stroke-miterlimit="10"/>
<path d="M191.814 107.528L201.579 105.73" stroke="#263238" stroke-width="0.505141" stroke-miterlimit="10"/>
<path d="M204.51 107.88L200.762 108.602" stroke="#263238" stroke-width="0.505141" stroke-miterlimit="10"/>
<path d="M186.814 114.048L198.968 112.164" stroke="#263238" stroke-width="0.505141" stroke-miterlimit="10"/>
<path d="M191.906 111.638L197.372 110.815" stroke="#263238" stroke-width="0.505141" stroke-miterlimit="10"/>
<path d="M199.887 111.866L201.579 111.573" stroke="#263238" stroke-width="0.505141" stroke-miterlimit="10"/>
<path d="M189.506 115.75L200.447 114.2" stroke="#263238" stroke-width="0.505141" stroke-miterlimit="10"/>
<path d="M205.509 114.861L198.422 115.775" stroke="#263238" stroke-width="0.505141" stroke-miterlimit="10"/>
<path d="M189.105 118.959L206.755 116.539" stroke="#263238" stroke-width="0.505141" stroke-miterlimit="10"/>
<path d="M194.445 120.357L202.088 119.281" stroke="#263238" stroke-width="0.505141" stroke-miterlimit="10"/>
<path d="M189.641 123.595L202.012 121.973" stroke="#263238" stroke-width="0.505141" stroke-miterlimit="10"/>
<path d="M203.352 121.918L205.514 121.569" stroke="#263238" stroke-width="0.505141" stroke-miterlimit="10"/>
<path d="M190.748 126.535L196.795 125.742" stroke="#263238" stroke-width="0.505141" stroke-miterlimit="10"/>
<path d="M195.367 128.302L201.303 127.423" stroke="#263238" stroke-width="0.505141" stroke-miterlimit="10"/>
<path d="M209.317 132.92L205.746 133.527" stroke="#263238" stroke-width="0.505141" stroke-miterlimit="10"/>
<path d="M191.254 133.38L194.659 132.986" stroke="#263238" stroke-width="0.505141" stroke-miterlimit="10"/>
<path d="M193.662 131.853L196.122 131.57" stroke="#263238" stroke-width="0.505141" stroke-miterlimit="10"/>
<path d="M207.322 123.084L195.598 135.273C195.598 135.273 192.89 136.738 192.683 137.43C192.476 138.127 191.314 141.324 191.355 141.703C191.4 142.082 192.188 142.279 192.84 142.107C193.491 141.936 194.224 141.658 194.224 141.658C194.224 141.658 195.234 142.118 196.381 142.082C197.527 142.047 198.942 141.021 199.255 140.41C199.568 139.799 201.008 137.334 201.008 137.334L201.907 135.985L211.419 127.024L207.322 123.089V123.084Z" fill="white" stroke="#263238" stroke-width="0.505141" stroke-miterlimit="10"/>
<path d="M217.557 121.231C217.557 121.231 225.295 121.009 227.311 120.201" stroke="#263238" stroke-width="0.505141" stroke-miterlimit="10"/>
<path d="M216.602 122.111C216.602 122.111 223.022 126.258 227.513 126.122" stroke="#263238" stroke-width="0.505141" stroke-miterlimit="10"/>
<path d="M224.543 102.02C224.543 102.02 223.123 102.182 221.062 104.243C219.001 106.304 208.08 122.135 208.08 122.135L211.424 127.019C211.424 127.019 229.412 113.436 229.73 112.057C230.049 110.678 229.963 109.92 229.331 107.789" fill="#75A9C8"/>
<path d="M224.543 102.02C224.543 102.02 223.123 102.182 221.062 104.243C219.001 106.304 208.08 122.135 208.08 122.135L211.424 127.019C211.424 127.019 229.412 113.436 229.73 112.057C230.049 110.678 229.963 109.92 229.331 107.789" stroke="#263238" stroke-width="0.505141" stroke-miterlimit="10"/>
<path d="M229.725 112.063C229.725 112.063 217.384 118.089 213.717 118.705" stroke="#263238" stroke-width="0.505141" stroke-miterlimit="10"/>
<path d="M218.815 115.528L211.611 117.892" stroke="#263238" stroke-width="0.505141" stroke-miterlimit="10"/>
<path d="M206.635 122.974C206.635 122.974 210.625 128.455 210.898 128.328C211.171 128.202 213.591 125.909 213.591 125.909L209.514 119.67L206.635 122.974Z" fill="#75A9C8" stroke="#263238" stroke-width="0.505141" stroke-miterlimit="10"/>
<path d="M258.812 158.525L264.065 157.535C264.065 157.535 264.606 158.05 264.828 159.171C265.055 160.298 266.672 167.683 266.727 168.153C266.783 168.627 266.975 169.466 266.692 169.501C266.409 169.532 265.808 169.314 265.277 168.895C264.752 168.476 260.762 162.995 260.762 162.995L259.771 162.727L258.807 158.525H258.812Z" fill="white" stroke="#263238" stroke-width="0.505141" stroke-miterlimit="10"/>
</g>
<defs>
<clipPath id="clip0_179_3570">
<rect width="303.312" height="212.058" fill="white" transform="translate(0 0.870972)"/>
</clipPath>
</defs>
</svg>
