<svg width="281" height="254" viewBox="0 0 281 254" fill="none" xmlns="http://www.w3.org/2000/svg">
<g clip-path="url(#clip0_291_6469)">
<path d="M66.2891 243.558C81.1164 259.209 117.519 253.479 133.289 243.558C184.468 211.359 274.174 157.754 278.239 80.0993C279.966 47.0896 250.858 29.7617 238.701 24.6789C209.499 12.4652 177.457 8.80233 145.835 7.3887C112.807 5.91225 77.3782 7.062 47.6292 23.1773C36.3642 29.2842 25.7337 37.1062 18.452 47.7932C11.0572 58.6499 6.81001 71.5736 5.67911 84.6229C3.85711 105.67 9.52417 126.774 18.0876 146.087C26.651 165.401 38.0668 183.281 48.5528 201.627C55.3884 213.596 53.8052 230.364 66.2953 243.552L66.2891 243.558Z" fill="#75A9C8"/>
<path opacity="0.7" d="M66.2891 243.558C81.1164 259.209 117.519 253.479 133.289 243.558C184.468 211.359 274.174 157.754 278.239 80.0993C279.966 47.0896 250.858 29.7617 238.701 24.6789C209.499 12.4652 177.457 8.80233 145.835 7.3887C112.807 5.91225 77.3782 7.062 47.6292 23.1773C36.3642 29.2842 25.7337 37.1062 18.452 47.7932C11.0572 58.6499 6.81001 71.5736 5.67911 84.6229C3.85711 105.67 9.52417 126.774 18.0876 146.087C26.651 165.401 38.0668 183.281 48.5528 201.627C55.3884 213.596 53.8052 230.364 66.2953 243.552L66.2891 243.558Z" fill="white"/>
<path d="M195.525 206.031C195.701 151.773 195.701 91.4586 195.525 37.5649" stroke="#263238" stroke-width="0.628278" stroke-linecap="round" stroke-linejoin="round"/>
<path d="M205.615 20.7896C205.76 80.7775 205.76 133.553 205.615 193.528" stroke="#263238" stroke-width="0.628278" stroke-linecap="round" stroke-linejoin="round"/>
<path d="M195.525 24.6977V2.70801C195.525 2.70801 197.329 1.80957 200.57 1.80957C204.12 1.80957 205.616 2.70801 205.616 2.70801V8.82115" stroke="#263238" stroke-width="0.628278" stroke-linecap="round" stroke-linejoin="round"/>
<path d="M258.807 1.80322L260.874 2.64511L247.579 13.9541L205.617 20.7898L203.625 20.1992" stroke="#263238" stroke-width="0.628278" stroke-linecap="round" stroke-linejoin="round"/>
<path d="M203.625 9.26064L244.224 0.313965L258.807 1.80298L246.272 13.024L203.625 20.199V9.26064Z" stroke="#263238" stroke-width="0.628278" stroke-linecap="round" stroke-linejoin="round"/>
<path d="M162.78 17.5288L161.084 18.5529L171.394 30.8546L195.526 37.5646L198.102 36.9237" stroke="#263238" stroke-width="0.628278" stroke-linecap="round" stroke-linejoin="round"/>
<path d="M198.103 25.6904L173.06 16.04L162.781 17.5291L173.387 30.1889L198.103 36.924V25.6904Z" stroke="#263238" stroke-width="0.628278" stroke-linecap="round" stroke-linejoin="round"/>
<path d="M117.338 32.7144V246.926" stroke="#263238" stroke-width="0.628278" stroke-linecap="round" stroke-linejoin="round"/>
<path d="M58.5059 16.4233C78.2149 21.0914 97.6915 28.0025 117.338 32.7083" stroke="#263238" stroke-width="0.628278" stroke-linecap="round" stroke-linejoin="round"/>
<path d="M35.623 28.4863C62.5071 34.9199 90.1513 41.8309 117.331 48.7169" stroke="#263238" stroke-width="0.628278" stroke-linecap="round" stroke-linejoin="round"/>
<path d="M18.0391 43.0371C50.5713 50.6204 83.87 57.5315 117.338 64.7127" stroke="#263238" stroke-width="0.628278" stroke-linecap="round" stroke-linejoin="round"/>
<path d="M7.99219 60.0449C44.2941 66.956 80.7342 73.867 117.338 80.709" stroke="#263238" stroke-width="0.628278" stroke-linecap="round" stroke-linejoin="round"/>
<path d="M0.314453 78.0259L117.337 96.7171" stroke="#263238" stroke-width="0.628278" stroke-linecap="round" stroke-linejoin="round"/>
<path d="M0.314453 97.4526L117.337 112.713" stroke="#263238" stroke-width="0.628278" stroke-linecap="round" stroke-linejoin="round"/>
<path d="M3.04102 117.155C41.1523 120.359 78.849 125.386 117.337 128.716" stroke="#263238" stroke-width="0.628278" stroke-linecap="round" stroke-linejoin="round"/>
<path d="M8.44336 136.89C38.0101 139.208 67.5392 140.465 97.6965 143.606C103.979 143.606 110.89 143.606 117.336 144.712" stroke="#263238" stroke-width="0.628278" stroke-linecap="round" stroke-linejoin="round"/>
<path d="M15.7637 156.391C49.9483 158.056 83.247 159.941 117.337 160.714" stroke="#263238" stroke-width="0.628278" stroke-linecap="round" stroke-linejoin="round"/>
<path d="M24.9121 175.491C55.6035 175.654 86.3891 176.282 117.338 176.716" stroke="#263238" stroke-width="0.628278" stroke-linecap="round" stroke-linejoin="round"/>
<path d="M35.5742 194.025C62.5085 193.868 90.1527 193.24 117.338 192.718" stroke="#263238" stroke-width="0.628278" stroke-linecap="round" stroke-linejoin="round"/>
<path d="M44.9043 212C68.7977 210.838 93.3005 209.581 117.338 208.72" stroke="#263238" stroke-width="0.628278" stroke-linecap="round" stroke-linejoin="round"/>
<path d="M109.943 40.7061V227.066" stroke="#263238" stroke-width="0.628278" stroke-linecap="round" stroke-linejoin="round"/>
<path d="M74.7656 24.5659V140.351" stroke="#263238" stroke-width="0.628278" stroke-linecap="round" stroke-linejoin="round"/>
<path d="M34.7441 40.1909V168.146" stroke="#263238" stroke-width="0.628278" stroke-linecap="round" stroke-linejoin="round"/>
<path d="M275.89 44.8149L214.426 51.9145V196.004" stroke="#263238" stroke-width="0.628278" stroke-linecap="round" stroke-linejoin="round"/>
<path d="M280.255 63.3179L222.592 68.0991V183.218" stroke="#263238" stroke-width="0.628278" stroke-linecap="round" stroke-linejoin="round"/>
<path d="M280.256 91.3955L224.258 95.3914" stroke="#263238" stroke-width="0.628278" stroke-linecap="round" stroke-linejoin="round"/>
<path d="M271.968 115.811L225.902 118.807" stroke="#263238" stroke-width="0.628278" stroke-linecap="round" stroke-linejoin="round"/>
<path d="M245.154 70.543V158.917" stroke="#263238" stroke-width="0.628278" stroke-linecap="round" stroke-linejoin="round"/>
<path d="M59.209 233.116C60.9242 236.735 63.1671 240.26 66.296 243.558C81.1233 259.209 118.16 253.479 133.924 243.558C139.107 240.297 144.052 236.817 149.895 233.116" stroke="#263238" stroke-width="0.628278" stroke-linecap="round" stroke-linejoin="round"/>
<path d="M206.955 126.742L201.188 149.241L211.246 207.778L211.171 207.796L210.932 207.847C206.654 208.783 160.563 218.81 158.308 218.622C155.939 218.427 118.908 212.728 118.908 212.728L86.1374 216.561L59.8565 204.969L35.5673 209.254L28.6562 123.513C28.6562 123.513 33.7956 81.5755 31.427 70.2916C31.427 70.2916 71.8755 76.0969 75.6074 76.499C79.3394 76.9011 122.816 63.1606 122.816 63.1606L159.514 75.3178L190.256 71.4351L235.749 92.7337C235.749 92.7337 206.226 122.162 206.968 126.749L206.955 126.742Z" fill="white" stroke="#263238" stroke-width="0.628278" stroke-linecap="round" stroke-linejoin="round"/>
<path d="M36.1512 73.9672L75.6008 79.5212L122.219 68.0488L159.507 78.4845L188.766 75.318L229.284 92.7276C229.284 92.7276 206.213 121.314 205.328 123.143C204.442 124.965 197.047 149.247 197.047 149.247L206.804 204.976L159.501 215.386L119.712 209.016L88.1789 211.793L61.3703 200.289L39.1041 204.969L31.8789 124.795C31.8789 124.795 38.5135 92.1684 36.1512 73.9609V73.9672Z" fill="#75A9C8" stroke="#263238" stroke-width="0.628278" stroke-linecap="round" stroke-linejoin="round"/>
<path d="M173.606 103.911L179.971 102.365L211.007 115.628C212.534 113.687 214.249 111.519 216.002 109.308L182.389 95.0898L175.302 97.0751L179.744 76.298L173.87 76.9388L168.479 98.9788L151.063 103.854L117.551 106.776L104.163 113.423L104.816 93.8144L121.189 86.0991L140.263 89.7746L143.512 74.0048L137.719 72.3838L135.884 83.8373L121.189 80.6959L105.011 87.9965L105.538 72.1514L97.7227 74.0739V116.615L77.8628 126.479V78.9682L75.601 79.5211L70.6439 78.8174L71.4984 95.0772H58.0469L36.5347 78.2268C36.6729 80.652 36.6918 83.2342 36.6289 85.8981L55.7411 101.888H71.8502L72.491 114.014L71.8942 119.002L32.2812 129.136L32.4886 131.423L71.5926 121.565L70.669 129.406L33.142 138.667L33.8394 146.37L53.6992 141.111L55.5527 164.81L37.2509 184.192L37.9672 192.127L44.4259 185.292L45.8583 203.537L47.7055 203.147L46.4489 183.149L59.8249 168.994L66.3088 167.342L91.9237 159.08L91.3645 162.799L77.1214 207.017L82.5937 209.367L90.0765 185.241L101.103 183.193L123.275 192.781L133.56 193.44L131.813 210.925L134.552 211.365L135.746 193.579L161.543 195.225L180.184 192.542L182.559 210.285L187.353 209.229L185.066 191.838L204.046 189.105L203.091 183.677L162.699 189.036L146.383 187.604L148.701 165.639L162.894 157.886H167.317L199.139 161.109L198.021 154.669L168.222 151.842H161.273L164.766 130.845L173.625 103.873L173.606 103.911ZM68.068 159.884L57.2616 163.088L55.8291 140.552L72.4785 136.148L97.308 123.331L93.2053 150.498L68.068 159.89V159.884ZM103.113 177.055L91.9111 179.279L96.5478 164.313L103.578 120.089L117.733 112.782L123.231 135.073L121.176 153.658L115 181.83L103.107 177.061L103.113 177.055ZM154.444 156.642L144.693 161.254L141.105 187.176L124.801 185.744L119.178 183.488L125.474 155.511L127.842 136.141H139.095L157.874 132.981L154.45 156.636L154.444 156.642ZM158.804 128.489L139.955 132.366H124.789L120.228 112.418L149.807 109.691L166.507 105.639L158.81 128.489H158.804Z" fill="white" stroke="#263238" stroke-width="0.628278" stroke-linecap="round" stroke-linejoin="round"/>
<path opacity="0.5" d="M166.506 146.439L168.209 132.981L189.947 137.756L188.169 149.248L166.506 146.439Z" fill="white"/>
<path opacity="0.5" d="M179.975 132.359L184.398 120.014L200.771 126.19L197.02 138.956L179.975 132.359Z" fill="white"/>
<path opacity="0.5" d="M176.413 105.639H178.223L185.065 108.73L178.223 129.482L171.808 127.566L169.76 127.113L176.413 105.639Z" fill="white"/>
<path opacity="0.5" d="M189.946 111.142L205.917 117.563L203.253 122.156L188.168 117.563L189.946 111.142Z" fill="white"/>
<path opacity="0.5" d="M179.975 92.7279L183.066 78.4848L188.167 77.6743L195.713 80.7026L190.373 95.3918L183.173 92.7279H179.975Z" fill="white"/>
<path opacity="0.5" d="M193.717 96.931L197.047 88.7383L219.451 98.9415L215.015 105.639L193.717 96.931Z" fill="white"/>
<path opacity="0.5" d="M145.972 77.6743L157.866 81.1236L154.253 100.047H152.532H142.033L145.972 77.6743Z" fill="white"/>
<path opacity="0.5" d="M160.887 81.6388L169.759 80.1372L166.504 96.9311L157.865 99.1615L160.887 81.6388Z" fill="white"/>
<path opacity="0.5" d="M139.589 92.7275L138.521 100.939L119.17 101.825L107.547 107.812V96.9307L121.627 89.6489L139.589 92.7275Z" fill="white"/>
<path opacity="0.5" d="M108.389 73.967L122.362 70.2979L121.281 78.4843L107.572 83.8435L108.389 73.967Z" fill="white"/>
<path opacity="0.5" d="M124.141 78.4848L134.268 80.7026L135.877 73.2073L125.397 71.4355L124.141 78.4848Z" fill="white"/>
<path opacity="0.5" d="M80.3691 80.7026V92.7279L95.008 88.7383V77.6743L80.3691 80.7026Z" fill="white"/>
<path opacity="0.5" d="M81.373 97.1883V120.95L89.459 117.563L88.1773 102.931L95.0067 100.939V92.7275L81.373 97.1883Z" fill="white"/>
<path opacity="0.5" d="M56.8516 104.709L57.9636 120.014L68.6066 117.564L70.3156 112.789V104.709H56.8516Z" fill="white"/>
<path opacity="0.5" d="M39.5495 92.7275L53.5915 103.597V111.136L37.7715 112.355C37.7715 112.355 39.7694 99.1548 39.5432 92.7212L39.5495 92.7275Z" fill="white"/>
<path opacity="0.5" d="M37.7774 115.352L52.2466 114.026V121.321L35.2266 125.97L37.7774 115.352Z" fill="white"/>
<path opacity="0.5" d="M56.8516 80.1372V90.5101L68.6066 91.3959L68.1166 80.7027L56.8516 80.1372Z" fill="white"/>
<path opacity="0.5" d="M106.046 122.156L116.136 117.45L119.171 134.659L104.029 137.323L106.046 122.156Z" fill="white"/>
<path opacity="0.5" d="M108.389 139.943L107.572 151.735L118.077 150.623V137.323L108.389 139.943Z" fill="white"/>
<path opacity="0.5" d="M138.522 114.026L137.152 129.482H142.863L155.561 127.39L162.887 108.73L148.939 112.789L138.522 114.026Z" fill="white"/>
<path opacity="0.5" d="M124.141 114.912V119.109L134.715 118.808V114.026L124.141 114.912Z" fill="white"/>
<path opacity="0.5" d="M139.59 141.765L138.521 154.173L152.457 151.735L154.254 137.323L139.59 141.765Z" fill="white"/>
<path opacity="0.5" d="M127.389 157.917L137.153 158.609L134.715 183.514L125.347 183.218L121.848 181.962L127.389 157.917Z" fill="white"/>
<path opacity="0.5" d="M130.58 139.943L137.152 140.898L135.876 149.248H129.424L130.58 139.943Z" fill="white"/>
<path opacity="0.5" d="M183.066 163.088L195.714 164.32L198.597 179.549L183.066 179.863V163.088Z" fill="white"/>
<path opacity="0.5" d="M154.253 168.146L166.505 167.16L168.207 185.009H152.236L154.253 168.146Z" fill="white"/>
<path opacity="0.5" d="M188.168 195.25L189.946 203.405L198.597 201.992L197.046 193.516L188.168 195.25Z" fill="white"/>
<path opacity="0.5" d="M160.222 198.46L177.411 196.368L178.222 205.861L159.505 210.504L148.906 209.26L152.607 197.574L160.222 198.46Z" fill="white"/>
<path opacity="0.5" d="M71.2714 170.716L85.2443 168.146L84.3082 177.796L80.3689 187.208L70.3164 189.884L71.2714 170.716Z" fill="white"/>
<path opacity="0.5" d="M59.0703 143.21V150.85L69.839 149.247L75.594 147.03L75.305 137.323L71.3783 139.943L59.0703 143.21Z" fill="white"/>
<path opacity="0.5" d="M36.666 149.248L50.8651 145.748L52.2473 160.425L38.6639 163.089L36.666 149.248Z" fill="white"/>
<path opacity="0.5" d="M37.6582 175.321L45.763 168.146L47.8677 170.1L39.4865 178.148L37.6582 175.321Z" fill="white"/>
<path opacity="0.5" d="M39.7695 195.25L43.7402 194.308L44.4565 202.312L40.5235 202.877L39.7695 195.25Z" fill="white"/>
<path opacity="0.5" d="M50.1977 200.101L49.4375 186.115L59.069 185.009V198.819L50.1977 200.101Z" fill="white"/>
<path opacity="0.5" d="M110.916 168.146C113.911 168.146 116.338 165.718 116.338 162.724C116.338 159.729 113.911 157.302 110.916 157.302C107.922 157.302 105.494 159.729 105.494 162.724C105.494 165.718 107.922 168.146 110.916 168.146Z" fill="white"/>
<path opacity="0.1" d="M206.954 126.742L201.187 149.241L211.245 207.778L211.17 207.796L210.931 207.847L158.307 218.622L171.984 126.441L190.255 71.4287L235.748 92.7273C235.748 92.7273 206.225 122.156 206.967 126.742H206.954Z" fill="black"/>
<path opacity="0.1" d="M159.507 75.3175L145.585 124.675L133.453 146.112L118.908 212.728L86.1309 216.561L110.263 160.424L116.005 118.455L123.287 63.3174L159.507 75.3175Z" fill="black"/>
<path opacity="0.1" d="M75.305 76.4669L74.3061 122.306L60.5468 205.283L59.8494 204.975L35.5602 209.26L29.1895 130.241L67.2065 115.533L73.5019 76.2407C74.2872 76.3412 74.8967 76.4229 75.2988 76.4732L75.305 76.4669Z" fill="black"/>
<path d="M170.363 101.31C170.15 101.096 169.842 101.008 169.553 101.084L150.478 106.009L118.015 108.453C117.902 108.46 117.795 108.491 117.695 108.541L75.0599 130.405L75.6756 116.564V97.9107C75.6756 97.4458 75.2987 97.0688 74.8337 97.0688H66.2892C65.8242 97.0688 65.4473 97.4458 65.4473 97.9107C65.4473 98.3757 65.8242 98.7526 66.2892 98.7526H73.9918V116.527L73.3133 131.781C73.3007 132.083 73.4452 132.365 73.6966 132.529C73.9479 132.692 74.2683 132.705 74.5322 132.567L118.304 110.118L150.673 107.68C150.723 107.68 150.774 107.668 150.818 107.655L168.548 103.081L160.908 130.091C160.908 130.091 160.895 130.154 160.889 130.185L159.658 137.643L158.941 137.618C158.778 137.618 158.64 137.788 158.69 137.932L159.745 140.879C159.833 141.124 160.129 141.193 160.267 140.992L162.252 138.121C162.372 137.945 162.221 137.731 161.982 137.718L161.348 137.7L162.535 130.506L170.558 102.133C170.64 101.844 170.558 101.53 170.351 101.316L170.363 101.31Z" fill="#75A9C8"/>
<path opacity="0.6" d="M170.363 101.31C170.15 101.096 169.842 101.008 169.553 101.084L150.478 106.009L118.015 108.453C117.902 108.46 117.795 108.491 117.695 108.541L75.0599 130.405L75.6756 116.564V97.9107C75.6756 97.4458 75.2987 97.0688 74.8337 97.0688H66.2892C65.8242 97.0688 65.4473 97.4458 65.4473 97.9107C65.4473 98.3757 65.8242 98.7526 66.2892 98.7526H73.9918V116.527L73.3133 131.781C73.3007 132.083 73.4452 132.365 73.6966 132.529C73.9479 132.692 74.2683 132.705 74.5322 132.567L118.304 110.118L150.673 107.68C150.723 107.68 150.774 107.668 150.818 107.655L168.548 103.081L160.908 130.091C160.908 130.091 160.895 130.154 160.889 130.185L159.658 137.643L158.941 137.618C158.778 137.618 158.64 137.788 158.69 137.932L159.745 140.879C159.833 141.124 160.129 141.193 160.267 140.992L162.252 138.121C162.372 137.945 162.221 137.731 161.982 137.718L161.348 137.7L162.535 130.506L170.558 102.133C170.64 101.844 170.558 101.53 170.351 101.316L170.363 101.31Z" fill="black"/>
<path d="M70.0775 67.672C66.49 64.0846 60.6785 64.0846 57.091 67.672C53.5035 71.2595 53.5035 77.0711 57.091 80.6586L63.5811 87.1487L70.0712 80.6586C73.6587 77.0711 73.6587 71.2595 70.0712 67.672H70.0775ZM66.2576 76.8386C64.7811 78.3151 62.3874 78.3151 60.9109 76.8386C59.4345 75.3622 59.4345 72.9684 60.9109 71.492C62.3874 70.0155 64.7811 70.0155 66.2576 71.492C67.734 72.9684 67.734 75.3622 66.2576 76.8386Z" fill="#263238"/>
<path d="M57.0723 78.1958C57.8011 79.6597 58.8252 80.9854 60.0943 82.0094" stroke="white" stroke-width="0.628278" stroke-linecap="round" stroke-linejoin="round"/>
<path d="M59.3021 67.5776C56.1733 69.4688 55.3439 73.1002 56.3743 76.4489" stroke="white" stroke-width="0.628278" stroke-linecap="round" stroke-linejoin="round"/>
<path d="M63.5818 66.3716C62.7901 66.3716 61.9985 66.4972 61.2383 66.7234" stroke="white" stroke-width="0.628278" stroke-linecap="round" stroke-linejoin="round"/>
<path d="M152.878 126.014C149.291 122.426 143.479 122.426 139.892 126.014C136.304 129.601 136.304 135.413 139.892 139L146.382 145.49L152.872 139C156.459 135.413 156.459 129.601 152.872 126.014H152.878ZM149.058 135.18C147.582 136.657 145.188 136.657 143.712 135.18C142.235 133.704 142.235 131.31 143.712 129.834C145.188 128.357 147.582 128.357 149.058 129.834C150.535 131.31 150.535 133.704 149.058 135.18Z" fill="#263238"/>
<path d="M139.873 136.538C140.602 138.001 141.626 139.327 142.895 140.351" stroke="white" stroke-width="0.628278" stroke-linecap="round" stroke-linejoin="round"/>
<path d="M142.109 125.919C138.98 127.811 138.151 131.442 139.181 134.791" stroke="white" stroke-width="0.628278" stroke-linecap="round" stroke-linejoin="round"/>
<path d="M146.388 124.713C145.597 124.713 144.805 124.839 144.045 125.065" stroke="white" stroke-width="0.628278" stroke-linecap="round" stroke-linejoin="round"/>
<path d="M206.955 126.742C206.213 127.038 200.006 127.779 200.006 127.779C200.157 126.303 203.26 123.639 203.26 122.162C203.26 120.686 201.928 120.981 201.928 120.981C201.633 122.904 196.751 126.453 195.715 126.893C194.678 127.339 191.87 136.801 190.349 138.284C178.418 150.183 167.103 157.063 162.887 165.306C158.672 173.549 151.352 177.815 151.352 177.815C151.352 177.815 148.914 209.191 158.232 195.25C167.549 181.315 170.873 182.125 175.535 175.911C180.19 169.698 189.288 155.511 196.387 143.624C200.012 140.546 202.821 141.972 205.038 139.754C205.503 139.289 205.189 137.385 205.924 136.148C206.666 134.904 207.847 132.661 207.696 131.329C207.545 129.997 208.733 129.256 208.877 128.52C209.028 127.779 207.696 126.447 206.955 126.749V126.742Z" fill="#BFBFBF" stroke="#263238" stroke-width="0.628278" stroke-miterlimit="10"/>
<path d="M63.7829 170.357C61.3641 161.423 51.72 152.351 42.5032 138.24C41.322 136.474 40.5304 126.629 39.6068 125.982C38.6832 125.335 34.6434 120.849 34.7565 118.908C34.7565 118.908 33.5125 118.342 33.211 119.787C32.9031 121.232 35.3911 124.481 35.234 125.957C35.234 125.957 29.3093 123.947 28.6497 123.507C27.99 123.067 26.413 124.091 26.4004 124.845C26.3941 125.599 27.3994 126.567 26.9784 127.842C26.5575 129.111 27.2486 131.555 27.7198 132.925C28.191 134.294 27.4811 136.085 27.8392 136.638C29.5481 139.264 32.5952 138.454 35.5042 142.217C39.9901 155.317 45.9524 171.08 49.2257 178.117C52.4991 185.16 55.9232 185.047 62.1557 200.615C68.3882 216.178 72.4909 184.978 72.4909 184.978C72.4909 184.978 66.2144 179.292 63.7955 170.351L63.7829 170.357Z" fill="#BFBFBF" stroke="#263238" stroke-width="0.628278" stroke-miterlimit="10"/>
<path d="M67.6904 174.611C67.6904 174.611 69.2988 170.797 66.2893 169.585C63.2799 168.372 59.5102 170.552 59.5102 170.552C59.5102 170.552 53.9625 171.947 53.7426 177.809C53.7426 177.809 52.4986 197.499 57.1102 197.575C61.7217 197.65 67.6841 174.611 67.6841 174.611H67.6904Z" fill="#999999" stroke="#263238" stroke-width="0.628278" stroke-linecap="round" stroke-linejoin="round"/>
<path d="M154.261 175.296C154.261 175.296 154.016 172.205 157.786 172.619C161.555 173.028 164.659 178.399 164.439 185.92C164.439 185.92 166.167 195.514 161.53 195.25C156.894 194.992 154.261 175.302 154.261 175.302V175.296Z" fill="#999999" stroke="#263238" stroke-width="0.628278" stroke-linecap="round" stroke-linejoin="round"/>
<path d="M81.4745 192.297C81.4745 192.297 68.6325 177.325 66.289 172.148C66.289 172.148 57.4429 171.859 56.2554 179.618C55.0743 187.377 56.2554 195.25 56.2554 195.25C56.2554 195.25 64.9696 219.043 68.6011 228.052L81.4682 192.297H81.4745Z" fill="#757575"/>
<mask id="mask0_291_6469" style="mask-type:luminance" maskUnits="userSpaceOnUse" x="55" y="172" width="27" height="57">
<path d="M81.4745 192.297C81.4745 192.297 68.6325 177.325 66.289 172.148C66.289 172.148 57.4429 171.859 56.2554 179.618C55.0743 187.377 56.2554 195.25 56.2554 195.25C56.2554 195.25 64.9696 219.043 68.6011 228.052L81.4682 192.297H81.4745Z" fill="white"/>
</mask>
<g mask="url(#mask0_291_6469)">
<g opacity="0.3">
<path d="M76.9372 186.869C75.09 187.101 73.0984 187.711 71.0125 188.873C70.5225 189.137 70.0387 189.432 69.5423 189.765C69.0963 190.067 68.669 190.418 68.2732 190.827C66.4198 192.693 65.1695 195.558 64.3465 198.907C63.9507 200.559 63.6491 202.331 63.4355 204.159C63.0836 207.212 62.9706 210.41 63.0082 213.476C61.9402 210.636 60.891 207.803 59.9297 205.24C60.1119 203.286 60.382 201.351 60.7779 199.485C61.0983 197.914 61.5067 196.412 62.0156 194.999C63.0271 192.19 64.4282 189.753 66.3507 188C66.7591 187.623 67.1989 187.277 67.6638 186.969C68.1538 186.643 68.6376 186.341 69.1214 186.065C70.9874 184.996 72.8031 184.312 74.5434 183.897C75.3728 184.934 76.1832 185.933 76.9309 186.862L76.9372 186.869Z" fill="#75A9C8"/>
</g>
<g opacity="0.3">
<path d="M72.0239 180.661C70.5034 181.095 68.8071 181.692 66.9411 182.515C66.3694 182.766 65.7788 183.042 65.1756 183.338C64.7421 183.551 64.3337 183.796 63.9442 184.079C61.852 185.587 60.4007 188.012 59.3892 190.783C58.8866 192.19 58.4908 193.692 58.1892 195.212C57.9442 196.456 57.7557 197.713 57.6174 198.944C56.7818 196.67 56.2604 195.25 56.2604 195.25C56.2604 195.25 56.0468 193.817 55.8897 191.581C55.8708 191.354 55.8583 191.122 55.8457 190.877C56.229 189.671 56.675 188.502 57.2028 187.396C58.4216 184.852 60.0677 182.64 62.2856 181.132C62.7253 180.831 63.1966 180.554 63.6929 180.316C64.2395 180.045 64.7673 179.8 65.2824 179.568C66.9222 178.82 68.4552 178.242 69.8751 177.784C70.5474 178.714 71.2699 179.681 72.0239 180.655V180.661Z" fill="#75A9C8"/>
</g>
<g opacity="0.3">
<path d="M67.4634 174.259C65.9995 174.636 64.6236 175.195 63.3356 175.886C62.3241 176.42 61.3754 177.036 60.4707 177.715C58.7869 178.965 57.2853 180.41 55.9785 181.893C56.0539 181.139 56.1419 180.378 56.2612 179.625C56.6068 177.363 57.5995 175.786 58.8372 174.686C58.8497 174.686 58.856 174.674 58.8623 174.661C58.8874 174.642 58.9126 174.63 58.9377 174.611C59.6037 174.133 60.3011 173.687 61.0236 173.273C61.2875 173.116 61.5576 172.971 61.8341 172.827C61.8529 172.858 61.8655 172.896 61.878 172.927C62.3932 172.739 62.9084 172.588 63.3859 172.481C65.0257 172.11 66.2948 172.148 66.2948 172.148C66.565 172.739 66.9608 173.455 67.4697 174.259H67.4634Z" fill="#75A9C8"/>
</g>
<g opacity="0.3">
<path d="M75.1707 194.125L72.6638 196.375C71.1308 194.672 69.667 192.793 68.2722 190.821C67.6125 189.903 66.9779 188.955 66.3559 188C65.5203 186.705 64.7161 185.392 63.9371 184.073C63.3653 183.093 62.8124 182.113 62.2784 181.132C61.6438 179.976 61.0407 178.827 60.469 177.708C59.9224 176.647 59.4135 175.61 58.9297 174.605C59.5831 174.039 60.3056 173.606 61.0218 173.273C61.2857 173.116 61.5559 172.971 61.8323 172.827C61.8512 172.858 61.8637 172.896 61.8763 172.927C62.3412 173.888 62.8313 174.881 63.3402 175.893C63.9496 177.099 64.603 178.337 65.2879 179.581C65.8219 180.554 66.3748 181.535 66.9465 182.521C67.6502 183.715 68.379 184.902 69.1329 186.077C69.7423 187.032 70.3706 187.968 71.0177 188.879C72.3497 190.751 73.7382 192.529 75.177 194.132L75.1707 194.125Z" fill="#75A9C8"/>
</g>
<g opacity="0.3">
<path d="M71.9235 214.909L68.6941 215.858C67.7328 212.591 65.804 208.482 63.4417 204.153C62.6061 202.613 61.7077 201.049 60.7841 199.485C59.9359 198.052 59.0689 196.626 58.1893 195.212C57.4291 193.987 56.6563 192.768 55.8898 191.587C55.871 191.361 55.8584 191.129 55.8458 190.884C55.7516 189.275 55.7013 187.327 55.7704 185.229C56.2354 185.933 56.7191 186.661 57.2029 187.397C57.9191 188.49 58.6542 189.621 59.3893 190.777C60.2689 192.159 61.1548 193.566 62.0218 194.992C62.8134 196.287 63.5925 197.594 64.3464 198.894C67.714 204.706 70.6229 210.467 71.9235 214.903V214.909Z" fill="#75A9C8"/>
</g>
<path opacity="0.2" d="M71.6667 219.539L68.6069 228.052C64.9818 219.043 56.2613 195.25 56.2613 195.25C56.2613 195.25 55.0801 187.371 56.2613 179.618C56.9964 174.793 60.6906 173.078 63.3797 172.475C63.5367 172.5 63.7001 172.544 63.8634 172.581C63.8634 172.581 56.8582 177.067 57.6309 194.307L64.4477 213.174C64.4477 213.174 65.1577 206.609 67.8907 207.558C69.0656 207.96 70.7305 213.407 71.6729 219.539H71.6667Z" fill="black"/>
</g>
<path d="M81.4745 192.297C81.4745 192.297 68.6325 177.325 66.289 172.148C66.289 172.148 57.4429 171.859 56.2554 179.618C55.0743 187.377 56.2554 195.25 56.2554 195.25C56.2554 195.25 64.9696 219.043 68.6011 228.052L81.4682 192.297H81.4745Z" stroke="#263238" stroke-width="0.628278" stroke-linecap="round" stroke-linejoin="round"/>
<path d="M109.138 178.921C109.082 179.185 108.818 179.392 108.385 179.55C107.618 179.826 106.311 179.92 104.646 179.826C96.642 179.386 80.3885 174.63 76.5057 165.168C72.3654 155.072 82.9895 141.891 94.3551 141.608C100.895 141.451 106.405 149.179 107.725 158.219C108.366 162.592 112.079 166.205 109.132 178.921H109.138Z" fill="#BFBFBF" stroke="#263238" stroke-width="0.628278" stroke-miterlimit="10"/>
<path d="M103.583 164.32C103.583 164.32 102.974 165.256 103.137 167.021" stroke="#263238" stroke-width="0.628278" stroke-linecap="round" stroke-linejoin="round"/>
<path d="M103.652 169.579C103.652 169.579 104.808 171.149 105.65 170.427" stroke="#263238" stroke-width="0.628278" stroke-linecap="round" stroke-linejoin="round"/>
<path d="M108.391 179.55C107.624 179.826 106.317 179.92 104.652 179.826C104.816 178.639 105.13 177.263 105.23 176.572C105.557 174.392 104.464 173.707 104.929 173.556C105.369 173.412 105.35 175.34 106.273 176.327C107.436 177.571 108.014 178.878 108.391 179.544V179.55Z" fill="#263238"/>
<path d="M105.237 177.897C105.237 177.897 103.817 183.357 103.968 186.127C104.119 188.898 105.118 192.416 105.118 192.416L87.8652 193.415C87.8652 193.415 90.4474 180.988 89.0652 176.647C87.6893 172.299 100.092 173.882 100.092 173.882" fill="#BFBFBF"/>
<path d="M105.237 177.897C105.237 177.897 103.817 183.357 103.968 186.127C104.119 188.898 105.118 192.416 105.118 192.416L87.8652 193.415C87.8652 193.415 90.4474 180.988 89.0652 176.647C87.6893 172.299 100.092 173.882 100.092 173.882" stroke="#263238" stroke-width="0.628278" stroke-miterlimit="10"/>
<path d="M103.263 152.251C103.986 149.901 105.274 150.134 105.274 150.134C105.274 150.134 104.438 138.856 99.6319 137.656C96.3775 136.839 95.4853 141.746 92.1115 138.215C90.2141 136.23 86.7837 135.677 84.4779 137.373C83.1145 138.379 83.1585 139.773 82.2538 140.998C81.3176 142.255 79.4642 142.167 78.0757 142.45C75.9396 142.883 73.772 144.473 73.326 146.728C72.9616 148.563 75.2045 150.008 74.771 151.516C74.2495 153.319 72.5783 154.412 71.5354 155.889C70.2725 157.686 70.1657 160.016 70.6495 162.109C71.3657 165.206 72.9741 166.419 75.4621 168.002C76.7061 168.793 77.46 170.239 78.2265 171.451C80.815 175.522 83.9627 178.5 88.901 179.342C98.834 181.039 103.282 171.872 103.282 171.872C103.282 171.872 102.164 162.787 102.974 161.75C103.785 160.714 105.494 164.257 105.494 164.257C107.536 158.766 103.257 152.257 103.257 152.257L103.263 152.251Z" fill="#263238"/>
<path d="M105.563 165.696C105.268 164.59 105.475 160.029 104.1 160.456C102.893 160.827 103.471 165.52 104.709 168.655C105.94 171.79 107.499 171.784 107.543 170.892C107.586 169.999 106.544 169.409 106.261 168.096" fill="#BFBFBF"/>
<path d="M105.563 165.696C105.268 164.59 105.475 160.029 104.1 160.456C102.893 160.827 103.471 165.52 104.709 168.655C105.94 171.79 107.499 171.784 107.543 170.892C107.586 169.999 106.544 169.409 106.261 168.096" stroke="#263238" stroke-width="0.628278" stroke-miterlimit="10"/>
<path opacity="0.3" d="M102.553 146.609C102.553 146.609 103.099 141.426 99.5999 141.608C96.1004 141.79 96.2826 146.609 96.2826 146.609C96.2826 146.609 93.3423 145.616 92.337 147.306C91.3318 148.996 92.3747 152.433 92.3747 152.433C92.3747 152.433 89.2271 153.432 89.9998 155.537C90.7789 157.641 88.7559 157.956 88.7559 157.956" stroke="white" stroke-width="0.628278" stroke-linecap="round" stroke-linejoin="round"/>
<path opacity="0.3" d="M101.756 150.85C101.756 150.85 101.203 155.436 97.9296 155.543C97.9296 155.543 94.5557 165.897 83.1211 165.671" stroke="white" stroke-width="0.628278" stroke-linecap="round" stroke-linejoin="round"/>
<path opacity="0.3" d="M92.9917 140.898C92.9917 140.898 90.3466 138.429 87.1801 139.943C84.0073 141.457 86.1183 145.748 86.1183 145.748C86.1183 145.748 83.0398 145.56 82.0282 147.891C81.0167 150.222 84.0136 151.736 84.0136 151.736C84.0136 151.736 80.602 153.545 82.0282 154.99C83.4607 156.429 82.0282 159.313 82.0282 159.313" stroke="white" stroke-width="0.628278" stroke-linecap="round" stroke-linejoin="round"/>
<path opacity="0.3" d="M79.7905 145.748C79.7905 145.748 75.003 147.262 76.0082 150.843C77.0135 154.431 77.8302 154.418 77.8302 154.418C77.8302 154.418 74.2428 155.656 74.0229 158.257C73.803 160.864 76.9067 160.732 76.9067 160.732C76.9067 160.732 75.9077 163.334 78.4585 164.314" stroke="white" stroke-width="0.628278" stroke-linecap="round" stroke-linejoin="round"/>
<path d="M81.4734 190.708C81.4734 190.708 93.0275 182.565 114.056 191.129L129.832 187.447C129.832 187.447 140.035 215.154 133.916 243.558C133.916 243.558 120.219 253.385 97.306 253.328C72.4451 253.272 66.288 243.558 66.288 243.558L69.844 234.492C67.7016 224.145 64.9246 207.539 67.0419 198.951C70.2524 185.895 81.4671 190.708 81.4671 190.708H81.4734Z" fill="#757575"/>
<mask id="mask1_291_6469" style="mask-type:luminance" maskUnits="userSpaceOnUse" x="66" y="187" width="70" height="67">
<path d="M81.4734 190.707C81.4734 190.707 93.0275 182.565 114.056 191.128L129.832 187.447C129.832 187.447 140.035 215.154 133.916 243.558C133.916 243.558 120.219 253.384 97.306 253.328C72.4451 253.271 66.288 243.558 66.288 243.558L69.844 234.492C67.7016 224.144 64.9246 207.539 67.0419 198.95C70.2524 185.895 81.4671 190.707 81.4671 190.707H81.4734Z" fill="white"/>
</mask>
<g mask="url(#mask1_291_6469)">
<g opacity="0.3">
<path d="M128.695 246.511C127.734 246.976 126.647 247.473 125.435 247.969C125.334 246.769 125.24 245.582 125.146 244.407C125.051 243.2 124.964 242.019 124.882 240.844C124.618 237.282 124.398 233.883 124.21 230.647C124.14 229.416 124.078 228.21 124.015 227.022C123.764 222.166 123.581 217.711 123.468 213.64C123.431 212.321 123.393 211.045 123.368 209.807C123.28 205.491 123.255 201.671 123.273 198.354C123.273 197.047 123.299 195.816 123.311 194.66C123.343 192.473 123.393 190.563 123.456 188.93L126.848 188.138C126.792 189.558 126.735 191.223 126.704 193.133C126.679 194.308 126.66 195.558 126.647 196.915C126.622 200.075 126.628 203.745 126.704 207.923C126.723 209.192 126.748 210.505 126.779 211.862C126.886 215.99 127.056 220.551 127.307 225.552C127.37 226.746 127.433 227.977 127.495 229.221C127.678 232.463 127.898 235.868 128.149 239.45C128.231 240.625 128.325 241.818 128.419 243.025C128.501 244.168 128.595 245.33 128.689 246.505L128.695 246.511Z" fill="#75A9C8"/>
</g>
<g opacity="0.3">
<path d="M118.705 190.042C118.46 191.895 118.19 194.119 117.926 196.664C117.8 197.826 117.681 199.051 117.561 200.345C117.228 204.04 116.92 208.262 116.7 212.917C116.644 214.136 116.587 215.386 116.55 216.662C116.399 220.808 116.324 225.263 116.367 229.956C116.38 231.131 116.393 232.331 116.424 233.531C116.493 236.898 116.619 240.385 116.82 243.96C116.889 245.123 116.958 246.285 117.046 247.472C117.121 248.547 117.197 249.634 117.291 250.733C116.229 251.022 115.13 251.299 113.98 251.55C113.898 250.551 113.817 249.558 113.748 248.572C113.666 247.397 113.584 246.241 113.515 245.091C113.295 241.472 113.157 237.948 113.075 234.53C113.044 233.342 113.019 232.168 113.006 231.011C112.95 226.369 113.006 221.958 113.138 217.818C113.17 216.574 113.214 215.355 113.27 214.167C113.471 209.436 113.766 205.12 114.093 201.307C114.206 200.05 114.313 198.85 114.426 197.706C114.69 195.118 114.954 192.818 115.199 190.852L118.698 190.042H118.705Z" fill="#75A9C8"/>
</g>
<g opacity="0.3">
<path d="M107.447 188.873C107.107 191.549 106.705 195.137 106.303 199.44C106.203 200.552 106.102 201.708 106.002 202.908C105.669 206.898 105.354 211.384 105.122 216.234C105.065 217.371 105.009 218.534 104.965 219.709C104.795 223.893 104.688 228.316 104.676 232.909C104.663 234.04 104.663 235.183 104.676 236.339C104.701 239.983 104.776 243.728 104.934 247.529C104.977 248.666 105.028 249.803 105.091 250.953C105.122 251.613 105.166 252.278 105.204 252.944C104.11 253.051 102.992 253.139 101.849 253.202C101.817 252.681 101.786 252.159 101.761 251.644C101.698 250.507 101.641 249.376 101.597 248.245C101.428 244.331 101.34 240.479 101.315 236.722C101.302 235.585 101.296 234.454 101.315 233.336C101.327 228.743 101.428 224.32 101.591 220.117C101.635 218.955 101.679 217.817 101.736 216.699C101.968 211.836 102.27 207.331 102.596 203.304C102.691 202.123 102.791 200.98 102.892 199.886C103.338 194.998 103.796 190.977 104.161 188.081C105.229 188.295 106.322 188.552 107.453 188.866L107.447 188.873Z" fill="#75A9C8"/>
</g>
<g opacity="0.3">
<path d="M95.5396 253.309C94.3647 253.284 93.2275 253.234 92.1343 253.165C92.1092 252.976 92.0903 252.775 92.0715 252.58C91.9521 251.487 91.8579 250.363 91.7825 249.2C91.5186 245.28 91.4369 241.014 91.3552 236.459C91.3552 236.277 91.3552 236.094 91.3427 235.912C91.3238 234.976 91.3113 234.015 91.2924 233.047C91.217 228.957 91.1039 224.597 90.8463 219.992C90.7835 218.873 90.7144 217.724 90.6327 216.574C90.5196 214.947 90.3877 213.3 90.2306 211.623C89.9479 208.645 89.8034 205.943 89.7783 203.493C89.7657 202.306 89.7783 201.175 89.8097 200.113C89.9919 194.383 90.8023 190.28 91.6757 187.447C92.794 187.315 94.0066 187.233 95.3008 187.214C94.3961 189.677 93.3657 193.843 93.171 200.295C93.1395 201.357 93.127 202.475 93.1458 203.663C93.171 205.962 93.3092 208.5 93.5793 211.303C93.7615 213.206 93.9123 215.066 94.0317 216.894C94.1071 218.038 94.1762 219.162 94.2327 220.274C94.4778 224.93 94.5846 229.328 94.66 233.443C94.6788 234.254 94.6851 235.058 94.704 235.849C94.704 236.176 94.7165 236.503 94.7228 236.817C94.7982 241.234 94.8862 245.374 95.15 249.144C95.2254 250.3 95.3197 251.412 95.439 252.499C95.4642 252.775 95.4956 253.045 95.527 253.309H95.5396Z" fill="#75A9C8"/>
</g>
<g opacity="0.3">
<path d="M84.2943 202.745C84.1687 204.969 84.1498 207.193 84.2566 209.304C84.3634 211.397 84.4074 213.382 84.4074 215.298C84.4074 216.479 84.3885 217.635 84.3634 218.772C84.2629 222.668 84.0116 226.362 83.7477 230.169C83.7226 230.509 83.7037 230.854 83.6723 231.2C83.5969 232.343 83.5215 233.499 83.4461 234.668C83.2451 237.816 83.088 241.089 83.0566 244.607C83.044 245.55 83.0566 246.461 83.0754 247.347C83.1006 248.628 83.1508 249.853 83.22 251.009C83.2388 251.355 83.2577 251.701 83.2891 252.033C82.0639 251.795 80.9205 251.525 79.8587 251.223C79.8335 250.72 79.8021 250.205 79.7833 249.671C79.7267 248.452 79.7016 247.177 79.6953 245.839C79.6953 245.424 79.6953 244.997 79.6953 244.57C79.733 240.63 79.9278 237.03 80.1414 233.568C80.2168 232.381 80.2985 231.206 80.3739 230.05C80.3739 230.012 80.3739 229.968 80.3864 229.924C80.6754 225.859 80.9393 221.933 81.0147 217.755C81.0398 216.586 81.0461 215.399 81.0335 214.186C81.021 212.659 80.977 211.089 80.8953 209.461C80.7697 207.03 80.8136 204.485 80.9644 201.966C81.0335 200.816 81.1215 199.673 81.222 198.542C81.5048 195.602 81.8943 192.755 82.3152 190.192C82.9686 189.84 84.0179 189.331 85.4441 188.835C85.4566 188.835 85.4692 188.835 85.4755 188.835C85.4755 188.835 85.4943 188.822 85.5006 188.822C85.6639 188.76 85.8336 188.703 86.0032 188.653C85.4441 191.775 84.8849 195.507 84.5331 199.346C84.4325 200.471 84.3509 201.608 84.2943 202.739V202.745Z" fill="#75A9C8"/>
</g>
<g opacity="0.3">
<path d="M80.0783 190.255C80.5558 190.381 80.9391 190.506 81.1715 190.594C79.3433 191.782 77.427 193.729 76.516 196.902C76.2207 197.914 76.0322 199.051 75.982 200.326C75.9506 201.08 75.9631 201.884 76.0385 202.739C76.3212 206.018 76.5034 209.179 76.5851 212.238C76.6228 213.52 76.6479 214.777 76.6479 216.021C76.6479 220.28 76.4657 224.345 76.0636 228.247C75.9443 229.441 75.8123 230.622 75.649 231.784C75.561 232.456 75.4668 233.122 75.36 233.795C74.9642 236.333 74.5746 239.349 74.2542 242.446C74.1223 243.759 73.9966 245.079 73.8898 246.385C73.8144 247.277 73.7579 248.157 73.7013 249.018C72.4259 248.427 71.3516 247.824 70.4531 247.24C70.5348 246.153 70.6353 245.072 70.7358 244.023C70.8741 242.565 71.0249 241.171 71.1756 239.889C71.6154 236.088 72.0301 233.342 72.0364 233.267C72.1872 232.28 72.3254 231.282 72.451 230.27C72.6018 229.076 72.7338 227.87 72.8343 226.645C73.1924 222.712 73.3306 218.603 73.2678 214.274C73.249 212.955 73.2113 211.623 73.1547 210.259C73.0605 207.916 72.9034 205.503 72.6898 203.022C72.5579 201.501 72.5767 200.119 72.7149 198.85C72.8469 197.6 73.0919 196.462 73.4249 195.432C74.1914 193.057 75.4354 191.235 76.8239 189.84C78.0993 189.84 79.249 190.041 80.0846 190.255H80.0783Z" fill="#75A9C8"/>
<path d="M85.4997 188.829C85.4997 188.829 85.4872 188.829 85.4746 188.829C85.4746 188.829 85.4935 188.816 85.4997 188.816V188.829Z" fill="#75A9C8"/>
</g>
<g opacity="0.3">
<path d="M131.886 194.251C130.447 195.068 128.694 195.991 126.646 196.921C125.603 197.399 124.478 197.882 123.278 198.354C121.532 199.045 119.622 199.717 117.567 200.345C116.455 200.684 115.299 201.005 114.105 201.306C111.586 201.947 108.884 202.494 106.001 202.902C104.889 203.059 103.751 203.191 102.589 203.304C100.126 203.543 97.5566 203.681 94.8738 203.681C94.3838 203.681 93.9063 203.681 93.4162 203.669C93.3283 203.669 93.234 203.669 93.1523 203.669C91.9963 203.644 90.8717 203.587 89.7785 203.493C87.8559 203.329 86.0277 203.078 84.2936 202.745C83.1376 202.519 82.0255 202.261 80.9575 201.979C79.192 201.501 77.5333 200.948 75.9815 200.326C74.8318 199.868 73.7386 199.371 72.7082 198.85C70.9804 197.983 69.4097 197.047 67.9961 196.073C68.4924 194.911 69.0642 193.956 69.6987 193.17C70.8296 193.949 72.0673 194.71 73.4181 195.432C74.3857 195.947 75.4223 196.444 76.5155 196.902C77.9731 197.518 79.5376 198.077 81.2151 198.555C82.2768 198.856 83.3763 199.126 84.5324 199.359C86.191 199.698 87.9502 199.956 89.8099 200.113C90.8968 200.213 92.0152 200.276 93.1712 200.295C93.2654 200.295 93.366 200.307 93.4665 200.307C93.9251 200.32 94.3775 200.32 94.8361 200.32C97.6382 200.32 100.327 200.163 102.884 199.887C104.053 199.761 105.19 199.61 106.302 199.44C109.205 198.994 111.925 198.397 114.432 197.706C115.651 197.38 116.807 197.028 117.925 196.663C119.879 196.023 121.676 195.344 123.316 194.659C124.541 194.15 125.666 193.635 126.702 193.133C128.367 192.322 129.787 191.556 130.943 190.883C131.232 191.832 131.546 192.957 131.886 194.245V194.251Z" fill="#75A9C8"/>
</g>
<g opacity="0.3">
<path d="M134.494 206.823C132.471 208.337 129.87 210.115 126.785 211.868C125.735 212.465 124.636 213.061 123.474 213.64C121.338 214.714 119.019 215.751 116.55 216.662C115.444 217.076 114.313 217.466 113.145 217.818C110.556 218.615 107.823 219.263 104.965 219.709C103.859 219.885 102.728 220.023 101.584 220.123C100.033 220.268 98.4494 220.343 96.8347 220.343C95.9739 220.343 95.1132 220.318 94.2462 220.274C93.1278 220.218 91.9969 220.123 90.8535 219.985C90.6336 219.96 90.4137 219.935 90.2001 219.91C88.1519 219.64 86.2105 219.256 84.3696 218.779C83.2136 218.484 82.1016 218.144 81.0209 217.774C79.4879 217.246 78.0303 216.655 76.6544 216.021C75.4732 215.474 74.3423 214.89 73.2743 214.274C70.6606 212.791 68.3549 211.139 66.3569 209.461C66.2941 207.859 66.2815 206.314 66.3318 204.862C68.2857 206.747 70.5601 208.594 73.1612 210.259C74.2418 210.957 75.3853 211.616 76.5916 212.232C77.9926 212.955 79.4754 213.614 81.0398 214.199C82.1204 214.601 83.2513 214.971 84.4136 215.298C86.3676 215.851 88.4409 216.285 90.6336 216.574H90.6461C91.7896 216.724 92.9205 216.831 94.0514 216.894C96.6839 217.038 99.2473 216.963 101.742 216.706C102.891 216.58 104.022 216.423 105.134 216.234C107.987 215.738 110.72 215.028 113.296 214.174C114.47 213.784 115.614 213.363 116.713 212.923C119.107 211.968 121.338 210.913 123.386 209.82C124.561 209.198 125.673 208.563 126.716 207.935C129.681 206.15 132.106 204.41 133.865 203.034C134.092 204.247 134.305 205.51 134.506 206.829L134.494 206.823Z" fill="#75A9C8"/>
</g>
<g opacity="0.3">
<path d="M135.875 224.295C135.875 224.547 135.875 224.798 135.875 225.055C133.462 226.369 130.635 227.807 127.506 229.221C126.445 229.705 125.345 230.182 124.22 230.647C121.745 231.677 119.131 232.664 116.43 233.537C115.33 233.889 114.212 234.228 113.087 234.536C110.329 235.303 107.508 235.925 104.675 236.339C103.556 236.503 102.438 236.628 101.313 236.729C99.9815 236.842 98.637 236.905 97.3176 236.905C96.4569 236.905 95.5899 236.88 94.7354 236.829C93.7113 236.767 92.6872 236.66 91.6757 236.515C91.5752 236.496 91.4684 236.49 91.3678 236.465C88.6348 236.063 85.9961 235.447 83.4578 234.687C82.3395 234.348 81.2337 233.983 80.1468 233.594C78.6075 233.041 77.1059 232.431 75.6546 231.791C74.5614 231.307 73.4933 230.804 72.4567 230.283C71.131 229.623 69.8619 228.938 68.6367 228.235C68.3791 226.802 68.1278 225.326 67.8828 223.818C69.4347 224.779 71.087 225.734 72.8336 226.658C73.8766 227.204 74.9509 227.738 76.063 228.253C77.4515 228.901 78.8965 229.51 80.373 230.075C81.4473 230.484 82.5468 230.873 83.6714 231.219C86.1217 231.998 88.6662 232.632 91.2987 233.053C91.5815 233.104 91.8642 233.148 92.1532 233.185C92.9825 233.305 93.8244 233.393 94.6726 233.456C96.8464 233.6 99.0768 233.55 101.313 233.349C102.432 233.242 103.556 233.104 104.675 232.915C107.477 232.475 110.279 231.822 113.018 231.018C114.149 230.691 115.268 230.339 116.373 229.962C119.031 229.07 121.601 228.071 124.019 227.028C125.15 226.544 126.25 226.054 127.312 225.558C130.572 224.044 133.469 222.517 135.837 221.204C135.862 222.222 135.881 223.259 135.881 224.302L135.875 224.295Z" fill="#75A9C8"/>
</g>
<g opacity="0.3">
<path d="M135.159 236.213C135.084 236.848 134.996 237.482 134.901 238.117C134.801 238.827 134.681 239.543 134.562 240.253C132.866 241.064 130.786 242.012 128.43 243.036C127.393 243.489 126.294 243.947 125.157 244.419C122.644 245.443 119.917 246.492 117.052 247.485C115.971 247.862 114.872 248.232 113.754 248.584C110.914 249.489 107.999 250.306 105.09 250.965C103.978 251.223 102.865 251.455 101.76 251.656C99.6675 252.046 97.5942 252.329 95.5775 252.498C95.5398 252.498 95.4958 252.498 95.4518 252.511C94.6225 252.58 93.7994 252.605 92.9889 252.605C92.6811 252.605 92.3795 252.605 92.0779 252.586C88.8989 252.498 85.9397 251.92 83.2255 251.034C82.0318 250.645 80.882 250.199 79.7825 249.703C77.6276 248.741 75.661 247.598 73.8956 246.391C72.7584 245.625 71.7029 244.821 70.7416 244.029C69.4474 242.961 68.3039 241.906 67.3301 240.925L68.6997 237.451C69.4034 238.199 70.2327 239.028 71.1814 239.895C72.0924 240.724 73.1291 241.591 74.26 242.446C75.8621 243.652 77.6778 244.833 79.6946 245.864C80.7627 246.417 81.8998 246.932 83.081 247.372C85.7386 248.377 88.6538 249.062 91.7952 249.206C92.8884 249.256 94.013 249.244 95.1628 249.156C95.2068 249.156 95.257 249.156 95.301 249.143C97.3429 248.974 99.4539 248.666 101.596 248.257C102.702 248.044 103.814 247.805 104.933 247.541C107.81 246.863 110.706 246.021 113.521 245.104C114.639 244.739 115.739 244.362 116.826 243.979C119.678 242.961 122.405 241.893 124.887 240.863C126.036 240.391 127.123 239.92 128.154 239.468C131.069 238.192 133.481 237.043 135.159 236.226V236.213Z" fill="#75A9C8"/>
</g>
<path opacity="0.2" d="M114.183 191.097C109.553 193.73 98.4132 199.453 90.1325 198.819C83.4853 198.31 80.6832 193.893 80.0801 190.255C80.9408 190.481 81.4749 190.708 81.4749 190.708C81.4749 190.708 93.0289 182.565 114.057 191.122L114.183 191.097Z" fill="black"/>
<path opacity="0.2" d="M99.2418 253.309C98.6073 253.328 97.9664 253.334 97.313 253.334C72.4583 253.272 66.2949 243.558 66.2949 243.558L69.8573 234.492C68.6196 228.524 67.1745 220.482 66.5776 213.087C68.5253 217.102 80.6071 240.386 98.4942 240.279C111.173 240.203 105.097 247.881 99.2481 253.303L99.2418 253.309Z" fill="black"/>
<path opacity="0.2" d="M135.877 224.295C135.877 228.75 135.594 233.393 134.903 238.111C128.337 230.207 130.404 215.857 130.404 215.857C131.265 221.455 134.174 223.541 135.877 224.295Z" fill="black"/>
</g>
<path d="M81.4734 190.708C81.4734 190.708 93.0275 182.565 114.056 191.129L129.832 187.447C129.832 187.447 140.035 215.154 133.916 243.558C133.916 243.558 120.219 253.385 97.306 253.328C72.4451 253.272 66.288 243.558 66.288 243.558L69.844 234.492C67.7016 224.145 64.9246 207.539 67.0419 198.951C70.2524 185.895 81.4671 190.708 81.4671 190.708H81.4734Z" stroke="#263238" stroke-width="0.628278" stroke-linecap="round" stroke-linejoin="round"/>
<path d="M89.3164 195.187C96.5793 195.47 105.394 195.42 111.733 191.374" stroke="#263238" stroke-width="0.628278" stroke-linecap="round" stroke-linejoin="round"/>
<path d="M85.2441 194.917C85.8975 194.986 86.551 195.036 87.2044 195.074" stroke="#263238" stroke-width="0.628278" stroke-linecap="round" stroke-linejoin="round"/>
<path d="M90.8496 240.096C90.9124 241.259 91.0318 242.44 91.3459 243.558" stroke="#263238" stroke-width="0.628278" stroke-linecap="round" stroke-linejoin="round"/>
<path d="M88.9457 196.839C87.7897 199.704 87.2243 202.506 87.7897 205.874C90.5918 216.53 92.2756 226.62 90.8369 237.439" stroke="#263238" stroke-width="0.628278" stroke-linecap="round" stroke-linejoin="round"/>
<path d="M92.9043 232.814C96.5483 233.744 100.362 233.713 104.031 232.915" stroke="#263238" stroke-width="0.628278" stroke-linecap="round" stroke-linejoin="round"/>
<path d="M70.1035 210.253C74.0491 219.564 81.1738 227.499 90.2901 231.979" stroke="#263238" stroke-width="0.628278" stroke-linecap="round" stroke-linejoin="round"/>
<path d="M68.2363 204.97C68.4499 205.724 68.6887 206.478 68.94 207.225" stroke="#263238" stroke-width="0.628278" stroke-linecap="round" stroke-linejoin="round"/>
<path d="M129.839 187.447C129.839 187.447 127.867 199.352 130.216 214.437C132.566 229.522 136.248 229.372 136.248 229.372C136.248 229.372 157.264 203.392 162.881 192.894C162.881 192.894 161.549 177.809 155.636 174.611L129.839 187.447Z" fill="#757575"/>
<mask id="mask2_291_6469" style="mask-type:luminance" maskUnits="userSpaceOnUse" x="129" y="174" width="34" height="56">
<path d="M129.839 187.447C129.839 187.447 127.867 199.352 130.216 214.437C132.566 229.522 136.248 229.372 136.248 229.372C136.248 229.372 157.264 203.392 162.881 192.894C162.881 192.894 161.549 177.809 155.636 174.611L129.839 187.447Z" fill="white"/>
</mask>
<g mask="url(#mask2_291_6469)">
<g opacity="0.3">
<path d="M159.111 199.007C158.263 200.27 157.352 201.602 156.385 202.971C155.888 199.987 155.31 197.229 154.682 194.678C154.38 193.434 154.06 192.24 153.727 191.097C153.017 188.596 152.257 186.328 151.49 184.293C151.05 183.143 150.617 182.062 150.183 181.051C149.712 179.957 149.247 178.94 148.795 178.016L151.848 176.496C152.238 177.275 152.627 178.11 153.023 179.002C153.469 180.014 153.922 181.088 154.361 182.244C155.115 184.179 155.857 186.322 156.573 188.672C156.912 189.809 157.252 190.996 157.572 192.24C158.125 194.351 158.64 196.6 159.111 199.013V199.007Z" fill="#75A9C8"/>
</g>
<g opacity="0.3">
<path d="M151.409 209.832C150.423 211.158 149.43 212.471 148.45 213.765C148.01 209.254 147.363 205.064 146.578 201.206C146.333 199.95 146.069 198.737 145.786 197.568C145.101 194.622 144.354 191.901 143.587 189.439C143.229 188.276 142.865 187.17 142.5 186.127C141.979 184.601 141.457 183.2 140.961 181.931L144.014 180.41C144.479 181.585 144.969 182.873 145.453 184.262C145.824 185.304 146.201 186.41 146.571 187.573C147.307 189.897 148.042 192.454 148.72 195.231C149.009 196.406 149.292 197.612 149.562 198.863C150.285 202.249 150.919 205.912 151.409 209.839V209.832Z" fill="#75A9C8"/>
</g>
<g opacity="0.3">
<path d="M143.454 220.261C142.424 221.593 141.45 222.818 140.583 223.924C139.817 218.326 138.849 212.797 137.819 207.614C137.58 206.395 137.335 205.195 137.09 204.02C136.367 200.558 135.626 197.291 134.916 194.307C134.64 193.132 134.369 192.008 134.099 190.933C133.653 189.13 133.232 187.465 132.83 185.957L135.909 184.424C136.298 185.882 136.713 187.497 137.146 189.256C137.423 190.336 137.699 191.474 137.988 192.655C138.661 195.488 139.37 198.579 140.074 201.872C140.325 203.046 140.577 204.253 140.828 205.478C141.783 210.171 142.688 215.16 143.461 220.261H143.454Z" fill="#75A9C8"/>
</g>
<g opacity="0.3">
<path d="M159.143 178.594C157.698 179.744 156.102 180.969 154.368 182.244C153.457 182.917 152.496 183.601 151.497 184.293C149.957 185.367 148.318 186.46 146.577 187.566C145.616 188.182 144.617 188.804 143.587 189.432C141.809 190.506 139.943 191.593 137.982 192.661C136.977 193.214 135.959 193.767 134.91 194.307C133.038 195.281 131.096 196.249 129.086 197.191C129.111 195.803 129.168 194.527 129.243 193.396C130.914 192.586 132.529 191.763 134.093 190.933C135.13 190.381 136.154 189.821 137.14 189.262C139.006 188.219 140.791 187.164 142.493 186.115C143.511 185.493 144.498 184.871 145.446 184.249C147.118 183.168 148.694 182.094 150.177 181.044C151.164 180.347 152.112 179.662 153.017 178.996C154.519 177.878 155.907 176.81 157.17 175.792C157.566 176.194 157.943 176.665 158.288 177.174C158.59 177.614 158.873 178.085 159.13 178.582L159.143 178.594Z" fill="#75A9C8"/>
</g>
<g opacity="0.3">
<path d="M162.195 188.2C160.738 189.494 159.199 190.845 157.571 192.234C156.635 193.044 155.668 193.855 154.681 194.678C153.035 196.06 151.32 197.455 149.561 198.856C148.581 199.635 147.582 200.42 146.57 201.193C144.692 202.644 142.769 204.089 140.815 205.484C139.816 206.206 138.817 206.916 137.812 207.614C135.217 209.411 132.585 211.126 129.965 212.697C129.789 211.446 129.651 210.221 129.531 209.021C132.057 207.457 134.589 205.767 137.083 204.014C138.082 203.31 139.081 202.6 140.067 201.871C142.009 200.458 143.919 199.006 145.779 197.555C146.771 196.776 147.751 195.997 148.719 195.218C150.447 193.836 152.118 192.447 153.726 191.09C154.694 190.267 155.649 189.457 156.566 188.665C158.256 187.201 159.846 185.787 161.335 184.449C161.687 185.756 161.969 187.044 162.189 188.2H162.195Z" fill="#75A9C8"/>
</g>
<path opacity="0.2" d="M162.881 192.894C157.265 203.392 136.249 229.372 136.249 229.372C136.249 229.372 133.12 229.504 130.789 217.667C132.504 224.05 137.154 224.697 137.154 224.697L158.565 196.362C156.285 191.512 158.245 177.551 158.301 177.181C161.977 182.552 162.881 192.894 162.881 192.894Z" fill="black"/>
</g>
<path d="M129.839 187.447C129.839 187.447 127.867 199.352 130.216 214.437C132.566 229.522 136.248 229.372 136.248 229.372C136.248 229.372 157.264 203.392 162.881 192.894C162.881 192.894 161.549 177.809 155.636 174.611L129.839 187.447Z" stroke="#263238" stroke-width="0.628278" stroke-linecap="round" stroke-linejoin="round"/>
<path d="M114.064 191.128C114.064 191.128 105.363 184.745 93.8276 183.401C82.2924 182.056 82.5877 188.854 82.5877 188.854C82.5877 188.854 80.9605 189.464 81.482 191.374C81.9971 193.29 97.6161 195.143 114.064 191.122V191.128Z" fill="#757575"/>
<mask id="mask3_291_6469" style="mask-type:luminance" maskUnits="userSpaceOnUse" x="81" y="183" width="34" height="11">
<path d="M114.064 191.128C114.064 191.128 105.363 184.745 93.8276 183.401C82.2924 182.056 82.5877 188.854 82.5877 188.854C82.5877 188.854 80.9605 189.464 81.482 191.374C81.9971 193.29 97.6161 195.143 114.064 191.122V191.128Z" fill="white"/>
</mask>
<g mask="url(#mask3_291_6469)">
<g opacity="0.3">
<path d="M93.1365 183.326C92.8789 183.942 92.5962 184.708 92.326 185.644C92.0433 186.587 91.7668 187.705 91.5093 189.012C91.2642 190.294 91.0318 191.758 90.8559 193.429C89.6307 193.372 88.5061 193.284 87.4883 193.171C87.6516 191.613 87.8527 190.212 88.0789 188.956C88.3113 187.68 88.5626 186.549 88.8328 185.557C89.0653 184.696 89.2977 183.942 89.5365 183.276C90.5731 183.194 91.7731 183.194 93.1491 183.32L93.1365 183.326Z" fill="#75A9C8"/>
</g>
<g opacity="0.3">
<path d="M102.366 185.343C102.366 185.77 102.353 186.229 102.341 186.725C102.303 187.718 102.228 188.849 102.102 190.118C102.008 191.06 101.882 192.072 101.719 193.165C100.538 193.272 99.3879 193.347 98.2695 193.404C98.4957 192.021 98.6528 190.765 98.7659 189.621C98.8915 188.34 98.9544 187.202 98.992 186.235C99.0109 185.519 99.0172 184.884 99.0046 184.35C100.179 184.639 101.304 184.978 102.372 185.343H102.366Z" fill="#75A9C8"/>
</g>
<g opacity="0.3">
<path d="M114.059 191.123C112.834 191.418 111.621 191.689 110.409 191.927C107.487 191.142 104.698 190.551 102.09 190.124C100.941 189.929 99.8285 189.766 98.7541 189.628C96.0965 189.289 93.6651 189.106 91.4975 189.025C90.2598 188.974 89.1163 188.956 88.0671 188.968C85.3153 188.981 83.2231 189.15 81.9414 189.295C82.2555 188.987 82.5885 188.861 82.5885 188.861C82.5885 188.861 82.5131 187.24 83.7885 185.739C85.1519 185.638 86.842 185.563 88.821 185.569C89.9017 185.569 91.0703 185.594 92.3206 185.651C94.3373 185.751 96.5677 185.934 98.9803 186.241C100.061 186.373 101.179 186.537 102.335 186.738C104.396 187.077 106.564 187.504 108.825 188.051C112.105 189.703 114.059 191.136 114.059 191.136V191.123Z" fill="#75A9C8"/>
</g>
</g>
<path d="M114.064 191.128C114.064 191.128 105.363 184.745 93.8276 183.401C82.2924 182.056 82.5877 188.854 82.5877 188.854C82.5877 188.854 80.9605 189.464 81.482 191.374C81.9971 193.29 97.6161 195.143 114.064 191.122V191.128Z" stroke="#263238" stroke-width="0.628278" stroke-linecap="round" stroke-linejoin="round"/>
<path d="M95.1895 188.119C96.3078 188.282 97.4073 188.521 98.4879 188.854" stroke="#263238" stroke-width="0.628278" stroke-linecap="round" stroke-linejoin="round"/>
<path d="M82.5879 188.854C85.924 188.006 89.4675 187.685 92.8979 187.886" stroke="#263238" stroke-width="0.628278" stroke-linecap="round" stroke-linejoin="round"/>
<path d="M62.6387 188.062C62.6575 189.168 62.7329 190.274 62.8523 191.374" stroke="#263238" stroke-width="0.628278" stroke-linecap="round" stroke-linejoin="round"/>
<path d="M67.6901 174.611C64.1906 176.898 62.9529 181.855 62.6953 185.725" stroke="#263238" stroke-width="0.628278" stroke-linecap="round" stroke-linejoin="round"/>
<path d="M150.585 203.832C149.687 204.756 148.656 205.579 147.469 206.1" stroke="#263238" stroke-width="0.628278" stroke-linecap="round" stroke-linejoin="round"/>
<path d="M160.538 181.83C158.433 188.49 156.19 195.778 152.182 201.935" stroke="#263238" stroke-width="0.628278" stroke-linecap="round" stroke-linejoin="round"/>
<path d="M136.248 229.372C136.248 229.372 133.012 230.949 128.715 222.052" stroke="#263238" stroke-width="0.628278" stroke-linecap="round" stroke-linejoin="round"/>
<path d="M130.864 237.885C127.754 243.344 123.274 248.421 117.293 250.733" stroke="#263238" stroke-width="0.628278" stroke-linecap="round" stroke-linejoin="round"/>
<path d="M133.289 232.814C132.962 233.7 132.572 234.561 132.164 235.409" stroke="#263238" stroke-width="0.628278" stroke-linecap="round" stroke-linejoin="round"/>
</g>
<defs>
<clipPath id="clip0_291_6469">
<rect width="280.57" height="253.642" fill="white"/>
</clipPath>
</defs>
</svg>
