<svg width="24" height="24" viewBox="0 0 24 24" fill="none" xmlns="http://www.w3.org/2000/svg">
<path d="M21 12.0016H18V4.80302C18.0007 4.66208 17.9548 4.52349 17.867 4.4013C17.7792 4.2791 17.6526 4.17763 17.5 4.10716C17.348 4.03696 17.1755 4 17 4C16.8245 4 16.652 4.03696 16.5 4.10716L13.5 5.48288L10.5 4.10716C10.348 4.03696 10.1755 4 10 4C9.82447 4 9.65202 4.03696 9.50001 4.10716L6.50001 5.48288L3.50001 4.10716C3.34799 4.03696 3.17554 4 3.00001 4C2.82447 4 2.65203 4.03696 2.50001 4.10716C2.3474 4.17763 2.22079 4.2791 2.13299 4.4013C2.04518 4.52349 1.99931 4.66208 2.00001 4.80302V17.6005C2.00001 18.2369 2.31608 18.8472 2.87869 19.2972C3.4413 19.7472 4.20436 20 5.00001 20H19C19.7957 20 20.5587 19.7472 21.1213 19.2972C21.6839 18.8472 22 18.2369 22 17.6005V12.8014C22 12.5893 21.8946 12.3859 21.7071 12.2359C21.5196 12.0859 21.2652 12.0016 21 12.0016ZM5.00001 18.4003C4.73479 18.4003 4.48044 18.316 4.2929 18.166C4.10536 18.0161 4.00001 17.8126 4.00001 17.6005V6.18674L6.00001 7.09856C6.15434 7.16304 6.32588 7.19671 6.50001 7.19671C6.67413 7.19671 6.84567 7.16304 7.00001 7.09856L10 5.72284L13 7.09856C13.1543 7.16304 13.3259 7.19671 13.5 7.19671C13.6741 7.19671 13.8457 7.16304 14 7.09856L16 6.18674V17.6005C16.0027 17.8733 16.0636 18.1438 16.18 18.4003H5.00001ZM20 17.6005C20 17.8126 19.8946 18.0161 19.7071 18.166C19.5196 18.316 19.2652 18.4003 19 18.4003C18.7348 18.4003 18.4804 18.316 18.2929 18.166C18.1054 18.0161 18 17.8126 18 17.6005V13.6013H20V17.6005Z" fill="#717171"/>
<path d="M7.00016 15.201H13.0002C13.2654 15.201 13.5197 15.2852 13.7073 15.4352C13.8948 15.5852 14.0002 15.7887 14.0002 16.0008C14.0002 16.2129 13.8948 16.4164 13.7073 16.5664C13.5197 16.7164 13.2654 16.8006 13.0002 16.8006H7.00016C6.73494 16.8006 6.48059 16.7164 6.29305 16.5664C6.10551 16.4164 6.00016 16.2129 6.00016 16.0008C6.00016 15.7887 6.10551 15.5852 6.29305 15.4352C6.48059 15.2852 6.73494 15.201 7.00016 15.201Z" fill="#717171"/>
<path d="M11.0002 10.4019H9.00016C8.73494 10.4019 8.48059 10.3176 8.29305 10.1676C8.10551 10.0176 8.00016 9.8142 8.00016 9.60207C8.00016 9.38993 8.10551 9.18649 8.29305 9.03649C8.48059 8.88649 8.73494 8.80222 9.00016 8.80222H11.0002C11.2654 8.80222 11.5197 8.88649 11.7073 9.03649C11.8948 9.18649 12.0002 9.38993 12.0002 9.60207C12.0002 9.8142 11.8948 10.0176 11.7073 10.1676C11.5197 10.3176 11.2654 10.4019 11.0002 10.4019Z" fill="#717171"/>
<path d="M7.00016 12.0016H13.0002C13.2654 12.0016 13.5197 12.0859 13.7073 12.2359C13.8948 12.3859 14.0002 12.5893 14.0002 12.8014C14.0002 13.0136 13.8948 13.217 13.7073 13.367C13.5197 13.517 13.2654 13.6013 13.0002 13.6013H7.00016C6.73494 13.6013 6.48059 13.517 6.29305 13.367C6.10551 13.217 6.00016 13.0136 6.00016 12.8014C6.00016 12.5893 6.10551 12.3859 6.29305 12.2359C6.48059 12.0859 6.73494 12.0016 7.00016 12.0016Z" fill="#717171"/>
</svg>
